<?xml version="1.0" encoding="utf-8"?>
<!-- Generator: Adobe Illustrator 24.0.2, SVG Export Plug-In . SVG Version: 6.00 Build 0)  -->
<svg version="1.1" id="Capa_1" xmlns="http://www.w3.org/2000/svg" xmlns:xlink="http://www.w3.org/1999/xlink" x="0px" y="0px"
	 viewBox="0 0 154.9 29" style="enable-background:new 0 0 154.9 29;" xml:space="preserve">
<style type="text/css">
	.st0{fill:#25D366;}
	.st1{fill-rule:evenodd;clip-rule:evenodd;fill:url(#SVGID_1_);}
	.st2{fill-rule:evenodd;clip-rule:evenodd;fill:#FFFFFF;}
	.st3{fill:#FFFFFF;}
</style>
<title>boton de whatsapp</title>
<path class="st0" d="M14.5,0h125.9c8,0,14.5,6.5,14.5,14.5l0,0c0,8-6.5,14.5-14.5,14.5H14.5C6.5,29,0,22.5,0,14.5l0,0
	C0,6.5,6.5,0,14.5,0z"/>
<linearGradient id="SVGID_1_" gradientUnits="userSpaceOnUse" x1="19.5" y1="1054.1801" x2="19.5" y2="1071.8691" gradientTransform="matrix(1 0 0 1 -1.15 -1048.6801)">
	<stop  offset="0" style="stop-color:#00C13E"/>
	<stop  offset="1" style="stop-color:#008530"/>
</linearGradient>
<path class="st1" d="M18.3,5.5c-4.9,0-8.9,3.9-8.9,8.8c0,1.9,0.6,3.7,1.7,5.2L10,22.8l3.4-1.1c4.1,2.7,9.7,1.5,12.4-2.6
	c0.9-1.4,1.4-3.1,1.5-4.8C27.2,9.4,23.2,5.5,18.3,5.5L18.3,5.5z"/>
<path class="st2" d="M28.4,14.3c0,5.6-4.5,10.1-10.1,10.1l0,0c-1.7,0-3.4-0.4-4.9-1.2l-5.6,1.7l1.8-5.4c-1-1.6-1.5-3.4-1.4-5.2
	c0.2-5.6,4.8-10,10.4-9.8C23.9,4.6,28.2,8.9,28.4,14.3z M18.3,5.8c-4.7,0-8.5,3.8-8.5,8.4c0,1.8,0.6,3.5,1.6,4.9l-1.1,3.1l3.3-1
	c3.9,2.6,9.1,1.5,11.7-2.4s1.5-9.1-2.4-11.7C21.5,6.3,19.9,5.8,18.3,5.8z M23.4,16.6c-0.1-0.1-0.3-0.2-0.5-0.3
	c-0.3-0.1-1.5-0.7-1.7-0.8s-0.4-0.1-0.6,0.1s-0.6,0.8-0.8,1s-0.3,0.2-0.5,0.1c-0.7-0.3-1.4-0.7-2-1.2c-0.5-0.5-1-1.1-1.4-1.7
	c-0.1-0.3,0-0.4,0.1-0.5s0.3-0.3,0.4-0.4c0.1-0.1,0.2-0.3,0.3-0.4c0.1-0.1,0.1-0.3,0-0.4c-0.1-0.1-0.6-1.3-0.8-1.8s-0.4-0.5-0.6-0.5
	c-0.1,0-0.3,0-0.4,0c-0.3,0-0.5,0.1-0.7,0.3c-0.6,0.5-0.9,1.3-0.9,2.1c0.1,0.9,0.4,1.8,1,2.5c1,1.6,2.5,2.9,4.2,3.7
	c2.5,1,2.5,0.7,3,0.6c0.7-0.1,1.3-0.6,1.7-1.2C23.4,17.4,23.4,17,23.4,16.6L23.4,16.6z"/>
<g>
	<path class="st3" d="M39,16.4c0.1,0,0.1,0,0.1,0.1l0.4,0.4c-0.3,0.3-0.6,0.6-1,0.7c-0.4,0.2-0.9,0.3-1.4,0.3
		c-0.5,0-0.9-0.1-1.3-0.3c-0.4-0.2-0.7-0.4-1-0.7c-0.3-0.3-0.5-0.7-0.6-1.1C34.1,15.5,34,15,34,14.5s0.1-1,0.2-1.4
		c0.2-0.4,0.4-0.8,0.7-1.1c0.3-0.3,0.6-0.5,1-0.7s0.8-0.2,1.3-0.2c0.5,0,0.9,0.1,1.3,0.2s0.7,0.4,1,0.6l-0.3,0.5c0,0,0,0.1-0.1,0.1
		s-0.1,0-0.1,0c-0.1,0-0.1,0-0.2-0.1c-0.1-0.1-0.2-0.1-0.3-0.2c-0.1-0.1-0.3-0.1-0.5-0.2C37.8,12,37.5,12,37.2,12
		c-0.3,0-0.6,0.1-0.9,0.2c-0.3,0.1-0.5,0.3-0.7,0.5c-0.2,0.2-0.4,0.5-0.5,0.8S35,14.1,35,14.5c0,0.4,0.1,0.8,0.2,1.1
		c0.1,0.3,0.3,0.6,0.5,0.8c0.2,0.2,0.4,0.4,0.7,0.5c0.3,0.1,0.6,0.2,0.9,0.2c0.2,0,0.4,0,0.5,0s0.3-0.1,0.4-0.1
		c0.1,0,0.2-0.1,0.4-0.2s0.2-0.2,0.3-0.3C38.9,16.5,38.9,16.4,39,16.4C39,16.4,39,16.4,39,16.4z"/>
	<path class="st3" d="M42.3,13.1c0.3,0,0.7,0.1,0.9,0.2c0.3,0.1,0.5,0.3,0.7,0.5c0.2,0.2,0.3,0.5,0.5,0.8c0.1,0.3,0.2,0.6,0.2,1
		c0,0.4-0.1,0.7-0.2,1c-0.1,0.3-0.3,0.6-0.5,0.8c-0.2,0.2-0.4,0.4-0.7,0.5c-0.3,0.1-0.6,0.2-0.9,0.2c-0.3,0-0.7-0.1-0.9-0.2
		c-0.3-0.1-0.5-0.3-0.7-0.5c-0.2-0.2-0.3-0.5-0.5-0.8c-0.1-0.3-0.2-0.6-0.2-1c0-0.4,0.1-0.7,0.2-1c0.1-0.3,0.3-0.6,0.5-0.8
		c0.2-0.2,0.4-0.4,0.7-0.5C41.6,13.1,41.9,13.1,42.3,13.1z M42.3,17.2c0.4,0,0.8-0.1,1-0.4c0.2-0.3,0.3-0.7,0.3-1.3
		c0-0.5-0.1-1-0.3-1.3c-0.2-0.3-0.5-0.5-1-0.5c-0.4,0-0.8,0.2-1,0.5c-0.2,0.3-0.3,0.7-0.3,1.3c0,0.5,0.1,1,0.3,1.3
		S41.8,17.2,42.3,17.2z"/>
	<path class="st3" d="M46.4,13.8c0.1-0.1,0.2-0.2,0.3-0.3s0.2-0.2,0.4-0.2c0.1-0.1,0.3-0.1,0.4-0.1c0.1,0,0.3-0.1,0.5-0.1
		c0.3,0,0.5,0,0.7,0.1c0.2,0.1,0.4,0.2,0.5,0.4s0.2,0.3,0.3,0.6c0.1,0.2,0.1,0.5,0.1,0.7v3h-0.9v-3c0-0.3-0.1-0.6-0.2-0.8
		c-0.2-0.2-0.4-0.3-0.7-0.3c-0.2,0-0.4,0.1-0.6,0.2s-0.4,0.3-0.6,0.4v3.4h-0.9v-4.7h0.5c0.1,0,0.2,0.1,0.2,0.2L46.4,13.8z"/>
	<path class="st3" d="M53.5,13.9C53.4,14,53.4,14,53.5,13.9C53.4,14,53.3,14,53.3,14c0,0-0.1,0-0.2-0.1c-0.1,0-0.1-0.1-0.2-0.1
		s-0.2-0.1-0.3-0.1s-0.2-0.1-0.4-0.1c-0.1,0-0.2,0-0.4,0c-0.1,0-0.2,0.1-0.3,0.1c-0.1,0.1-0.1,0.1-0.2,0.2c0,0.1-0.1,0.2-0.1,0.3
		c0,0.1,0,0.2,0.1,0.3c0.1,0.1,0.2,0.1,0.3,0.2S52,15,52.1,15c0.1,0,0.3,0.1,0.4,0.1c0.1,0,0.3,0.1,0.4,0.2c0.1,0.1,0.3,0.1,0.4,0.2
		c0.1,0.1,0.2,0.2,0.3,0.3c0.1,0.1,0.1,0.3,0.1,0.5c0,0.2,0,0.4-0.1,0.6c-0.1,0.2-0.2,0.3-0.3,0.5c-0.2,0.1-0.3,0.2-0.6,0.3
		c-0.2,0.1-0.5,0.1-0.8,0.1c-0.3,0-0.6-0.1-0.9-0.2s-0.5-0.2-0.7-0.4l0.2-0.3c0,0,0.1-0.1,0.1-0.1c0,0,0.1,0,0.1,0
		c0.1,0,0.1,0,0.2,0.1s0.1,0.1,0.2,0.1c0.1,0.1,0.2,0.1,0.3,0.1c0.1,0,0.3,0.1,0.5,0.1c0.2,0,0.3,0,0.4-0.1c0.1,0,0.2-0.1,0.3-0.2
		c0.1-0.1,0.1-0.1,0.2-0.2c0-0.1,0.1-0.2,0.1-0.3c0-0.1,0-0.2-0.1-0.3c-0.1-0.1-0.2-0.2-0.3-0.2c-0.1-0.1-0.2-0.1-0.4-0.2
		c-0.1,0-0.3-0.1-0.4-0.1c-0.2,0-0.3-0.1-0.4-0.2s-0.3-0.1-0.4-0.2c-0.1-0.1-0.2-0.2-0.3-0.4c-0.1-0.1-0.1-0.3-0.1-0.5
		c0-0.2,0-0.4,0.1-0.5c0.1-0.2,0.2-0.3,0.3-0.4c0.1-0.1,0.3-0.2,0.5-0.3c0.2-0.1,0.5-0.1,0.7-0.1c0.3,0,0.6,0,0.8,0.1
		c0.3,0.1,0.5,0.2,0.6,0.4L53.5,13.9z"/>
	<path class="st3" d="M58.6,13.1v4.7h-0.5c-0.1,0-0.2-0.1-0.2-0.2l-0.1-0.5c-0.1,0.1-0.2,0.2-0.3,0.3s-0.2,0.2-0.4,0.2
		c-0.1,0.1-0.3,0.1-0.4,0.1s-0.3,0.1-0.5,0.1c-0.3,0-0.5,0-0.7-0.1s-0.4-0.2-0.5-0.4s-0.2-0.3-0.3-0.6c-0.1-0.2-0.1-0.5-0.1-0.7v-3
		h0.9v3c0,0.3,0.1,0.6,0.2,0.8c0.2,0.2,0.4,0.3,0.7,0.3c0.2,0,0.4-0.1,0.6-0.2s0.4-0.3,0.6-0.5v-3.4H58.6z"/>
	<path class="st3" d="M60.8,11v6.8h-0.9V11H60.8z"/>
	<path class="st3" d="M63.5,17.9c-0.4,0-0.7-0.1-0.9-0.3c-0.2-0.2-0.3-0.5-0.3-0.9v-2.8h-0.5c-0.1,0-0.1,0-0.1,0
		c0,0-0.1-0.1-0.1-0.1v-0.4l0.8-0.1l0.2-1.4c0-0.1,0-0.1,0.1-0.1c0,0,0.1,0,0.1,0h0.5v1.6h1.3v0.7h-1.3v2.7c0,0.2,0,0.3,0.1,0.4
		s0.2,0.1,0.3,0.1c0.1,0,0.2,0,0.2,0s0.1,0,0.2-0.1c0,0,0.1,0,0.1-0.1s0.1,0,0.1,0c0,0,0.1,0,0.1,0c0,0,0,0,0.1,0.1l0.3,0.4
		c-0.1,0.1-0.3,0.2-0.5,0.3C64,17.9,63.8,17.9,63.5,17.9z"/>
	<path class="st3" d="M65.3,13.8c0.3-0.2,0.5-0.4,0.9-0.6s0.6-0.2,1-0.2c0.3,0,0.5,0,0.7,0.1c0.2,0.1,0.4,0.2,0.5,0.4
		c0.1,0.2,0.2,0.3,0.3,0.6c0.1,0.2,0.1,0.5,0.1,0.7v3h-0.4c-0.1,0-0.2,0-0.2,0c0,0-0.1-0.1-0.1-0.2L68,17.2
		c-0.1,0.1-0.2,0.2-0.4,0.3c-0.1,0.1-0.2,0.2-0.4,0.2c-0.1,0.1-0.3,0.1-0.4,0.1c-0.1,0-0.3,0-0.5,0c-0.2,0-0.4,0-0.5-0.1
		s-0.3-0.1-0.4-0.2s-0.2-0.2-0.3-0.4c-0.1-0.2-0.1-0.3-0.1-0.5c0-0.2,0-0.4,0.1-0.5s0.3-0.3,0.5-0.5c0.2-0.1,0.5-0.2,0.9-0.3
		c0.4-0.1,0.8-0.1,1.3-0.1v-0.3c0-0.4-0.1-0.6-0.2-0.8c-0.2-0.2-0.4-0.3-0.7-0.3c-0.2,0-0.4,0-0.5,0.1s-0.2,0.1-0.3,0.2
		c-0.1,0.1-0.2,0.1-0.3,0.2c-0.1,0-0.1,0.1-0.2,0.1c-0.1,0-0.1,0-0.2-0.1c0,0-0.1-0.1-0.1-0.1L65.3,13.8z M67.9,15.7
		c-0.4,0-0.7,0-0.9,0.1s-0.5,0.1-0.6,0.2c-0.2,0.1-0.3,0.2-0.3,0.3c-0.1,0.1-0.1,0.2-0.1,0.3c0,0.1,0,0.2,0.1,0.3s0.1,0.2,0.2,0.2
		c0.1,0.1,0.1,0.1,0.2,0.1s0.2,0,0.3,0c0.1,0,0.3,0,0.4,0c0.1,0,0.2-0.1,0.3-0.1s0.2-0.1,0.3-0.2c0.1-0.1,0.2-0.2,0.3-0.3V15.7z
		 M68.5,11.1l-1.1,1.2c0,0.1-0.1,0.1-0.1,0.1s-0.1,0-0.2,0h-0.5l0.7-1.1c0-0.1,0.1-0.1,0.1-0.2c0.1,0,0.1-0.1,0.2-0.1H68.5z"/>
	<path class="st3" d="M73.2,13.8c0.1-0.1,0.2-0.2,0.3-0.3c0.1-0.1,0.2-0.2,0.4-0.2c0.1-0.1,0.3-0.1,0.4-0.2c0.1,0,0.3-0.1,0.5-0.1
		c0.3,0,0.5,0.1,0.7,0.2s0.4,0.3,0.6,0.5c0.2,0.2,0.3,0.5,0.4,0.8c0.1,0.3,0.1,0.6,0.1,1c0,0.3,0,0.7-0.1,1S76.2,17,76,17.2
		c-0.2,0.2-0.4,0.4-0.6,0.5c-0.3,0.1-0.5,0.2-0.8,0.2c-0.3,0-0.5,0-0.7-0.1c-0.2-0.1-0.4-0.2-0.5-0.4v2h-0.9v-6.3h0.5
		c0.1,0,0.2,0.1,0.2,0.2L73.2,13.8z M73.3,16.7c0.1,0.2,0.3,0.3,0.5,0.4s0.4,0.1,0.6,0.1c0.4,0,0.7-0.1,1-0.4
		c0.2-0.3,0.3-0.7,0.3-1.3c0-0.3,0-0.6-0.1-0.8c-0.1-0.2-0.1-0.4-0.2-0.5c-0.1-0.1-0.2-0.2-0.4-0.3c-0.1-0.1-0.3-0.1-0.5-0.1
		c-0.3,0-0.5,0.1-0.7,0.2c-0.2,0.1-0.4,0.3-0.5,0.5V16.7z"/>
	<path class="st3" d="M79.6,13.1c0.3,0,0.7,0.1,0.9,0.2c0.3,0.1,0.5,0.3,0.7,0.5s0.3,0.5,0.4,0.8c0.1,0.3,0.2,0.6,0.2,1
		c0,0.4-0.1,0.7-0.2,1c-0.1,0.3-0.3,0.6-0.4,0.8c-0.2,0.2-0.4,0.4-0.7,0.5c-0.3,0.1-0.6,0.2-0.9,0.2c-0.3,0-0.7-0.1-0.9-0.2
		c-0.3-0.1-0.5-0.3-0.7-0.5c-0.2-0.2-0.3-0.5-0.5-0.8c-0.1-0.3-0.2-0.6-0.2-1c0-0.4,0.1-0.7,0.2-1c0.1-0.3,0.3-0.6,0.5-0.8
		s0.4-0.4,0.7-0.5C78.9,13.1,79.2,13.1,79.6,13.1z M79.6,17.2c0.4,0,0.8-0.1,1-0.4c0.2-0.3,0.3-0.7,0.3-1.3c0-0.5-0.1-1-0.3-1.3
		c-0.2-0.3-0.5-0.5-1-0.5c-0.4,0-0.8,0.2-1,0.5c-0.2,0.3-0.3,0.7-0.3,1.3c0,0.5,0.1,1,0.3,1.3S79.1,17.2,79.6,17.2z"/>
	<path class="st3" d="M83.7,14c0.2-0.3,0.3-0.5,0.5-0.7c0.2-0.2,0.5-0.3,0.8-0.3c0.1,0,0.2,0,0.3,0c0.1,0,0.2,0.1,0.2,0.1l-0.1,0.7
		c0,0.1-0.1,0.1-0.2,0.1c0,0-0.1,0-0.2,0c-0.1,0-0.2,0-0.3,0c-0.1,0-0.3,0-0.4,0.1c-0.1,0-0.2,0.1-0.3,0.2s-0.2,0.2-0.2,0.3
		c-0.1,0.1-0.1,0.3-0.2,0.4v2.9h-0.9v-4.7h0.5c0.1,0,0.2,0,0.2,0.1c0,0,0.1,0.1,0.1,0.2L83.7,14z"/>
	<path class="st3" d="M92.2,17.2c-0.1,0.1-0.2,0.2-0.4,0.3s-0.3,0.2-0.5,0.2c-0.2,0.1-0.3,0.1-0.5,0.1c-0.2,0-0.3,0-0.5,0
		c-0.3,0-0.6-0.1-0.9-0.2c-0.3-0.1-0.5-0.3-0.7-0.5c-0.2-0.2-0.4-0.5-0.5-0.8s-0.2-0.7-0.2-1.1c0-0.3,0.1-0.6,0.2-0.9
		c0.1-0.3,0.2-0.5,0.4-0.7c0.2-0.2,0.4-0.4,0.7-0.5c0.3-0.1,0.6-0.2,0.9-0.2c0.3,0,0.6,0,0.8,0.1c0.2,0.1,0.5,0.2,0.6,0.4
		s0.3,0.4,0.4,0.7s0.2,0.6,0.2,0.9c0,0.1,0,0.2,0,0.3c0,0-0.1,0.1-0.2,0.1H89c0,0.3,0,0.5,0.1,0.7c0.1,0.2,0.2,0.4,0.3,0.5
		c0.1,0.1,0.3,0.2,0.4,0.3c0.2,0.1,0.4,0.1,0.6,0.1c0.2,0,0.4,0,0.5-0.1s0.3-0.1,0.4-0.1c0.1-0.1,0.2-0.1,0.3-0.2s0.1-0.1,0.2-0.1
		c0.1,0,0.1,0,0.2,0.1L92.2,17.2z M91.4,15c0-0.2,0-0.3-0.1-0.5s-0.1-0.3-0.2-0.4c-0.1-0.1-0.2-0.2-0.4-0.3s-0.3-0.1-0.5-0.1
		c-0.4,0-0.7,0.1-0.9,0.3C89.2,14.3,89,14.6,89,15H91.4z"/>
	<path class="st3" d="M96,13.9C96,14,95.9,14,96,13.9C95.9,14,95.8,14,95.8,14c0,0-0.1,0-0.2-0.1c-0.1,0-0.1-0.1-0.2-0.1
		c-0.1,0-0.2-0.1-0.3-0.1c-0.1,0-0.3-0.1-0.4-0.1c-0.1,0-0.2,0-0.4,0s-0.2,0.1-0.3,0.1C94,14,94,14,93.9,14.1c0,0.1-0.1,0.2-0.1,0.3
		c0,0.1,0,0.2,0.1,0.3c0.1,0.1,0.2,0.1,0.3,0.2s0.2,0.1,0.4,0.1c0.1,0,0.3,0.1,0.4,0.1s0.3,0.1,0.4,0.2c0.1,0.1,0.3,0.1,0.4,0.2
		s0.2,0.2,0.3,0.3s0.1,0.3,0.1,0.5c0,0.2,0,0.4-0.1,0.6c-0.1,0.2-0.2,0.3-0.3,0.5c-0.2,0.1-0.3,0.2-0.6,0.3
		c-0.2,0.1-0.5,0.1-0.8,0.1c-0.3,0-0.6-0.1-0.9-0.2c-0.3-0.1-0.5-0.2-0.7-0.4l0.2-0.3c0,0,0.1-0.1,0.1-0.1c0,0,0.1,0,0.1,0
		c0.1,0,0.1,0,0.2,0.1s0.1,0.1,0.2,0.1c0.1,0.1,0.2,0.1,0.3,0.1c0.1,0,0.3,0.1,0.5,0.1c0.2,0,0.3,0,0.4-0.1c0.1,0,0.2-0.1,0.3-0.2
		s0.1-0.1,0.2-0.2s0.1-0.2,0.1-0.3c0-0.1,0-0.2-0.1-0.3c-0.1-0.1-0.2-0.2-0.3-0.2c-0.1-0.1-0.2-0.1-0.4-0.2c-0.1,0-0.3-0.1-0.4-0.1
		c-0.2,0-0.3-0.1-0.4-0.2c-0.1-0.1-0.3-0.1-0.4-0.2s-0.2-0.2-0.3-0.4C93,14.8,93,14.6,93,14.4c0-0.2,0-0.4,0.1-0.5
		c0.1-0.2,0.2-0.3,0.3-0.4c0.1-0.1,0.3-0.2,0.5-0.3c0.2-0.1,0.5-0.1,0.7-0.1c0.3,0,0.6,0,0.8,0.1c0.3,0.1,0.5,0.2,0.6,0.4L96,13.9z"
		/>
	<path class="st3" d="M98.7,17.9c-0.4,0-0.7-0.1-0.9-0.3c-0.2-0.2-0.3-0.5-0.3-0.9v-2.8H97c-0.1,0-0.1,0-0.1,0s-0.1-0.1-0.1-0.1
		v-0.4l0.8-0.1l0.2-1.4c0-0.1,0-0.1,0.1-0.1s0.1,0,0.1,0h0.5v1.6h1.3v0.7h-1.3v2.7c0,0.2,0,0.3,0.1,0.4s0.2,0.1,0.3,0.1
		c0.1,0,0.2,0,0.2,0s0.1,0,0.2-0.1c0,0,0.1,0,0.1-0.1c0,0,0.1,0,0.1,0c0,0,0.1,0,0.1,0c0,0,0,0,0.1,0.1l0.3,0.4
		c-0.1,0.1-0.3,0.2-0.5,0.3C99.1,17.9,98.9,17.9,98.7,17.9z"/>
	<path class="st3" d="M104.4,17.2c-0.1,0.1-0.2,0.2-0.4,0.3s-0.3,0.2-0.5,0.2c-0.2,0.1-0.3,0.1-0.5,0.1c-0.2,0-0.3,0-0.5,0
		c-0.3,0-0.6-0.1-0.9-0.2c-0.3-0.1-0.5-0.3-0.7-0.5c-0.2-0.2-0.4-0.5-0.5-0.8s-0.2-0.7-0.2-1.1c0-0.3,0.1-0.6,0.2-0.9
		c0.1-0.3,0.2-0.5,0.4-0.7c0.2-0.2,0.4-0.4,0.7-0.5c0.3-0.1,0.6-0.2,0.9-0.2c0.3,0,0.6,0,0.8,0.1c0.2,0.1,0.5,0.2,0.6,0.4
		s0.3,0.4,0.4,0.7s0.2,0.6,0.2,0.9c0,0.1,0,0.2,0,0.3c0,0-0.1,0.1-0.2,0.1h-3.1c0,0.3,0,0.5,0.1,0.7c0.1,0.2,0.2,0.4,0.3,0.5
		c0.1,0.1,0.3,0.2,0.4,0.3c0.2,0.1,0.4,0.1,0.6,0.1c0.2,0,0.4,0,0.5-0.1s0.3-0.1,0.4-0.1c0.1-0.1,0.2-0.1,0.3-0.2s0.1-0.1,0.2-0.1
		c0.1,0,0.1,0,0.2,0.1L104.4,17.2z M103.7,15c0-0.2,0-0.3-0.1-0.5s-0.1-0.3-0.2-0.4c-0.1-0.1-0.2-0.2-0.4-0.3s-0.3-0.1-0.5-0.1
		c-0.4,0-0.7,0.1-0.9,0.3c-0.2,0.2-0.4,0.5-0.4,0.9H103.7z"/>
	<path class="st3" d="M108.6,13.8c0.1-0.1,0.2-0.2,0.3-0.3c0.1-0.1,0.2-0.2,0.4-0.2c0.1-0.1,0.3-0.1,0.4-0.2c0.1,0,0.3-0.1,0.5-0.1
		c0.3,0,0.5,0.1,0.7,0.2s0.4,0.3,0.6,0.5c0.2,0.2,0.3,0.5,0.4,0.8c0.1,0.3,0.1,0.6,0.1,1c0,0.3,0,0.7-0.1,1s-0.2,0.6-0.4,0.8
		c-0.2,0.2-0.4,0.4-0.6,0.5c-0.3,0.1-0.5,0.2-0.8,0.2c-0.3,0-0.5,0-0.7-0.1c-0.2-0.1-0.4-0.2-0.5-0.4v2h-0.9v-6.3h0.5
		c0.1,0,0.2,0.1,0.2,0.2L108.6,13.8z M108.7,16.7c0.1,0.2,0.3,0.3,0.5,0.4s0.4,0.1,0.6,0.1c0.4,0,0.7-0.1,1-0.4
		c0.2-0.3,0.3-0.7,0.3-1.3c0-0.3,0-0.6-0.1-0.8c-0.1-0.2-0.1-0.4-0.2-0.5c-0.1-0.1-0.2-0.2-0.4-0.3s-0.3-0.1-0.5-0.1
		c-0.3,0-0.5,0.1-0.7,0.2c-0.2,0.1-0.4,0.3-0.5,0.5V16.7z"/>
	<path class="st3" d="M113.8,14c0.2-0.3,0.3-0.5,0.5-0.7c0.2-0.2,0.5-0.3,0.8-0.3c0.1,0,0.2,0,0.3,0c0.1,0,0.2,0.1,0.2,0.1l-0.1,0.7
		c0,0.1-0.1,0.1-0.2,0.1c0,0-0.1,0-0.2,0c-0.1,0-0.2,0-0.3,0c-0.1,0-0.3,0-0.4,0.1c-0.1,0-0.2,0.1-0.3,0.2s-0.2,0.2-0.2,0.3
		c-0.1,0.1-0.1,0.3-0.2,0.4v2.9H113v-4.7h0.5c0.1,0,0.2,0,0.2,0.1c0,0,0.1,0.1,0.1,0.2L113.8,14z"/>
	<path class="st3" d="M118.2,13.1c0.3,0,0.7,0.1,0.9,0.2s0.5,0.3,0.7,0.5s0.3,0.5,0.5,0.8s0.2,0.6,0.2,1c0,0.4-0.1,0.7-0.2,1
		c-0.1,0.3-0.3,0.6-0.5,0.8c-0.2,0.2-0.4,0.4-0.7,0.5s-0.6,0.2-0.9,0.2c-0.3,0-0.7-0.1-0.9-0.2c-0.3-0.1-0.5-0.3-0.7-0.5
		c-0.2-0.2-0.3-0.5-0.5-0.8c-0.1-0.3-0.2-0.6-0.2-1c0-0.4,0.1-0.7,0.2-1c0.1-0.3,0.3-0.6,0.5-0.8c0.2-0.2,0.4-0.4,0.7-0.5
		C117.5,13.1,117.8,13.1,118.2,13.1z M118.2,17.2c0.4,0,0.8-0.1,1-0.4c0.2-0.3,0.3-0.7,0.3-1.3c0-0.5-0.1-1-0.3-1.3
		c-0.2-0.3-0.5-0.5-1-0.5c-0.4,0-0.8,0.2-1,0.5c-0.2,0.3-0.3,0.7-0.3,1.3c0,0.5,0.1,1,0.3,1.3C117.4,17,117.7,17.2,118.2,17.2z"/>
	<path class="st3" d="M125.4,11v6.8h-0.5c-0.1,0-0.2-0.1-0.2-0.2l-0.1-0.5c-0.2,0.2-0.4,0.4-0.7,0.6c-0.3,0.1-0.5,0.2-0.9,0.2
		c-0.3,0-0.5-0.1-0.7-0.2c-0.2-0.1-0.4-0.3-0.6-0.5c-0.2-0.2-0.3-0.5-0.4-0.8s-0.1-0.6-0.1-1c0-0.3,0-0.7,0.1-1
		c0.1-0.3,0.2-0.6,0.4-0.8c0.2-0.2,0.4-0.4,0.6-0.5c0.3-0.1,0.5-0.2,0.8-0.2c0.3,0,0.5,0,0.7,0.1c0.2,0.1,0.4,0.2,0.5,0.4V11H125.4z
		 M124.5,14.3c-0.1-0.2-0.3-0.3-0.5-0.4c-0.2-0.1-0.4-0.1-0.6-0.1c-0.4,0-0.7,0.1-1,0.4c-0.2,0.3-0.3,0.7-0.3,1.3
		c0,0.3,0,0.6,0.1,0.8s0.1,0.4,0.2,0.5c0.1,0.1,0.2,0.2,0.4,0.3s0.3,0.1,0.5,0.1c0.3,0,0.5-0.1,0.7-0.2c0.2-0.1,0.4-0.3,0.5-0.5
		V14.3z"/>
	<path class="st3" d="M130.5,13.1v4.7H130c-0.1,0-0.2-0.1-0.2-0.2l-0.1-0.5c-0.1,0.1-0.2,0.2-0.3,0.3c-0.1,0.1-0.2,0.2-0.4,0.2
		s-0.3,0.1-0.4,0.1s-0.3,0.1-0.5,0.1c-0.3,0-0.5,0-0.7-0.1c-0.2-0.1-0.4-0.2-0.5-0.4s-0.2-0.3-0.3-0.6c-0.1-0.2-0.1-0.5-0.1-0.7v-3
		h0.9v3c0,0.3,0.1,0.6,0.2,0.8c0.2,0.2,0.4,0.3,0.7,0.3c0.2,0,0.4-0.1,0.6-0.2s0.4-0.3,0.6-0.5v-3.4H130.5z"/>
	<path class="st3" d="M135.1,14C135,14,135,14.1,135.1,14c-0.1,0.1-0.1,0.1-0.2,0.1c0,0-0.1,0-0.2-0.1c-0.1,0-0.1-0.1-0.2-0.1
		c-0.1,0-0.2-0.1-0.3-0.1c-0.1,0-0.3-0.1-0.4-0.1c-0.2,0-0.4,0-0.6,0.1c-0.2,0.1-0.3,0.2-0.4,0.3c-0.1,0.1-0.2,0.3-0.3,0.5
		c-0.1,0.2-0.1,0.5-0.1,0.7c0,0.3,0,0.5,0.1,0.7s0.1,0.4,0.3,0.5c0.1,0.1,0.3,0.3,0.4,0.3c0.2,0.1,0.3,0.1,0.5,0.1
		c0.2,0,0.4,0,0.5-0.1s0.2-0.1,0.3-0.2c0.1-0.1,0.2-0.1,0.2-0.2s0.1-0.1,0.2-0.1c0.1,0,0.1,0,0.2,0.1l0.3,0.3
		c-0.1,0.1-0.2,0.2-0.4,0.3c-0.1,0.1-0.3,0.2-0.4,0.2c-0.2,0.1-0.3,0.1-0.5,0.1c-0.2,0-0.3,0-0.5,0c-0.3,0-0.6-0.1-0.8-0.2
		c-0.3-0.1-0.5-0.3-0.7-0.5c-0.2-0.2-0.3-0.5-0.4-0.8c-0.1-0.3-0.2-0.6-0.2-1c0-0.3,0-0.7,0.1-1c0.1-0.3,0.2-0.6,0.4-0.8
		s0.4-0.4,0.7-0.5c0.3-0.1,0.6-0.2,1-0.2c0.3,0,0.6,0.1,0.9,0.2c0.3,0.1,0.5,0.3,0.7,0.5L135.1,14z"/>
	<path class="st3" d="M137.7,17.9c-0.4,0-0.7-0.1-0.9-0.3c-0.2-0.2-0.3-0.5-0.3-0.9v-2.8h-0.5c-0.1,0-0.1,0-0.1,0s-0.1-0.1-0.1-0.1
		v-0.4l0.8-0.1l0.2-1.4c0-0.1,0-0.1,0.1-0.1s0.1,0,0.1,0h0.5v1.6h1.3v0.7h-1.3v2.7c0,0.2,0,0.3,0.1,0.4s0.2,0.1,0.3,0.1
		c0.1,0,0.2,0,0.2,0s0.1,0,0.2-0.1c0,0,0.1,0,0.1-0.1c0,0,0.1,0,0.1,0c0,0,0.1,0,0.1,0c0,0,0,0,0.1,0.1l0.3,0.4
		c-0.1,0.1-0.3,0.2-0.5,0.3C138.1,17.9,137.9,17.9,137.7,17.9z"/>
	<path class="st3" d="M141.5,13.1c0.3,0,0.7,0.1,0.9,0.2s0.5,0.3,0.7,0.5s0.3,0.5,0.5,0.8s0.2,0.6,0.2,1c0,0.4-0.1,0.7-0.2,1
		c-0.1,0.3-0.3,0.6-0.5,0.8c-0.2,0.2-0.4,0.4-0.7,0.5s-0.6,0.2-0.9,0.2c-0.3,0-0.7-0.1-0.9-0.2c-0.3-0.1-0.5-0.3-0.7-0.5
		c-0.2-0.2-0.3-0.5-0.5-0.8c-0.1-0.3-0.2-0.6-0.2-1c0-0.4,0.1-0.7,0.2-1c0.1-0.3,0.3-0.6,0.5-0.8c0.2-0.2,0.4-0.4,0.7-0.5
		C140.9,13.1,141.2,13.1,141.5,13.1z M141.5,17.2c0.4,0,0.8-0.1,1-0.4c0.2-0.3,0.3-0.7,0.3-1.3c0-0.5-0.1-1-0.3-1.3
		c-0.2-0.3-0.5-0.5-1-0.5c-0.4,0-0.8,0.2-1,0.5c-0.2,0.3-0.3,0.7-0.3,1.3c0,0.5,0.1,1,0.3,1.3C140.7,17,141.1,17.2,141.5,17.2z"/>
	<path class="st3" d="M144.8,17.3c0-0.1,0-0.2,0-0.2c0-0.1,0.1-0.1,0.1-0.2s0.1-0.1,0.2-0.1c0.1,0,0.2,0,0.2,0c0.1,0,0.2,0,0.2,0
		c0.1,0,0.1,0.1,0.2,0.1s0.1,0.1,0.1,0.2c0,0.1,0,0.2,0,0.2c0,0.1,0,0.2,0,0.2c0,0.1-0.1,0.1-0.1,0.2c-0.1,0.1-0.1,0.1-0.2,0.1
		c-0.1,0-0.2,0-0.2,0c-0.1,0-0.2,0-0.2,0c-0.1,0-0.1-0.1-0.2-0.1c-0.1-0.1-0.1-0.1-0.1-0.2C144.8,17.4,144.8,17.4,144.8,17.3z
		 M145.8,11.2v2.6c0,0.1,0,0.3,0,0.4c0,0.1,0,0.3,0,0.4c0,0.1,0,0.3,0,0.4c0,0.1,0,0.3-0.1,0.4h-0.6c0-0.2,0-0.3-0.1-0.4
		c0-0.1,0-0.3,0-0.4c0-0.1,0-0.3,0-0.4c0-0.1,0-0.3,0-0.4v-2.6H145.8z"/>
</g>
</svg>
