<?xml version="1.0" standalone="no"?>
<!DOCTYPE svg PUBLIC "-//W3C//DTD SVG 20010904//EN"
 "http://www.w3.org/TR/2001/REC-SVG-20010904/DTD/svg10.dtd">
<svg version="1.0" xmlns="http://www.w3.org/2000/svg"
 width="73.000000pt" height="80.000000pt" viewBox="0 0 80.000000 62.000000"
 preserveAspectRatio="xMidYMid meet">

<g transform="translate(0.000000,62.000000) scale(0.100000,-0.100000)"
fill="#074CA6" stroke="none">
<path d="M200 511 c-102 -55 -185 -104 -185 -111 0 -6 23 -23 50 -38 l50 -27
3 -83 c2 -64 6 -82 17 -82 16 0 17 -7 15 -92 -1 -52 1 -59 23 -69 18 -8 30 -8
46 0 19 10 21 20 20 96 -1 69 -5 87 -20 101 -18 16 -27 74 -11 74 4 0 49 -21
100 -47 l92 -48 131 68 130 68 -3 -78 -3 -78 -69 -35 c-60 -30 -80 -35 -160
-38 -50 -2 -109 1 -129 6 -29 8 -37 8 -34 -1 6 -19 77 -29 170 -24 78 4 97 9
165 43 l77 39 5 90 5 90 48 26 c26 14 52 30 57 35 9 9 -365 214 -391 214 -8 0
-97 -45 -199 -99z m386 -13 c95 -51 174 -95 174 -98 -1 -7 -347 -190 -361
-190 -15 0 -179 90 -179 98 0 12 146 82 171 82 14 0 34 6 45 14 15 12 17 18 8
33 -22 37 -94 24 -94 -16 0 -11 -29 -32 -80 -60 l-81 -43 -74 39 c-41 21 -75
40 -75 43 0 8 343 189 358 190 8 0 92 -42 188 -92z m-161 -68 c8 -13 -20 -24
-41 -16 -20 8 -9 26 16 26 10 0 22 -5 25 -10z m-245 -170 c0 -27 -7 -47 -20
-60 l-20 -20 0 70 c0 68 1 70 20 60 15 -8 20 -21 20 -50z m24 -66 c20 -8 21
-43 1 -50 -24 -10 -47 14 -34 37 11 21 11 21 33 13z m16 -119 c0 -50 -20 -69
-46 -43 -11 11 -14 25 -9 52 6 29 12 36 31 36 22 0 24 -4 24 -45z"/>
</g>
</svg>
