<?xml version="1.0" standalone="no"?>
<!DOCTYPE svg PUBLIC "-//W3C//DTD SVG 20010904//EN"
 "http://www.w3.org/TR/2001/REC-SVG-20010904/DTD/svg10.dtd">
<svg version="1.0" xmlns="http://www.w3.org/2000/svg"
 width="73.000000pt" height="80.000000pt" viewBox="0 0 80.000000 80.000000"
 preserveAspectRatio="xMidYMid meet">

<g transform="translate(0.000000,80.000000) scale(0.100000,-0.100000)"
fill="#074CA6" stroke="none">
<path d="M657 752 c-33 -33 -47 -56 -47 -75 l0 -27 -37 24 c-95 63 -229 77
-338 35 -83 -31 -173 -121 -205 -204 -43 -114 -27 -251 41 -345 43 -59 46 -44
5 24 -64 106 -72 222 -23 329 35 77 88 132 165 169 60 30 76 33 152 33 70 -1
95 -5 140 -26 30 -14 65 -35 78 -45 l23 -19 -29 -28 -30 -29 -38 26 c-144 95
-349 20 -398 -145 -20 -66 -20 -92 0 -160 30 -101 148 -189 254 -189 55 0 132
31 175 71 56 51 105 149 76 149 -5 0 -11 -13 -14 -29 -17 -85 -135 -171 -236
-171 -188 1 -308 194 -224 361 66 129 225 176 350 104 l45 -27 -29 -29 -29
-29 -39 20 c-87 44 -192 5 -231 -87 -57 -134 85 -276 219 -219 92 39 131 144
87 231 l-20 39 29 29 29 29 26 -44 c14 -25 29 -66 32 -92 4 -28 11 -43 16 -38
14 14 -10 102 -38 146 l-26 38 29 30 28 29 19 -23 c10 -13 31 -48 45 -78 21
-45 26 -70 26 -140 0 -76 -3 -92 -33 -152 -38 -77 -92 -130 -171 -167 -47 -22
-70 -26 -142 -26 -80 0 -92 3 -158 37 -40 20 -71 31 -68 25 6 -20 108 -66 170
-78 160 -29 339 74 397 229 41 106 26 241 -36 335 l-24 37 28 0 c20 0 41 13
75 48 49 50 51 62 9 62 -24 0 -25 0 -7 20 24 26 11 39 -15 15 -20 -18 -20 -17
-20 8 0 42 -14 39 -63 -11z m15 -65 l-42 -42 0 30 c0 19 11 40 32 62 32 33 33
33 42 13 8 -18 3 -28 -32 -63z m91 13 c6 0 -4 -16 -23 -35 -24 -25 -43 -35
-64 -35 l-30 0 39 40 c22 22 46 38 53 35 8 -3 19 -5 25 -5z m-321 -196 l30
-16 -27 -28 c-22 -23 -33 -27 -63 -23 -69 9 -110 -69 -62 -117 47 -47 128 -4
117 64 -4 28 -1 38 23 61 l28 27 16 -30 c22 -43 20 -110 -4 -150 -79 -130
-280 -74 -280 78 0 113 121 186 222 134z m-62 -109 c-31 -32 -17 -46 15 -15
l25 23 0 -29 c0 -37 -16 -54 -50 -54 -33 0 -50 17 -50 50 0 34 17 50 54 50
l29 0 -23 -25z"/>
</g>
</svg>
