<?xml version="1.0" standalone="no"?>
<!DOCTYPE svg PUBLIC "-//W3C//DTD SVG 20010904//EN"
 "http://www.w3.org/TR/2001/REC-SVG-20010904/DTD/svg10.dtd">
<svg version="1.0" xmlns="http://www.w3.org/2000/svg"
 width="73.000000pt" height="80.000000pt" viewBox="0 0 54.000000 80.000000"
 preserveAspectRatio="xMidYMid meet">

<g transform="translate(0.000000,80.000000) scale(0.100000,-0.100000)"
fill="#074CA6" stroke="none">
<path d="M92 788 c4 -8 -9 -33 -28 -58 -67 -84 -78 -182 -34 -298 22 -58 26
-135 9 -192 -11 -35 -9 -41 16 -74 15 -20 34 -36 41 -36 27 0 13 -27 -18 -36
-39 -11 -59 -53 -38 -78 10 -14 44 -16 220 -16 115 0 215 3 224 6 24 9 20 60
-6 78 -12 9 -30 16 -40 16 -27 0 -21 27 7 34 35 9 48 48 41 120 -8 78 -42 148
-104 216 -71 79 -73 58 -1 -25 40 -46 64 -85 74 -119 18 -60 20 -147 3 -164
-8 -8 -66 -12 -196 -12 -172 0 -184 1 -177 18 44 103 47 185 9 293 -18 54 -24
86 -20 117 9 71 63 156 92 145 22 -8 16 6 -13 33 l-28 25 65 -4 c52 -2 90 -14
185 -56 66 -28 126 -59 133 -68 6 -9 12 -36 12 -60 0 -42 -1 -43 -34 -43 -19
0 -38 5 -41 10 -3 6 -43 10 -89 10 -68 0 -86 3 -99 18 -10 10 -17 24 -17 30 0
7 -4 12 -10 12 -16 0 -12 -26 8 -51 17 -20 30 -23 108 -27 49 -2 93 -8 99 -13
13 -13 69 -11 83 3 7 7 12 31 12 54 0 61 -26 84 -165 144 -104 45 -132 53
-204 58 -72 4 -83 3 -79 -10z m38 -58 c-6 -11 -15 -22 -20 -25 -6 -4 -20 -25
-31 -47 -29 -56 -28 -137 1 -208 27 -64 32 -164 11 -223 -15 -45 -47 -53 -37
-10 21 85 19 152 -9 228 -42 114 -29 201 40 283 28 34 63 35 45 2z m270 -615
c0 -12 -17 -15 -95 -15 -147 0 -115 -19 38 -22 l132 -3 3 -27 3 -28 -215 0
c-205 0 -216 1 -216 19 0 28 20 39 75 44 40 3 45 5 28 11 -13 5 -23 15 -23 22
0 11 27 14 135 14 113 0 135 -2 135 -15z"/>
<path d="M301 684 c0 -11 3 -14 6 -6 3 7 2 16 -1 19 -3 4 -6 -2 -5 -13z"/>
</g>
</svg>
