<svg width="1079" height="177" viewBox="0 0 1079 177" fill="none" xmlns="http://www.w3.org/2000/svg">
<path d="M568.374 17.8628H576.857L587.159 19.3877L596.248 22.4375L602.914 25.9956L608.973 30.5703L614.427 35.6533L619.88 43.7861L622.91 51.9189L624.122 58.0186V68.1846L622.304 75.8091L619.88 81.4004L615.639 88.0083L608.973 95.1245L604.125 98.6826L595.036 103.257L587.159 105.799L577.463 107.324H564.738L554.437 105.291L547.771 102.749L541.712 99.6992L535.652 95.1245L530.805 90.5498L525.957 83.4336L522.927 77.334L520.503 67.168V56.4937L522.927 47.8525L526.563 40.7363L531.411 34.6367L538.076 28.5371L545.954 23.9624L557.467 19.3877L568.374 17.8628Z" fill="#CD2A38"/>
<path d="M343.564 18.3711H357.501L367.196 20.4043L377.498 24.4707L384.769 29.0454L389.617 33.1118L395.676 40.7363L399.918 48.8691L401.736 55.4771V69.2012L399.918 76.3174L396.282 83.9419L391.435 90.0415L385.981 95.1245L379.921 99.6992L370.226 104.274L361.743 106.307L354.471 107.324H345.382L334.475 105.291L327.203 102.749L319.932 99.1909L312.054 93.0913L306.601 86.9917L301.753 78.3506L299.329 69.7095L298.723 61.5767L299.935 52.9355L302.965 44.8027L307.812 37.1782L314.478 30.5703L321.75 25.4873L329.021 21.9292L337.504 19.3877L343.564 18.3711Z" fill="#074CA6"/>
<path d="M790.154 19.3877H813.181L818.028 24.979L833.177 45.311L841.661 56.4937L848.326 65.1348L852.568 70.7261V71.7427H853.78V19.896L854.992 19.3877H877.412L878.018 20.9126V70.7261L877.412 105.799L867.111 106.307H854.992L850.75 101.732L844.084 93.0913L827.118 70.7261L821.058 63.1016L814.393 53.9521L813.787 64.6265L813.181 105.799L812.575 106.307H794.396L789.548 105.799V19.896L790.154 19.3877Z" fill="#CD2A38"/>
<path d="M645.331 19.3877H679.264L688.959 20.4043L698.049 22.9458L704.714 26.5039L708.956 30.5703L711.38 34.6367L713.198 40.228L713.804 43.2778V48.3608L711.986 54.9688L707.744 61.5767L702.291 66.1514L696.231 69.2012L693.807 70.2178L696.231 73.2676L704.108 80.8921L709.562 86.9917L716.833 94.1079L722.287 99.6992L725.923 103.766L726.529 105.799H697.443L695.625 104.274L691.989 99.6992L685.324 92.583L676.84 83.4336L667.751 73.2676L667.145 105.799H642.907V19.896L645.331 19.3877Z" fill="#CD2A38"/>
<path d="M942.855 17.8628H951.945L960.428 18.8794L969.518 21.4209L978.001 25.4873L985.272 30.062L987.09 31.5869L986.484 33.6201L981.031 38.7031L976.789 42.7695L973.153 46.3276L970.729 45.311L968.306 43.7861V42.7695L965.882 41.7529L959.822 38.1948L950.127 36.1616L942.25 37.1782L935.584 40.228L931.342 43.2778L926.495 50.394L924.071 57.5103L923.465 60.5601V65.6431L925.283 72.251L930.13 80.3838L933.766 83.9419L939.22 86.9917L945.885 88.5166H951.339L960.428 86.4834L965.276 83.4336L968.912 78.8589L970.124 75.8091V73.2676L947.703 72.7593L947.097 71.7427V58.0186L948.309 57.002H994.968L995.574 57.5103V67.6763L994.968 76.8257L991.938 84.4502L987.696 91.0581L982.243 96.1411L976.183 100.208L968.912 103.766L959.822 106.307L947.097 107.832L936.796 106.815L928.312 104.274L921.647 101.224L913.77 96.1411L908.922 91.5664L903.468 84.4502L899.833 77.334L897.409 67.168V57.002L899.227 49.3774L902.256 42.7695L907.104 35.145L914.375 28.5371L922.859 23.4541L931.342 19.896L938.614 18.3711L942.855 17.8628Z" fill="#CD2A38"/>
<path d="M42.4033 19.3877L63.0059 19.896L67.2476 27.5205L75.731 45.8193L83.0024 60.5601L96.3335 88.5166L102.999 102.241L103.605 105.291L96.9395 105.799H87.8501L79.3667 105.291L76.3369 99.1909L72.0952 89.5332L71.4893 89.0249L33.314 88.5166L30.2842 94.6162L25.4365 105.291L23.6187 105.799H10.2876L0.592285 105.291L2.41016 100.716L15.1353 74.2842L34.5259 34.1284L41.1914 20.9126L42.4033 19.3877Z" fill="#074DA7"/>
<path d="M187.833 19.3877H195.71V81.4004L193.287 89.5332L189.651 95.6328L186.015 99.1909L177.532 103.766L167.836 106.307L160.565 107.324H150.87L138.75 105.291L130.267 101.732L124.208 97.1577L119.36 90.5498L116.936 83.4336L116.33 78.8589V19.896H139.356L139.962 71.7427L141.174 79.3672L144.204 84.4502L149.052 86.9917L152.082 87.5H158.747L164.201 86.4834L167.836 84.4502L170.26 81.4004L172.078 75.3008L172.684 20.4043L173.29 19.896L187.833 19.3877Z" fill="#074DA7"/>
<path d="M468.391 17.8628H478.086L490.206 19.3877L499.295 21.9292L505.96 24.979L506.566 27.0122L501.719 35.6533L497.477 41.7529L495.659 42.7695L492.629 41.2446L484.752 38.7031L481.116 38.1948H472.027L462.938 39.7197L455.666 42.7695L450.212 46.8359L445.971 52.4272L444.153 57.002L443.547 59.5435V64.6265L445.971 71.7427L449.606 77.334L454.454 81.9087L459.302 84.4502L467.179 86.4834L470.815 86.9917H481.722L491.417 84.9585L495.053 82.9253L497.477 83.4336L502.325 90.5498L506.566 98.6826V100.208L497.477 103.766L489.6 105.799L478.692 107.324H466.573L455.666 105.291L445.971 101.732L437.487 97.1577L432.034 93.0913L425.974 86.4834L421.126 79.3672L418.097 71.7427L416.885 64.6265L417.491 56.4937L419.915 48.8691L424.762 40.7363L428.398 36.1616L435.669 29.5537L443.547 24.979L456.272 19.896L463.543 18.3711L468.391 17.8628Z" fill="#CD2A38"/>
<path d="M236.31 19.3877H248.429L285.392 19.896V33.6201L284.786 37.1782H261.154L260.548 105.799H243.581L237.521 105.291V37.1782H217.525L213.283 36.6699V19.896L236.31 19.3877Z" fill="#074DA7"/>
<path d="M346.594 37.1782H355.077L360.531 38.1948L366.59 41.2446L371.438 45.8193L373.862 48.8691L376.892 57.002V67.6763L375.074 73.7759L370.832 80.3838L367.802 83.4336L362.349 86.4834L356.895 88.0083L353.259 88.5166H348.412L341.746 87.5L334.475 84.4502L330.233 80.8921L326.597 75.3008L324.779 70.7261L324.173 68.1846V57.5103L327.203 49.3774L331.445 43.7861L336.292 40.228L341.14 38.1948L346.594 37.1782Z" fill="#FBFCFE"/>
<path d="M565.95 37.6865H578.069L584.129 39.2114L588.977 42.2612L593.218 46.3276L596.854 52.4272L598.066 57.002V68.1846L595.642 75.3008L592.006 80.3838L588.371 83.9419L581.705 86.9917L575.646 88.0083H570.192L561.103 86.4834L555.649 83.4336L552.013 79.8755L548.983 75.3008L547.166 70.7261L545.954 64.6265V60.0518L547.166 53.9521L550.195 47.8525L554.437 43.2778L559.891 39.2114L565.95 37.6865Z" fill="#FEFEFE"/>
<path d="M745.919 19.3877H765.31V105.799L751.979 106.307L741.678 105.799V19.896L745.919 19.3877Z" fill="#CB2A38"/>
<path d="M1074.95 0.0722656H1078.59L1077.98 2.10547L1072.53 9.72998L1064.65 20.4043L1059.2 27.0122L1054.35 31.5869L1051.32 33.1118L1047.08 32.6035L1030.72 23.4541L1025.87 20.4043L1022.84 21.4209L1014.36 27.5205L1004.06 33.6201L1001.03 35.145H996.786L997.392 32.0952L1004.06 22.9458L1014.36 10.2383L1019.81 4.13867L1024.05 0.580566L1032.54 4.13867L1044.66 11.2549L1048.9 13.7964L1051.93 13.2881L1064.05 6.17188L1073.14 0.580566L1074.95 0.0722656Z" fill="#91C4FE"/>
<path d="M387.193 140.872H393.858L399.918 142.396L403.554 144.43L408.401 149.004L410.825 153.579L411.431 156.629V161.204L409.613 166.795L404.766 172.386L398.706 175.436L393.858 176.453H387.799L381.739 174.928L375.68 171.37L372.044 166.795L370.226 162.22V155.104L373.256 149.004L377.498 144.43L384.163 141.38L387.193 140.872Z" fill="#060608"/>
<path d="M508.99 141.38H518.08L520.503 145.446L526.563 159.679L527.775 160.187L529.593 155.612L536.258 141.888L536.864 141.38H546.56L548.377 157.646L549.589 170.353V175.436L541.106 175.944L539.894 170.353L539.288 158.662L538.682 157.646L532.017 171.37L530.199 174.928L527.775 175.944L524.745 175.436L520.503 166.795L516.868 157.646H516.262L514.444 173.403L513.232 175.944H505.354L504.749 173.911L507.172 149.513L508.384 141.888L508.99 141.38Z" fill="#060608"/>
<path d="M210.859 141.38H227.826L232.674 142.396L235.704 144.43L238.127 147.988L238.733 150.021V154.596L236.916 157.646L232.674 160.695L231.462 161.712L235.098 165.778L241.763 172.386L243.581 175.944H236.916L231.462 174.928L221.767 164.762L219.949 163.745V175.436L211.465 175.944L210.859 175.436L210.253 169.336V143.413L210.859 141.38Z" fill="#06060A"/>
<path d="M594.43 141.38H612.003L617.457 142.905L621.092 146.463L622.304 148.496L622.91 153.071L620.486 158.154L616.245 161.204H615.033L618.668 165.778L625.94 172.895L627.152 174.419V175.944H619.88L616.245 174.928L613.215 172.386L607.155 166.287L604.731 163.745L603.52 163.237L604.125 173.911L603.52 175.436L595.036 175.944L594.43 175.436V141.38Z" fill="#060507"/>
<path d="M746.525 141.38H764.098L768.946 142.905L772.582 145.446L774.399 149.004L775.005 152.562L772.582 157.646L769.552 160.187L767.734 162.22L773.793 168.828L778.641 173.403L779.853 175.944H770.764L767.734 174.928L762.28 169.336L757.433 164.253L755.615 163.237V174.928L751.979 175.944H747.131L746.525 174.419V141.38Z" fill="#060506"/>
<path d="M716.228 141.38H724.105L725.923 142.905L728.953 149.513L736.83 166.287L741.072 174.928V175.944L731.376 175.436L729.559 172.386L728.347 169.845L727.741 169.336H713.198L711.38 171.878L709.562 175.436L705.926 175.944L699.867 175.436L703.502 167.303L712.592 147.988L715.622 141.888L716.228 141.38Z" fill="#060508"/>
<path d="M820.452 140.872L825.3 141.38L827.724 143.921L838.631 166.287L842.267 174.928V175.944L832.571 175.436L830.147 169.336L814.393 168.828L812.575 172.386L810.757 175.436L801.667 175.944L803.485 169.845L810.151 156.629L816.21 144.938L818.028 141.888L820.452 140.872Z" fill="#060608"/>
<path d="M558.073 141.38H576.857L581.099 142.905L584.735 145.446L586.553 148.496L587.159 153.579L585.341 158.154L582.917 160.695L578.069 162.729L574.434 163.237H567.162V175.436L558.679 175.944L558.073 175.436V141.38Z" fill="#060507"/>
<path d="M879.836 141.38H903.468V148.496L889.531 149.004V155.104H902.862V162.22L889.531 162.729V167.812L890.137 168.32L903.468 168.828V175.436L902.862 175.944H880.442L879.836 173.403V141.38Z" fill="#060506"/>
<path d="M634.423 141.38H657.45V148.496H643.513V155.104H656.844V162.22H643.513L644.119 168.32H657.45V174.928L656.238 175.944H634.423L633.817 169.845V141.888L634.423 141.38Z" fill="#06070B"/>
<path d="M178.138 141.38H201.77V145.955L201.164 148.496H187.227L187.833 154.596L200.558 155.104L201.164 155.612V161.712L200.558 162.22L187.833 162.729V168.32L201.164 168.828V175.436L198.74 175.944H178.744L178.138 175.436V141.38Z" fill="#060507"/>
<path d="M474.451 141.38H497.477V148.496H483.54L484.146 154.596L496.871 155.104L497.477 157.646L496.871 162.22H483.54L484.146 168.32L497.477 168.828V175.436L496.871 175.944H474.451L473.845 163.237L474.451 141.38Z" fill="#060404"/>
<path d="M246.005 141.38H255.094L256.912 141.888L262.972 155.612L266.001 162.22V163.237H267.213L269.031 158.154L276.303 141.888L276.909 141.38H286.604L285.998 144.938L281.15 155.104L272.667 171.37L269.637 175.944L267.213 176.453L263.578 175.436L259.942 170.353L256.912 164.762L247.823 145.955L246.005 141.38Z" fill="#060608"/>
<path d="M328.415 140.872H336.292L343.564 142.396L344.776 144.43L342.958 149.004L341.746 150.021L334.475 149.004H330.233L325.385 150.529L321.144 154.596L320.538 156.121V161.204L322.961 165.27L327.809 167.812H337.504L341.746 166.795L344.17 170.861L343.564 173.403L339.928 175.436L335.081 176.961H330.233L324.173 175.436L317.508 171.878L312.66 167.812L310.236 163.745L309.63 161.204V156.121L311.448 151.546L314.478 147.479L319.326 143.921L323.567 141.888L328.415 140.872Z" fill="#060608"/>
<path d="M432.034 140.872H439.911L446.577 142.905L447.183 146.463L445.365 149.004L441.123 149.513L436.881 148.496L432.64 149.004L431.428 150.529L432.034 152.562L443.547 157.646L446.577 159.679L449 163.745V167.812L446.577 171.878L442.335 174.928L437.487 176.453H430.822L423.55 174.928L419.309 172.895L419.915 169.336L422.338 165.27L429.61 168.32L435.063 168.828L437.487 167.812L438.093 165.778L436.881 163.745L427.186 159.17L422.944 155.104L421.732 151.546L422.338 147.479L425.974 143.413L430.216 141.38L432.034 140.872Z" fill="#060608"/>
<path d="M153.293 140.872H159.959L166.019 142.396L167.836 143.921L167.23 147.479L165.413 149.513L160.565 149.004L153.899 148.496H152.688V153.071L155.717 154.087L164.201 157.646L167.23 159.679L169.654 163.745V168.32L167.23 172.386L164.201 174.419L160.565 175.944L158.141 176.453H150.87L142.992 174.419L139.356 171.878L142.992 165.778L145.416 166.287L150.264 168.32L155.111 168.828L159.353 167.812L158.747 164.762L153.293 161.712L147.234 158.662L143.598 155.104L142.386 152.562L142.992 147.988L146.628 143.413L150.87 141.38L153.293 140.872Z" fill="#060609"/>
<path d="M924.677 140.872H932.554L938.614 142.905L939.826 143.921L939.22 146.971L937.402 149.513L927.707 148.496L924.677 149.513L924.071 152.054L932.554 156.121L938.008 159.17L940.432 161.712L941.038 163.237V169.336L938.614 172.386L933.766 175.436L928.918 176.453H924.071L916.193 174.928L911.952 172.386L912.558 168.828L913.77 166.287L917.405 166.795L922.253 168.32L927.707 168.828L930.736 167.812L930.13 164.762L927.101 162.729L919.829 159.17L916.193 156.629L914.375 153.579V149.004L916.799 144.938L921.647 141.888L924.677 140.872Z" fill="#060508"/>
<path d="M679.264 140.872H686.536L692.595 142.905L693.807 143.921V146.463L691.383 149.513L680.476 148.496L678.052 149.513V152.054L684.112 155.104L690.777 158.154L694.413 161.712L695.625 164.253V168.32L693.201 171.878L687.748 175.436L682.294 176.961H678.052L670.175 174.419L665.933 171.878L667.145 167.303L667.751 166.287L672.599 166.795L676.234 168.32H681.688L685.324 166.795V164.762L675.022 159.679L670.175 156.121L668.357 152.562V149.004L670.781 144.938L675.628 141.888L679.264 140.872Z" fill="#060608"/>
<path d="M848.326 141.38H857.416L858.021 168.32L871.353 168.828V174.928L870.747 175.436L864.081 175.944H848.326V141.38Z" fill="#060507"/>
<path d="M667.145 35.6533H677.446L682.9 37.1782L687.142 40.7363L688.354 43.7861V49.3774L685.324 54.4604L682.294 55.9854L675.022 57.5103H667.751L666.539 54.4604L667.145 35.6533Z" fill="#FEFEFE"/>
<path d="M388.405 148.496H393.252L398.1 150.529L400.524 154.596L401.13 156.121V161.712L398.706 165.778L395.07 168.32L393.858 168.828H387.799L384.163 167.303L381.133 164.253L379.921 160.187L380.527 155.104L382.345 152.054L386.587 149.004L388.405 148.496Z" fill="#FAFCFE"/>
<path d="M292.664 141.38H301.753L302.359 141.888V173.403L301.147 175.944H293.875L292.664 173.911V141.38Z" fill="#06070B"/>
<path d="M353.259 141.38H362.349L362.955 141.888V168.828L362.349 175.436L359.925 175.944H353.865L353.259 175.436V141.38Z" fill="#06070B"/>
<path d="M785.913 141.38H795.002L795.608 141.888V170.861L795.002 175.436L791.366 175.944H786.519L785.913 174.928V141.38Z" fill="#060B15"/>
<path d="M51.4927 46.8359L53.9165 48.8691L58.7642 59.5435L63.6118 69.2012V71.2344H41.1914L41.7974 68.1846L49.6748 50.9023L51.4927 46.8359Z" fill="#F5F9FE"/>
<path d="M567.768 147.988H573.222L576.857 150.021V154.596L573.828 156.629H567.768L567.162 155.612V148.496L567.768 147.988Z" fill="#F5F9FE"/>
<path d="M756.221 147.988H761.068L764.704 150.529V153.579L762.28 156.121L759.856 157.137L756.827 156.629L755.615 154.596V148.496L756.221 147.988Z" fill="#F5F9FE"/>
<path d="M604.125 147.988H609.579L612.609 150.529L612.003 154.596L608.973 156.629H604.731L603.52 153.071V148.496L604.125 147.988Z" fill="#F7FAFE"/>
<path d="M221.161 147.479L225.402 147.988L229.038 151.546L228.432 154.596L224.796 156.629L222.373 157.137L219.949 156.121V148.496L221.161 147.479Z" fill="#F5F9FE"/>
<path d="M821.058 153.071H822.27L825.3 158.662L826.512 161.712L825.906 162.22H818.634L818.028 160.187L821.058 153.071Z" fill="#EDF5FE"/>
<path d="M719.863 153.071L722.287 155.104L724.105 160.187V162.22H716.228L718.045 157.137L719.863 153.071Z" fill="#EBF4FE"/>
</svg>
