<?xml version="1.0" encoding="UTF-8"?>
<svg version="1.1" xmlns="http://www.w3.org/2000/svg" width="1024" height="1012">
<path d="M0 0 C11.22 0 22.44 0 34 0 C34 20.79 34 41.58 34 63 C86.14 63 138.28 63 192 63 C192 42.21 192 21.42 192 0 C203.22 0 214.44 0 226 0 C226 20.79 226 41.58 226 63 C247.12 63 268.24 63 290 63 C290 74.22 290 85.44 290 97 C268.88 97 247.76 97 226 97 C225.88706932 115.61649882 225.88706932 115.61649882 225.8671875 134.23242188 C225.87955793 141.85255824 225.88225789 149.47162411 225.81835938 157.09155273 C225.26015068 196.52097898 225.26015068 196.52097898 235.75466919 234.10826111 C238.54766184 240.59377114 240.8752357 247.29186943 242.875 254.0625 C244.48254589 259.39145132 246.21719682 264.66556757 248 269.9375 C249.74111825 275.09563632 251.38611891 280.2438834 252.8125 285.5 C255.04881607 293.56772254 257.8652794 301.43246666 260.65161133 309.32421875 C262.94457812 315.8418542 265.07457453 322.38609424 267.08007812 328.99780273 C268.31377073 333.02400178 269.64617759 337.01291861 271 341 C272.68323878 345.95723071 274.29137681 350.92785047 275.8125 355.9375 C278.38348227 364.34451426 281.19837849 372.66777009 284 381 C287.46246755 391.29763497 290.84191738 401.6039965 294 412 C297.05704758 421.93158013 300.2413238 431.8099377 303.56466675 441.65545654 C307.90130174 454.51377143 312.06463519 467.41225557 316.00683594 480.3972168 C317.8834253 486.54820982 319.90045143 492.60683718 322.13598633 498.63671875 C323.15273258 501.41775965 324.03632436 504.22298391 324.875 507.0625 C326.48977626 512.40906235 328.21910593 517.7072183 330 523 C331.78089407 528.2927817 333.51022374 533.59093765 335.125 538.9375 C336.30074739 542.82426822 337.57426423 546.63553796 339 550.4375 C340.97692911 555.7427746 342.48148433 561.13860978 344 566.58984375 C345.1619204 570.55217386 346.55873133 574.38578355 348.0078125 578.25 C349.44646428 582.23744431 350.64184554 586.29052009 351.8671875 590.34765625 C353.40277687 595.29860819 355.05315799 600.20871491 356.71826172 605.11743164 C358.16386251 609.40369197 359.52858508 613.70696456 360.84375 618.03515625 C362.37649723 623.04790991 363.9865616 628.02781539 365.65625 632.99609375 C365.88763672 633.68474518 366.11902344 634.37339661 366.35742188 635.08291626 C367.30859687 637.90905075 368.26195062 640.7344371 369.21826172 643.55883789 C372.02810825 651.86658552 374.66280806 660.17700255 377.02587891 668.62573242 C378.65999105 674.28614946 380.54962616 679.8576132 382.4375 685.4375 C383.02954224 687.2011792 383.02954224 687.2011792 383.63354492 689.00048828 C384.75297028 692.33458421 385.87593705 695.66746529 387 699 C389.36367016 706.02051506 391.72478893 713.03560115 393.875 720.125 C395.59686161 725.78155743 397.43824281 731.39259538 399.3125 737 C399.75952271 738.33744263 399.75952271 738.33744263 400.21557617 739.7019043 C401.75935041 744.31268171 403.31072504 748.92083549 404.8671875 753.52734375 C409.94803442 768.60742739 409.94803442 768.60742739 411.875 775.6875 C414.08317633 783.6945394 416.88758172 791.49557641 419.65185547 799.32495117 C421.91263003 805.75100494 424.00932739 812.20222775 425.98632812 818.72094727 C427.71964796 824.32793637 429.62034847 829.87824231 431.5 835.4375 C434.20260949 843.47979743 436.80024167 851.50122418 439.04296875 859.68359375 C441.11549702 866.86553866 443.60435316 873.92086359 446 881 C447.32 884.96 448.64 888.92 450 893 C489.6 893.495 489.6 893.495 530 894 C530 905.22 530 916.44 530 928 C507.23 928 484.46 928 461 928 C463.64 935.59 466.28 943.18 469 951 C470.9375 957.8125 470.9375 957.8125 471.8046875 961 C474.12783823 969.08508955 477.09702442 976.99041116 479.87890625 984.92578125 C480.58638915 986.95036306 481.29344944 988.97509262 482 991 C482.31179199 991.8873584 482.62358398 992.7747168 482.94482422 993.68896484 C483.21955566 994.48641113 483.49428711 995.28385742 483.77734375 996.10546875 C484.01573975 996.7914917 484.25413574 997.47751465 484.49975586 998.18432617 C485 1000 485 1000 485 1003 C481.34302627 1004.36091122 477.6739955 1005.68575932 474 1007 C473.37947754 1007.22445801 472.75895508 1007.44891602 472.11962891 1007.68017578 C470.16708327 1008.3820328 468.20938141 1009.06748581 466.25 1009.75 C465.03828125 1010.17796875 463.8265625 1010.6059375 462.578125 1011.046875 C458.89322874 1012.02844125 455.79465246 1012.17513781 452 1012 C447.46105109 1000.54639699 443.35495337 989.00232145 440.0625 977.125 C438.37878691 971.08544615 436.34800869 965.22806025 434.21777344 959.33666992 C432.17331536 953.62998214 430.48502729 947.88561189 428.87890625 942.0390625 C428.11517357 939.3982446 427.25005347 936.87077632 426.25 934.3125 C425 931 425 931 425 928 C392.99 928 360.98 928 328 928 C331.7415047 940.72125787 331.7415047 940.72125787 335.5 953.4375 C337.44433431 960.02055688 339.29942681 966.62580387 341.11621094 973.24511719 C342.16891933 977.06513483 343.2507718 980.87295613 344.390625 984.66796875 C344.7319043 985.80588867 344.7319043 985.80588867 345.08007812 986.96679688 C345.51178455 988.39784703 345.94766598 989.82764764 346.38867188 991.25585938 C347.67385998 995.51594192 348.4747483 999.59816238 349 1004 C333.27734375 1008.4921875 333.27734375 1008.4921875 330.52685547 1009.27246094 C328.99051862 1009.7148072 327.4572426 1010.16824327 325.93017578 1010.64160156 C322.51669007 1011.69090836 319.57405726 1012.21660953 316 1012 C312.50342686 1002.2065009 309.7252354 992.33799634 307.16162109 982.26342773 C305.92645343 977.4438909 304.6568882 972.6956624 303 968 C300.62783978 961.27060824 298.9485293 954.3554303 297.19335938 947.4453125 C296.95294922 946.50171875 296.71253906 945.558125 296.46484375 944.5859375 C296.254646 943.7511084 296.04444824 942.9162793 295.82788086 942.05615234 C294.64206762 937.6786796 293.30319222 933.34397407 292 929 C250.42 928.505 250.42 928.505 208 928 C208 916.78 208 905.56 208 894 C232.42 894 256.84 894 282 894 C280.68 889.71 279.36 885.42 278 881 C276.86099378 876.98227259 275.73385294 872.96341967 274.625 868.9375 C272.48549621 861.22055894 270.28146203 853.53225298 267.9375 845.875 C265.45220319 837.74107639 263.2918514 829.54324575 261.18383789 821.30444336 C259.38514998 814.33031344 257.34939057 807.4691746 255.1484375 800.61328125 C252.84693153 793.37214854 250.84073639 786.04515262 248.81640625 778.72265625 C248.60822266 777.97032715 248.40003906 777.21799805 248.18554688 776.44287109 C247.79332476 775.02306393 247.40249889 773.6028696 247.01367188 772.18212891 C245.42666787 766.42314593 243.74141778 760.69378139 242.05158997 754.96434021 C239.67363994 746.90100251 237.32080531 738.83045803 234.97802734 730.75683594 C234.48636458 729.06388044 233.99382989 727.37117796 233.50048828 725.67871094 C232.77437696 723.18742251 232.05095878 720.69536607 231.328125 718.203125 C231.10835999 717.45105774 230.88859497 716.69899048 230.66217041 715.9241333 C229.61018997 712.28608188 228.74422599 708.72112997 228 705 C152.1 704.67 76.2 704.34 -2 704 C-3.485 710.93 -3.485 710.93 -5 718 C-5.94859058 721.1619686 -6.89857502 724.32386242 -7.90234375 727.46875 C-9.37458063 732.20505656 -10.6845539 736.9809284 -11.98583984 741.76660156 C-13.37757743 746.85184222 -14.8544697 751.90976094 -16.3515625 756.96484375 C-18.76490927 765.12572191 -21.05136667 773.31831512 -23.30770874 781.52377319 C-26.38448721 792.7051055 -29.4906946 803.86959994 -32.88256836 814.96020508 C-34.85830506 821.4453359 -36.68702184 827.96767906 -38.5 834.5 C-40.80922496 842.81938122 -43.20447486 851.10346375 -45.71948242 859.36279297 C-48.18941513 867.52208222 -50.46635976 875.73411948 -52.72851562 883.953125 C-53.01017578 884.97148438 -53.29183594 885.98984375 -53.58203125 887.0390625 C-53.83186768 887.94865723 -54.0817041 888.85825195 -54.33911133 889.79541016 C-55 892 -55 892 -56 894 C-31.58 894 -7.16 894 18 894 C18 905.22 18 916.44 18 928 C-9.72 928 -37.44 928 -66 928 C-66.66 931.3 -67.32 934.6 -68 938 C-68.92062857 941.24850367 -69.86795986 944.46701631 -70.875 947.6875 C-72.68886861 953.60228895 -74.44255535 959.51234515 -76 965.5 C-77.97153589 973.0425564 -80.21474464 980.49322017 -82.4765625 987.953125 C-84.17437708 993.5548317 -85.81606938 999.17262215 -87.43920898 1004.79638672 C-88.89137691 1009.78275381 -88.89137691 1009.78275381 -90 1012 C-94.88818787 1011.38584306 -99.48719908 1010.43223685 -104.25 1009.125 C-104.89461182 1008.94936523 -105.53922363 1008.77373047 -106.20336914 1008.59277344 C-108.13654901 1008.06539029 -110.06829195 1007.5327489 -112 1007 C-114.14574893 1006.41635629 -116.29157118 1005.83298196 -118.4375 1005.25 C-119.95845693 1004.83378471 -121.47934339 1004.41731117 -123 1004 C-122.29748311 999.18058303 -121.13691966 994.55375722 -119.8125 989.875 C-119.59255371 989.0900415 -119.37260742 988.30508301 -119.14599609 987.49633789 C-117.30371461 980.96830963 -115.34996982 974.47583994 -113.38110352 967.98510742 C-110.3560308 957.95857205 -107.56890582 947.86497113 -104.77441406 937.7722168 C-103.86337997 934.51093303 -102.93024464 931.25585624 -102 928 C-133.68 928.33 -165.36 928.66 -198 929 C-200.97 937.91 -203.94 946.82 -207 956 C-207.845625 958.536875 -208.69125 961.07375 -209.5625 963.6875 C-210.119375 965.36199219 -210.119375 965.36199219 -210.6875 967.0703125 C-211.7625155 970.29709289 -212.84978253 973.51966822 -213.9375 976.7421875 C-217.25676928 986.60388493 -220.56115919 996.42160008 -223.2109375 1006.48828125 C-224 1009 -224 1009 -226 1012 C-230.92317772 1012.4738051 -234.75237799 1011.68571535 -239.37109375 1010.03125 C-240.52158203 1009.62519531 -241.67207031 1009.21914063 -242.85742188 1008.80078125 C-244.03884766 1008.37152344 -245.22027344 1007.94226563 -246.4375 1007.5 C-247.64599609 1007.07074219 -248.85449219 1006.64148438 -250.09960938 1006.19921875 C-253.07004229 1005.14254301 -256.03648978 1004.07590587 -259 1003 C-255.9502574 991.50238178 -255.9502574 991.50238178 -254.0625 986.625 C-252.56146482 982.61843462 -251.23480125 978.59663472 -250 974.5 C-248.78369773 970.46624756 -247.48241311 966.50595051 -246 962.5625 C-244.48931714 958.50070289 -243.22891565 954.42380059 -242.0625 950.25 C-239.9333281 942.76563816 -237.46067156 935.38201467 -235 928 C-257.77 928 -280.54 928 -304 928 C-304 916.78 -304 905.56 -304 894 C-277.27 894 -250.54 894 -223 894 C-222.67 892.02 -222.34 890.04 -222 888 C-221.61402242 886.63347313 -221.19337779 885.27601306 -220.73046875 883.93359375 C-220.48103516 883.19947266 -220.23160156 882.46535156 -219.97460938 881.70898438 C-219.71486328 880.95939453 -219.45511719 880.20980469 -219.1875 879.4375 C-217.01967092 873.12545739 -214.9970725 866.7825457 -213.04711914 860.3996582 C-211.29384606 854.70734584 -209.4583928 849.04191953 -207.625 843.375 C-207.2015673 842.06445683 -206.77814647 840.75390983 -206.35473633 839.44335938 C-202.47997009 827.45759969 -198.58468177 815.47848607 -194.6875 803.5 C-194.39135803 802.58933777 -194.09521606 801.67867554 -193.7901001 800.74041748 C-191.00455562 792.17654527 -188.2135932 783.61547305 -185.34765625 775.078125 C-183.0367657 768.16837979 -180.88038992 761.21713518 -178.75 754.25 C-174.38911192 740.09096077 -169.74017365 726.0366983 -165 712 C-161.73580669 702.31372521 -158.59807728 692.59576405 -155.52172852 682.84838867 C-154.04469537 678.19336112 -152.53075589 673.572996 -150.8125 669 C-149.38111054 665.18900106 -148.21811771 661.35933866 -147.125 657.4375 C-145.47031854 651.51883171 -143.60329384 645.69507057 -141.63549805 639.87548828 C-138.56093538 630.75651842 -135.6313454 621.59084322 -132.69091797 612.42797852 C-129.85439438 603.59772111 -126.94569033 594.79438843 -124 586 C-123.01 583.03 -122.02 580.06 -121 577 C-170.17 577 -219.34 577 -270 577 C-270 597.79 -270 618.58 -270 640 C-281.22 640 -292.44 640 -304 640 C-304 619.21 -304 598.42 -304 577 C-335.35 577 -366.7 577 -399 577 C-399 565.45 -399 553.9 -399 542 C-367.65 542 -336.3 542 -304 542 C-304 490.19 -304 438.38 -304 385 C-335.35 385 -366.7 385 -399 385 C-399 373.78 -399 362.56 -399 351 C-367.65 351 -336.3 351 -304 351 C-304 329.88 -304 308.76 -304 287 C-292.78 287 -281.56 287 -270 287 C-270 308.12 -270 329.24 -270 351 C-196.41 351 -122.82 351 -47 351 C-46.34 348.03 -45.68 345.06 -45 342 C-44.23030178 339.46442801 -43.42170363 336.94033085 -42.57421875 334.4296875 C-42.34475052 333.74552765 -42.11528229 333.0613678 -41.87886047 332.35647583 C-41.15268686 330.19451451 -40.42028255 328.03472901 -39.6875 325.875 C-39.20855825 324.45326848 -38.73004015 323.03139417 -38.25195312 321.609375 C-37.30419009 318.79228507 -36.35490481 315.97571675 -35.40405273 313.15966797 C-34.93601289 311.77311949 -34.46799525 310.38656353 -34 309 C-33.76717316 308.3103717 -33.53434631 307.62074341 -33.29446411 306.91021729 C-32.61638961 304.89907654 -31.94070394 302.88714796 -31.265625 300.875 C-30.68022949 299.13476562 -30.68022949 299.13476562 -30.08300781 297.359375 C-28.98967075 293.96795976 -28.00807224 290.56027567 -27.0625 287.125 C-25.37815891 281.0831935 -23.34615411 275.22381504 -21.21557617 269.33007812 C-19.18925798 263.67308585 -17.51963041 257.95619404 -15.91796875 252.1640625 C-15.11156995 249.38456027 -14.20589636 246.70712955 -13.1875 244 C-10.71827655 237.43500115 -8.65524269 230.7428481 -6.54956055 224.0546875 C-6.12090698 222.6934375 -6.12090698 222.6934375 -5.68359375 221.3046875 C-5.43150146 220.50015137 -5.17940918 219.69561523 -4.91967773 218.86669922 C-4.41008791 217.27827241 -3.87984405 215.69457428 -3.26913834 214.14221478 C-0.94927774 207.97283755 -0.55819117 202.43083996 -0.56762695 195.88061523 C-0.5574353 194.80640823 -0.54724365 193.73220123 -0.53674316 192.6254425 C-0.50674193 189.10310564 -0.49736671 185.58104132 -0.48828125 182.05859375 C-0.47142507 179.60522059 -0.45327357 177.15185603 -0.43388367 174.69850159 C-0.38647988 168.2624276 -0.35660812 161.82638845 -0.33044434 155.39019775 C-0.29533524 147.6565229 -0.23834982 139.92298175 -0.18505096 132.18941498 C-0.10664998 120.45962717 -0.05595828 108.73001303 0 97 C-21.12 97 -42.24 97 -64 97 C-64 85.78 -64 74.56 -64 63 C-42.88 63 -21.76 63 0 63 C0 42.21 0 21.42 0 0 Z M34 97 C34 128.02 34 159.04 34 191 C86.14 191 138.28 191 192 191 C192 159.98 192 128.96 192 97 C139.86 97 87.72 97 34 97 Z M30 225 C27.94628629 229.79199865 26.10266197 234.44282257 24.5 239.375 C23.98222131 240.95066893 23.46394711 242.52617508 22.9453125 244.1015625 C22.64786133 245.00680664 22.35041016 245.91205078 22.04394531 246.84472656 C20.8097206 250.57511014 19.55772363 254.29934057 18.3046875 258.0234375 C17.57208494 260.20525475 16.83981306 262.38718269 16.10766602 264.56915283 C15.62638405 266.00173246 15.14415422 267.43399406 14.66088867 268.86590576 C12.30902853 275.8382508 10.01663395 282.80075582 8.0390625 289.890625 C6.11320223 296.77518483 3.86377757 303.5261541 1.57910156 310.29736328 C-0.00917416 315.00761264 -1.54573806 319.73364723 -3.0703125 324.46484375 C-3.32238464 325.24574371 -3.57445679 326.02664368 -3.83416748 326.83120728 C-4.85795015 330.0039187 -5.88050772 333.17701976 -6.90087891 336.35083008 C-9.5372069 344.54637144 -12.20502633 352.70573229 -15.19970703 360.77905273 C-16.24152419 363.67027015 -17.07911575 366.59498872 -17.875 369.5625 C-19.52968146 375.48116829 -21.39670616 381.30492943 -23.36450195 387.12451172 C-26.43906462 396.24348158 -29.3686546 405.40915678 -32.30908203 414.57202148 C-35.81500233 425.48649006 -39.43353254 436.36023727 -43.09765625 447.22265625 C-46.27464135 456.6533937 -49.37239453 466.05522434 -52.0078125 475.65234375 C-53.41654618 480.40543336 -55.11310337 485.04356016 -56.79614258 489.70507812 C-58.30315039 493.91543193 -59.64311836 498.11772947 -60.8125 502.4375 C-63.03764594 510.53064682 -65.85795277 518.41206351 -68.65161133 526.32397461 C-70.91231864 532.75040282 -73.0092305 539.2019083 -74.98632812 545.72094727 C-76.71964528 551.32792769 -78.62009833 556.87833373 -80.5 562.4375 C-83.26550066 570.65660609 -85.89060359 578.85745838 -88.17578125 587.22265625 C-89.20154643 590.6791446 -90.55308473 593.93962217 -91.9519043 597.25854492 C-93.09191024 600.24040533 -93.94735119 603.22535527 -94.7890625 606.3046875 C-96.85033994 613.62498731 -99.2161232 620.81607741 -101.65979004 628.01626587 C-105.27421748 638.67308965 -108.78216788 649.33753838 -111.92871094 660.14331055 C-113.87814815 666.76757742 -116.12157825 673.27253283 -118.46582031 679.7668457 C-120.44884469 685.28720448 -122.20754977 690.85561028 -123.91503906 696.46704102 C-125.89566116 702.916542 -127.9833738 709.33173955 -130.0625 715.75 C-130.29655548 716.47367767 -130.53061096 717.19735535 -130.77175903 717.94296265 C-134.86842949 730.60428491 -139.05118925 743.23594901 -143.29516602 755.84863281 C-145.69800691 763.00260524 -148.01396126 770.17534116 -150.20532227 777.3972168 C-150.77797559 779.27281037 -151.37985622 781.13956866 -152 783 C-121.64 783 -91.28 783 -60 783 C-54.67387304 765.58448829 -54.67387304 765.58448829 -49.5 748.125 C-49.21648682 747.15143555 -48.93297363 746.17787109 -48.64086914 745.17480469 C-46.22015107 736.82989052 -43.88623032 728.4614832 -41.55908203 720.09008789 C-39.73643602 713.55799945 -37.84263235 707.05231294 -35.875 700.5625 C-33.89863302 694.03713251 -31.97010189 687.50132083 -30.125 680.9375 C-29.90956543 680.18090088 -29.69413086 679.42430176 -29.47216797 678.64477539 C-28.64431678 675.67047821 -28 673.10326804 -28 670 C65.06 670 158.12 670 254 670 C254.66 673.3 255.32 676.6 256 680 C256.74832238 682.59622049 257.53818845 685.18093526 258.375 687.75 C260.76413025 695.1177694 262.88881067 702.54809917 265 710 C265.63072781 712.20465113 266.26222 714.40908374 266.89453125 716.61328125 C270.43825414 728.98795427 273.96900614 741.36534625 277.38989258 753.7746582 C280.10923727 763.56721481 283.07704074 773.25680246 286 783 C316.36 783 346.72 783 378 783 C375.69 776.07 373.38 769.14 371 762 C368.9375 755.3125 368.9375 755.3125 368.02734375 752.30078125 C366.52313173 747.4678567 364.90673051 742.67339254 363.28100586 737.88012695 C361.84642405 733.62707691 360.49161786 729.35746666 359.1875 725.0625 C356.61651773 716.65548574 353.80162151 708.33222991 351 700 C347.53753245 689.70236503 344.15808262 679.3960035 341 669 C337.94295242 659.06841987 334.7586762 649.1900623 331.43533325 639.34454346 C327.09869826 626.48622857 322.93536481 613.58774443 318.99316406 600.6027832 C317.1165747 594.45179018 315.09954857 588.39316282 312.86401367 582.36328125 C311.84726742 579.58224035 310.96367564 576.77701609 310.125 573.9375 C308.29474804 567.87749251 306.31505777 561.87678315 304.28173828 555.88256836 C302.84704855 551.62865973 301.4918648 547.35827994 300.1875 543.0625 C297.61651773 534.65548574 294.80162151 526.33222991 292 518 C288.90377568 508.79159952 285.84587525 499.58541591 283.0234375 490.28857422 C281.84726942 486.50923641 280.60451862 482.75570432 279.34375 479.00390625 C278.99630737 477.96984146 278.99630737 477.96984146 278.6418457 476.91488647 C277.69090842 474.08948659 276.73780178 471.26483162 275.78173828 468.44116211 C272.93700975 460.03028044 270.27596869 451.61860911 267.88476562 443.06616211 C266.75299668 439.1440081 265.4188153 435.32555357 264 431.5 C262.2196573 426.57771379 260.56734358 421.6781258 259.1875 416.625 C255.96271945 404.93178314 251.87541774 393.4895381 248 382 C245.56669101 374.7726454 243.14926474 367.54882363 240.9375 360.25 C239.7399131 356.30132994 238.44936095 352.42558269 237 348.5625 C235.51252786 344.56131526 234.26896958 340.55011789 233.125 336.4375 C230.93247176 328.57879092 228.34442631 320.87154605 225.72607422 313.14599609 C224.68169481 310.05921231 223.65340419 306.96713784 222.625 303.875 C221.11019809 299.32078974 219.58574162 294.77011439 218.05078125 290.22265625 C214.82572839 280.64292676 211.66906316 271.09574772 208.9921875 261.34765625 C207.58872527 256.61235258 205.9009776 251.99075526 204.22143555 247.34765625 C202.13104329 241.51512134 200.38892443 235.64030875 198.76171875 229.66015625 C198.10365386 227.05421044 198.10365386 227.05421044 197 225 C141.89 225 86.78 225 30 225 Z M-270 385 C-270 436.81 -270 488.62 -270 542 C-216.87 542 -163.74 542 -109 542 C-105.8577595 533.4911717 -105.8577595 533.4911717 -103.3125 524.9375 C-101.03168648 516.72293656 -98.18660214 508.71400019 -95.34887695 500.67749023 C-93.08804677 494.25055906 -90.9909193 487.79858565 -89.01367188 481.27905273 C-87.28035472 475.67207231 -85.37990167 470.12166627 -83.5 464.5625 C-80.73449934 456.34339391 -78.10939641 448.14254162 -75.82421875 439.77734375 C-74.78125629 436.26290627 -73.39670286 432.94903531 -71.984375 429.5703125 C-70.45523609 425.5775609 -69.41160669 421.46408244 -68.28125 417.34375 C-66.33875734 410.53841856 -63.95745376 403.86065838 -61.64160156 397.17529297 C-61.13064941 395.67699951 -61.13064941 395.67699951 -60.609375 394.1484375 C-60.1448291 392.80531494 -60.1448291 392.80531494 -59.67089844 391.43505859 C-58.8229205 388.77824632 -58.8229205 388.77824632 -59 385 C-128.63 385 -198.26 385 -270 385 Z M-162 816 C-166.36217344 827.34165095 -170.52863632 838.5452261 -173.75 850.25 C-176.71272979 860.86949648 -180.37126976 871.27915813 -183.89672852 881.72192383 C-185.27318565 885.81169811 -186.63541626 889.90624877 -188 894 C-156.32 894 -124.64 894 -92 894 C-89.91584856 889.13697998 -88.38767078 885.1421609 -87.125 880.125 C-85.77522562 874.88904066 -84.35442977 869.68319141 -82.8125 864.5 C-80.49359011 856.68420458 -78.20035914 848.86110837 -75.92269897 841.03320312 C-75.51968629 839.64907273 -75.11607234 838.26511724 -74.71182251 836.88134766 C-74.13584566 834.90960269 -73.56185246 832.93728966 -72.98828125 830.96484375 C-72.65352783 829.8162085 -72.31877441 828.66757324 -71.97387695 827.48413086 C-70.90937889 823.67579497 -69.95906138 819.83624552 -69 816 C-99.69 816 -130.38 816 -162 816 Z M296 816 C297.16938297 822.23719549 298.54820901 828.3279396 300.35546875 834.41015625 C300.57806366 835.17259644 300.80065857 835.93503662 301.02999878 836.72058105 C301.74544991 839.16899308 302.46645847 841.61572918 303.1875 844.0625 C304.18170409 847.45774521 305.17299843 850.85383708 306.1640625 854.25 C306.40836502 855.08584122 306.65266754 855.92168243 306.90437317 856.78285217 C309.31164718 865.03376651 311.62562558 873.30944249 313.89331055 881.59985352 C314.27289917 882.97548462 314.27289917 882.97548462 314.66015625 884.37890625 C314.87293213 885.1582251 315.08570801 885.93754395 315.30493164 886.74047852 C316.0638619 889.20760166 317.04136075 891.60340188 318 894 C349.68 894 381.36 894 414 894 C412.03790097 887.4596699 410.04413175 880.94950625 407.92578125 874.4609375 C407.6405661 873.584375 407.35535095 872.7078125 407.06149292 871.8046875 C406.14653371 868.99434246 405.22971039 866.18461107 404.3125 863.375 C404.00108063 862.42022766 403.68966125 861.46545532 403.36880493 860.48175049 C401.2499988 853.98648011 399.12672791 847.49268066 397 841 C396.63473206 839.88455811 396.63473206 839.88455811 396.26208496 838.74658203 C394.91026141 834.62060041 393.55179162 830.49687462 392.1875 826.375 C391.86885986 825.4061084 391.55021973 824.4372168 391.22192383 823.43896484 C390.93599365 822.57996582 390.65006348 821.7209668 390.35546875 820.8359375 C389.99424927 819.74611572 389.99424927 819.74611572 389.62573242 818.63427734 C389.12195687 816.98611684 389.12195687 816.98611684 388 816 C385.13908182 815.90477582 382.30236379 815.87446674 379.44116211 815.88647461 C378.54368759 815.88632858 377.64621307 815.88618256 376.72154236 815.8860321 C373.74011866 815.88673158 370.7587566 815.89452559 367.77734375 815.90234375 C365.71611058 815.90420781 363.65487696 815.90563177 361.59364319 815.90663147 C356.1569599 815.91045763 350.72030314 815.92028874 345.28363037 815.93133545 C339.74052286 815.94154747 334.19741108 815.94612864 328.65429688 815.95117188 C317.76951957 815.96191092 306.88476198 815.97898851 296 816 Z " fill="#074CA6" transform="translate(399,0)"/>
<path d="M0 0 C11.22 0 22.44 0 34 0 C34.33 109.23 34.66 218.46 35 331 C40.61 328.03 46.22 325.06 52 322 C55.63 320.35 59.26 318.7 63 317 C63.33 212.39 63.66 107.78 64 0 C75.22 0 86.44 0 98 0 C97.98810135 3.97869141 97.9762027 7.95738281 97.96394348 12.05664062 C97.85993132 48.54033417 97.81045227 85.02377521 97.82046365 121.50762159 C97.82172616 126.28909795 97.82251003 131.07057428 97.82299805 135.85205078 C97.82310325 136.80395841 97.82320845 137.75586604 97.82331683 138.73661935 C97.82387883 154.15078968 97.78566452 169.56463245 97.73312465 184.97870278 C97.68007844 200.79449444 97.66869172 216.60992026 97.6959936 232.42577934 C97.71152791 242.1856662 97.69455197 251.9443856 97.63601431 261.7041139 C97.59898744 268.39638558 97.60241994 275.08787407 97.63765464 281.78015238 C97.65679308 285.64208475 97.65810619 289.50185522 97.61136436 293.36359978 C97.5611211 297.55319869 97.5961004 301.73781367 97.63923645 305.92749023 C97.59701099 307.7543549 97.59701099 307.7543549 97.55393249 309.61812592 C97.67018345 314.77985511 97.76505378 317.77842491 101.53966081 321.51216316 C104.53117306 323.71760108 104.53117306 323.71760108 107.64158934 325.51426792 C108.80900262 326.2497053 108.80900262 326.2497053 110 327 C110 327.66 110 328.32 110 329 C116.9841894 328.11880128 122.31885993 324.01210629 127 319 C128.67261894 314.57771179 128.60091539 310.49687239 128.48101807 305.80723572 C128.49535472 304.49689269 128.50969137 303.18654966 128.52446246 301.83649927 C128.56245542 298.218292 128.52621259 294.60413016 128.47733045 290.98619568 C128.43770887 287.07821257 128.46763776 283.17067392 128.4889679 279.26263428 C128.51643979 272.49827732 128.50019496 265.73516944 128.4539566 258.9709301 C128.38716972 249.19132059 128.38677894 239.41258703 128.40240797 229.63280303 C128.42597176 213.76481628 128.39610466 197.89740028 128.33251953 182.02954102 C128.27088037 166.61868309 128.23447785 151.20810504 128.23193359 135.79711914 C128.23176791 134.84663206 128.23160222 133.89614498 128.23143151 132.91685527 C128.2307557 128.14837222 128.23057518 123.3798893 128.23064089 118.61140621 C128.23054528 79.07396936 128.14038471 39.5371693 128 0 C139.22 0 150.44 0 162 0 C162.33 104.61 162.66 209.22 163 317 C172.24 321.62 181.48 326.24 191 331 C191.33 221.77 191.66 112.54 192 0 C202.89 0 213.78 0 225 0 C225.27161823 46.41304675 225.48629887 92.82590176 225.61278395 139.23958661 C225.62779135 144.72662027 225.64332332 150.21365232 225.65917969 155.70068359 C225.66232741 156.79299301 225.66547514 157.88530242 225.66871825 159.01071212 C225.72084856 176.66723469 225.81541543 194.32328553 225.92583355 211.97952881 C226.03829167 230.11403495 226.10475572 248.24829506 226.12906194 266.38313556 C226.1454784 277.56190433 226.1972097 288.7393395 226.2949976 299.91769746 C226.35872672 307.59670639 226.37753503 315.27503203 226.36201653 322.95428583 C226.35437505 327.37680827 226.36557618 331.79701097 226.4304657 336.2191143 C226.68904775 354.75390867 226.70361498 369.88280675 214.50783396 385.04427671 C212.43787053 387.72910527 210.75994616 390.60550369 209.07013202 393.54012704 C208.71698845 394.02188512 208.36384489 394.50364319 208 395 C207.34 395 206.68 395 206 395 C205.77183594 395.83015625 205.54367187 396.6603125 205.30859375 397.515625 C203.73591623 401.7031723 201.55105855 405.05664598 199.0625 408.75 C194.34230149 415.86866371 189.85250408 423.09481142 185.52954102 430.46191406 C184.87876587 431.55004395 184.87876587 431.55004395 184.21484375 432.66015625 C183.83448975 433.30605713 183.45413574 433.95195801 183.06225586 434.61743164 C182.71171143 435.0736792 182.36116699 435.52992676 182 436 C181.34 436 180.68 436 180 436 C179.89300781 436.57105469 179.78601563 437.14210938 179.67578125 437.73046875 C178.89916802 440.33863225 177.7483434 442.08780421 176.1875 444.3125 C173.99492672 447.45199439 172.04706154 450.65484466 170.16674805 453.99047852 C167.83592122 458.00492414 165.30664961 461.89827968 162.8125 465.8125 C161.73483443 467.50597447 160.65797087 469.19995968 159.58203125 470.89453125 C159.10999268 471.63550049 158.6379541 472.37646973 158.15161133 473.13989258 C156.96688944 474.99073716 156.96688944 474.99073716 156 477 C155.34 477 154.68 477 154 477 C153.89300781 477.57105469 153.78601563 478.14210938 153.67578125 478.73046875 C152.89916802 481.33863225 151.7483434 483.08780421 150.1875 485.3125 C147.97118399 488.48599105 145.99658272 491.72535918 144.09545898 495.09741211 C142.13737629 498.49820071 140.03000326 501.80585689 137.9375 505.125 C137.07119252 506.50233879 136.20529717 507.8799369 135.33984375 509.2578125 C134.93491699 509.89879883 134.52999023 510.53978516 134.11279297 511.20019531 C133.14021267 512.77322339 132.22330173 514.38039646 131.31640625 515.9921875 C130.66478516 516.98605469 130.66478516 516.98605469 130 518 C129.34 518 128.68 518 128 518 C127.88519287 518.57218262 127.77038574 519.14436523 127.65209961 519.73388672 C126.93672366 522.21989179 125.91984982 524.05615844 124.56640625 526.2578125 C124.08236328 527.04800781 123.59832031 527.83820312 123.09960938 528.65234375 C122.59236328 529.46832031 122.08511719 530.28429687 121.5625 531.125 C121.05912109 531.94871094 120.55574219 532.77242187 120.03710938 533.62109375 C116.27725213 539.72274787 116.27725213 539.72274787 114 542 C113.01 542 112.02 542 111 542 C109.81640625 540.48046875 109.81640625 540.48046875 108.5625 538.1875 C105.49267082 532.80372923 102.24868554 527.5514617 98.9375 522.3125 C98.430979 521.50514404 97.92445801 520.69778809 97.40258789 519.8659668 C95.14780127 516.29243272 92.86974807 512.76954961 90.37890625 509.35546875 C88.36918112 506.58954603 86.6529066 503.74573856 84.9921875 500.75976562 C83.26353294 497.69378579 81.37429072 494.72838235 79.5 491.75 C78.86348511 490.73595093 78.86348511 490.73595093 78.21411133 489.70141602 C77.29789718 488.24272625 76.38096276 486.7844887 75.46337891 485.32666016 C73.92440219 482.87980528 72.38989323 480.43018049 70.85546875 477.98046875 C69.79968671 476.29934881 68.7437008 474.61835688 67.6875 472.9375 C67.19636719 472.1527832 66.70523438 471.36806641 66.19921875 470.55957031 C64.01719346 467.09530869 61.80777726 463.68710652 59.39453125 460.37890625 C57.37986113 457.60479603 55.65752111 454.75403546 53.9921875 451.75976562 C52.26352906 448.69377891 50.37418336 445.72845661 48.5 442.75 C48.07275635 442.0688916 47.6455127 441.3877832 47.20532227 440.68603516 C45.80542617 438.45617009 44.40299166 436.22791854 43 434 C42.50870605 433.21915039 42.01741211 432.43830078 41.51123047 431.63378906 C36.45962557 423.60787474 31.39515572 415.59132987 26.25 407.625 C22.89909479 402.43559726 19.61004371 397.21650649 16.48890877 391.88488197 C14.71571565 388.98232576 12.73104406 386.39926643 10.5722332 383.77287865 C-2.09938146 367.5475512 -1.9622331 352.10408968 -1.6249187 332.50382209 C-1.56368033 328.02839098 -1.5849732 323.55318662 -1.59555054 319.07745361 C-1.60284344 311.3483486 -1.55943393 303.62091548 -1.48022079 295.89223099 C-1.36577462 284.7185645 -1.32991365 273.54569512 -1.31238891 262.37150614 C-1.28185125 244.23663465 -1.18896617 226.10265163 -1.05615234 207.96826172 C-0.92737635 190.366744 -0.82841163 172.76546877 -0.76904297 155.16357422 C-0.76536484 154.07611375 -0.76168671 152.98865329 -0.75789712 151.86823948 C-0.73962479 146.41202487 -0.72193331 140.95580856 -0.70453048 135.49959111 C-0.55971822 90.3324143 -0.30952939 45.16632335 0 0 Z M69.25 351.8125 C68.01092896 352.42532837 68.01092896 352.42532837 66.74682617 353.05053711 C64.15200901 354.34386773 61.5741637 355.66607546 59 357 C58.15969238 357.43505859 57.31938477 357.87011719 56.45361328 358.31835938 C51.61291655 360.83731276 46.79825998 363.4011985 42 366 C43.27658372 369.46501297 44.76621059 372.34839551 46.875 375.375 C48.66130784 377.99005161 50.31242103 380.55194382 51.875 383.3125 C52.2088269 383.86226501 52.54265381 384.41203003 52.88659668 384.97845459 C54 387 54 387 55.14562988 389.94390869 C56.91516509 393.62702406 58.60296296 396.67785451 62 399 C69.33550011 401.26952343 77.52124303 400.39036332 85.09375 400.171875 C87.36913572 400.14947727 89.64457954 400.13240338 91.92004395 400.12042236 C97.8925518 400.07472846 103.86152501 399.95697229 109.8326416 399.82397461 C115.93221213 399.70093963 122.03235724 399.64635315 128.1328125 399.5859375 C140.09008987 399.45746242 152.04475039 399.25281793 164 399 C164.66 397.35 165.32 395.7 166 394 C166.66 394 167.32 394 168 394 C168.32871094 393.36835938 168.65742187 392.73671875 168.99609375 392.0859375 C171.32225577 387.7109878 173.6834226 383.4144327 176.4375 379.29296875 C176.8507251 378.67309082 177.2639502 378.05321289 177.68969727 377.41455078 C178.51255485 376.19322469 179.34620448 374.97909127 180.19116211 373.77294922 C182.41072022 370.6313081 182.41072022 370.6313081 182.83447266 366.93823242 C181.74965532 364.41852357 180.79291856 364.02240387 178.30859375 362.921875 C177.53596191 362.56899414 176.76333008 362.21611328 175.96728516 361.85253906 C175.13245605 361.48870117 174.29762695 361.12486328 173.4375 360.75 C171.7033437 359.97115777 169.97028781 359.18986124 168.23828125 358.40625 C167.36252441 358.01179688 166.48676758 357.61734375 165.58447266 357.2109375 C163.12596124 356.0590183 160.74109016 354.82640474 158.35546875 353.53125 C157.64011963 353.14743164 156.92477051 352.76361328 156.18774414 352.36816406 C154.83805855 351.63653191 153.49684384 350.88899611 152.16577148 350.12402344 C150.13353797 348.97868683 150.13353797 348.97868683 147 348 C144.20105554 349.04599313 144.20105554 349.04599313 142 351 C140.3603125 352.0209375 140.3603125 352.0209375 138.6875 353.0625 C137.3571875 354.0215625 137.3571875 354.0215625 136 355 C136 355.66 136 356.32 136 357 C135.31164062 357.226875 134.62328125 357.45375 133.9140625 357.6875 C130.32209102 359.30533166 127.43029686 361.55855274 124.375 364 C114.88982079 371.47705569 114.88982079 371.47705569 110 371 C107.6875 370 107.6875 370 106 369 C106 368.34 106 367.68 106 367 C104.45331695 365.63146888 104.45331695 365.63146888 102.421875 364.28515625 C101.29845703 363.50301758 101.29845703 363.50301758 100.15234375 362.70507812 C99.35957031 362.16302734 98.56679688 361.62097656 97.75 361.0625 C96.20284299 359.99129262 94.65595931 358.91969033 93.109375 357.84765625 C92.07248535 357.1362146 92.07248535 357.1362146 91.01464844 356.41040039 C89.60282052 355.42201819 88.22240109 354.38794808 86.86816406 353.32202148 C85.10934174 351.80744991 85.10934174 351.80744991 83 352 C83 351.34 83 350.68 83 350 C77.75200472 346.67277099 74.22565145 349.2499867 69.25 351.8125 Z M84 433 C84.99 435.31 85.98 437.62 87 440 C87.66 440 88.32 440 89 440 C89.23203125 440.66515625 89.4640625 441.3303125 89.703125 442.015625 C91.36643699 445.84324657 93.51270287 449.23519175 95.75 452.75 C96.19593506 453.45793701 96.64187012 454.16587402 97.10131836 454.89526367 C99.96328294 459.42225819 102.88890833 463.89930408 105.94140625 468.30078125 C107 470 107 470 108 473 C108.66 473 109.32 473 110 473 C110.103125 473.639375 110.20625 474.27875 110.3125 474.9375 C110.539375 475.618125 110.76625 476.29875 111 477 C112.485 477.495 112.485 477.495 114 478 C114 477.34 114 476.68 114 476 C114.66 476 115.32 476 116 476 C116.52787109 474.98292969 116.52787109 474.98292969 117.06640625 473.9453125 C119.55190082 469.25986321 122.07897554 464.73987806 125.1875 460.4375 C128.67078176 455.59699359 131.81718932 450.57856429 134.9375 445.5 C135.68326294 444.29621704 135.68326294 444.29621704 136.4440918 443.06811523 C136.90468994 442.31344971 137.36528809 441.55878418 137.83984375 440.78125 C138.25613037 440.10126953 138.67241699 439.42128906 139.10131836 438.72070312 C140.1543133 437.02807829 140.1543133 437.02807829 140 435 C140.66 435 141.32 435 142 435 C142 434.34 142 433.68 142 433 C122.86 433 103.72 433 84 433 Z " fill="#074CA6" transform="translate(799,0)"/>
<path d="M0 0 C40.26 0 80.52 0 122 0 C124.21544218 5.1693651 125.63950722 9.14386857 126.8125 14.5 C128.394829 21.54167926 130.15378944 28.52299459 132 35.5 C133.92952235 42.8141386 135.76846866 50.13553298 137.4609375 57.5078125 C138.85909209 63.53592165 140.42237781 69.51665668 142 75.5 C144.2986381 84.2281207 146.45666061 92.97467384 148.48486328 101.76904297 C151.10447802 113.1140854 153.75517703 124.40877891 157.04296875 135.58203125 C158.29133766 140.04049166 159.32554192 144.54036801 160.35961914 149.05175781 C161.78938291 155.23295877 163.38084967 161.36596936 165 167.5 C166.91939668 174.78301106 168.76471647 182.07155047 170.4543457 189.41113281 C172.19366945 196.93048787 174.08969117 204.4103509 175.98242188 211.89233398 C176.35270508 213.36101929 176.35270508 213.36101929 176.73046875 214.859375 C176.95114014 215.73045898 177.17181152 216.60154297 177.39916992 217.49902344 C178.60028104 222.49869117 178.60028104 222.49869117 179 225 C177.09491404 226.90508596 174.28150154 226.12290403 171.74640983 226.12908131 C170.83884077 226.12616847 169.93127171 226.12325563 168.99620056 226.12025452 C167.56159205 226.12153615 167.56159205 226.12153615 166.09800154 226.12284368 C162.86731774 226.1245014 159.63668494 226.11897236 156.40600586 226.11352539 C154.10046897 226.11324356 151.79493198 226.11340118 149.48939514 226.1139679 C143.20865513 226.11425602 136.92793403 226.10835698 130.64719844 226.10139394 C124.09150585 226.09516278 117.53581289 226.09455679 110.9801178 226.09336853 C99.96973338 226.09077542 88.95935562 226.08435323 77.94897461 226.07543945 C66.60620153 226.06626611 55.26343034 226.0591849 43.9206543 226.05493164 C43.22196006 226.05466892 42.52326581 226.05440619 41.80339902 226.05413551 C38.29839699 226.05283051 34.79339495 226.05156679 31.2883929 226.05032361 C2.1922574 226.03995006 -26.90387121 226.02225681 -56 226 C-57.399498 221.801506 -56.02998208 218.5578771 -54.875 214.4375 C-54.53094116 213.16918335 -54.53094116 213.16918335 -54.17993164 211.87524414 C-53.04295804 207.70116521 -51.87121909 203.53714246 -50.69140625 199.375 C-50.27298739 197.89596059 -49.85501395 196.41679511 -49.4375 194.9375 C-49.23060547 194.20515137 -49.02371094 193.47280273 -48.81054688 192.71826172 C-47.1117392 186.61032465 -45.71419865 180.45591941 -44.37866211 174.25976562 C-43.34247148 169.46810831 -42.158584 164.75171715 -40.81640625 160.03540039 C-39.86319828 156.49137089 -39.03483593 152.92327452 -38.2109375 149.34765625 C-36.20265279 140.72899668 -34.01545239 132.16189905 -31.79669189 123.59542847 C-26.29409386 102.33329966 -21.04251614 81.01208996 -15.85986328 59.66992188 C-13.25728411 48.98165308 -10.60462844 38.32690094 -7.60115051 27.74360657 C-6.13750356 22.57133333 -4.88059464 17.39164176 -3.8125 12.125 C-2.92419703 7.76286539 -2.01523686 4.03047371 0 0 Z M26 34 C24.35 40.93 22.7 47.86 21 55 C18.9375 62.25 18.9375 62.25 17.95703125 65.58203125 C16.70866234 70.04049166 15.67445808 74.54036801 14.64038086 79.05175781 C13.21061631 85.23296215 11.61905285 91.36594139 10 97.5 C7.70111559 106.2280526 5.54333769 114.97468118 3.51513672 123.76904297 C0.89861116 135.10070672 -1.74803856 146.38269759 -5.03125 157.54296875 C-6.92558922 164.30300992 -8.4364822 171.15738028 -10 178 C-10.99 182.29 -11.98 186.58 -13 191 C35.84 191 84.68 191 135 191 C132.65391143 179.85607931 130.3249211 169.26222386 127.21875 158.390625 C125.82921183 153.47079142 124.66384699 148.50905754 123.51733398 143.52807617 C121.6674509 135.502699 119.64847299 127.52121097 117.63671875 119.53515625 C117.01399444 117.0557202 116.39660597 114.57502409 115.78125 112.09375 C113.56091174 103.14997782 111.28143175 94.22472935 108.9375 85.3125 C107.20604799 78.7255844 105.53332472 72.13592402 104 65.5 C101.51874055 54.95464734 98.73457055 44.48252045 96 34 C72.9 34 49.8 34 26 34 Z " fill="#074CA6" transform="translate(451,351)"/>
</svg>
