<?xml version="1.0" encoding="UTF-8"?>
<svg version="1.1" xmlns="http://www.w3.org/2000/svg" width="1024" height="1024">
<path d="M0 0 C2.63795885 -0.00542803 5.27587289 -0.01241148 7.91381836 -0.02124023 C14.303702 -0.03892352 20.69339653 -0.03523137 27.08328724 -0.02358967 C32.28161468 -0.01451514 37.47988954 -0.01334861 42.67822266 -0.01768494 C43.79269917 -0.01860433 43.79269917 -0.01860433 44.92969036 -0.01954231 C46.4395714 -0.02082135 47.94945242 -0.02211821 49.45933342 -0.02343267 C63.58069651 -0.03480861 77.70195533 -0.02177185 91.82330132 -0.00023121 C103.91089887 0.01763707 115.99834271 0.01453212 128.0859375 -0.00390625 C142.16059392 -0.02536597 156.23515921 -0.03371025 170.30982971 -0.0214572 C171.81381224 -0.02018315 173.31779479 -0.01892566 174.82177734 -0.01768494 C175.93143876 -0.01675928 175.93143876 -0.01675928 177.06351757 -0.01581493 C182.24891048 -0.01237729 187.43424504 -0.01815593 192.61962891 -0.02760315 C198.94849976 -0.03888145 205.27717246 -0.03566176 211.60602093 -0.01448017 C214.82828599 -0.00404728 218.05015806 -0.00190707 221.27243042 -0.01307678 C240.74413269 -0.07432086 258.14839946 0.55966461 273.625 14.01757812 C274.32625 14.84257812 275.0275 15.66757812 275.75 16.51757812 C276.20375 16.97003906 276.6575 17.4225 277.125 17.88867188 C285.60903131 26.74829833 289.90328949 38.10047016 289.84765625 50.22851562 C289.84515869 51.3504834 289.84266113 52.47245117 289.84008789 53.62841797 C289.82643188 55.73917725 289.82643188 55.73917725 289.8125 57.89257812 C289.791875 62.38882813 289.77125 66.88507813 289.75 71.51757812 C277.87 71.51757812 265.99 71.51757812 253.75 71.51757812 C253.375 60.39257813 253.375 60.39257813 253.27197266 56.91943359 C252.9941856 49.52671933 252.9941856 49.52671933 250.75 42.51757812 C248.96734114 41.16777732 248.96734114 41.16777732 246.75 40.51757812 C246.09429929 40.17785288 245.43859858 39.83812763 244.76302814 39.48810768 C240.30527782 38.05221719 236.01001675 38.22999974 231.35404968 38.23910522 C230.29622105 38.23331282 229.23839242 38.22752042 228.14850837 38.22155249 C224.59856793 38.2045268 221.04875729 38.20167373 217.4987793 38.19873047 C214.95619894 38.18943408 212.41362164 38.17926585 209.87104797 38.16828918 C204.39429805 38.14661023 198.91758423 38.13100601 193.44080162 38.12092209 C185.52232202 38.10633198 177.60390746 38.08079424 169.68546603 38.0525908 C156.83809809 38.00712883 143.99072079 37.97051156 131.14331055 37.93945312 C118.66380163 37.90926515 106.18431562 37.87491374 93.70483398 37.83496094 C92.93550274 37.83249939 92.1661715 37.83003784 91.37352719 37.8275017 C87.51398976 37.81512705 83.65445259 37.80267053 79.79491556 37.79017329 C47.7799748 37.6866144 15.76500903 37.59740821 -16.25 37.51757812 C-16.24111755 38.65382126 -16.23223511 39.79006439 -16.2230835 40.96073914 C-16.14169142 51.71413502 -16.08188829 62.46746769 -16.04275131 73.22110271 C-16.02195358 78.74852614 -15.99377978 84.27569916 -15.94824219 89.80297852 C-15.90450442 95.14575952 -15.88080426 100.48830098 -15.87049103 105.83124733 C-15.86314951 107.86082538 -15.84881442 109.89039161 -15.82707977 111.91986656 C-15.63434783 130.67696712 -18.14438627 145.12963621 -31.5625 159.33007812 C-46.07176876 173.03191709 -61.93149094 174.11095303 -80.86328125 173.90820312 C-82.92977853 173.90072806 -84.99628297 173.89504112 -87.06278992 173.89105225 C-92.46003335 173.87589551 -97.85683533 173.83670117 -103.25390625 173.79223633 C-108.77793407 173.75106699 -114.30203433 173.73299527 -119.82617188 173.71289062 C-130.63430686 173.67019596 -141.44211649 173.60206748 -152.25 173.51757812 C-152.19115601 223.75316822 -152.1166375 273.98871395 -152.02101372 324.22424824 C-152.00974517 330.1512076 -151.99860678 336.0781672 -151.98754883 342.00512695 C-151.98534514 343.18510824 -151.98314146 344.36508952 -151.980871 345.58082781 C-151.94547133 364.70219511 -151.92062228 383.82356236 -151.89965298 402.9449503 C-151.87791218 422.55636595 -151.84487818 442.16773896 -151.80129844 461.77911836 C-151.77475205 473.88631904 -151.75707869 485.99346658 -151.75065396 498.10069493 C-151.74540921 506.39621048 -151.72922305 514.69165907 -151.70433434 522.98713877 C-151.690288 527.7775462 -151.68116019 532.5678337 -151.68499184 537.35826302 C-151.68839123 541.74104594 -151.67810008 546.1235723 -151.65676448 550.50630263 C-151.65147732 552.09452841 -151.65128178 553.68278071 -151.65660437 555.27100637 C-151.66309092 557.42547175 -151.65125455 559.57908347 -151.63476086 561.73347759 C-151.63286225 562.93149523 -151.63096365 564.12951288 -151.62900752 565.36383408 C-151.21335443 568.82250806 -150.16782134 570.65765352 -148.25 573.51757812 C-148.25 574.17757812 -148.25 574.83757813 -148.25 575.51757812 C-142.77303074 578.46671542 -137.8575921 579.76748939 -131.63069344 579.76926041 C-130.98796189 579.77216729 -130.34523034 579.77507417 -129.68302208 579.77806914 C-127.5325733 579.78535918 -125.38241074 579.77843055 -123.23196411 579.77154541 C-121.6733113 579.77385024 -120.11465958 579.77702692 -118.55601013 579.7809999 C-114.27518667 579.78935359 -109.99445232 579.78521999 -105.71362853 579.77902746 C-101.09594476 579.77450626 -96.47827642 579.78148514 -91.8605957 579.7869873 C-82.81486956 579.79588691 -73.76917658 579.79395664 -64.72344913 579.78816202 C-57.37144536 579.78364722 -50.01945089 579.78303185 -42.66744614 579.78520966 C-41.62148231 579.78551612 -40.57551848 579.78582259 -39.49785879 579.78613834 C-37.37304784 579.78677779 -35.24823689 579.78742621 -33.12342595 579.78808352 C-13.19188369 579.79378862 6.73964019 579.78722639 26.67117943 579.77648279 C43.77314576 579.76754974 60.87508494 579.76909695 77.97705078 579.77832031 C97.8336574 579.78902427 117.6902479 579.79323653 137.546857 579.78709579 C139.66450953 579.78645868 141.78216207 579.78582994 143.89981461 579.78520966 C144.94175266 579.7849011 145.98369072 579.78459255 147.05720266 579.78427465 C154.39930314 579.7825479 161.74139339 579.78546246 169.08349228 579.79016876 C178.03275763 579.7957791 186.98198791 579.79425802 195.93124925 579.78360727 C200.49725247 579.77835224 205.0631972 579.77629095 209.62919998 579.78290558 C213.8101423 579.78887073 217.99097198 579.78558052 222.1719041 579.77495047 C223.68329607 579.77271883 225.19469758 579.77384746 226.7060834 579.77870205 C233.9728485 579.80024999 240.77229892 579.77236216 247.75 577.51757812 C247.75 576.85757813 247.75 576.19757812 247.75 575.51757812 C249.08333333 574.18424479 250.41666667 572.85091146 251.75 571.51757812 C252.75685387 568.49701651 252.90372686 566.38203198 252.95532227 563.2199707 C252.97526749 562.13907669 252.99521271 561.05818268 253.01576233 559.9445343 C253.03247482 558.77883408 253.04918732 557.61313385 253.06640625 556.41210938 C253.08718735 555.21776779 253.10796844 554.02342621 253.12937927 552.79289246 C253.19484276 548.9720137 253.2537451 545.15106537 253.3125 541.33007812 C253.35568824 538.74218026 253.39930263 536.15428947 253.44335938 533.56640625 C253.55052095 527.21686844 253.65179764 520.86726056 253.75 514.51757812 C247.81 514.51757812 241.87 514.51757812 235.75 514.51757812 C235.09 516.49757813 234.43 518.47757813 233.75 520.51757812 C227.05253584 532.93134928 215.81456066 542.66489889 202.32202148 546.92651367 C197.41601875 548.05393964 192.51389988 548.04752883 187.5 548.01757812 C186.39261475 548.01185791 185.28522949 548.0061377 184.14428711 548.00024414 C175.70662393 547.81596692 169.14727006 546.82263633 161.75 542.51757812 C160.86699219 542.0096875 159.98398437 541.50179687 159.07421875 540.97851562 C147.48103659 533.55465694 139.16337612 522.85669272 135.75 509.51757812 C135.21043506 506.51884221 134.91982202 503.55845364 134.75 500.51757812 C134.688125 499.45603516 134.688125 499.45603516 134.625 498.37304688 C134.20806292 483.91054195 138.64674674 471.14613539 148 460.08007812 C158.32256588 449.49727949 172.02505133 443.45691462 186.8125 442.95507812 C203.41652907 443.67370353 216.11168091 449.95986832 227.51171875 461.81445312 C230.93530266 465.94904312 235.75 471.90826901 235.75 477.51757812 C275.35 477.51757812 314.95 477.51757812 355.75 477.51757812 C355.63132553 443.65129527 355.63132553 443.65129527 355.47973633 409.78515625 C355.46618652 403.21972656 355.46618652 403.21972656 355.46366882 400.14147949 C355.45907658 398.00181199 355.44855546 395.86215203 355.43327332 393.72253418 C355.4112297 390.47243866 355.40828481 387.22281562 355.40942383 383.97265625 C355.3986295 383.02713142 355.38783518 382.0816066 355.37671375 381.1074295 C355.40814118 374.38267242 356.32531153 368.72163075 360.5 363.20507812 C366.36622589 358.80540871 371.60842993 358.08203134 378.71459961 358.17700195 C379.58368958 358.17656387 380.45277954 358.17612579 381.34820557 358.17567444 C384.19981937 358.1777522 387.05083359 358.20103517 389.90234375 358.22460938 C391.88773782 358.23020893 393.87313606 358.23447733 395.85853577 358.23747253 C401.06836516 358.24889294 406.27794118 358.27833598 411.4876709 358.31158447 C416.81010512 358.34234588 422.13258052 358.35599083 427.45507812 358.37109375 C437.88682969 358.40320837 448.31839372 358.45437075 458.75 358.51757812 C458.73334541 356.85293518 458.73334541 356.85293518 458.71635437 355.15466309 C458.61485078 344.67935124 458.53997331 334.20413961 458.49093914 323.72844696 C458.46488226 318.34316966 458.42955527 312.95829042 458.37280273 307.57324219 C458.31834409 302.37311407 458.28855007 297.17336804 458.27561378 291.97297668 C458.2663988 289.99227385 458.24840386 288.01159114 458.22134972 286.03105164 C458.18487513 283.24941361 458.18006231 280.46933995 458.18237305 277.6875 C458.15540848 276.46829361 458.15540848 276.46829361 458.12789917 275.22445679 C458.18153204 269.2295981 459.75332736 265.03897605 463.75 260.51757812 C468.61990824 256.26781049 473.56508241 255.95353409 479.80639648 256.06347656 C480.68524002 256.06289246 481.56408356 256.06230835 482.46955872 256.06170654 C485.35381555 256.06447741 488.23701905 256.09552186 491.12109375 256.12695312 C493.12890559 256.13441907 495.13672476 256.14011033 497.14454651 256.144104 C502.41364879 256.15933247 507.68230582 256.19859037 512.95123291 256.24291992 C518.33396381 256.28393275 523.71676707 256.30212786 529.09960938 256.32226562 C539.64993456 256.36508723 550.19993017 256.43330484 560.75 256.51757812 C560.74333817 255.41590302 560.73667633 254.31422791 560.72981262 253.1791687 C560.66896915 242.79147102 560.62401176 232.40380956 560.59456348 222.01597404 C560.57891482 216.67561281 560.55769095 211.33539556 560.52368164 205.99511719 C560.49105997 200.84041048 560.47314097 195.68584217 560.46536827 190.53104019 C560.45982983 188.56546984 560.44901459 186.59990696 560.43280983 184.6343956 C560.41099837 181.87898197 560.40803464 179.12413856 560.40942383 176.36865234 C560.39324509 175.15268623 560.39324509 175.15268623 560.3767395 173.91215515 C560.41086334 167.64749316 561.96587654 163.63923846 566.0625 158.76757812 C571.39429047 154.30375355 576.877557 154.23101639 583.50927734 154.29052734 C584.36846771 154.29023529 585.22765808 154.28994324 586.11288452 154.28964233 C588.9373402 154.29102959 591.76152821 154.30656228 594.5859375 154.32226562 C596.55034237 154.3259979 598.5147491 154.32884386 600.47915649 154.33084106 C605.63797181 154.3384606 610.79667369 154.35809467 615.95544434 154.38024902 C621.22418687 154.40074365 626.49294781 154.40985051 631.76171875 154.41992188 C642.09119554 154.44134214 652.42058832 154.4754578 662.75 154.51757812 C662.74333817 153.4306517 662.73667633 152.34372528 662.72981262 151.22386169 C662.66893587 140.96892137 662.6239958 130.71401783 662.59456348 120.45893764 C662.57892324 115.18698519 662.55771479 109.91517889 662.52368164 104.64331055 C662.49102988 99.5534376 662.47313464 94.46370504 662.46536827 89.37373543 C662.45983522 87.43411106 662.44903051 85.49449417 662.43280983 83.55492973 C662.4109583 80.83324596 662.40803631 78.11213857 662.40942383 75.39038086 C662.398638 74.5926828 662.38785217 73.79498474 662.3767395 72.97311401 C662.41269706 66.43318571 663.81111265 61.81362893 668.125 56.70507812 C673.87201843 51.9158961 679.32660732 52.23029941 686.50366211 52.25878906 C687.58715439 52.25528442 688.67064667 52.25177979 689.78697205 52.24816895 C693.3671612 52.23936946 696.94715259 52.24519503 700.52734375 52.25195312 C703.01689187 52.25060587 705.50643972 52.24866483 707.99598694 52.24615479 C713.88191691 52.24282822 719.76777522 52.24982572 725.65369469 52.26045632 C730.34264516 52.26796192 735.03151164 52.26531233 739.72045898 52.25683594 C746.19067887 52.24524051 752.66081765 52.24342639 759.13104439 52.24994659 C761.59619732 52.25128029 764.06135371 52.24964518 766.52650261 52.24498749 C769.97340912 52.23990461 773.42005616 52.24765784 776.86694336 52.25878906 C777.88479919 52.2547406 778.90265503 52.25069214 779.95135498 52.246521 C784.95228187 52.27641632 789.06534217 52.53082544 793.75 54.51757812 C793.75 55.17757812 793.75 55.83757812 793.75 56.51757812 C794.6471875 56.85789062 794.6471875 56.85789062 795.5625 57.20507812 C798.44454809 58.93430698 799.28444441 60.4936348 800.75 63.51757812 C801.12259549 66.79315072 801.12259549 66.79315072 801.11914349 70.5984087 C801.12260502 71.30316463 801.12606655 72.00792055 801.12963298 72.73403272 C801.13758968 75.10153245 801.12410229 77.46842319 801.11076355 79.83589172 C801.11207152 81.54787581 801.11469779 83.25985931 801.11853105 84.97183961 C801.1252496 89.6808711 801.11322451 94.3896985 801.09819686 99.09870398 C801.08526051 104.1750098 801.08962426 109.2513038 801.09190369 114.32762146 C801.09347794 123.12422228 801.08405283 131.92075642 801.06719017 140.71734047 C801.04282537 153.43576751 801.03499748 166.15416226 801.0312262 178.87261011 C801.02465776 199.50664443 801.00468594 220.14064319 800.97631836 240.7746582 C800.94878795 260.82055483 800.92754938 280.86644181 800.91479492 300.91235352 C800.91400675 302.14765607 800.91321858 303.38295862 800.91240653 304.65569458 C800.90849146 310.85274685 800.90470032 317.04979918 800.90097082 323.24685156 C800.86986269 374.67045296 800.81619147 426.09401092 800.75 477.51757812 C811.97 477.51757812 823.19 477.51757812 834.75 477.51757812 C834.75 489.72757813 834.75 501.93757813 834.75 514.51757812 C654.9 514.51757812 475.05 514.51757812 289.75 514.51757812 C289.75 533.98757813 289.75 553.45757813 289.75 573.51757812 C287.54694846 583.43131005 284.15828839 591.60791931 277.75 599.51757812 C277.09 599.51757812 276.43 599.51757812 275.75 599.51757812 C275.49476563 600.11570312 275.23953125 600.71382812 274.9765625 601.33007812 C271.13186054 608.18687143 261.75305049 612.21600594 254.55817497 614.55538434 C250.75378347 615.51662217 247.58067179 615.76924443 243.66685677 615.77205372 C242.64576174 615.77686344 242.64576174 615.77686344 241.60403854 615.78177032 C239.33035003 615.79005039 237.05692631 615.78415313 234.78323364 615.77827454 C233.13368459 615.78129613 231.48413693 615.78518565 229.83459175 615.7898671 C225.30712902 615.80015481 220.77974542 615.79796331 216.25227618 615.79368651 C211.36737382 615.79122069 206.48249058 615.80023165 201.59759521 615.807724 C192.02963062 615.82047703 182.46169409 615.82226394 172.89372243 615.81992374 C165.11697953 615.81814109 157.34024515 615.81988906 149.56350327 615.82414818 C148.4569057 615.82474337 147.35030814 615.82533856 146.21017732 615.82595178 C143.96215964 615.82716353 141.71414196 615.82837766 139.46612428 615.82959416 C118.38142212 615.84047202 97.29673596 615.83830603 76.2120329 615.83220931 C56.92242291 615.82703992 37.63286341 615.83829574 18.3432634 615.85730753 C-1.46273379 615.87667865 -21.26870709 615.88494321 -41.07471383 615.88118428 C-52.19449851 615.87927113 -63.31424022 615.88177084 -74.43401718 615.89589882 C-83.90036644 615.90780432 -93.36664627 615.90922681 -102.83299647 615.89710865 C-107.66244071 615.89121416 -112.49175788 615.89013634 -117.3211937 615.90211105 C-121.74397758 615.91294999 -126.16652801 615.90989017 -130.58930089 615.89584937 C-132.18749142 615.89319696 -133.78570013 615.89558604 -135.38387285 615.90358523 C-150.09208963 615.97208102 -162.18599728 612.84398066 -173.25 602.51757812 C-173.25 601.85757813 -173.25 601.19757812 -173.25 600.51757812 C-174.24 600.18757812 -175.23 599.85757813 -176.25 599.51757812 C-183.35702408 590.03616191 -188.49620068 580.18792793 -188.50447559 568.1717329 C-188.50768207 567.46260013 -188.51088855 566.75346736 -188.51419219 566.02284572 C-188.52247715 563.65253231 -188.51657324 561.28247258 -188.51069641 558.91215515 C-188.51371779 557.19319725 -188.5176072 555.47424069 -188.52228898 553.75528651 C-188.5325796 549.03592864 -188.53038443 544.31664665 -188.52610838 539.59728253 C-188.52364308 534.50581549 -188.53265292 529.41436682 -188.54014587 524.32290649 C-188.5529006 514.34953824 -188.55468558 504.3761969 -188.55234561 494.40282186 C-188.55056306 486.29618679 -188.55231074 478.18955989 -188.55657005 470.0829258 C-188.55716524 468.92943582 -188.55776043 467.77594584 -188.55837366 466.58750162 C-188.5595854 464.24422067 -188.56079954 461.90093972 -188.56201603 459.55765877 C-188.57289467 437.57779835 -188.57072762 415.59795327 -188.56463119 393.61809198 C-188.55946244 373.51114277 -188.57071579 353.40424201 -188.58972941 333.29730239 C-188.60910272 312.65170134 -188.61736465 292.00612323 -188.61360615 271.36051303 C-188.61169325 259.76953303 -188.61419031 248.17859427 -188.62832069 236.58762169 C-188.64022903 226.71945808 -188.64164554 216.85136109 -188.62953053 206.98319658 C-188.62363787 201.94907837 -188.62255316 196.91508203 -188.63453293 191.88097191 C-188.64537811 187.27001273 -188.64230455 182.65927739 -188.62827124 178.04832873 C-188.62562055 176.3828261 -188.62800254 174.71730599 -188.63600711 173.05182048 C-188.71701802 154.93445957 -184.02535595 141.91230625 -171.19276178 128.79046881 C-169.52662061 127.11630019 -167.8491896 125.45397647 -166.17114258 123.79174805 C-164.95703618 122.57085027 -163.74399246 121.34889497 -162.53192139 120.12597656 C-159.26426929 116.83570561 -155.98121159 113.56123755 -152.69428468 110.29023528 C-149.2397198 106.84842016 -145.79747359 103.39431805 -142.35319519 99.94221497 C-136.56953227 94.14948179 -130.7754679 88.36731009 -124.9753418 82.59106445 C-118.29091916 75.93384775 -111.62469858 69.25881117 -104.96764451 62.57423514 C-99.22882417 56.81264989 -93.48022366 51.06095917 -87.72348899 45.31727296 C-84.29523485 41.8967728 -80.87035002 38.47308238 -77.4542942 35.04039574 C-74.24060095 31.81214926 -71.01471134 28.59658697 -67.77941895 25.38999176 C-66.60134942 24.21847537 -65.42740534 23.04279173 -64.25818443 21.86244392 C-44.91945949 2.35686851 -26.43562361 -0.09163665 0 0 Z M-59.25 68.51757812 C-59.91 69.34257812 -60.57 70.16757812 -61.25 71.01757812 C-63.61043197 73.96811809 -66.35151737 76.10217593 -69.25 78.51757812 C-69.91 79.34257812 -70.57 80.16757812 -71.25 81.01757812 C-73.61043197 83.96811809 -76.35151737 86.10217593 -79.25 88.51757812 C-79.91 89.34257812 -80.57 90.16757812 -81.25 91.01757812 C-83.61043197 93.96811809 -86.35151737 96.10217593 -89.25 98.51757812 C-90.58827304 100.18028099 -91.92189785 101.84673994 -93.25 103.51757812 C-94.054375 104.15695312 -94.85875 104.79632812 -95.6875 105.45507812 C-98.40604996 107.50450216 -98.40604996 107.50450216 -100.75 110.51757812 C-103.08518237 113.31979697 -105.41900965 115.25278585 -108.25 117.51757812 C-109.075 118.50757813 -109.9 119.49757813 -110.75 120.51757812 C-113.0806426 123.31434924 -115.41749625 125.26610078 -118.25 127.51757812 C-119.60827971 129.16397777 -120.94254251 130.8305362 -122.25 132.51757812 C-123.58333333 133.85091146 -124.91666667 135.18424479 -126.25 136.51757812 C-126.25 136.84757812 -126.25 137.17757812 -126.25 137.51757812 C-118.5479369 137.58727934 -110.84590677 137.64049116 -103.14359951 137.67301464 C-99.56656643 137.68862927 -95.98975014 137.70978972 -92.4128418 137.74389648 C-88.95689341 137.77664131 -85.50115273 137.79446271 -82.04506111 137.80220985 C-80.09364592 137.81039976 -78.14231356 137.8337949 -76.19102478 137.85746765 C-68.11667219 137.8589914 -62.82004693 137.45295004 -56.4375 132.20507812 C-52.70498401 127.61941562 -51.99845855 123.13290248 -52.02294922 117.32861328 C-52.02310028 116.12782135 -52.02325134 114.92702942 -52.02340698 113.68984985 C-52.03372955 112.40839081 -52.04405212 111.12693176 -52.0546875 109.80664062 C-52.0584221 108.47000338 -52.06126696 107.13336338 -52.06326294 105.79672241 C-52.07086423 102.2950268 -52.09048212 98.79349962 -52.1126709 95.29187012 C-52.13320526 91.71218137 -52.14228082 88.13246516 -52.15234375 84.55273438 C-52.17373171 77.54094686 -52.20782484 70.5292706 -52.25 63.51757812 C-54.74621382 63.51757812 -57.42860645 66.83451826 -59.25 68.51757812 Z M698.75 88.51757812 C698.75 216.88757813 698.75 345.25757813 698.75 477.51757812 C720.86 477.51757812 742.97 477.51757812 765.75 477.51757812 C765.75 349.14757812 765.75 220.77757812 765.75 88.51757812 C743.64 88.51757812 721.53 88.51757812 698.75 88.51757812 Z M596.75 190.51757812 C596.75 285.22757813 596.75 379.93757813 596.75 477.51757812 C618.53 477.51757812 640.31 477.51757812 662.75 477.51757812 C662.75 382.80757812 662.75 288.09757812 662.75 190.51757812 C640.97 190.51757812 619.19 190.51757812 596.75 190.51757812 Z M494.75 292.51757812 C494.75 353.56757812 494.75 414.61757813 494.75 477.51757812 C516.53 477.51757812 538.31 477.51757812 560.75 477.51757812 C560.75 416.46757813 560.75 355.41757812 560.75 292.51757812 C538.97 292.51757812 517.19 292.51757812 494.75 292.51757812 Z M392.75 394.51757812 C392.75 421.90757812 392.75 449.29757812 392.75 477.51757812 C414.53 477.51757812 436.31 477.51757812 458.75 477.51757812 C458.75 450.12757813 458.75 422.73757813 458.75 394.51757812 C436.97 394.51757812 415.19 394.51757812 392.75 394.51757812 Z M176.140625 483.91992188 C174.59886323 485.63984686 174.59886323 485.63984686 172.75 488.51757812 C172.316875 489.15695312 171.88375 489.79632812 171.4375 490.45507812 C170.13318475 494.36802387 169.99113283 497.77511488 171.66015625 501.60742188 C174.98944638 507.35606754 178.64385301 510.59723828 185.125 512.51757812 C191.22556283 512.51757812 195.13008974 509.89622516 199.6875 506.01757812 C203.24361253 501.7071387 203.04044681 498.0360676 202.75 492.51757812 C201.57650999 487.7062691 198.66759639 484.41885794 194.75 481.51757812 C188.47529928 478.37362282 181.47410844 479.27254189 176.140625 483.91992188 Z " fill="#074CA6" transform="translate(188.25,408.482421875)"/>
<path d="M0 0 C0.84934113 0.00215515 1.69868225 0.0043103 2.57376099 0.00653076 C37.5186602 0.14821864 71.9270289 7.49840183 102.8125 24.3125 C103.78316406 24.82683594 104.75382813 25.34117188 105.75390625 25.87109375 C111.8925604 29.15813387 117.8669656 32.69039116 123.8125 36.3125 C125.19308594 37.08013672 125.19308594 37.08013672 126.6015625 37.86328125 C127.69597656 38.58064453 127.69597656 38.58064453 128.8125 39.3125 C128.8125 39.9725 128.8125 40.6325 128.8125 41.3125 C129.5446875 41.57289062 130.276875 41.83328125 131.03125 42.1015625 C140.84162862 46.37293521 149.10970952 55.98242519 156.8125 63.3125 C157.33134766 63.80266602 157.85019531 64.29283203 158.38476562 64.79785156 C187.1194837 92.09035698 207.93868315 129.10322527 216.94140625 167.61328125 C217.70804975 170.86893773 218.56204122 174.0850624 219.4375 177.3125 C222.86865568 191.39849442 223.15860487 205.50665069 223.12817383 219.92871094 C223.12501876 223.04397799 223.1485476 226.15828726 223.17382812 229.2734375 C223.22918991 246.46433416 221.33363852 262.90571876 217 279.5625 C216.74138184 280.57135254 216.48276367 281.58020508 216.21630859 282.61962891 C213.97960668 291.10988383 211.22158464 299.22850178 207.8125 307.3125 C207.52149414 308.02035645 207.23048828 308.72821289 206.93066406 309.45751953 C200.59006777 324.80578832 192.5784153 338.88146684 182.8125 352.3125 C181.64509166 354.02032659 180.47843557 355.72866761 179.3125 357.4375 C176.10263611 362.02301985 172.56268052 366.166233 168.8125 370.3125 C167.70769762 371.60362297 166.60354034 372.89529819 165.5 374.1875 C157.9624091 382.76591637 149.7422094 390.21783942 140.8125 397.3125 C140.03519531 397.96863281 139.25789062 398.62476563 138.45703125 399.30078125 C116.85923553 417.35321016 86.78678868 433.30063501 59.05078125 438.78515625 C56.68992713 439.30325429 56.68992713 439.30325429 53.98046875 440.27734375 C6.84294998 455.67986221 -52.39558807 446.30238658 -96.015625 424.73046875 C-101.06853636 422.45636527 -101.06853636 422.45636527 -106.375 423 C-108.29580672 424.16697123 -108.29580672 424.16697123 -109.01953125 426.09765625 C-110.50729101 428.91892642 -112.42821247 430.81788317 -114.6875 433.0625 C-115.4815625 433.86171875 -116.275625 434.6609375 -117.09375 435.484375 C-119.1875 437.3125 -119.1875 437.3125 -121.1875 437.3125 C-121.496875 438.116875 -121.496875 438.116875 -121.8125 438.9375 C-123.72000426 442.23228009 -126.23569384 444.90613628 -129.1875 447.3125 C-129.8475 447.3125 -130.5075 447.3125 -131.1875 447.3125 C-131.4246875 447.87453125 -131.661875 448.4365625 -131.90625 449.015625 C-133.47697697 451.83144042 -135.40221464 453.79205416 -137.6875 456.0625 C-138.4815625 456.86171875 -139.275625 457.6609375 -140.09375 458.484375 C-142.1875 460.3125 -142.1875 460.3125 -144.1875 460.3125 C-144.55004883 461.16183105 -144.55004883 461.16183105 -144.91992188 462.02832031 C-146.43845817 464.7647274 -148.25901881 466.64319338 -150.46875 468.859375 C-151.31050781 469.70371094 -152.15226562 470.54804688 -153.01953125 471.41796875 C-153.89996094 472.29066406 -154.78039062 473.16335938 -155.6875 474.0625 C-156.56792969 474.95066406 -157.44835937 475.83882813 -158.35546875 476.75390625 C-159.19722656 477.59308594 -160.03898437 478.43226563 -160.90625 479.296875 C-161.67904297 480.06741211 -162.45183594 480.83794922 -163.24804688 481.63183594 C-165.1875 483.3125 -165.1875 483.3125 -167.1875 483.3125 C-167.55004883 484.16183105 -167.55004883 484.16183105 -167.91992188 485.02832031 C-169.43845817 487.7647274 -171.25901881 489.64319338 -173.46875 491.859375 C-174.31050781 492.70371094 -175.15226562 493.54804688 -176.01953125 494.41796875 C-176.89996094 495.29066406 -177.78039062 496.16335938 -178.6875 497.0625 C-179.56792969 497.95066406 -180.44835937 498.83882813 -181.35546875 499.75390625 C-182.19722656 500.59308594 -183.03898437 501.43226563 -183.90625 502.296875 C-184.67904297 503.06741211 -185.45183594 503.83794922 -186.24804688 504.63183594 C-188.1875 506.3125 -188.1875 506.3125 -190.1875 506.3125 C-190.55004883 507.16183105 -190.55004883 507.16183105 -190.91992188 508.02832031 C-192.43845817 510.7647274 -194.25901881 512.64319338 -196.46875 514.859375 C-197.31050781 515.70371094 -198.15226562 516.54804687 -199.01953125 517.41796875 C-199.89996094 518.29066406 -200.78039062 519.16335938 -201.6875 520.0625 C-203.00814453 521.39474609 -203.00814453 521.39474609 -204.35546875 522.75390625 C-205.19722656 523.59308594 -206.03898437 524.43226563 -206.90625 525.296875 C-208.06543945 526.45268066 -208.06543945 526.45268066 -209.24804688 527.63183594 C-211.1875 529.3125 -211.1875 529.3125 -213.1875 529.3125 C-213.4246875 529.87453125 -213.661875 530.4365625 -213.90625 531.015625 C-215.47697697 533.83144042 -217.40221464 535.79205416 -219.6875 538.0625 C-220.4815625 538.86171875 -221.275625 539.6609375 -222.09375 540.484375 C-224.1875 542.3125 -224.1875 542.3125 -226.1875 542.3125 C-226.5175 543.3025 -226.8475 544.2925 -227.1875 545.3125 C-256.6144991 557.92407104 -291.17187881 548.3125 -323.1875 548.3125 C-323.1875 649.2925 -323.1875 750.2725 -323.1875 854.3125 C-335.0675 854.3125 -346.9475 854.3125 -359.1875 854.3125 C-359.1875 753.3325 -359.1875 652.3525 -359.1875 548.3125 C-370.7375 548.3125 -382.2875 548.3125 -394.1875 548.3125 C-394.8475 550.6225 -395.5075 552.9325 -396.1875 555.3125 C-402.9569146 567.60722058 -414.09836486 575.99516853 -427.1875 580.6875 C-440.94362577 584.54829945 -455.40393316 583.3544984 -468.11328125 576.8046875 C-479.79189409 569.85890117 -488.61162728 560.16852336 -493.1875 547.3125 C-497.19096253 531.5488663 -495.51869687 516.44785311 -487.875 502.05859375 C-485.43801125 498.09284585 -482.70166297 494.39192116 -479.1875 491.3125 C-478.5275 491.3125 -477.8675 491.3125 -477.1875 491.3125 C-477.1875 490.6525 -477.1875 489.9925 -477.1875 489.3125 C-463.62239665 478.4710985 -448.97574378 476.77851537 -432.1875 478.3125 C-420.57832926 480.47404016 -411.05105545 486.69804801 -403.1875 495.3125 C-402.69507813 495.76238281 -402.20265625 496.21226562 -401.6953125 496.67578125 C-399.68913139 498.85347525 -398.41407403 501.21479363 -397 503.8125 C-396.47019531 504.7715625 -395.94039063 505.730625 -395.39453125 506.71875 C-394.1875 509.3125 -394.1875 509.3125 -394.1875 512.3125 C-371.88144724 515.55858116 -349.57329067 517.59368897 -327.0625 518.6875 C-326.22988962 518.72932482 -325.39727924 518.77114964 -324.53943825 518.81424189 C-280.67696637 520.94967168 -245.41201141 517.0331448 -211.8671875 486.75390625 C-201.30554301 477.13343005 -191.5037017 466.8512296 -181.9375 456.25 C-181.34317767 455.5933155 -180.74885534 454.93663099 -180.13652325 454.26004696 C-164.73015132 437.20837213 -150.09949518 419.60356566 -136.1875 401.3125 C-140.52376129 396.91689415 -145.10622951 393.1134986 -149.95703125 389.30078125 C-150.69308594 388.64464844 -151.42914062 387.98851562 -152.1875 387.3125 C-152.1875 386.6525 -152.1875 385.9925 -152.1875 385.3125 C-153.1775 384.9825 -154.1675 384.6525 -155.1875 384.3125 C-155.1875 383.6525 -155.1875 382.9925 -155.1875 382.3125 C-156.5075 381.6525 -157.8275 380.9925 -159.1875 380.3125 C-159.1875 379.6525 -159.1875 378.9925 -159.1875 378.3125 C-160.1775 377.9825 -161.1675 377.6525 -162.1875 377.3125 C-162.1875 376.6525 -162.1875 375.9925 -162.1875 375.3125 C-163.1775 374.9825 -164.1675 374.6525 -165.1875 374.3125 C-182.36964583 356.1996546 -195.01675881 333.90008697 -205.1875 311.3125 C-205.71472656 310.14203125 -206.24195313 308.9715625 -206.78515625 307.765625 C-218.01846183 281.2849793 -222.39841975 253.65415672 -222.31787109 225.07177734 C-222.31250525 222.81471038 -222.31785808 220.5578423 -222.32421875 218.30078125 C-222.33177312 205.85118607 -221.98454931 193.52982101 -219.375 181.3125 C-219.19759277 180.45930176 -219.02018555 179.60610352 -218.83740234 178.72705078 C-217.29469194 171.47999474 -215.42176137 164.37864148 -213.1875 157.3125 C-212.96304199 156.59288086 -212.73858398 155.87326172 -212.50732422 155.13183594 C-209.95551941 146.99678462 -207.40140104 139.08084519 -203.34375 131.55078125 C-201.68845972 128.34645243 -200.44059607 125.01215983 -199.1796875 121.63671875 C-198.06287582 119.02056542 -196.69249203 116.72630365 -195.1875 114.3125 C-194.29804687 112.83716797 -194.29804687 112.83716797 -193.390625 111.33203125 C-184.85464297 97.31594876 -175.39705056 83.36276686 -164.1875 71.3125 C-163.5275 71.3125 -162.8675 71.3125 -162.1875 71.3125 C-161.83171875 70.46945313 -161.83171875 70.46945313 -161.46875 69.609375 C-159.89802303 66.79355958 -157.97278536 64.83294584 -155.6875 62.5625 C-154.8934375 61.76328125 -154.099375 60.9640625 -153.28125 60.140625 C-151.1875 58.3125 -151.1875 58.3125 -149.1875 58.3125 C-148.8575 57.3225 -148.5275 56.3325 -148.1875 55.3125 C-144.74305556 52.3125 -144.74305556 52.3125 -142.1875 52.3125 C-141.8575 51.3225 -141.5275 50.3325 -141.1875 49.3125 C-139.62890625 47.92578125 -139.62890625 47.92578125 -137.75 46.625 C-137.13253906 46.18800781 -136.51507812 45.75101563 -135.87890625 45.30078125 C-134.1875 44.3125 -134.1875 44.3125 -132.1875 44.3125 C-132.1875 43.6525 -132.1875 42.9925 -132.1875 42.3125 C-131.1975 42.3125 -130.2075 42.3125 -129.1875 42.3125 C-129.1875 41.6525 -129.1875 40.9925 -129.1875 40.3125 C-92.60843301 12.69157186 -45.25571715 -0.20854398 0 0 Z M-115.6875 76.8125 C-116.2458252 77.2338623 -116.80415039 77.65522461 -117.37939453 78.08935547 C-118.69028482 79.11266317 -119.94549228 80.20660271 -121.1875 81.3125 C-121.1875 81.9725 -121.1875 82.6325 -121.1875 83.3125 C-121.72375 83.539375 -122.26 83.76625 -122.8125 84 C-128.02652743 86.88143621 -131.58198463 90.6602221 -135.1875 95.3125 C-136.074375 96.17875 -136.96125 97.045 -137.875 97.9375 C-140.38046794 100.16598846 -140.38046794 100.16598846 -141.1875 103.3125 C-141.8475 103.3125 -142.5075 103.3125 -143.1875 103.3125 C-144.96680324 105.48416241 -146.61960762 107.657229 -148.25 109.9375 C-148.73952148 110.61611084 -149.22904297 111.29472168 -149.73339844 111.99389648 C-179.31030194 153.34110244 -192.67150014 203.18118807 -184.9375 253.8125 C-183.60047699 261.46992257 -181.59623988 268.92461998 -179.1875 276.3125 C-178.7158231 277.81500289 -178.24448919 279.31761348 -177.7734375 280.8203125 C-175.16720637 289.0075809 -172.39446037 296.78900952 -168.1875 304.3125 C-167.72601562 305.17746094 -167.26453125 306.04242188 -166.7890625 306.93359375 C-165.2829334 309.74264406 -163.73768249 312.52755676 -162.1875 315.3125 C-161.45466797 316.68148437 -161.45466797 316.68148437 -160.70703125 318.078125 C-152.21549064 333.4257984 -140.53442295 348.47731868 -127.03125 359.6875 C-125.1875 361.3125 -125.1875 361.3125 -122.9609375 363.625 C-119.62537936 366.85720282 -116.04706792 369.56218269 -112.3125 372.3125 C-111.63058594 372.82039063 -110.94867187 373.32828125 -110.24609375 373.8515625 C-108.23276767 375.34717616 -106.21125141 376.83103489 -104.1875 378.3125 C-103.57269775 378.76882813 -102.95789551 379.22515625 -102.32446289 379.6953125 C-98.80753376 382.27095581 -95.31696232 384.41431842 -91.375 386.3125 C-85.23171366 389.28922218 -85.23171366 389.28922218 -82.75390625 390.59375 C-71.21352215 396.66558784 -58.6776064 400.6921793 -46.1875 404.3125 C-44.63131958 404.78465942 -44.63131958 404.78465942 -43.04370117 405.26635742 C-28.84725914 409.11768722 -14.44819906 409.85157634 0.1875 409.75 C1.08093109 409.74795563 1.97436218 409.74591125 2.89486694 409.74380493 C15.52746106 409.69679533 27.66378354 409.12288779 39.92724609 405.81640625 C41.62119094 405.36363467 43.33559812 404.98914021 45.05078125 404.625 C60.45627461 401.28957519 74.96895948 394.68108895 88.8125 387.3125 C89.67230469 386.87164062 90.53210938 386.43078125 91.41796875 385.9765625 C97.64161516 382.69400209 103.20139184 378.53918522 108.8125 374.3125 C103.22802284 366.46151944 103.22802284 366.46151944 96.8125 359.3125 C96.1525 359.3125 95.4925 359.3125 94.8125 359.3125 C94.7196875 358.44625 94.7196875 358.44625 94.625 357.5625 C93.95969867 355.10452395 93.95969867 355.10452395 91.53515625 353.5 C88.71383732 351.23323013 86.67978631 348.89571375 84.4375 346.0625 C80.20751742 340.80145317 80.20751742 340.80145317 75.875 335.625 C75.05708984 334.66013672 75.05708984 334.66013672 74.22265625 333.67578125 C72.89974769 332.08081453 72.89974769 332.08081453 70.8125 332.3125 C70.544375 331.72597656 70.27625 331.13945312 70 330.53515625 C68.79838009 328.28607161 67.51328498 326.64294097 65.8125 324.75 C65.20019531 324.06421875 64.58789062 323.3784375 63.95703125 322.671875 C62.37369849 320.92992056 60.78729751 319.19075378 59.19921875 317.453125 C58.75255859 316.96400635 58.30589844 316.4748877 57.84570312 315.97094727 C56.54996803 314.55461854 55.24968209 313.14245728 53.94921875 311.73046875 C51.8125 309.3125 51.8125 309.3125 49.8125 306.3125 C49.1525 306.3125 48.4925 306.3125 47.8125 306.3125 C47.54050781 305.72210938 47.26851562 305.13171875 46.98828125 304.5234375 C45.8316835 302.34857262 44.6369134 300.76918537 43 298.9375 C42.38382813 298.2465625 41.76765625 297.555625 41.1328125 296.84375 C39.34668297 294.89524506 37.55009711 292.95939277 35.7421875 291.03125 C34.61960412 289.83350908 33.49721289 288.63558805 32.375 287.4375 C31.80934326 286.83381592 31.24368652 286.23013184 30.66088867 285.6081543 C26.74733514 281.40030606 23.08038289 277.06833734 19.59375 272.49609375 C17.49209658 269.91972476 15.17911192 267.64688876 12.8125 265.3125 C7.09820125 259.24397066 1.69526394 253.01002077 -3.44921875 246.453125 C-5.25255085 244.15717317 -5.25255085 244.15717317 -7.8125 241.6875 C-14.03373181 235.46626819 -17.33403942 230.62507397 -17.34571838 221.82089233 C-17.35065636 221.03922498 -17.35559434 220.25755763 -17.36068195 219.45220339 C-17.37610579 216.81888651 -17.38443075 214.1855941 -17.39282227 211.55224609 C-17.40239695 209.67019941 -17.41240679 207.7881549 -17.42282104 205.90611267 C-17.44992054 200.78450745 -17.47090274 195.66289297 -17.49082303 190.54125547 C-17.51265153 185.19339009 -17.54005553 179.84555342 -17.56687927 174.49771118 C-17.61684866 164.36528523 -17.6617717 154.23284338 -17.70490164 144.10038626 C-17.75423778 132.56728764 -17.80916932 121.03421782 -17.86458123 109.50114703 C-17.97846644 85.77162488 -18.08529119 62.04207511 -18.1875 38.3125 C-52.70819059 37.99435092 -88.78013715 56.37605529 -115.6875 76.8125 Z M17.8125 38.3125 C17.8125 93.7525 17.8125 149.1925 17.8125 206.3125 C73.2525 206.3125 128.6925 206.3125 185.8125 206.3125 C183.19743108 187.92961743 183.19743108 187.92961743 178.46972656 170.35644531 C177.79715219 168.26476898 177.17087613 166.16361479 176.5546875 164.0546875 C174.29827148 156.39902197 171.66684815 149.32324677 167.8125 142.3125 C167.18221306 141.09383169 166.55483504 139.87365642 165.9296875 138.65234375 C162.67878691 132.35128296 159.48175505 126.32108104 154.94140625 120.828125 C153.8125 119.3125 153.8125 119.3125 152.8125 116.3125 C152.1525 116.3125 151.4925 116.3125 150.8125 116.3125 C150.60625 115.6525 150.4 114.9925 150.1875 114.3125 C147.32094652 108.05820151 142.77211679 103.01777746 137.8125 98.3125 C134.99403926 95.56630748 132.3650272 92.7912051 129.875 89.75 C127.19992391 86.57420453 124.32166507 84.5523926 120.8125 82.3125 C119.14583333 80.64583333 117.47916667 78.97916667 115.8125 77.3125 C111.74831395 73.73172032 111.74831395 73.73172032 106.8125 72.3125 C106.8125 71.6525 106.8125 70.9925 106.8125 70.3125 C106.24402344 70.00957031 105.67554688 69.70664063 105.08984375 69.39453125 C104.31769531 68.97558594 103.54554688 68.55664062 102.75 68.125 C101.61884766 67.51591797 101.61884766 67.51591797 100.46484375 66.89453125 C98.35684257 65.6371815 96.46415932 64.33984032 94.5 62.8828125 C90.82287438 60.22201525 86.99336459 58.26144258 82.875 56.375 C82.13483643 56.03291504 81.39467285 55.69083008 80.63208008 55.33837891 C61.04535865 46.42074561 39.53994389 38.3125 17.8125 38.3125 Z M39.8125 241.3125 C41.1325 242.9625 42.4525 244.6125 43.8125 246.3125 C44.4725 246.3125 45.1325 246.3125 45.8125 246.3125 C46.04839844 246.86679688 46.28429687 247.42109375 46.52734375 247.9921875 C48.1251455 250.87697242 50.13101009 253.02422032 52.375 255.4375 C56.71527778 260.11805556 56.71527778 260.11805556 57.8125 262.3125 C58.4725 262.3125 59.1325 262.3125 59.8125 262.3125 C60.1425 263.3025 60.4725 264.2925 60.8125 265.3125 C61.4725 265.3125 62.1325 265.3125 62.8125 265.3125 C63.10125 265.910625 63.39 266.50875 63.6875 267.125 C64.85992026 269.50577792 64.85992026 269.50577792 66.8125 272.3125 C67.4725 272.3125 68.1325 272.3125 68.8125 272.3125 C69.0290625 272.84746094 69.245625 273.38242187 69.46875 273.93359375 C71.29567222 277.16788338 73.77133813 279.69922878 76.3125 282.375 C79.02380519 285.25094517 81.61096483 288.01019724 83.8125 291.3125 C84.4725 291.3125 85.1325 291.3125 85.8125 291.3125 C86.20308594 292.18068359 86.20308594 292.18068359 86.6015625 293.06640625 C87.89442325 295.46445442 89.35975075 297.23468697 91.1875 299.25 C93.26578427 301.56160517 95.22438058 303.84683156 97.125 306.3125 C97.9603125 307.3025 97.9603125 307.3025 98.8125 308.3125 C99.4725 308.3125 100.1325 308.3125 100.8125 308.3125 C101.05226563 308.87066406 101.29203125 309.42882812 101.5390625 310.00390625 C103.08954087 312.81474281 105.00531874 314.8974491 107.1875 317.25 C109.56365587 319.82085761 111.84260472 322.35167961 113.9765625 325.12890625 C114.58242188 325.84949219 115.18828125 326.57007813 115.8125 327.3125 C116.4725 327.3125 117.1325 327.3125 117.8125 327.3125 C117.874375 327.89 117.93625 328.4675 118 329.0625 C118.66340948 331.51799685 118.66340948 331.51799685 121.078125 333.10546875 C123.99153931 335.4570103 126.07158951 337.9306405 128.375 340.875 C130.9717717 344.19184704 133.30754336 346.952019 136.8125 349.3125 C141.15903973 345.20923675 144.71978206 340.70556186 148.3125 335.9375 C148.86808594 335.20789063 149.42367187 334.47828125 149.99609375 333.7265625 C151.61260004 331.59657774 153.2148607 329.45665999 154.8125 327.3125 C155.26753906 326.71058838 155.72257813 326.10867676 156.19140625 325.48852539 C159.23868311 321.36899381 161.59464367 317.11262772 163.8125 312.5 C164.50751098 311.0753737 165.2028224 309.65089392 165.8984375 308.2265625 C166.22811523 307.54754883 166.55779297 306.86853516 166.89746094 306.16894531 C168.02717337 303.87696737 169.23629962 301.63015685 170.4375 299.375 C179.49171893 281.20559097 182.96983208 261.21117541 185.8125 241.3125 C137.6325 241.3125 89.4525 241.3125 39.8125 241.3125 Z M-453.7890625 518.15625 C-457.92762887 523.56973018 -460.07716777 527.28412465 -459.1875 534.3125 C-457.72292143 538.69741294 -455.55338249 541.37128845 -451.5625 543.6875 C-450.44875 544.22375 -449.335 544.76 -448.1875 545.3125 C-447.5275 545.6425 -446.8675 545.9725 -446.1875 546.3125 C-444.07074356 546.25132556 -444.07074356 546.25132556 -441.75 545.9375 C-440.96753906 545.84726562 -440.18507813 545.75703125 -439.37890625 545.6640625 C-434.5712702 544.89278399 -432.49567356 543.11553747 -429.49609375 539.47265625 C-426.84867947 535.102447 -426.50915127 530.19001156 -427.671875 525.2578125 C-429.48367458 520.5672647 -432.08124773 517.48264015 -436.4375 515.0625 C-442.47237605 513.41662471 -449.40789637 513.11256607 -453.7890625 518.15625 Z " fill="#074CA6" transform="translate(801.1875,-0.3125)"/>
<path d="M0 0 C12.97461553 11.27766309 18.48003508 22.39945349 19.9453125 39.203125 C20.89368354 54.0999402 16.06655533 66.56789571 6.3046875 77.8046875 C-3.79144362 88.22254662 -15.45860587 93.69050721 -29.96240234 94.09130859 C-36.82530025 94.17084797 -42.94326633 93.72753552 -49.5234375 91.55859375 C-54.26665892 89.93609969 -54.26665892 89.93609969 -59.0703125 90.5546875 C-61.13584211 91.77099016 -61.13584211 91.77099016 -61.8203125 94.8046875 C-63.9296875 96.671875 -63.9296875 96.671875 -66.5703125 98.6796875 C-69.4808116 100.9300306 -72.2531593 103.10736867 -74.7578125 105.8046875 C-76.8203125 107.8046875 -76.8203125 107.8046875 -79.8203125 107.8046875 C-80.15675781 108.66126953 -80.15675781 108.66126953 -80.5 109.53515625 C-82.20393724 112.46411346 -84.28206677 114.02887643 -86.9453125 116.1171875 C-91.18418553 119.48154928 -95.27331709 122.9331179 -99.26171875 126.58984375 C-100.8203125 127.8046875 -100.8203125 127.8046875 -102.8203125 127.8046875 C-103.1503125 128.7946875 -103.4803125 129.7846875 -103.8203125 130.8046875 C-104.8103125 130.8046875 -105.8003125 130.8046875 -106.8203125 130.8046875 C-107.0265625 131.35640625 -107.2328125 131.908125 -107.4453125 132.4765625 C-109.33243153 135.67179813 -111.97717651 137.74799226 -114.8203125 140.0546875 C-115.366875 140.51359375 -115.9134375 140.9725 -116.4765625 141.4453125 C-120.55580357 144.8046875 -120.55580357 144.8046875 -122.8203125 144.8046875 C-123.1503125 145.7946875 -123.4803125 146.7846875 -123.8203125 147.8046875 C-127.26475694 150.8046875 -127.26475694 150.8046875 -129.8203125 150.8046875 C-130.1503125 151.7946875 -130.4803125 152.7846875 -130.8203125 153.8046875 C-132.43190879 155.26375771 -134.11005918 156.65011371 -135.8203125 157.9921875 C-137.3053125 159.19101562 -137.3053125 159.19101562 -138.8203125 160.4140625 C-140.68300229 161.89839343 -142.55620725 163.36974954 -144.4453125 164.8203125 C-149.49620575 168.90754848 -151.68617735 171.90622178 -153.16796875 178.23046875 C-155.32226436 186.73155143 -160.39546527 193.93297281 -166.8203125 199.8046875 C-167.4803125 199.8046875 -168.1403125 199.8046875 -168.8203125 199.8046875 C-169.1503125 200.7946875 -169.4803125 201.7846875 -169.8203125 202.8046875 C-172.19140625 204.5234375 -172.19140625 204.5234375 -175.2578125 206.3046875 C-176.24652344 206.8925 -177.23523438 207.4803125 -178.25390625 208.0859375 C-186.31726535 211.97189369 -193.78044605 213.34076347 -202.6953125 213.2421875 C-203.65912842 213.23461426 -204.62294434 213.22704102 -205.6159668 213.21923828 C-217.12893307 212.95327818 -225.67234668 209.74967379 -234.8203125 202.8046875 C-236.33625 201.6909375 -236.33625 201.6909375 -237.8828125 200.5546875 C-238.5221875 199.9771875 -239.1615625 199.3996875 -239.8203125 198.8046875 C-239.8203125 198.1446875 -239.8203125 197.4846875 -239.8203125 196.8046875 C-240.8103125 196.4746875 -241.8003125 196.1446875 -242.8203125 195.8046875 C-244.57421875 193.51171875 -244.57421875 193.51171875 -246.3828125 190.6171875 C-246.98222656 189.67488281 -247.58164062 188.73257813 -248.19921875 187.76171875 C-249.8203125 184.8046875 -249.8203125 184.8046875 -251.8203125 178.8046875 C-275.5803125 178.8046875 -299.3403125 178.8046875 -323.8203125 178.8046875 C-324.8103125 181.7746875 -324.8103125 181.7746875 -325.8203125 184.8046875 C-326.90239088 186.77850276 -328.04966119 188.71792167 -329.2578125 190.6171875 C-330.15306641 192.04998047 -330.15306641 192.04998047 -331.06640625 193.51171875 C-332.8203125 195.8046875 -332.8203125 195.8046875 -335.8203125 196.8046875 C-336.1503125 197.7946875 -336.4803125 198.7846875 -336.8203125 199.8046875 C-342.34749035 205.23114229 -348.55488966 208.36747888 -355.8203125 210.8046875 C-356.68914062 211.16304687 -357.55796875 211.52140625 -358.453125 211.890625 C-363.16082921 213.16858647 -367.65075259 213.14135809 -372.5078125 213.1171875 C-373.98121094 213.12069214 -373.98121094 213.12069214 -375.484375 213.12426758 C-381.71097062 213.05966561 -386.85601782 212.17281913 -392.76171875 210.16015625 C-395.1725314 209.51680626 -395.1725314 209.51680626 -398.2578125 211.8046875 C-399.80490431 213.61591694 -401.33227301 215.44463814 -402.8203125 217.3046875 C-405.18074447 220.25522746 -407.92182987 222.38928531 -410.8203125 224.8046875 C-411.7484375 225.9803125 -411.7484375 225.9803125 -412.6953125 227.1796875 C-414.60396567 229.53743553 -416.4592417 231.28732822 -418.7578125 233.2421875 C-421.2316645 235.35156775 -423.22343619 237.28843593 -425.3203125 239.8046875 C-427.9449869 242.95429678 -430.78060009 245.42161726 -433.89453125 248.06640625 C-435.65963366 249.65965284 -437.14413472 251.26870844 -438.6328125 253.1171875 C-440.8203125 255.8046875 -440.8203125 255.8046875 -443.8203125 257.8046875 C-443.60955078 258.37646729 -443.39878906 258.94824707 -443.18164062 259.53735352 C-440.77225893 266.67408383 -440.30284602 273.24470124 -440.3203125 280.7421875 C-440.29195313 281.84498047 -440.26359375 282.94777344 -440.234375 284.08398438 C-440.21547553 292.09263284 -441.96896104 297.82075846 -445.8203125 304.8046875 C-446.39136719 305.88105469 -446.96242188 306.95742188 -447.55078125 308.06640625 C-448.03160156 308.86691406 -448.51242187 309.66742188 -449.0078125 310.4921875 C-449.49636719 311.32105469 -449.98492187 312.14992188 -450.48828125 313.00390625 C-450.92785156 313.59816406 -451.36742187 314.19242187 -451.8203125 314.8046875 C-452.4803125 314.8046875 -453.1403125 314.8046875 -453.8203125 314.8046875 C-454.1503125 315.7946875 -454.4803125 316.7846875 -454.8203125 317.8046875 C-465.09855492 328.08292992 -477.65756281 332.21591645 -491.8828125 332.2421875 C-505.95845832 332.22701215 -517.01254077 329.49020754 -527.8203125 319.8046875 C-527.8203125 319.1446875 -527.8203125 318.4846875 -527.8203125 317.8046875 C-528.4184375 317.54816406 -529.0165625 317.29164063 -529.6328125 317.02734375 C-537.00296475 312.90795508 -540.24430172 303.26627197 -542.90625 295.73046875 C-546.0720789 284.28348179 -545.60547243 268.21440429 -539.8203125 257.8046875 C-539.36140625 256.93972656 -538.9025 256.07476562 -538.4296875 255.18359375 C-532.80804882 245.22737577 -526.72208653 239.53965164 -516.8203125 233.8046875 C-515.8509375 233.2271875 -514.8815625 232.6496875 -513.8828125 232.0546875 C-502.91769412 227.57912898 -491.46874872 225.66439921 -480.15314388 229.77372837 C-475.15585853 231.47187403 -471.4919402 232.55683504 -466.5463562 230.33157349 C-463.30816288 227.71039795 -460.53204492 224.93368601 -457.72265625 221.87109375 C-456.67094175 220.79726543 -455.61516009 219.72740695 -454.55555725 218.66136169 C-452.35504079 216.42729842 -450.19093813 214.16499257 -448.05053711 211.87329102 C-445.30641195 208.93592481 -442.50809389 206.05867021 -439.68445492 203.19786167 C-436.98956797 200.46244858 -434.32410255 197.69908935 -431.66015625 194.93359375 C-431.15023573 194.40935884 -430.64031521 193.88512394 -430.11494255 193.34500313 C-428.67949014 191.85892022 -427.26663568 190.35456032 -425.85913086 188.84204102 C-425.05245468 187.98836441 -424.2457785 187.13468781 -423.41465759 186.25514221 C-421.55106397 183.9293576 -421.55106397 183.9293576 -422.0014801 181.22422791 C-422.27169479 180.42577957 -422.54190948 179.62733124 -422.8203125 178.8046875 C-427.29034045 163.02811828 -425.3540479 147.24267499 -418.1015625 132.66796875 C-416.8203125 130.8046875 -416.8203125 130.8046875 -413.8203125 129.8046875 C-413.6965625 129.2065625 -413.5728125 128.6084375 -413.4453125 127.9921875 C-412.53664351 124.81184602 -410.40645451 123.74429401 -407.8203125 121.8046875 C-407.4903125 121.1446875 -407.1603125 120.4846875 -406.8203125 119.8046875 C-405.8303125 119.8046875 -404.8403125 119.8046875 -403.8203125 119.8046875 C-403.8203125 119.1446875 -403.8203125 118.4846875 -403.8203125 117.8046875 C-390.0169836 109.72079349 -375.81872755 106.61993303 -359.8203125 109.8046875 C-349.19867086 112.93733757 -340.2449654 118.67104918 -332.8203125 126.8046875 C-331.8303125 127.7946875 -330.8403125 128.7846875 -329.8203125 129.8046875 C-327.8403125 133.7646875 -325.8603125 137.7246875 -323.8203125 141.8046875 C-300.0603125 141.8046875 -276.3003125 141.8046875 -251.8203125 141.8046875 C-249.8403125 137.8446875 -249.8403125 137.8446875 -247.8203125 133.8046875 C-245.88301343 129.93008936 -243.9207115 127.66486188 -240.8203125 124.8046875 C-240.13324219 124.15886719 -239.44617188 123.51304687 -238.73828125 122.84765625 C-226.52380537 111.63197908 -214.85264435 108.70102122 -198.3828125 108.83203125 C-188.22752917 109.32302962 -180.40896354 112.57681296 -171.8203125 117.8046875 C-171.8203125 118.4646875 -171.8203125 119.1246875 -171.8203125 119.8046875 C-170.985 120.1759375 -170.985 120.1759375 -170.1328125 120.5546875 C-166.63374623 122.44607467 -163.40166851 124.19477856 -162.0078125 128.0546875 C-161.915 128.9209375 -161.915 128.9209375 -161.8203125 129.8046875 C-159.83539608 129.53792546 -159.83539608 129.53792546 -157.8203125 128.8046875 C-157.4903125 127.8146875 -157.1603125 126.8246875 -156.8203125 125.8046875 C-153.37586806 122.8046875 -153.37586806 122.8046875 -150.8203125 122.8046875 C-150.4903125 121.8146875 -150.1603125 120.8246875 -149.8203125 119.8046875 C-148.14706617 118.28251793 -146.40707118 116.83281245 -144.6328125 115.4296875 C-143.64023437 114.63949219 -142.64765625 113.84929687 -141.625 113.03515625 C-140.23667969 111.93107422 -140.23667969 111.93107422 -138.8203125 110.8046875 C-137.62887059 109.78845764 -136.44032376 108.76879554 -135.2578125 107.7421875 C-132.8203125 105.8046875 -132.8203125 105.8046875 -130.8203125 105.8046875 C-130.4903125 104.8146875 -130.1603125 103.8246875 -129.8203125 102.8046875 C-129.1603125 102.8046875 -128.5003125 102.8046875 -127.8203125 102.8046875 C-127.8203125 102.1446875 -127.8203125 101.4846875 -127.8203125 100.8046875 C-125.73828125 98.89453125 -125.73828125 98.89453125 -123.0078125 96.7421875 C-122.11449219 96.02933594 -121.22117187 95.31648438 -120.30078125 94.58203125 C-117.8203125 92.8046875 -117.8203125 92.8046875 -114.8203125 91.8046875 C-114.8203125 91.1446875 -114.8203125 90.4846875 -114.8203125 89.8046875 C-112.82747112 88.4606782 -110.82611579 87.12927458 -108.8203125 85.8046875 C-107.14934478 84.14233302 -105.48340136 82.47492431 -103.8203125 80.8046875 C-101.54313542 78.76290246 -99.2151498 76.78303173 -96.8828125 74.8046875 C-96.28791016 74.29679687 -95.69300781 73.78890625 -95.08007812 73.265625 C-93.9022439 72.26156959 -92.72211603 71.26019768 -91.53955078 70.26171875 C-90.39049974 69.28791349 -89.2482268 68.30605518 -88.11279297 67.31640625 C-84.03845731 63.8046875 -84.03845731 63.8046875 -81.8203125 63.8046875 C-82.13224714 62.07541876 -82.44488612 60.34627706 -82.7578125 58.6171875 C-82.93183594 57.65425781 -83.10585938 56.69132812 -83.28515625 55.69921875 C-83.62020855 53.88700158 -83.97742842 52.07858748 -84.3671875 50.27734375 C-86.84922816 36.73310462 -83.04334757 23.01948997 -75.8046875 11.52734375 C-67.60319776 0.27451235 -56.55496928 -7.36808682 -42.75 -9.84375 C-27.45152704 -11.67956676 -12.38664133 -9.64167926 0 0 Z M-46.8203125 34.6171875 C-48.57717306 40.21718055 -48.8968436 45.36510737 -46.1328125 50.6796875 C-42.75045997 55.25043416 -39.96670889 56.77976551 -34.4453125 57.6796875 C-29.05389331 58.09097321 -25.38922877 56.75410847 -21.0546875 53.46484375 C-17.3571996 49.93149667 -16.34435995 46.89687148 -16.0703125 41.8046875 C-16.33561808 36.63446404 -17.44560953 33.70847406 -21.1875 30.140625 C-21.72632813 29.69976562 -22.26515625 29.25890625 -22.8203125 28.8046875 C-23.5834375 28.1653125 -24.3465625 27.5259375 -25.1328125 26.8671875 C-34.35929948 23.2195066 -41.30354707 26.85923612 -46.8203125 34.6171875 Z M-387.8203125 153.8046875 C-389.43747716 158.65618147 -390.03957347 163.36194667 -387.69140625 168.06640625 C-384.70127741 172.29006083 -381.85713235 175.19290515 -376.8203125 176.8046875 C-372.11712774 177.37055391 -368.09640339 176.94273295 -363.8203125 174.8046875 C-363.8203125 174.1446875 -363.8203125 173.4846875 -363.8203125 172.8046875 C-362.8303125 172.4746875 -361.8403125 172.1446875 -360.8203125 171.8046875 C-357.81490662 168.91487416 -357.18141482 165.92426738 -356.82421875 161.8203125 C-356.81533012 157.23378114 -358.45815696 154.33239986 -361.0078125 150.6171875 C-364.70344113 146.92155887 -368.18516496 145.26583832 -373.3203125 144.3671875 C-379.37262122 145.42634153 -383.88458264 149.29017384 -387.8203125 153.8046875 Z M-215.7578125 151.6171875 C-218.88394712 156.44848646 -219.20830897 159.89703817 -218.0703125 165.4921875 C-216.94715779 168.46854749 -216.01226794 170.52140059 -213.8203125 172.8046875 C-213.1603125 172.8046875 -212.5003125 172.8046875 -211.8203125 172.8046875 C-211.8203125 173.4646875 -211.8203125 174.1246875 -211.8203125 174.8046875 C-206.4159137 177.5068869 -201.3383764 177.61046795 -195.6953125 175.8046875 C-191.21507891 172.68800326 -187.48350618 168.99664407 -186.33984375 163.4921875 C-186.1668523 158.61547615 -186.96671608 154.85495339 -189.8203125 150.8046875 C-193.57516548 147.13923578 -197.49137824 144.95741766 -202.7734375 144.609375 C-207.98924708 145.10706675 -212.23247074 147.84871873 -215.7578125 151.6171875 Z M-505.6953125 270.8046875 C-508.08432017 275.05181225 -508.0749202 278.96714124 -507.8203125 283.8046875 C-506.2554448 289.28172443 -503.50565064 292.83237703 -498.5703125 295.6796875 C-493.04350278 297.33773042 -489.11869956 296.90599797 -483.8203125 294.3671875 C-483.1603125 293.8515625 -482.5003125 293.3359375 -481.8203125 292.8046875 C-481.8203125 292.1446875 -481.8203125 291.4846875 -481.8203125 290.8046875 C-480.8303125 290.4746875 -479.8403125 290.1446875 -478.8203125 289.8046875 C-475.76153744 285.43500885 -475.45313214 282.0789281 -476.2421875 276.984375 C-477.55805885 272.02318437 -480.49563314 268.45529743 -484.8203125 265.8046875 C-492.86800854 263.12212215 -499.81335498 264.53059948 -505.6953125 270.8046875 Z " fill="#074CA6" transform="translate(543.8203125,96.1953125)"/>
<path d="M0 0 C67.98 0 135.96 0 206 0 C206 11.88 206 23.76 206 36 C138.02 36 70.04 36 0 36 C0 24.12 0 12.24 0 0 Z " fill="#074CA6" transform="translate(187,699)"/>
<path d="M0 0 C1.90119803 0.00138269 1.90119803 0.00138269 3.8408041 0.00279331 C4.89564225 0.00151167 4.89564225 0.00151167 5.97179025 0.00020415 C8.34566959 -0.0014527 10.71947941 0.00407402 13.09335232 0.00952244 C14.78805954 0.00980429 16.48276688 0.00964661 18.17747402 0.00907993 C22.79298069 0.00879189 27.4084616 0.01468974 32.02396226 0.02165389 C36.84196707 0.02788627 41.6599724 0.02849113 46.47798061 0.0296793 C55.6081894 0.03279296 64.73838628 0.04100681 73.86858982 0.05102879 C84.26019119 0.06218885 94.65179311 0.06770011 105.04339898 0.07272422 C126.42586226 0.0831894 147.80830921 0.10153531 169.19076443 0.12304783 C169.19076443 12.33304783 169.19076443 24.54304783 169.19076443 37.12304783 C146.7820197 37.14559288 124.37328412 37.16402585 101.96453094 37.17486 C91.56052718 37.18002346 81.15653094 37.18706709 70.75253201 37.19848728 C61.68786169 37.20843261 52.62319683 37.21490089 43.55852121 37.21713632 C38.75573835 37.21844369 33.95297109 37.22153116 29.15019321 37.22877789 C24.63509643 37.23553572 20.12002175 37.23766528 15.60492039 37.23615551 C13.94279263 37.23643195 12.28066417 37.23843847 10.61854076 37.2422533 C8.35926751 37.24718687 6.10007909 37.24604738 3.8408041 37.24330235 C2.57333875 37.24422414 1.30587339 37.24514593 0 37.24609566 C-2.80923557 37.12304783 -2.80923557 37.12304783 -3.80923557 36.12304783 C-3.91015033 33.54115337 -3.94895056 30.98658283 -3.94204807 28.40429783 C-3.9430048 27.63122288 -3.94396152 26.85814793 -3.94494724 26.06164646 C-3.94562898 24.42407239 -3.94377514 22.78649564 -3.93960667 21.14892673 C-3.93425828 18.63372862 -3.93955184 16.1187091 -3.94595432 13.60351658 C-3.94529354 12.0162766 -3.94401238 10.42903673 -3.94204807 8.84179783 C-3.9440723 8.08451389 -3.94609653 7.32722996 -3.94818211 6.54699802 C-3.91936739 0.17167291 -3.91936739 0.17167291 0 0 Z " fill="#074CA6" transform="translate(87.80923557281494,783.8769521713257)"/>
<path d="M0 0 C34.32 0 68.64 0 104 0 C104 12.21 104 24.42 104 37 C69.68 37 35.36 37 0 37 C0 24.79 0 12.58 0 0 Z " fill="#074CA6" transform="translate(187,869)"/>
<path d="M0 0 C34.32 0 68.64 0 104 0 C104 12.21 104 24.42 104 37 C69.68 37 35.36 37 0 37 C0 24.79 0 12.58 0 0 Z " fill="#074CA6" transform="translate(289,784)"/>
<path d="M0 0 C1.14901495 0.00138269 1.14901495 0.00138269 2.32124233 0.00279331 C3.19768902 0.00141865 4.0741357 0.00004398 4.97714138 -0.00137234 C6.43046368 0.00402058 6.43046368 0.00402058 7.91314602 0.00952244 C8.92766338 0.00937641 9.94218075 0.00923038 10.98744106 0.00907993 C14.35844936 0.00977954 17.72940317 0.01757414 21.10040188 0.02539158 C23.43067806 0.02725559 25.76095463 0.02867957 28.09123135 0.0296793 C34.23811828 0.03350581 40.38498176 0.04333723 46.5318594 0.05438328 C52.79884429 0.06459454 59.06583295 0.06917631 65.33282375 0.0742197 C77.63947637 0.08495938 89.94610538 0.10255725 102.25274563 0.12304783 C102.25274563 12.00304783 102.25274563 23.88304783 102.25274563 36.12304783 C88.71010088 36.14559635 75.1674685 36.16396146 61.62480927 36.17486 C55.33712539 36.18008945 49.04945496 36.18718822 42.76177883 36.19848728 C36.69936839 36.20931397 30.63697094 36.2153242 24.57455158 36.21792507 C22.25598286 36.21977972 19.93741489 36.22340108 17.61885166 36.22877789 C14.38360055 36.23598541 11.1484038 36.23703889 7.91314602 36.23657322 C6.94426449 36.2401685 5.97538296 36.24376377 4.97714138 36.24746799 C4.10069469 36.24609333 3.22424801 36.24471867 2.32124233 36.24330235 C1.55523236 36.24422414 0.78922239 36.24514593 0 36.24609566 C-1.74725437 36.12304783 -1.74725437 36.12304783 -2.74725437 35.12304783 C-2.84812649 32.61380629 -2.88697469 30.13268399 -2.88006687 27.62304783 C-2.8810236 26.87216892 -2.88198032 26.12129002 -2.88296604 25.3476572 C-2.88364775 23.75716156 -2.88179409 22.16666315 -2.87762547 20.57617283 C-2.87227704 18.13340128 -2.87757071 15.69081362 -2.88397312 13.24804783 C-2.88331234 11.70638075 -2.88203117 10.16471379 -2.88006687 8.62304783 C-2.8820911 7.88763767 -2.88411533 7.15222752 -2.8862009 6.3945322 C-2.85738156 0.20122691 -2.85738156 0.20122691 0 0 Z " fill="#074CA6" transform="translate(86.74725437164307,613.8769521713257)"/>
<path d="M0 0 C28.71 0 57.42 0 87 0 C87 11.88 87 23.76 87 36 C58.29 36 29.58 36 0 36 C0 24.12 0 12.24 0 0 Z " fill="#074CA6" transform="translate(221,614)"/>
<path d="M0 0 C1.24132187 0.00222061 2.48264374 0.00444122 3.76158142 0.00672913 C4.44447739 0.0065831 5.12737335 0.00643707 5.83096313 0.00628662 C8.09815092 0.00698575 10.36525752 0.01477811 12.63243103 0.02259827 C14.20041865 0.02446245 15.76840685 0.02588635 17.33639526 0.02688599 C21.47103981 0.03071117 25.60564944 0.04054146 29.74028015 0.05158997 C34.69703195 0.0635987 39.65379539 0.06820632 44.61055756 0.07404327 C52.14782094 0.08375322 59.68500766 0.10290974 67.22227478 0.12025452 C67.22227478 12.33025452 67.22227478 24.54025452 67.22227478 37.12025452 C49.79276886 37.16036333 49.79276886 37.16036333 42.38829041 37.16908264 C37.32716327 37.17507062 32.26605414 37.18216973 27.2049408 37.19569397 C23.12658935 37.20652443 19.04825721 37.21253169 14.9698925 37.21513176 C13.41049839 37.21698572 11.85110538 37.22060579 10.29171944 37.22598457 C8.11498316 37.23319713 5.93832764 37.23424537 3.76158142 37.23377991 C1.89959862 37.23711082 1.89959862 37.23711082 0 37.24050903 C-2.77772522 37.12025452 -2.77772522 37.12025452 -3.77772522 36.12025452 C-3.87863997 33.53836006 -3.91744021 30.98378951 -3.91053772 28.40150452 C-3.91149445 27.62842957 -3.91245117 26.85535461 -3.91343689 26.05885315 C-3.91411863 24.42127908 -3.91226479 22.78370233 -3.90809631 21.14613342 C-3.90274793 18.63093531 -3.90804148 16.11591578 -3.91444397 13.60072327 C-3.91378319 12.01348329 -3.91250202 10.42624342 -3.91053772 8.83900452 C-3.91256195 8.08172058 -3.91458618 7.32443665 -3.91667175 6.54420471 C-3.88785448 0.16831473 -3.88785448 0.16831473 0 0 Z " fill="#074CA6" transform="translate(87.77772521972656,868.8797454833984)"/>
<path d="M0 0 C1.24132187 0.00222061 2.48264374 0.00444122 3.76158142 0.00672913 C4.44447739 0.0065831 5.12737335 0.00643707 5.83096313 0.00628662 C8.09815092 0.00698575 10.36525752 0.01477811 12.63243103 0.02259827 C14.20041865 0.02446245 15.76840685 0.02588635 17.33639526 0.02688599 C21.47103981 0.03071117 25.60564944 0.04054146 29.74028015 0.05158997 C34.69703195 0.0635987 39.65379539 0.06820632 44.61055756 0.07404327 C52.14782094 0.08375322 59.68500766 0.10290974 67.22227478 0.12025452 C67.22227478 12.00025452 67.22227478 23.88025452 67.22227478 36.12025452 C43.79227478 36.12025452 20.36227478 36.12025452 -3.77772522 36.12025452 C-3.77772522 0.16354696 -3.77772522 0.16354696 0 0 Z " fill="#074CA6" transform="translate(87.77772521972656,698.8797454833984)"/>
<path d="M0 0 C17.49 0 34.98 0 53 0 C53 11.88 53 23.76 53 36 C35.51 36 18.02 36 0 36 C0 24.12 0 12.24 0 0 Z " fill="#074CA6" transform="translate(340,614)"/>
<path d="M0 0 C17.49 0 34.98 0 53 0 C53 11.88 53 23.76 53 36 C35.51 36 18.02 36 0 36 C0 24.12 0 12.24 0 0 Z " fill="#074CA6" transform="translate(221,529)"/>
</svg>
