<?xml version="1.0" encoding="UTF-8"?>
<svg version="1.1" xmlns="http://www.w3.org/2000/svg" width="1024" height="1024">
<path d="M0 0 C0.96618988 -0.00679667 0.96618988 -0.00679667 1.95189875 -0.01373065 C4.09037777 -0.02629745 6.22859957 -0.02475935 8.36711121 -0.02310181 C9.90855229 -0.0290919 11.44999037 -0.03589855 12.99142456 -0.04345703 C17.16511825 -0.06107534 21.33872985 -0.06581065 25.51245713 -0.0670886 C28.12389042 -0.06851313 30.73530304 -0.07278844 33.34673119 -0.07808304 C42.46812127 -0.09656956 51.58945301 -0.10475538 60.71086121 -0.10317993 C69.19568673 -0.10197892 77.68025772 -0.12307682 86.16501886 -0.15466726 C93.46463104 -0.18087074 100.76416029 -0.19154552 108.06381911 -0.19026911 C112.41694359 -0.18976067 116.76984171 -0.19537822 121.12291908 -0.21662521 C125.21967672 -0.23607646 129.31599367 -0.23608546 133.41276741 -0.22159195 C134.90987039 -0.21951125 136.40700145 -0.22416041 137.90405655 -0.23631287 C148.34794677 -0.31555072 157.38676662 0.73851058 165.85221863 7.39242554 C166.50448425 7.89000366 167.15674988 8.38758179 167.82878113 8.90023804 C168.2902655 9.35140991 168.75174988 9.80258179 169.22721863 10.26742554 C169.22721863 10.92742554 169.22721863 11.58742554 169.22721863 12.26742554 C169.88721863 12.26742554 170.54721863 12.26742554 171.22721863 12.26742554 C178.84859316 21.05642012 181.26734348 32.17316504 181.43254089 43.54818726 C181.45248611 44.76899994 181.47243134 45.98981262 181.49298096 47.24761963 C181.50969345 48.55095245 181.52640594 49.85428528 181.54362488 51.19711304 C181.56422105 52.55617873 181.58521818 53.9152384 181.6065979 55.27429199 C181.66154376 58.83504328 181.71107309 62.39584971 181.75944519 65.95669556 C181.80986215 69.59677992 181.86544233 73.23678513 181.920578 76.87680054 C182.02782286 84.00694007 182.12934124 91.13715075 182.22721863 98.26742554 C182.81853073 98.4341275 183.40984283 98.60082947 184.01907349 98.77258301 C186.74402079 99.54213285 189.46804137 100.31491601 192.19206238 101.08773804 C193.12191956 101.34982056 194.05177673 101.61190308 195.0098114 101.88192749 C214.26232217 107.35373808 233.15160193 114.68492239 251.22721863 123.26742554 C252.88593766 124.03985121 254.54480773 124.81195259 256.20378113 125.58383179 C273.06510534 133.47303417 273.06510534 133.47303417 280.34049988 138.08383179 C282.88548001 139.68037212 285.51413821 140.98228218 288.22721863 142.26742554 C288.22721863 141.60742554 288.22721863 140.94742554 288.22721863 140.26742554 C289.80143738 138.75180054 289.80143738 138.75180054 291.91471863 137.01742554 C294.58070996 134.76666825 296.93731954 132.56693009 299.10221863 129.82992554 C299.80346863 128.98430054 300.50471863 128.13867554 301.22721863 127.26742554 C301.88721863 127.26742554 302.54721863 127.26742554 303.22721863 127.26742554 C303.22721863 126.60742554 303.22721863 125.94742554 303.22721863 125.26742554 C304.60221863 123.64242554 304.60221863 123.64242554 306.22721863 122.26742554 C306.88721863 122.26742554 307.54721863 122.26742554 308.22721863 122.26742554 C308.22721863 121.60742554 308.22721863 120.94742554 308.22721863 120.26742554 C309.61784363 118.93539429 309.61784363 118.93539429 311.47721863 117.45492554 C314.49490154 114.97371959 316.79517687 112.32999664 319.22721863 109.26742554 C319.88721863 109.26742554 320.54721863 109.26742554 321.22721863 109.26742554 C321.22721863 108.60742554 321.22721863 107.94742554 321.22721863 107.26742554 C322.60221863 105.64242554 322.60221863 105.64242554 324.22721863 104.26742554 C324.88721863 104.26742554 325.54721863 104.26742554 326.22721863 104.26742554 C326.22721863 103.60742554 326.22721863 102.94742554 326.22721863 102.26742554 C332.38359398 96.09769579 338.95319028 92.7042026 347.22721863 90.26742554 C348.71221863 89.77242554 348.71221863 89.77242554 350.22721863 89.26742554 C364.47409453 88.30404771 375.75528076 91.03838345 386.74349213 100.41454315 C389.42360552 102.94695544 392.03482163 105.53431368 394.63053894 108.15316772 C395.62637159 109.14356666 396.62305016 110.13311564 397.62049866 111.12188721 C400.30312563 113.78642633 402.97312197 116.4632841 405.64033604 119.14324093 C408.44751564 121.96062415 411.26452944 124.76814838 414.0799408 127.57730103 C418.80421422 132.29431933 423.52004221 137.01965747 428.23112488 141.74984741 C433.6598261 147.20031316 439.10278604 152.63622022 444.55337453 158.06479144 C449.25233915 162.745541 453.94338513 167.43411946 458.62802958 172.12920117 C461.41742189 174.92479494 464.20936366 177.71769876 467.00850677 180.50353241 C469.64101458 183.12439303 472.26337009 185.75502325 474.87855911 188.39316177 C476.28533563 189.80765641 477.7018428 191.21245318 479.11872864 192.61682129 C489.89019859 203.53088383 494.5570477 213.10918415 494.46427917 228.40023804 C494.23029682 239.05081454 490.73279002 246.92694939 484.22721863 255.26742554 C483.56721863 255.26742554 482.90721863 255.26742554 482.22721863 255.26742554 C481.95909363 255.90680054 481.69096863 256.54617554 481.41471863 257.20492554 C480.22721863 259.26742554 480.22721863 259.26742554 477.22721863 260.26742554 C476.89721863 260.92742554 476.56721863 261.58742554 476.22721863 262.26742554 C475.89721863 262.92742554 475.56721863 263.58742554 475.22721863 264.26742554 C474.23721863 264.59742554 473.24721863 264.92742554 472.22721863 265.26742554 C471.89721863 266.25742554 471.56721863 267.24742554 471.22721863 268.26742554 C470.56721863 268.26742554 469.90721863 268.26742554 469.22721863 268.26742554 C469.22721863 268.92742554 469.22721863 269.58742554 469.22721863 270.26742554 C468.56721863 270.26742554 467.90721863 270.26742554 467.22721863 270.26742554 C466.89721863 271.25742554 466.56721863 272.24742554 466.22721863 273.26742554 C465.56721863 273.26742554 464.90721863 273.26742554 464.22721863 273.26742554 C464.22721863 273.92742554 464.22721863 274.58742554 464.22721863 275.26742554 C463.56721863 275.26742554 462.90721863 275.26742554 462.22721863 275.26742554 C461.89721863 276.25742554 461.56721863 277.24742554 461.22721863 278.26742554 C460.56721863 278.26742554 459.90721863 278.26742554 459.22721863 278.26742554 C458.95909363 278.90680054 458.69096863 279.54617554 458.41471863 280.20492554 C457.22721863 282.26742554 457.22721863 282.26742554 454.22721863 283.26742554 C453.89721863 284.25742554 453.56721863 285.24742554 453.22721863 286.26742554 C452.56721863 286.26742554 451.90721863 286.26742554 451.22721863 286.26742554 C451.22721863 286.92742554 451.22721863 287.58742554 451.22721863 288.26742554 C450.56721863 288.26742554 449.90721863 288.26742554 449.22721863 288.26742554 C448.89721863 289.25742554 448.56721863 290.24742554 448.22721863 291.26742554 C447.56721863 291.26742554 446.90721863 291.26742554 446.22721863 291.26742554 C446.22721863 291.92742554 446.22721863 292.58742554 446.22721863 293.26742554 C445.56721863 293.26742554 444.90721863 293.26742554 444.22721863 293.26742554 C442.87495627 294.89765333 442.87495627 294.89765333 442.22721863 297.26742554 C443.45161696 300.28266538 443.45161696 300.28266538 445.53971863 303.45492554 C446.29496114 304.70333324 447.04744926 305.95341036 447.79753113 307.20492554 C448.19617371 307.86363647 448.59481628 308.52234741 449.00553894 309.20101929 C456.17284374 321.32413436 462.57450819 334.03784758 467.13737488 347.36898804 C468.01690331 349.70809233 468.98001338 351.90816023 470.03190613 354.16976929 C472.66597529 360.03110607 474.63583813 366.11579093 476.63664246 372.21444702 C477.28783097 374.19917225 477.94539394 376.18169234 478.60417175 378.16390991 C479.82905507 381.85957205 481.03293034 385.56174933 482.22721863 389.26742554 C482.54932312 390.26661011 482.87142761 391.26579468 483.20329285 392.29525757 C483.47802429 393.17423706 483.75275574 394.05321655 484.03581238 394.95883179 C484.26969666 395.70463501 484.50358093 396.45043823 484.74455261 397.21884155 C485.22721863 399.26742554 485.22721863 399.26742554 485.22721863 403.26742554 C486.03186554 403.2607637 486.83651245 403.25410187 487.6655426 403.24723816 C495.28537213 403.18687955 502.90508412 403.14132624 510.52509117 403.11198902 C514.44169267 403.09639892 518.358095 403.07528407 522.27458191 403.04110718 C526.06121883 403.00827393 529.84766535 402.9905226 533.63443375 402.98279381 C535.07198199 402.97729294 536.50952099 402.96655225 537.94698715 402.95023537 C548.84102476 402.831605 558.05697847 403.69930418 567.35221863 409.82992554 C568.28292175 410.4293396 569.21362488 411.02875366 570.17253113 411.64633179 C570.850578 412.18129272 571.52862488 412.71625366 572.22721863 413.26742554 C572.22721863 413.92742554 572.22721863 414.58742554 572.22721863 415.26742554 C573.21721863 415.59742554 574.20721863 415.92742554 575.22721863 416.26742554 C583.84575142 426.21188645 584.82284337 437.90186813 584.74479675 450.59188843 C584.75023028 452.0930397 584.75735978 453.59418563 584.76603699 455.09532166 C584.78412584 459.13667851 584.77726371 463.1776226 584.76452065 467.2189858 C584.75431929 471.46857686 584.7638058 475.71813505 584.77006531 479.96772766 C584.77732031 487.09999876 584.76780986 494.23210358 584.748703 501.36434937 C584.72692998 509.58628723 584.73399732 517.80782831 584.75600863 526.02975661 C584.77421413 533.11634573 584.77669613 540.20281605 584.76625395 547.28942102 C584.76004829 551.5100154 584.75910222 555.73042383 584.7723999 559.95100594 C584.78403353 563.91983754 584.77579731 567.88816197 584.75282288 571.85693932 C584.74757592 573.30523465 584.74897996 574.75357336 584.75787354 576.20185089 C584.82701653 588.61458287 582.83937253 598.93929685 574.22721863 608.26742554 C571.98957153 610.40314078 569.67265784 612.37472259 567.22721863 614.26742554 C566.59944519 614.7843396 565.97167175 615.30125366 565.32487488 615.83383179 C563.00473717 617.41947525 560.98923464 618.13539639 558.28971863 618.89242554 C557.03868347 619.25207397 557.03868347 619.25207397 555.76237488 619.61898804 C551.03730823 620.8275567 546.76894061 621.39075564 541.87638855 621.38095093 C540.61545883 621.3808754 539.35452911 621.38079987 538.0553894 621.38072205 C536.68948832 621.37561622 535.32358765 621.37040024 533.95768738 621.36508179 C532.5523585 621.36321524 531.14702898 621.36179245 529.74169922 621.36079407 C526.05427738 621.35698754 522.36689533 621.34717327 518.67948914 621.33609009 C514.91220131 621.32583579 511.14490703 621.32128785 507.37760925 621.31625366 C499.99412763 621.30554924 492.61067872 621.28849534 485.22721863 621.26742554 C485.02438766 622.18682671 485.02438766 622.18682671 484.81745911 623.12480164 C484.63895416 623.93152817 484.46044922 624.7382547 484.27653503 625.56942749 C484.10006439 626.3679866 483.92359375 627.16654572 483.74177551 627.98930359 C479.06581502 648.69140389 471.14941519 670.13263877 461.36393738 688.96273804 C460.23189255 691.25794919 459.31382382 693.55992918 458.41471863 695.95492554 C454.67978791 705.5807226 449.27053752 714.65442374 444.03971863 723.53305054 C443.0151062 725.40099433 443.0151062 725.40099433 443.22721863 728.26742554 C444.85839437 730.32402797 444.85839437 730.32402797 447.08268738 732.43173218 C447.92355896 733.26592178 448.76443054 734.10011139 449.63078308 734.95957947 C450.54948181 735.85652023 451.46818054 736.753461 452.41471863 737.67758179 C453.83873012 739.08786358 455.26273651 740.49815057 456.68643188 741.90875149 C458.68543199 743.88586883 460.69103712 745.85621728 462.69682312 747.82644653 C466.20880088 751.27665584 469.71618288 754.73147566 473.21476746 758.19526672 C475.07938677 760.03999459 476.94892857 761.87976181 478.82365417 763.71421814 C479.66452576 764.54525558 480.50539734 765.37629303 481.37174988 766.23251343 C482.11787537 766.96514908 482.86400085 767.69778473 483.63273621 768.45262146 C485.22721863 770.26742554 485.22721863 770.26742554 485.22721863 772.26742554 C485.88721863 772.26742554 486.54721863 772.26742554 487.22721863 772.26742554 C488.21391622 774.15935028 489.19127883 776.05614531 490.16471863 777.95492554 C490.70999207 779.01066772 491.2552655 780.06640991 491.81706238 781.15414429 C495.63245919 789.57761039 495.82257471 802.29175884 493.10221863 811.20492554 C492.26237488 813.22445679 492.26237488 813.22445679 491.22721863 815.26742554 C490.81342957 816.09629272 490.3996405 816.92515991 489.97331238 817.77914429 C487.04497828 823.11717021 483.81680803 826.87168969 479.09831238 830.68930054 C476.99086472 832.37364563 476.99086472 832.37364563 474.72721863 835.26742554 C472.09522253 838.42582085 469.26252042 840.94613132 466.14518738 843.60726929 C463.71419766 845.71148645 461.46953887 847.96450205 459.22721863 850.26742554 C458.40221863 851.07180054 457.57721863 851.87617554 456.72721863 852.70492554 C454.17176 855.24265506 454.17176 855.24265506 451.91471863 858.14242554 C449.30495688 861.34494074 446.27741329 863.93144755 443.14518738 866.61117554 C439.7436677 869.54853672 436.73066442 872.64151996 433.91471863 876.14242554 C431.41567041 879.21335626 428.54695579 881.66763999 425.48503113 884.16586304 C423.61672497 885.90487465 422.04124915 887.6185899 420.39518738 889.55648804 C415.04731954 895.75229321 409.20343163 901.47722774 403.41886902 907.26107788 C401.39701761 909.28514596 399.38333536 911.31712288 397.36979675 913.34945679 C396.08708203 914.63510051 394.80389621 915.92027442 393.52018738 917.20492554 C392.91812973 917.8141687 392.31607208 918.42341187 391.69577026 919.05111694 C387.4560794 923.26742554 387.4560794 923.26742554 385.22721863 923.26742554 C385.22721863 923.92742554 385.22721863 924.58742554 385.22721863 925.26742554 C375.12179245 933.31051984 364.02917405 936.21312028 351.22331238 934.81430054 C344.43306912 933.57488195 337.94184181 931.17258842 332.22721863 927.26742554 C332.22721863 926.60742554 332.22721863 925.94742554 332.22721863 925.26742554 C331.65421021 925.01973419 331.08120178 924.77204285 330.49082947 924.5168457 C327.87208049 923.07140388 326.11809699 921.39837105 324.00944519 919.27670288 C323.18889648 918.45600311 322.36834778 917.63530334 321.52293396 916.78973389 C320.64675415 915.90323151 319.77057434 915.01672913 318.86784363 914.10336304 C317.51127655 912.74255112 317.51127655 912.74255112 316.12730408 911.35424805 C313.72925405 908.94858134 311.33727245 906.53696818 308.94651794 904.12405396 C306.50336692 901.6604021 304.05450656 899.20243977 301.60612488 896.74398804 C296.80788075 891.92368981 292.01539131 887.0977271 287.22721863 882.26742554 C286.27927429 882.77966675 285.33132996 883.29190796 284.35466003 883.81967163 C276.52223521 888.03530234 268.649769 892.09842956 260.60221863 895.89242554 C259.60424255 896.36478638 258.60626648 896.83714722 257.57804871 897.32382202 C255.63419064 898.24291246 253.68964977 899.1605607 251.74430847 900.07650757 C249.74883287 901.02063269 247.76184227 901.98268852 245.77799988 902.95101929 C230.9603295 910.08695059 215.19978751 916.29053482 199.28581238 920.46273804 C194.7324287 921.66069083 190.26136665 923.11025665 185.77409363 924.53305054 C183.22721863 925.26742554 183.22721863 925.26742554 181.22721863 925.26742554 C181.23165985 926.01973953 181.23610107 926.77205353 181.24067688 927.54716492 C181.28096219 934.68106053 181.31130811 941.8149 181.33084297 948.9488802 C181.34122405 952.61541459 181.35527776 956.28185399 181.37809753 959.94833374 C181.40003066 963.4950623 181.41182978 967.04170023 181.41697311 970.58849144 C181.42239799 972.58178576 181.43797715 974.57504427 181.45381165 976.56828308 C181.45561582 991.38337767 179.29654763 1003.1772475 168.52799988 1013.97055054 C160.92961299 1020.73226112 152.91573296 1024.50396876 142.57505798 1024.53485107 C141.27713821 1024.54338104 139.97921844 1024.55191101 138.64196777 1024.56069946 C137.22084033 1024.56000057 135.79971298 1024.55907758 134.37858582 1024.55795288 C132.86832346 1024.56394328 131.35806416 1024.57075 129.84780884 1024.57830811 C125.75875571 1024.59592486 121.66978638 1024.6006617 117.58069897 1024.60193968 C115.02152074 1024.60336447 112.46236359 1024.60764031 109.90319061 1024.61293411 C100.96219539 1024.63142121 92.02125967 1024.63960652 83.08024597 1024.63803101 C74.76698532 1024.63683048 66.45398465 1024.65791873 58.14078975 1024.68951833 C50.98638343 1024.71573685 43.83206172 1024.72639595 36.67760777 1024.72512019 C32.4121989 1024.72461212 28.14702116 1024.73020856 23.88166046 1024.75147629 C19.86615378 1024.77095262 15.85109645 1024.77091966 11.8355732 1024.75644302 C10.36952871 1024.7543653 8.90345539 1024.75899345 7.43745995 1024.77116394 C-4.56547846 1024.86428334 -13.80930989 1023.0608123 -23.40950012 1015.63461304 C-24.77278137 1014.26742554 -24.77278137 1014.26742554 -24.77278137 1012.26742554 C-25.76278137 1011.93742554 -26.75278137 1011.60742554 -27.77278137 1011.26742554 C-36.68828709 1001.20890627 -37.35998722 988.40157505 -37.16340637 975.56039429 C-37.15592283 974.09924606 -37.15023993 972.63808762 -37.14625549 971.17692566 C-37.1311648 967.37755388 -37.09203236 963.5788183 -37.04743958 959.7796936 C-37.00612339 955.88441569 -36.98816785 951.98903245 -36.96809387 948.09359741 C-36.92551668 940.48458706 -36.8574742 932.87609627 -36.77278137 925.26742554 C-37.64741028 925.07334106 -38.52203918 924.87925659 -39.423172 924.67929077 C-41.15857239 924.28785889 -41.15857239 924.28785889 -42.92903137 923.88851929 C-44.07178528 923.63255981 -45.21453918 923.37660034 -46.391922 923.11288452 C-50.38885443 922.11336278 -54.15346225 920.75870345 -57.99543762 919.28695679 C-60.87304723 918.23061908 -63.76591223 917.36885458 -66.71028137 916.51742554 C-75.19187196 913.95675439 -83.33455253 910.55511804 -91.52131653 907.18978882 C-93.39609279 906.4217445 -95.27706123 905.66883666 -97.15950012 904.91976929 C-109.18926815 900.07832104 -120.61240837 893.90681027 -132.08528137 887.89242554 C-132.90391663 887.46357056 -133.72255188 887.03471558 -134.56599426 886.59286499 C-135.7144281 885.9870459 -135.7144281 885.9870459 -136.88606262 885.36898804 C-137.56451233 885.01143433 -138.24296204 884.65388062 -138.94197083 884.28549194 C-140.60136524 883.36274562 -142.19296991 882.32063318 -143.77278137 881.26742554 C-144.10278137 882.25742554 -144.43278137 883.24742554 -144.77278137 884.26742554 C-145.43278137 884.26742554 -146.09278137 884.26742554 -146.77278137 884.26742554 C-146.77278137 884.92742554 -146.77278137 885.58742554 -146.77278137 886.26742554 C-147.43278137 886.26742554 -148.09278137 886.26742554 -148.77278137 886.26742554 C-149.10278137 887.25742554 -149.43278137 888.24742554 -149.77278137 889.26742554 C-150.43278137 889.26742554 -151.09278137 889.26742554 -151.77278137 889.26742554 C-151.77278137 889.92742554 -151.77278137 890.58742554 -151.77278137 891.26742554 C-152.43278137 891.26742554 -153.09278137 891.26742554 -153.77278137 891.26742554 C-154.10278137 892.25742554 -154.43278137 893.24742554 -154.77278137 894.26742554 C-155.43278137 894.26742554 -156.09278137 894.26742554 -156.77278137 894.26742554 C-157.17496887 895.22648804 -157.17496887 895.22648804 -157.58528137 896.20492554 C-158.77278137 898.26742554 -158.77278137 898.26742554 -161.77278137 899.26742554 C-162.10278137 900.25742554 -162.43278137 901.24742554 -162.77278137 902.26742554 C-163.43278137 902.26742554 -164.09278137 902.26742554 -164.77278137 902.26742554 C-164.77278137 902.92742554 -164.77278137 903.58742554 -164.77278137 904.26742554 C-165.43278137 904.26742554 -166.09278137 904.26742554 -166.77278137 904.26742554 C-167.10278137 905.25742554 -167.43278137 906.24742554 -167.77278137 907.26742554 C-168.43278137 907.26742554 -169.09278137 907.26742554 -169.77278137 907.26742554 C-169.77278137 907.92742554 -169.77278137 908.58742554 -169.77278137 909.26742554 C-170.43278137 909.26742554 -171.09278137 909.26742554 -171.77278137 909.26742554 C-172.10278137 910.25742554 -172.43278137 911.24742554 -172.77278137 912.26742554 C-173.43278137 912.26742554 -174.09278137 912.26742554 -174.77278137 912.26742554 C-175.17496887 913.22648804 -175.17496887 913.22648804 -175.58528137 914.20492554 C-176.77278137 916.26742554 -176.77278137 916.26742554 -179.77278137 917.26742554 C-180.10278137 917.92742554 -180.43278137 918.58742554 -180.77278137 919.26742554 C-181.10278137 919.92742554 -181.43278137 920.58742554 -181.77278137 921.26742554 C-182.76278137 921.59742554 -183.75278137 921.92742554 -184.77278137 922.26742554 C-185.10278137 923.25742554 -185.43278137 924.24742554 -185.77278137 925.26742554 C-193.38252239 932.31825902 -203.57676247 935.17335993 -213.76106262 935.30648804 C-230.65447338 934.38622442 -240.39887441 925.9472932 -251.88899231 914.4258728 C-252.87834124 913.44087999 -253.86810433 912.45630302 -254.85824585 911.47210693 C-257.52593219 908.8177201 -260.18727293 906.15705905 -262.84704494 903.49474454 C-265.07443984 901.2662745 -267.30481637 899.04080023 -269.53513646 896.81525844 C-274.7975219 891.56393528 -280.05460223 886.30734275 -285.3084259 881.04745483 C-290.71772275 875.63211033 -296.13615185 870.22602779 -301.55909705 864.82435375 C-306.22798098 860.17310701 -310.89101426 855.51605085 -315.5494616 850.85435146 C-318.32616743 848.0758372 -321.10502539 845.2995678 -323.88959503 842.52893257 C-326.50652138 839.92461566 -329.11603958 837.31309279 -331.7201519 834.69596481 C-333.12656262 833.28607641 -334.54034757 831.88355597 -335.95437622 830.48130798 C-340.4017582 825.9969545 -344.00126108 821.95773351 -346.77278137 816.26742554 C-347.19043762 815.42180054 -347.60809387 814.57617554 -348.03840637 813.70492554 C-352.01120858 803.86751056 -352.42155811 792.76207727 -348.89387512 782.68539429 C-346.19688799 776.86854747 -342.74479779 770.45220602 -337.77278137 766.26742554 C-337.11278137 766.26742554 -336.45278137 766.26742554 -335.77278137 766.26742554 C-335.77278137 765.60742554 -335.77278137 764.94742554 -335.77278137 764.26742554 C-334.39778137 762.64242554 -334.39778137 762.64242554 -332.77278137 761.26742554 C-332.11278137 761.26742554 -331.45278137 761.26742554 -330.77278137 761.26742554 C-330.77278137 760.60742554 -330.77278137 759.94742554 -330.77278137 759.26742554 C-329.38215637 757.93539429 -329.38215637 757.93539429 -327.52278137 756.45492554 C-324.50509846 753.97371959 -322.20482313 751.32999664 -319.77278137 748.26742554 C-319.11278137 748.26742554 -318.45278137 748.26742554 -317.77278137 748.26742554 C-317.77278137 747.60742554 -317.77278137 746.94742554 -317.77278137 746.26742554 C-316.39778137 744.64242554 -316.39778137 744.64242554 -314.77278137 743.26742554 C-314.11278137 743.26742554 -313.45278137 743.26742554 -312.77278137 743.26742554 C-312.77278137 742.60742554 -312.77278137 741.94742554 -312.77278137 741.26742554 C-311.45246887 740.00570679 -311.45246887 740.00570679 -309.64778137 738.57992554 C-306.40002423 735.89871427 -303.70508854 733.03165672 -301.03450012 729.78305054 C-299.77278137 728.26742554 -299.77278137 728.26742554 -297.77278137 726.26742554 C-298.30903137 725.52492554 -298.84528137 724.78242554 -299.39778137 724.01742554 C-302.70288538 719.04821322 -305.15003906 713.61540814 -307.77278137 708.26742554 C-308.4104499 706.9970625 -309.04983342 705.72755917 -309.69075012 704.45883179 C-316.50048158 690.9754971 -322.93910012 677.54641786 -328.03889465 663.31332397 C-328.7732859 661.26601903 -329.52045362 659.22369999 -330.26887512 657.18148804 C-333.12354084 649.31982194 -335.72293703 641.39729857 -338.14778137 633.39242554 C-338.41075012 632.52972046 -338.67371887 631.66701538 -338.94465637 630.77816772 C-339.184422 629.97282593 -339.42418762 629.16748413 -339.67121887 628.33773804 C-339.88439758 627.62375854 -340.09757629 626.90977905 -340.31721497 626.17416382 C-340.77278137 624.26742554 -340.77278137 624.26742554 -340.77278137 621.26742554 C-341.55015152 621.27408737 -342.32752167 621.28074921 -343.12844849 621.28761292 C-350.4977913 621.34802591 -357.86701199 621.39355199 -365.23653889 621.42286205 C-369.02420025 621.43843782 -372.81165493 621.45952561 -376.59919739 621.4937439 C-380.26264632 621.52662938 -383.92589797 621.54433917 -387.58948326 621.55205727 C-388.97875761 621.55754896 -390.36802264 621.56827094 -391.75721169 621.58461571 C-402.63602275 621.70738108 -412.27102944 620.65616131 -421.89778137 615.26742554 C-422.8078595 614.77242554 -423.71793762 614.27742554 -424.65559387 613.76742554 C-426.77278137 612.26742554 -426.77278137 612.26742554 -427.77278137 609.26742554 C-428.38895325 608.97351929 -429.00512512 608.67961304 -429.63996887 608.37680054 C-432.45012241 606.91510895 -433.32156247 605.24073568 -434.89778137 602.51742554 C-435.64414856 601.25672241 -435.64414856 601.25672241 -436.40559387 599.97055054 C-439.02297852 594.79560717 -440.02339874 590.36384741 -440.04020691 584.57020569 C-440.04700358 583.59811377 -440.04700358 583.59811377 -440.05393755 582.60638362 C-440.06653331 580.44864605 -440.06496436 578.29116245 -440.06330872 576.13339233 C-440.06929701 574.58062416 -440.07610325 573.02785897 -440.08366394 571.47509766 C-440.10130097 567.26628921 -440.10601836 563.05756214 -440.10729551 558.84872031 C-440.10871902 556.21636155 -440.11299243 553.58402334 -440.11828995 550.95166969 C-440.13678295 541.76011471 -440.14496151 532.56861765 -440.14338684 523.37704468 C-440.14218579 514.82235242 -440.16328283 506.26791259 -440.19487417 497.71328419 C-440.22106533 490.35765739 -440.23175294 483.0021129 -440.23047602 475.64643985 C-440.2299672 471.25812162 -440.23560587 466.8700278 -440.25683212 462.48175621 C-440.2762624 458.35218493 -440.27630655 454.22305103 -440.26179886 450.0934639 C-440.25971554 448.58304133 -440.26438311 447.07259105 -440.27651978 445.56221581 C-440.33788112 437.39296573 -440.09369928 430.43510223 -435.77278137 423.26742554 C-435.29196106 422.46949585 -434.81114075 421.67156616 -434.31575012 420.84945679 C-427.12317058 411.45972039 -418.65946403 405.19597235 -406.77278137 403.26742554 C-401.69884915 402.99508868 -396.6328109 403.03396839 -391.55403137 403.07211304 C-390.08573093 403.0758492 -388.61742798 403.07869332 -387.14912415 403.08068848 C-383.30880188 403.08827747 -379.468634 403.10788451 -375.62837219 403.13009644 C-371.69996732 403.15065761 -367.77153719 403.15971203 -363.84309387 403.16976929 C-356.15291978 403.19113552 -348.46287232 403.22521331 -340.77278137 403.26742554 C-340.62727844 402.18872192 -340.48177551 401.11001831 -340.3318634 399.99862671 C-339.74408956 396.07594212 -338.7882275 392.36814286 -337.64778137 388.57992554 C-337.43113831 387.85369995 -337.21449524 387.12747437 -336.99128723 386.37924194 C-331.256794 367.48325553 -324.21830127 349.11419392 -315.77278137 331.26742554 C-315.07271832 329.75349275 -314.37355818 328.23914224 -313.67512512 326.72445679 C-309.55246102 317.84384158 -305.2507872 309.33154397 -300.01106262 301.05258179 C-298.46550699 298.43643327 -298.46550699 298.43643327 -299.45170593 296.34924316 C-300.96790084 293.95994639 -302.65490184 292.16007945 -304.67170715 290.17318726 C-305.47238617 289.37911469 -306.27306519 288.58504211 -307.0980072 287.76690674 C-307.9626358 286.91887482 -308.8272644 286.0708429 -309.71809387 285.19711304 C-310.60310577 284.31967438 -311.48811768 283.44223572 -312.39994812 282.53820801 C-315.22781726 279.73478776 -318.06182591 276.9376586 -320.89778137 274.14242554 C-324.63547482 270.45825815 -328.3661161 266.76712913 -332.09309387 263.07211304 C-332.96177094 262.22003265 -333.830448 261.36795227 -334.72544861 260.49005127 C-335.91701065 259.3083989 -335.91701065 259.3083989 -337.13264465 258.10287476 C-337.83720795 257.4087851 -338.54177124 256.71469543 -339.26768494 255.99957275 C-340.77278137 254.26742554 -340.77278137 254.26742554 -340.77278137 252.26742554 C-341.43278137 252.26742554 -342.09278137 252.26742554 -342.77278137 252.26742554 C-343.74018837 250.58511085 -344.69625583 248.89627357 -345.64778137 247.20492554 C-346.18145325 246.26519897 -346.71512512 245.32547241 -347.26496887 244.35726929 C-351.8181484 235.02678999 -352.30995678 224.04703744 -349.71028137 214.01742554 C-347.70707887 208.31452847 -344.5382806 202.98285752 -340.77278137 198.26742554 C-339.78278137 197.93742554 -338.79278137 197.60742554 -337.77278137 197.26742554 C-337.44278137 196.60742554 -337.11278137 195.94742554 -336.77278137 195.26742554 C-335.77278137 193.26742554 -335.77278137 193.26742554 -332.77278137 192.26742554 C-332.08791412 190.94334885 -331.42407935 189.60833313 -330.77278137 188.26742554 C-328.77278137 186.01742554 -328.77278137 186.01742554 -326.77278137 184.26742554 C-326.11278137 184.26742554 -325.45278137 184.26742554 -324.77278137 184.26742554 C-324.50465637 183.62805054 -324.23653137 182.98867554 -323.96028137 182.32992554 C-322.77278137 180.26742554 -322.77278137 180.26742554 -319.77278137 179.26742554 C-319.44278137 178.60742554 -319.11278137 177.94742554 -318.77278137 177.26742554 C-317.77278137 175.26742554 -317.77278137 175.26742554 -314.77278137 174.26742554 C-314.08791412 172.94334885 -313.42407935 171.60833313 -312.77278137 170.26742554 C-310.77278137 168.01742554 -310.77278137 168.01742554 -308.77278137 166.26742554 C-308.11278137 166.26742554 -307.45278137 166.26742554 -306.77278137 166.26742554 C-306.50465637 165.62805054 -306.23653137 164.98867554 -305.96028137 164.32992554 C-304.77278137 162.26742554 -304.77278137 162.26742554 -301.77278137 161.26742554 C-301.44278137 160.60742554 -301.11278137 159.94742554 -300.77278137 159.26742554 C-299.77278137 157.26742554 -299.77278137 157.26742554 -296.77278137 156.26742554 C-296.44278137 155.60742554 -296.11278137 154.94742554 -295.77278137 154.26742554 C-294.77278137 152.26742554 -294.77278137 152.26742554 -291.77278137 151.26742554 C-291.44278137 150.27742554 -291.11278137 149.28742554 -290.77278137 148.26742554 C-290.11278137 148.26742554 -289.45278137 148.26742554 -288.77278137 148.26742554 C-288.50465637 147.62805054 -288.23653137 146.98867554 -287.96028137 146.32992554 C-286.77278137 144.26742554 -286.77278137 144.26742554 -283.77278137 143.26742554 C-283.44278137 142.60742554 -283.11278137 141.94742554 -282.77278137 141.26742554 C-281.77278137 139.26742554 -281.77278137 139.26742554 -278.77278137 138.26742554 C-278.44278137 137.60742554 -278.11278137 136.94742554 -277.77278137 136.26742554 C-276.77278137 134.26742554 -276.77278137 134.26742554 -273.77278137 133.26742554 C-273.08791412 131.94334885 -272.42407935 130.60833313 -271.77278137 129.26742554 C-269.77278137 127.01742554 -269.77278137 127.01742554 -267.77278137 125.26742554 C-267.11278137 125.26742554 -266.45278137 125.26742554 -265.77278137 125.26742554 C-265.50465637 124.62805054 -265.23653137 123.98867554 -264.96028137 123.32992554 C-263.77278137 121.26742554 -263.77278137 121.26742554 -260.77278137 120.26742554 C-260.44278137 119.60742554 -260.11278137 118.94742554 -259.77278137 118.26742554 C-258.77278137 116.26742554 -258.77278137 116.26742554 -255.77278137 115.26742554 C-255.08791412 113.94334885 -254.42407935 112.60833313 -253.77278137 111.26742554 C-251.77278137 109.01742554 -251.77278137 109.01742554 -249.77278137 107.26742554 C-249.11278137 107.26742554 -248.45278137 107.26742554 -247.77278137 107.26742554 C-247.50465637 106.62805054 -247.23653137 105.98867554 -246.96028137 105.32992554 C-245.77278137 103.26742554 -245.77278137 103.26742554 -242.77278137 102.26742554 C-242.44278137 101.27742554 -242.11278137 100.28742554 -241.77278137 99.26742554 C-232.88137589 91.34752754 -221.75103822 88.56249132 -210.09700012 88.94711304 C-201.66794391 89.75931352 -194.93655829 92.88956186 -187.77278137 97.26742554 C-187.77278137 97.92742554 -187.77278137 98.58742554 -187.77278137 99.26742554 C-187.19787964 99.51701019 -186.62297791 99.76659485 -186.03065491 100.02374268 C-183.44850133 101.44604561 -181.72446287 103.07554353 -179.64680481 105.16635132 C-178.84627686 105.96703033 -178.0457489 106.76770935 -177.22096252 107.59265137 C-176.36665649 108.45727997 -175.51235046 109.32190857 -174.63215637 110.21273804 C-173.74997437 111.09774994 -172.86779236 111.98276184 -171.95887756 112.89459229 C-169.62083594 115.24192685 -167.28722263 117.59349339 -164.9556427 119.94723511 C-162.57281611 122.35056481 -160.18427789 124.74820321 -157.79621887 127.14633179 C-153.11646275 131.8481402 -148.4424627 136.55561218 -143.77278137 141.26742554 C-139.25920326 139.82788164 -135.52676805 138.08718759 -131.46028137 135.64242554 C-124.10036883 131.31540573 -116.47890863 127.70538434 -108.71711731 124.16390991 C-107.04102162 123.39110436 -105.37815274 122.58972876 -103.71809387 121.78305054 C-85.01115444 112.75910686 -64.93013793 105.41130604 -44.84700012 100.13461304 C-44.16230652 99.95341919 -43.47761292 99.77222534 -42.77217102 99.58554077 C-41.10606078 99.14483243 -39.43947127 98.70593661 -37.77278137 98.26742554 C-37.76913574 97.46721985 -37.76549011 96.66701416 -37.76173401 95.84255981 C-37.72365927 88.252502 -37.6665891 80.66292453 -37.58887863 73.07317734 C-37.54959046 69.17241636 -37.51731169 65.27187482 -37.50178528 61.37094116 C-37.48649412 57.59699068 -37.45183331 53.82364425 -37.40447235 50.0499649 C-37.38978549 48.61973613 -37.38174776 47.18942105 -37.38089752 45.75911713 C-37.36594211 33.20032166 -35.6728995 21.71743654 -26.77278137 12.26742554 C-18.79123795 4.48973293 -11.47462484 0.03356828 0 0 Z M5.22721863 41.26742554 C5.05681921 66.90598674 5.05681921 66.90598674 4.92936707 92.54476929 C4.88395691 97.52328491 4.88395691 97.52328491 4.85765076 99.85995483 C4.84311472 101.47872124 4.83626823 103.09756858 4.8356781 104.71640015 C4.8332441 107.18055799 4.80578275 109.64335016 4.77311707 112.10726929 C4.77814114 112.81858505 4.78316521 113.52990082 4.78834152 114.26277161 C4.64669491 121.13140799 2.21303051 126.18925031 -2.46028137 131.07992554 C-9.09561265 135.46174808 -16.72207325 136.77684734 -24.35774231 138.65536499 C-43.12515347 143.29980356 -61.26018053 149.69940571 -79.14778137 157.01742554 C-79.80649231 157.28667847 -80.46520325 157.5559314 -81.14387512 157.83334351 C-85.79600736 159.77372207 -90.28089667 161.98419877 -94.77278137 164.26742554 C-95.71121887 164.72504272 -96.64965637 165.18265991 -97.61653137 165.65414429 C-109.80818861 171.62447055 -121.54960079 178.36052645 -133.00325012 185.63851929 C-139.31951715 189.35344644 -144.52850429 189.95241449 -151.77278137 189.26742554 C-155.86451257 188.18909927 -158.92150367 186.41883773 -161.77278137 183.26742554 C-162.43278137 183.26742554 -163.09278137 183.26742554 -163.77278137 183.26742554 C-164.17496887 182.30836304 -164.17496887 182.30836304 -164.58528137 181.32992554 C-165.65945889 178.93610867 -165.65945889 178.93610867 -168.77278137 178.26742554 C-169.43944804 176.9340922 -170.10611471 175.60075887 -170.77278137 174.26742554 C-171.76278137 173.93742554 -172.75278137 173.60742554 -173.77278137 173.26742554 C-174.10278137 172.27742554 -174.43278137 171.28742554 -174.77278137 170.26742554 C-175.43278137 170.26742554 -176.09278137 170.26742554 -176.77278137 170.26742554 C-176.77278137 169.60742554 -176.77278137 168.94742554 -176.77278137 168.26742554 C-177.43278137 168.26742554 -178.09278137 168.26742554 -178.77278137 168.26742554 C-179.10278137 167.27742554 -179.43278137 166.28742554 -179.77278137 165.26742554 C-180.43278137 165.26742554 -181.09278137 165.26742554 -181.77278137 165.26742554 C-181.77278137 164.60742554 -181.77278137 163.94742554 -181.77278137 163.26742554 C-182.43278137 163.26742554 -183.09278137 163.26742554 -183.77278137 163.26742554 C-184.10278137 162.27742554 -184.43278137 161.28742554 -184.77278137 160.26742554 C-185.43278137 160.26742554 -186.09278137 160.26742554 -186.77278137 160.26742554 C-187.17496887 159.30836304 -187.17496887 159.30836304 -187.58528137 158.32992554 C-188.65945889 155.93610867 -188.65945889 155.93610867 -191.77278137 155.26742554 C-192.43944804 153.9340922 -193.10611471 152.60075887 -193.77278137 151.26742554 C-194.76278137 150.93742554 -195.75278137 150.60742554 -196.77278137 150.26742554 C-197.10278137 149.27742554 -197.43278137 148.28742554 -197.77278137 147.26742554 C-198.43278137 147.26742554 -199.09278137 147.26742554 -199.77278137 147.26742554 C-199.77278137 146.60742554 -199.77278137 145.94742554 -199.77278137 145.26742554 C-200.43278137 145.26742554 -201.09278137 145.26742554 -201.77278137 145.26742554 C-202.10278137 144.27742554 -202.43278137 143.28742554 -202.77278137 142.26742554 C-203.43278137 142.26742554 -204.09278137 142.26742554 -204.77278137 142.26742554 C-205.17496887 141.30836304 -205.17496887 141.30836304 -205.58528137 140.32992554 C-206.65945889 137.93610867 -206.65945889 137.93610867 -209.77278137 137.26742554 C-210.96028137 135.20492554 -210.96028137 135.20492554 -211.77278137 133.26742554 C-214.77012804 132.95571072 -214.77012804 132.95571072 -216.59434032 134.719841 C-217.61891323 135.74856197 -217.61891323 135.74856197 -218.66418457 136.79806519 C-219.45082489 137.58058151 -220.23746521 138.36309784 -221.04794312 139.16932678 C-221.90677597 140.03894547 -222.76560883 140.90856415 -223.65046692 141.80453491 C-224.55798706 142.71161697 -225.4655072 143.61869904 -226.40052795 144.55326843 C-228.89257083 147.04444864 -231.3752398 149.54478723 -233.85636878 152.04683113 C-236.44952088 154.65870488 -239.0511401 157.26211613 -241.65188599 159.86642456 C-246.5770957 164.80096802 -251.49460666 169.74311075 -256.40941983 174.68800688 C-262.00443958 180.31652928 -267.60795452 185.93656117 -273.21221101 191.55588436 C-284.74190251 203.116955 -296.26084037 214.68867916 -307.77278137 226.26742554 C-306.40954394 228.30739744 -306.40954394 228.30739744 -304.77278137 230.26742554 C-304.11278137 230.26742554 -303.45278137 230.26742554 -302.77278137 230.26742554 C-302.50852356 230.85620483 -302.24426575 231.44498413 -301.97200012 232.05160522 C-300.72909193 234.34815138 -299.42271656 235.8757572 -297.58528137 237.72055054 C-296.9691095 238.33930054 -296.35293762 238.95805054 -295.71809387 239.59555054 C-294.75516418 240.54687866 -294.75516418 240.54687866 -293.77278137 241.51742554 C-293.13082825 242.16711304 -292.48887512 242.81680054 -291.82746887 243.48617554 C-290.90321106 244.40656616 -290.90321106 244.40656616 -289.96028137 245.34555054 C-289.1153009 246.18714722 -289.1153009 246.18714722 -288.25325012 247.04574585 C-286.83559029 248.47958346 -286.83559029 248.47958346 -284.77278137 248.26742554 C-284.50360901 248.86322418 -284.23443665 249.45902283 -283.95710754 250.07287598 C-282.77081696 252.27106559 -281.60849044 253.65168037 -279.82356262 255.38021851 C-279.22954651 255.96117279 -278.6355304 256.54212708 -278.02351379 257.14068604 C-277.38389709 257.75743195 -276.7442804 258.37417786 -276.08528137 259.00961304 C-274.73344518 260.3361571 -273.38189136 261.66298897 -272.03059387 262.99008179 C-269.90128557 265.06976846 -267.76894674 267.14614039 -265.63117981 269.21713257 C-263.56533977 271.22243691 -261.51222052 273.24010036 -259.46028137 275.25961304 C-258.50085632 276.17865921 -258.50085632 276.17865921 -257.52204895 277.11627197 C-252.52907688 282.05244416 -250.50339208 286.45120307 -250.39778137 293.57992554 C-250.65783721 303.28000831 -255.94028862 310.25684642 -260.99250793 318.19198608 C-264.69133229 324.03076677 -267.79187989 330.03250333 -270.77278137 336.26742554 C-271.7521092 338.22762587 -272.74075868 340.18296628 -273.72981262 342.13827515 C-280.04165202 354.64523219 -285.59768038 367.11784938 -290.11750793 380.37973022 C-290.95050784 382.77941549 -291.86197946 385.14632965 -292.77278137 387.51742554 C-296.75222035 398.41113974 -299.73962579 409.76060393 -302.41242981 421.03890991 C-306.18159145 436.88910674 -306.18159145 436.88910674 -312.89778137 441.20492554 C-317.59762684 443.82087726 -320.96851906 444.43096333 -326.34358215 444.4727478 C-327.53340604 444.48779688 -327.53340604 444.48779688 -328.74726677 444.50314999 C-331.32084586 444.53459064 -333.89444033 444.55932903 -336.46809387 444.58383179 C-338.05460621 444.6022301 -339.64111353 444.6210665 -341.22761536 444.64035034 C-347.11761126 444.70885846 -353.00770348 444.7688725 -358.89778137 444.82992554 C-378.63590637 445.04648804 -378.63590637 445.04648804 -398.77278137 445.26742554 C-398.77278137 489.48742554 -398.77278137 533.70742554 -398.77278137 579.26742554 C-372.47599133 579.3982919 -372.47599133 579.3982919 -346.17903137 579.47518921 C-341.07356262 579.51608276 -341.07356262 579.51608276 -338.67756653 579.54154968 C-337.01713105 579.55456134 -335.35660154 579.55790396 -333.69612122 579.5533905 C-315.65176448 579.51811451 -315.65176448 579.51811451 -309.77278137 585.26742554 C-309.23357056 585.78024582 -308.69435974 586.2930661 -308.1388092 586.82142639 C-304.1357056 591.05888353 -303.20080946 598.29959704 -302.02278137 603.76742554 C-300.36092639 611.15578383 -298.38061883 618.43187615 -296.27278137 625.70492554 C-295.98822083 626.69879272 -295.70366028 627.69265991 -295.41047668 628.71664429 C-293.76782853 634.32075294 -291.88000372 639.7274641 -289.6521759 645.12557983 C-288.66097171 647.53974818 -287.80030579 649.98450889 -286.96028137 652.45492554 C-284.63010529 658.91957746 -281.68505215 665.06562253 -278.72151184 671.25521851 C-277.77620456 673.26016513 -276.86610217 675.27778608 -275.96418762 677.30258179 C-271.88834575 686.36274923 -267.21117736 694.86490095 -261.98493958 703.31698608 C-258.97006218 708.19667447 -256.26019939 713.09714951 -253.77278137 718.26742554 C-253.11278137 718.26742554 -252.45278137 718.26742554 -251.77278137 718.26742554 C-249.57980904 727.1118098 -249.02494649 734.10387991 -253.46418762 742.38070679 C-255.3145539 745.04854831 -257.5373267 746.95968905 -260.08918762 748.94320679 C-261.80243626 750.29075038 -263.33023434 751.63195429 -264.77278137 753.26742554 C-264.77278137 753.92742554 -264.77278137 754.58742554 -264.77278137 755.26742554 C-265.43278137 755.26742554 -266.09278137 755.26742554 -266.77278137 755.26742554 C-268.110645 756.62603735 -268.110645 756.62603735 -269.46028137 758.39242554 C-271.57688105 760.95706456 -273.70243067 763.1587121 -276.27278137 765.26742554 C-278.71023426 767.27725511 -280.76295179 769.32997265 -282.77278137 771.76742554 C-284.7652348 774.18268075 -286.79152345 776.21712671 -289.21028137 778.20492554 C-292.56316217 780.96699034 -295.26997877 784.07027719 -298.06965637 787.38070679 C-299.64742031 789.12855078 -301.24054792 790.56223532 -303.08528137 792.01742554 C-306.08304013 794.22339953 -306.08304013 794.22339953 -307.77278137 798.26742554 C-277.08278137 828.95742554 -246.39278137 859.64742554 -214.77278137 891.26742554 C-210.85606818 889.30906894 -208.89723423 887.6140531 -205.87165833 884.52987671 C-205.16094933 883.80996803 -205.16094933 883.80996803 -204.43588257 883.07551575 C-203.41012773 882.03548608 -202.38662983 880.99322664 -201.36515236 879.94899559 C-199.74219814 878.29112394 -198.11213727 876.64055581 -196.4798584 874.99186707 C-191.84075559 870.30399807 -187.21280815 865.60523727 -182.59431458 860.89706421 C-179.7648963 858.01372668 -176.92552427 855.1404972 -174.08002281 852.27303505 C-173.00341936 851.18410426 -171.93061278 850.09140475 -170.86188698 848.99474144 C-157.8463868 835.6422763 -157.8463868 835.6422763 -148.83918762 833.60336304 C-142.57197264 833.7011355 -138.21166386 835.03862922 -132.76887512 838.17367554 C-130.85980789 839.42760375 -130.85980789 839.42760375 -128.77278137 839.26742554 C-128.77278137 839.92742554 -128.77278137 840.58742554 -128.77278137 841.26742554 C-99.9644496 857.15937254 -99.9644496 857.15937254 -69.77278137 870.12680054 C-67.60351391 870.9515741 -65.45708045 871.83726426 -63.32746887 872.75961304 C-50.31316236 878.27996723 -36.20585038 882.28230662 -22.46028137 885.55258179 C-21.5659137 885.76656616 -20.67154602 885.98055054 -19.75007629 886.20101929 C-18.0185416 886.60967099 -16.28438926 887.00743929 -14.54743958 887.39242554 C-8.38059832 888.84094955 -2.79378392 891.09756512 1.22721863 896.26742554 C3.79196082 901.38460327 4.67105074 905.56899326 4.65959167 911.3140564 C4.66986547 912.09796281 4.68013926 912.88186922 4.69072437 913.68953037 C4.72039424 916.20385714 4.73011978 918.71779233 4.73893738 921.23226929 C4.75441865 922.7938471 4.77121822 924.35541241 4.78935242 925.91696167 C4.84708911 931.67947857 4.8793885 937.4422277 4.91471863 943.20492554 C5.01784363 956.09555054 5.12096863 968.98617554 5.22721863 982.26742554 C49.44721863 982.26742554 93.66721863 982.26742554 139.22721863 982.26742554 C139.47679201 955.880555 139.47679201 955.880555 139.70524597 929.49349976 C139.75968933 924.3789978 139.75968933 924.3789978 139.78767395 921.98132324 C139.80530792 920.31412073 139.81913552 918.64687521 139.82991028 916.97961426 C139.84702387 914.44760073 139.87638201 911.91598837 139.90837097 909.38412476 C139.91054312 908.64687605 139.91271526 907.90962734 139.91495323 907.15003777 C139.98496107 902.82845138 140.64599577 899.28909343 142.22721863 895.26742554 C142.88721863 895.26742554 143.54721863 895.26742554 144.22721863 895.26742554 C145.06253113 894.37023804 145.06253113 894.37023804 145.91471863 893.45492554 C150.65207977 888.97363797 156.87856406 887.72053765 163.10221863 886.39242554 C181.79384051 882.17640825 201.43023764 876.91666272 218.68034363 868.50570679 C220.89278119 867.43002779 223.1170466 866.42315864 225.36784363 865.43148804 C230.52837287 863.14886434 235.63090032 860.75197492 240.72721863 858.32992554 C241.61280457 857.91291382 242.4983905 857.4959021 243.41081238 857.06625366 C251.93002389 853.01931545 260.0352157 848.44599242 268.06315613 843.50180054 C270.22721863 842.26742554 270.22721863 842.26742554 273.22721863 841.26742554 C273.22721863 840.60742554 273.22721863 839.94742554 273.22721863 839.26742554 C274.89027703 838.59180806 276.55816468 837.92809273 278.22721863 837.26742554 C279.1340741 836.87103882 279.1340741 836.87103882 280.05924988 836.46664429 C285.52711596 834.19106294 290.5597767 833.10429259 296.3258667 834.93301392 C302.34627601 837.45478982 306.34677676 840.7396929 310.81706238 845.43930054 C311.4876619 846.12171814 312.15826141 846.80413574 312.84918213 847.50723267 C314.96671254 849.66563607 317.06646239 851.84029474 319.16471863 854.01742554 C321.29062313 856.20600496 323.42010542 858.39088599 325.55523682 860.57046509 C326.87783716 861.92232682 328.19463486 863.27989454 329.5050354 864.64358521 C330.09647842 865.25131775 330.68792145 865.85905029 331.29728699 866.48519897 C331.81641159 867.02384583 332.33553619 867.56249268 332.87039185 868.11746216 C334.18507473 869.48294479 334.18507473 869.48294479 336.22721863 869.26742554 C336.49147644 869.85620483 336.75573425 870.44498413 337.02799988 871.05160522 C338.27090807 873.34815138 339.57728344 874.8757572 341.41471863 876.72055054 C342.0308905 877.33930054 342.64706238 877.95805054 343.28190613 878.59555054 C343.92385925 879.22976929 344.56581238 879.86398804 345.22721863 880.51742554 C346.19014832 881.49195679 346.19014832 881.49195679 347.17253113 882.48617554 C347.788703 883.09976929 348.40487488 883.71336304 349.03971863 884.34555054 C349.60303894 884.90661499 350.16635925 885.46767944 350.74674988 886.04574585 C352.16440971 887.47958346 352.16440971 887.47958346 354.22721863 887.26742554 C354.88721863 888.58742554 355.54721863 889.90742554 356.22721863 891.26742554 C359.93421597 890.71704165 361.29228619 889.4021299 363.60221863 886.51742554 C366.54481755 882.98630684 369.69156286 880.21380535 373.22721863 877.26742554 C374.96657809 875.36381664 376.63392643 873.40720449 378.30924988 871.44711304 C382.79675419 866.34726089 387.61726506 861.53608667 392.85221863 857.20492554 C396.13136695 854.47861285 398.78939478 851.38348081 401.54362488 848.13851929 C403.86566185 845.55787959 406.5627319 843.48783114 409.22721863 841.26742554 C411.06145078 839.27387256 412.82262215 837.22893057 414.58268738 835.16976929 C416.68243453 832.74084562 418.92983009 830.51011434 421.22721863 828.26742554 C421.90784363 827.57648804 422.58846863 826.88555054 423.28971863 826.17367554 C426.70706791 822.71014586 430.09562744 819.30157503 433.85221863 816.20492554 C437.12468721 813.48416644 439.78069123 810.4007255 442.52018738 807.15414429 C444.11549782 805.39090643 445.72773032 803.97138425 447.60221863 802.51742554 C450.33617601 800.53817679 450.33617601 800.53817679 451.10221863 797.95492554 C451.14346863 797.39805054 451.18471863 796.84117554 451.22721863 796.26742554 C450.60846863 796.01992554 449.98971863 795.77242554 449.35221863 795.51742554 C446.84011567 794.03971791 446.46614519 792.82787377 445.22721863 790.26742554 C444.23721863 789.93742554 443.24721863 789.60742554 442.22721863 789.26742554 C441.89721863 788.27742554 441.56721863 787.28742554 441.22721863 786.26742554 C440.56721863 786.26742554 439.90721863 786.26742554 439.22721863 786.26742554 C439.22721863 785.60742554 439.22721863 784.94742554 439.22721863 784.26742554 C438.56721863 784.26742554 437.90721863 784.26742554 437.22721863 784.26742554 C436.89721863 783.27742554 436.56721863 782.28742554 436.22721863 781.26742554 C435.56721863 781.26742554 434.90721863 781.26742554 434.22721863 781.26742554 C433.95909363 780.62805054 433.69096863 779.98867554 433.41471863 779.32992554 C432.34054111 776.93610867 432.34054111 776.93610867 429.22721863 776.26742554 C428.56055196 774.9340922 427.89388529 773.60075887 427.22721863 772.26742554 C426.23721863 771.93742554 425.24721863 771.60742554 424.22721863 771.26742554 C423.89721863 770.27742554 423.56721863 769.28742554 423.22721863 768.26742554 C422.56721863 768.26742554 421.90721863 768.26742554 421.22721863 768.26742554 C421.22721863 767.60742554 421.22721863 766.94742554 421.22721863 766.26742554 C420.56721863 766.26742554 419.90721863 766.26742554 419.22721863 766.26742554 C418.89721863 765.27742554 418.56721863 764.28742554 418.22721863 763.26742554 C417.56721863 763.26742554 416.90721863 763.26742554 416.22721863 763.26742554 C416.22721863 762.60742554 416.22721863 761.94742554 416.22721863 761.26742554 C415.56721863 761.26742554 414.90721863 761.26742554 414.22721863 761.26742554 C413.89721863 760.27742554 413.56721863 759.28742554 413.22721863 758.26742554 C412.56721863 758.26742554 411.90721863 758.26742554 411.22721863 758.26742554 C410.95909363 757.62805054 410.69096863 756.98867554 410.41471863 756.32992554 C409.34054111 753.93610867 409.34054111 753.93610867 406.22721863 753.26742554 C405.56055196 751.9340922 404.89388529 750.60075887 404.22721863 749.26742554 C403.23721863 748.93742554 402.24721863 748.60742554 401.22721863 748.26742554 C400.89721863 747.27742554 400.56721863 746.28742554 400.22721863 745.26742554 C399.56721863 745.26742554 398.90721863 745.26742554 398.22721863 745.26742554 C397.93846863 744.38055054 397.64971863 743.49367554 397.35221863 742.57992554 C396.33596445 739.37962361 396.33596445 739.37962361 395.10221863 736.89242554 C393.26054795 731.36741349 393.82475142 726.52282256 396.22721863 721.26742554 C396.22721863 720.27742554 396.22721863 719.28742554 396.22721863 718.26742554 C396.88721863 718.26742554 397.54721863 718.26742554 398.22721863 718.26742554 C398.544328 717.6705896 398.86143738 717.07375366 399.18815613 716.45883179 C401.50040802 712.16008725 403.82231118 707.88531977 406.39518738 703.73617554 C411.94728278 694.72327401 416.66769682 685.43147047 421.10221863 675.82992554 C421.64950623 674.64535767 422.19679382 673.46078979 422.76066589 672.24032593 C425.44533715 666.35987367 428.01508483 660.45912501 430.36784363 654.43807983 C431.11300075 652.55592302 431.91877704 650.69798209 432.73503113 648.84555054 C434.76436562 643.97939768 436.43773819 639.0184363 438.10221863 634.01742554 C438.45300476 632.96418091 438.80379089 631.91093628 439.16520691 630.82577515 C443.00463829 619.1336033 446.22510416 607.31749611 448.71183777 595.26473999 C449.45879986 592.36995225 450.79720248 589.87875937 452.22721863 587.26742554 C452.55721863 586.27742554 452.88721863 585.28742554 453.22721863 584.26742554 C455.53971863 583.20492554 455.53971863 583.20492554 458.22721863 582.26742554 C458.78181763 581.92466583 459.33641663 581.58190613 459.90782166 581.22875977 C463.23295628 579.85057148 466.48160761 579.95904879 470.02507019 579.94857788 C470.81852718 579.93842463 471.61198418 579.92827137 472.42948532 579.91781044 C474.99226693 579.88722856 477.55493773 579.87003368 480.11784363 579.85336304 C481.70232598 579.83642484 483.28679919 579.81860779 484.8712616 579.79989624 C490.739809 579.736754 496.60852943 579.69061941 502.47721863 579.64242554 C515.59471863 579.51867554 528.71221863 579.39492554 542.22721863 579.26742554 C542.22721863 535.04742554 542.22721863 490.82742554 542.22721863 445.26742554 C516.63367794 445.13657509 516.63367794 445.13657509 491.03996277 445.05966187 C486.06596375 445.01876831 486.06596375 445.01876831 483.73013306 444.99330139 C482.11474267 444.98030757 480.49925591 444.97694133 478.88381958 444.98146057 C460.62067927 445.01819978 460.62067927 445.01819978 454.22721863 439.26742554 C449.71963618 433.55814938 447.95012775 426.48864603 446.41471863 419.51742554 C441.08648029 396.25940166 433.00288388 374.00906815 423.22721863 352.26742554 C422.85838562 351.4432312 422.48955261 350.61903687 422.10954285 349.76986694 C415.8773369 335.94224606 408.64144026 322.92687727 400.28971863 310.26742554 C395.98405935 303.52901787 393.61746076 297.75524633 394.51237488 289.70101929 C397.37085462 279.96969208 403.97854517 273.99319596 410.99284363 267.11117554 C412.15385429 265.95763635 413.31397672 264.80320255 414.47325134 263.6479187 C417.50908188 260.62727307 420.55673438 257.61884042 423.60710144 254.61288452 C426.72475555 251.53633786 429.83094818 248.4482658 432.93815613 245.36117554 C439.0234197 239.31865662 445.12123475 233.28900547 451.22721863 227.26742554 C450.2282415 224.27049416 449.5759161 223.24033141 447.22721863 221.26742554 C446.56721863 221.26742554 445.90721863 221.26742554 445.22721863 221.26742554 C445.22721863 220.60742554 445.22721863 219.94742554 445.22721863 219.26742554 C443.89388529 217.60075887 443.89388529 217.60075887 442.22721863 216.26742554 C441.56721863 216.26742554 440.90721863 216.26742554 440.22721863 216.26742554 C440.22721863 215.60742554 440.22721863 214.94742554 440.22721863 214.26742554 C438.89388529 212.60075887 438.89388529 212.60075887 437.22721863 211.26742554 C436.56721863 211.26742554 435.90721863 211.26742554 435.22721863 211.26742554 C435.22721863 210.60742554 435.22721863 209.94742554 435.22721863 209.26742554 C433.57719035 207.91355618 431.90977993 206.58064411 430.22721863 205.26742554 C429.89721863 204.60742554 429.56721863 203.94742554 429.22721863 203.26742554 C428.56721863 203.26742554 427.90721863 203.26742554 427.22721863 203.26742554 C427.22721863 202.60742554 427.22721863 201.94742554 427.22721863 201.26742554 C425.89388529 199.60075887 425.89388529 199.60075887 424.22721863 198.26742554 C423.56721863 198.26742554 422.90721863 198.26742554 422.22721863 198.26742554 C422.22721863 197.60742554 422.22721863 196.94742554 422.22721863 196.26742554 C420.89388529 194.60075887 420.89388529 194.60075887 419.22721863 193.26742554 C418.56721863 193.26742554 417.90721863 193.26742554 417.22721863 193.26742554 C417.22721863 192.60742554 417.22721863 191.94742554 417.22721863 191.26742554 C415.57719035 189.91355618 413.90977993 188.58064411 412.22721863 187.26742554 C411.89721863 186.60742554 411.56721863 185.94742554 411.22721863 185.26742554 C410.56721863 185.26742554 409.90721863 185.26742554 409.22721863 185.26742554 C409.22721863 184.60742554 409.22721863 183.94742554 409.22721863 183.26742554 C407.89388529 181.60075887 407.89388529 181.60075887 406.22721863 180.26742554 C405.56721863 180.26742554 404.90721863 180.26742554 404.22721863 180.26742554 C404.22721863 179.60742554 404.22721863 178.94742554 404.22721863 178.26742554 C402.89388529 176.60075887 402.89388529 176.60075887 401.22721863 175.26742554 C400.56721863 175.26742554 399.90721863 175.26742554 399.22721863 175.26742554 C399.22721863 174.60742554 399.22721863 173.94742554 399.22721863 173.26742554 C397.57719035 171.91355618 395.90977993 170.58064411 394.22721863 169.26742554 C393.89721863 168.60742554 393.56721863 167.94742554 393.22721863 167.26742554 C392.56721863 167.26742554 391.90721863 167.26742554 391.22721863 167.26742554 C391.22721863 166.60742554 391.22721863 165.94742554 391.22721863 165.26742554 C389.89388529 163.60075887 389.89388529 163.60075887 388.22721863 162.26742554 C387.56721863 162.26742554 386.90721863 162.26742554 386.22721863 162.26742554 C386.22721863 161.60742554 386.22721863 160.94742554 386.22721863 160.26742554 C384.89388529 158.60075887 384.89388529 158.60075887 383.22721863 157.26742554 C382.56721863 157.26742554 381.90721863 157.26742554 381.22721863 157.26742554 C381.22721863 156.60742554 381.22721863 155.94742554 381.22721863 155.26742554 C379.57719035 153.91355618 377.90977993 152.58064411 376.22721863 151.26742554 C375.89721863 150.60742554 375.56721863 149.94742554 375.22721863 149.26742554 C374.56721863 149.26742554 373.90721863 149.26742554 373.22721863 149.26742554 C373.22721863 148.60742554 373.22721863 147.94742554 373.22721863 147.26742554 C371.89388529 145.60075887 371.89388529 145.60075887 370.22721863 144.26742554 C369.56721863 144.26742554 368.90721863 144.26742554 368.22721863 144.26742554 C368.22721863 143.60742554 368.22721863 142.94742554 368.22721863 142.26742554 C366.89388529 140.60075887 366.89388529 140.60075887 365.22721863 139.26742554 C364.56721863 139.26742554 363.90721863 139.26742554 363.22721863 139.26742554 C363.22721863 138.60742554 363.22721863 137.94742554 363.22721863 137.26742554 C361.89388529 135.60075887 361.89388529 135.60075887 360.22721863 134.26742554 C359.56721863 134.26742554 358.90721863 134.26742554 358.22721863 134.26742554 C357.89721863 133.60742554 357.56721863 132.94742554 357.22721863 132.26742554 C352.93132501 135.62031812 349.42355723 139.21159007 345.88346863 143.34945679 C342.94610744 146.75097646 339.85312421 149.76397974 336.35221863 152.57992554 C333.14970343 155.18968728 330.56319662 158.21723087 327.88346863 161.34945679 C324.8248077 164.89144385 321.55561802 168.02859519 317.91471863 170.95492554 C317.02784363 171.71805054 316.14096863 172.48117554 315.22721863 173.26742554 C315.22721863 173.92742554 315.22721863 174.58742554 315.22721863 175.26742554 C314.56721863 175.26742554 313.90721863 175.26742554 313.22721863 175.26742554 C311.85521436 176.65953338 311.85521436 176.65953338 310.47721863 178.45492554 C305.62194833 184.27653604 301.03578118 188.53995624 293.19987488 189.52133179 C284.03899993 190.02043042 276.80706495 185.92970072 269.48893738 180.83383179 C257.28806187 172.38382992 243.56814772 166.27569079 230.10417175 160.12924194 C228.31137561 159.30606681 226.52687006 158.46490676 224.74284363 157.62289429 C204.49715054 148.24599986 182.55326792 141.15636469 160.79362488 136.25961304 C160.06828552 136.09187378 159.34294617 135.92413452 158.59562683 135.75131226 C156.6277535 135.30181071 154.65421348 134.87731744 152.68034363 134.45492554 C147.60927894 132.71102999 144.40337208 130.17386993 141.58334351 125.60284424 C139.99707785 121.70138927 139.78683343 118.29315528 139.79484558 114.15072632 C139.78457179 113.34711607 139.774298 112.54350582 139.76371288 111.71554375 C139.73397981 109.13119726 139.72430744 106.54723147 139.71549988 103.96273804 C139.70002379 102.36042973 139.68322513 100.75813363 139.66508484 99.15585327 C139.60728513 93.23484534 139.57503316 87.31361027 139.53971863 81.39242554 C139.38503113 61.53055054 139.38503113 61.53055054 139.22721863 41.26742554 C95.00721863 41.26742554 50.78721863 41.26742554 5.22721863 41.26742554 Z " fill="#074CA6" transform="translate(439.7727813720703,-0.267425537109375)"/>
<path d="M0 0 C0.78777832 0.13245117 1.57555664 0.26490234 2.38720703 0.40136719 C32.42952874 5.52102011 62.67348295 15.5138135 89 31 C90.32257813 31.75796875 90.32257813 31.75796875 91.671875 32.53125 C93.49464286 33.6123399 95.258846 34.79185232 97 36 C97 36.66 97 37.32 97 38 C97.66 38 98.32 38 99 38 C102.1532792 43.95462991 104.31571618 49.21725625 103 56 C100.59085981 62.6942502 97.71376018 67.71786241 91.15234375 70.89453125 C84.4467944 73.72404051 79.35414962 73.71299364 72.5625 71 C67.68341387 68.85247206 62.93716458 66.4774477 58.1875 64.0625 C50.62757274 60.21965675 42.94004455 56.97525358 35 54 C34.3498291 53.75008301 33.6996582 53.50016602 33.02978516 53.24267578 C13.49933366 45.76161627 -6.25274642 42.18104419 -27 40 C-27.81839355 39.90356201 -28.63678711 39.80712402 -29.47998047 39.70776367 C-53.83156323 36.96044325 -79.05549166 39.08890278 -103 44 C-103.65145996 44.12568359 -104.30291992 44.25136719 -104.97412109 44.38085938 C-126.13966718 48.50408566 -147.45375524 56.65110167 -166.4375 66.8125 C-167.6598938 67.4631543 -167.6598938 67.4631543 -168.90698242 68.12695312 C-183.9119644 76.18800646 -197.93737082 85.58298033 -211.01171875 96.50390625 C-213 98 -213 98 -216 99 C-216 99.66 -216 100.32 -216 101 C-217.2578125 102.234375 -217.2578125 102.234375 -219.125 103.75 C-223.4349491 107.40763248 -227.44156506 111.31961927 -231.4375 115.3125 C-232.37843506 116.24690918 -232.37843506 116.24690918 -233.33837891 117.20019531 C-233.9266748 117.79026367 -234.5149707 118.38033203 -235.12109375 118.98828125 C-235.91664673 119.78552612 -235.91664673 119.78552612 -236.72827148 120.59887695 C-238.10943585 121.99388405 -238.10943585 121.99388405 -239 124 C-239.66 124 -240.32 124 -241 124 C-241.41185547 124.87918091 -241.41185547 124.87918091 -241.83203125 125.77612305 C-242.96020238 127.92422314 -244.1864692 129.6813253 -245.6875 131.58203125 C-246.48111938 132.59789307 -246.48111938 132.59789307 -247.29077148 133.63427734 C-247.85481689 134.35309082 -248.4188623 135.0719043 -249 135.8125 C-257.6407177 146.97907672 -265.57731985 158.39964658 -272 171 C-272.58652344 172.134375 -273.17304688 173.26875 -273.77734375 174.4375 C-276.82748494 180.39272943 -279.70408814 186.36125128 -282.078125 192.62109375 C-282.82266026 194.5423733 -283.62863445 196.43977567 -284.453125 198.328125 C-287.01892691 204.4186649 -288.97312065 210.71469336 -291 217 C-291.45439453 218.40765625 -291.45439453 218.40765625 -291.91796875 219.84375 C-293.68351076 225.50782386 -294.91709347 231.17141486 -296 237 C-296.2371875 238.14984375 -296.474375 239.2996875 -296.71875 240.484375 C-308.43818784 298.84717546 -298.96184833 364.24845901 -267 415 C-266.38125 416.11375 -265.7625 417.2275 -265.125 418.375 C-259.59277581 428.10804173 -252.88207676 437.01551881 -245.8203125 445.671875 C-244.73363281 447.00992188 -244.73363281 447.00992188 -243.625 448.375 C-242.95726562 449.18710937 -242.28953125 449.99921875 -241.6015625 450.8359375 C-240 453 -240 453 -239 456 C-238.01 456.33 -237.02 456.66 -236 457 C-234.45703125 458.6015625 -234.45703125 458.6015625 -232.8125 460.625 C-229.66791738 464.36087166 -226.28268255 467.47143549 -222.50390625 470.5546875 C-222.00761719 471.03164063 -221.51132812 471.50859375 -221 472 C-221 472.66 -221 473.32 -221 474 C-220.01 474.33 -219.02 474.66 -218 475 C-218 475.66 -218 476.32 -218 477 C-217.44183594 477.24621094 -216.88367188 477.49242187 -216.30859375 477.74609375 C-213.57333484 479.23174199 -211.4315749 481.04255193 -209.0625 483.0625 C-180.50230995 506.66223599 -145.8433997 523.06777899 -110 532 C-108.82824219 532.29648437 -107.65648437 532.59296875 -106.44921875 532.8984375 C-76.13243413 540.23255785 -44.75622762 540.11310828 -14 536 C-12.49566406 535.80277344 -12.49566406 535.80277344 -10.9609375 535.6015625 C11.00877567 532.32157715 33.14338811 525.9892158 53 516 C54.34201213 515.34025863 55.68448755 514.68145912 57.02734375 514.0234375 C78.42510399 503.48816398 101.02053368 490.68108066 117.66796875 473.25390625 C119 472 119 472 121 472 C121.33 471.01 121.66 470.02 122 469 C122.66 469 123.32 469 124 469 C124.268125 468.360625 124.53625 467.72125 124.8125 467.0625 C126 465 126 465 129 464 C129.33 463.01 129.66 462.02 130 461 C130.66 461 131.32 461 132 461 C132.4021875 460.11634766 132.4021875 460.11634766 132.8125 459.21484375 C134.01150488 456.97854189 135.28029437 455.41862459 137 453.5625 C163.28796899 424.11124844 181.79115266 388.11207847 191.50488281 349.93945312 C191.9541433 348.17962803 192.42507591 346.42537098 192.8984375 344.671875 C201.80864341 310.9718883 201.36106796 272.92341226 194 239 C193.74207028 237.63462587 193.48694459 236.26871957 193.234375 234.90234375 C190.21789042 219.26190685 184.74101855 204.17060311 178.19140625 189.67578125 C177.7320166 188.65830811 177.27262695 187.64083496 176.79931641 186.5925293 C175.92013941 184.67671783 175.02136252 182.76972438 174.09912109 180.87426758 C170.57507415 173.27619818 169.79292976 166.45107151 172 158.3125 C172.33 157.549375 172.66 156.78625 173 156 C173.66 156 174.32 156 175 156 C175.226875 155.4225 175.45375 154.845 175.6875 154.25 C177.9017158 150.45420149 180.84171059 148.51479529 184.8125 146.75 C192.59295002 144.91930588 198.17512025 145.98075915 205 150 C210.01609 154.25277196 212.64574006 158.9393414 215.13037109 164.95336914 C216.12307867 167.28965988 217.20822187 169.57425299 218.2890625 171.87109375 C221.27094648 178.42277771 223.66967289 185.13102739 226 191.9375 C226.2172171 192.5697348 226.4344342 193.2019696 226.65823364 193.85336304 C230.39561028 204.77017032 233.60169975 215.71179778 236 227 C236.15017578 227.69834961 236.30035156 228.39669922 236.45507812 229.11621094 C240.34982693 247.56823836 241.34879902 265.60575674 241.31567383 284.42700195 C241.31252049 288.16322219 241.33602929 291.89864298 241.36132812 295.63476562 C241.40037917 310.34247252 240.52052548 324.50702857 238 339 C237.80124268 340.18215088 237.60248535 341.36430176 237.39770508 342.58227539 C236.89684911 345.3804816 236.34550487 348.15804911 235.75 350.9375 C235.53875488 351.92580811 235.32750977 352.91411621 235.10986328 353.93237305 C227.63961982 387.70934967 213.67627915 418.80113546 195.27490234 447.95849609 C194.37848105 449.39393746 193.50013129 450.84074519 192.63525391 452.29541016 C192.19487793 453.02937012 191.75450195 453.76333008 191.30078125 454.51953125 C190.90673096 455.18702393 190.51268066 455.8545166 190.10668945 456.54223633 C189.74148193 457.02329834 189.37627441 457.50436035 189 458 C188.34 458 187.68 458 187 458 C186.78214844 458.67933594 186.56429687 459.35867188 186.33984375 460.05859375 C184.6014348 463.87498423 182.19685899 466.82364664 179.5625 470.0625 C178.58433643 471.28231239 177.60646391 472.50235823 176.62890625 473.72265625 C176.17016113 474.28871582 175.71141602 474.85477539 175.23876953 475.43798828 C174.20865163 476.7369032 173.23516286 478.08048422 172.27734375 479.43359375 C171.64505859 480.20896484 171.64505859 480.20896484 171 481 C170.34 481 169.68 481 169 481 C168.731875 481.5775 168.46375 482.155 168.1875 482.75 C166.97070811 485.05550043 165.69666121 487.02056192 164 489 C163.34 489 162.68 489 162 489 C162 489.66 162 490.32 162 491 C160.625 492.625 160.625 492.625 159 494 C158.34 494 157.68 494 157 494 C156.67 494.99 156.34 495.98 156 497 C155.34 497 154.68 497 154 497 C154 497.66 154 498.32 154 499 C152.625 500.625 152.625 500.625 151 502 C150.34 502 149.68 502 149 502 C149 502.66 149 503.32 149 504 C143.52380952 509 143.52380952 509 141 509 C140.67 509.99 140.34 510.98 140 512 C137.80692427 513.90260212 135.61779683 515.68209049 133.3125 517.4375 C132.69955078 517.91509766 132.08660156 518.39269531 131.45507812 518.88476562 C120.95759388 527 120.95759388 527 118 527 C118 527.66 118 528.32 118 529 C115.71792 530.59714886 113.44302513 532.0618978 111.0625 533.5 C110.34102783 533.94142334 109.61955566 534.38284668 108.8762207 534.83764648 C107.35046232 535.76781 105.82231778 536.69406907 104.29199219 537.61669922 C102.12809247 538.92269153 99.97390502 540.24351431 97.8203125 541.56640625 C87.55403475 547.80793325 76.99254842 553.15706696 66 558 C65.22350098 558.34272949 64.44700195 558.68545898 63.64697266 559.03857422 C41.09243595 568.84428227 17.29146783 575.29394334 -7 579 C-8.79074951 579.27928345 -8.79074951 579.27928345 -10.61767578 579.56420898 C-22.74012763 581.29969064 -34.8632605 581.33854558 -47.09033203 581.31567383 C-50.59830135 581.31252397 -54.10541603 581.33602275 -57.61328125 581.36132812 C-72.30475681 581.40269875 -86.50195086 580.37652009 -101 578 C-102.7929248 577.70984009 -102.7929248 577.70984009 -104.62207031 577.41381836 C-107.36677894 576.9322945 -110.08808092 576.39715146 -112.8125 575.8125 C-114.26897949 575.50276245 -114.26897949 575.50276245 -115.75488281 575.18676758 C-140.62622272 569.6710422 -164.49611489 560.89205037 -187 549 C-188.14082031 548.401875 -189.28164063 547.80375 -190.45703125 547.1875 C-193.65534071 545.48780529 -196.83223871 543.75591262 -200 542 C-201.14597656 541.36578125 -202.29195312 540.7315625 -203.47265625 540.078125 C-205.12587891 539.14226562 -205.12587891 539.14226562 -206.8125 538.1875 C-207.80894531 537.62417969 -208.80539062 537.06085937 -209.83203125 536.48046875 C-210.90517578 535.74763672 -210.90517578 535.74763672 -212 535 C-212 534.34 -212 533.68 -212 533 C-212.6909375 532.76152344 -213.381875 532.52304687 -214.09375 532.27734375 C-217.5410939 530.7621805 -220.46813212 528.76243217 -223.5 526.5625 C-224.10295898 526.12945557 -224.70591797 525.69641113 -225.32714844 525.25024414 C-230.94064695 521.15846835 -236.21418937 516.70819256 -241.453125 512.15234375 C-243.7875624 510.00798965 -243.7875624 510.00798965 -246 509 C-246 508.34 -246 507.68 -246 507 C-246.84933105 506.63745117 -246.84933105 506.63745117 -247.71582031 506.26757812 C-250.4522274 504.74904183 -252.33069338 502.92848119 -254.546875 500.71875 C-255.39121094 499.87699219 -256.23554688 499.03523438 -257.10546875 498.16796875 C-257.97816406 497.28753906 -258.85085938 496.40710938 -259.75 495.5 C-260.63816406 494.61957031 -261.52632813 493.73914063 -262.44140625 492.83203125 C-263.28058594 491.99027344 -264.11976563 491.14851563 -264.984375 490.28125 C-265.75491211 489.50845703 -266.52544922 488.73566406 -267.31933594 487.93945312 C-269 486 -269 486 -269 484 C-269.66 484 -270.32 484 -271 484 C-276 478.52380952 -276 478.52380952 -276 476 C-276.66 476 -277.32 476 -278 476 C-302.14290273 448.32129459 -321.01257359 412.13129474 -331.14453125 376.95703125 C-331.70348997 375.02492279 -332.30362162 373.1041288 -332.94921875 371.19921875 C-355.27677026 304.56956899 -345.99829657 224.52120226 -316 162 C-315.49984375 160.93523437 -314.9996875 159.87046875 -314.484375 158.7734375 C-309.68915061 148.83382189 -304.02874896 139.45625776 -298.25195312 130.06201172 C-297.22180379 128.3653188 -296.23720384 126.64105459 -295.265625 124.91015625 C-294.84796875 124.27980469 -294.4303125 123.64945312 -294 123 C-293.34 123 -292.68 123 -292 123 C-291.88527344 122.41734375 -291.77054687 121.8346875 -291.65234375 121.234375 C-290.95175938 118.83476865 -290.01807405 117.27139067 -288.5625 115.25 C-288.13066406 114.63640625 -287.69882812 114.0228125 -287.25390625 113.390625 C-286.63322266 112.70226562 -286.63322266 112.70226562 -286 112 C-285.34 112 -284.68 112 -284 112 C-283.62294922 110.9171875 -283.62294922 110.9171875 -283.23828125 109.8125 C-280.19464603 102.89951149 -274.34840852 97.21795953 -269 92 C-266.64897941 89.34893657 -264.31191369 86.68682501 -261.98828125 84.01171875 C-261.33214844 83.34785156 -260.67601562 82.68398438 -260 82 C-259.34 82 -258.68 82 -258 82 C-257.76539063 81.42894531 -257.53078125 80.85789062 -257.2890625 80.26953125 C-255.69927941 77.4705495 -253.8001626 75.8010705 -251.375 73.6875 C-250.02921875 72.50800781 -250.02921875 72.50800781 -248.65625 71.3046875 C-247.7796875 70.54414063 -246.903125 69.78359375 -246 69 C-245.2884375 68.36320312 -244.576875 67.72640625 -243.84375 67.0703125 C-231.445 56 -231.445 56 -228 56 C-227.67 55.01 -227.34 54.02 -227 53 C-225.4765625 51.61328125 -225.4765625 51.61328125 -223.625 50.3125 C-223.01914062 49.87550781 -222.41328125 49.43851562 -221.7890625 48.98828125 C-220 48 -220 48 -217 48 C-217 47.34 -217 46.68 -217 46 C-215.32275391 44.76660156 -215.32275391 44.76660156 -212.9765625 43.390625 C-212.11933594 42.88273437 -211.26210938 42.37484375 -210.37890625 41.8515625 C-209.47011719 41.32304687 -208.56132812 40.79453125 -207.625 40.25 C-206.75488281 39.73695313 -205.88476562 39.22390625 -204.98828125 38.6953125 C-203.2175844 37.65125717 -201.44467766 36.61094151 -199.66967773 35.57421875 C-197.03588006 34.02115726 -194.43085373 32.42623012 -191.82421875 30.828125 C-187.72610247 28.36506691 -183.60069878 26.32611223 -179.1875 24.5 C-177.79762714 23.91014832 -176.4083109 23.31898351 -175.01953125 22.7265625 C-174.34100098 22.43813477 -173.6624707 22.14970703 -172.96337891 21.85253906 C-170.06791775 20.59527092 -167.22478902 19.23204239 -164.375 17.875 C-114.35286218 -5.24036442 -53.81799865 -9.4290581 0 0 Z " fill="#074CA6" transform="translate(563,223)"/>
<path d="M0 0 C9.21806605 7.33797469 17.39859988 16.18195742 25.74609375 24.47265625 C26.48339281 25.20463163 27.22069187 25.93660702 27.98033333 26.69076347 C31.8708416 30.55474102 35.75780236 34.42225098 39.64233398 38.29223633 C42.84474523 41.4812446 46.0542973 44.66279763 49.27026367 47.83813477 C53.17678515 51.69533606 57.07088554 55.56467106 60.95637703 59.44305229 C62.43168152 60.9116581 63.91122642 62.37601739 65.39513969 63.83592415 C67.46736168 65.87647582 69.52319861 67.93229684 71.57592773 69.99243164 C72.18528168 70.58538025 72.79463562 71.17832886 73.42245483 71.78924561 C78.12707312 76.56352008 80.48331691 81.18566306 81.3984375 87.94140625 C81.32063511 96.64230668 79.07398181 102.14844345 73.40234375 108.71484375 C72 110 72 110 70 110 C70 110.66 70 111.32 70 112 C68.625 113.625 68.625 113.625 67 115 C66.34 115 65.68 115 65 115 C65 115.66 65 116.32 65 117 C63.6796875 118.26171875 63.6796875 118.26171875 61.875 119.6875 C58.6618296 122.34129256 55.9949548 125.16627715 53.359375 128.38671875 C51.97372316 130.03118487 50.60752678 131.56964687 49 133 C48.34 133 47.68 133 47 133 C47 133.66 47 134.32 47 135 C45.6796875 136.26171875 45.6796875 136.26171875 43.875 137.6875 C40.6618296 140.34129256 37.9949548 143.16627715 35.359375 146.38671875 C33.97372316 148.03118487 32.60752678 149.56964687 31 151 C30.34 151 29.68 151 29 151 C29 151.66 29 152.32 29 153 C27.625 154.625 27.625 154.625 26 156 C25.34 156 24.68 156 24 156 C24 156.66 24 157.32 24 158 C22.609375 159.33203125 22.609375 159.33203125 20.75 160.8125 C17.73231709 163.29370595 15.43204176 165.9374289 13 169 C12.34 169 11.68 169 11 169 C11 169.66 11 170.32 11 171 C9.625 172.625 9.625 172.625 8 174 C7.34 174 6.68 174 6 174 C6 174.66 6 175.32 6 176 C4.609375 177.33203125 4.609375 177.33203125 2.75 178.8125 C-0.26768291 181.29370595 -2.56795824 183.9374289 -5 187 C-5.66 187 -6.32 187 -7 187 C-7 187.66 -7 188.32 -7 189 C-8.375 190.625 -8.375 190.625 -10 192 C-10.66 192 -11.32 192 -12 192 C-12 192.66 -12 193.32 -12 194 C-13.3203125 195.26171875 -13.3203125 195.26171875 -15.125 196.6875 C-18.3381704 199.34129256 -21.0050452 202.16627715 -23.640625 205.38671875 C-25.02627684 207.03118487 -26.39247322 208.56964687 -28 210 C-28.66 210 -29.32 210 -30 210 C-30 210.66 -30 211.32 -30 212 C-31.3203125 213.26171875 -31.3203125 213.26171875 -33.125 214.6875 C-36.3381704 217.34129256 -39.0050452 220.16627715 -41.640625 223.38671875 C-43.02627684 225.03118487 -44.39247322 226.56964687 -46 228 C-46.66 228 -47.32 228 -48 228 C-48 228.66 -48 229.32 -48 230 C-49.375 231.625 -49.375 231.625 -51 233 C-51.66 233 -52.32 233 -53 233 C-53 233.66 -53 234.32 -53 235 C-54.390625 236.33203125 -54.390625 236.33203125 -56.25 237.8125 C-59.26768291 240.29370595 -61.56795824 242.9374289 -64 246 C-64.66 246 -65.32 246 -66 246 C-66 246.66 -66 247.32 -66 248 C-67.375 249.625 -67.375 249.625 -69 251 C-69.66 251 -70.32 251 -71 251 C-71 251.66 -71 252.32 -71 253 C-72.390625 254.33203125 -72.390625 254.33203125 -74.25 255.8125 C-77.26768291 258.29370595 -79.56795824 260.9374289 -82 264 C-82.66 264 -83.32 264 -84 264 C-84 264.66 -84 265.32 -84 266 C-85.375 267.625 -85.375 267.625 -87 269 C-87.66 269 -88.32 269 -89 269 C-89 269.66 -89 270.32 -89 271 C-90.3203125 272.26171875 -90.3203125 272.26171875 -92.125 273.6875 C-95.3381704 276.34129256 -98.0050452 279.16627715 -100.640625 282.38671875 C-102.02627684 284.03118487 -103.39247322 285.56964687 -105 287 C-105.66 287 -106.32 287 -107 287 C-107 287.66 -107 288.32 -107 289 C-107.99 289 -108.98 289 -110 289 C-110.33 289.99 -110.66 290.98 -111 292 C-116.18692471 294.59346235 -122.33134641 294.877823 -128 294 C-136.63817041 290.77794329 -142.41527648 284.15546667 -148.77832031 277.75512695 C-150.05296564 276.48754613 -151.32845023 275.22080878 -152.60470581 273.95484924 C-156.05601618 270.52598216 -159.49455096 267.08457009 -162.93020725 263.64002633 C-165.8041105 260.76100213 -168.68420907 257.88821617 -171.56431079 255.01539487 C-178.36052649 248.236162 -185.14642772 241.44672712 -191.92578125 234.65063477 C-198.91047974 227.64901342 -205.91140483 220.66393076 -212.92069936 213.68693954 C-218.94783336 207.68652831 -224.96517844 201.67642513 -230.97472453 195.65839928 C-234.55980386 192.06839906 -238.148331 188.48203441 -241.7461319 184.90477943 C-245.12930893 181.54000158 -248.5000357 178.16322134 -251.86172867 174.77698326 C-253.09414301 173.53957474 -254.33079141 172.30636591 -255.57204056 171.07781982 C-269.86222632 156.92231545 -269.86222632 156.92231545 -270.5 146.5 C-270.01788867 137.43564094 -264.90345279 131.16617196 -258.68041992 125.04931641 C-257.9498085 124.31154968 -257.21919708 123.57378296 -256.46644592 122.81365967 C-254.06667286 120.39708407 -251.64933489 117.99901502 -249.23046875 115.6015625 C-247.54821243 113.91847686 -245.86677235 112.23457501 -244.18611145 110.54989624 C-240.66934006 107.03027276 -237.14398145 103.51955585 -233.61206055 100.01513672 C-229.09083961 95.52803551 -224.59000054 91.02112176 -220.09517956 86.50759315 C-216.62902189 83.03085739 -213.1531647 79.56395314 -209.67421913 76.10001755 C-208.01088364 74.44185562 -206.35035975 72.78086825 -204.69273949 71.11699295 C-202.37404519 68.79283561 -200.04281272 66.48202663 -197.70776367 64.17431641 C-197.02855865 63.48858551 -196.34935364 62.80285461 -195.64956665 62.09634399 C-190.1735094 56.72860003 -185.10436627 53.5999528 -177.1875 53.4375 C-170.75166969 53.57546862 -165.8822531 55.83064226 -161 60 C-161 60.66 -161 61.32 -161 62 C-160.34 62 -159.68 62 -159 62 C-159 62.66 -159 63.32 -159 64 C-157.515 64.495 -157.515 64.495 -156 65 C-156 65.66 -156 66.32 -156 67 C-155.360625 67.268125 -154.72125 67.53625 -154.0625 67.8125 C-152 69 -152 69 -151 72 C-149.515 72.495 -149.515 72.495 -148 73 C-148 73.66 -148 74.32 -148 75 C-147.34 75 -146.68 75 -146 75 C-146 75.66 -146 76.32 -146 77 C-144.515 77.495 -144.515 77.495 -143 78 C-143 78.66 -143 79.32 -143 80 C-142.34 80 -141.68 80 -141 80 C-141 80.66 -141 81.32 -141 82 C-140.01 82.33 -139.02 82.66 -138 83 C-138 83.66 -138 84.32 -138 85 C-137.360625 85.268125 -136.72125 85.53625 -136.0625 85.8125 C-134 87 -134 87 -133 90 C-132.01 90.33 -131.02 90.66 -130 91 C-130 91.66 -130 92.32 -130 93 C-129.34 93 -128.68 93 -128 93 C-128 93.66 -128 94.32 -128 95 C-127.01 95.33 -126.02 95.66 -125 96 C-125 96.66 -125 97.32 -125 98 C-122.52733235 97.65555119 -122.52733235 97.65555119 -120 97 C-119.67 96.34 -119.34 95.68 -119 95 C-118.34 95 -117.68 95 -117 95 C-116.67 94.01 -116.34 93.02 -116 92 C-115.34 92 -114.68 92 -114 92 C-114 91.34 -114 90.68 -114 90 C-113.34 90 -112.68 90 -112 90 C-111.67 89.01 -111.34 88.02 -111 87 C-110.34 87 -109.68 87 -109 87 C-109 86.34 -109 85.68 -109 85 C-107.625 83.375 -107.625 83.375 -106 82 C-105.34 82 -104.68 82 -104 82 C-104 81.34 -104 80.68 -104 80 C-102.625 78.375 -102.625 78.375 -101 77 C-100.34 77 -99.68 77 -99 77 C-99 76.34 -99 75.68 -99 75 C-97.625 73.375 -97.625 73.375 -96 72 C-95.34 72 -94.68 72 -94 72 C-93.67 71.01 -93.34 70.02 -93 69 C-92.34 69 -91.68 69 -91 69 C-91 68.34 -91 67.68 -91 67 C-89.625 65.375 -89.625 65.375 -88 64 C-87.34 64 -86.68 64 -86 64 C-86 63.34 -86 62.68 -86 62 C-84.625 60.375 -84.625 60.375 -83 59 C-82.34 59 -81.68 59 -81 59 C-81 58.34 -81 57.68 -81 57 C-79.625 55.375 -79.625 55.375 -78 54 C-77.34 54 -76.68 54 -76 54 C-75.67 53.01 -75.34 52.02 -75 51 C-74.34 51 -73.68 51 -73 51 C-73 50.34 -73 49.68 -73 49 C-72.34 49 -71.68 49 -71 49 C-70.67 48.01 -70.34 47.02 -70 46 C-69.34 46 -68.68 46 -68 46 C-68 45.34 -68 44.68 -68 44 C-66.625 42.375 -66.625 42.375 -65 41 C-64.34 41 -63.68 41 -63 41 C-63 40.34 -63 39.68 -63 39 C-61.625 37.375 -61.625 37.375 -60 36 C-59.34 36 -58.68 36 -58 36 C-57.67 35.01 -57.34 34.02 -57 33 C-56.34 33 -55.68 33 -55 33 C-55 32.34 -55 31.68 -55 31 C-54.34 31 -53.68 31 -53 31 C-52.67 30.01 -52.34 29.02 -52 28 C-51.34 28 -50.68 28 -50 28 C-50 27.34 -50 26.68 -50 26 C-48.625 24.375 -48.625 24.375 -47 23 C-46.34 23 -45.68 23 -45 23 C-45 22.34 -45 21.68 -45 21 C-43.625 19.375 -43.625 19.375 -42 18 C-41.34 18 -40.68 18 -40 18 C-39.67 17.01 -39.34 16.02 -39 15 C-38.34 15 -37.68 15 -37 15 C-37 14.34 -37 13.68 -37 13 C-36.34 13 -35.68 13 -35 13 C-34.67 12.01 -34.34 11.02 -34 10 C-33.34 10 -32.68 10 -32 10 C-32 9.34 -32 8.68 -32 8 C-30.625 6.375 -30.625 6.375 -29 5 C-28.34 5 -27.68 5 -27 5 C-27 4.34 -27 3.68 -27 3 C-25.390625 1.74609375 -25.390625 1.74609375 -23.25 0.4375 C-22.55390625 0.00308594 -21.8578125 -0.43132812 -21.140625 -0.87890625 C-14.33379119 -4.44379914 -6.60829958 -3.74032198 0 0 Z M-12 49 C-12.48554037 49.49014934 -12.97108074 49.98029867 -13.47133446 50.48530102 C-25.31054092 62.43514139 -37.16370776 74.37093943 -49.03241539 86.29147625 C-54.77180699 92.05660109 -60.50645061 97.82630171 -66.22998047 103.60717773 C-71.22118662 108.64836848 -76.22125039 113.68057683 -81.23195136 118.70239383 C-83.88246445 121.35940022 -86.52846643 124.02056091 -89.16389084 126.69254112 C-91.64983702 129.21268503 -94.14755322 131.7205586 -96.65438461 134.21992302 C-97.99921586 135.56676358 -99.33164076 136.92595728 -100.66351318 138.28561401 C-106.85815326 144.42842515 -113.50673587 149.84929952 -122.5 150.625 C-132.72197733 149.93643441 -139.97189673 142.72810039 -146.7265625 135.76171875 C-148.03710098 134.44056816 -148.03710098 134.44056816 -149.37411499 133.09272766 C-152.13646925 130.30259355 -154.88083349 127.49551235 -157.625 124.6875 C-159.50391982 122.7806273 -161.38683111 120.87775586 -163.26953125 118.97460938 C-167.85979346 114.3294953 -172.43544882 109.67037428 -177 105 C-182.39190397 109.4978935 -187.39391684 114.26126542 -192.33984375 119.2421875 C-193.10680069 120.01055939 -193.87375763 120.77893127 -194.66395569 121.57058716 C-197.0908474 124.00303509 -199.51422127 126.43895322 -201.9375 128.875 C-203.59156486 130.53408552 -205.24585945 132.19294202 -206.90039062 133.8515625 C-210.9362546 137.89839736 -214.96903679 141.94828428 -219 146 C-214.29596268 151.65388366 -209.26744481 156.86892527 -204.05712891 162.05639648 C-203.1784314 162.93524002 -202.29973389 163.81408356 -201.39440918 164.71955872 C-199.00407883 167.10931511 -196.61156392 169.4968428 -194.21801805 171.88337588 C-191.70981475 174.38529346 -189.20447611 176.89007639 -186.69882202 179.39454651 C-181.96237186 184.12789866 -177.22338023 188.85869768 -172.4834522 193.58856684 C-167.08360458 198.97720561 -161.68662373 204.36871174 -156.28987241 209.7604512 C-145.19641732 220.84347658 -134.0993981 231.92292622 -123 243 C-118.33651799 239.10038274 -113.90710586 235.05295326 -109.61549377 230.74920654 C-109.01331416 230.14929248 -108.41113454 229.54937842 -107.79070705 228.93128514 C-105.79243196 226.93929304 -103.7976999 224.94379236 -101.80297852 222.94824219 C-100.3637393 221.51199777 -98.92429605 220.07595778 -97.48466492 218.6401062 C-93.59020724 214.75445366 -89.69897197 210.86558971 -85.80859494 206.97585201 C-83.37871848 204.54668729 -80.94813103 202.11823635 -78.5172863 199.69004059 C-70.04032746 191.222319 -61.56594163 182.75203226 -53.09399414 174.27929688 C-45.18851438 166.37321464 -37.27745578 158.47274518 -29.36380059 150.57484698 C-22.57034941 143.79444251 -15.78072974 137.01021768 -8.99411911 130.22296643 C-4.93994674 126.16853851 -0.88421994 122.1156953 3.1753521 118.06667328 C6.98579522 114.26586447 10.79147051 110.46034736 14.59344292 106.65106583 C15.99300923 105.25044828 17.39430289 103.85155446 18.79739761 102.45447159 C20.70435555 100.55515993 22.60512476 98.64986902 24.50437927 96.74285889 C25.06768289 96.18469884 25.6309865 95.62653879 26.21135992 95.0514648 C29.09858914 92.50409563 29.09858914 92.50409563 30 89 C28.64138819 87.66213638 28.64138819 87.66213638 26.875 86.3125 C24.33284884 84.21356958 22.14860266 82.11409665 20.0625 79.5625 C17.29535702 76.20345478 14.18240451 73.49413918 10.87109375 70.68359375 C8.29045406 68.36155678 6.2204056 65.66448672 4 63 C2.01494532 61.17358698 -0.02026896 59.42024658 -2.07421875 57.671875 C-4.50206135 55.56413335 -6.72743549 53.27256451 -9 51 C-9.99 50.34 -10.98 49.68 -12 49 Z " fill="#074CA6" transform="translate(606,366)"/>
<path d="M0 0 C5.356406 4.18432592 8.70662777 9.68368735 9.78515625 16.39453125 C9.55796473 23.55106421 7.39123714 29.06953149 2.97265625 34.70703125 C-3.29802039 39.54441037 -9.46351606 40.37740854 -17.21484375 39.39453125 C-23.44720876 37.59549805 -27.66490984 33.73110953 -31.21484375 28.39453125 C-33.69706396 23.09160625 -34.2013065 17.69581853 -32.52734375 12.09375 C-29.98873827 5.80012392 -26.63282189 1.14326425 -20.52734375 -1.98046875 C-13.395695 -3.32606285 -6.44835862 -3.74719813 0 0 Z " fill="#074CA6" transform="translate(720.21484375,305.60546875)"/>
</svg>
