<?xml version="1.0" encoding="UTF-8"?>
<svg version="1.1" xmlns="http://www.w3.org/2000/svg" width="1024" height="1024">
<path d="M0 0 C0 0.66 0 1.32 0 2 C0.5775 2.2475 1.155 2.495 1.75 2.75 C4.32939979 4.18299988 6.06121592 5.78424676 8 8 C8 8.66 8 9.32 8 10 C8.66 10 9.32 10 10 10 C10.78130543 11.30629327 11.54933177 12.62052827 12.3125 13.9375 C12.95638672 15.03384766 12.95638672 15.03384766 13.61328125 16.15234375 C17.20591544 23.52989396 18.46739825 30.00267637 18.3125 38.1875 C18.31733398 39.48204102 18.31733398 39.48204102 18.32226562 40.80273438 C18.2897147 44.67037638 18.13926726 47.6108845 16.82421875 51.28515625 C15.7113305 53.99797441 15.7113305 53.99797441 16.90625 56.640625 C17.4321875 57.50171875 17.958125 58.3628125 18.5 59.25 C19.35271484 60.68666016 19.35271484 60.68666016 20.22265625 62.15234375 C20.80917969 63.09207031 21.39570312 64.03179687 22 65 C22.98197923 66.60244652 23.96123876 68.2065635 24.9375 69.8125 C25.42992187 70.62203125 25.92234375 71.4315625 26.4296875 72.265625 C28.60777424 76.05831336 30.53041622 79.96781233 32.46240234 83.88891602 C35.64654954 90.3445319 39.10877651 96.55620741 42.875 102.6875 C45.57159913 107.14066243 47.89231079 111.72473168 50.1809082 116.3984375 C53.51791613 123.15417599 57.26379526 129.67108682 60.98925781 136.21777344 C64.2183059 141.91150556 67.31219083 147.67569808 70.34375 153.4765625 C74.54873507 161.52095149 78.80449675 169.47844257 83.44140625 177.28515625 C84.96583775 179.94049432 86.34187438 182.6252433 87.6875 185.375 C93.55438103 197.32955865 100.01154437 209.05223758 106.8125 220.5 C109.25792575 224.61923658 111.45373265 228.826028 113.5625 233.125 C115.97976885 238.04567646 118.58769532 242.71627329 121.46875 247.375 C123.63884577 251.09516417 125.50078605 254.95783087 127.39233398 258.82373047 C129.55922896 263.21490578 131.9783574 267.36754778 134.546875 271.53125 C136.10333326 274.17555544 137.46413124 276.86899353 138.8125 279.625 C141.21027445 284.52124284 143.8016288 289.26610376 146.5 294 C149.06874053 298.50847707 151.55227291 303.01369709 153.8125 307.6875 C157.06760993 314.35229212 160.82275995 320.7170013 164.53295898 327.13476562 C168.09007998 333.3199047 171.36080768 339.56285863 174.47265625 345.984375 C176.3438161 349.67883894 178.47528857 353.15530497 180.73828125 356.62109375 C185.28606565 365.19570891 185.17921494 375.724044 183.41796875 385.09765625 C181.07981672 392.51781908 176.47352443 398.53704222 171 404 C170.34 404 169.68 404 169 404 C168.75378906 404.55816406 168.50757813 405.11632812 168.25390625 405.69140625 C166.76825801 408.42666516 164.95744807 410.5684251 162.9375 412.9375 C158.92807645 417.73842788 155.34219249 422.70099743 151.91967773 427.93530273 C150.99417614 429.32323897 150.00262017 430.66670595 149 432 C148.34 432 147.68 432 147 432 C146.690625 432.99 146.690625 432.99 146.375 434 C144.78434662 437.47051646 142.70767229 440.15710621 140.33984375 443.1328125 C138.81385317 445.06483629 138.81385317 445.06483629 138 448 C137.34 448 136.68 448 136 448 C135.88785156 448.58265625 135.77570313 449.1653125 135.66015625 449.765625 C134.93429359 452.22239092 133.94947501 453.69008854 132.4375 455.75 C128.27836476 461.80960135 125.20411386 468.36629343 121.99804688 474.95996094 C121.04897684 476.8998898 120.08375867 478.83049386 119.109375 480.7578125 C118.21992187 482.51738281 118.21992187 482.51738281 117.3125 484.3125 C116.79300781 485.33988281 116.27351563 486.36726563 115.73828125 487.42578125 C115.16464844 488.60527344 114.59101562 489.78476562 114 491 C113.4428833 492.1439624 113.4428833 492.1439624 112.87451172 493.31103516 C109.12768803 501.24957166 106.25786654 509.43135552 103.5 517.75 C103.25943878 518.47210663 103.01887756 519.19421326 102.77102661 519.9382019 C98.62844673 532.43865768 95.0860039 544.97481222 93 558 C92.73268066 559.59497314 92.73268066 559.59497314 92.45996094 561.22216797 C90.46831852 574.74559944 90.54684777 588.35600321 90.375 602 C90.33673613 604.52865804 90.29767981 607.05730423 90.2578125 609.5859375 C90.16274222 615.72385155 90.07744066 621.86183951 90 628 C90.61228455 627.99111755 91.22456909 627.98223511 91.85540771 627.9730835 C98.28029966 627.88396667 104.70501347 627.8240012 111.13037109 627.78027344 C113.52204532 627.76027023 115.91367133 627.73305876 118.30517578 627.69824219 C121.76086386 627.64922534 125.21590033 627.62691738 128.671875 627.609375 C129.72550232 627.58872986 130.77912964 627.56808472 131.86468506 627.54681396 C145.18895417 627.5428679 155.99593817 632.33499726 165.75 641.25 C175.39569441 651.38805004 176.35512627 663.95661645 176.31567383 677.20825195 C176.31251203 679.42904714 176.33603508 681.6485092 176.36132812 683.86914062 C176.39472782 691.33585618 176.18530135 698.10133141 173 705 C172.649375 705.82113281 172.29875 706.64226563 171.9375 707.48828125 C168.38812583 714.39477182 168.38812583 714.39477182 166 717 C165.34 717 164.68 717 164 717 C163.67 717.99 163.34 718.98 163 720 C160.63671875 721.7890625 160.63671875 721.7890625 157.6875 723.625 C156.72199219 724.23601563 155.75648438 724.84703125 154.76171875 725.4765625 C152.37812017 726.79141886 150.60900943 727.42207914 148 728 C148.00888245 729.21585281 148.01776489 730.43170563 148.0269165 731.68440247 C148.10820179 743.17423277 148.16806103 754.6640043 148.20724869 766.1540575 C148.22807314 772.06042836 148.25629687 777.96656604 148.30175781 783.87280273 C148.34539882 789.57866884 148.36917574 795.28431145 148.37950897 800.99033165 C148.38686762 803.16111453 148.40123698 805.33188596 148.42292023 807.50257301 C148.55899991 821.69714723 148.38090579 832.98426945 139.3671875 844.63671875 C138 846 138 846 136 846 C136 846.66 136 847.32 136 848 C135.01 848 134.02 848 133 848 C133 848.66 133 849.32 133 850 C125.55661615 855.41337007 117.7432513 855.29158127 108.91227722 855.26742554 C107.6964533 855.27195665 106.48062938 855.27648776 105.22796232 855.28115618 C101.8653438 855.29160613 98.50293963 855.29312952 95.14032018 855.29076743 C91.50898235 855.29035846 87.87767615 855.30140605 84.24635315 855.31088257 C77.13653915 855.32747584 70.02675833 855.33299135 62.91692659 855.33410732 C57.13628176 855.33505855 51.35564785 855.33917258 45.57500648 855.34550858 C29.17643115 855.36311609 12.77788196 855.37234816 -3.6207029 855.37084763 C-4.50424253 855.37076772 -5.38778215 855.3706878 -6.2980957 855.37060547 C-7.62502808 855.37048283 -7.62502808 855.37048283 -8.97876718 855.37035771 C-23.31436734 855.36954485 -37.64986242 855.38868366 -51.98543219 855.4168822 C-66.7142912 855.44562517 -81.44309899 855.45942173 -96.17198676 855.45769465 C-104.43746008 855.45703126 -112.70282323 855.46250136 -120.96827126 855.48405075 C-128.00562187 855.50228112 -135.04281236 855.50659467 -142.08017639 855.4930319 C-145.66832316 855.48651166 -149.25616288 855.48635046 -152.84428024 855.5037384 C-156.74010357 855.52242277 -160.635481 855.50988993 -164.53132629 855.49447632 C-165.65692563 855.50476344 -166.78252497 855.51505057 -167.94223338 855.52564943 C-179.06836842 855.42852601 -186.78747715 852.11201172 -194.80078125 844.42578125 C-202.74919131 835.65852966 -204.29018964 825.64541173 -204.31884766 814.16577148 C-204.32889328 813.22811447 -204.3389389 812.29045746 -204.34928894 811.3243866 C-204.37992758 808.25662797 -204.39710199 805.18895583 -204.4140625 802.12109375 C-204.43278971 799.98160569 -204.45236426 797.8421249 -204.4727478 795.70265198 C-204.52391091 790.09516701 -204.56362107 784.48765814 -204.60089111 778.88006592 C-204.64103026 773.1485002 -204.69207726 767.41703256 -204.7421875 761.68554688 C-204.83875933 750.45710031 -204.92322375 739.22859816 -205 728 C-205.5450972 727.7353595 -206.0901944 727.47071899 -206.65180969 727.19805908 C-207.72775642 726.66931183 -207.72775642 726.66931183 -208.82543945 726.12988281 C-209.53553665 725.78274231 -210.24563385 725.43560181 -210.97724915 725.07794189 C-220.27785648 720.12156565 -226.6659694 711.69309093 -229.75 701.8125 C-231.84980172 694.25565545 -232.21474231 687.26030082 -232.25 679.4375 C-232.270625 678.32052734 -232.29125 677.20355469 -232.3125 676.05273438 C-232.37877988 661.76113482 -229.08181796 649.65269336 -219.265625 639.109375 C-209.31850221 629.84826068 -197.84524245 627.51884468 -184.6484375 627.70703125 C-183.50839264 627.71127609 -182.36834778 627.71552094 -181.1937561 627.71989441 C-177.58725387 627.73655666 -173.98133057 627.77418605 -170.375 627.8125 C-167.91537271 627.82756291 -165.45573657 627.84124849 -162.99609375 627.85351562 C-156.99720155 627.88641929 -150.99864216 627.9364931 -145 628 C-145.12057389 622.79361152 -145.24489432 617.58732895 -145.37231445 612.38110352 C-145.41494771 610.61940789 -145.45665248 608.85768949 -145.49731445 607.09594727 C-145.71581857 597.65710877 -145.98782876 588.22341429 -146.44921875 578.79296875 C-146.48317245 578.04536789 -146.51712616 577.29776703 -146.55210876 576.5275116 C-147.10961294 565.91118655 -149.08090443 555.47799342 -151.6875 545.1875 C-155.25102006 529.9317817 -155.25102006 529.9317817 -151.53515625 523.44140625 C-148.24235499 519.5359908 -145.8075836 517.27271115 -140.546875 516.76171875 C-134.0711766 516.58987759 -130.13336987 516.91425663 -125 521 C-121.12338677 526.67327437 -119.75336452 532.18491438 -118.4375 538.875 C-118.24220703 539.77863281 -118.04691406 540.68226563 -117.84570312 541.61328125 C-113.62277395 562.32901849 -112.57081279 582.97491064 -112.8125 604.0625 C-112.82760833 606.40559014 -112.84128561 608.74868995 -112.85351562 611.09179688 C-112.8859553 616.72808252 -112.93564436 622.36399281 -113 628 C-112.06341049 627.99111755 -111.12682098 627.98223511 -110.16184998 627.9730835 C-101.31969648 627.89186871 -92.47761902 627.83197288 -83.63517666 627.79275131 C-79.08955228 627.77190888 -74.5442299 627.74365271 -69.9987793 627.69824219 C-65.60914723 627.65466459 -61.21980497 627.63083775 -56.82997322 627.62049103 C-55.15826928 627.61312097 -53.48658054 627.59872888 -51.81500053 627.57707977 C-49.46673638 627.54788632 -47.11965772 627.54405048 -44.77124023 627.54589844 C-44.08575104 627.53151733 -43.40026184 627.51713623 -42.69400024 627.50231934 C-36.30478389 627.55644382 -32.15881355 629.92865864 -27.58984375 634.3125 C-25.56519983 637.7349939 -25.49854487 640.04330902 -25.5625 644 C-25.56443359 645.794375 -25.56443359 645.794375 -25.56640625 647.625 C-26.22130037 652.72255425 -27.66236543 654.95030821 -31.69311523 658.11338806 C-37.55138494 661.3217245 -44.33163337 660.54485602 -50.8203125 660.49829102 C-52.32721492 660.50211775 -53.83411369 660.50773981 -55.34100342 660.51501465 C-58.57621723 660.52693631 -61.81110632 660.52649851 -65.04632568 660.51642036 C-70.16527928 660.50082021 -75.28390129 660.51456458 -80.40283203 660.53245544 C-90.34508331 660.56323696 -100.28723258 660.564778 -110.22952271 660.56280518 C-122.88472644 660.56141117 -135.53985177 660.57179437 -148.19499779 660.6113829 C-153.28029787 660.62629401 -158.36530283 660.62606346 -163.4506073 660.61390507 C-166.61727429 660.60918585 -169.7838289 660.61672657 -172.9504776 660.62744904 C-174.41497124 660.62984987 -175.87948389 660.6271386 -177.34395599 660.61884117 C-187.61586317 660.41897559 -187.61586317 660.41897559 -197 664 C-200.19400122 668.22894129 -199.36839521 673.80912435 -199.375 678.875 C-199.41173828 680.34646484 -199.41173828 680.34646484 -199.44921875 681.84765625 C-199.47362859 687.87688621 -199.05594847 691.43140376 -195 696 C-192.40248264 697.29875868 -190.5243833 697.12658233 -187.6141386 697.12863445 C-186.46371946 697.1318589 -185.31330032 697.13508335 -184.12801999 697.1384055 C-182.215855 697.1360826 -182.215855 697.1360826 -180.26506042 697.13371277 C-178.90571301 697.13557952 -177.54636614 697.13787968 -176.18702012 697.14057809 C-172.43866643 697.14671939 -168.69033496 697.14655977 -164.94197738 697.14538372 C-160.90438418 697.14518029 -156.86679823 697.15069291 -152.82920837 697.15544128 C-144.91359627 697.1637614 -136.9979916 697.16649675 -129.08237549 697.16705366 C-122.64987453 697.16752823 -116.21737604 697.16957998 -109.78487587 697.17275429 C-91.56063486 697.18156495 -73.33639975 697.18617308 -55.11215659 697.18542381 C-53.63726042 697.18536388 -53.63726042 697.18536388 -52.13256836 697.18530273 C-51.14810804 697.18526185 -50.16364772 697.18522097 -49.14935527 697.18517885 C-33.19346281 697.18477237 -17.23759395 697.19434129 -1.28170832 697.2084411 C15.08887047 697.22279356 31.45943774 697.22971189 47.83002299 697.22884732 C57.02596735 697.22851494 66.22188699 697.23128008 75.4178257 697.24202538 C83.24774499 697.25111558 91.07762834 697.25331788 98.90755061 697.24651595 C102.90405996 697.2432431 106.90050031 697.2432215 110.89700317 697.2518692 C114.55427989 697.2597016 118.2114325 697.25833635 121.86870607 697.24958507 C123.8214043 697.24731118 125.77410628 697.2549043 127.72678977 697.26282471 C128.88503216 697.25822592 130.04327454 697.25362712 131.23661518 697.24888897 C132.23609411 697.24910634 133.23557303 697.24932371 134.2653392 697.24954766 C137.20789562 696.98102877 139.36282701 696.31948614 142 695 C143.35771504 691.99274774 143.12897406 688.76376953 143.1328125 685.5 C143.13474609 683.9221875 143.13474609 683.9221875 143.13671875 682.3125 C143.13285156 681.219375 143.12898438 680.12625 143.125 679 C143.12886719 677.906875 143.13273437 676.81375 143.13671875 675.6875 C143.13542969 674.635625 143.13414062 673.58375 143.1328125 672.5 C143.13168457 671.5409375 143.13055664 670.581875 143.12939453 669.59375 C143.01149626 667.23044573 142.60821494 665.2724199 142 663 C135.51826016 661.07104963 129.64599578 660.71708274 122.90576172 660.74462891 C121.82183136 660.74100845 120.737901 660.737388 119.62112427 660.73365784 C117.27929396 660.72679033 114.93744774 660.72425341 112.59560776 660.72560501 C108.88826477 660.72657332 105.18120923 660.71359323 101.47390747 660.69662476 C90.93754001 660.65043317 80.40120404 660.62573254 69.86474609 660.61914062 C63.41040884 660.61412969 56.95637469 660.58990689 50.50214005 660.55381393 C48.04537906 660.54401239 45.58857642 660.54168589 43.13180161 660.54698563 C39.69935336 660.55404613 36.26781175 660.53679558 32.83544922 660.51416016 C31.82230652 660.52233261 30.80916382 660.53050507 29.76531982 660.53892517 C24.00723808 660.47133886 20.51133958 659.94898901 16 656 C12.34044731 651.18479909 11.33637963 647.47297432 11.62109375 641.4296875 C12.25508652 637.36429057 13.44195303 635.2795474 16 632 C21.10618596 628.47510243 24.88398062 627.42739392 31.12109375 627.609375 C32.23823509 627.61786469 32.23823509 627.61786469 33.37794495 627.62652588 C35.7318138 627.6487265 38.0840997 627.6988863 40.4375 627.75 C42.04359764 627.77008634 43.6497194 627.78833336 45.25585938 627.8046875 C49.1711729 627.84853691 53.0853191 627.91744529 57 628 C56.98428955 626.89003662 56.9685791 625.78007324 56.95239258 624.63647461 C56.58327287 595.95123985 56.42633496 567.11415672 63 539 C63.17789062 538.22688477 63.35578125 537.45376953 63.5390625 536.65722656 C66.11460125 525.56094713 69.0935952 514.70802655 73 504 C73.29277832 503.1941748 73.58555664 502.38834961 73.88720703 501.55810547 C79.50189545 486.21547696 86.05461809 471.63136828 93.5625 457.125 C94.00956299 456.25681641 94.45662598 455.38863281 94.91723633 454.49414062 C97.5647894 449.44565586 100.45364505 444.69864029 103.66772461 439.99169922 C105.28396157 437.57548864 106.66240512 435.07964727 108 432.5 C113.4513548 422.3289196 113.4513548 422.3289196 117 418 C117.66 418 118.32 418 119 418 C119 417.01 119 416.02 119 415 C119.66 415 120.32 415 121 415 C121.23589844 414.30132813 121.47179687 413.60265625 121.71484375 412.8828125 C123.2271617 409.49043971 125.26975179 406.7616974 127.5625 403.875 C128.00215088 403.31240479 128.44180176 402.74980957 128.89477539 402.17016602 C132.55742031 397.50378713 136.30510425 392.9076328 140.08984375 388.33984375 C141.32139404 386.8312576 142.50616366 385.28263136 143.62890625 383.69140625 C144.30759766 382.85416016 144.30759766 382.85416016 145 382 C145.66 382 146.32 382 147 382 C147.28875 381.38125 147.5775 380.7625 147.875 380.125 C149 378 149 378 151 376 C150.70018521 371.47036567 148.48025091 367.82109608 146.3125 363.9375 C145.57542307 362.59060886 144.83975911 361.24294358 144.10546875 359.89453125 C143.74372559 359.23146973 143.38198242 358.5684082 143.00927734 357.88525391 C141.64267444 355.33254282 140.38360647 352.73237099 139.125 350.125 C136.26593491 344.3287533 132.98508306 338.82480389 129.67456055 333.2800293 C126.72897128 328.31854024 124.07402337 323.28459784 121.55859375 318.08984375 C119.65790976 314.3218211 117.58947209 310.6657254 115.5 307 C112.2548037 301.30253298 109.21619775 295.54711625 106.32421875 289.66015625 C103.3456492 283.67665812 99.96352907 277.93792415 96.5625 272.1875 C94.26485869 268.26915686 92.12295095 264.32891925 90.125 260.25 C87.41941318 254.73031351 84.46394843 249.38486575 81.42236328 244.04589844 C78.74255677 239.34137619 76.13452668 234.60111652 73.54833984 229.84448242 C72.05121399 227.09408613 70.54473571 224.34904571 69.03515625 221.60546875 C64.01738826 212.46744676 59.10295692 203.32128264 54.51171875 193.9609375 C52.67091446 190.35543452 50.59421524 186.9386691 48.46875 183.49609375 C46.24861848 179.72305109 44.36055548 175.79785894 42.4296875 171.87109375 C39.41461694 165.81623894 36.00442453 160.00706976 32.5625 154.1875 C30.32455303 150.3715135 28.24051856 146.54329125 26.3125 142.5625 C23.47951394 136.76706347 20.29105533 131.20829783 17.0625 125.625 C12.95344844 118.51765535 9.1066999 111.3814625 5.51171875 104 C3.68147743 100.36789319 1.62348114 96.92375246 -0.51171875 93.46484375 C-3.1676501 89.0661753 -5.57262907 84.52764932 -8 80 C-9.32 80.33 -10.64 80.66 -12 81 C-12 154.92 -12 228.84 -12 305 C-6.06 306.485 -6.06 306.485 0 308 C2.89158389 309.32657752 5.52510201 310.60797318 8.25 312.1875 C8.91128906 312.55552734 9.57257813 312.92355469 10.25390625 313.30273438 C11.84294806 314.18937365 13.42261351 315.09278728 15 316 C15 316.66 15 317.32 15 318 C15.86044922 318.14501953 15.86044922 318.14501953 16.73828125 318.29296875 C27.71742484 321.72513626 35.86982546 336.48444976 40.875 345.9375 C43.9969001 352.47036502 45.76673276 358.88651455 47 366 C47.226875 367.155 47.45375 368.31 47.6875 369.5 C49.60357599 390.96005112 44.57742351 410.81560346 30.796875 427.69921875 C17.17563158 443.19685795 -0.1464377 453.25606252 -21 455 C-43.52811845 456.19102538 -62.59923397 450.06451869 -79.6875 435.25 C-94.08033506 421.6772695 -102.56218607 404.11348176 -103.203125 384.3359375 C-103.48320412 366.39292024 -100.17955671 351.57514951 -91 336 C-90.34 336 -89.68 336 -89 336 C-88.773125 335.28585937 -88.54625 334.57171875 -88.3125 333.8359375 C-82.02940434 320.25996294 -65.225683 311.91587527 -52 307 C-49.69 306.34 -47.38 305.68 -45 305 C-44.67 231.08 -44.34 157.16 -44 81 C-45.65 80.67 -47.3 80.34 -49 80 C-49.20625 80.763125 -49.4125 81.52625 -49.625 82.3125 C-52.06600157 88.85882239 -55.74198012 94.78400351 -59.18359375 100.84765625 C-59.95614094 102.2107042 -60.72826877 103.57398991 -61.5 104.9375 C-61.89074707 105.62779297 -62.28149414 106.31808594 -62.68408203 107.02929688 C-64.87831662 110.92974913 -66.96891108 114.85417108 -68.9375 118.875 C-74.04767011 129.29406906 -79.84104092 139.39134851 -85.75 149.375 C-88.56537119 154.15060627 -91.0396088 159.03856612 -93.4765625 164.015625 C-95.00196733 167.00385394 -96.6548167 169.87005511 -98.375 172.75 C-101.59233532 178.15967886 -104.38935065 183.71317419 -107.15966797 189.35839844 C-108.80199797 192.68138214 -110.45646788 195.90041436 -112.5 199 C-114.90162133 202.64631545 -116.77727482 206.51995119 -118.6875 210.4375 C-121.98116451 217.17757868 -125.61618676 223.64635562 -129.4987793 230.06420898 C-131.83090466 233.93375005 -133.95446781 237.8355823 -135.94140625 241.89257812 C-137.96054712 245.9122331 -140.18708858 249.82050505 -142.375 253.75 C-145.94451294 260.1916161 -149.37496005 266.66371137 -152.609375 273.28125 C-154.66412614 277.29840392 -156.9921651 281.14365095 -159.29296875 285.0234375 C-160.91311399 287.84849625 -162.38224743 290.70003278 -163.8125 293.625 C-168.96736581 304.12769451 -174.79264393 314.309578 -180.75 324.375 C-183.56537119 329.15060627 -186.0396088 334.03856612 -188.4765625 339.015625 C-190.00196733 342.00385394 -191.6548167 344.87005511 -193.375 347.75 C-196.22467991 352.55447147 -198.81753692 357.4430189 -201.3125 362.4375 C-201.65007324 363.11200195 -201.98764648 363.78650391 -202.33544922 364.48144531 C-204.04381002 367.93618809 -205.6321188 371.39629267 -207 375 C-206.57154785 375.4861377 -206.1430957 375.97227539 -205.70166016 376.47314453 C-185.00072017 400.03523602 -166.85554562 425.21789249 -151.5625 452.625 C-151.12502441 453.40762207 -150.68754883 454.19024414 -150.23681641 454.99658203 C-149.82995605 455.73247559 -149.4230957 456.46836914 -149.00390625 457.2265625 C-148.45972046 458.21003662 -148.45972046 458.21003662 -147.90454102 459.21337891 C-145.8564891 463.25862692 -145.63251853 466.5167261 -146 471 C-147.11994936 473.79742809 -148.48575766 476.39739598 -150 479 C-150.66 479 -151.32 479 -152 479 C-152 479.66 -152 480.32 -152 481 C-156.89655665 483.39831346 -160.43209169 484.69598854 -166 484 C-173.79099028 480.582899 -177.9924083 475.33290279 -181.625 467.75 C-187.99689518 454.45862489 -196.61121388 442.24119475 -205.25439453 430.34301758 C-205.73118652 429.68325928 -206.20797852 429.02350098 -206.69921875 428.34375 C-207.33089966 427.48040039 -207.33089966 427.48040039 -207.9753418 426.59960938 C-209 425 -209 425 -210 422 C-210.66 422 -211.32 422 -212 422 C-213.5078125 420.3203125 -213.5078125 420.3203125 -215.125 418.125 C-215.93324219 417.04605469 -215.93324219 417.04605469 -216.7578125 415.9453125 C-218 414 -218 414 -218 412 C-218.66 412 -219.32 412 -220 412 C-223.20483864 408.50796605 -226.05931172 404.71556686 -229 401 C-229.67417969 400.19046875 -230.34835937 399.3809375 -231.04296875 398.546875 C-239.00957361 388.83067462 -240.8890004 379.05254304 -239.796875 366.703125 C-238.7986775 360.7573399 -235.96274814 356.16815629 -232.84375 351.07421875 C-231.15812919 348.26366032 -229.67973252 345.44674523 -228.25 342.5 C-223.38209235 332.5834136 -217.87897709 322.99395208 -212.52246094 313.3359375 C-207.71830409 304.66735908 -202.94835681 296.0185402 -198.5859375 287.1171875 C-193.8303111 277.76992181 -188.59051125 268.64821413 -183.25 259.625 C-180.43759623 254.85442725 -177.96542025 249.9719222 -175.53125 245 C-173.43504151 240.89314256 -171.07198707 236.96334664 -168.71875 233 C-167.02667973 230.04656826 -165.49645104 227.05658084 -164 224 C-162.02824587 219.97303125 -159.92415297 216.09926063 -157.625 212.25 C-154.42405233 206.86079386 -151.61451015 201.33676649 -148.8425293 195.72070312 C-145.89307672 189.75141903 -142.74330428 183.94544065 -139.3515625 178.21484375 C-135.78436184 172.17864175 -132.48754201 166.09289548 -129.39453125 159.80078125 C-126.39161756 153.7697193 -122.99079299 147.9840217 -119.5625 142.1875 C-116.65027784 137.22477152 -114.06032993 132.16578029 -111.53125 127 C-109.43504151 122.89314256 -107.07198707 118.96334664 -104.71875 115 C-103.02667973 112.04656826 -101.49645104 109.05658084 -100 106 C-97.47545773 100.84348813 -94.64869013 95.93463601 -91.71875 91 C-90.02667973 88.04656826 -88.49645104 85.05658084 -87 82 C-84.95962558 77.83763618 -82.7837496 73.81075255 -80.4375 69.8125 C-79.86 68.8225 -79.2825 67.8325 -78.6875 66.8125 C-77.62289352 65.03815587 -76.52279843 63.28419765 -75.375 61.5625 C-72.72730486 57.57524309 -72.72730486 57.57524309 -72.140625 52.97265625 C-72.51977643 51.51833969 -72.92957847 50.07180324 -73.36328125 48.6328125 C-76.160154 37.06782945 -73.80703355 25.06293752 -68.24609375 14.74609375 C-66.59686086 12.05016608 -64.99483379 9.45177847 -63 7 C-62.34 7 -61.68 7 -61 7 C-61 6.34 -61 5.68 -61 5 C-54.87258795 -1.14070362 -48.2788909 -4.65916344 -40 -7 C-39.401875 -7.19207031 -38.80375 -7.38414062 -38.1875 -7.58203125 C-24.32033369 -10.23165053 -11.85051607 -7.24198204 0 0 Z M-41 32 C-41.57848123 36.85323218 -41.64024604 41.4634095 -39.75 46 C-35.92851068 50.36741637 -33.00973394 51.60822294 -27.24609375 52.0625 C-22.66468436 51.9350173 -19.95519457 49.87774636 -16.6875 46.875 C-14.38622127 42.9543029 -13.81585494 39.52356355 -14 35 C-15.45663784 30.26592702 -17.96662084 27.5650648 -22.04296875 24.921875 C-29.8733205 21.23332607 -36.55928542 25.33892813 -41 32 Z M-44 339 C-44.65097656 339.25523437 -45.30195313 339.51046875 -45.97265625 339.7734375 C-56.58792475 344.37409065 -64.27334722 353.25556814 -68.6875 363.75 C-72.94066203 376.38656233 -72.35572381 387.52198421 -66.5 399.625 C-64.90487609 402.6209699 -63.20340927 405.40982209 -61 408 C-60.34 408 -59.68 408 -59 408 C-59 408.66 -59 409.32 -59 410 C-58.34 410 -57.68 410 -57 410 C-56.67 410.99 -56.34 411.98 -56 413 C-52.78282646 415.3300037 -52.78282646 415.3300037 -49 416 C-49 416.66 -49 417.32 -49 418 C-35.39842576 423.20278796 -24.58212175 424.99293812 -10.55078125 419.60546875 C-5.19327341 417.18309722 -1.1425044 414.1425044 3 410 C3.72960937 409.27039063 4.45921875 408.54078125 5.2109375 407.7890625 C12.21635461 399.95028722 16.13869139 389.77311315 16.5 379.25 C15.83775284 368.02491057 11.68091866 358.92207609 5 350 C4.34 350 3.68 350 3 350 C3 349.34 3 348.68 3 348 C2.34 348 1.68 348 1 348 C1 347.34 1 346.68 1 346 C-8.01603578 337.84596247 -19.94481999 335.29548202 -31.7734375 335.67578125 C-36.22029939 336.12262088 -39.93720218 337.17847271 -44 339 Z M-172 730 C-172 740.23 -172 750.46 -172 761 C-168.21974365 761.01458252 -164.4394873 761.02916504 -160.54467773 761.04418945 C-148.05556909 761.0945234 -135.56658976 761.16096656 -123.07760525 761.23571491 C-115.50544567 761.280642 -107.9333328 761.32006372 -100.36108398 761.34643555 C-93.759558 761.36944071 -87.15818021 761.40286671 -80.55677181 761.44870156 C-77.06275789 761.47260003 -73.56889042 761.49135083 -70.07479668 761.49761391 C-66.17006249 761.5048086 -62.26569467 761.53527303 -58.36108398 761.56762695 C-57.20805786 761.56619186 -56.05503174 761.56475677 -54.86706543 761.5632782 C-48.81628671 761.63419344 -44.30696612 761.99351794 -39 765 C-35.57161758 768.6088236 -34.13472695 771.24854969 -33.75 776.25 C-34.11543121 781.7314681 -35.47254469 785.51171021 -39.4375 789.375 C-43.37267527 791.870477 -46.65666535 792.12609229 -51.26446533 792.15821838 C-52.3301474 792.1680072 -53.39582947 792.17779602 -54.49380493 792.18788147 C-56.23952286 792.19651466 -56.23952286 792.19651466 -58.02050781 792.20532227 C-59.25004181 792.21522186 -60.47957581 792.22512146 -61.74636841 792.23532104 C-65.11378754 792.2614878 -68.48118323 792.28335849 -71.8486414 792.30332303 C-75.36939591 792.32521097 -78.89010765 792.35258591 -82.41082764 792.37937927 C-89.07595605 792.42926822 -95.74110826 792.47422112 -102.40628314 792.51740164 C-109.99513517 792.56680649 -117.58394427 792.62171256 -125.17275476 792.67708123 C-140.78179683 792.79084296 -156.39087839 792.89769462 -172 793 C-172.04939662 796.95096978 -172.08571755 800.9018203 -172.10986328 804.85302734 C-172.12488107 806.8591136 -172.15028981 808.86511324 -172.17578125 810.87109375 C-172.18222656 812.12792969 -172.18867188 813.38476562 -172.1953125 814.6796875 C-172.20578613 815.84226074 -172.21625977 817.00483398 -172.22705078 818.20263672 C-172.29261997 821.13910279 -172.29261997 821.13910279 -170 823 C-167.84830546 823.30291478 -167.84830546 823.30291478 -165.32415771 823.25168228 C-164.33212467 823.25689778 -163.34009163 823.26211327 -162.31799698 823.26748681 C-161.22015759 823.26302537 -160.12231819 823.25856392 -158.99121094 823.25396729 C-157.83118435 823.25708727 -156.67115776 823.26020725 -155.47597885 823.26342177 C-152.24626092 823.27004083 -149.0166921 823.26762879 -145.78697777 823.26144934 C-142.30772462 823.25694005 -138.82849224 823.263901 -135.34924316 823.26940918 C-128.52951265 823.27832119 -121.70982606 823.27637316 -114.8900938 823.2705839 C-109.3495364 823.2660745 -103.80899133 823.26545137 -98.26843262 823.26763153 C-97.48107845 823.267938 -96.69372428 823.26824446 -95.8825109 823.26856022 C-94.28321743 823.26919964 -92.68392396 823.26984807 -91.08463049 823.2705054 C-76.07386739 823.27621399 -61.06312869 823.26964252 -46.05236959 823.25890467 C-33.16120293 823.24996867 -20.27007227 823.25152057 -7.37890625 823.26074219 C7.57667001 823.2714355 22.53222487 823.27566461 37.48780441 823.26951766 C39.08134714 823.26888053 40.67488988 823.26825179 42.26843262 823.26763153 C43.05256853 823.26732298 43.83670445 823.26701443 44.64460206 823.26669653 C50.18108269 823.26496676 55.71754979 823.26789073 61.25402832 823.27259064 C67.99745098 823.27818906 74.74082705 823.276705 81.48424435 823.26602915 C84.92748518 823.26075837 88.37064823 823.25873945 91.81388855 823.26532745 C95.53974156 823.27075056 99.26537229 823.26398822 102.99121094 823.25396729 C104.08905033 823.25842873 105.18688972 823.26289017 106.31799698 823.26748681 C107.31003002 823.26227132 108.30206306 823.25705582 109.32415771 823.25168228 C110.18503872 823.25135758 111.04591972 823.25103287 111.93288803 823.25069833 C114.22257888 823.18864072 114.22257888 823.18864072 116 821 C116.27876767 818.08512078 116.27876767 818.08512078 116.1953125 814.6796875 C116.18886719 813.42285156 116.18242188 812.16601562 116.17578125 810.87109375 C116.15902344 809.55238281 116.14226562 808.23367188 116.125 806.875 C116.11496983 805.53516279 116.10584404 804.19531848 116.09765625 802.85546875 C116.07402075 799.57013427 116.04107234 796.28515535 116 793 C114.70376709 792.98541748 113.40753418 792.97083496 112.07202148 792.95581055 C107.24297092 792.89764901 102.41437793 792.82041709 97.58569336 792.73754883 C95.49950613 792.70438339 93.41323098 792.67632557 91.3269043 792.65356445 C88.32042121 792.61986431 85.31473775 792.56754032 82.30859375 792.51171875 C81.38227646 792.50532883 80.45595917 792.4989389 79.50157166 792.49235535 C72.74928487 792.34054002 67.58389258 791.51763892 62.5625 786.625 C60.24035227 781.23761726 60.01684011 775.77606434 61 770 C63.6660024 765.45864787 67.04778276 763.45651553 72 762 C75.43729044 761.5592309 78.84601607 761.51216681 82.30859375 761.48828125 C83.27531509 761.47033005 84.24203644 761.45237885 85.23805237 761.43388367 C88.30449147 761.38000489 91.37077692 761.34595691 94.4375 761.3125 C96.5254119 761.27930714 98.61330359 761.24481567 100.70117188 761.20898438 C105.80080063 761.12186318 110.89974467 761.06160242 116 761 C116 750.77 116 740.54 116 730 C20.96 730 -74.08 730 -172 730 Z " fill="#074CA6" transform="translate(540,169)"/>
<path d="M0 0 C2.49019284 1.91016544 4.72414349 3.82529267 7 6 C7 6.66 7 7.32 7 8 C7.88365234 8.35771484 7.88365234 8.35771484 8.78515625 8.72265625 C15.92321965 12.83931716 20.40490232 23.48279557 23 31 C23.33 33.31 23.66 35.62 24 38 C127.62 38 231.24 38 338 38 C338 28.1 338 18.2 338 8 C340.40109692 -0.40383923 343.12046671 -4.94564901 350 -10 C354.72645619 -12.5348089 359.37607405 -12.30254781 364.60449219 -12.30639648 C365.56612274 -12.31472 366.5277533 -12.32304352 367.51852417 -12.33161926 C370.69468244 -12.35569569 373.87063517 -12.36448912 377.046875 -12.37109375 C379.26019349 -12.38006274 381.47351136 -12.38918464 383.68682861 -12.39845276 C388.32704134 -12.41493953 392.96718195 -12.42264216 397.60742188 -12.42553711 C403.54015133 -12.43091666 409.47219856 -12.46858112 415.40473557 -12.51428127 C419.97738084 -12.54409261 424.54986275 -12.55126158 429.12259674 -12.55226326 C431.30898407 -12.55645839 433.49537221 -12.56886412 435.68166351 -12.58978081 C438.74758868 -12.61677524 441.81194455 -12.61184492 444.87792969 -12.59936523 C445.77279083 -12.61419952 446.66765198 -12.62903381 447.58963013 -12.64431763 C454.16834421 -12.5684434 458.54956569 -10.62488603 464 -7 C464 -6.34 464 -5.68 464 -5 C464.66 -5 465.32 -5 466 -5 C470.28290397 1.45323543 471.73219944 6.37784974 471.63110352 14.07446289 C471.63825882 15.03828384 471.64541412 16.0021048 471.65278625 16.99513245 C471.66958096 20.15480143 471.65032567 23.31303314 471.62890625 26.47265625 C471.62973573 28.68265398 471.63219807 30.89265164 471.63621521 33.10264587 C471.63906683 37.72332435 471.6244325 42.3435164 471.59692383 46.96411133 C471.56282275 52.87438826 471.56887233 58.78379699 471.5875864 64.69411564 C471.59817492 69.25389286 471.58920196 73.81346948 471.57420158 78.37322807 C471.5690343 80.55203085 471.56948384 82.73085471 471.57574654 84.90965462 C471.58122181 87.95853578 471.56074952 91.00619041 471.53344727 94.05493164 C471.53997314 94.94710388 471.54649902 95.83927612 471.55322266 96.75848389 C471.44773212 103.71747815 469.7166148 109.11767672 464.88671875 114.2421875 C464.16097656 114.78101562 463.43523438 115.31984375 462.6875 115.875 C461.96949219 116.42929688 461.25148438 116.98359375 460.51171875 117.5546875 C454.50047127 121.01372571 448.63483384 121.29201637 441.87109375 121.25878906 C440.54043381 121.26404602 440.54043381 121.26404602 439.18289185 121.26940918 C436.26768024 121.27816934 433.35271382 121.27239756 430.4375 121.265625 C428.40161086 121.26697329 426.36572203 121.26891519 424.32983398 121.27142334 C420.06979293 121.27436686 415.80983594 121.27010176 411.54980469 121.26074219 C406.09919035 121.24934817 400.64877301 121.25591176 395.19816589 121.26788712 C390.99620082 121.27512653 386.79428217 121.27280821 382.59231567 121.26763153 C380.58293637 121.2663008 378.57355279 121.2679225 376.56417847 121.27259064 C373.75230806 121.27769008 370.94075326 121.26989766 368.12890625 121.25878906 C367.30480255 121.26283752 366.48069885 121.26688599 365.63162231 121.27105713 C356.91969319 121.2075467 350.40332253 119.10799109 344 113 C333.92070395 100.28266597 338 87.02639368 338 70 C270.35 70.33 202.7 70.66 133 71 C136.3 72.32 139.6 73.64 143 75 C145.55645267 76.14513008 148.09532464 77.30016069 150.625 78.5 C151.59626831 78.95717407 151.59626831 78.95717407 152.5871582 79.42358398 C156.41919168 81.2332759 160.2359223 83.06790579 164.01171875 84.9921875 C165.52836659 85.76094024 167.05340749 86.51315766 168.58203125 87.2578125 C181.82889741 93.74824492 194.51132792 101.16272109 207 109 C208.60875 109.98226562 208.60875 109.98226562 210.25 110.984375 C211.260625 111.60828125 212.27125 112.2321875 213.3125 112.875 C214.21613281 113.42929688 215.11976563 113.98359375 216.05078125 114.5546875 C216.69402344 115.03164062 217.33726562 115.50859375 218 116 C218 116.66 218 117.32 218 118 C218.69222656 118.23847656 219.38445313 118.47695312 220.09765625 118.72265625 C223.53026129 120.23337206 226.42601885 122.23706355 229.4375 124.4375 C230.04368164 124.87562012 230.64986328 125.31374023 231.27441406 125.76513672 C237.43538633 130.25320961 243.42481423 134.95276963 249.37792969 139.71142578 C250.94253357 140.95434861 252.52181027 142.17873214 254.1015625 143.40234375 C255.01679687 144.11519531 255.93203125 144.82804688 256.875 145.5625 C257.67679688 146.18253906 258.47859375 146.80257812 259.3046875 147.44140625 C259.86414063 147.95574219 260.42359375 148.47007812 261 149 C261 149.66 261 150.32 261 151 C261.86625 151.4021875 261.86625 151.4021875 262.75 151.8125 C265.05550043 153.02929189 267.02056192 154.30333879 269 156 C269 156.66 269 157.32 269 158 C269.86625 158.3403125 269.86625 158.3403125 270.75 158.6875 C274.56083774 160.91048868 276.61929664 163.85788992 278 168 C278.60007961 173.62697602 278.61711404 178.7105504 275.39453125 183.52734375 C271.78575985 187.33828722 267.55009413 188.80963756 262.4375 189.4375 C254.04401761 188.36923861 249.91248985 184.34817073 243.87890625 178.67578125 C239.43880823 174.54896016 234.73515023 170.78053383 230 167 C229.48099121 166.58137695 228.96198242 166.16275391 228.42724609 165.73144531 C216.12434606 155.81413899 203.3852158 146.41434881 189.80859375 138.3046875 C189.21175781 137.87414062 188.61492188 137.44359375 188 137 C188 136.34 188 135.68 188 135 C187.44094971 134.88986572 186.88189941 134.77973145 186.3059082 134.66625977 C183.62686557 133.89218805 181.52169678 132.73305255 179.10546875 131.33984375 C178.15744385 130.79730957 177.20941895 130.25477539 176.23266602 129.69580078 C175.22776123 129.11556152 174.22285645 128.53532227 173.1875 127.9375 C171.09701441 126.74493565 169.00586845 125.55352812 166.9140625 124.36328125 C165.89731445 123.78400879 164.88056641 123.20473633 163.83300781 122.60791016 C152.8360447 116.36644178 141.65535 110.89213891 130 106 C128.96101562 105.55914062 127.92203125 105.11828125 126.8515625 104.6640625 C123.90798656 103.42507745 120.9560346 102.20894236 118 101 C116.82953125 100.51660156 115.6590625 100.03320312 114.453125 99.53515625 C85.154889 87.52856399 54.11456778 80.48162605 23 75 C22.74682007 75.88268555 22.74682007 75.88268555 22.48852539 76.78320312 C20.27825221 84.31906489 16.32568116 90.51147825 12 97 C11.34 97 10.68 97 10 97 C9.773125 97.5775 9.54625 98.155 9.3125 98.75 C7.65598007 101.58974845 5.60531294 103.01499967 3 105 C2.37609375 105.64066406 1.7521875 106.28132813 1.109375 106.94140625 C-7.74071425 115.5784378 -21.73767933 120.719947 -34 121 C-35.06863281 121.03867188 -36.13726563 121.07734375 -37.23828125 121.1171875 C-54.90147039 121.46466007 -68.49416552 117.06819433 -83 107 C-83.763125 106.47664063 -84.52625 105.95328125 -85.3125 105.4140625 C-86.1478125 104.71410156 -86.1478125 104.71410156 -87 104 C-87 103.34 -87 102.68 -87 102 C-87.66 102 -88.32 102 -89 102 C-96.46383399 94.71137338 -100.65921378 85.30498322 -105 76 C-117.88138656 77.3634327 -130.39761621 80.05576533 -143 83 C-143.79889648 83.18401367 -144.59779297 83.36802734 -145.42089844 83.55761719 C-179.52820604 91.53515865 -212.26784562 105.40038032 -243 122 C-244.04542969 122.55945313 -245.09085937 123.11890625 -246.16796875 123.6953125 C-269.53078589 136.28289522 -292.17418603 151.21141602 -312.22265625 168.625 C-315.19138907 171.16366323 -318.25960834 173.49118922 -321.41796875 175.78515625 C-323.20891745 177.10586783 -323.20891745 177.10586783 -325.375 179.375 C-325.91125 179.91125 -326.4475 180.4475 -327 181 C-327.66 181 -328.32 181 -329 181 C-329.2475 181.5775 -329.495 182.155 -329.75 182.75 C-331.18299988 185.32939979 -332.78424676 187.06121592 -335 189 C-335.66 189 -336.32 189 -337 189 C-337 189.66 -337 190.32 -337 191 C-338.57421875 192.515625 -338.57421875 192.515625 -340.6875 194.25 C-343.35349133 196.50075728 -345.71010091 198.70049545 -347.875 201.4375 C-348.57625 202.283125 -349.2775 203.12875 -350 204 C-350.66 204 -351.32 204 -352 204 C-352.2475 204.5775 -352.495 205.155 -352.75 205.75 C-354.18299988 208.32939979 -355.78424676 210.06121592 -358 212 C-358.66 212 -359.32 212 -360 212 C-360.3403125 213.0828125 -360.3403125 213.0828125 -360.6875 214.1875 C-362.27066225 217.57999055 -364.33252658 219.37014962 -367 222 C-368.92141421 224.12789455 -370.77523936 226.30976144 -372.625 228.5 C-373.10195313 229.05558594 -373.57890625 229.61117187 -374.0703125 230.18359375 C-376.19877894 232.69636663 -378.03327484 235.05652164 -379.7109375 237.90625 C-380.13632812 238.5971875 -380.56171875 239.288125 -381 240 C-381.66 240 -382.32 240 -383 240 C-383.21914063 240.67933594 -383.43828125 241.35867187 -383.6640625 242.05859375 C-385.39115443 245.86122598 -387.79610204 248.80000431 -390.375 252.0625 C-396.85107319 260.47285722 -402.20401858 269.38518532 -407.54296875 278.54345703 C-408.92746109 280.87769998 -410.35575078 283.17515633 -411.8125 285.46484375 C-424.28463129 305.10707209 -433.22630828 326.50854819 -442 348 C-442.30776367 348.74765625 -442.61552734 349.4953125 -442.93261719 350.265625 C-448.32627537 363.48626846 -452.09884184 377.28285205 -456 391 C-456.268125 391.93223389 -456.53625 392.86446777 -456.8125 393.82495117 C-458.75276431 400.7184864 -460.24628092 407.66199011 -461.625 414.6875 C-461.8415625 415.76322266 -462.058125 416.83894531 -462.28125 417.94726562 C-463.40698074 423.62108755 -464.37415072 429.24914049 -465 435 C-463.88882813 435.54527344 -462.77765625 436.09054687 -461.6328125 436.65234375 C-452.67815188 441.14981953 -444.96990646 445.64943952 -438 453 C-437.34644531 453.680625 -436.69289063 454.36125 -436.01953125 455.0625 C-424.36055932 467.79041818 -419.82476296 482.23019324 -419.8125 499.3125 C-419.80025391 500.19873047 -419.78800781 501.08496094 -419.77539062 501.99804688 C-419.74014451 518.10552048 -425.50950445 534.30893691 -436.75 546.125 C-439 548 -439 548 -442 549 C-442 549.66 -442 550.32 -442 551 C-458.31945282 565.55258293 -476.85127564 567.02530884 -497.71875 566.23828125 C-514.41984421 565.02546369 -527.75190278 554.61820629 -539 543 C-552.60531941 527.03178233 -554.36917292 508.13711066 -553 488 C-551.78339259 478.44846202 -548.06047209 470.11362358 -543 462 C-542.34 462 -541.68 462 -541 462 C-540.938125 461.46375 -540.87625 460.9275 -540.8125 460.375 C-537.52990337 450.77971756 -525.48041372 443.65800502 -517 439 C-510.84756729 436.03364851 -504.87805303 434 -498 434 C-497.96261719 433.46375 -497.92523438 432.9275 -497.88671875 432.375 C-497.19586105 424.13889256 -495.66101638 416.08509105 -494 408 C-493.84047852 407.2167334 -493.68095703 406.4334668 -493.51660156 405.62646484 C-485.4861612 366.82294543 -473.05168913 327.32408789 -453.91796875 292.5390625 C-451.67900295 288.46525283 -449.79320961 284.28810994 -448 280 C-447.34 280 -446.68 280 -446 280 C-445.91363281 279.30519531 -445.82726562 278.61039062 -445.73828125 277.89453125 C-444.82292285 274.30574516 -443.19430472 271.79637187 -441.1875 268.6875 C-438.14860392 263.9100569 -435.41172064 259.12490637 -433 254 C-432.34 254 -431.68 254 -431 254 C-430.90203125 253.44570313 -430.8040625 252.89140625 -430.703125 252.3203125 C-427.48132135 241.68836044 -417.08904798 231.06528761 -410.56445312 222.14160156 C-409.11558511 220.15822606 -407.67465641 218.16930026 -406.234375 216.1796875 C-405.42778806 215.07760888 -404.62054711 213.97600846 -403.8125 212.875 C-403.11769531 211.92367187 -402.42289063 210.97234375 -401.70703125 209.9921875 C-401.14371094 209.33476562 -400.58039063 208.67734375 -400 208 C-399.34 208 -398.68 208 -398 208 C-397.7421875 207.43796875 -397.484375 206.8759375 -397.21875 206.296875 C-395.85830223 203.73295421 -394.27211038 201.54773635 -392.5 199.25 C-391.8915625 198.45078125 -391.283125 197.6515625 -390.65625 196.828125 C-390.1096875 196.22484375 -389.563125 195.6215625 -389 195 C-388.34 195 -387.68 195 -387 195 C-386.773125 194.443125 -386.54625 193.88625 -386.3125 193.3125 C-384.99711839 190.99492288 -383.50012448 189.41323325 -381.5859375 187.58203125 C-379.6512644 185.65212336 -377.8684395 183.61348333 -376.0625 181.5625 C-353.68003201 156.56001067 -353.68003201 156.56001067 -346 154 C-345.67 153.01 -345.34 152.02 -345 151 C-342.98828125 149.125 -342.98828125 149.125 -340.3125 147 C-339.31089844 146.20207031 -338.30929687 145.40414062 -337.27734375 144.58203125 C-336.74093262 144.16002441 -336.20452148 143.73801758 -335.65185547 143.30322266 C-334.01047072 142.00826082 -332.38136479 140.69912239 -330.75390625 139.38671875 C-323.05342604 133.21440632 -315.10898898 127.45799719 -307.0078125 121.82421875 C-303.53016928 119.39979975 -300.14206896 116.87185378 -296.77563477 114.2956543 C-294.64943889 112.74420077 -292.40832114 111.45147734 -290.1015625 110.1875 C-287.24902812 108.57565901 -284.47423703 106.84794748 -281.6875 105.125 C-280.54431987 104.42049334 -279.40109098 103.71606579 -278.2578125 103.01171875 C-276.31237438 101.81039905 -274.36893262 100.60582265 -272.4296875 99.39453125 C-266.62081153 95.81910099 -260.62224492 92.71994769 -254.5 89.71875 C-251.35842032 88.17600998 -248.24165909 86.59220627 -245.125 85 C-236.1957301 80.53536505 -227.0173972 76.59052041 -217.74658203 72.89306641 C-216.40927536 72.35934921 -216.40927536 72.35934921 -215.04495239 71.81484985 C-214.3701181 71.5459494 -213.69528381 71.27704895 -213 71 C-214.05116501 70.99120064 -214.05116501 70.99120064 -215.12356567 70.98222351 C-221.74417765 70.92419737 -228.3644704 70.85206441 -234.98475838 70.76428509 C-238.38792657 70.71965423 -241.79097707 70.6803827 -245.19433594 70.65356445 C-249.11158567 70.62245771 -253.02833576 70.56767108 -256.9453125 70.51171875 C-258.16115021 70.50532883 -259.37698792 70.4989389 -260.62966919 70.49235535 C-271.24230359 70.30820289 -271.24230359 70.30820289 -276 67 C-279.40464965 63.40620314 -281.95028635 59.9772955 -282.03515625 54.89453125 C-281.67191108 49.60532718 -280.53685522 46.11039932 -277 42 C-272.55291482 38.49293653 -269.65310315 37.49818296 -264.01443481 37.48101807 C-263.33552213 37.47351681 -262.65660944 37.46601556 -261.95712364 37.458287 C-259.69522134 37.43807951 -257.43432814 37.44609812 -255.17236328 37.45410156 C-253.54587314 37.44536271 -251.91939158 37.43487583 -250.29292297 37.42277527 C-245.8863255 37.39493271 -241.48000879 37.3915102 -237.07333612 37.39249516 C-232.46483235 37.38936455 -227.85645476 37.36374327 -223.24801636 37.34051514 C-214.52526509 37.2999629 -205.80258858 37.27961625 -197.07975757 37.26654124 C-187.147455 37.25066858 -177.21527958 37.21225181 -167.28305078 37.17194796 C-146.85540913 37.08955963 -126.42777347 37.03546084 -106 37 C-105.7975769 36.38606888 -105.59515381 35.77213776 -105.38659668 35.13960266 C-104.9854364 33.92834969 -104.9854364 33.92834969 -104.57617188 32.69262695 C-104.31187378 31.89307083 -104.04757568 31.09351471 -103.77526855 30.26972961 C-100.07624168 19.44020378 -93.97136914 11.90061734 -86 4 C-85.43796875 3.40445312 -84.8759375 2.80890625 -84.296875 2.1953125 C-80.45575675 -1.54472369 -75.79657349 -3.83402737 -71.0625 -6.25 C-70.39387939 -6.59192383 -69.72525879 -6.93384766 -69.03637695 -7.28613281 C-47.41637809 -17.86798415 -18.95783758 -14.08651107 0 0 Z M-64 28 C-64.86625 28.70125 -65.7325 29.4025 -66.625 30.125 C-73.80742921 38.81951957 -76.81426217 48.23966222 -75.7734375 59.4375 C-73.98738187 69.52346119 -68.11808396 77.45065552 -60.01953125 83.47265625 C-52.14629028 88.69610238 -44.33609331 89.92309308 -35 89 C-24.65004052 86.67369686 -16.95576303 81.33556373 -11.0625 72.5625 C-6.05727732 64.04666975 -4.55418331 55.42347898 -6.46484375 45.61328125 C-8.16352124 39.85385993 -11.11157468 34.58162649 -15 30 C-15.66 30 -16.32 30 -17 30 C-17.495 28.515 -17.495 28.515 -18 27 C-21.21717354 24.6699963 -21.21717354 24.6699963 -25 24 C-25 23.34 -25 22.68 -25 22 C-38.7708442 17.00549979 -52.94295372 17.95284788 -64 28 Z M370 19 C370 42.1 370 65.2 370 89 C393.1 89 416.2 89 440 89 C440 65.9 440 42.8 440 19 C416.9 19 393.8 19 370 19 Z M-509.75 473.4375 C-510.4925 474.283125 -511.235 475.12875 -512 476 C-512.680625 476.763125 -513.36125 477.52625 -514.0625 478.3125 C-520.72911272 487.559737 -522.04553965 496.83808079 -521 508 C-520.16070128 511.40515479 -518.89524643 514.06295661 -517 517 C-516.56429687 517.69480469 -516.12859375 518.38960937 -515.6796875 519.10546875 C-510.81389643 526.19144318 -504.23425441 531.39248611 -496 534 C-484.30208803 535.99113395 -475.37013428 534.75263159 -465.54296875 527.9609375 C-456.92034786 521.31185042 -453.27996239 513.47255454 -451 503 C-450.24666124 492.63828794 -453.99763192 483.95931155 -460.625 476.1875 C-467.12421191 469.40028756 -474.20162365 465.43116546 -483.6484375 464.83203125 C-493.46565458 464.76170735 -502.26921493 466.80680414 -509.75 473.4375 Z " fill="#074CA6" transform="translate(553,12)"/>
<path d="M0 0 C8.43719666 4.68013404 13.79131419 14.50011235 19.1875 22.25 C19.67710205 22.95286133 20.1667041 23.65572266 20.67114258 24.37988281 C24.125 29.44166634 24.125 29.44166634 24.125 31.6875 C24.785 31.6875 25.445 31.6875 26.125 31.6875 C27.3425293 33.34887695 27.3425293 33.34887695 28.69921875 35.67578125 C29.44824463 36.94518555 29.44824463 36.94518555 30.21240234 38.24023438 C30.74043457 39.15095703 31.2684668 40.06167969 31.8125 41 C32.90110688 42.8509884 33.99094162 44.70125525 35.08203125 46.55078125 C35.60748535 47.44361816 36.13293945 48.33645508 36.67431641 49.25634766 C38.37965054 52.11426037 40.17209935 54.90662643 42 57.6875 C44.84608734 62.10714525 47.20124614 66.66048415 49.48828125 71.390625 C50.94693119 74.32881247 52.50119018 77.19399688 54.09057617 80.06274414 C74.98781481 118.15962411 88.07107337 160.53808267 96.4375 203 C96.57278107 203.67820801 96.70806213 204.35641602 96.84744263 205.05517578 C97.23526245 207.01056388 97.61193791 208.96815194 97.98828125 210.92578125 C98.20782471 212.06055908 98.42736816 213.19533691 98.65356445 214.36450195 C99.14781219 217.84829582 99.20612313 221.1735582 99.125 224.6875 C100.218125 224.77 101.31125 224.8525 102.4375 224.9375 C114.44481059 226.50183272 125.11378324 232.80672262 134.125 240.6875 C134.125 241.3475 134.125 242.0075 134.125 242.6875 C134.99318359 243.0278125 134.99318359 243.0278125 135.87890625 243.375 C145.05406451 248.73648379 150.63626989 262.8971133 153.50317383 272.74145508 C154.70870038 278.45291517 154.59572594 284.18545989 154.5625 290 C154.58248047 291.22912109 154.60246094 292.45824219 154.62304688 293.72460938 C154.61399886 310.87059055 148.00590498 326.31967269 136.125 338.6875 C121.92286064 351.4016168 107.28933281 357.0501563 88.25 357 C87.03441406 357.01611328 85.81882812 357.03222656 84.56640625 357.04882812 C68.69932361 357.05738642 53.30210883 350.89197139 41.44921875 340.171875 C40.125 338.6875 40.125 338.6875 40.125 336.6875 C39.465 336.6875 38.805 336.6875 38.125 336.6875 C36.57002499 334.71826524 35.14853563 332.76399297 33.75 330.6875 C33.34442871 330.09098633 32.93885742 329.49447266 32.52099609 328.87988281 C21.44175175 312.3617367 18.61764109 294.30926318 22.375 274.6875 C25.37121249 262.70265005 30.7721971 251.00110257 40.125 242.6875 C40.681875 242.089375 41.23875 241.49125 41.8125 240.875 C43.125 239.6875 43.125 239.6875 45.125 239.6875 C45.125 239.0275 45.125 238.3675 45.125 237.6875 C47.07782904 236.26588875 49.00275581 234.99867696 51.0625 233.75 C52.16464844 233.06035156 53.26679687 232.37070312 54.40234375 231.66015625 C58.42443075 229.35974996 62.70090686 228.00775938 67.125 226.6875 C66.88265625 225.54796875 66.6403125 224.4084375 66.390625 223.234375 C66.05196502 221.63544172 65.71343417 220.03648109 65.375 218.4375 C65.19235596 217.57777588 65.00971191 216.71805176 64.8215332 215.83227539 C63.91167753 211.52405986 63.02454041 207.21496434 62.21484375 202.88671875 C60.38612022 193.17287547 58.17058146 183.61536069 55.625 174.0625 C55.19803833 172.44492798 55.19803833 172.44492798 54.76245117 170.79467773 C53.18065566 164.98213177 51.3281286 159.43701403 49.01318359 153.87646484 C47.4905511 150.12387471 46.45128424 146.24249282 45.34765625 142.3515625 C42.10410196 132.63126242 37.69287941 123.29360815 33.52319336 113.94140625 C32.96502913 112.68647435 32.40969827 111.43027848 31.85717773 110.17285156 C28.41823596 102.34776318 24.66921999 94.93371199 20.125 87.6875 C19.15084539 85.94625746 18.18862444 84.19814958 17.25 82.4375 C9.12323977 67.44720651 0.32942484 53.26556869 -9.78515625 39.53125 C-12.32062439 36.08111766 -14.82007956 32.60629981 -17.3125 29.125 C-17.96895508 28.2122229 -17.96895508 28.2122229 -18.63867188 27.28100586 C-23.00626469 21.17693151 -23.58827303 17.17169812 -22.875 9.6875 C-21.5940268 5.21633239 -19.08316037 2.49844696 -15.0625 0.25 C-9.8119558 -1.99191444 -5.31904728 -2.13392608 0 0 Z M61.75 267.27734375 C54.65086254 276.58191179 51.85942802 284.96589288 53.125 296.6875 C55.07985864 307.26150812 62.14383561 315.27686148 70.609375 321.51953125 C78.77038514 326.14677066 88.98658905 326.9492155 98 324.48046875 C104.39416621 322.0944104 109.60826022 318.84948831 114.125 313.6875 C114.805625 312.945 115.48625 312.2025 116.1875 311.4375 C121.7990351 303.4727405 124.10058814 294.8135351 122.765625 285.0625 C122.29700898 282.90402619 121.74847089 280.80559289 121.125 278.6875 C120.78731473 277.3552622 120.4527223 276.02222356 120.125 274.6875 C119.465 274.6875 118.805 274.6875 118.125 274.6875 C117.83625 273.924375 117.5475 273.16125 117.25 272.375 C116.16230987 269.53720692 116.16230987 269.53720692 114.125 266.6875 C113.465 266.6875 112.805 266.6875 112.125 266.6875 C112.125 266.0275 112.125 265.3675 112.125 264.6875 C96.18577234 252.46646468 75.90925662 251.83723332 61.75 267.27734375 Z " fill="#074CA6" transform="translate(869.875,221.3125)"/>
<path d="M0 0 C0.95348328 -0.00671722 1.90696655 -0.01343445 2.88934326 -0.02035522 C6.0378543 -0.03933502 9.18615213 -0.04325952 12.3347168 -0.04541016 C14.52801094 -0.0518384 16.72130422 -0.05856679 18.91459656 -0.06558228 C23.51193225 -0.07755522 28.10919279 -0.08126311 32.70654297 -0.08007812 C38.58771268 -0.07987501 44.46839876 -0.10716971 50.34945393 -0.14162254 C54.88002216 -0.16389811 59.41047416 -0.16791545 63.94109154 -0.16685867 C66.10875298 -0.16921392 68.27641766 -0.17803309 70.44402504 -0.19352341 C73.48125347 -0.21319484 76.51744108 -0.20734025 79.5546875 -0.1953125 C80.44379318 -0.20655151 81.33289886 -0.21779053 82.24894714 -0.22937012 C89.20340095 -0.15964897 94.41310924 1.6584486 99.71362305 6.22021484 C100.25245117 6.86216797 100.7912793 7.50412109 101.34643555 8.16552734 C101.90073242 8.80232422 102.4550293 9.43912109 103.02612305 10.09521484 C106.33566958 15.12214769 106.71400486 19.96936364 106.66674805 25.87646484 C106.66391815 26.5782486 106.66108826 27.28003235 106.65817261 28.00308228 C106.64706067 30.22407763 106.62197388 32.4446558 106.59643555 34.66552734 C106.58639409 36.1798444 106.57727028 37.69416783 106.5690918 39.20849609 C106.54715109 42.90263993 106.5126843 46.59654285 106.47143555 50.29052734 C107.58563873 50.28386551 108.69984192 50.27720367 109.84780884 50.27033997 C120.35323608 50.20949854 130.85862753 50.16454008 141.36419106 50.13509083 C146.76508559 50.11944165 152.16583778 50.09821682 157.56665039 50.06420898 C162.77971164 50.03158917 167.99263604 50.0136687 173.20579147 50.00589561 C175.19369027 50.00035684 177.18158167 49.98954096 179.16942215 49.97333717 C181.95596697 49.95152821 184.74194788 49.94856189 187.52856445 49.94995117 C188.75855667 49.93377243 188.75855667 49.93377243 190.01339722 49.91726685 C194.91258651 49.94365959 198.20123133 50.62946162 202.47143555 53.29052734 C205.98151071 56.89855809 207.78457311 60.88722903 207.97143555 65.91552734 C207.66191558 70.65607006 206.46121063 74.28444263 203.04174805 77.73193359 C197.80998924 82.29996181 193.6160801 82.4331813 186.9609375 82.40405273 C186.09243164 82.40419876 185.22392578 82.40434479 184.32910156 82.40449524 C181.45594798 82.4037981 178.58285907 82.39601495 175.7097168 82.38818359 C173.71860286 82.38631871 171.72748846 82.38489514 169.7363739 82.38389587 C164.49371068 82.38007625 159.25107513 82.37025066 154.00842285 82.35919189 C148.65950902 82.34896588 143.31059071 82.3443957 137.96166992 82.33935547 C127.46491297 82.32862792 116.96817656 82.31155812 106.47143555 82.29052734 C106.49500122 83.68960327 106.49500122 83.68960327 106.51904297 85.11694336 C106.57041536 88.60397998 106.60790324 92.09060974 106.63623047 95.57788086 C106.65124277 97.08217751 106.67165908 98.58643095 106.69775391 100.09057617 C106.73447371 102.2628043 106.75123716 104.43444985 106.7644043 106.60693359 C106.78796997 108.56288452 106.78796997 108.56288452 106.81201172 110.55834961 C106.09584128 118.40644813 102.10234123 123.97178274 96.47143555 129.29052734 C90.02723047 133.28593449 83.91079253 133.43979422 76.55371094 133.43579102 C75.66529007 133.43914963 74.7768692 133.44250824 73.86152649 133.44596863 C70.93070063 133.45545166 67.99993204 133.45742031 65.0690918 133.45849609 C63.02794878 133.46171013 60.98680599 133.46507432 58.94566345 133.46858215 C54.66949937 133.47456652 50.39335548 133.47642272 46.1171875 133.47583008 C40.64176972 133.47572841 35.16648147 133.48938874 29.6910944 133.50660229 C25.47630724 133.51772729 21.26155136 133.51974914 17.04675102 133.51922035 C15.02816763 133.5203994 13.0095834 133.52481694 10.99101448 133.53255272 C8.16676912 133.54236411 5.3428047 133.53947014 2.51855469 133.53344727 C1.68771362 133.53906677 0.85687256 133.54468628 0.00085449 133.55047607 C-8.01260922 133.50711222 -14.35309435 131.46599745 -20.16918945 125.64990234 C-25.85608865 119.30045179 -26.82764383 114.2119454 -26.8190918 105.85375977 C-26.82580902 104.91003006 -26.83252625 103.96630035 -26.83944702 102.99397278 C-26.85842551 99.8779268 -26.86235125 96.76209626 -26.86450195 93.64599609 C-26.8709303 91.47512219 -26.87765869 89.30424916 -26.88467407 87.13337708 C-26.8966467 82.58311963 -26.90035494 78.0329381 -26.89916992 73.48266602 C-26.89896681 67.66202838 -26.92626125 61.84187943 -26.96071434 56.02135754 C-26.98299112 51.53711222 -26.98700721 47.05298433 -26.98595047 42.56868935 C-26.98830554 40.42335642 -26.99712374 38.27802021 -27.0126152 36.13274193 C-27.03228911 33.12664307 -27.02643113 30.12159559 -27.0144043 27.11547852 C-27.02564331 26.23572357 -27.03688232 25.35596863 -27.04846191 24.44955444 C-26.97834097 17.52555274 -25.15667642 12.28960541 -20.5637207 7.04833984 C-19.91274414 6.50951172 -19.26176758 5.97068359 -18.59106445 5.41552734 C-17.94266602 4.86123047 -17.29426758 4.30693359 -16.6262207 3.73583984 C-11.23300703 0.01984532 -6.33962713 -0.0064189 0 0 Z M5.47143555 31.29052734 C5.47143555 54.39052734 5.47143555 77.49052734 5.47143555 101.29052734 C28.57143555 101.29052734 51.67143555 101.29052734 75.47143555 101.29052734 C75.47143555 78.19052734 75.47143555 55.09052734 75.47143555 31.29052734 C52.37143555 31.29052734 29.27143555 31.29052734 5.47143555 31.29052734 Z " fill="#074CA6" transform="translate(26.528564453125,-0.29052734375)"/>
</svg>
