<?xml version="1.0" encoding="UTF-8"?>
<svg version="1.1" xmlns="http://www.w3.org/2000/svg" width="961" height="1024">
<path d="M0 0 C1.03176159 -0.00350607 2.06352319 -0.00701215 3.12655029 -0.01062447 C6.57022726 -0.01989918 10.01373366 -0.0150253 13.45741749 -0.01015663 C15.95671517 -0.01389483 18.45601169 -0.01849702 20.95530635 -0.02388728 C26.3822287 -0.03356068 31.80910003 -0.03703519 37.23602962 -0.03497505 C45.30601501 -0.03191907 53.37596107 -0.04026203 61.4459388 -0.0507243 C76.6969267 -0.0700447 91.94790113 -0.07569171 107.19889983 -0.07683842 C118.97345781 -0.07775796 130.74801053 -0.08187699 142.5225668 -0.08823967 C145.91333112 -0.09003476 149.30409546 -0.09181439 152.6948598 -0.09358943 C153.53782482 -0.09403152 154.38078984 -0.09447362 155.24929925 -0.09492911 C178.95149003 -0.10723295 202.65367899 -0.11513066 226.35587311 -0.11424255 C227.24907564 -0.1142114 228.14227818 -0.11418024 229.06254746 -0.11414814 C233.58957697 -0.11398192 238.11660649 -0.11378384 242.64363601 -0.11357872 C243.54270919 -0.11353883 244.44178237 -0.11349894 245.3681002 -0.11345784 C247.18624154 -0.11337697 249.00438288 -0.11329337 250.82252422 -0.11320706 C279.12742229 -0.11198079 307.43227249 -0.12701056 335.73715687 -0.15435219 C367.54145615 -0.18506154 399.34572397 -0.20228552 431.15003902 -0.20042574 C434.53986029 -0.20027648 437.92968156 -0.20017907 441.31950283 -0.20011711 C442.15415798 -0.2000938 442.98881314 -0.20007049 443.84876087 -0.20004648 C457.28733224 -0.1999849 470.72586207 -0.21276255 484.16442109 -0.22998164 C497.66285578 -0.24692016 511.16122958 -0.2489258 524.659669 -0.235763 C532.68097679 -0.22836312 540.70209981 -0.2320628 548.72338808 -0.25164768 C554.70825122 -0.26502745 560.69289545 -0.25756589 566.67776106 -0.24190123 C569.10218962 -0.23881425 571.52663806 -0.24252705 573.95104321 -0.25362138 C577.24040855 -0.26768042 580.52881365 -0.25720402 583.81814575 -0.24050903 C584.76461431 -0.25044539 585.71108287 -0.26038175 586.6862323 -0.27061921 C594.11132694 -0.19066424 599.85126958 1.68691953 605.18906116 6.98383141 C606.44202991 8.41855797 606.44202991 8.41855797 607.72031116 9.88226891 C609.00421741 11.32472984 609.00421741 11.32472984 610.31406116 12.79633141 C612.22031116 15.25726891 612.22031116 15.25726891 612.22031116 17.25726891 C612.88031116 17.25726891 613.54031116 17.25726891 614.22031116 17.25726891 C615.63469522 18.83013575 616.97635517 20.46866886 618.28281116 22.13226891 C621.33056982 25.94562453 624.42531458 29.65535699 627.72031116 33.25726891 C631.68891614 37.61373056 635.43293306 42.11799006 639.13437366 46.70258141 C640.97238242 48.95362584 642.8586219 51.14263457 644.78281116 53.31976891 C647.22031116 56.25726891 647.22031116 56.25726891 647.22031116 58.25726891 C648.21031116 58.58726891 649.20031116 58.91726891 650.22031116 59.25726891 C651.82843782 60.98953165 653.36228433 62.7917698 654.84531116 64.63226891 C655.64195179 65.60937828 656.43859241 66.58648766 657.25937366 67.59320641 C659.22031116 70.25726891 659.22031116 70.25726891 660.22031116 73.25726891 C661.21031116 73.58726891 662.20031116 73.91726891 663.22031116 74.25726891 C664.72145485 75.90995662 666.15004783 77.62933577 667.53281116 79.38226891 C670.22058592 82.7595545 672.91693854 86.09225044 675.78281116 89.31976891 C678.22031116 92.25726891 678.22031116 92.25726891 678.22031116 94.25726891 C679.21031116 94.58726891 680.20031116 94.91726891 681.22031116 95.25726891 C681.22031116 95.91726891 681.22031116 96.57726891 681.22031116 97.25726891 C681.88031116 97.25726891 682.54031116 97.25726891 683.22031116 97.25726891 C685.16562366 99.37445641 685.16562366 99.37445641 687.34531116 102.13226891 C688.06976429 103.03719078 688.79421741 103.94211266 689.54062366 104.87445641 C691.22031116 107.25726891 691.22031116 107.25726891 691.22031116 109.25726891 C692.21031116 109.58726891 693.20031116 109.91726891 694.22031116 110.25726891 C695.72145485 111.90995662 697.15004783 113.62933577 698.53281116 115.38226891 C701.22058592 118.7595545 703.91693854 122.09225044 706.78281116 125.31976891 C709.22031116 128.25726891 709.22031116 128.25726891 709.22031116 130.25726891 C709.88031116 130.25726891 710.54031116 130.25726891 711.22031116 130.25726891 C711.22031116 130.91726891 711.22031116 131.57726891 711.22031116 132.25726891 C712.21031116 132.58726891 713.20031116 132.91726891 714.22031116 133.25726891 C715.72145485 134.90995662 717.15004783 136.62933577 718.53281116 138.38226891 C721.22058592 141.7595545 723.91693854 145.09225044 726.78281116 148.31976891 C729.22031116 151.25726891 729.22031116 151.25726891 729.22031116 153.25726891 C730.21031116 153.58726891 731.20031116 153.91726891 732.22031116 154.25726891 C733.82843782 155.98953165 735.36228433 157.7917698 736.84531116 159.63226891 C737.64195179 160.60937828 738.43859241 161.58648766 739.25937366 162.59320641 C741.22031116 165.25726891 741.22031116 165.25726891 742.22031116 168.25726891 C743.21031116 168.58726891 744.20031116 168.91726891 745.22031116 169.25726891 C748.44296354 172.74105702 751.31537742 176.50659496 754.22031116 180.25726891 C754.69597523 180.86828453 755.17163929 181.47930016 755.66171741 182.10883141 C759.77051266 187.77927207 759.36628661 194.26501713 759.35059643 200.96765232 C759.35351157 202.27082716 759.35351157 202.27082716 759.35648561 203.60032877 C759.3618117 206.51961527 759.36004269 209.43885452 759.35834217 212.35814476 C759.36076019 214.46895854 759.36362244 216.57977185 759.3668915 218.69058448 C759.37464871 224.49744316 759.37626413 230.30429002 759.37694263 236.11115324 C759.37878154 242.37088101 759.38638776 248.63060184 759.39342213 254.89032555 C759.40420113 265.03394167 759.41237604 275.17755503 759.41830224 285.32117486 C759.42833504 302.43678626 759.44758762 319.55237773 759.46984463 336.66797716 C759.47837467 343.25228754 759.48664095 349.83659826 759.49494839 356.42090893 C759.4963359 357.5181474 759.4963359 357.5181474 759.49775144 358.63755231 C759.51973936 376.04765439 759.53953299 393.45775867 759.55820179 410.86786461 C759.55943131 412.01052714 759.55943131 412.01052714 759.56068567 413.17627376 C759.57977944 430.95778676 759.59674062 448.73929963 759.60904408 466.52081871 C759.60957374 467.28608218 759.61010341 468.05134564 759.61064913 468.83979891 C759.61490099 475.00864748 759.61907717 481.1774961 759.62323393 487.34634474 C759.64041663 512.75898785 759.66760553 538.17160364 759.7063943 563.58422329 C759.71185639 567.16990296 759.71718931 570.75558282 759.72243595 574.34126282 C759.72347033 575.04697144 759.72450471 575.75268007 759.72557044 576.4797738 C759.74191829 587.8544329 759.74742548 599.22907294 759.74873361 610.60374266 C759.75023507 622.02472472 759.76258134 633.4456441 759.78549002 644.86660727 C759.79756317 651.05828829 759.80464113 657.24987426 759.79877758 663.44156647 C759.79351281 669.10200337 759.80185396 674.76224576 759.82133396 680.42265008 C759.82593856 682.47768716 759.82539977 684.53274306 759.81938557 686.5877765 C759.81197397 689.36689172 759.82275017 692.14534202 759.83834362 694.92440891 C759.83178108 695.73463331 759.82521853 696.5448577 759.81845713 697.37963435 C759.7900835 701.58064458 759.7900835 701.58064458 761.74418414 705.15307266 C762.23130606 705.51745742 762.71842798 705.88184218 763.22031116 706.25726891 C763.22031116 706.91726891 763.22031116 707.57726891 763.22031116 708.25726891 C763.88031116 708.25726891 764.54031116 708.25726891 765.22031116 708.25726891 C766.48202991 709.57758141 766.48202991 709.57758141 767.90781116 711.38226891 C770.02441084 713.94690793 772.14996046 716.14855547 774.72031116 718.25726891 C777.86163545 720.84137381 780.40991387 723.67614568 782.95859241 726.83930016 C784.1851041 728.39421311 784.1851041 728.39421311 786.22031116 729.25726891 C786.22031116 729.91726891 786.22031116 730.57726891 786.22031116 731.25726891 C786.88031116 731.25726891 787.54031116 731.25726891 788.22031116 731.25726891 C789.48202991 732.57758141 789.48202991 732.57758141 790.90781116 734.38226891 C793.56160372 737.59543931 796.38658831 740.26231411 799.60702991 742.89789391 C801.25149603 744.28354574 802.78995803 745.64974212 804.22031116 747.25726891 C804.22031116 747.91726891 804.22031116 748.57726891 804.22031116 749.25726891 C804.88031116 749.25726891 805.54031116 749.25726891 806.22031116 749.25726891 C807.84531116 750.63226891 807.84531116 750.63226891 809.22031116 752.25726891 C809.22031116 752.91726891 809.22031116 753.57726891 809.22031116 754.25726891 C809.88031116 754.25726891 810.54031116 754.25726891 811.22031116 754.25726891 C812.48202991 755.57758141 812.48202991 755.57758141 813.90781116 757.38226891 C816.56160372 760.59543931 819.38658831 763.26231411 822.60702991 765.89789391 C824.25149603 767.28354574 825.78995803 768.64974212 827.22031116 770.25726891 C827.22031116 770.91726891 827.22031116 771.57726891 827.22031116 772.25726891 C827.88031116 772.25726891 828.54031116 772.25726891 829.22031116 772.25726891 C830.48202991 773.57758141 830.48202991 773.57758141 831.90781116 775.38226891 C834.56160372 778.59543931 837.38658831 781.26231411 840.60702991 783.89789391 C842.25149603 785.28354574 843.78995803 786.64974212 845.22031116 788.25726891 C845.22031116 788.91726891 845.22031116 789.57726891 845.22031116 790.25726891 C845.88031116 790.25726891 846.54031116 790.25726891 847.22031116 790.25726891 C852.22031116 795.73345938 852.22031116 795.73345938 852.22031116 798.25726891 C853.21031116 798.58726891 854.20031116 798.91726891 855.22031116 799.25726891 C860.64602214 805.51159265 865.12589121 812.58178596 868.22031116 820.25726891 C868.81005726 821.713265 868.81005726 821.713265 869.41171741 823.19867516 C876.28237988 843.85854173 873.86577476 868.00459951 864.59531116 887.38226891 C860.69023757 895.05689416 855.79940308 901.72519777 850.22031116 908.25726891 C849.65956898 908.91984703 849.09882679 909.58242516 848.52109241 910.26508141 C835.65458583 924.20109609 816.87588489 933.44813491 797.95883656 934.36713219 C783.9006572 934.71854976 772.51999165 932.96471595 759.22031116 928.25726891 C759.24351429 928.79351891 759.26671741 929.32976891 759.29062366 929.88226891 C759.8327462 953.42587623 752.88143455 976.29198024 737.22031116 994.25726891 C736.56031116 994.25726891 735.90031116 994.25726891 735.22031116 994.25726891 C734.89031116 995.24726891 734.56031116 996.23726891 734.22031116 997.25726891 C733.56031116 997.25726891 732.90031116 997.25726891 732.22031116 997.25726891 C732.22031116 997.91726891 732.22031116 998.57726891 732.22031116 999.25726891 C726.74412069 1004.25726891 726.74412069 1004.25726891 724.22031116 1004.25726891 C723.89031116 1005.24726891 723.56031116 1006.23726891 723.22031116 1007.25726891 C712.12340626 1015.48102169 699.65846762 1020.37069829 686.22031116 1023.25726891 C685.44369738 1023.43153621 684.6670836 1023.60580351 683.86693607 1023.78535165 C681.24188556 1024.25342199 678.84660405 1024.38377776 676.18290645 1024.38607007 C675.18435733 1024.38934227 674.18580822 1024.39261446 673.15700004 1024.39598581 C671.51910995 1024.39376038 671.51910995 1024.39376038 669.84813118 1024.39148998 C668.67940011 1024.39384221 667.51066903 1024.39619444 666.30652186 1024.39861795 C663.05189562 1024.40414173 659.79730307 1024.40517968 656.54267337 1024.40434054 C653.00565142 1024.40451007 649.46863831 1024.41041655 645.93162078 1024.41558141 C638.91137533 1024.42490988 631.8911362 1024.42882988 624.87088533 1024.43110037 C616.4635945 1024.43406187 608.05631205 1024.44275908 599.64902562 1024.45151465 C579.32499833 1024.47236407 559.00096959 1024.48283031 538.6769341 1024.49164426 C529.06071627 1024.49585075 519.44449907 1024.50107279 509.82828178 1024.50632879 C476.90735096 1024.52422094 443.98641996 1024.53921599 411.065485 1024.54664898 C408.9984312 1024.54712374 406.9313774 1024.54759962 404.8643236 1024.54807664 C403.32671746 1024.54843121 403.32671746 1024.54843121 401.75804858 1024.54879293 C396.56456123 1024.54999413 391.37107389 1024.55120958 386.17758656 1024.55243492 C385.14692351 1024.55267507 384.11626046 1024.55291522 383.05436519 1024.55316265 C349.65032733 1024.56105264 316.24632501 1024.58447729 282.84230266 1024.61699087 C247.52198628 1024.65130683 212.20169069 1024.67100184 176.88135737 1024.67429322 C173.00202413 1024.67471075 169.12269089 1024.67519031 165.24335766 1024.6757164 C163.81056663 1024.67590119 163.81056663 1024.67590119 162.34883034 1024.67608971 C146.99086818 1024.67841973 131.63294735 1024.69406889 116.27499991 1024.71455825 C100.8287452 1024.73483798 85.38254001 1024.74028342 69.93627445 1024.73078761 C60.76622057 1024.72558073 51.59633185 1024.73141159 42.42630182 1024.75332228 C36.2910086 1024.76687042 30.15582855 1024.76571809 24.02053409 1024.75292033 C20.53109272 1024.74605018 17.04196613 1024.74526187 13.55255339 1024.76248042 C-17.88714438 1024.88899825 -41.89231467 1018.88156981 -64.77968884 996.25726891 C-84.92349852 975.80355445 -89.25002761 951.33074111 -89.16736889 923.74741173 C-89.1715465 921.47238763 -89.17702635 919.19736561 -89.1836887 916.92234743 C-89.19810494 910.69851579 -89.19391056 904.47481702 -89.18652189 898.25097823 C-89.18227058 892.21972259 -89.19211036 886.18849954 -89.20142951 880.15725362 C-89.22105586 867.06872655 -89.22345187 853.98023916 -89.21823431 840.89170089 C-89.21367209 829.44125917 -89.21428266 817.99083314 -89.22007465 806.54039192 C-89.22083152 805.0027737 -89.2215875 803.46515548 -89.2223426 801.92753725 C-89.22348782 799.61037494 -89.2246377 797.29321263 -89.22580184 794.97605033 C-89.23649981 773.4469128 -89.24123891 751.91778048 -89.23333168 730.38864136 C-89.23303451 729.57779418 -89.23273733 728.76694701 -89.23243116 727.93152871 C-89.22998235 721.34734736 -89.2273707 714.76316607 -89.22474702 708.17898479 C-89.21463731 682.47832944 -89.22301657 656.77773938 -89.24624157 631.07709312 C-89.27230613 602.18762555 -89.28516498 573.29819728 -89.27805382 544.40871751 C-89.27733777 541.32956211 -89.27666338 538.25040671 -89.27601337 535.1712513 C-89.27584357 534.41310892 -89.27567376 533.65496655 -89.2754988 532.87385016 C-89.2731953 521.42686963 -89.28117484 509.9799256 -89.29430485 498.53295326 C-89.30920293 485.52150968 -89.31007636 472.51015171 -89.29223394 459.49870999 C-89.28350366 452.85875575 -89.28163661 446.21892952 -89.29688549 439.57897377 C-89.3106658 433.50345099 -89.30605527 427.42823302 -89.28664625 421.35272817 C-89.2828656 419.15248141 -89.2858672 416.95221062 -89.29625791 414.75198515 C-89.30936362 411.76498701 -89.29790127 408.77905096 -89.28026009 405.792099 C-89.29473585 404.50604097 -89.29473585 404.50604097 -89.30950406 403.19400197 C-89.23221816 396.83575035 -87.69891279 391.58488295 -83.43862661 386.72859637 C-78.94592127 382.61788732 -74.26305374 381.48302935 -68.34218884 380.94476891 C-61.4626448 381.54823768 -56.60626387 383.99919738 -51.32265759 388.36664391 C-46.7499282 393.96968447 -46.34605028 399.63983102 -46.40889454 406.57255363 C-46.40524261 407.49461188 -46.40159069 408.41667013 -46.3978281 409.36666954 C-46.3892139 412.461425 -46.40199208 415.55572099 -46.41460705 418.65045738 C-46.41274869 420.88970122 -46.40956051 423.12894429 -46.40515554 425.36818457 C-46.39680981 431.5259201 -46.40707095 437.68350703 -46.42024422 443.84122896 C-46.43002203 449.79905857 -46.42568396 455.75687251 -46.42149012 461.71470489 C-46.41329743 473.90497896 -46.4183174 486.0952129 -46.43012905 498.28548241 C-46.44600627 514.94118642 -46.4403043 531.59683563 -46.42851262 548.25254053 C-46.42302291 556.01479485 -46.41847556 563.77704973 -46.41407871 571.53930473 C-46.41363573 572.31639141 -46.41319275 573.09347809 -46.41273634 573.89411284 C-46.40236994 592.39048995 -46.40049067 610.88686581 -46.40078259 629.38324547 C-46.4007902 630.1924983 -46.40079781 631.00175114 -46.40080565 631.83552679 C-46.40103478 650.70954802 -46.40426105 669.58356651 -46.41170788 688.45758629 C-46.4123472 690.09628672 -46.41298597 691.73498716 -46.41362419 693.3736876 C-46.41394069 694.1842252 -46.41425719 694.9947628 -46.41458328 695.82986214 C-46.41585911 699.09981816 -46.41713058 702.36977418 -46.41839222 705.63973021 C-46.41902209 707.27168536 -46.41965613 708.90364051 -46.42029436 710.53559566 C-46.42743483 728.98403188 -46.43065695 747.43245306 -46.41888523 765.88088799 C-46.41839015 766.65694553 -46.41789508 767.43300308 -46.417385 768.23257753 C-46.41232103 775.98192817 -46.40638845 783.73127772 -46.39925166 791.48062673 C-46.39576692 795.29364038 -46.39252016 799.1066542 -46.38944149 802.9196682 C-46.38883496 803.67006521 -46.38822842 804.42046223 -46.38760351 805.19359854 C-46.37844123 817.25486794 -46.3879352 829.3160539 -46.40500805 841.3773118 C-46.42190523 853.5074796 -46.42119922 865.63754091 -46.40248634 877.76770705 C-46.3928832 884.33560302 -46.39198267 890.90328945 -46.41271687 897.47117043 C-46.43156734 903.48941278 -46.42725045 909.507187 -46.40488927 915.52541322 C-46.40086899 917.69705949 -46.40522315 919.86874173 -46.41902323 922.04034787 C-46.50924165 937.23486032 -45.47879162 949.32963828 -36.77968884 962.25726891 C-36.77968884 962.91726891 -36.77968884 963.57726891 -36.77968884 964.25726891 C-35.78968884 964.58726891 -34.79968884 964.91726891 -33.77968884 965.25726891 C-33.77968884 965.91726891 -33.77968884 966.57726891 -33.77968884 967.25726891 C-33.11968884 967.25726891 -32.45968884 967.25726891 -31.77968884 967.25726891 C-31.77968884 967.91726891 -31.77968884 968.57726891 -31.77968884 969.25726891 C-30.78968884 969.58726891 -29.79968884 969.91726891 -28.77968884 970.25726891 C-28.77968884 970.91726891 -28.77968884 971.57726891 -28.77968884 972.25726891 C-28.05394665 972.53570641 -27.32820446 972.81414391 -26.58047009 973.10101891 C-23.1187459 974.5301268 -19.87242931 976.2728988 -16.57265759 978.03851891 C-9.12969355 981.28635776 -2.17548156 981.54462005 5.82780743 981.5117445 C6.98551307 981.51495098 8.14321871 981.51815746 9.33600634 981.5214611 C12.54571052 981.5283256 15.75526481 981.52626223 18.96496636 981.52040538 C22.45834888 981.51622988 25.9517102 981.52363997 29.44508755 981.52955788 C35.56653576 981.53831935 41.6879505 981.53963219 47.80940342 981.53605461 C56.91229555 981.53074862 66.01515529 981.53684186 75.1180439 981.54513754 C92.32124549 981.56038404 109.52443237 981.56208195 126.7276393 981.55961452 C140.01111886 981.55778241 153.29459359 981.55953973 166.57807255 981.56383896 C168.48597681 981.56444136 170.39388107 981.56504256 172.30178533 981.56564256 C175.17675373 981.56654981 178.05172213 981.56745847 180.92669053 981.56837491 C207.65929877 981.57680543 234.39190519 981.58113944 261.12451458 981.57696819 C262.13244496 981.57681182 263.14037535 981.57665544 264.17884908 981.57649433 C269.28752945 981.57568853 274.39620982 981.57484276 279.50489019 981.57398102 C280.51950435 981.57380994 281.53411851 981.57363885 282.57947855 981.57346258 C284.63127492 981.57311592 286.68307128 981.57276739 288.73486764 981.57241699 C320.66443396 981.56705918 352.59397266 981.5749915 384.52353382 981.59345055 C420.39046397 981.61416153 456.25737701 981.62489501 492.12431347 981.62087506 C495.9478484 981.62047971 499.77138332 981.62011816 503.59491825 981.61977768 C504.53638065 981.61968695 505.47784304 981.61959622 506.4478346 981.61950273 C520.66653469 981.61833626 534.88521753 981.62498886 549.10391331 981.6355896 C565.2723549 981.64763161 581.44075844 981.64921206 597.60920058 981.63679943 C606.65872354 981.63016317 615.70815555 981.63181956 624.75767127 981.64538795 C630.80231203 981.65362075 636.84688454 981.65095014 642.89151974 981.63941268 C646.33564877 981.63314465 649.7796001 981.63158523 653.22371899 981.64327601 C656.93635651 981.6533477 660.64851449 981.64498864 664.36113262 981.63199902 C665.95954263 981.64296303 665.95954263 981.64296303 667.59024376 981.65414855 C680.75685246 981.55844352 692.71638178 976.87578085 702.28281116 967.63226891 C704.69050478 965.04341388 706.4546895 962.32387495 708.22031116 959.25726891 C708.88031116 959.25726891 709.54031116 959.25726891 710.22031116 959.25726891 C710.37499866 958.23633141 710.37499866 958.23633141 710.53281116 957.19476891 C711.22031116 954.25726891 711.22031116 954.25726891 712.65781116 951.13226891 C716.19852432 943.13182138 716.51990271 934.28531647 716.45077991 925.66351891 C716.45032169 924.70957237 716.44986347 923.75562584 716.44939137 922.77277184 C716.44639753 920.77963562 716.43859884 918.78650113 716.42612171 916.79340172 C716.40768894 913.73700303 716.40561368 910.68090529 716.40585804 907.62445641 C716.40094815 905.67914128 716.39512216 903.7338282 716.38827991 901.78851891 C716.38661068 900.41983665 716.38661068 900.41983665 716.38490772 899.02350426 C716.37852787 898.17832237 716.37214802 897.33314049 716.36557484 896.46234703 C716.36176304 895.72053185 716.35795124 894.97871666 716.35402393 894.21442223 C716.28777858 892.04162284 716.28777858 892.04162284 715.22031116 889.25726891 C714.56031116 888.92726891 713.90031116 888.59726891 713.22031116 888.25726891 C711.22031116 887.25726891 711.22031116 887.25726891 710.22031116 884.25726891 C708.89623448 883.57240165 707.56121876 882.90856688 706.22031116 882.25726891 C703.97031116 880.25726891 703.97031116 880.25726891 702.22031116 878.25726891 C702.22031116 877.59726891 702.22031116 876.93726891 702.22031116 876.25726891 C701.58093616 875.98914391 700.94156116 875.72101891 700.28281116 875.44476891 C698.22031116 874.25726891 698.22031116 874.25726891 697.22031116 871.25726891 C696.56031116 870.92726891 695.90031116 870.59726891 695.22031116 870.25726891 C693.22031116 869.25726891 693.22031116 869.25726891 692.22031116 866.25726891 C691.56031116 865.92726891 690.90031116 865.59726891 690.22031116 865.25726891 C688.22031116 864.25726891 688.22031116 864.25726891 687.22031116 861.25726891 C685.89623448 860.57240165 684.56121876 859.90856688 683.22031116 859.25726891 C680.97031116 857.25726891 680.97031116 857.25726891 679.22031116 855.25726891 C679.22031116 854.59726891 679.22031116 853.93726891 679.22031116 853.25726891 C678.58093616 852.98914391 677.94156116 852.72101891 677.28281116 852.44476891 C675.22031116 851.25726891 675.22031116 851.25726891 674.22031116 848.25726891 C673.56031116 847.92726891 672.90031116 847.59726891 672.22031116 847.25726891 C670.22031116 846.25726891 670.22031116 846.25726891 669.22031116 843.25726891 C667.89409408 842.57655571 666.55921494 841.91267635 665.22031116 841.25726891 C663.58898845 839.80960504 662.00750909 838.30451387 660.47031116 836.75726891 C659.67109241 835.96320641 658.87187366 835.16914391 658.04843616 834.35101891 C656.22031116 832.25726891 656.22031116 832.25726891 656.22031116 830.25726891 C655.58093616 829.98914391 654.94156116 829.72101891 654.28281116 829.44476891 C652.22031116 828.25726891 652.22031116 828.25726891 651.22031116 825.25726891 C650.56031116 824.92726891 649.90031116 824.59726891 649.22031116 824.25726891 C647.22031116 823.25726891 647.22031116 823.25726891 646.22031116 820.25726891 C644.89623448 819.57240165 643.56121876 818.90856688 642.22031116 818.25726891 C639.97031116 816.25726891 639.97031116 816.25726891 638.22031116 814.25726891 C638.22031116 813.59726891 638.22031116 812.93726891 638.22031116 812.25726891 C637.58093616 811.98914391 636.94156116 811.72101891 636.28281116 811.44476891 C634.22031116 810.25726891 634.22031116 810.25726891 633.22031116 807.25726891 C632.56031116 806.92726891 631.90031116 806.59726891 631.22031116 806.25726891 C629.22031116 805.25726891 629.22031116 805.25726891 628.22031116 802.25726891 C626.89409408 801.57655571 625.55921494 800.91267635 624.22031116 800.25726891 C622.58898845 798.80960504 621.00750909 797.30451387 619.47031116 795.75726891 C618.67109241 794.96320641 617.87187366 794.16914391 617.04843616 793.35101891 C615.22031116 791.25726891 615.22031116 791.25726891 615.22031116 789.25726891 C614.58093616 788.98914391 613.94156116 788.72101891 613.28281116 788.44476891 C611.22031116 787.25726891 611.22031116 787.25726891 610.22031116 784.25726891 C609.56031116 783.92726891 608.90031116 783.59726891 608.22031116 783.25726891 C606.22031116 782.25726891 606.22031116 782.25726891 605.22031116 779.25726891 C603.89409408 778.57655571 602.55921494 777.91267635 601.22031116 777.25726891 C599.58898845 775.80960504 598.00750909 774.30451387 596.47031116 772.75726891 C595.67109241 771.96320641 594.87187366 771.16914391 594.04843616 770.35101891 C592.22031116 768.25726891 592.22031116 768.25726891 592.22031116 766.25726891 C591.58093616 765.98914391 590.94156116 765.72101891 590.28281116 765.44476891 C588.22031116 764.25726891 588.22031116 764.25726891 587.22031116 761.25726891 C585.89409408 760.57655571 584.55921494 759.91267635 583.22031116 759.25726891 C581.58898845 757.80960504 580.00750909 756.30451387 578.47031116 754.75726891 C577.67109241 753.96320641 576.87187366 753.16914391 576.04843616 752.35101891 C574.22031116 750.25726891 574.22031116 750.25726891 574.22031116 748.25726891 C573.58093616 747.98914391 572.94156116 747.72101891 572.28281116 747.44476891 C570.22031116 746.25726891 570.22031116 746.25726891 569.22031116 743.25726891 C568.56031116 742.92726891 567.90031116 742.59726891 567.22031116 742.25726891 C565.22031116 741.25726891 565.22031116 741.25726891 564.22031116 738.25726891 C562.89409408 737.57655571 561.55921494 736.91267635 560.22031116 736.25726891 C558.58898845 734.80960504 557.00750909 733.30451387 555.47031116 731.75726891 C554.67109241 730.96320641 553.87187366 730.16914391 553.04843616 729.35101891 C551.22031116 727.25726891 551.22031116 727.25726891 551.22031116 725.25726891 C550.58093616 724.98914391 549.94156116 724.72101891 549.28281116 724.44476891 C547.22031116 723.25726891 547.22031116 723.25726891 546.22031116 720.25726891 C545.56031116 719.92726891 544.90031116 719.59726891 544.22031116 719.25726891 C542.22031116 718.25726891 542.22031116 718.25726891 541.22031116 715.25726891 C539.89623448 714.57240165 538.56121876 713.90856688 537.22031116 713.25726891 C534.97031116 711.25726891 534.97031116 711.25726891 533.22031116 709.25726891 C533.22031116 708.59726891 533.22031116 707.93726891 533.22031116 707.25726891 C532.58093616 706.98914391 531.94156116 706.72101891 531.28281116 706.44476891 C529.22031116 705.25726891 529.22031116 705.25726891 528.22031116 702.25726891 C527.56031116 701.92726891 526.90031116 701.59726891 526.22031116 701.25726891 C524.22031116 700.25726891 524.22031116 700.25726891 523.22031116 697.25726891 C521.89409408 696.57655571 520.55921494 695.91267635 519.22031116 695.25726891 C517.58898845 693.80960504 516.00750909 692.30451387 514.47031116 690.75726891 C513.67109241 689.96320641 512.87187366 689.16914391 512.04843616 688.35101891 C510.22031116 686.25726891 510.22031116 686.25726891 510.22031116 684.25726891 C509.58093616 683.98914391 508.94156116 683.72101891 508.28281116 683.44476891 C506.22031116 682.25726891 506.22031116 682.25726891 505.22031116 679.25726891 C504.56031116 678.92726891 503.90031116 678.59726891 503.22031116 678.25726891 C501.22031116 677.25726891 501.22031116 677.25726891 500.22031116 674.25726891 C498.89409408 673.57655571 497.55921494 672.91267635 496.22031116 672.25726891 C494.58898845 670.80960504 493.00750909 669.30451387 491.47031116 667.75726891 C490.67109241 666.96320641 489.87187366 666.16914391 489.04843616 665.35101891 C487.22031116 663.25726891 487.22031116 663.25726891 487.22031116 661.25726891 C486.58093616 660.98914391 485.94156116 660.72101891 485.28281116 660.44476891 C483.22031116 659.25726891 483.22031116 659.25726891 482.22031116 656.25726891 C480.89409408 655.57655571 479.55921494 654.91267635 478.22031116 654.25726891 C476.58898845 652.80960504 475.00750909 651.30451387 473.47031116 649.75726891 C472.67109241 648.96320641 471.87187366 648.16914391 471.04843616 647.35101891 C469.22031116 645.25726891 469.22031116 645.25726891 469.22031116 643.25726891 C466.572922 641.7966404 465.32582782 641.25726891 462.22031116 641.25726891 C460.69254351 641.83634789 459.18946432 642.48172693 457.70468616 643.16351891 C456.79501087 643.57384361 455.88533558 643.98416832 454.94809437 644.40692711 C453.96542591 644.8525399 452.98275745 645.29815269 451.97031116 645.75726891 C428.60953798 656.1052535 404.5295506 663.59195284 379.22031116 667.25726891 C378.53259632 667.36168297 377.84488148 667.46609703 377.13632679 667.57367516 C351.07278855 671.36910284 323.12541097 670.61029978 297.22031116 666.25726891 C296.4878014 666.1344857 295.75529163 666.0117025 295.0005846 665.88519859 C290.70842923 665.13864737 286.46657898 664.22811371 282.22031116 663.25726891 C280.87021034 662.96746192 279.51994243 662.67843251 278.16952991 662.39008141 C251.36172365 656.53429284 223.76347197 646.25619059 201.14218616 630.56586266 C197.35011795 627.98386499 193.29436879 625.85142844 189.28281116 623.63226891 C188.60218616 623.17851891 187.92156116 622.72476891 187.22031116 622.25726891 C187.22031116 621.59726891 187.22031116 620.93726891 187.22031116 620.25726891 C186.23031116 620.25726891 185.24031116 620.25726891 184.22031116 620.25726891 C184.22031116 619.59726891 184.22031116 618.93726891 184.22031116 618.25726891 C183.10644032 617.85761925 183.10644032 617.85761925 181.97006702 617.44989586 C179.27476735 616.2808877 177.46138023 615.05461023 175.22421741 613.17523766 C174.50040882 612.57260094 173.77660023 611.96996422 173.03085804 611.34906578 C172.28900257 610.72064781 171.5471471 610.09222984 170.78281116 609.44476891 C170.04482288 608.8279525 169.3068346 608.21113609 168.54648304 607.57562828 C167.10363629 606.36876713 165.6642228 605.15778711 164.22861195 603.9423275 C162.94781761 602.86768095 161.65550506 601.80651444 160.34872913 600.76361656 C158.93875331 599.63588421 157.57388921 598.45210721 156.22031116 597.25726891 C156.22031116 596.59726891 156.22031116 595.93726891 156.22031116 595.25726891 C155.56031116 595.25726891 154.90031116 595.25726891 154.22031116 595.25726891 C152.59531116 593.88226891 152.59531116 593.88226891 151.22031116 592.25726891 C151.22031116 591.59726891 151.22031116 590.93726891 151.22031116 590.25726891 C150.23031116 589.92726891 149.24031116 589.59726891 148.22031116 589.25726891 C148.22031116 588.59726891 148.22031116 587.93726891 148.22031116 587.25726891 C147.56031116 587.25726891 146.90031116 587.25726891 146.22031116 587.25726891 C146.22031116 586.59726891 146.22031116 585.93726891 146.22031116 585.25726891 C145.23031116 584.92726891 144.24031116 584.59726891 143.22031116 584.25726891 C141.34531116 582.24555016 141.34531116 582.24555016 139.22031116 579.56976891 C138.4249596 578.57203453 137.62960804 577.57430016 136.81015491 576.54633141 C136.38847034 576.01040367 135.96678577 575.47447594 135.53232288 574.92230797 C134.20909662 573.24303683 132.87399477 571.57380174 131.53671741 569.90570641 C115.02042909 549.21911418 100.68067473 527.11146968 91.22031116 502.25726891 C90.57511024 500.69450766 89.92925792 499.13201522 89.28281116 497.56976891 C85.34608975 487.65107627 82.19593158 477.59827956 79.59531116 467.25726891 C79.40138783 466.48785973 79.20746449 465.71845055 79.00766468 464.92572594 C75.95370742 452.44343556 73.71874082 439.99353648 72.53281116 427.19476891 C72.43900166 426.18822762 72.43900166 426.18822762 72.343297 425.16135216 C68.89221304 387.57715082 73.32971403 350.09061733 85.22031116 314.25726891 C85.43687366 313.59662437 85.65343616 312.93597984 85.87656116 312.25531578 C88.73174938 303.6272939 92.24507078 295.42338771 96.22031116 287.25726891 C96.5180846 286.64125816 96.81585804 286.02524742 97.12265491 285.39056969 C102.10149269 275.12042558 107.53588146 265.15238728 113.22031116 255.25726891 C113.88031116 255.25726891 114.54031116 255.25726891 115.22031116 255.25726891 C115.29507679 254.73004234 115.36984241 254.20281578 115.44687366 253.65961266 C116.53459677 250.28107877 118.52548741 247.65690561 120.59531116 244.81976891 C121.03286732 244.2122982 121.47042347 243.6048275 121.9212389 242.97894859 C126.03320476 237.3528896 130.4975261 232.05973517 135.06796741 226.80414391 C137.21232152 224.4697065 137.21232152 224.4697065 138.22031116 222.25726891 C138.88031116 222.25726891 139.54031116 222.25726891 140.22031116 222.25726891 C140.46491077 221.68742271 140.70951038 221.11757652 140.9615221 220.53046227 C142.44357224 217.85409127 144.19181805 216.04336733 146.36093616 213.88617516 C147.1846471 213.06439781 148.00835804 212.24262047 148.85702991 211.39594078 C149.71941273 210.54580406 150.58179554 209.69566734 151.47031116 208.81976891 C152.74068226 207.55036461 152.74068226 207.55036461 154.03671741 206.25531578 C166.11932374 194.25726891 166.11932374 194.25726891 169.22031116 194.25726891 C169.55031116 193.26726891 169.88031116 192.27726891 170.22031116 191.25726891 C171.77890491 189.87055016 171.77890491 189.87055016 173.65781116 188.56976891 C174.2752721 188.13277672 174.89273304 187.69578453 175.52890491 187.24555016 C177.22031116 186.25726891 177.22031116 186.25726891 179.22031116 186.25726891 C179.22031116 185.59726891 179.22031116 184.93726891 179.22031116 184.25726891 C181.50208597 182.58577116 183.78094605 181.03274065 186.15781116 179.50726891 C187.54856133 178.601211 188.93918695 177.6949619 190.32968616 176.78851891 C191.00451038 176.35152672 191.6793346 175.91453453 192.37460804 175.46430016 C194.58216857 174.02062565 196.74326063 172.51443742 198.90781116 171.00726891 C203.04651845 168.25325922 207.38850271 166.05904887 211.85702991 163.89008141 C214.26929907 162.71896816 216.6641879 161.53014742 219.05234241 160.31195641 C239.0341745 150.12848551 259.58658889 142.51893738 281.47031116 137.44476891 C282.24632679 137.262286 283.02234241 137.07980309 283.82187366 136.89179039 C286.61237826 136.28023867 289.40760782 135.75814984 292.22031116 135.25726891 C292.90925465 135.13265282 293.59819813 135.00803673 294.30801868 134.87964439 C309.57419712 132.19329003 324.61878797 131.6980009 340.09531116 131.75726891 C341.30242756 131.75869896 342.50954395 131.76012901 343.75323963 131.7616024 C362.71894409 131.81713612 380.72974147 132.81261443 399.22031116 137.25726891 C400.25784534 137.50315758 401.29537952 137.74904625 402.36435413 138.00238609 C408.71697503 139.54786391 414.97999498 141.30996417 421.22031116 143.25726891 C421.94121937 143.47914879 422.66212757 143.70102867 423.40488148 143.92963219 C440.61569372 149.27609035 458.10416599 156.38858375 473.33749866 166.12836266 C475.32522241 167.41259074 475.32522241 167.41259074 478.22031116 168.25726891 C478.22031116 168.91726891 478.22031116 169.57726891 478.22031116 170.25726891 C478.90093616 170.50476891 479.58156116 170.75226891 480.28281116 171.00726891 C487.35648654 174.01734353 493.38803491 178.39056391 499.53281116 182.94476891 C500.37368275 183.5661776 501.21455433 184.18758629 502.08090687 184.82782555 C508.12721714 189.34075735 513.73458659 194.07630681 519.22031116 199.25726891 C520.48692983 200.34552698 521.75771963 201.42895075 523.03281116 202.50726891 C526.80693711 205.79615008 530.36126028 209.28962573 533.90781116 212.81976891 C534.72825916 213.63332848 534.72825916 213.63332848 535.56528187 214.46332359 C545.22031116 224.15508638 545.22031116 224.15508638 545.22031116 227.25726891 C545.88031116 227.25726891 546.54031116 227.25726891 547.22031116 227.25726891 C548.46616077 228.54804039 548.46616077 228.54804039 549.87265491 230.37836266 C550.39649769 231.05810143 550.92034046 231.73784019 551.46005726 232.43817711 C552.02031605 233.1828524 552.58057484 233.92752769 553.15781116 234.69476891 C553.73611683 235.4581356 554.31442249 236.2215023 554.91025257 237.00800133 C560.76539062 244.831691 566.07671132 252.95390472 571.22031116 261.25726891 C571.83132679 262.22277672 572.44234241 263.18828453 573.07187366 264.18305016 C585.69836817 284.8581869 595.0133419 307.87828091 601.22031116 331.25726891 C601.45532337 332.12649986 601.69033558 332.99573082 601.93246937 333.89130211 C611.24184692 369.5000448 613.39910915 410.1041419 606.22031116 446.25726891 C605.9629015 447.63253746 605.9629015 447.63253746 605.70029163 449.03558922 C600.75158202 475.17220568 592.44121437 499.65293556 580.22031116 523.25726891 C582.47723836 526.18291527 584.63244025 528.7785451 587.53281116 531.06976891 C590.92970838 533.88599993 593.68716891 537.02891199 596.53671741 540.38617516 C598.33338014 542.4725338 598.33338014 542.4725338 601.22031116 544.75726891 C604.38419301 547.39383711 606.90802599 550.23382743 609.57577991 553.35492516 C611.67552707 555.78384882 613.92292263 558.0145801 616.22031116 560.25726891 C616.90093616 560.94820641 617.58156116 561.63914391 618.28281116 562.35101891 C621.70016044 565.81454858 625.08871998 569.22311941 628.84531116 572.31976891 C632.12445948 575.0460816 634.78248731 578.14121363 637.53671741 581.38617516 C639.33338014 583.4725338 639.33338014 583.4725338 642.22031116 585.75726891 C645.37902604 588.3895313 647.89933759 591.22461229 650.56406116 594.33930016 C653.50142235 597.74081983 656.59440558 600.75382311 660.09531116 603.56976891 C663.29728029 606.17908565 665.88420773 609.20461917 668.56015491 612.33930016 C670.66437208 614.77028987 672.91738767 617.01494866 675.22031116 619.25726891 C676.02468616 620.08226891 676.82906116 620.90726891 677.65781116 621.75726891 C680.19554069 624.31272754 680.19554069 624.31272754 683.09531116 626.56976891 C686.29782637 629.17953065 688.88433318 632.20707424 691.56406116 635.33930016 C694.50142235 638.74081983 697.59440558 641.75382311 701.09531116 644.56976891 C704.24414135 647.13578219 706.80279997 650.09159612 709.41171741 653.19476891 C711.5676608 655.65338252 713.90807493 657.94503267 716.22031116 660.25726891 C716.55031116 513.73726891 716.88031116 367.21726891 717.22031116 216.25726891 C680.59031116 216.25726891 643.96031116 216.25726891 606.22031116 216.25726891 C594.01761114 212.77078318 586.40461899 210.35094427 578.22031116 201.25726891 C577.37468616 200.32914391 576.52906116 199.40101891 575.65781116 198.44476891 C566.80430764 187.42645888 565.75423714 173.30966135 565.87973499 159.64252281 C565.87929691 158.3627607 565.87885883 157.08299858 565.87840748 155.7644558 C565.87755787 152.30451969 565.89501253 148.84490503 565.91612935 145.38504267 C565.93507187 141.75094643 565.93666027 138.11684025 565.94020557 134.48270226 C565.94947503 127.62302569 565.97401854 120.7634951 566.00425404 113.90388238 C566.03795833 106.08510566 566.05432406 98.26632143 566.06934035 90.44748998 C566.10057362 74.38399795 566.15323313 58.32065214 566.22031116 42.25726891 C511.82873103 42.30130415 457.43715487 42.34891068 403.04559803 42.41625023 C402.24060873 42.4172458 401.43561942 42.41824136 400.6062365 42.4192671 C383.11172541 42.44092554 365.61721522 42.46324823 348.12270585 42.48625519 C339.54342471 42.49753372 330.96414338 42.50866547 322.38486195 42.51972008 C321.53111952 42.52082264 320.67737709 42.52192521 319.79776367 42.52306119 C292.12463098 42.55873085 264.4514995 42.58470753 236.77835208 42.60565859 C208.34102125 42.62723939 179.90371756 42.65859717 151.46641164 42.70226004 C147.45000507 42.7084223 143.43359835 42.71447277 139.41719151 42.72045517 C138.23145974 42.72222649 138.23145974 42.72222649 137.02177379 42.7240336 C124.29619251 42.74275638 111.57062428 42.75117013 98.84503091 42.75573015 C86.05206322 42.76053426 73.25914533 42.77619573 60.46620436 42.80293456 C53.53448364 42.81712195 46.6028378 42.82650925 39.67110157 42.82227707 C33.32602398 42.81887137 26.98112312 42.82920593 20.63608174 42.85050442 C18.33982817 42.8557805 16.04355628 42.85599868 13.74730285 42.85066453 C10.62596639 42.84415194 7.50521335 42.85606015 4.38392544 42.87250805 C3.49250998 42.86623135 2.60109453 42.85995466 1.68266648 42.85348776 C-6.53503687 42.93323985 -13.96375813 44.99948006 -21.21718884 48.88226891 C-23.76819411 50.23352371 -26.03163441 51.34125076 -28.77968884 52.25726891 C-29.10968884 53.24726891 -29.43968884 54.23726891 -29.77968884 55.25726891 C-30.43968884 55.25726891 -31.09968884 55.25726891 -31.77968884 55.25726891 C-31.77968884 55.91726891 -31.77968884 56.57726891 -31.77968884 57.25726891 C-32.43968884 57.25726891 -33.09968884 57.25726891 -33.77968884 57.25726891 C-34.10968884 58.24726891 -34.43968884 59.23726891 -34.77968884 60.25726891 C-35.43968884 60.25726891 -36.09968884 60.25726891 -36.77968884 60.25726891 C-37.02718884 60.91726891 -37.27468884 61.57726891 -37.52968884 62.25726891 C-38.50093786 64.58826657 -39.54012607 66.72142813 -40.71718884 68.94476891 C-45.44054079 78.45930806 -46.21365642 87.13425281 -46.16445446 97.68378258 C-46.16856773 99.11230971 -46.17403305 100.54083348 -46.18073559 101.96935081 C-46.19239202 105.02602697 -46.19496981 108.08252291 -46.19037914 111.13921738 C-46.18352972 115.97694433 -46.1995035 120.81443691 -46.21877575 125.65212059 C-46.25971537 136.78892523 -46.27117284 147.92572248 -46.28230572 159.06258965 C-46.29282519 169.28396815 -46.30963463 179.50523291 -46.3504014 189.72654134 C-46.36871441 194.53167109 -46.37266609 199.33652958 -46.36546612 204.14168584 C-46.36394099 207.13246056 -46.37474784 210.12310022 -46.38884449 213.1138382 C-46.3928359 214.49608792 -46.39174135 215.87836355 -46.38507175 217.26060295 C-46.32778867 230.1236226 -46.32778867 230.1236226 -49.77968884 236.25726891 C-50.43968884 236.25726891 -51.09968884 236.25726891 -51.77968884 236.25726891 C-52.10968884 237.24726891 -52.43968884 238.23726891 -52.77968884 239.25726891 C-53.43968884 239.25726891 -54.09968884 239.25726891 -54.77968884 239.25726891 C-54.77968884 239.91726891 -54.77968884 240.57726891 -54.77968884 241.25726891 C-61.39170698 245.03556499 -67.31645588 245.16887384 -74.77968884 244.25726891 C-80.8010228 242.01312143 -85.09451642 237.78024788 -87.86453724 231.98931217 C-88.91303254 228.85919194 -89.03692673 226.34412853 -89.04711437 223.04457664 C-89.05564434 221.79317894 -89.06417431 220.54178123 -89.07296276 219.25246239 C-89.07226375 217.87296092 -89.0713407 216.49345955 -89.07021618 215.11395836 C-89.07620385 213.65475687 -89.08300995 212.19555855 -89.0905714 210.73636436 C-89.10823085 206.77481743 -89.11292722 202.81335694 -89.11420298 198.85177445 C-89.11562707 196.36927159 -89.11990193 193.8867905 -89.12519741 191.40429306 C-89.14370921 182.72107495 -89.15186804 174.0379182 -89.1502943 165.35468102 C-89.14909796 157.30062214 -89.17009714 149.24683344 -89.20178163 141.19284278 C-89.22809771 134.25237802 -89.23865498 127.31200052 -89.23738348 120.37148637 C-89.23687761 116.23828371 -89.24234834 112.10532031 -89.26373959 107.97216797 C-89.4573922 67.78436812 -89.4573922 67.78436812 -81.15468884 51.44476891 C-80.81550426 50.75375084 -80.47631969 50.06273277 -80.1268568 49.35077477 C-68.59852122 26.78594455 -48.96385704 11.99329331 -25.63515759 3.40570641 C-17.24194046 0.70729654 -8.7663427 -0.03835802 0 0 Z M609.22031116 78.25726891 C609.1971895 90.4960722 609.17939698 102.73487034 609.16849899 114.97369099 C609.16326978 120.65603402 609.15617143 126.33836217 609.14487171 132.02069664 C609.1340442 137.49956026 609.12803462 142.97840953 609.12543392 148.45728302 C609.12357943 150.55256502 609.11995835 152.64784618 609.11458111 154.7431221 C609.10737248 157.66704474 609.10632015 160.59090724 609.10678577 163.51483727 C609.1031905 164.39021141 609.09959522 165.26558556 609.095891 166.16748619 C608.72132487 170.022496 608.72132487 170.022496 610.22031116 173.25726891 C612.74572118 173.35231141 615.24368243 173.38284048 617.76938343 173.3707943 C618.55956867 173.37094032 619.34975391 173.37108635 620.16388416 173.3712368 C622.78818938 173.37053747 625.41242452 173.36274418 628.03671741 173.35492516 C629.85132782 173.35306105 631.66593873 173.35163711 633.48054981 173.35063744 C638.26621346 173.3468117 643.05184696 173.33698094 647.83749866 173.32593346 C652.71705181 173.31572053 657.5966098 173.31114007 662.47617054 173.30609703 C672.05756403 173.29535872 681.63893509 173.27828164 691.22031116 173.25726891 C690.56031116 172.92726891 689.90031116 172.59726891 689.22031116 172.25726891 C689.22031116 171.59726891 689.22031116 170.93726891 689.22031116 170.25726891 C688.56031116 170.25726891 687.90031116 170.25726891 687.22031116 170.25726891 C687.22031116 169.26726891 687.22031116 168.27726891 687.22031116 167.25726891 C685.61392548 165.53242672 683.93481675 163.87468232 682.22031116 162.25726891 C680.4582215 160.37266708 678.70817354 158.47673466 676.97031116 156.56976891 C676.09890491 155.61715172 675.22749866 154.66453453 674.32968616 153.68305016 C672.22031116 151.25726891 672.22031116 151.25726891 671.22031116 149.25726891 C670.56031116 149.25726891 669.90031116 149.25726891 669.22031116 149.25726891 C668.86452991 148.44515953 668.86452991 148.44515953 668.50156116 147.61664391 C666.8768336 144.62476753 664.87012347 142.14567492 662.72031116 139.50726891 C661.92624866 138.52242516 661.13218616 137.53758141 660.31406116 136.52289391 C659.62312366 135.77523766 658.93218616 135.02758141 658.22031116 134.25726891 C657.56031116 134.25726891 656.90031116 134.25726891 656.22031116 134.25726891 C655.99988148 133.72746422 655.77945179 133.19765953 655.55234241 132.65180016 C653.74217857 129.39775195 651.35066614 126.73052863 648.90781116 123.94476891 C648.38525745 123.34172935 647.86270374 122.7386898 647.32431507 122.11737633 C645.62715506 120.16033397 643.92417537 118.20847589 642.22031116 116.25726891 C640.42201711 114.19358892 638.6246574 112.1291116 636.82895374 110.06317711 C635.69148285 108.7552698 634.55206019 107.44905684 633.41049671 106.14472008 C632.89140736 105.5489315 632.372318 104.95314293 631.83749866 104.33930016 C631.15083118 103.55389854 631.15083118 103.55389854 630.45029163 102.75263023 C629.22031116 101.25726891 629.22031116 101.25726891 627.22031116 98.25726891 C626.56031116 98.25726891 625.90031116 98.25726891 625.22031116 98.25726891 C624.98312366 97.71586266 624.74593616 97.17445641 624.50156116 96.61664391 C622.8768336 93.62476753 620.87012347 91.14567492 618.72031116 88.50726891 C617.92624866 87.52242516 617.13218616 86.53758141 616.31406116 85.52289391 C615.62312366 84.77523766 614.93218616 84.02758141 614.22031116 83.25726891 C613.56031116 83.25726891 612.90031116 83.25726891 612.22031116 83.25726891 C611.56031116 81.60726891 610.90031116 79.95726891 610.22031116 78.25726891 C609.89031116 78.25726891 609.56031116 78.25726891 609.22031116 78.25726891 Z M306.22031116 176.25726891 C305.40771839 176.38617516 304.59512562 176.51508141 303.75790882 176.64789391 C273.54330637 181.52832324 244.99711958 192.81567055 219.22031116 209.25726891 C217.67730335 210.22599937 217.67730335 210.22599937 216.10312366 211.21430016 C209.97050162 214.96672702 209.97050162 214.96672702 204.22031116 219.25726891 C204.22031116 219.91726891 204.22031116 220.57726891 204.22031116 221.25726891 C203.49843616 221.50476891 202.77656116 221.75226891 202.03281116 222.00726891 C198.94424535 223.37996482 196.71019699 224.98080187 194.22031116 227.25726891 C194.22031116 227.91726891 194.22031116 228.57726891 194.22031116 229.25726891 C193.45718616 229.52539391 192.69406116 229.79351891 191.90781116 230.06976891 C189.33042499 231.20861396 187.95076252 232.07143561 186.22031116 234.25726891 C186.22031116 234.91726891 186.22031116 235.57726891 186.22031116 236.25726891 C184.73531116 236.75226891 184.73531116 236.75226891 183.22031116 237.25726891 C183.22031116 237.91726891 183.22031116 238.57726891 183.22031116 239.25726891 C182.56031116 239.25726891 181.90031116 239.25726891 181.22031116 239.25726891 C181.22031116 239.91726891 181.22031116 240.57726891 181.22031116 241.25726891 C179.73531116 241.75226891 179.73531116 241.75226891 178.22031116 242.25726891 C178.22031116 242.91726891 178.22031116 243.57726891 178.22031116 244.25726891 C177.56031116 244.25726891 176.90031116 244.25726891 176.22031116 244.25726891 C174.5536445 245.59060224 174.5536445 245.59060224 173.22031116 247.25726891 C173.22031116 247.91726891 173.22031116 248.57726891 173.22031116 249.25726891 C172.56031116 249.25726891 171.90031116 249.25726891 171.22031116 249.25726891 C169.75761014 250.80305497 169.75761014 250.80305497 168.28671741 252.83539391 C167.43690296 253.95881187 167.43690296 253.95881187 166.56992054 255.10492516 C165.98017445 255.89769859 165.39042835 256.69047203 164.78281116 257.50726891 C164.19693226 258.28457359 163.61105335 259.06187828 163.00742054 259.86273766 C161.4057247 261.98984791 159.81196826 264.12264281 158.22031116 266.25726891 C157.38294422 267.31252769 157.38294422 267.31252769 156.52866077 268.38910484 C155.02909479 270.1501778 155.02909479 270.1501778 155.22031116 272.25726891 C154.56031116 272.25726891 153.90031116 272.25726891 153.22031116 272.25726891 C152.64538929 273.27562828 152.07046741 274.29398766 151.47812366 275.34320641 C149.77906515 278.3191693 147.99685648 281.23211396 146.17709827 284.13617516 C131.86466992 307.23761673 122.55881994 332.6733575 117.22031116 359.25726891 C117.05660023 360.01958824 116.89288929 360.78190758 116.72421741 361.5673275 C111.15375526 388.2514525 112.24694646 418.79968086 118.22031116 445.25726891 C118.41818226 446.15800133 118.61605335 447.05873375 118.81992054 447.98676109 C124.56272033 473.68067924 133.96191677 497.22611252 148.14804554 519.41400719 C149.22031116 521.25726891 149.22031116 521.25726891 150.22031116 524.25726891 C150.88031116 524.25726891 151.54031116 524.25726891 152.22031116 524.25726891 C152.50906116 525.04101891 152.79781116 525.82476891 153.09531116 526.63226891 C154.0694337 529.35398523 154.0694337 529.35398523 156.22031116 531.25726891 C157.30452597 529.71622203 158.38763638 528.17439812 159.47031116 526.63226891 C160.07359241 525.77375328 160.67687366 524.91523766 161.29843616 524.03070641 C162.60211964 522.14937456 163.88012743 520.25003917 165.13437366 518.33539391 C167.80815202 514.38981835 170.73124777 510.6745532 173.68515491 506.93695641 C175.85607174 504.1560841 177.81111235 501.50317628 179.22031116 498.25726891 C179.88031116 498.25726891 180.54031116 498.25726891 181.22031116 498.25726891 C182.72081053 496.77365196 182.72081053 496.77365196 184.28281116 494.81976891 C194.21998273 483.18200922 205.66269727 473.79992647 218.29452991 465.25336266 C220.51007447 463.74182291 222.65110902 462.19318197 224.78281116 460.56976891 C229.55418386 457.14834556 234.95617174 454.8124467 240.22031116 452.25726891 C241.63032992 451.55125667 243.03912811 450.84280294 244.44687366 450.13226891 C245.16560658 449.76980064 245.88433949 449.40733238 246.62485218 449.03388023 C248.04244077 448.31843022 249.45960934 447.60214723 250.87631702 446.88495445 C253.6336971 445.49995189 256.28839752 444.23457345 259.22031116 443.25726891 C258.18355396 440.61825056 257.27116753 439.297954 255.03281116 437.50726891 C236.52829159 422.70365324 222.48551387 394.41742764 219.22031116 371.25726891 C219.10945179 370.49156578 218.99859241 369.72586266 218.88437366 368.93695641 C217.16925007 354.14980977 217.62022207 338.89413409 220.22031116 324.25726891 C220.3530846 323.45676109 220.48585804 322.65625328 220.62265491 321.83148766 C223.27541308 308.01188082 229.50962257 294.5106329 237.46640491 282.94476891 C239.40248705 280.51298541 239.40248705 280.51298541 239.22031116 278.25726891 C239.88031116 278.25726891 240.54031116 278.25726891 241.22031116 278.25726891 C242.53168915 276.77208237 242.53168915 276.77208237 243.84531116 274.81976891 C250.88268889 265.21720793 258.63450177 258.21254722 268.22031116 251.25726891 C268.78459827 250.83824303 269.34888538 250.41921715 269.9302721 249.98749352 C282.6862182 240.63444025 296.98337208 235.92661546 312.22031116 232.25726891 C312.99544056 232.06149254 313.77056995 231.86571617 314.56918812 231.66400719 C321.9029873 229.97847384 329.15618978 229.87229335 336.65781116 229.88226891 C337.64684437 229.88258614 337.64684437 229.88258614 338.65585804 229.88290977 C357.93727892 229.94444747 375.12869437 234.27384964 392.54843616 242.55805016 C394.22579962 243.38588207 394.22579962 243.38588207 396.22031116 243.25726891 C396.22031116 243.91726891 396.22031116 244.57726891 396.22031116 245.25726891 C397.37531116 245.79351891 398.53031116 246.32976891 399.72031116 246.88226891 C403.71696658 248.85926215 407.0899127 251.29575301 410.55624866 254.08539391 C412.1536318 255.44919511 412.1536318 255.44919511 414.22031116 255.25726891 C414.55031116 256.24726891 414.88031116 257.23726891 415.22031116 258.25726891 C416.81363246 259.83390387 416.81363246 259.83390387 418.78281116 261.38226891 C423.70605609 265.55014232 429.29985499 270.41635656 432.22031116 276.25726891 C432.88031116 276.25726891 433.54031116 276.25726891 434.22031116 276.25726891 C434.68437366 277.43289391 434.68437366 277.43289391 435.15781116 278.63226891 C436.14906155 281.18057019 436.14906155 281.18057019 437.22031116 283.25726891 C437.88031116 283.25726891 438.54031116 283.25726891 439.22031116 283.25726891 C439.47167835 283.93144859 439.72304554 284.60562828 439.98202991 285.30023766 C441.17385966 288.14634212 442.54700611 290.84453392 443.98715687 293.57147789 C448.50616689 302.20750334 451.85314998 310.8046805 454.22031116 320.25726891 C454.3840221 320.90711754 454.54773304 321.55696617 454.71640491 322.22650719 C459.49689068 342.17318281 458.04016719 362.49236023 453.22031116 382.25726891 C452.95476429 383.42129234 452.68921741 384.58531578 452.41562366 385.78461266 C449.3994671 397.17419436 443.37155739 408.70458384 436.40390491 418.20258141 C434.02646671 420.90262812 434.02646671 420.90262812 434.22031116 423.25726891 C433.56031116 423.25726891 432.90031116 423.25726891 432.22031116 423.25726891 C431.95218616 424.06164391 431.68406116 424.86601891 431.40781116 425.69476891 C431.01593616 426.54039391 430.62406116 427.38601891 430.22031116 428.25726891 C429.23031116 428.58726891 428.24031116 428.91726891 427.22031116 429.25726891 C425.43933353 431.0521322 425.43933353 431.0521322 423.72031116 433.19476891 C421.59155095 435.76702083 420.03639972 437.37987654 417.22031116 439.25726891 C417.22031116 439.91726891 417.22031116 440.57726891 417.22031116 441.25726891 C416.56031116 441.58726891 415.90031116 441.91726891 415.22031116 442.25726891 C417.38541127 443.42692069 419.55201957 444.593554 421.72031116 445.75726891 C422.39086536 446.11748131 423.06141956 446.47769371 423.75229359 446.84882164 C427.95936832 449.09412391 432.20055795 451.24269647 436.4903307 453.32514 C443.55554789 456.7656964 449.91927025 460.52910508 456.22031116 465.25726891 C458.05824791 466.59848001 459.90186437 467.93136276 461.74911976 469.25971031 C462.99886937 470.15841744 464.24542986 471.06158008 465.48837757 471.96967125 C468.0576517 473.82602444 470.19279072 475.24809543 473.22031116 476.25726891 C473.22031116 476.91726891 473.22031116 477.57726891 473.22031116 478.25726891 C476.70029624 481.8936043 476.70029624 481.8936043 481.22031116 483.25726891 C481.48843616 483.89664391 481.75656116 484.53601891 482.03281116 485.19476891 C483.10698869 487.58858577 483.10698869 487.58858577 486.22031116 488.25726891 C486.88697783 489.59060224 487.5536445 490.92393557 488.22031116 492.25726891 C489.21031116 492.58726891 490.20031116 492.91726891 491.22031116 493.25726891 C492.22031116 495.06976891 492.22031116 495.06976891 493.22031116 497.25726891 C494.64009025 499.48470677 494.64009025 499.48470677 496.22031116 501.25726891 C496.88031116 501.25726891 497.54031116 501.25726891 498.22031116 501.25726891 C498.46781116 501.79351891 498.71531116 502.32976891 498.97031116 502.88226891 C500.52683653 505.8396671 502.2546679 508.55450941 504.22031116 511.25726891 C504.88031116 511.25726891 505.54031116 511.25726891 506.22031116 511.25726891 C506.48327991 511.81156578 506.74624866 512.36586266 507.01718616 512.93695641 C508.36054876 515.52772713 509.88460458 517.9322808 511.47031116 520.38226891 C514.82791312 525.61224427 518.05366735 530.90993265 521.22031116 536.25726891 C521.88031116 534.93726891 522.54031116 533.61726891 523.22031116 532.25726891 C523.88031116 532.25726891 524.54031116 532.25726891 525.22031116 532.25726891 C526.77304664 530.22272036 526.77304664 530.22272036 528.34531116 527.56976891 C528.96792835 526.55785484 529.59054554 525.54594078 530.23202991 524.50336266 C530.88816273 523.43215172 531.54429554 522.36094078 532.22031116 521.25726891 C533.18904163 519.75873375 533.18904163 519.75873375 534.17734241 518.22992516 C541.9958135 506.00103448 547.93867177 492.75879759 553.22031116 479.25726891 C553.62894398 478.21957359 554.03757679 477.18187828 554.45859241 476.11273766 C564.64204468 449.03042961 567.78630887 421.00329342 567.22031116 392.25726891 C567.2094347 391.24672447 567.2094347 391.24672447 567.19833851 390.215765 C566.90662053 369.55323201 562.85907175 348.70299919 555.9302721 329.26361656 C555.26002155 327.36949035 554.63326065 325.46013686 554.00937366 323.55023766 C550.92367448 314.32420418 546.78370172 305.82090819 542.22031116 297.25726891 C541.81586781 296.49768883 541.41142445 295.73810875 540.99472523 294.95551109 C536.214133 286.03935643 531.36272982 277.32241945 525.22031116 269.25726891 C524.81747913 268.72730309 524.4146471 268.19733727 523.99960804 267.65131187 C521.8313815 264.80371832 519.65092509 261.96612414 517.45468616 259.14008141 C516.11587032 257.4127281 514.80367512 255.6634652 513.54843616 253.87445641 C512.89101429 253.07394859 512.89101429 253.07394859 512.22031116 252.25726891 C511.56031116 252.25726891 510.90031116 252.25726891 510.22031116 252.25726891 C509.87999866 251.42195641 509.87999866 251.42195641 509.53281116 250.56976891 C507.85003025 247.60486919 505.65922605 245.64075391 503.22031116 243.25726891 C502.27413897 242.13955274 501.33706742 241.01408783 500.40781116 239.88226891 C497.07294376 235.94106197 493.37383653 232.33499378 489.22031116 229.25726891 C488.56031116 229.25726891 487.90031116 229.25726891 487.22031116 229.25726891 C487.22031116 228.59726891 487.22031116 227.93726891 487.22031116 227.25726891 C485.33467472 225.69479971 483.45390218 224.24749314 481.47031116 222.81976891 C480.93148304 222.42467125 480.39265491 222.02957359 479.83749866 221.62250328 C478.30142285 220.4966721 476.76096014 219.37683377 475.22031116 218.25726891 C474.47265491 217.66816734 473.72499866 217.07906578 472.95468616 216.47211266 C471.30021208 215.06603226 471.30021208 215.06603226 469.22031116 215.25726891 C469.22031116 214.59726891 469.22031116 213.93726891 469.22031116 213.25726891 C467.76624866 212.45289391 467.76624866 212.45289391 466.28281116 211.63226891 C463.54967395 210.08510839 461.01797799 208.40265947 458.47031116 206.56976891 C451.62885829 201.94241636 443.97560108 198.73856213 436.48984241 195.30609703 C434.52597142 194.39852498 432.57496571 193.46321088 430.62656116 192.52289391 C402.66339666 179.09503768 371.80918404 174.02220654 341.03281116 174.06976891 C339.94256641 174.07067528 339.94256641 174.07067528 338.83029652 174.07159996 C327.8424954 174.0963459 317.07301766 174.43984183 306.22031116 176.25726891 Z M278.22031116 298.25726891 C278.22031116 298.91726891 278.22031116 299.57726891 278.22031116 300.25726891 C277.56031116 300.25726891 276.90031116 300.25726891 276.22031116 300.25726891 C263.30989321 317.16059963 258.06194619 336.17916334 259.22031116 357.25726891 C261.31634642 371.85245558 266.72123865 383.78915077 274.22031116 396.25726891 C274.88031116 396.25726891 275.54031116 396.25726891 276.22031116 396.25726891 C276.44718616 396.97914391 276.67406116 397.70101891 276.90781116 398.44476891 C278.48950834 401.83412 280.42145618 403.7997377 283.22031116 406.25726891 C284.21031116 406.58726891 285.20031116 406.91726891 286.22031116 407.25726891 C286.22031116 407.91726891 286.22031116 408.57726891 286.22031116 409.25726891 C287.87031116 409.91726891 289.52031116 410.57726891 291.22031116 411.25726891 C291.22031116 411.91726891 291.22031116 412.57726891 291.22031116 413.25726891 C293.40508647 414.53298375 295.59292735 415.80287564 297.78281116 417.06976891 C298.3918932 417.42619469 299.00097523 417.78262047 299.62851429 418.14984703 C316.31753268 427.77473065 337.04775424 431.30220111 355.86874866 426.28461266 C367.50051417 422.74451011 377.84823206 417.88287287 387.16171741 409.99164391 C389.22031116 408.25726891 389.22031116 408.25726891 392.22031116 406.25726891 C392.22031116 405.59726891 392.22031116 404.93726891 392.22031116 404.25726891 C392.88031116 404.25726891 393.54031116 404.25726891 394.22031116 404.25726891 C411.27553297 384.96278237 416.97340442 364.87315234 415.50253773 339.37689781 C414.0948175 323.81647472 406.00051245 305.73886533 394.22031116 295.25726891 C393.56031116 295.25726891 392.90031116 295.25726891 392.22031116 295.25726891 C392.22031116 294.59726891 392.22031116 293.93726891 392.22031116 293.25726891 C379.63079096 280.89981359 360.97733373 271.66547632 343.22031116 271.25726891 C341.93447132 271.19926109 341.93447132 271.19926109 340.62265491 271.14008141 C316.3942284 270.51258259 294.51788088 280.66022519 278.22031116 298.25726891 Z M304.22031116 473.25726891 C303.42834339 473.43419273 302.63637562 473.61111656 301.82040882 473.79340172 C276.41004513 479.64450555 253.58044938 491.01301902 232.84531116 506.69476891 C232.27917103 507.1199984 231.71303089 507.54522789 231.12973499 507.98334312 C229.7863052 509.02465385 228.4971315 510.13527895 227.22031116 511.25726891 C227.22031116 511.91726891 227.22031116 512.57726891 227.22031116 513.25726891 C226.66343616 513.48414391 226.10656116 513.71101891 225.53281116 513.94476891 C222.56175932 515.63104158 220.57508991 517.7876229 218.22031116 520.25726891 C217.31281116 521.12351891 216.40531116 521.98976891 215.47031116 522.88226891 C213.03026442 525.12260002 213.03026442 525.12260002 212.22031116 528.25726891 C210.73531116 528.75226891 210.73531116 528.75226891 209.22031116 529.25726891 C207.80595865 530.72833158 207.80595865 530.72833158 206.52109241 532.56586266 C206.03447132 533.23037437 205.54785023 533.89488609 205.04648304 534.57953453 C204.29721546 535.62657555 204.29721546 535.62657555 203.53281116 536.69476891 C203.02169788 537.38892906 202.5105846 538.08308922 201.98398304 538.79828453 C199.20181947 542.20005973 199.20181947 542.20005973 198.22031116 546.25726891 C197.56031116 546.25726891 196.90031116 546.25726891 196.22031116 546.25726891 C195.83359241 546.97012047 195.44687366 547.68297203 195.04843616 548.41742516 C194.52765491 549.37519859 194.00687366 550.33297203 193.47031116 551.31976891 C192.92890491 552.32265953 192.38749866 553.32555016 191.82968616 554.35883141 C190.53000228 556.69952423 189.15812446 558.9395686 187.72031116 561.19476891 C185.96334621 564.02054264 185.96334621 564.02054264 186.59531116 566.38226891 C188.92255859 569.06755439 191.36991459 571.11947148 194.22031116 573.25726891 C194.88031116 573.25726891 195.54031116 573.25726891 196.22031116 573.25726891 C196.22031116 573.91726891 196.22031116 574.57726891 196.22031116 575.25726891 C198.47091425 577.16752194 200.72523132 578.94233622 203.09531116 580.69476891 C204.16930164 581.49285973 204.16930164 581.49285973 205.2649889 582.30707359 C220.54864099 593.48079435 237.43476542 603.65551549 255.22031116 610.25726891 C256.78362061 610.90114042 258.34609561 611.54704098 259.90781116 612.19476891 C269.97764113 616.18528976 280.1430594 619.37389914 290.65781116 621.94476891 C291.46645618 622.14707115 292.2751012 622.3493734 293.10825062 622.55780602 C307.83116522 626.03334608 322.40537877 626.6053997 337.46420765 626.57294273 C340.51803868 626.56978418 343.57089589 626.59333136 346.62460804 626.61859703 C359.1068967 626.65904866 370.97789224 625.69513222 383.22031116 623.25726891 C384.24519642 623.05851158 385.27008167 622.85975426 386.32602406 622.65497398 C388.76308408 622.15139256 391.17836139 621.5992743 393.59531116 621.00726891 C394.87377918 620.69801476 394.87377918 620.69801476 396.17807484 620.38251305 C402.7153533 618.7471478 409.13398762 616.80466964 415.53281116 614.69476891 C416.81260853 614.27372887 416.81260853 614.27372887 418.11826038 613.84418297 C423.39992043 612.04283248 428.28194182 609.84212314 433.22031116 607.25726891 C434.50493286 606.62203071 435.7913982 605.99050717 437.07968616 605.36273766 C456.32500559 595.90131063 474.12857645 584.5203974 490.22031116 570.25726891 C488.26904488 563.17109136 485.17241256 557.42033611 481.22031116 551.25726891 C480.63636585 550.32269859 480.05242054 549.38812828 479.45077991 548.42523766 C474.58745806 540.66680587 474.58745806 540.66680587 469.22031116 533.25726891 C468.56031116 533.25726891 467.90031116 533.25726891 467.22031116 533.25726891 C466.93156116 532.65914391 466.64281116 532.06101891 466.34531116 531.44476891 C465.17289091 529.06399099 465.17289091 529.06399099 463.22031116 526.25726891 C462.56031116 526.25726891 461.90031116 526.25726891 461.22031116 526.25726891 C460.97538929 525.68750328 460.73046741 525.11773766 460.47812366 524.53070641 C456.78903546 517.86285132 449.91770698 512.74295528 443.75156116 508.44867516 C442.22031116 507.25726891 442.22031116 507.25726891 441.22031116 505.25726891 C440.23031116 505.25726891 439.24031116 505.25726891 438.22031116 505.25726891 C438.22031116 504.59726891 438.22031116 503.93726891 438.22031116 503.25726891 C436.08402576 501.63698343 436.08402576 501.63698343 433.34531116 500.00726891 C431.82357288 499.06947594 431.82357288 499.06947594 430.27109241 498.11273766 C429.2643346 497.50043297 428.25757679 496.88812828 427.22031116 496.25726891 C426.43011585 495.75840172 425.63992054 495.25953453 424.82577991 494.74555016 C407.18060629 483.77367899 387.72458152 475.91506588 367.22031116 472.25726891 C366.11171741 472.05359703 365.00312366 471.84992516 363.86093616 471.64008141 C344.28025545 468.62449134 323.56173771 468.91248615 304.22031116 473.25726891 Z M555.22031116 561.25726891 C554.4062682 562.39615562 554.4062682 562.39615562 553.57577991 563.55805016 C552.86035023 564.55191734 552.14492054 565.54578453 551.40781116 566.56976891 C550.70011585 567.55590172 549.99242054 568.54203453 549.26327991 569.55805016 C547.22031116 572.25726891 547.22031116 572.25726891 545.45859241 573.98773766 C543.98756407 575.20031826 543.98756407 575.20031826 544.22031116 577.25726891 C543.56031116 577.25726891 542.90031116 577.25726891 542.22031116 577.25726891 C540.40963743 578.9705888 540.40963743 578.9705888 538.59531116 581.13226891 C537.96367054 581.85156578 537.33202991 582.57086266 536.68124866 583.31195641 C535.02013994 585.11833823 535.02013994 585.11833823 535.22031116 587.25726891 C534.23031116 587.58726891 533.24031116 587.91726891 532.22031116 588.25726891 C532.22031116 588.91726891 532.22031116 589.57726891 532.22031116 590.25726891 C531.56031116 590.25726891 530.90031116 590.25726891 530.22031116 590.25726891 C530.22031116 590.91726891 530.22031116 591.57726891 530.22031116 592.25726891 C529.23031116 592.58726891 528.24031116 592.91726891 527.22031116 593.25726891 C527.22031116 593.91726891 527.22031116 594.57726891 527.22031116 595.25726891 C526.66343616 595.48414391 526.10656116 595.71101891 525.53281116 595.94476891 C523.06572824 597.20527294 523.06572824 597.20527294 520.97031116 599.54633141 C517.19808243 603.26497735 512.96465454 606.18623838 508.66952991 609.26898766 C507.86128773 609.92512047 507.05304554 610.58125328 506.22031116 611.25726891 C506.22031116 611.91726891 506.22031116 612.57726891 506.22031116 613.25726891 C504.57031116 613.91726891 502.92031116 614.57726891 501.22031116 615.25726891 C505.25916086 620.10256566 509.4874161 624.66489889 513.96005726 629.11054039 C514.60466908 629.75529823 515.24928089 630.40005608 515.9134264 631.06435204 C518.02116935 633.17140449 520.13242009 635.27490364 522.24374866 637.37836266 C523.71512844 638.84787518 525.18628596 640.31761025 526.65723133 641.7875576 C530.51173891 645.63826418 534.36924115 649.48595697 538.22739124 653.33301353 C542.17086739 657.26622339 546.1114812 661.20229871 550.05234241 665.13812828 C557.77221215 672.84730336 565.49525106 680.55329514 573.22031116 688.25726891 C577.44611295 684.70450564 581.51955403 681.08190073 585.4212389 677.16986656 C585.89043247 676.70081902 586.35962605 676.23177147 586.84303761 675.74851036 C588.36571448 674.22514678 589.88483611 672.69829213 591.40390491 671.17133141 C592.46985226 670.10351546 593.53602321 669.03592269 594.6024065 667.9685421 C597.38781255 665.17934573 600.17020046 662.3871579 602.95193958 659.59430504 C605.79932181 656.73663316 608.64959102 653.88184388 611.49960804 651.02680016 C617.07598198 645.43975048 622.64916611 639.84953257 628.22031116 634.25726891 C627.89031116 633.26726891 627.56031116 632.27726891 627.22031116 631.25726891 C626.56031116 631.25726891 625.90031116 631.25726891 625.22031116 631.25726891 C624.81812366 630.29820641 624.81812366 630.29820641 624.40781116 629.31976891 C623.33363364 626.92595204 623.33363364 626.92595204 620.22031116 626.25726891 C619.89031116 625.26726891 619.56031116 624.27726891 619.22031116 623.25726891 C618.56031116 623.25726891 617.90031116 623.25726891 617.22031116 623.25726891 C616.81812366 622.29820641 616.81812366 622.29820641 616.40781116 621.31976891 C615.33363364 618.92595204 615.33363364 618.92595204 612.22031116 618.25726891 C611.5536445 616.92393557 610.88697783 615.59060224 610.22031116 614.25726891 C608.73531116 613.76226891 608.73531116 613.76226891 607.22031116 613.25726891 C606.5536445 611.92393557 605.88697783 610.59060224 605.22031116 609.25726891 C603.73531116 608.76226891 603.73531116 608.76226891 602.22031116 608.25726891 C601.89031116 607.26726891 601.56031116 606.27726891 601.22031116 605.25726891 C600.56031116 605.25726891 599.90031116 605.25726891 599.22031116 605.25726891 C598.81812366 604.29820641 598.81812366 604.29820641 598.40781116 603.31976891 C597.33363364 600.92595204 597.33363364 600.92595204 594.22031116 600.25726891 C593.5536445 598.92393557 592.88697783 597.59060224 592.22031116 596.25726891 C590.73531116 595.76226891 590.73531116 595.76226891 589.22031116 595.25726891 C588.5536445 593.92393557 587.88697783 592.59060224 587.22031116 591.25726891 C585.73531116 590.76226891 585.73531116 590.76226891 584.22031116 590.25726891 C583.5536445 588.92393557 582.88697783 587.59060224 582.22031116 586.25726891 C580.73531116 585.76226891 580.73531116 585.76226891 579.22031116 585.25726891 C578.72531116 583.77226891 578.72531116 583.77226891 578.22031116 582.25726891 C577.56031116 582.25726891 576.90031116 582.25726891 576.22031116 582.25726891 C575.95218616 581.61789391 575.68406116 580.97851891 575.40781116 580.31976891 C574.33363364 577.92595204 574.33363364 577.92595204 571.22031116 577.25726891 C570.5536445 575.92393557 569.88697783 574.59060224 569.22031116 573.25726891 C568.23031116 572.92726891 567.24031116 572.59726891 566.22031116 572.25726891 C565.5536445 570.92393557 564.88697783 569.59060224 564.22031116 568.25726891 C563.23031116 567.92726891 562.24031116 567.59726891 561.22031116 567.25726891 C560.72531116 565.77226891 560.72531116 565.77226891 560.22031116 564.25726891 C559.56031116 564.25726891 558.90031116 564.25726891 558.22031116 564.25726891 C558.22031116 563.59726891 558.22031116 562.93726891 558.22031116 562.25726891 C557.23031116 561.92726891 556.24031116 561.59726891 555.22031116 561.25726891 Z M656.30234241 666.01508141 C655.5533971 666.79625328 654.80445179 667.57742516 654.03281116 668.38226891 C651.31184129 671.17289561 648.61122588 673.8509589 645.59531116 676.31976891 C642.40725902 678.98135373 639.79349874 681.95788079 637.10312366 685.11273766 C632.63276264 690.20449741 627.81660596 694.99990841 622.59531116 699.31976891 C619.32230964 702.0409711 616.66688919 705.12660232 613.92343616 708.37055016 C612.34567223 710.11839415 610.75254461 711.55207868 608.90781116 713.00726891 C606.35650379 715.14324717 605.53094967 716.32833027 604.22031116 719.25726891 C625.07312518 740.15566674 645.93102345 761.04897913 666.79607283 781.93516123 C669.25702233 784.39861227 671.71792825 786.86210683 674.17880726 789.32562828 C674.91371156 790.06131951 674.91371156 790.06131951 675.66346242 790.8118732 C683.60579538 798.76291878 691.54459012 806.71748819 699.48209248 814.67335582 C707.62127904 822.83121764 715.76430764 830.98522727 723.91072953 839.13586426 C728.48863997 843.71638936 733.06475413 848.29867804 737.6367197 852.88513756 C741.93494001 857.19687417 746.23776611 861.50395862 750.54425907 865.80743217 C752.12870772 867.39243367 753.71142718 868.9791658 755.29233265 870.56770134 C757.44157574 872.72681255 759.59680408 874.87976058 761.75372791 877.03119469 C762.38601775 877.66931021 763.01830759 878.30742573 763.66975772 878.96487808 C766.42935667 882.16310247 766.42935667 882.16310247 770.22031116 883.25726891 C770.22031116 883.91726891 770.22031116 884.57726891 770.22031116 885.25726891 C780.08529162 890.55363136 788.79613382 894.07912226 800.09531116 891.13226891 C808.19525008 888.51025221 814.61778435 883.57806838 820.22031116 877.25726891 C820.22031116 876.59726891 820.22031116 875.93726891 820.22031116 875.25726891 C820.88031116 875.25726891 821.54031116 875.25726891 822.22031116 875.25726891 C823.1837656 873.38489519 824.14084219 871.509239 825.09531116 869.63226891 C825.62898304 868.58812828 826.16265491 867.54398766 826.71249866 866.46820641 C830.94034671 857.4648616 832.17565198 847.34130844 829.09921741 837.76898766 C827.91404977 835.18042036 826.6722431 832.70481132 825.22031116 830.25726891 C824.56031116 830.25726891 823.90031116 830.25726891 823.22031116 830.25726891 C822.93156116 829.65914391 822.64281116 829.06101891 822.34531116 828.44476891 C821.17289091 826.06399099 821.17289091 826.06399099 819.22031116 823.25726891 C818.56031116 823.25726891 817.90031116 823.25726891 817.22031116 823.25726891 C816.95605335 822.66848961 816.69179554 822.07971031 816.41952991 821.47308922 C815.17662173 819.17654306 813.87024635 817.64893724 812.03281116 815.80414391 C811.41663929 815.18539391 810.80046741 814.56664391 810.16562366 813.92914391 C809.52367054 813.29492516 808.88171741 812.66070641 808.22031116 812.00726891 C807.57835804 811.35758141 806.93640491 810.70789391 806.27499866 810.03851891 C805.65882679 809.42492516 805.04265491 808.81133141 804.40781116 808.17914391 C803.5628307 807.33754723 803.5628307 807.33754723 802.70077991 806.47894859 C801.28312008 805.04511098 801.28312008 805.04511098 799.22031116 805.25726891 C798.81812366 804.29820641 798.81812366 804.29820641 798.40781116 803.31976891 C797.33363364 800.92595204 797.33363364 800.92595204 794.22031116 800.25726891 C793.53959797 798.93105182 792.87571861 797.59617268 792.22031116 796.25726891 C790.7726473 794.6259462 789.26755613 793.04446683 787.72031116 791.50726891 C786.92624866 790.70805016 786.13218616 789.90883141 785.31406116 789.08539391 C783.43247654 787.03803281 783.43247654 787.03803281 781.22031116 787.25726891 C780.81812366 786.29820641 780.81812366 786.29820641 780.40781116 785.31976891 C779.33363364 782.92595204 779.33363364 782.92595204 776.22031116 782.25726891 C775.5536445 780.92393557 774.88697783 779.59060224 774.22031116 778.25726891 C773.23031116 777.92726891 772.24031116 777.59726891 771.22031116 777.25726891 C770.53959797 775.93105182 769.87571861 774.59617268 769.22031116 773.25726891 C767.7726473 771.6259462 766.26755613 770.04446683 764.72031116 768.50726891 C763.92624866 767.70805016 763.13218616 766.90883141 762.31406116 766.08539391 C760.43247654 764.03803281 760.43247654 764.03803281 758.22031116 764.25726891 C757.81812366 763.29820641 757.81812366 763.29820641 757.40781116 762.31976891 C756.33363364 759.92595204 756.33363364 759.92595204 753.22031116 759.25726891 C752.53959797 757.93105182 751.87571861 756.59617268 751.22031116 755.25726891 C749.7726473 753.6259462 748.26755613 752.04446683 746.72031116 750.50726891 C745.92624866 749.70805016 745.13218616 748.90883141 744.31406116 748.08539391 C742.43247654 746.03803281 742.43247654 746.03803281 740.22031116 746.25726891 C739.81812366 745.29820641 739.81812366 745.29820641 739.40781116 744.31976891 C738.33363364 741.92595204 738.33363364 741.92595204 735.22031116 741.25726891 C734.5536445 739.92393557 733.88697783 738.59060224 733.22031116 737.25726891 C732.23031116 736.92726891 731.24031116 736.59726891 730.22031116 736.25726891 C729.53959797 734.93105182 728.87571861 733.59617268 728.22031116 732.25726891 C726.7726473 730.6259462 725.26755613 729.04446683 723.72031116 727.50726891 C722.92624866 726.70805016 722.13218616 725.90883141 721.31406116 725.08539391 C719.43247654 723.03803281 719.43247654 723.03803281 717.22031116 723.25726891 C716.81812366 722.29820641 716.81812366 722.29820641 716.40781116 721.31976891 C715.33363364 718.92595204 715.33363364 718.92595204 712.22031116 718.25726891 C711.5536445 716.92393557 710.88697783 715.59060224 710.22031116 714.25726891 C708.73531116 713.76226891 708.73531116 713.76226891 707.22031116 713.25726891 C706.53544391 711.93319222 705.87160914 710.5981765 705.22031116 709.25726891 C703.30364196 707.00661788 703.30364196 707.00661788 701.22031116 705.25726891 C700.56031116 705.25726891 699.90031116 705.25726891 699.22031116 705.25726891 C698.81812366 704.29820641 698.81812366 704.29820641 698.40781116 703.31976891 C697.33363364 700.92595204 697.33363364 700.92595204 694.22031116 700.25726891 C693.5536445 698.92393557 692.88697783 697.59060224 692.22031116 696.25726891 C690.73531116 695.76226891 690.73531116 695.76226891 689.22031116 695.25726891 C688.5536445 693.92393557 687.88697783 692.59060224 687.22031116 691.25726891 C685.73531116 690.76226891 685.73531116 690.76226891 684.22031116 690.25726891 C683.72531116 688.77226891 683.72531116 688.77226891 683.22031116 687.25726891 C682.56031116 687.25726891 681.90031116 687.25726891 681.22031116 687.25726891 C680.95218616 686.61789391 680.68406116 685.97851891 680.40781116 685.31976891 C679.33363364 682.92595204 679.33363364 682.92595204 676.22031116 682.25726891 C675.5536445 680.92393557 674.88697783 679.59060224 674.22031116 678.25726891 C673.23031116 677.92726891 672.24031116 677.59726891 671.22031116 677.25726891 C670.5536445 675.92393557 669.88697783 674.59060224 669.22031116 673.25726891 C668.23031116 672.92726891 667.24031116 672.59726891 666.22031116 672.25726891 C665.53544391 670.93319222 664.87160914 669.5981765 664.22031116 668.25726891 C662.30364196 666.00661788 662.30364196 666.00661788 660.22031116 664.25726891 C658.03244402 664.03205003 658.03244402 664.03205003 656.30234241 666.01508141 Z " fill="#074CA6" transform="translate(88.77968883514404,-0.25726890563964844)"/>
<path d="M0 0 C0.9577057 -0.00453111 1.91541139 -0.00906223 2.90213847 -0.01373065 C6.10780216 -0.02637992 9.31329607 -0.02475391 12.51898193 -0.02310181 C14.81888548 -0.02908675 17.11878702 -0.03589222 19.41868591 -0.04345703 C25.66468136 -0.06112848 31.91062202 -0.06581293 38.15664005 -0.0670886 C42.06006757 -0.06851021 45.96348116 -0.07278001 49.86690521 -0.07808304 C62.78512805 -0.09563273 75.70331197 -0.10492282 88.62154618 -0.10342209 C89.31747049 -0.10334218 90.01339479 -0.10326227 90.73040771 -0.10317993 C91.42718607 -0.10309817 92.12396443 -0.10301641 92.84185728 -0.10293217 C104.12856603 -0.10211965 115.41514121 -0.12125003 126.70181134 -0.14945666 C138.3027685 -0.17821892 149.90365445 -0.19162924 161.50464797 -0.19026911 C168.01292764 -0.18975952 174.52105615 -0.19544154 181.0293045 -0.21662521 C187.1524978 -0.23601125 193.27539582 -0.23612923 199.39859962 -0.22159195 C201.64231358 -0.21950317 203.88604604 -0.22420878 206.12972832 -0.23631287 C209.2003558 -0.25180135 212.26996975 -0.24243281 215.34057617 -0.22705078 C216.66230375 -0.24248147 216.66230375 -0.24248147 218.01073289 -0.25822389 C224.97562949 -0.18148738 232.08483781 1.22467001 237.3770535 6.04674399 C243.03359052 12.337519 243.92983226 17.33957093 243.80706787 25.77523804 C243.1222204 32.02272419 240.35927831 35.42915375 235.92425537 39.64242554 C230.17921428 43.37670225 225.4077473 43.55739665 218.7275238 43.53485107 C217.74476009 43.53938219 216.76199637 43.5439133 215.74945194 43.54858172 C212.45309852 43.56125199 209.15690976 43.55960364 205.86053467 43.55795288 C203.49842109 43.56393649 201.13630948 43.57074165 198.77420044 43.57830811 C192.35473217 43.59599248 185.93531721 43.60066452 179.51582694 43.60193968 C175.50571903 43.60292792 171.49561778 43.60750016 167.48551369 43.61293411 C154.21922853 43.63054437 140.95297572 43.63977337 127.68667879 43.63827316 C126.97174166 43.63819325 126.25680453 43.63811334 125.52020264 43.63803101 C124.80439047 43.63794924 124.0885783 43.63786748 123.35107485 43.63778324 C111.7525597 43.63697049 100.15417445 43.65610598 88.55569687 43.68430774 C76.64063993 43.71305017 64.72564633 43.72684728 52.81055385 43.72512019 C46.12346975 43.72445673 39.43654224 43.73031909 32.74948692 43.75147629 C26.45969805 43.77083286 20.17019679 43.77100051 13.8803978 43.75644302 C11.572955 43.75435063 9.26549431 43.75908131 6.9580822 43.77116394 C3.80569576 43.78660096 0.65430293 43.77731766 -2.49806213 43.76190186 C-3.86456995 43.77733254 -3.86456995 43.77733254 -5.25868398 43.79307497 C-11.74878925 43.72304058 -17.27355821 42.39814894 -22.10229665 37.82013834 C-27.60038517 31.48919154 -28.19135127 26.19584118 -27.95074463 17.98226929 C-27.44538995 12.9760995 -26.18498221 9.77691032 -22.57574463 6.26742554 C-15.67057463 0.95205049 -8.40061561 -0.02923173 0 0 Z " fill="#074CA6" transform="translate(321.57574462890625,735.7325744628906)"/>
<path d="M0 0 C1.03032349 -0.00571014 2.06064697 -0.01142029 3.12219238 -0.01730347 C4.2469548 -0.01842133 5.37171722 -0.01953918 6.53056335 -0.02069092 C8.31410721 -0.02813828 8.31410721 -0.02813828 10.13368225 -0.03573608 C13.39208176 -0.04783207 16.65044542 -0.05529954 19.90886331 -0.05974674 C21.94653043 -0.06268198 23.98419199 -0.06678764 26.02185631 -0.07125092 C32.40292563 -0.08491843 38.78398216 -0.09458875 45.16506511 -0.09845281 C52.52059181 -0.10293196 59.87593253 -0.1204762 67.2314027 -0.1494534 C72.92411849 -0.17109842 78.61678206 -0.18115859 84.30953854 -0.18249393 C87.70629262 -0.18353994 91.10287169 -0.18940398 94.49958229 -0.20731354 C98.29130259 -0.22437131 102.08257023 -0.2224941 105.87431335 -0.21600342 C106.99300308 -0.2252182 108.11169281 -0.23443298 109.26428223 -0.243927 C117.69276778 -0.19873996 123.57300497 1.16822366 129.89653015 7.14044189 C133.75963104 12.52118956 134.33183194 17.61091512 133.89653015 24.14044189 C132.24038508 31.73002009 129.31496356 35.67208962 122.98355103 40.24382019 C117.85479251 43.10216134 112.48605423 42.7069589 106.75419617 42.67388916 C104.94314392 42.68681252 104.94314392 42.68681252 103.09550476 42.69999695 C99.79982821 42.71875159 96.5047888 42.71957157 93.20908856 42.71067548 C90.45074425 42.70554732 87.6924891 42.71287293 84.93415397 42.72014755 C78.42340439 42.73711969 71.91288933 42.73360822 65.40214539 42.71685791 C58.70078239 42.69993937 52.00007092 42.71577277 45.29877907 42.74808079 C39.53035897 42.77483055 33.76214102 42.78203826 27.99366516 42.77356571 C24.554931 42.76865201 21.11658863 42.77076659 17.67790413 42.79135323 C13.84087467 42.80880022 10.00523269 42.79425176 6.16825867 42.77154541 C5.03917587 42.78323761 3.91009308 42.79492981 2.74679565 42.80697632 C-4.99995587 42.71385225 -10.16937844 41.15259493 -15.65685177 35.55623722 C-21.04343745 29.31667734 -20.88590797 22.99066833 -20.38179016 15.09161377 C-19.56351049 9.35504263 -15.91010959 5.51692931 -11.47846985 2.14044189 C-7.57402576 0.49646544 -4.23208097 0.01407749 0 0 Z " fill="#074CA6" transform="translate(227.1034698486328,839.8595581054688)"/>
<path d="M0 0 C1.03032349 -0.00571014 2.06064697 -0.01142029 3.12219238 -0.01730347 C4.2469548 -0.01842133 5.37171722 -0.01953918 6.53056335 -0.02069092 C8.31410721 -0.02813828 8.31410721 -0.02813828 10.13368225 -0.03573608 C13.39208176 -0.04783207 16.65044542 -0.05529954 19.90886331 -0.05974674 C21.94653043 -0.06268198 23.98419199 -0.06678764 26.02185631 -0.07125092 C32.40292563 -0.08491843 38.78398216 -0.09458875 45.16506511 -0.09845281 C52.52059181 -0.10293196 59.87593253 -0.1204762 67.2314027 -0.1494534 C72.92411849 -0.17109842 78.61678206 -0.18115859 84.30953854 -0.18249393 C87.70629262 -0.18353994 91.10287169 -0.18940398 94.49958229 -0.20731354 C98.29130259 -0.22437131 102.08257023 -0.2224941 105.87431335 -0.21600342 C106.99300308 -0.2252182 108.11169281 -0.23443298 109.26428223 -0.243927 C116.05109749 -0.20754133 121.54723554 0.15121344 126.8223114 4.85919189 C127.27992859 5.44700439 127.73754578 6.03481689 128.20903015 6.64044189 C128.67953796 7.22825439 129.15004578 7.81606689 129.6348114 8.42169189 C134.30626569 14.78528287 133.73486509 21.53554634 132.89653015 29.14044189 C131.50368088 32.62256506 129.81171442 34.80720672 126.89653015 37.14044189 C126.3935588 37.54787817 125.89058744 37.95531445 125.37237453 38.37509727 C119.30733666 42.75383926 113.96870034 42.85314404 106.65653992 42.78741455 C104.84767807 42.80055695 104.84767807 42.80055695 103.00227356 42.81396484 C99.71471348 42.83212563 96.42816988 42.82797543 93.14062619 42.81206942 C89.68683951 42.79934077 86.23311696 42.81117 82.77932739 42.81900024 C76.9799749 42.82807794 71.18094153 42.81616004 65.38163757 42.79229736 C58.69559105 42.76510207 52.01030735 42.77389541 45.32427937 42.80142939 C39.56514805 42.82418893 33.80624513 42.82728699 28.04708332 42.81423604 C24.6156182 42.80647717 21.18451048 42.80530017 17.75306892 42.82191849 C13.92349832 42.83466123 10.09537792 42.81519737 6.26591492 42.78741455 C5.14199844 42.79753571 4.01808197 42.80765686 2.86010742 42.81808472 C-4.21420003 42.72332563 -9.43164357 41.52675323 -15.10346985 37.14044189 C-20.26461577 31.57758369 -21.38376718 26.69860624 -21.2558136 19.12091064 C-20.83396611 13.63689323 -18.44189163 9.40620306 -15.10346985 5.14044189 C-9.99552023 1.20306406 -6.33584688 0.02107541 0 0 Z " fill="#074CA6" transform="translate(519.1034698486328,839.8595581054688)"/>
<path d="M0 0 C0.886875 0.495 1.77375 0.99 2.6875 1.5 C6.82377352 5.97164705 8.7899571 11.59430442 9.1640625 17.66015625 C8.72669019 24.3977725 7.08056031 30.22749572 1.96875 34.828125 C-4.68721031 39.4527208 -11.062329 40.31135491 -19 39 C-25.4431198 36.83647818 -29.90035673 33.04500565 -33 27 C-35.07106028 20.78681917 -34.58584229 13.94743727 -32 8 C-29.15445788 2.91867478 -25.84885597 -0.77646895 -20.14453125 -2.58984375 C-12.95992365 -3.96394903 -6.38544506 -3.57584923 0 0 Z " fill="#074CA6" transform="translate(442,843)"/>
<path d="M0 0 C2.41389549 1.79434846 3.98940911 3.67319542 5.61328125 6.19921875 C6.19078125 7.04484375 6.76828125 7.89046875 7.36328125 8.76171875 C9.65003695 15.05029693 9.77245045 22.2318279 7.11328125 28.44921875 C6.61828125 29.35671875 6.12328125 30.26421875 5.61328125 31.19921875 C4.95328125 31.19921875 4.29328125 31.19921875 3.61328125 31.19921875 C3.28328125 32.18921875 2.95328125 33.17921875 2.61328125 34.19921875 C1.95328125 34.19921875 1.29328125 34.19921875 0.61328125 34.19921875 C0.61328125 34.85921875 0.61328125 35.51921875 0.61328125 36.19921875 C-5.99455585 39.97512567 -11.92731646 40.11887109 -19.38671875 39.19921875 C-22.52807804 37.98507375 -24.86738491 36.41317879 -27.38671875 34.19921875 C-28.17046875 33.53921875 -28.95421875 32.87921875 -29.76171875 32.19921875 C-33.26989253 27.8814664 -33.68145481 23.71524681 -33.69921875 18.26171875 C-33.71597656 17.07707031 -33.73273437 15.89242188 -33.75 14.671875 C-33.14325881 8.87195116 -30.84365109 5.12325143 -26.44921875 1.38671875 C-25.78019531 0.80277344 -25.11117188 0.21882813 -24.421875 -0.3828125 C-17.70285437 -5.06420307 -6.78168028 -4.00161259 0 0 Z " fill="#074CA6" transform="translate(33.38671875,294.80078125)"/>
</svg>
