<?xml version="1.0" encoding="UTF-8"?>
<svg version="1.1" xmlns="http://www.w3.org/2000/svg" width="1024" height="1024">
<path d="M0 0 C1.49259187 -0.00343625 2.98518118 -0.00818489 4.4777652 -0.01412097 C8.58017796 -0.02662649 12.68238267 -0.02048249 16.78479636 -0.01128729 C21.24762931 -0.00457916 25.71042641 -0.01524277 30.17325175 -0.02368313 C37.99530517 -0.03606203 45.81729861 -0.03725719 53.63935852 -0.0311327 C65.27105438 -0.02204965 76.90269467 -0.03006723 88.53438626 -0.04142394 C109.30802923 -0.06110529 130.08164727 -0.06343545 150.85529734 -0.05822874 C169.03575682 -0.05367415 187.21620642 -0.05426751 205.39666557 -0.06006908 C207.83398303 -0.06082595 210.27130048 -0.06158193 212.70861793 -0.06233703 C216.38129381 -0.0634822 220.05396968 -0.06463208 223.72664555 -0.06579627 C257.87866737 -0.07650369 292.0306859 -0.08122403 326.18270874 -0.07332611 C327.47050848 -0.07302894 328.75830822 -0.07273176 330.08513219 -0.07242559 C340.54343012 -0.06997657 351.00172801 -0.06736502 361.46002589 -0.06474145 C402.25795599 -0.05463829 443.05584494 -0.06299477 483.8537693 -0.086236 C529.67715916 -0.11229776 575.50052425 -0.12515944 621.3239218 -0.11804825 C626.20822628 -0.11733217 631.09253076 -0.11665779 635.97683525 -0.1160078 C637.78083112 -0.11575309 637.78083112 -0.11575309 639.62127135 -0.11549323 C657.78984831 -0.11318855 675.9584023 -0.1211753 694.12697411 -0.13429928 C714.78518709 -0.14919491 735.44334615 -0.15007463 756.10155796 -0.13222837 C767.66594829 -0.12264982 779.23021294 -0.12413194 790.79459494 -0.14146306 C798.51681918 -0.15192957 806.2389474 -0.14788457 813.96116213 -0.13198302 C818.36263039 -0.12332714 822.76385185 -0.12098526 827.16530769 -0.13625234 C831.17196061 -0.15001898 835.17815519 -0.14527589 839.18478134 -0.12596715 C840.62276125 -0.12224112 842.06077834 -0.12516413 843.49872462 -0.13568023 C858.25273401 -0.23611796 869.98353122 3.85048025 881.02369118 13.82172298 C894.2731941 27.44808303 896.64307493 42.72092963 896.57110596 61.04009056 C896.57308416 62.38450419 896.57593988 63.72891677 896.57958376 65.07332692 C896.58704535 68.75026267 896.58218012 72.42709213 896.57523233 76.10402502 C896.56989722 80.11078655 896.57625243 84.11753267 896.58112299 88.12429243 C896.58807462 95.14076737 896.58770906 102.15721191 896.58251953 109.17368793 C896.57486253 119.60713447 896.57874316 130.04055443 896.585142 140.4740007 C896.59566278 158.02742513 896.59750061 175.58083994 896.59496117 193.13426685 C896.59154367 218.2033562 896.60490609 243.27242145 896.62173563 268.34150431 C896.62841593 278.40200352 896.63455486 288.46250307 896.64068985 298.52300262 C896.64171584 300.19945679 896.64171584 300.19945679 896.64276256 301.90977871 C896.65893527 328.50322796 896.66977484 355.0966787 896.67896461 381.69013119 C896.67937065 382.8535549 896.67977668 384.01697861 896.68019502 385.21565759 C896.68962819 412.37528006 896.696491 439.53490169 896.69892311 466.69452572 C896.69902967 467.86360043 896.69913624 469.03267514 896.69924603 470.23717636 C896.69977922 476.13259038 896.70029396 482.02800439 896.70080741 487.92341841 C896.70090962 489.08862471 896.70101182 490.25383101 896.70111713 491.45434659 C896.70132269 493.80621795 896.70152525 496.1580893 896.7017248 498.50996065 C896.70510272 537.33489946 896.72198704 576.15981408 896.75382634 614.9847403 C896.75829987 620.46284189 896.76258968 625.94094361 896.76675224 631.41904545 C896.7675727 632.49719085 896.76839316 633.57533626 896.76923848 634.68615274 C896.78200414 652.06123719 896.77998408 669.43629036 896.7721178 686.81137645 C896.76444948 704.25613026 896.77079713 721.70083178 896.79175685 739.14557516 C896.80375589 749.51814667 896.80444453 759.89057944 896.78926434 770.26314752 C896.78021824 777.18317879 896.78552687 784.10310087 896.80270681 791.02311653 C896.81208565 794.97128209 896.81500402 798.91917191 896.80043618 802.86732792 C896.78731397 806.4556163 896.79241543 810.04338892 896.81234953 813.6316417 C896.81814853 815.53716205 896.80423342 817.44271086 896.78963077 819.34818408 C896.77650189 825.73822337 896.77650189 825.73822337 899.16445506 831.5227471 C900.86928894 832.99152467 902.59185217 834.43972173 904.32056618 835.88031673 C907.11733729 838.21095933 909.06908884 840.54781298 911.32056618 843.38031673 C912.12494118 844.01969173 912.92931618 844.65906673 913.75806618 845.31781673 C916.72753455 847.70787664 918.88387274 850.45628461 921.32056618 853.38031673 C922.98326905 854.71858977 924.64972799 856.05221459 926.32056618 857.38031673 C926.95994118 858.18469173 927.59931618 858.98906673 928.25806618 859.81781673 C930.30749021 862.53636669 930.30749021 862.53636669 933.32056618 864.88031673 C936.11733729 867.21095933 938.06908884 869.54781298 940.32056618 872.38031673 C941.09142555 872.97844173 941.86228493 873.57656673 942.65650368 874.19281673 C945.48607867 876.51622142 947.60269798 878.95843331 949.88306618 881.81781673 C950.62685524 882.74465267 951.3706443 883.67148861 952.13697243 884.62641048 C952.85755836 885.53519955 953.5781443 886.44398861 954.32056618 887.38031673 C954.99861305 888.17953548 955.67665993 888.97875423 956.37525368 889.80219173 C967.40325764 904.41761867 970.67755347 921.40701487 970.63306618 939.25531673 C970.64917946 940.54051205 970.66529274 941.82570736 970.6818943 943.14984798 C970.69225745 963.56524937 962.74412562 982.82860818 948.98462868 997.90375423 C947.32056618 999.38031673 947.32056618 999.38031673 945.32056618 999.38031673 C945.05373024 999.9797308 944.7868943 1000.57914486 944.51197243 1001.19672298 C940.98466189 1007.66153148 933.64010718 1011.1482639 927.32056618 1014.38031673 C926.49040993 1014.8147308 925.66025368 1015.24914486 924.80494118 1015.69672298 C911.76294994 1022.39774609 900.2183069 1024.73255266 885.50806618 1024.69281673 C884.3266404 1024.70893002 883.14521461 1024.7250433 881.92798805 1024.74164486 C861.29063304 1024.752953 841.27351916 1016.80035525 826.32056618 1002.38031673 C825.99056618 1001.39031673 825.66056618 1000.40031673 825.32056618 999.38031673 C824.33056618 999.05031673 823.34056618 998.72031673 822.32056618 998.38031673 C822.32056618 997.72031673 822.32056618 997.06031673 822.32056618 996.38031673 C821.33056618 996.05031673 820.34056618 995.72031673 819.32056618 995.38031673 C819.32056618 994.72031673 819.32056618 994.06031673 819.32056618 993.38031673 C818.78431618 993.17406673 818.24806618 992.96781673 817.69556618 992.75531673 C814.40078609 990.84781247 811.72692989 988.33212289 809.32056618 985.38031673 C809.32056618 984.72031673 809.32056618 984.06031673 809.32056618 983.38031673 C808.33056618 983.05031673 807.34056618 982.72031673 806.32056618 982.38031673 C806.32056618 981.72031673 806.32056618 981.06031673 806.32056618 980.38031673 C805.33056618 980.05031673 804.34056618 979.72031673 803.32056618 979.38031673 C803.32056618 978.72031673 803.32056618 978.06031673 803.32056618 977.38031673 C802.78431618 977.17406673 802.24806618 976.96781673 801.69556618 976.75531673 C798.40078609 974.84781247 795.72692989 972.33212289 793.32056618 969.38031673 C793.32056618 968.72031673 793.32056618 968.06031673 793.32056618 967.38031673 C792.33056618 967.05031673 791.34056618 966.72031673 790.32056618 966.38031673 C790.32056618 965.72031673 790.32056618 965.06031673 790.32056618 964.38031673 C789.33056618 964.05031673 788.34056618 963.72031673 787.32056618 963.38031673 C787.32056618 962.72031673 787.32056618 962.06031673 787.32056618 961.38031673 C786.78431618 961.17406673 786.24806618 960.96781673 785.69556618 960.75531673 C782.40078609 958.84781247 779.72692989 956.33212289 777.32056618 953.38031673 C777.32056618 952.72031673 777.32056618 952.06031673 777.32056618 951.38031673 C776.33056618 951.05031673 775.34056618 950.72031673 774.32056618 950.38031673 C774.32056618 949.72031673 774.32056618 949.06031673 774.32056618 948.38031673 C773.33056618 948.05031673 772.34056618 947.72031673 771.32056618 947.38031673 C771.32056618 946.72031673 771.32056618 946.06031673 771.32056618 945.38031673 C770.78431618 945.17406673 770.24806618 944.96781673 769.69556618 944.75531673 C766.40078609 942.84781247 763.72692989 940.33212289 761.32056618 937.38031673 C761.32056618 936.72031673 761.32056618 936.06031673 761.32056618 935.38031673 C760.33056618 935.05031673 759.34056618 934.72031673 758.32056618 934.38031673 C758.32056618 933.72031673 758.32056618 933.06031673 758.32056618 932.38031673 C757.33056618 932.05031673 756.34056618 931.72031673 755.32056618 931.38031673 C755.32056618 930.72031673 755.32056618 930.06031673 755.32056618 929.38031673 C754.78431618 929.17406673 754.24806618 928.96781673 753.69556618 928.75531673 C750.40078609 926.84781247 747.72692989 924.33212289 745.32056618 921.38031673 C745.32056618 920.72031673 745.32056618 920.06031673 745.32056618 919.38031673 C744.33056618 919.05031673 743.34056618 918.72031673 742.32056618 918.38031673 C742.32056618 917.72031673 742.32056618 917.06031673 742.32056618 916.38031673 C741.34566537 916.38101865 741.34566537 916.38101865 740.35106959 916.38173474 C669.59303806 916.43257286 598.83500444 916.47968926 528.07695961 916.50734615 C527.02004146 916.50776032 525.96312331 916.5081745 524.87417733 916.50860122 C501.90462861 916.51757989 478.93507969 916.52589044 455.96553047 916.53351272 C444.70130731 916.53725474 433.43708419 916.5411444 422.1728611 916.54511166 C421.0519341 916.54550393 419.93100711 916.54589621 418.77611263 916.54630037 C382.44211339 916.55908495 346.10812815 916.58161928 309.77413739 916.6092084 C272.43697575 916.63750776 235.09982185 916.65597344 197.76264966 916.6620617 C192.48931891 916.66292617 187.21598819 916.66390308 181.94265747 916.66494846 C180.90478796 916.66515073 179.86691845 916.665353 178.79759834 916.6655614 C162.08919349 916.66910687 145.38081259 916.68302193 128.6724175 916.70081284 C111.87579703 916.71847646 95.07920031 916.72522019 78.28257088 916.72082087 C68.30279033 916.71853876 58.32309668 916.72462579 48.34333183 916.74270936 C41.67450272 916.75396802 35.00573044 916.75430136 28.3368974 916.74581218 C24.53857799 916.741288 20.74042279 916.7414561 16.94212107 916.75496628 C12.84423746 916.76943088 8.74672742 916.76051661 4.64883327 916.74946022 C2.8927649 916.76128178 2.8927649 916.76128178 1.1012204 916.77334216 C-9.09013719 916.71120215 -19.41846917 915.46763855 -28.17943382 909.94281673 C-29.11787132 909.3666058 -30.05630882 908.79039486 -31.02318382 908.19672298 C-33.69915296 906.36683232 -36.24752035 904.52586358 -38.67943382 902.38031673 C-38.67943382 901.72031673 -38.67943382 901.06031673 -38.67943382 900.38031673 C-39.66943382 900.05031673 -40.65943382 899.72031673 -41.67943382 899.38031673 C-41.67943382 898.72031673 -41.67943382 898.06031673 -41.67943382 897.38031673 C-42.33943382 897.38031673 -42.99943382 897.38031673 -43.67943382 897.38031673 C-48.01799026 891.59154645 -50.71586416 885.28812654 -52.67943382 878.38031673 C-53.17443382 876.89531673 -53.17443382 876.89531673 -53.67943382 875.38031673 C-53.77295864 873.47709372 -53.8061396 871.5707028 -53.80708432 869.66518348 C-53.81010029 868.46410049 -53.81311626 867.2630175 -53.81622362 866.02553806 C-53.81452448 864.68322589 -53.81273373 863.34091385 -53.81086159 861.99860191 C-53.81251046 860.57409874 -53.81459638 859.14959601 -53.81708169 857.72509405 C-53.82266804 853.78382099 -53.82197234 849.84256957 -53.8203041 845.90129381 C-53.81957525 841.6235275 -53.82459064 837.3457674 -53.82887912 833.06800371 C-53.83647362 824.5714687 -53.83865291 816.07493996 -53.83920817 807.57840191 C-53.84012039 797.40616757 -53.84678372 787.23393907 -53.853555 777.06170723 C-53.86963236 752.4719547 -53.87552029 727.88220276 -53.88030375 703.29244591 C-53.882638 691.66424099 -53.88624047 680.03603657 -53.88999912 668.40783203 C-53.9028363 628.61875585 -53.91355524 588.82967994 -53.91700172 549.04060173 C-53.91722336 546.54177909 -53.91744514 544.04295645 -53.91766708 541.54413382 C-53.91788772 539.03920182 -53.9181082 536.53426982 -53.91832852 534.02933782 C-53.91877108 529.00383405 -53.9192182 523.97833027 -53.9196682 518.9528265 C-53.91977759 517.7067891 -53.91988698 516.4607517 -53.91999969 515.17695559 C-53.92363087 474.76788339 -53.9395524 434.35882912 -53.96285856 393.94976379 C-53.98744263 351.24707762 -54.00117391 308.5444017 -54.00236964 265.84170824 C-54.0025411 261.15588859 -54.00275653 256.47006895 -54.00300407 251.78424931 C-54.00308773 250.05352393 -54.00308773 250.05352393 -54.00317307 248.2878344 C-54.00432478 229.7016719 -54.01535702 211.11552776 -54.02989113 192.52937147 C-54.04424224 173.85457953 -54.04750097 155.17981119 -54.03945115 136.50501525 C-54.03498829 125.40481442 -54.03888169 114.30468966 -54.05468966 103.2044988 C-54.06441965 95.79276047 -54.06328038 88.38107559 -54.05325343 80.96933778 C-54.04784707 76.74430276 -54.04719729 72.51941409 -54.05976215 68.29439103 C-54.07110283 64.44896621 -54.06857489 60.6038068 -54.05509508 56.75839117 C-54.05151948 54.72746858 -54.06263397 52.69653623 -54.07438636 50.6656445 C-54.01655739 40.59565774 -52.29238018 32.40714282 -47.11693382 23.75531673 C-46.51751976 22.73180111 -45.9181057 21.70828548 -45.30052757 20.65375423 C-44.76556664 19.90351986 -44.2306057 19.15328548 -43.67943382 18.38031673 C-43.01943382 18.38031673 -42.35943382 18.38031673 -41.67943382 18.38031673 C-41.34943382 17.39031673 -41.01943382 16.40031673 -40.67943382 15.38031673 C-40.01943382 15.38031673 -39.35943382 15.38031673 -38.67943382 15.38031673 C-38.34943382 14.39031673 -38.01943382 13.40031673 -37.67943382 12.38031673 C-37.01943382 12.38031673 -36.35943382 12.38031673 -35.67943382 12.38031673 C-35.34943382 11.39031673 -35.01943382 10.40031673 -34.67943382 9.38031673 C-32.49193382 7.88031673 -32.49193382 7.88031673 -29.67943382 6.38031673 C-28.77193382 5.88531673 -27.86443382 5.39031673 -26.92943382 4.88031673 C-17.82706665 0.67922419 -10.01030644 -0.05105953 0 0 Z M-13.49193382 39.81781673 C-48.90185891 81.2980147 -17.67943382 148.84161838 -17.67943382 203.38031673 C272.06056618 203.38031673 561.80056618 203.38031673 860.32056618 203.38031673 C872.22564314 117.74899502 872.22564314 117.74899502 855.32056618 40.38031673 C854.00056618 39.72031673 852.68056618 39.06031673 851.32056618 38.38031673 C851.32056618 37.72031673 851.32056618 37.06031673 851.32056618 36.38031673 C847.2062286 35.60568802 843.32385296 35.25497092 839.13961703 35.2538169 C837.29662494 35.24967729 837.29662494 35.24967729 835.4164007 35.24545404 C834.05849525 35.24744175 832.70058993 35.24952121 831.34268475 35.25168228 C829.88990131 35.25033547 828.43711823 35.24855149 826.98433581 35.24637005 C822.97854725 35.24163403 818.97278138 35.24314366 814.96699169 35.24564782 C810.61412055 35.24727858 806.26125432 35.243142 801.90838474 35.23973864 C794.27486034 35.23457955 786.64134228 35.23316832 779.00781631 35.23419476 C767.65661877 35.23571737 756.30542827 35.2315631 744.9542321 35.22632013 C723.50390123 35.21663956 702.05357275 35.21383564 680.60323996 35.21326307 C664.04260908 35.21280391 647.48197914 35.21074756 630.92134857 35.20756245 C626.15814859 35.20666494 621.3949486 35.20577512 616.63174862 35.20488757 C615.44768252 35.20466652 614.26361642 35.20444547 613.04366953 35.20421773 C579.73007995 35.19806199 546.41649069 35.19411732 513.10290051 35.194561 C511.2181869 35.19458437 511.2181869 35.19458437 509.29539828 35.19460821 C502.92672864 35.19469132 496.558059 35.19479036 490.18938936 35.19489292 C488.29204932 35.19492284 488.29204932 35.19492284 486.35637919 35.19495336 C483.79845674 35.1949938 481.24053429 35.1950356 478.68261185 35.19507875 C438.87206628 35.19569171 399.06152923 35.18818174 359.2509861 35.17450619 C314.54870399 35.15915666 269.84642748 35.15053926 225.14414257 35.15146941 C220.38062823 35.15154404 215.61711389 35.15159275 210.85359955 35.15162373 C209.09418386 35.15164121 209.09418386 35.15164121 207.29922441 35.15165904 C188.39742588 35.15168986 169.49563472 35.14529538 150.59383839 35.13669146 C131.60917023 35.12822832 112.62451289 35.12721451 93.63984389 35.13380078 C82.35238354 35.13750525 71.064956 35.13563741 59.77749911 35.12585844 C52.24487293 35.11988223 44.71227064 35.12112748 37.17964558 35.12832894 C32.88318173 35.13223046 28.58678162 35.13292892 24.29032213 35.12487159 C20.38365677 35.11760913 16.4771084 35.11950983 12.5704483 35.12879546 C11.16412584 35.13052034 9.7577943 35.12887681 8.35148108 35.12349425 C-3.39669396 34.72151525 -3.39669396 34.72151525 -13.49193382 39.81781673 Z M-17.67943382 238.38031673 C-17.80318382 342.51594173 -17.92693382 446.65156673 -18.05443382 553.94281673 C-18.10905785 586.87393246 -18.16368187 619.80504818 -18.21996117 653.7340765 C-18.24002265 683.1474581 -18.24002265 683.1474581 -18.25209618 712.56084347 C-18.25807624 726.5709469 -18.28399321 740.58087759 -18.31947439 754.59093246 C-18.35514565 768.86851523 -18.36846445 783.14598852 -18.36010353 797.4236142 C-18.35578998 805.91874542 -18.36781566 814.41347014 -18.40427939 822.90852634 C-18.42933775 829.16976662 -18.42328573 835.43060599 -18.40484047 841.69186115 C-18.40228449 844.23069067 -18.40999469 846.76955443 -18.4287293 849.30831611 C-18.45268574 852.75583635 -18.43991017 856.20131709 -18.41772079 859.64880371 C-18.43348294 860.64440437 -18.44924509 861.64000502 -18.46548488 862.66577539 C-18.37991662 868.51428834 -17.4222382 871.75685569 -13.35660342 876.03103399 C-9.83323982 878.8655796 -7.12736881 879.63029841 -2.62368703 879.62871373 C-1.59553823 879.63320831 -0.56738942 879.6377029 0.4919154 879.64233369 C1.62209696 879.63707966 2.75227851 879.63182563 3.91670799 879.62641239 C5.72428159 879.62987392 5.72428159 879.62987392 7.56837183 879.63340539 C10.92946629 879.63780348 14.29033426 879.63318082 17.65140722 879.62484912 C21.30175807 879.61799417 24.95209641 879.62271974 28.60244966 879.6260041 C35.00541558 879.63015709 41.40834438 879.62685464 47.811306 879.61872768 C57.33232672 879.60667662 66.85332394 879.60605431 76.37435089 879.60781166 C92.38883687 879.61044197 108.40330637 879.60374714 124.41778755 879.59177685 C140.27901987 879.57995143 156.14024532 879.5722467 172.00148201 879.57007122 C172.98689961 879.56993374 173.97231721 879.56979626 174.98759595 879.56965462 C179.99183205 879.56897797 184.99606815 879.5683752 190.00030425 879.56780086 C225.46497306 879.56359766 260.92963289 879.55011629 296.39429665 879.53119564 C330.85230397 879.51283323 365.31030885 879.49866284 399.76832008 879.49018002 C400.83006773 879.48991696 401.89181538 879.48965391 402.9857372 879.48938289 C413.64803605 879.4867459 424.31033492 879.48419426 434.9726338 879.48170517 C456.69385635 879.47663245 478.41507873 879.47098995 500.13630104 879.46500301 C501.13505451 879.46472843 502.13380797 879.46445385 503.16282669 879.46417095 C569.88207692 879.445763 636.60132217 879.41407183 703.32056618 879.38031673 C702.38237212 878.08926375 701.43857475 876.80228144 700.49244118 875.51703548 C699.96747047 874.7999139 699.44249977 874.08279232 698.90162086 873.34393978 C697.28209995 871.18571696 697.28209995 871.18571696 694.57056618 869.19281673 C691.3051359 866.56233124 690.48165337 863.81754926 690.01978493 859.69672298 C689.98196099 850.80809744 692.41830912 845.8727995 698.32056618 839.38031673 C699.31056618 838.72031673 700.30056618 838.06031673 701.32056618 837.38031673 C701.32056618 836.72031673 701.32056618 836.06031673 701.32056618 835.38031673 C702.31056618 835.05031673 703.30056618 834.72031673 704.32056618 834.38031673 C703.73755206 831.06086075 702.74613396 829.43634321 700.36133766 827.08051205 C699.74076988 826.46017086 699.1202021 825.83982967 698.48082924 825.20069027 C697.80790337 824.54324825 697.13497749 823.88580624 696.44165993 823.20844173 C695.41166626 822.18481533 695.41166626 822.18481533 694.36086464 821.14050961 C692.16687203 818.96330477 689.96267702 816.79676393 687.75806618 814.63031673 C686.26844984 813.15574702 684.77950898 811.68049461 683.2912693 810.20453548 C679.6421581 806.58849497 675.98386239 802.98198386 672.32056618 799.38031673 C668.88526984 800.47237169 665.66174984 801.58311295 662.50806618 803.33344173 C661.83267799 803.70235531 661.15728981 804.07126888 660.46143532 804.45136166 C659.7549485 804.84041683 659.04846169 805.22947201 658.32056618 805.63031673 C622.81666986 824.72957068 585.23362111 831.13460446 545.32056618 830.38031673 C544.19183083 830.3614642 544.19183083 830.3614642 543.04029274 830.3422308 C525.39296066 829.96045628 508.13705998 826.67067304 491.32056618 821.38031673 C490.56831764 821.16141781 489.81606911 820.94251888 489.04102516 820.71698666 C468.64102855 814.76904536 449.27061172 805.61909299 431.86231422 793.42768002 C428.87875185 791.12336953 428.87875185 791.12336953 425.32056618 790.38031673 C425.32056618 789.72031673 425.32056618 789.06031673 425.32056618 788.38031673 C424.33056618 788.38031673 423.34056618 788.38031673 422.32056618 788.38031673 C422.32056618 787.72031673 422.32056618 787.06031673 422.32056618 786.38031673 C420.37069053 784.80394668 418.42347852 783.33014434 416.38306618 781.88031673 C410.44723433 777.63365303 410.44723433 777.63365303 409.32056618 775.38031673 C408.33056618 775.38031673 407.34056618 775.38031673 406.32056618 775.38031673 C405.99056618 774.39031673 405.66056618 773.40031673 405.32056618 772.38031673 C404.66056618 772.38031673 404.00056618 772.38031673 403.32056618 772.38031673 C402.99056618 771.39031673 402.66056618 770.40031673 402.32056618 769.38031673 C400.6584135 768.04136041 398.9909301 766.70901531 397.32056618 765.38031673 C396.40249042 764.31576736 395.50648105 763.23180433 394.63306618 762.13031673 C393.48837868 760.76906673 393.48837868 760.76906673 392.32056618 759.38031673 C391.66056618 759.38031673 391.00056618 759.38031673 390.32056618 759.38031673 C390.07693336 758.82601986 389.83330055 758.27172298 389.58228493 757.70062923 C388.06080591 754.9026152 386.19152894 752.68579084 384.13306618 750.25531673 C372.49641859 736.19127929 362.96959907 720.61258718 355.15503883 704.1391058 C354.42333186 702.5969124 353.67594297 701.06217964 352.92603493 699.52875423 C347.48114557 688.0858439 343.17317981 675.72605442 340.32056618 663.38031673 C340.08490944 662.36324642 340.08490944 662.36324642 339.84449196 661.32562923 C331.62867328 625.16059827 332.3876315 588.29285695 341.32056618 552.38031673 C341.50457985 551.6283099 341.68859352 550.87630306 341.87818336 550.10150814 C347.16077412 529.02484983 356.20476311 507.189862 369.05103493 489.57172298 C371.41961315 486.569993 371.41961315 486.569993 372.32056618 483.38031673 C372.98056618 483.05031673 373.64056618 482.72031673 374.32056618 482.38031673 C375.2551924 480.71134134 376.18729922 479.04086399 377.10181618 477.36078548 C378.81523214 474.57648454 380.93475302 472.25556512 383.14869118 469.86078548 C384.52744949 468.43364441 384.52744949 468.43364441 384.32056618 466.38031673 C385.31056618 466.05031673 386.30056618 465.72031673 387.32056618 465.38031673 C388.6483484 463.84442736 389.90892559 462.25002091 391.13306618 460.63031673 C395.01061809 455.75458314 399.17907815 451.47628657 403.75806618 447.25531673 C404.37335182 446.68716244 404.98863747 446.11900814 405.62256813 445.53363705 C410.02253142 441.52933411 410.02253142 441.52933411 412.32056618 440.38031673 C412.32056618 439.72031673 412.32056618 439.06031673 412.32056618 438.38031673 C412.85294899 438.14957455 413.3853318 437.91883236 413.93384743 437.68109798 C417.06141038 435.97655058 419.73556383 433.78314418 422.50806618 431.56781673 C426.86482185 428.14412781 431.14114238 425.08266254 436.12525368 422.61078548 C438.55107201 421.31289173 438.55107201 421.31289173 441.44947243 419.05219173 C445.80378556 415.89728761 450.51688839 413.69593821 455.38306618 411.44281673 C456.31699196 411.00679134 457.25091774 410.57076595 458.2131443 410.12152767 C460.07403354 409.25658019 461.93678238 408.39562037 463.80152321 407.53900814 C465.89623081 406.57549949 467.98222584 405.59618611 470.06665993 404.61078548 C513.51862975 384.84092167 567.68729585 382.86550681 613.32056618 395.38031673 C614.19841774 395.61492611 615.0762693 395.84953548 615.98072243 396.09125423 C618.45212067 396.79265273 620.88291303 397.56894159 623.32056618 398.38031673 C623.92304176 398.57851009 624.52551735 398.77670345 625.14624977 398.98090267 C639.58890185 403.76848376 653.09943675 409.81660083 666.32056618 417.38031673 C667.4594529 418.01646908 667.4594529 418.01646908 668.62134743 418.66547298 C674.2929984 421.93501296 679.65249006 425.62369515 685.00806618 429.38031673 C686.07758522 430.12789242 686.07758522 430.12789242 687.16871071 430.89057064 C691.28989577 433.81265654 695.15147905 436.87409267 698.88624001 440.27875423 C700.28351194 441.58334918 700.28351194 441.58334918 702.32056618 441.38031673 C702.65056618 442.37031673 702.98056618 443.36031673 703.32056618 444.38031673 C704.87761812 445.95872245 704.87761812 445.95872245 706.82056618 447.50531673 C712.43268613 452.26650153 718.22083713 457.23072317 722.32056618 463.38031673 C722.98056618 463.38031673 723.64056618 463.38031673 724.32056618 463.38031673 C724.59819801 463.96877377 724.87582985 464.5572308 725.16187477 465.16351986 C726.25220719 467.249533 727.42629328 468.98819025 728.85962868 470.84906673 C729.60067848 471.8197308 729.60067848 471.8197308 730.35669899 472.81000423 C730.88102516 473.49320736 731.40535133 474.17641048 731.94556618 474.88031673 C740.75041764 486.5290038 748.06802544 498.20377686 754.32056618 511.38031673 C755.14234352 513.08961361 755.14234352 513.08961361 755.98072243 514.83344173 C777.67990961 560.78466166 782.76358781 614.08042692 770.32056618 663.38031673 C770.08466774 664.34840267 769.8487693 665.31648861 769.60572243 666.31391048 C768.90818513 669.02563831 768.12910986 671.69954523 767.32056618 674.38031673 C766.95833961 675.63070736 766.59611305 676.88109798 766.22290993 678.16937923 C761.65134426 693.2461523 754.92606928 707.90776857 746.95337868 721.49359798 C745.15645654 724.1177019 745.15645654 724.1177019 745.32056618 726.38031673 C745.98056618 726.38031673 746.64056618 726.38031673 747.32056618 726.38031673 C747.65056618 727.37031673 747.98056618 728.36031673 748.32056618 729.38031673 C748.98056618 729.38031673 749.64056618 729.38031673 750.32056618 729.38031673 C750.65056618 730.37031673 750.98056618 731.36031673 751.32056618 732.38031673 C751.98056618 732.38031673 752.64056618 732.38031673 753.32056618 732.38031673 C753.65056618 733.37031673 753.98056618 734.36031673 754.32056618 735.38031673 C754.98056618 735.38031673 755.64056618 735.38031673 756.32056618 735.38031673 C756.65056618 736.37031673 756.98056618 737.36031673 757.32056618 738.38031673 C759.19564779 740.58889334 759.19564779 740.58889334 761.32056618 742.38031673 C761.98056618 742.38031673 762.64056618 742.38031673 763.32056618 742.38031673 C763.65056618 743.37031673 763.98056618 744.36031673 764.32056618 745.38031673 C764.98056618 745.38031673 765.64056618 745.38031673 766.32056618 745.38031673 C766.65056618 746.37031673 766.98056618 747.36031673 767.32056618 748.38031673 C767.98056618 748.38031673 768.64056618 748.38031673 769.32056618 748.38031673 C769.65056618 749.37031673 769.98056618 750.36031673 770.32056618 751.38031673 C770.98056618 751.38031673 771.64056618 751.38031673 772.32056618 751.38031673 C772.65056618 752.37031673 772.98056618 753.36031673 773.32056618 754.38031673 C775.04994447 756.69309791 775.04994447 756.69309791 777.32056618 758.38031673 C779.53914871 758.24390296 779.53914871 758.24390296 781.32056618 757.38031673 C781.32056618 756.72031673 781.32056618 756.06031673 781.32056618 755.38031673 C782.31056618 755.05031673 783.30056618 754.72031673 784.32056618 754.38031673 C785.67884588 752.73391709 787.01310868 751.06735866 788.32056618 749.38031673 C788.98056618 749.05031673 789.64056618 748.72031673 790.32056618 748.38031673 C790.32056618 747.72031673 790.32056618 747.06031673 790.32056618 746.38031673 C796.81052877 743.98214684 802.51269913 742.4017397 809.32056618 744.38031673 C811.51877181 745.54767219 813.3240894 746.87078552 815.32056618 748.38031673 C815.98056618 748.38031673 816.64056618 748.38031673 817.32056618 748.38031673 C817.65056618 749.37031673 817.98056618 750.36031673 818.32056618 751.38031673 C818.98056618 751.38031673 819.64056618 751.38031673 820.32056618 751.38031673 C820.65056618 752.37031673 820.98056618 753.36031673 821.32056618 754.38031673 C823.19564779 756.58889334 823.19564779 756.58889334 825.32056618 758.38031673 C825.98056618 758.38031673 826.64056618 758.38031673 827.32056618 758.38031673 C827.65056618 759.37031673 827.98056618 760.36031673 828.32056618 761.38031673 C828.98056618 761.38031673 829.64056618 761.38031673 830.32056618 761.38031673 C830.65056618 762.37031673 830.98056618 763.36031673 831.32056618 764.38031673 C831.98056618 764.38031673 832.64056618 764.38031673 833.32056618 764.38031673 C833.65056618 765.37031673 833.98056618 766.36031673 834.32056618 767.38031673 C834.98056618 767.38031673 835.64056618 767.38031673 836.32056618 767.38031673 C836.65056618 768.37031673 836.98056618 769.36031673 837.32056618 770.38031673 C839.19564779 772.58889334 839.19564779 772.58889334 841.32056618 774.38031673 C841.98056618 774.38031673 842.64056618 774.38031673 843.32056618 774.38031673 C843.65056618 775.37031673 843.98056618 776.36031673 844.32056618 777.38031673 C844.98056618 777.38031673 845.64056618 777.38031673 846.32056618 777.38031673 C846.65056618 778.37031673 846.98056618 779.36031673 847.32056618 780.38031673 C847.98056618 780.38031673 848.64056618 780.38031673 849.32056618 780.38031673 C849.65056618 781.37031673 849.98056618 782.36031673 850.32056618 783.38031673 C850.98056618 783.38031673 851.64056618 783.38031673 852.32056618 783.38031673 C852.65056618 784.37031673 852.98056618 785.36031673 853.32056618 786.38031673 C855.19564779 788.58889334 855.19564779 788.58889334 857.32056618 790.38031673 C857.98056618 790.38031673 858.64056618 790.38031673 859.32056618 790.38031673 C859.65056618 791.04031673 859.98056618 791.70031673 860.32056618 792.38031673 C860.32056618 609.56031673 860.32056618 426.74031673 860.32056618 238.38031673 C570.58056618 238.38031673 280.84056618 238.38031673 -17.67943382 238.38031673 Z M466.32056618 448.38031673 C464.61234502 449.31802111 462.90402978 450.25555416 461.19556618 451.19281673 C459.90324219 451.92081777 458.61148135 452.64982046 457.32056618 453.38031673 C456.30994118 453.93719173 455.29931618 454.49406673 454.25806618 455.06781673 C453.29900368 455.71750423 453.29900368 455.71750423 452.32056618 456.38031673 C452.32056618 457.04031673 452.32056618 457.70031673 452.32056618 458.38031673 C451.22421852 458.76896908 451.22421852 458.76896908 450.10572243 459.16547298 C440.68542977 463.27446459 432.76139729 472.37413779 425.32056618 479.38031673 C424.61029274 480.03644955 423.9000193 480.69258236 423.16822243 481.36859798 C391.91213612 511.21848 372.70644618 556.80243898 371.20679665 599.62934017 C370.27176797 641.69974993 380.02390136 677.7715951 402.32056618 713.38031673 C403.22742165 714.83437923 403.22742165 714.83437923 404.15259743 716.31781673 C406.11686057 719.43647983 406.11686057 719.43647983 408.32056618 722.38031673 C408.98056618 722.38031673 409.64056618 722.38031673 410.32056618 722.38031673 C410.54486305 722.91141048 410.76915993 723.44250423 411.00025368 723.98969173 C412.76982293 727.19376387 415.07147201 729.86642196 417.44556618 732.63031673 C417.94056618 733.20878353 418.43556618 733.78725033 418.94556618 734.38324642 C433.38326725 751.11190394 451.04441756 763.81616411 470.32056618 774.38031673 C471.23193336 774.91398861 472.14330055 775.44766048 473.08228493 775.99750423 C491.39110465 786.56133744 513.42587444 792.14832264 534.32056618 794.38031673 C535.48974586 794.55562923 536.65892555 794.73094173 537.86353493 794.91156673 C567.78572113 798.64962132 597.48549006 793.17876672 625.32056618 782.38031673 C626.54517555 781.9072308 627.76978493 781.43414486 629.03150368 780.94672298 C636.3343117 777.97240051 642.87751567 774.41658546 649.49634743 770.18500423 C651.6215055 768.82701941 653.72735182 767.57109214 655.94556618 766.38031673 C664.91582842 761.06460577 673.69485535 754.48978022 681.32056618 747.38031673 C681.32056618 746.72031673 681.32056618 746.06031673 681.32056618 745.38031673 C681.85681618 745.17406673 682.39306618 744.96781673 682.94556618 744.75531673 C686.24034626 742.84781247 688.91420246 740.33212289 691.32056618 737.38031673 C691.32056618 736.72031673 691.32056618 736.06031673 691.32056618 735.38031673 C692.31056618 735.05031673 693.30056618 734.72031673 694.32056618 734.38031673 C696.14188738 732.29124072 697.83572865 730.20825834 699.50806618 728.00531673 C699.99782936 727.36755306 700.48759254 726.72978939 700.99219704 726.07269955 C701.98310297 724.7778596 702.97052527 723.48034589 703.95435524 722.18012142 C705.11181205 720.65532306 706.28836696 719.14505101 707.46900368 717.63812923 C716.29680194 706.07191191 723.1437486 692.947149 728.32056618 679.38031673 C728.61600319 678.67044613 728.9114402 677.96057552 729.21582985 677.22919369 C740.1158729 650.86928684 744.32733885 621.73395522 741.32056618 593.38031673 C741.2406443 592.57932552 741.16072243 591.77833431 741.07837868 590.95307064 C738.14442698 563.31946874 729.18139914 533.65572628 712.52271461 511.09735775 C711.33143923 509.39584683 710.33164781 507.66895886 709.34009743 505.84516048 C707.29501044 502.17015455 704.77045453 499.09948937 702.00806618 495.94281673 C701.52023659 495.37716 701.032407 494.81150326 700.52979469 494.22870541 C699.56345875 493.10976484 698.5947111 491.99290149 697.62330055 490.87836361 C696.53922228 489.63175486 695.4673752 488.37452249 694.39869118 487.11469173 C685.68588761 476.90826469 675.98166863 468.44999252 665.32056618 460.38031673 C664.56517555 459.78090267 663.80978493 459.18148861 663.03150368 458.56391048 C661.39317336 457.19067772 661.39317336 457.19067772 659.32056618 457.38031673 C659.32056618 456.72031673 659.32056618 456.06031673 659.32056618 455.38031673 C656.33013758 453.69480243 653.32970634 452.0320938 650.32056618 450.38031673 C649.40331764 449.87371517 649.40331764 449.87371517 648.46753883 449.35687923 C625.23370069 436.57571882 600.99458171 428.21599859 574.50806618 425.69281673 C573.25058571 425.56326595 571.99310524 425.43371517 570.6975193 425.30023861 C534.29393473 421.67713304 497.97538565 430.50155425 466.32056618 448.38031673 Z M718.32056618 759.38031673 C717.15817966 760.67817954 716.01342358 761.99196515 714.88306618 763.31781673 C711.39808875 767.40260509 707.62632262 770.59521497 703.38306618 773.88031673 C702.02453293 775.44397742 702.02453293 775.44397742 702.63306618 778.06781673 C702.85994118 778.83094173 703.08681618 779.59406673 703.32056618 780.38031673 C703.98056618 780.38031673 704.64056618 780.38031673 705.32056618 780.38031673 C705.65056618 781.37031673 705.98056618 782.36031673 706.32056618 783.38031673 C707.98271885 784.71927306 709.65020225 786.05161816 711.32056618 787.38031673 C712.23864193 788.44486611 713.1346513 789.52882913 714.00806618 790.63031673 C714.77119118 791.53781673 715.53431618 792.44531673 716.32056618 793.38031673 C716.98056618 793.38031673 717.64056618 793.38031673 718.32056618 793.38031673 C718.65056618 794.37031673 718.98056618 795.36031673 719.32056618 796.38031673 C719.98056618 796.38031673 720.64056618 796.38031673 721.32056618 796.38031673 C721.65056618 797.37031673 721.98056618 798.36031673 722.32056618 799.38031673 C723.95317332 800.7551438 725.6228168 802.0867934 727.32056618 803.38031673 C728.33795348 804.36262172 729.34652735 805.3550127 730.32056618 806.38031673 C731.80556618 805.88531673 731.80556618 805.88531673 733.32056618 805.38031673 C733.32056618 804.72031673 733.32056618 804.06031673 733.32056618 803.38031673 C734.80556618 802.88531673 734.80556618 802.88531673 736.32056618 802.38031673 C737.66479957 800.72242888 738.99675101 799.05455356 740.32056618 797.38031673 C741.96696582 796.02203703 743.63352425 794.68777423 745.32056618 793.38031673 C747.59248034 791.35990925 747.59248034 791.35990925 749.32056618 789.38031673 C749.32056618 788.72031673 749.32056618 788.06031673 749.32056618 787.38031673 C750.31056618 787.05031673 751.30056618 786.72031673 752.32056618 786.38031673 C751.45283901 781.72999279 748.6276238 779.28978999 745.35181618 776.08344173 C744.45855629 775.1929916 744.45855629 775.1929916 743.54725075 774.28455257 C742.28980049 773.03381586 741.02876191 771.78667781 739.76441383 770.54291439 C737.82084493 768.63059101 735.88823545 766.70771648 733.95728493 764.78266048 C732.73525137 763.56979318 731.51261575 762.35753212 730.28931618 761.14594173 C729.41587563 760.278876 729.41587563 760.278876 728.52478981 759.39429379 C723.60867666 754.56609343 723.5467317 754.83582498 718.32056618 759.38031673 Z M802.32056618 786.38031673 C779.55056618 809.15031673 756.78056618 831.92031673 733.32056618 855.38031673 C735.26291208 859.26500854 736.9594109 861.27261352 739.98697853 864.3074255 C740.46490203 864.78917455 740.94282553 865.2709236 741.43523157 865.7672711 C743.03632044 867.3786702 744.64445909 868.98284012 746.25269508 870.58710384 C747.402965 871.74172147 748.55281637 872.8967562 749.70228004 874.05217648 C752.82591304 877.18920824 755.95593093 880.31979475 759.08753443 883.44886756 C761.70341757 886.06368101 764.31631795 888.68146501 766.92926919 891.29920775 C773.09722568 897.47826371 779.27050096 903.65197045 785.44703102 909.82245541 C791.81088335 916.18027468 798.16552058 922.54719826 804.51568854 928.91868299 C809.97280548 934.39344172 815.43574009 939.8623476 820.90331018 945.32666689 C824.16649187 948.58803878 827.42742796 951.85157734 830.68273735 955.1208086 C833.7474519 958.19813774 836.81939523 961.26806627 839.89692116 964.33258152 C841.02174396 965.45504643 842.14404474 966.58004559 843.26354027 967.70782375 C848.89407347 973.37698098 854.26758926 978.51272471 861.32056618 982.38031673 C862.33892555 982.94234798 863.35728493 983.50437923 864.40650368 984.08344173 C876.18071018 989.32343712 888.69992265 989.39977424 900.81275368 985.38812923 C908.54040575 982.28262419 915.34142114 978.18073733 921.32056618 972.38031673 C921.82716774 971.91109798 922.3337693 971.44187923 922.85572243 970.95844173 C932.78956981 960.25637682 934.94203493 945.29087271 934.44800758 931.40961361 C933.77232463 920.65046285 927.24203824 911.29666158 920.32056618 903.38031673 C919.66056618 903.38031673 919.00056618 903.38031673 918.32056618 903.38031673 C917.99056618 902.39031673 917.66056618 901.40031673 917.32056618 900.38031673 C916.66056618 900.38031673 916.00056618 900.38031673 915.32056618 900.38031673 C914.99056618 899.39031673 914.66056618 898.40031673 914.32056618 897.38031673 C913.66056618 897.38031673 913.00056618 897.38031673 912.32056618 897.38031673 C911.99056618 896.39031673 911.66056618 895.40031673 911.32056618 894.38031673 C909.44548456 892.17174013 909.44548456 892.17174013 907.32056618 890.38031673 C906.66056618 890.38031673 906.00056618 890.38031673 905.32056618 890.38031673 C904.99056618 889.39031673 904.66056618 888.40031673 904.32056618 887.38031673 C903.66056618 887.38031673 903.00056618 887.38031673 902.32056618 887.38031673 C901.99056618 886.39031673 901.66056618 885.40031673 901.32056618 884.38031673 C900.66056618 884.38031673 900.00056618 884.38031673 899.32056618 884.38031673 C898.99056618 883.39031673 898.66056618 882.40031673 898.32056618 881.38031673 C897.66056618 881.38031673 897.00056618 881.38031673 896.32056618 881.38031673 C895.99056618 880.39031673 895.66056618 879.40031673 895.32056618 878.38031673 C893.44548456 876.17174013 893.44548456 876.17174013 891.32056618 874.38031673 C890.66056618 874.38031673 890.00056618 874.38031673 889.32056618 874.38031673 C888.99056618 873.39031673 888.66056618 872.40031673 888.32056618 871.38031673 C887.66056618 871.38031673 887.00056618 871.38031673 886.32056618 871.38031673 C885.99056618 870.39031673 885.66056618 869.40031673 885.32056618 868.38031673 C884.66056618 868.38031673 884.00056618 868.38031673 883.32056618 868.38031673 C882.99056618 867.39031673 882.66056618 866.40031673 882.32056618 865.38031673 C881.66056618 865.38031673 881.00056618 865.38031673 880.32056618 865.38031673 C879.99056618 864.39031673 879.66056618 863.40031673 879.32056618 862.38031673 C877.44548456 860.17174013 877.44548456 860.17174013 875.32056618 858.38031673 C874.66056618 858.38031673 874.00056618 858.38031673 873.32056618 858.38031673 C872.99056618 857.39031673 872.66056618 856.40031673 872.32056618 855.38031673 C871.66056618 855.38031673 871.00056618 855.38031673 870.32056618 855.38031673 C869.99056618 854.39031673 869.66056618 853.40031673 869.32056618 852.38031673 C868.66056618 852.38031673 868.00056618 852.38031673 867.32056618 852.38031673 C866.99056618 851.39031673 866.66056618 850.40031673 866.32056618 849.38031673 C865.66056618 849.38031673 865.00056618 849.38031673 864.32056618 849.38031673 C863.99056618 848.39031673 863.66056618 847.40031673 863.32056618 846.38031673 C861.44548456 844.17174013 861.44548456 844.17174013 859.32056618 842.38031673 C858.66056618 842.38031673 858.00056618 842.38031673 857.32056618 842.38031673 C856.99056618 841.39031673 856.66056618 840.40031673 856.32056618 839.38031673 C855.66056618 839.38031673 855.00056618 839.38031673 854.32056618 839.38031673 C853.99056618 838.39031673 853.66056618 837.40031673 853.32056618 836.38031673 C852.66056618 836.38031673 852.00056618 836.38031673 851.32056618 836.38031673 C850.99056618 835.39031673 850.66056618 834.40031673 850.32056618 833.38031673 C849.66056618 833.38031673 849.00056618 833.38031673 848.32056618 833.38031673 C847.99056618 832.39031673 847.66056618 831.40031673 847.32056618 830.38031673 C845.44548456 828.17174013 845.44548456 828.17174013 843.32056618 826.38031673 C842.66056618 826.38031673 842.00056618 826.38031673 841.32056618 826.38031673 C840.99056618 825.39031673 840.66056618 824.40031673 840.32056618 823.38031673 C839.66056618 823.38031673 839.00056618 823.38031673 838.32056618 823.38031673 C837.99056618 822.39031673 837.66056618 821.40031673 837.32056618 820.38031673 C836.66056618 820.38031673 836.00056618 820.38031673 835.32056618 820.38031673 C834.99056618 819.39031673 834.66056618 818.40031673 834.32056618 817.38031673 C833.66056618 817.38031673 833.00056618 817.38031673 832.32056618 817.38031673 C831.82556618 815.89531673 831.82556618 815.89531673 831.32056618 814.38031673 C829.44548456 812.17174013 829.44548456 812.17174013 827.32056618 810.38031673 C826.66056618 810.38031673 826.00056618 810.38031673 825.32056618 810.38031673 C824.82556618 808.89531673 824.82556618 808.89531673 824.32056618 807.38031673 C823.66056618 807.38031673 823.00056618 807.38031673 822.32056618 807.38031673 C821.82556618 805.89531673 821.82556618 805.89531673 821.32056618 804.38031673 C820.66056618 804.38031673 820.00056618 804.38031673 819.32056618 804.38031673 C818.82556618 802.89531673 818.82556618 802.89531673 818.32056618 801.38031673 C817.66056618 801.38031673 817.00056618 801.38031673 816.32056618 801.38031673 C815.82556618 799.89531673 815.82556618 799.89531673 815.32056618 798.38031673 C813.44548456 796.17174013 813.44548456 796.17174013 811.32056618 794.38031673 C810.66056618 794.38031673 810.00056618 794.38031673 809.32056618 794.38031673 C808.82556618 792.89531673 808.82556618 792.89531673 808.32056618 791.38031673 C807.66056618 791.38031673 807.00056618 791.38031673 806.32056618 791.38031673 C805.82556618 789.89531673 805.82556618 789.89531673 805.32056618 788.38031673 C804.66056618 788.38031673 804.00056618 788.38031673 803.32056618 788.38031673 C802.82556618 787.39031673 802.82556618 787.39031673 802.32056618 786.38031673 Z " fill="#FC4F00" transform="translate(53.679433822631836,-0.38031673431396484)"/>
<path d="M0 0 C0.94572055 -0.00526326 1.8914411 -0.01052652 2.86581984 -0.01594928 C4.41500097 -0.00935455 4.41500097 -0.00935455 5.99547869 -0.0026266 C7.10195835 -0.00583308 8.20843801 -0.00903955 9.34844735 -0.0123432 C13.08240326 -0.02069132 16.81620077 -0.01470205 20.55015951 -0.00884742 C23.24369833 -0.0118659 25.93722557 -0.01567265 28.63076079 -0.02043998 C34.50060994 -0.02921446 40.37042422 -0.03050968 46.2402783 -0.02693671 C54.96888102 -0.0216376 63.69744987 -0.027717 72.4260489 -0.03601964 C88.92066174 -0.05127743 105.41525924 -0.0529629 121.90987765 -0.05049662 C134.64474098 -0.04866552 147.37959926 -0.0504197 160.11446196 -0.05472106 C161.94264489 -0.05532345 163.77082782 -0.05592465 165.59901075 -0.05652466 C168.35374242 -0.05743189 171.10847409 -0.05834056 173.86320575 -0.05925701 C199.48231172 -0.06768921 225.10141578 -0.07202037 250.72052294 -0.06785029 C252.16986248 -0.06761573 252.16986248 -0.06761573 253.6484816 -0.06737643 C258.54594638 -0.06657062 263.44341115 -0.06572484 268.34087592 -0.06486312 C269.79991199 -0.06460649 269.79991199 -0.06460649 271.28842355 -0.06434468 C273.25544105 -0.06399802 275.22245856 -0.06364949 277.18947606 -0.06329909 C307.80272166 -0.05794075 338.41593846 -0.06587441 369.02917868 -0.08433264 C403.405842 -0.10503565 437.78248749 -0.11577865 472.1591574 -0.11175716 C475.8225833 -0.1113618 479.4860092 -0.11100025 483.1494351 -0.11065978 C484.50252544 -0.11052368 484.50252544 -0.11052368 485.88295093 -0.11038483 C499.51676303 -0.10921752 513.15055715 -0.1158773 526.78436476 -0.1264717 C542.28435215 -0.1385038 557.78429985 -0.14010565 573.2842878 -0.12768153 C581.96359976 -0.12103644 590.64281693 -0.12272185 599.32212137 -0.13627005 C605.11499091 -0.14448561 610.9077891 -0.14185487 616.70065278 -0.13029478 C620.00432774 -0.12400947 623.30777922 -0.12415144 626.61145055 -0.13415811 C630.16660687 -0.14418326 633.72125754 -0.13591117 637.276393 -0.12288111 C638.30683925 -0.13019046 639.3372855 -0.13749981 640.3989574 -0.14503065 C647.3280787 -0.09201983 651.63097464 0.97577197 656.94885641 5.689349 C660.22922835 9.42532815 661.44394541 12.03359714 661.4797402 17.00691491 C661.49116049 17.96006585 661.50258078 18.91321679 661.51434714 19.8952511 C661.51658285 20.93428582 661.51881857 21.97332055 661.52112204 23.04384118 C661.53105185 24.14348199 661.54098166 25.2431228 661.55121237 26.37608606 C661.58044182 30.01699077 661.5940575 33.65772118 661.60510641 37.298724 C661.61661096 39.82975025 661.62812641 42.36077645 661.63965231 44.89180261 C661.65798286 49.52274435 661.67058468 54.15363385 661.67664582 58.7846027 C661.68559922 65.58685364 661.72066214 72.38829917 661.77864701 79.19030529 C661.82721122 85.09347928 661.84254031 90.99645423 661.84599692 96.89983636 C661.85204453 99.40524695 661.86808349 101.91065437 661.89436728 104.41593438 C661.92855566 107.9253327 661.9247136 111.43278048 661.91174704 114.94227868 C661.9301766 115.97321649 661.94860617 117.00415429 661.96759421 118.06633264 C661.88594601 125.13598902 660.15110391 129.18642883 655.19885641 134.251849 C650.93138744 137.92661395 645.7018952 138.63411508 640.19885641 138.251849 C634.93898628 136.6866802 630.51424967 134.49969044 627.63635641 129.689349 C615.61601496 100.94505423 625.19885641 67.40827835 625.19885641 36.251849 C424.88885641 36.251849 224.57885641 36.251849 18.19885641 36.251849 C18.19885641 69.251849 18.19885641 102.251849 18.19885641 136.251849 C34.29924704 136.22864587 50.39963766 136.20544275 66.98791891 136.1815365 C77.16890913 136.1713212 87.34989566 136.16161091 97.53088766 136.15419275 C102.87805575 136.15026541 108.22522373 136.14623605 113.57239157 136.14198571 C114.57765999 136.14119447 114.57765999 136.14119447 115.60323685 136.14038724 C126.4222862 136.131689 137.24131429 136.11592155 148.06035103 136.0975434 C159.16387963 136.07883932 170.26739955 136.06788089 181.37094349 136.06367201 C187.60751332 136.06106233 193.84403495 136.05491918 200.08058935 136.04038888 C205.94917321 136.02682652 211.81768895 136.02262365 217.68628699 136.02563363 C219.84137218 136.02508287 221.99645963 136.02109745 224.15153128 136.01343805 C227.09224582 136.00349797 230.03270264 136.0058768 232.97342306 136.01133996 C233.82751843 136.00551428 234.6816138 135.9996886 235.56159085 135.99368638 C240.17266357 136.01686375 243.85816338 136.48762263 248.19885641 138.251849 C248.19885641 138.911849 248.19885641 139.571849 248.19885641 140.251849 C249.18885641 140.581849 250.17885641 140.911849 251.19885641 141.251849 C254.38850573 145.28206473 254.63126898 148.63753011 254.63635641 153.689349 C254.66536032 155.6055404 254.66536032 155.6055404 254.69495016 157.56044275 C253.963038 163.0065608 251.81995723 165.86825891 247.68983752 169.3932665 C242.99548875 171.89251648 239.23404518 171.81174602 233.99550253 171.76651269 C232.9703433 171.77345822 231.94518407 171.78040375 230.88895941 171.78755975 C227.45500889 171.80585092 224.02174756 171.79555912 220.58777243 171.78529626 C218.12536482 171.79235362 215.66296155 171.80109786 213.2005654 171.81140405 C207.20714723 171.83158874 201.21399961 171.83292037 195.2205751 171.8247785 C190.34852439 171.81847516 185.47652903 171.81961859 180.6044789 171.82605058 C179.91069722 171.82695223 179.21691555 171.82785389 178.50211019 171.82878287 C177.0926325 171.8306341 175.68315483 171.83249666 174.27367716 171.83437043 C161.06012634 171.8509447 147.84668233 171.842233 134.63313793 171.82538485 C122.54898357 171.81068922 110.46507787 171.82531488 98.38095552 171.85415501 C85.96751841 171.88356005 73.55419602 171.89451802 61.14072561 171.88497281 C59.73616699 171.88395028 58.33160835 171.88295567 56.9270497 171.8819893 C55.89049455 171.88127472 55.89049455 171.88127472 54.83299889 171.88054569 C49.96853891 171.87838296 45.10418773 171.88817813 40.23975188 171.90276033 C33.68891161 171.92212422 27.1384592 171.91518508 20.58761221 171.89056093 C18.18300171 171.88554616 15.77835609 171.88905992 13.37377363 171.90170938 C10.09171321 171.91760937 6.81118191 171.90271584 3.52919394 171.88003808 C2.57704852 171.89187381 1.62490311 171.90370954 0.64390481 171.91590393 C-5.73338566 171.82634743 -9.03947215 170.56541208 -13.80114359 166.251849 C-13.80114359 165.591849 -13.80114359 164.931849 -13.80114359 164.251849 C-14.46114359 164.251849 -15.12114359 164.251849 -15.80114359 164.251849 C-17.3861178 160.04110047 -18.05310786 156.55757488 -18.06184 152.06593591 C-18.07246721 150.23649186 -18.07246721 150.23649186 -18.08330911 148.37008935 C-18.08101568 147.0318474 -18.07850603 145.69360581 -18.07580179 144.35536462 C-18.08015246 142.93565873 -18.0853368 141.5159552 -18.09128946 140.09625512 C-18.10465083 136.25126228 -18.10526145 132.4063679 -18.10272616 128.56135637 C-18.10165475 125.34808341 -18.10654404 122.13483024 -18.11133158 118.92156154 C-18.12241633 111.34039874 -18.12286964 103.7592855 -18.11681741 96.17811853 C-18.11077431 88.36298629 -18.12309949 80.54803394 -18.14438748 72.73293239 C-18.16200984 66.01598875 -18.16800394 59.29910235 -18.16474974 52.58213645 C-18.16293814 48.5734567 -18.16556096 44.56490535 -18.17946428 40.55624658 C-18.1920488 36.78705086 -18.19009281 33.01813557 -18.17705339 29.2489441 C-18.1746896 27.86788412 -18.17741526 26.48680436 -18.18567652 25.10576707 C-18.19616111 23.21645804 -18.18623114 21.32706896 -18.17536539 19.43776208 C-18.17553313 18.38180589 -18.17570087 17.3258497 -18.1758737 16.23789483 C-17.41617492 10.18421694 -14.3462879 6.14768698 -9.80114359 2.251849 C-6.4189419 0.64245793 -3.73220262 0.0016498 0 0 Z " fill="#FC4F00" transform="translate(152.8011435866356,303.7481510043144)"/>
<path d="M0 0 C0.70654724 0.00027191 1.41309448 0.00054382 2.14105225 0.00082397 C12.31450402 0.01882983 22.22518174 0.29893827 32.25 2.1875 C33.94382812 2.47947266 33.94382812 2.47947266 35.671875 2.77734375 C53.35732651 6.15838595 69.23371282 13.16268766 85.25 21.1875 C85.25 21.8475 85.25 22.5075 85.25 23.1875 C86.07757812 23.33638672 86.07757812 23.33638672 86.921875 23.48828125 C94.3308128 25.71344881 102.57155763 31.93209345 108.25 37.1875 C108.25 37.8475 108.25 38.5075 108.25 39.1875 C108.83136719 39.45175781 109.41273438 39.71601563 110.01171875 39.98828125 C123.94957606 47.45585925 134.64663243 63.48034694 143.25 76.1875 C143.75144531 76.89132812 144.25289062 77.59515625 144.76953125 78.3203125 C152.03127365 88.70517895 157.00570902 100.30051723 161.25 112.1875 C161.59804688 113.12722656 161.94609375 114.06695313 162.3046875 115.03515625 C164.42066483 120.9976195 166.02372362 127.0276125 167.4375 133.1875 C167.60451416 133.89865967 167.77152832 134.60981934 167.94360352 135.3425293 C170.44629128 146.72505724 170.45586327 158.33463498 170.4375 169.9375 C170.43689575 170.64471191 170.4362915 171.35192383 170.43566895 172.08056641 C170.39863696 188.04586661 168.50876352 202.79938963 164.25 218.1875 C163.87875 219.55841797 163.87875 219.55841797 163.5 220.95703125 C162.80811204 223.39043267 162.04998983 225.78753052 161.25 228.1875 C160.94964844 229.10917969 160.64929688 230.03085937 160.33984375 230.98046875 C154.64441546 247.086895 145.47190737 261.60496555 135.25 275.1875 C134.59 276.1775 133.93 277.1675 133.25 278.1875 C132.59 278.1875 131.93 278.1875 131.25 278.1875 C131.02570313 278.72761719 130.80140625 279.26773437 130.5703125 279.82421875 C128.83237686 282.93502072 126.53965717 285.41009534 124.125 288 C123.63652588 288.52754883 123.14805176 289.05509766 122.64477539 289.59863281 C118.78851507 293.71416403 114.85915782 297.90679619 110.25 301.1875 C109.59 301.1875 108.93 301.1875 108.25 301.1875 C108.25 301.8475 108.25 302.5075 108.25 303.1875 C87.7010774 320.08129971 61.43218049 331.83912541 35.5625 337.4375 C34.81508545 337.60080811 34.0676709 337.76411621 33.29760742 337.93237305 C-8.32069084 346.42064272 -48.64842625 336.82273659 -85.75 318.1875 C-85.75 317.5275 -85.75 316.8675 -85.75 316.1875 C-86.56984375 316.04441406 -86.56984375 316.04441406 -87.40625 315.8984375 C-90.39241521 314.99263405 -92.63697757 313.51383603 -95.25 311.8125 C-96.1884375 311.20664062 -97.126875 310.60078125 -98.09375 309.9765625 C-102.95922677 306.69952079 -102.95922677 306.69952079 -104.75 305.1875 C-104.75 304.5275 -104.75 303.8675 -104.75 303.1875 C-105.74 303.1875 -106.73 303.1875 -107.75 303.1875 C-109.46108689 301.56647032 -111.12253306 299.89246537 -112.75 298.1875 C-113.53375 297.589375 -114.3175 296.99125 -115.125 296.375 C-118.09801711 293.89748574 -120.46642059 291.16008457 -122.96875 288.21875 C-124.63450706 286.31920248 -126.36794664 284.56339097 -128.1875 282.8125 C-130.75 280.1875 -130.75 280.1875 -130.75 278.1875 C-131.41 278.1875 -132.07 278.1875 -132.75 278.1875 C-134.59055972 275.76349488 -136.3103441 273.33896467 -138 270.8125 C-138.73827026 269.72062378 -138.73827026 269.72062378 -139.49145508 268.60668945 C-149.75 253.33976971 -149.75 253.33976971 -149.75 249.1875 C-150.41 249.1875 -151.07 249.1875 -151.75 249.1875 C-169.75987768 209.70430662 -175.44804196 167.6369878 -164.75 125.1875 C-164.52441406 124.28515625 -164.29882812 123.3828125 -164.06640625 122.453125 C-157.56654439 99.03747358 -145.53259698 76.65510311 -129.75 58.1875 C-129.09 58.1875 -128.43 58.1875 -127.75 58.1875 C-127.42 57.1975 -127.09 56.2075 -126.75 55.1875 C-126.09 55.1875 -125.43 55.1875 -124.75 55.1875 C-124.54375 54.65125 -124.3375 54.115 -124.125 53.5625 C-122.21749574 50.26771991 -119.70180616 47.59386372 -116.75 45.1875 C-116.09 45.1875 -115.43 45.1875 -114.75 45.1875 C-114.42 44.1975 -114.09 43.2075 -113.75 42.1875 C-113.09 42.1875 -112.43 42.1875 -111.75 42.1875 C-111.75 41.5275 -111.75 40.8675 -111.75 40.1875 C-109.3934292 38.22117006 -107.03176919 36.37826217 -104.5625 34.5625 C-103.82926514 34.02125488 -103.09603027 33.48000977 -102.34057617 32.92236328 C-86.78277772 21.55872955 -69.41156642 11.52611922 -50.5625 6.90625 C-47.77314515 6.26225969 -47.77314515 6.26225969 -45.31640625 5.19140625 C-42.14818541 3.95208699 -39.02250604 3.29480668 -35.6875 2.625 C-34.47964844 2.37621094 -33.27179688 2.12742187 -32.02734375 1.87109375 C-21.44370077 0.02540655 -10.71190011 -0.01554452 0 0 Z M-84.6875 65.3125 C-85.23172607 65.72032715 -85.77595215 66.1281543 -86.33666992 66.54833984 C-89.67899907 69.13026696 -92.14327398 71.89091315 -94.75 75.1875 C-95.53761719 75.79851562 -96.32523438 76.40953125 -97.13671875 77.0390625 C-100.5345746 79.83251649 -102.95724782 83.03903424 -105.5625 86.5625 C-106.08513428 87.2635083 -106.60776855 87.9645166 -107.14624023 88.68676758 C-111.93781827 95.2299786 -115.8865878 102.06578835 -119.75 109.1875 C-120.25402344 109.99832031 -120.75804687 110.80914063 -121.27734375 111.64453125 C-137.71980402 140.03721463 -137.25018557 176.81388979 -129.15942383 207.61279297 C-123.24500198 228.78860028 -110.7603312 248.33356491 -95.75 264.1875 C-95.20859375 264.77660156 -94.6671875 265.36570312 -94.109375 265.97265625 C-92.8053079 267.40961878 -92.8053079 267.40961878 -90.75 267.1875 C-90.42 268.1775 -90.09 269.1675 -89.75 270.1875 C-87.34543062 272.50708195 -87.34543062 272.50708195 -84.4375 274.8125 C-83.47199219 275.60914063 -82.50648438 276.40578125 -81.51171875 277.2265625 C-79.0845048 278.9499874 -77.64500616 279.78866305 -74.75 280.1875 C-74.75 280.8475 -74.75 281.5075 -74.75 282.1875 C-71.77704683 283.90520628 -68.7699162 285.55383922 -65.75 287.1875 C-65.17620605 287.49816406 -64.60241211 287.80882812 -64.01123047 288.12890625 C-36.06119885 303.10607055 -5.88132229 307.88127927 25.25 302.1875 C26.5181958 301.95981934 26.5181958 301.95981934 27.81201172 301.72753906 C33.16126945 300.71963382 38.25258134 299.40138063 43.375 297.5625 C44.09582764 297.30452637 44.81665527 297.04655273 45.55932617 296.78076172 C58.07647816 292.15891821 69.38129796 285.89862805 80.25 278.1875 C80.94867187 277.713125 81.64734375 277.23875 82.3671875 276.75 C86.06935985 274.20773572 89.15570366 271.43273762 92.25 268.1875 C92.83394531 267.62417969 93.41789063 267.06085938 94.01953125 266.48046875 C104.89689511 255.94637476 112.71222083 244.21869691 120.25 231.1875 C120.77722656 230.29289063 121.30445313 229.39828125 121.84765625 228.4765625 C137.48944551 199.80833137 138.36651609 164.34934229 130.26953125 133.4453125 C129.35908333 130.64336258 128.34044256 127.92374063 127.25 125.1875 C126.89292969 124.16269531 126.53585937 123.13789062 126.16796875 122.08203125 C122.10396739 110.70554582 116.00747522 98.52611666 108.25 89.1875 C107.59 89.1875 106.93 89.1875 106.25 89.1875 C106.25 88.1975 106.25 87.2075 106.25 86.1875 C105.13358117 84.97575129 104.00182535 83.77493094 102.80126953 82.64648438 C101.11243854 81.05812208 99.50922592 79.40549601 97.90234375 77.734375 C87.98321517 67.55386578 78.01982165 58.67931192 65.25 52.1875 C64.12464844 51.57132812 62.99929688 50.95515625 61.83984375 50.3203125 C13.9805903 24.59389055 -42.31151485 33.30668388 -84.6875 65.3125 Z " fill="#FC4F00" transform="translate(609.75,439.8125)"/>
<path d="M0 0 C0.70917731 -0.00436032 1.41835463 -0.00872064 2.14902216 -0.0132131 C4.5255813 -0.0241622 6.90155941 -0.01374925 9.27811432 -0.00342751 C10.99906127 -0.00688421 12.720006 -0.01164886 14.4409461 -0.01760924 C19.17032278 -0.03014715 23.89951814 -0.02393615 28.62889552 -0.01465058 C33.72916955 -0.00787187 38.82941207 -0.01833547 43.92967987 -0.02659035 C53.92124229 -0.03994245 63.91273716 -0.03704336 73.90430224 -0.02835242 C82.02339332 -0.0215821 90.14246544 -0.02065634 98.26155853 -0.02392387 C99.41633889 -0.02438357 100.57111925 -0.02484327 101.76089296 -0.0253169 C104.10667837 -0.02627606 106.45246378 -0.0272487 108.79824919 -0.02823468 C130.80374592 -0.0367929 152.80920519 -0.02694765 174.81469578 -0.01083358 C193.70360308 0.00256999 212.59245508 0.00024202 231.48136139 -0.01358986 C253.40717623 -0.02963803 275.33295821 -0.03596888 297.2587781 -0.02675307 C299.59601879 -0.0257974 301.93325948 -0.02485429 304.27050018 -0.02392387 C305.99552986 -0.02322963 305.99552986 -0.02322963 307.75540861 -0.02252137 C315.86639401 -0.01992919 323.97735859 -0.02430738 332.08834076 -0.03136253 C341.97055482 -0.03976925 351.85269737 -0.03751483 361.73490322 -0.0215203 C366.77864193 -0.01362645 371.82226135 -0.01056498 376.86599922 -0.02046776 C381.48111219 -0.02939206 386.09599502 -0.02451922 390.71108705 -0.0085351 C392.3826027 -0.00517769 394.0541377 -0.00690287 395.72564095 -0.01416247 C397.99472471 -0.0232632 400.26301651 -0.01395103 402.53205872 0 C403.79327498 0.00048706 405.05449124 0.00097411 406.35392618 0.00147593 C411.68331346 0.58882708 415.63903977 2.65480268 419.07852936 6.75252342 C419.56966217 7.3171328 420.06079498 7.88174217 420.56681061 8.46346092 C423.25208344 12.74940127 422.89672834 17.73144908 422.91129303 22.64290428 C422.91633095 23.71218918 422.91633095 23.71218918 422.92147064 24.80307579 C422.93093633 27.14952418 422.93292143 29.4959009 422.93399811 31.84236717 C422.93721332 33.4799458 422.94057759 35.11752413 422.94408417 36.75510216 C422.95006417 40.18385547 422.95192519 43.61258362 422.95133209 47.04134178 C422.95123044 51.42715799 422.96489094 55.81281242 422.9821043 60.19859028 C422.99324062 63.57956237 422.99525081 66.96049552 422.99472237 70.34148407 C422.9958997 71.95815209 423.0003076 73.57482121 423.00805473 75.1914711 C423.01788934 77.45534444 423.01496324 79.71886866 423.00894928 81.98274803 C423.0103743 83.26894539 423.01179932 84.55514275 423.01326752 85.88031578 C422.59438571 91.80543941 420.98411283 96.15943995 416.76602936 100.37752342 C409.12648197 105.57569337 401.04778323 104.94052493 392.15424347 104.89218712 C390.4467925 104.89751496 388.73934623 104.90458202 387.03190887 104.91323417 C382.34893721 104.931857 377.66628188 104.92555773 372.98329711 104.91508114 C367.92931983 104.9080881 362.87540746 104.92408793 357.82144928 104.93707848 C347.92372434 104.95872234 338.02611435 104.9585905 328.12837352 104.95045293 C320.08325299 104.94415315 312.03816598 104.94528978 303.99304581 104.95172501 C302.8480174 104.95262666 301.702989 104.95352832 300.52326276 104.95445729 C298.19713434 104.9563085 295.87100592 104.95817106 293.54487751 104.96004485 C271.73047652 104.97662486 249.9161402 104.9679026 228.10174309 104.95105927 C208.14678351 104.93636417 188.19197452 104.95098775 168.23703434 104.97982944 C147.74507147 105.00922662 127.2531781 105.02019464 106.76119506 105.01064724 C104.44301153 105.00962469 102.12482799 105.00863008 99.80664444 105.00766373 C98.0957825 105.00694914 98.0957825 105.00694914 96.35035769 105.00622012 C88.31685162 105.00405631 80.28341137 105.01385841 72.24991989 105.02843475 C62.45676142 105.04595605 52.66379491 105.04584362 42.87064399 105.0230831 C37.8749246 105.01193883 32.87954345 105.00878274 27.88383865 105.0273838 C23.30793095 105.0442024 18.7326561 105.03781879 14.15678929 105.01316702 C12.50410511 105.00828784 10.85136975 105.01178822 9.19872846 105.02465446 C0.26806749 105.08914805 -7.75742481 104.98047389 -15.23397064 99.37752342 C-21.36514733 92.6888387 -19.77241426 82.19235518 -19.69490814 73.70955467 C-19.69252066 71.98418885 -19.69161904 70.25882039 -19.69213104 68.53345299 C-19.6890138 64.92995832 -19.67252785 61.32686455 -19.64559174 57.72347069 C-19.61153672 53.11003628 -19.60396601 48.49703979 -19.6054821 43.88349438 C-19.60493787 40.32581992 -19.59396337 36.76824073 -19.57947922 33.21059799 C-19.57312768 31.50938385 -19.56917618 29.80815895 -19.5676918 28.10693359 C-19.56334558 25.73055366 -19.54581881 23.3546341 -19.52449799 20.9783535 C-19.52540436 20.27954063 -19.52631073 19.58072777 -19.52724457 18.86073875 C-19.44201893 12.35023491 -17.70885822 8.10101587 -13.23397064 3.37752342 C-8.67543377 0.62249332 -5.29383701 0.00204438 0 0 Z M15.76602936 36.37752342 C15.76602936 46.93752342 15.76602936 57.49752342 15.76602936 68.37752342 C138.19602936 68.37752342 260.62602936 68.37752342 386.76602936 68.37752342 C386.76602936 57.81752342 386.76602936 47.25752342 386.76602936 36.37752342 C264.33602936 36.37752342 141.90602936 36.37752342 15.76602936 36.37752342 Z " fill="#FC4F00" transform="translate(459.23397064208984,66.62247657775879)"/>
<path d="M0 0 C10.02718595 8.05677823 15.04485399 19.24119949 18.0390625 31.5625 C18.27439798 34.30169551 18.42038305 36.89009789 18.4140625 39.625 C18.41245117 40.36089355 18.41083984 41.09678711 18.40917969 41.85498047 C18.19065694 51.79776525 15.58813765 61.23888727 10.0390625 69.5625 C9.3790625 69.5625 8.7190625 69.5625 8.0390625 69.5625 C8.0390625 70.5525 8.0390625 71.5425 8.0390625 72.5625 C7.3790625 72.5625 6.7190625 72.5625 6.0390625 72.5625 C5.6678125 73.42875 5.6678125 73.42875 5.2890625 74.3125 C3.85606262 76.89189979 2.25481574 78.62371592 0.0390625 80.5625 C-0.6209375 80.5625 -1.2809375 80.5625 -1.9609375 80.5625 C-1.9609375 81.2225 -1.9609375 81.8825 -1.9609375 82.5625 C-2.9509375 82.5625 -3.9409375 82.5625 -4.9609375 82.5625 C-4.9609375 83.2225 -4.9609375 83.8825 -4.9609375 84.5625 C-18.5631973 92.17976549 -32.87137724 94.8621576 -48.0859375 91 C-57.82442355 87.89592588 -67.69297789 82.92713624 -73.9609375 74.5625 C-73.9609375 73.9025 -73.9609375 73.2425 -73.9609375 72.5625 C-74.6209375 72.5625 -75.2809375 72.5625 -75.9609375 72.5625 C-84.63306262 56.12579773 -88.939639 42.56856242 -84.0703125 23.734375 C-82.13089785 18.18928803 -79.25769444 13.40059785 -75.9609375 8.5625 C-75.50976562 7.89476563 -75.05859375 7.22703125 -74.59375 6.5390625 C-67.68426913 -2.49641248 -55.85992235 -8.87319756 -44.796875 -11.08203125 C-27.93908778 -13.19505968 -13.83690882 -10.14339133 0 0 Z M-46.9609375 30.5625 C-50.02813663 34.97159875 -50.86058109 39.27709389 -49.9609375 44.5625 C-48.51711844 48.79942142 -46.40019913 51.58635869 -42.5859375 53.9375 C-37.61672652 56.16507734 -34.21658034 57.16811385 -28.9609375 55.5625 C-24.4229648 53.62885328 -21.36991103 50.87373193 -18.9609375 46.5625 C-17.58104361 42.1049776 -17.55948873 38.72224091 -19.0859375 34.3125 C-21.86082269 30.24266839 -24.8687714 27.29061073 -28.9609375 24.5625 C-36.56104161 23.15857313 -41.67623911 25.037012 -46.9609375 30.5625 Z " fill="#FC4F00" transform="translate(152.9609375,78.4375)"/>
<path d="M0 0 C0 0.66 0 1.32 0 2 C0.61875 2.2475 1.2375 2.495 1.875 2.75 C4.38710296 4.22770762 4.76107344 5.43955177 6 8 C7.485 8.495 7.485 8.495 9 9 C9 9.99 9 10.98 9 12 C9.66 12 10.32 12 11 12 C11.78435976 13.28349779 12.55151388 14.57750744 13.3125 15.875 C13.74175781 16.59429687 14.17101562 17.31359375 14.61328125 18.0546875 C18.29449756 25.87338355 19.53405337 33.27797819 19.4375 41.875 C19.42847656 42.84026611 19.41945313 43.80553223 19.41015625 44.80004883 C19.09720093 57.70402259 15.06639493 66.02728908 7 76 C6.3296875 76.86753906 5.659375 77.73507813 4.96875 78.62890625 C-0.85470885 85.64247673 -8.57760805 88.95921816 -17 92 C-17.67804688 92.24878906 -18.35609375 92.49757813 -19.0546875 92.75390625 C-32.06162 96.74530399 -46.95890202 93.65148903 -58.83203125 87.54296875 C-61.00969158 86.13694956 -63.0009137 84.64755206 -65 83 C-65.6084375 82.55011719 -66.216875 82.10023438 -66.84375 81.63671875 C-75.54760305 74.8606928 -81.47073499 64.66948306 -83.6484375 53.91015625 C-84.94042857 43.2153413 -84.98965828 32.1201088 -81 22 C-80.68289062 21.175 -80.36578125 20.35 -80.0390625 19.5 C-74.66799289 7.31033847 -64.49438228 -2.11101601 -52.2890625 -7.15234375 C-33.75590951 -14.01530314 -16.45116506 -9.54638354 0 0 Z M-47 34.25 C-48.72368152 38.99012417 -49.15611657 44.24811689 -47.16796875 48.98046875 C-46.056946 50.83166987 -46.056946 50.83166987 -44 53 C-43.34 53 -42.68 53 -42 53 C-42 53.66 -42 54.32 -42 55 C-36.75522604 57.25816657 -32.50345534 58.73320403 -26.92578125 56.93359375 C-22.98144414 55.02143032 -18.80952262 52.32156198 -17.3203125 48.05078125 C-16.49404423 42.76064906 -16.31684707 37.72745992 -19 33 C-22.27262679 29.29676442 -25.15223577 26.55670579 -30.078125 25.59375 C-37.79905137 25.2604726 -42.0162198 28.64324728 -47 34.25 Z " fill="#FC4F00" transform="translate(270,77)"/>
<path d="M0 0 C10.69149912 10.21632138 16.042593 21.05500534 16.41430664 35.82080078 C16.42196045 37.01431152 16.42961426 38.20782227 16.4375 39.4375 C16.4538147 41.16009033 16.4538147 41.16009033 16.47045898 42.91748047 C16.34721668 50.30241525 15.11456051 56.08183307 11.8125 62.6875 C11.33167969 63.65042969 10.85085938 64.61335938 10.35546875 65.60546875 C7.17249901 70.93487917 3.75974347 75.8368105 -1.1875 79.6875 C-1.8475 79.6875 -2.5075 79.6875 -3.1875 79.6875 C-3.1875 80.3475 -3.1875 81.0075 -3.1875 81.6875 C-4.1775 81.6875 -5.1675 81.6875 -6.1875 81.6875 C-6.1875 82.3475 -6.1875 83.0075 -6.1875 83.6875 C-19.7897598 91.30476549 -34.09793974 93.9871576 -49.3125 90.125 C-65.63821913 84.92129155 -75.32701189 75.6454943 -83.1875 60.6875 C-84.48416602 57.39459213 -85.45080214 54.14571805 -86.1875 50.6875 C-86.36925781 49.883125 -86.55101562 49.07875 -86.73828125 48.25 C-89.02088804 35.22921693 -86.16792777 21.50945699 -78.7734375 10.6015625 C-70.62180546 -0.64350939 -59.83923317 -9.32178208 -45.953125 -11.9921875 C-28.28709257 -14.0382534 -14.46552583 -10.49459717 0 0 Z M-48.50390625 30.296875 C-50.8432225 33.85067948 -51.93497129 37.29350944 -51.70703125 41.6328125 C-50.4189892 46.72687353 -46.73850502 50.48547111 -42.6875 53.625 C-38.1431062 55.55636737 -34.83624086 56.121106 -30.125 54.5625 C-25.21783285 52.48891694 -22.17150621 49.70023997 -19.8125 44.875 C-18.83122207 39.87048253 -19.56965877 35.5410237 -21.1875 30.6875 C-21.8475 30.6875 -22.5075 30.6875 -23.1875 30.6875 C-23.414375 30.089375 -23.64125 29.49125 -23.875 28.875 C-25.66776241 25.88706265 -26.94743937 25.03752526 -30.1875 23.6875 C-38.1350565 22.44822 -43.40356655 24.06144486 -48.50390625 30.296875 Z " fill="#FC4F00" transform="translate(391.1875,79.3125)"/>
<path d="M0 0 C1.83556206 -0.01702469 1.83556206 -0.01702469 3.70820618 -0.03439331 C5.05113286 -0.03175037 6.39405894 -0.02877922 7.73698425 -0.0255127 C9.16167871 -0.0328581 10.58636722 -0.0414457 12.01104736 -0.05117798 C15.87073031 -0.07335603 19.73019953 -0.07632645 23.58993745 -0.07443047 C26.81785074 -0.07431057 30.04571908 -0.08288287 33.27361983 -0.09120798 C40.89327456 -0.11042961 48.51281974 -0.11333079 56.13249207 -0.10656738 C63.97835712 -0.09993094 71.82375153 -0.12277752 79.66952115 -0.15988111 C86.41794973 -0.19063065 93.16622734 -0.20193237 99.91472453 -0.1980443 C103.93980287 -0.1959818 107.96451509 -0.20137795 111.98952675 -0.22593689 C115.77776729 -0.24828818 119.56524602 -0.24625776 123.35349083 -0.22600937 C124.73813348 -0.22261374 126.12282824 -0.22762577 127.50740051 -0.24199295 C135.71127225 -0.32119887 142.20189686 0.14225658 148.79631042 5.39440918 C152.86298703 10.60483858 153.27227829 15.91874109 152.79631042 22.39440918 C151.70265282 27.46500355 149.75388058 30.06645246 145.79631042 33.39440918 C141.5544328 35.8628062 138.47951074 36.77161619 133.58589172 36.78881836 C132.36073853 36.80016815 131.13558533 36.81151794 129.87330627 36.82321167 C128.52879267 36.82056875 127.18427969 36.81759759 125.83976746 36.81433105 C124.41345049 36.82167637 122.98713947 36.83026395 121.56083679 36.83999634 C117.69708894 36.86217325 113.83355459 36.86514494 109.96975183 36.86324883 C106.73925896 36.86312894 103.50881102 36.87170049 100.27833068 36.88002634 C92.65392221 36.89924688 85.02962321 36.90214926 77.40519714 36.89538574 C69.55135999 36.88874665 61.69799268 36.91160681 53.8442508 36.94869947 C47.09074236 36.97943321 40.33738477 36.99075252 33.58380783 36.98686266 C29.55484918 36.98479883 25.52625619 36.99021716 21.49736404 37.01475525 C17.70666422 37.03708086 13.9167262 37.03509727 10.12602234 37.01482773 C8.73934711 37.01142779 7.35262002 37.01646299 5.96601486 37.03081131 C-1.89765734 37.10653231 -8.21245405 36.94911928 -14.20368958 31.39440918 C-16.14118958 28.70690918 -16.14118958 28.70690918 -17.20368958 26.39440918 C-17.53368958 25.73440918 -17.86368958 25.07440918 -18.20368958 24.39440918 C-18.78560983 17.64637241 -18.40039866 12.38823872 -15.20368958 6.39440918 C-14.54368958 6.39440918 -13.88368958 6.39440918 -13.20368958 6.39440918 C-12.87368958 5.40440918 -12.54368958 4.41440918 -12.20368958 3.39440918 C-8.05036883 0.81237463 -4.85112233 0.01707369 0 0 Z " fill="#FC4F00" transform="translate(204.2036895751953,523.6055908203125)"/>
<path d="M0 0 C1.23081802 -0.00997513 2.46163605 -0.01995026 3.72975159 -0.03022766 C5.09097277 -0.03112343 6.45219412 -0.03178702 7.81341553 -0.03224182 C9.24928722 -0.03986478 10.68515483 -0.04829251 12.12101746 -0.0574646 C16.01996162 -0.07940616 19.91882735 -0.0882083 23.81782627 -0.09329104 C26.25552104 -0.09693575 28.69319531 -0.10317648 31.13088226 -0.11029243 C39.64046632 -0.13478806 48.14998943 -0.14783857 56.65960693 -0.15138245 C64.58268334 -0.15501536 72.50537181 -0.18489267 80.42832971 -0.22678703 C87.23698506 -0.26152272 94.0455121 -0.27693147 100.85425544 -0.27762848 C104.91791469 -0.27842034 108.98117895 -0.28711618 113.0447464 -0.31562614 C116.86986361 -0.34186263 120.69425998 -0.34398159 124.51942635 -0.3279705 C125.9190103 -0.32616026 127.31863622 -0.33280847 128.71813011 -0.34878922 C136.73868251 -0.43475069 142.80034173 -0.19660205 148.99212646 5.27415466 C152.75846989 9.16199304 152.90287958 12.89082793 153.24212646 18.14915466 C153.15128855 22.97264808 151.99556469 27.15286714 148.59759521 30.75071716 C143.79964316 34.90489337 140.36750813 36.52154594 134.06018066 36.5415802 C132.23919609 36.55437515 132.23919609 36.55437515 130.38142395 36.56742859 C129.03909289 36.56672958 127.69676193 36.56580653 126.35443115 36.56468201 C124.93826442 36.57066762 123.52210095 36.57747324 122.10594177 36.58503723 C118.26070534 36.60270436 114.41555793 36.607393 110.57028484 36.6086688 C108.16609205 36.61009093 105.76192186 36.61436175 103.35773468 36.61966324 C94.96485458 36.63816813 86.572038 36.64633356 78.17913818 36.64476013 C70.36517821 36.64355963 62.55149486 36.66464263 54.73760486 36.69624746 C48.02236726 36.72243711 41.30721983 36.73312625 34.59193158 36.73184931 C30.58422705 36.73134033 26.57676819 36.73698766 22.56911469 36.75820541 C18.7965972 36.77763253 15.02455851 36.77768217 11.2520237 36.76317215 C9.87179931 36.76108823 8.49154462 36.76576008 7.11137199 36.77789307 C-0.7136266 36.84219471 -6.31790406 36.50386529 -13.00787354 32.27415466 C-13.00787354 31.61415466 -13.00787354 30.95415466 -13.00787354 30.27415466 C-13.66787354 30.27415466 -14.32787354 30.27415466 -15.00787354 30.27415466 C-18.20354701 24.28226689 -18.75200955 19.02234701 -18.00787354 12.27415466 C-16.11846115 6.80480301 -13.07547119 4.1515689 -8.22320938 1.18191433 C-5.37504374 0.01484528 -3.077999 0.01337842 0 0 Z " fill="#FC4F00" transform="translate(204.00787353515625,591.7258453369141)"/>
<path d="M0 0 C1.23233368 -0.00571014 2.46466736 -0.01142029 3.73434448 -0.01730347 C5.10237111 -0.01854881 6.47039786 -0.01967391 7.83842468 -0.02069092 C9.27739082 -0.02531963 10.71635573 -0.03034437 12.15531921 -0.03573608 C16.06657625 -0.04885719 19.97781612 -0.05530451 23.88909173 -0.05974674 C26.33295628 -0.06267801 28.77681614 -0.06678293 31.22067833 -0.07125092 C38.86771126 -0.08492525 46.51473348 -0.09459215 54.16177779 -0.09845281 C62.98774425 -0.10293318 71.81355581 -0.1204803 80.63947517 -0.1494534 C87.46250612 -0.17107368 94.28549351 -0.18115728 101.10855836 -0.18249393 C105.18324531 -0.18354173 109.25778664 -0.18944427 113.33243752 -0.20731354 C117.16641726 -0.22380021 121.00014202 -0.22594694 124.83414459 -0.21717453 C126.23939637 -0.21640446 127.64466189 -0.22074294 129.04987907 -0.23063278 C130.97217576 -0.2433657 132.89457504 -0.23567888 134.81689453 -0.22705078 C135.89149587 -0.22851734 136.9660972 -0.2299839 138.07326221 -0.2314949 C142.81579947 0.35149321 146.88147288 2.26600563 149.91142273 6.01544189 C153.43245425 11.04548693 153.69982004 16.08524587 153.09892273 22.14044189 C151.58584485 27.62534919 149.20536514 30.62798743 144.69723511 33.87168121 C139.3520604 36.48173979 133.46609482 35.9716446 127.63993835 35.91680908 C126.18376089 35.92495046 124.72759579 35.93563981 123.27145386 35.94866943 C119.33525458 35.97591265 115.40000383 35.96546413 111.46378899 35.94639492 C107.33420736 35.93114714 103.20470402 35.94530799 99.07511902 35.95471191 C92.14166259 35.96561136 85.2085903 35.95128575 78.27519226 35.92266846 C70.27236282 35.89001747 62.27045067 35.90059566 54.26764345 35.93362689 C47.38240885 35.9609021 40.49744953 35.96467407 33.61217833 35.94899487 C29.50611058 35.93966641 25.40047325 35.93832187 21.29443359 35.95821381 C17.4329389 35.97561612 13.57262052 35.96339996 9.71125221 35.92884827 C8.29880026 35.92095136 6.88624837 35.9231307 5.4738369 35.93642426 C-2.11738859 36.00125592 -7.61057667 35.84438266 -13.46408844 30.68809891 C-17.98967069 25.81398371 -18.39089876 21.17120264 -18.18232727 14.75762939 C-17.63523884 9.66666762 -15.65543908 6.62468249 -11.90107727 3.32794189 C-7.74800458 0.29965973 -5.01145904 0.01388711 0 0 Z " fill="#FC4F00" transform="translate(203.9010772705078,659.8595581054688)"/>
</svg>
