<?xml version="1.0" encoding="UTF-8"?>
<svg version="1.1" xmlns="http://www.w3.org/2000/svg" width="1024" height="934">
<path d="M0 0 C1.09305745 -0.00350607 2.18611491 -0.00701215 3.31229532 -0.01062447 C6.98252614 -0.0199436 10.65259848 -0.01501375 14.32283592 -0.01015663 C16.97771614 -0.0138926 19.63258455 -0.01841413 22.28746068 -0.02388728 C28.06354625 -0.03418523 33.8395983 -0.03703143 39.61569214 -0.03497505 C48.20482654 -0.03192465 56.79392386 -0.04024976 65.38305105 -0.0507243 C81.61422964 -0.07006552 97.8453956 -0.07569251 114.07658435 -0.07683842 C126.60733348 -0.07775731 139.13807764 -0.08187295 151.66882515 -0.08823967 C155.27497812 -0.09003472 158.88113109 -0.09181435 162.48728406 -0.09358943 C163.3837552 -0.09403152 164.28022633 -0.09447362 165.20386326 -0.09492911 C190.41822648 -0.10723677 215.63258799 -0.11513028 240.84695435 -0.11424255 C241.79755405 -0.1142114 242.74815376 -0.11418024 243.72755952 -0.11414814 C248.54568632 -0.11398192 253.36381312 -0.11378384 258.18193991 -0.11357872 C259.13885422 -0.11353883 260.09576852 -0.11349894 261.08168023 -0.11345784 C263.01679184 -0.11337697 264.95190345 -0.11329337 266.88701506 -0.11320706 C297.01069135 -0.11198088 327.13432265 -0.12700735 357.25798607 -0.15435219 C391.09301212 -0.1850533 424.92800862 -0.20228598 458.76304948 -0.20042574 C462.36857374 -0.20027648 465.974098 -0.20017907 469.57962227 -0.20011711 C470.46741149 -0.2000938 471.3552007 -0.20007049 472.26989263 -0.20004648 C486.57283774 -0.19998487 500.87574387 -0.21277042 515.17867738 -0.22998164 C529.54336285 -0.24691017 543.9079911 -0.24893371 558.27268101 -0.235763 C566.8120657 -0.22835606 575.3512769 -0.23208368 583.89064331 -0.25164768 C589.59013338 -0.26360508 595.28949715 -0.26110415 600.98898131 -0.24670668 C604.23932185 -0.23890768 607.48925662 -0.23968307 610.73958667 -0.25362138 C614.23753754 -0.26763395 617.73457934 -0.2572408 621.23249817 -0.24050903 C622.24604343 -0.25044539 623.25958868 -0.26038175 624.30384743 -0.27061921 C630.17812322 -0.21080367 633.51531086 0.34677769 637.99040794 4.25726891 C641.92779377 9.95968975 642.75169691 14.38452132 641.99040794 21.25726891 C639.77798355 25.68211769 637.04241179 28.45203548 632.99040794 31.25726891 C630.16835773 32.19795231 628.46007864 32.38287874 625.54025382 32.38442743 C624.16281689 32.38879548 624.16281689 32.38879548 622.75755295 32.39325178 C621.74518103 32.39137157 620.73280911 32.38949136 619.68975925 32.38755417 C618.07402227 32.39046931 618.07402227 32.39046931 616.42564413 32.39344335 C612.77942989 32.39880068 609.13325306 32.39699554 605.48703575 32.39529991 C602.86122447 32.39771617 600.23541358 32.40057788 597.60960323 32.40384924 C591.88153541 32.41029397 586.15347489 32.41306647 580.42540359 32.41347504 C571.90758979 32.41411881 563.38978721 32.42050478 554.87197721 32.42822183 C541.42315493 32.44030967 527.97433316 32.44896531 514.52550701 32.45525998 C493.17881547 32.46528427 471.83213996 32.48453294 450.48545804 32.50680237 C442.27680805 32.51533347 434.06815778 32.52359945 425.85950756 32.53190613 C424.94746916 32.53283114 424.03543075 32.53375615 423.09575482 32.53470918 C401.37647741 32.55670879 379.65719822 32.57649582 357.93791771 32.59515953 C356.51204534 32.59638905 356.51204534 32.59638905 355.05736746 32.59764341 C332.87709023 32.61673003 310.69681309 32.63369122 288.51653099 32.64600182 C287.5625244 32.64653148 286.60851781 32.64706115 285.62560192 32.64760687 C277.93585901 32.65185849 270.24611606 32.6560348 262.5563731 32.66019167 C230.87081048 32.67737896 199.18526974 32.70457629 167.49972591 32.74335204 C163.02741547 32.74881413 158.55510489 32.75414707 154.08279419 32.75939369 C153.20257137 32.76042807 152.32234856 32.76146245 151.41545232 32.76252818 C137.23219549 32.77887122 123.04895394 32.78438297 108.8656886 32.78569135 C94.61801226 32.78719377 80.37037757 32.79932048 66.12271961 32.82244776 C57.65227226 32.83585548 49.18191576 32.84083027 40.71146013 32.8339014 C35.0577304 32.83009046 29.40408137 32.83707091 23.75037271 32.85291718 C20.52614131 32.86163934 17.30213413 32.8639243 14.07789417 32.85634331 C10.60793378 32.84890974 7.13850218 32.85973972 3.66858006 32.87530136 C2.66323163 32.86873882 1.65788321 32.86217628 0.62206969 32.85541487 C-7.07345979 32.92124046 -12.32769169 34.87441593 -18.00959206 40.25726891 C-22.1556842 46.46249406 -23.15661097 50.96493643 -23.14825726 58.32717896 C-23.15252136 59.76206199 -23.15252136 59.76206199 -23.15687161 61.22593256 C-23.16526716 64.46641783 -23.16649151 67.70686756 -23.16781044 70.9473629 C-23.17236377 73.27394764 -23.1773547 75.60053155 -23.18274879 77.92711449 C-23.19494643 83.68336273 -23.20246618 89.43960424 -23.20809479 95.19586234 C-23.215195 102.18142503 -23.22814466 109.16697395 -23.24126876 116.15252748 C-23.26521895 128.9840979 -23.28463889 141.81567127 -23.30132484 154.64725304 C-23.32390091 171.99732997 -23.35267459 189.34738725 -23.38251686 206.69745445 C-23.45113439 248.42571737 -23.51107814 290.15399418 -23.57209206 331.88226891 C-23.71646706 425.06601891 -23.86084206 518.24976891 -24.00959206 614.25726891 C293.12040794 614.25726891 610.25040794 614.25726891 936.99040794 614.25726891 C936.86665794 522.02226891 936.74290794 429.78726891 936.61540794 334.75726891 C936.58140892 305.59416344 936.5474099 276.43105797 936.5123806 246.38422203 C936.4724886 220.32654168 936.4724886 220.32654168 936.42995262 194.26886559 C936.40977519 181.8616442 936.39619385 169.45443243 936.38578434 157.04719961 C936.37501216 144.40023793 936.3568286 131.75330303 936.33147915 119.10636207 C936.31791598 112.24009226 936.30769703 105.37385935 936.30615354 98.50757504 C936.30470028 92.30325786 936.29416318 86.09902626 936.27626419 79.89473534 C936.27140662 77.64753983 936.26993522 75.40033402 936.27213168 73.15313435 C936.27462434 70.0977813 936.26490599 67.04270087 936.25212097 63.98737907 C936.25577061 63.10992327 936.25942024 62.23246747 936.26318047 61.3284221 C936.2091489 53.84840827 935.13059981 47.65574725 930.99040794 41.25726891 C930.99040794 40.59726891 930.99040794 39.93726891 930.99040794 39.25726891 C930.33040794 39.25726891 929.67040794 39.25726891 928.99040794 39.25726891 C928.99040794 38.59726891 928.99040794 37.93726891 928.99040794 37.25726891 C928.26853294 36.96851891 927.54665794 36.67976891 926.80290794 36.38226891 C923.99040794 35.25726891 923.99040794 35.25726891 921.89262009 34.20267868 C917.81441288 32.87418277 914.00568241 32.98290611 909.74251366 33.00571251 C908.34081368 33.0012573 908.34081368 33.0012573 906.91079652 32.99671209 C903.77792895 32.98907035 900.64524876 32.99556688 897.5123806 33.00189781 C895.26687048 32.99914801 893.02136133 32.99546818 890.77585411 32.99092674 C885.9391721 32.98281229 881.10253632 32.98064691 876.26584816 32.98287392 C868.61836271 32.98570477 860.97096982 32.97136365 853.32350731 32.95389366 C842.60179951 32.9306972 831.88010156 32.91157979 821.15837669 32.89887047 C820.47818959 32.8980601 819.79800249 32.89724973 819.09720366 32.8964148 C809.44564136 32.88519455 799.79408483 32.87991233 790.1425169 32.87702768 C789.46293618 32.87682369 788.78335546 32.8766197 788.08318138 32.87640953 C787.40443083 32.87620959 786.72568029 32.87600966 786.02636154 32.87580366 C774.70226799 32.87206895 763.37827857 32.85274105 752.05422246 32.82131517 C744.4517063 32.80108168 736.84945965 32.79874057 729.2469275 32.80959535 C724.51676081 32.8122008 719.78675133 32.79820639 715.05662537 32.77951431 C712.86326419 32.77418787 710.66987413 32.7756968 708.47652435 32.78454971 C705.48139621 32.79566363 702.48733262 32.7822471 699.49226952 32.76279259 C698.62504285 32.77191724 697.75781617 32.7810419 696.86430991 32.79044306 C690.28150522 32.70728443 686.37555319 30.94203927 681.17790794 26.81976891 C678.27559071 23.00093044 677.53332312 19.15869831 677.67790794 14.37836266 C678.4361519 9.23178181 680.5139648 5.49189081 684.48365307 2.17238331 C689.03854926 -0.31514365 692.45766867 -0.29903301 697.55942345 -0.24393654 C698.99492364 -0.25223813 698.99492364 -0.25223813 700.45942384 -0.26070744 C703.66296932 -0.27430941 706.86573512 -0.25934651 710.06926537 -0.24444008 C712.36754754 -0.24822353 714.66582744 -0.25372378 716.96410179 -0.26081276 C723.20611834 -0.27478499 729.44785976 -0.26358317 735.68986106 -0.24710155 C742.22569925 -0.23325235 748.76152144 -0.2397113 755.297369 -0.24323463 C766.27883225 -0.24666825 777.26019227 -0.232543 788.24162865 -0.20928383 C799.52357099 -0.18539104 810.80536868 -0.17826897 822.08733177 -0.18877602 C835.69746169 -0.20142869 849.30748996 -0.19886859 862.9176178 -0.18311691 C868.1083368 -0.17736901 873.29900733 -0.17743049 878.48972702 -0.18218231 C884.61044522 -0.18696912 890.73096418 -0.17677968 896.85164452 -0.15522766 C899.09331465 -0.14968161 901.33500401 -0.14917434 903.57667542 -0.15418053 C928.7547152 -0.20333964 928.7547152 -0.20333964 939.80290794 6.19476891 C941.15255638 6.97400719 941.15255638 6.97400719 942.52947044 7.76898766 C943.74763451 8.50568687 943.74763451 8.50568687 944.99040794 9.25726891 C945.65814232 9.65558922 946.32587669 10.05390953 947.01384544 10.46430016 C948.67790794 11.50726891 948.67790794 11.50726891 950.99040794 13.25726891 C950.99040794 13.91726891 950.99040794 14.57726891 950.99040794 15.25726891 C951.65040794 15.25726891 952.31040794 15.25726891 952.99040794 15.25726891 C952.99040794 15.91726891 952.99040794 16.57726891 952.99040794 17.25726891 C953.65040794 17.25726891 954.31040794 17.25726891 954.99040794 17.25726891 C964.68497373 28.90985045 968.30314284 40.05872455 968.25047016 55.025383 C968.25427583 56.20046236 968.2580815 57.37554173 968.2620025 58.58622956 C968.27052619 61.8446826 968.27013389 65.10299297 968.26594714 68.36144994 C968.26357816 71.90774464 968.27275355 75.45401283 968.28043133 79.00029743 C968.2922721 85.21475705 968.29664434 91.42918731 968.29611015 97.64365768 C968.29531666 106.88507887 968.30586941 116.12646302 968.31852572 125.3678743 C968.343262 143.79605861 968.35204806 162.22423391 968.35706221 180.65243253 C968.35745397 182.08387699 968.35745397 182.08387699 968.35785365 183.54423952 C968.35811393 184.50045512 968.3583742 185.45667073 968.35864236 186.44186256 C968.36172483 197.03900254 968.36822964 207.63614002 968.37485504 218.23327827 C968.3945024 250.24114739 968.41090713 282.24901381 968.41373158 314.25688934 C968.41387267 315.7925008 968.41387267 315.7925008 968.41401661 317.35913472 C968.41439509 321.50790126 968.41475909 325.65666781 968.41511959 329.80543436 C968.41539131 332.92805108 968.41566799 336.05066781 968.41594505 339.17328453 C968.41603308 340.2051168 968.4161211 341.23694907 968.41621179 342.30004898 C968.41911714 374.71973505 968.44121244 407.13936148 968.47746849 439.55902672 C968.51819964 475.98120826 968.54189018 512.40334917 968.54219109 548.82555473 C968.54228791 552.70982481 968.54245463 556.59409487 968.5426712 560.47836494 C968.54271532 561.4347723 968.54275943 562.39117966 968.54280488 563.37656906 C968.54392448 578.76398879 968.56132951 594.15134876 968.58449052 609.53874925 C968.60733951 625.00586301 968.61155409 640.47289608 968.59694123 655.94002052 C968.58879345 665.12651539 968.59446762 674.31275596 968.62012207 683.49921996 C968.63588662 689.64026326 968.63338368 695.78112627 968.61621534 701.92216528 C968.6069527 705.4181664 968.60542009 708.91367819 968.62618142 712.40964092 C968.75447869 739.07318681 968.75447869 739.07318681 962.99040794 750.25726891 C962.33040794 750.25726891 961.67040794 750.25726891 960.99040794 750.25726891 C960.90790794 750.79351891 960.82540794 751.32976891 960.74040794 751.88226891 C959.71459523 755.13067582 958.024769 757.54478749 955.99040794 760.25726891 C955.33040794 760.25726891 954.67040794 760.25726891 953.99040794 760.25726891 C953.66040794 761.24726891 953.33040794 762.23726891 952.99040794 763.25726891 C952.33040794 763.25726891 951.67040794 763.25726891 950.99040794 763.25726891 C950.66040794 764.24726891 950.33040794 765.23726891 949.99040794 766.25726891 C939.24019703 776.14090508 925.78563189 779.02235704 911.62691307 778.85854149 C910.23714199 778.86072814 908.84737298 778.86511752 907.45761478 778.87148732 C903.68084865 778.88255414 899.90480492 778.86282709 896.12813067 778.83759701 C892.03972444 778.81584486 887.95135339 778.82332278 883.8629055 778.82710838 C876.79342313 778.82972013 869.72417291 778.8141381 862.65474892 778.78591919 C852.43380392 778.74514713 842.21297026 778.732248 831.99195276 778.72597923 C815.40592511 778.71505747 798.82002095 778.68184097 782.23406029 778.63446617 C766.12989987 778.5885156 750.0257731 778.55315065 733.92156029 778.53192711 C732.92758189 778.53061349 731.9336035 778.52929987 730.90950455 778.52794645 C725.92261384 778.52142089 720.9357229 778.51510244 715.9488318 778.50888693 C674.62927131 778.45711995 633.30984672 778.3691126 591.99040794 778.25726891 C592.46474266 780.11460655 592.46474266 780.11460655 592.9486599 782.00946617 C595.50291899 792.0110988 598.05055135 804.37194624 593.74040794 814.06976891 C590.949435 817.55848508 588.24184491 819.84012325 583.99040794 821.25726891 C578.32964358 821.81795414 573.77071067 821.62520947 568.99040794 818.25726891 C563.41065689 812.9565054 562.84161875 806.59586308 561.99040794 799.25726891 C561.80651247 797.87154474 561.62020328 796.48613932 561.43181419 795.10101891 C560.67995487 789.45470278 559.99040794 783.97167583 559.99040794 778.25726891 C550.75040794 778.25726891 541.51040794 778.25726891 531.99040794 778.25726891 C531.33040794 781.55726891 530.67040794 784.85726891 529.99040794 788.25726891 C528.75496216 791.14522178 527.52408145 793.81907937 526.05290794 796.56976891 C525.7055056 797.24588219 525.35810326 797.92199547 525.00017357 798.61859703 C524.01957826 800.51145992 523.01297917 802.38681354 521.99040794 804.25726891 C521.45286888 805.24082359 520.91532982 806.22437828 520.36150169 807.23773766 C519.90904076 807.90418297 519.45657982 808.57062828 518.99040794 809.25726891 C518.33040794 809.25726891 517.67040794 809.25726891 516.99040794 809.25726891 C516.78415794 809.95851891 516.57790794 810.65976891 516.36540794 811.38226891 C514.60697014 815.05900249 512.18612654 817.73021969 508.99040794 820.25726891 C508.33040794 820.25726891 507.67040794 820.25726891 506.99040794 820.25726891 C506.99040794 820.91726891 506.99040794 821.57726891 506.99040794 822.25726891 C505.02177722 823.81176695 503.06436687 825.23131652 500.99040794 826.63226891 C500.16089622 827.21234703 500.16089622 827.21234703 499.31462669 827.80414391 C482.64806195 839.22169861 462.22270886 842.96661018 442.34441185 839.84125328 C432.49869896 837.91414983 423.37447767 834.87301372 414.99040794 829.25726891 C414.04681419 828.62562828 413.10322044 827.99398766 412.13103294 827.34320641 C397.04237424 816.78114531 397.04237424 816.78114531 394.99040794 809.25726891 C394.33040794 809.25726891 393.67040794 809.25726891 392.99040794 809.25726891 C386.32324145 800.41985173 382.64150729 789.8616663 379.99040794 779.25726891 C371.08040794 778.92726891 362.17040794 778.59726891 352.99040794 778.25726891 C350.28490043 797.2348184 350.28490043 797.2348184 347.92790794 816.25726891 C347.12659278 823.34855353 346.12614543 830.4010714 345.09563255 837.46234703 C344.3104831 842.88647491 343.60368823 848.31115809 342.99040794 853.75726891 C342.17130642 861.02419189 341.15702132 868.25526101 340.10027122 875.49115562 C339.09849159 882.38365477 338.22647587 889.28468615 337.42009544 896.20258141 C336.99040794 899.25726891 336.99040794 899.25726891 335.99040794 902.25726891 C415.19040794 902.25726891 494.39040794 902.25726891 575.99040794 902.25726891 C574.67040794 893.34726891 573.35040794 884.43726891 571.99040794 875.25726891 C572.97596737 866.3872341 573.37275544 863.61021512 579.55290794 857.88226891 C584.45967804 855.56270486 588.6612104 855.26842347 593.99040794 856.25726891 C599.38525605 858.76012467 602.02842827 861.79767039 604.30708885 867.27937889 C605.41988227 870.50039674 605.8044969 873.78989808 606.15837669 877.15961266 C606.24291603 877.88217751 606.32745537 878.60474236 606.4145565 879.34920311 C606.67909399 881.63003788 606.92873919 883.91220948 607.17790794 886.19476891 C607.35595758 887.7528247 607.53498493 889.3107691 607.71501732 890.86859703 C608.15145319 894.66362772 608.57455281 898.45993019 608.99040794 902.25726891 C609.94818138 902.24155846 610.90595482 902.22584801 611.89275169 902.20966148 C615.4784394 902.15497178 619.06409094 902.12077843 622.65007591 902.09247398 C624.19603762 902.07747561 625.74195742 902.05707004 627.28777122 902.03095055 C644.47440408 901.74802018 644.47440408 901.74802018 652.08415794 906.58930016 C655.83855761 910.54184869 656.46619883 913.89543803 656.67790794 919.31976891 C656.35603347 926.70718063 656.35603347 926.70718063 653.74040794 930.00726891 C649.20594346 933.7172853 646.43928983 934.50735717 640.54914093 934.51453781 C639.90136438 934.51804389 639.25358784 934.52154996 638.5861817 934.52516228 C636.40655868 934.5344969 634.22720165 934.52954776 632.04756737 934.52469444 C630.47271534 934.52842967 628.89786517 934.53303067 627.32301795 934.53842509 C622.98821666 934.55068627 618.65349236 934.55039096 614.31867766 934.54803634 C609.64645742 934.54762896 604.97426213 934.55865972 600.30205345 934.56815147 C591.14577163 934.58477931 581.98951555 934.59026182 572.8332199 934.59137623 C565.39247736 934.59232582 557.95174334 934.59643165 550.51100349 934.60277748 C529.4260899 934.62039443 508.34119668 934.62961559 487.25627567 934.62811653 C486.11908131 934.62803662 484.98188695 934.62795671 483.81023216 934.62787437 C482.67165319 934.62779261 481.53307421 934.62771085 480.35999285 934.62762661 C461.90233245 934.62681349 443.44475362 934.64595664 424.98711683 934.67415111 C406.04568754 934.70285684 387.10429805 934.71669269 368.16284645 934.71496356 C357.5243192 934.71429887 346.88587746 934.71982536 336.24736977 934.74131966 C327.19037625 934.75950102 318.13350701 934.76390386 309.07650317 934.75030081 C304.4539868 934.74375586 299.83170906 934.74370884 295.20921516 934.76100731 C290.9788474 934.77667579 286.74890871 934.77393856 282.51855181 934.75643905 C280.98694434 934.75335537 279.45530534 934.75705278 277.92373504 934.7681592 C275.84308806 934.78224984 273.76395251 934.77172071 271.68335724 934.75504684 C269.94938916 934.75569895 269.94938916 934.75569895 268.18039143 934.75636423 C264.24300423 934.14033235 262.0326081 932.798304 258.99040794 930.25726891 C258.99040794 929.26726891 258.99040794 928.27726891 258.99040794 927.25726891 C258.33040794 927.25726891 257.67040794 927.25726891 256.99040794 927.25726891 C255.21555755 921.93271774 254.73927727 916.08731725 257.04900169 910.86273766 C260.46793938 905.86867963 264.18297354 903.90640698 269.99040794 902.25726891 C272.74499867 901.90160102 275.43545796 901.9031577 278.20915794 901.96430016 C278.95250389 901.968545 279.69584984 901.97278984 280.46172142 901.97716331 C282.80500652 901.99377809 285.14738871 902.03139436 287.49040794 902.06976891 C289.09195791 902.08483812 290.69352153 902.09852258 292.29509544 902.11078453 C296.19387378 902.14362464 300.09198851 902.19528327 303.99040794 902.25726891 C304.04084251 901.33252769 304.09127708 900.40778648 304.14323997 899.45502281 C304.66260541 890.76915975 305.56294555 882.24142248 306.86540794 873.63226891 C307.0439431 872.41499107 307.22247826 871.19771324 307.40642357 869.9435482 C307.92922679 866.38066299 308.45873732 862.81884027 308.99040794 859.25726891 C310.41110457 849.70851618 311.77775418 840.15987873 312.92400169 830.57367516 C313.00675346 829.88250099 313.08950523 829.19132683 313.17476463 828.47920799 C313.57970518 825.08539614 313.97866443 821.69109738 314.36931419 818.29559898 C315.43474537 809.23209783 316.71394456 800.212725 318.06291771 791.18744469 C318.24846466 789.94080544 318.43401161 788.69416618 318.6251812 787.40974998 C319.07940288 784.35879464 319.53449941 781.30797255 319.99040794 778.25726891 C319.28958725 778.25840807 318.58876656 778.25954723 317.86670887 778.26072091 C276.32260668 778.32786744 234.77851079 778.37933481 193.23436523 778.41046489 C188.24516844 778.41421698 183.25597176 778.41809995 178.26677513 778.42206383 C177.27352352 778.42285076 176.2802719 778.42363769 175.25692175 778.42444847 C159.17817575 778.43749938 143.09946195 778.4611515 127.02073504 778.48872729 C110.52024769 778.51679023 94.0197772 778.53344705 77.51926696 778.53953439 C67.33906856 778.54364898 57.15896119 778.55664073 46.9787908 778.58101831 C39.99614419 778.59688645 33.01354458 778.60166681 26.03088124 778.59777304 C22.00335001 778.59585318 17.97597778 778.59877884 13.94847488 778.61488533 C10.25689048 778.62954025 6.56557121 778.63018527 2.87397431 778.61996559 C0.91492275 778.6181083 -1.04412593 778.63099681 -3.00313175 778.64451283 C-17.99346489 778.56862431 -29.93010481 773.35237826 -41.00959206 763.25726891 C-43.24865299 760.72880554 -45.14558224 758.0696346 -47.00959206 755.25726891 C-47.67088112 754.35234703 -47.67088112 754.35234703 -48.34552956 753.42914391 C-54.87739903 744.00741704 -56.6113382 733.14985732 -56.51295662 721.91797447 C-56.51877038 720.74189141 -56.52458415 719.56580834 -56.53057408 718.3540864 C-56.54257987 715.11596962 -56.53690234 711.87846546 -56.52346227 708.64037317 C-56.51325332 705.10761186 -56.52637954 701.57492075 -56.5364356 698.04216957 C-56.55084268 691.85924212 -56.55046867 685.67645452 -56.54024696 679.49352074 C-56.52508819 670.29915413 -56.53286691 661.10490503 -56.54508019 651.91053915 C-56.56612434 635.48741368 -56.5643251 619.06435051 -56.55276454 602.64121914 C-56.54269746 588.26896636 -56.54007778 573.8967364 -56.54485512 559.52448082 C-56.54516066 558.57068178 -56.5454662 557.61688274 -56.545781 556.63418069 C-56.54702638 552.76228026 -56.54829998 548.89037983 -56.54962005 545.01847942 C-56.56185269 508.70616356 -56.55076754 472.39388734 -56.52923246 436.0815776 C-56.51025042 403.82892221 -56.51194894 371.57632999 -56.53107643 339.32367516 C-56.55250064 303.07725493 -56.56098511 266.83086973 -56.54862738 230.58444405 C-56.54734453 226.71964837 -56.54609317 222.85485268 -56.54485512 218.99005699 C-56.54453881 218.03846416 -56.5442225 217.08687134 -56.5438966 216.10644236 C-56.53934906 201.74415129 -56.54466344 187.38188557 -56.55477333 173.01959801 C-56.5662129 156.68702479 -56.56334563 140.35452356 -56.54165035 124.0219593 C-56.5299122 114.88414955 -56.52912832 105.74649572 -56.54423505 96.60869004 C-56.55321697 90.50153846 -56.54760008 84.39451165 -56.53021598 78.28737853 C-56.52071989 74.81006438 -56.51740697 71.33305953 -56.53183991 67.85575533 C-56.54401977 64.10239534 -56.53151049 60.34987952 -56.51295662 56.59656334 C-56.52232128 55.52743218 -56.53168595 54.45830102 -56.54133439 53.35677195 C-56.39187604 38.20893855 -50.6361129 26.71974903 -40.69318581 15.68695641 C-29.35500516 4.66631954 -15.59524215 -0.06354321 0 0 Z M-24.00959206 645.25726891 C-31.88328483 700.96445751 -31.88328483 700.96445751 -16.57209206 741.06976891 C-10.12161255 746.5762758 -3.63882307 747.38212854 4.60096306 747.38261807 C5.24385738 747.38402039 5.88675171 747.3854227 6.54912769 747.38686752 C8.70432712 747.39034843 10.85945483 747.38671006 13.01465321 747.38311005 C14.5817002 747.38415323 16.14874695 747.38563451 17.71579316 747.38751441 C22.03883941 747.39142051 26.36186342 747.38907217 30.68490931 747.38573646 C35.38169198 747.38320649 40.07847117 747.386457 44.77525336 747.38897979 C53.01260779 747.39259773 61.24995567 747.39247808 69.48731041 747.38993263 C81.7363911 747.38615776 93.98546624 747.38807993 106.23454688 747.39114094 C128.10879741 747.39641354 149.98304503 747.39594755 171.85729584 747.39306203 C191.00013754 747.39054913 210.14297817 747.38988853 229.28582001 747.39108467 C230.55428535 747.39116106 231.82275069 747.39123744 233.12965437 747.39131614 C238.27843153 747.39162747 243.4272087 747.39194586 248.57598586 747.3922759 C284.52239722 747.39455266 320.46880809 747.39495136 356.41521931 747.39121246 C357.43177247 747.39110709 357.43177247 747.39110709 358.46886207 747.39099959 C369.47469098 747.3898546 380.48051988 747.38863516 391.48634878 747.38740941 C435.13573346 747.38255326 478.78511507 747.38277813 522.43449974 747.38764 C533.43355083 747.38886117 544.43260192 747.39007221 555.43165302 747.39121246 C556.44749968 747.39131814 556.44749968 747.39131814 557.48386849 747.39142594 C594.03645356 747.39520225 630.58903837 747.39437063 667.14162356 747.39202774 C672.28147574 747.39170701 677.42132793 747.39139417 682.56118011 747.39108467 C683.82679499 747.39100559 685.09240987 747.39092652 686.39637671 747.39084504 C705.52899285 747.3897064 724.66160781 747.39104003 743.79422379 747.39356422 C765.54431921 747.3964194 787.29441125 747.3957174 809.04450624 747.39028348 C821.22511456 747.38734093 833.40571556 747.38716453 845.5863237 747.39092965 C853.71429752 747.3931655 861.84226547 747.39178834 869.97023842 747.38742489 C874.60672352 747.38503752 879.24319406 747.38425055 883.87967872 747.38783087 C888.09485768 747.39105279 892.31000911 747.38970086 896.52518605 747.38465021 C898.04320048 747.38364034 899.56121718 747.38431624 901.07922982 747.38685615 C903.13768786 747.3900568 905.19605005 747.38709831 907.25450367 747.38261807 C908.96539124 747.38251643 908.96539124 747.38251643 910.71084219 747.38241274 C919.08415867 747.06289821 924.8772453 745.50662898 930.75993919 739.42914391 C949.13476714 716.71767774 936.99040794 651.67008437 936.99040794 645.25726891 C619.86040794 645.25726891 302.73040794 645.25726891 -24.00959206 645.25726891 Z M413.99040794 778.25726891 C418.94626137 791.47287805 426.87812173 799.68875292 439.67790794 805.63226891 C451.82556256 810.07046713 464.52609201 808.96015486 476.05290794 803.63226891 C483.3442026 799.78434695 490.27502447 795.3334352 492.99040794 787.25726891 C493.65040794 787.25726891 494.31040794 787.25726891 494.99040794 787.25726891 C495.98040794 784.28726891 496.97040794 781.31726891 497.99040794 778.25726891 C470.27040794 778.25726891 442.55040794 778.25726891 413.99040794 778.25726891 Z " fill="#FC4F00" transform="translate(56.009592056274414,-0.25726890563964844)"/>
<path d="M0 0 C0.86037872 -0.00761353 1.72075745 -0.01522705 2.60720825 -0.02307129 C4.42088939 -0.03383876 6.23463236 -0.03673907 8.04833984 -0.03222656 C10.80542767 -0.03125524 13.55972032 -0.07289153 16.31640625 -0.1171875 C18.08593175 -0.12239617 19.85546684 -0.12508267 21.625 -0.125 C22.84725784 -0.1495929 22.84725784 -0.1495929 24.09420776 -0.17468262 C30.15058694 -0.1025094 34.25659543 1.61601808 38.9453125 5.46875 C42.82394799 10.55945908 42.59527364 16.32615947 41.9453125 22.46875 C40.49049758 27.17550416 38.49049688 29.25016188 34.18530273 31.61938477 C29.63950594 33.34307164 24.81534739 33.15309775 20.0078125 33.21875 C18.94240234 33.24839844 17.87699219 33.27804688 16.77929688 33.30859375 C14.16789463 33.37885569 11.55736246 33.43176748 8.9453125 33.46875 C8.78450195 34.33862549 8.62369141 35.20850098 8.45800781 36.10473633 C3.0092045 65.52322184 3.0092045 65.52322184 0.4128418 77.59057617 C-0.9470388 83.91363678 -2.22836632 90.25081676 -3.4921875 96.59375 C-3.80530884 98.16431152 -3.80530884 98.16431152 -4.12475586 99.76660156 C-4.76882037 103.00050156 -5.41191276 106.23459341 -6.0546875 109.46875 C-6.92848533 113.86482364 -7.80323055 118.2607057 -8.6796875 122.65625 C-8.88883789 123.70522461 -9.09798828 124.75419922 -9.31347656 125.83496094 C-10.60883115 132.30760196 -11.94784557 138.7667747 -13.37890625 145.2109375 C-13.95999928 148.01227613 -14.48595316 150.81340088 -14.9921875 153.62890625 C-16.03919367 159.44615313 -17.19439484 165.23825186 -18.3671875 171.03125 C-20.13969024 179.83573535 -21.86904306 188.64723294 -23.5546875 197.46875 C-25.77990868 209.10220982 -28.0880273 220.71769728 -30.42529297 232.32910156 C-31.06870932 235.53869592 -31.70517912 238.74960182 -32.33984375 241.9609375 C-33.37110014 247.17536264 -34.41529794 252.38699629 -35.47265625 257.59619141 C-35.85078755 259.46242166 -36.22595688 261.3292554 -36.59765625 263.19677734 C-37.09162256 265.66521611 -37.60172564 268.12972334 -38.1171875 270.59375 C-38.32420288 271.64937134 -38.32420288 271.64937134 -38.53540039 272.72631836 C-39.74727473 278.37093827 -41.7761769 283.39737673 -46.1171875 287.34375 C-49.36173529 289.22768098 -51.99580666 289.59481797 -55.66781998 289.60182858 C-56.62044322 289.60606962 -57.57306647 289.61031067 -58.55455709 289.61468023 C-59.60327261 289.6142941 -60.65198813 289.61390797 -61.73248291 289.61351013 C-62.84491702 289.61703698 -63.95735113 289.62056382 -65.10349536 289.62419754 C-68.85057657 289.63491658 -72.59763238 289.63857109 -76.34472656 289.64233398 C-79.02343467 289.64863681 -81.70213873 289.65534336 -84.38084412 289.66259766 C-90.15936196 289.67754252 -95.93787849 289.68908441 -101.71640778 289.69854546 C-110.07885944 289.71241525 -118.44128085 289.73360293 -126.80371079 289.75697399 C-140.38068937 289.79490327 -153.95767344 289.82986455 -167.53466797 289.86157227 C-168.34757312 289.86347276 -169.16047828 289.86537325 -169.99801692 289.86733133 C-181.52985652 289.89415334 -193.06170036 289.9180295 -204.59354874 289.94071633 C-205.40524114 289.94231363 -206.21693353 289.94391094 -207.05322266 289.94555664 C-208.26927836 289.94794684 -208.26927836 289.94794684 -209.50990084 289.95038532 C-223.03065026 289.97715905 -236.5513675 290.01156157 -250.07208228 290.05221039 C-258.41218543 290.07697747 -266.75225397 290.0953086 -275.09238806 290.105366 C-280.80930794 290.11276118 -286.52618136 290.12729381 -292.24307045 290.14743023 C-295.54111493 290.15881284 -298.83906995 290.16587046 -302.13713646 290.16642189 C-305.71450507 290.16750308 -309.29163043 290.1807394 -312.86895752 290.19700623 C-313.90875015 290.19438937 -314.94854279 290.19177252 -316.01984429 290.18907636 C-321.42498182 290.22751519 -325.94414947 290.6751282 -331.0546875 292.46875 C-331.25096141 294.05101965 -331.43634288 295.63464271 -331.6171875 297.21875 C-331.72160156 298.10046875 -331.82601562 298.9821875 -331.93359375 299.890625 C-332.14411701 303.31417404 -332.14411701 303.31417404 -331.0546875 306.46875 C-325.33380125 309.17894071 -319.36071708 308.74890359 -313.17419434 308.72703552 C-311.36588269 308.73254908 -311.36588269 308.73254908 -309.52103949 308.73817402 C-306.18264115 308.74642001 -302.84445761 308.74578637 -299.50606608 308.74144709 C-295.90273858 308.73896785 -292.29943855 308.74804296 -288.69612122 308.75582886 C-282.45437649 308.76786657 -276.21265728 308.7729814 -269.97090149 308.77371025 C-260.93985878 308.77503646 -251.90887799 308.79015284 -242.87785715 308.80920542 C-228.21659341 308.84003938 -213.55532811 308.86420902 -198.89404297 308.88208008 C-198.01677848 308.88315276 -197.139514 308.88422544 -196.23566574 308.88533062 C-186.44635748 308.89715291 -176.65704859 308.90735842 -166.86773682 308.91577148 C-163.31693521 308.91884548 -159.76613361 308.92193426 -156.21533203 308.92504883 C-155.3391371 308.92581417 -154.46294216 308.92657951 -153.56019586 308.92736804 C-138.95341062 308.94044687 -124.34667025 308.96508138 -109.73991823 308.99879223 C-100.73089128 309.01908639 -91.72196028 309.02937105 -82.71291029 309.02680302 C-76.54141546 309.0257684 -70.36999652 309.03539767 -64.19852817 309.05344205 C-60.63727165 309.06349165 -57.07618304 309.06861025 -53.51491737 309.06067467 C-49.65490343 309.05217556 -45.79517201 309.0667168 -41.93518066 309.08348083 C-40.80892068 309.07726902 -39.6826607 309.0710572 -38.52227163 309.06465715 C-31.69817023 309.11883071 -27.19280858 309.8536491 -21.8046875 314.34375 C-18.42070907 318.45286667 -17.65007507 322.14547011 -17.80078125 327.48046875 C-18.45096631 332.5719179 -21.23834669 336.23064265 -25.0546875 339.46875 C-27.95635288 341.18184567 -30.02504997 341.71203054 -33.3828125 341.6640625 C-34.18203125 341.65761719 -34.98125 341.65117187 -35.8046875 341.64453125 C-36.6296875 341.62777344 -37.4546875 341.61101562 -38.3046875 341.59375 C-39.14515625 341.58472656 -39.985625 341.57570313 -40.8515625 341.56640625 C-42.91939354 341.54290817 -44.98707745 341.50703908 -47.0546875 341.46875 C-46.838125 342.10039062 -46.6215625 342.73203125 -46.3984375 343.3828125 C-41.9703529 357.61008431 -43.57993587 370.41815995 -49.8671875 383.71875 C-55.7755798 394.91435889 -65.13401265 402.92427817 -77.0546875 407.46875 C-89.55006294 411.30504948 -104.15837966 410.83009073 -116.0546875 405.34375 C-128.72465333 398.52146071 -137.99503879 388.16053829 -142.73828125 374.5 C-145.61890503 363.85162519 -144.1796813 353.09371902 -142.0546875 342.46875 C-179.6746875 341.97375 -179.6746875 341.97375 -218.0546875 341.46875 C-217.0646875 344.43875 -216.0746875 347.40875 -215.0546875 350.46875 C-213.26400088 366.85353261 -216.86216519 380.35425515 -227.06640625 393.37109375 C-227.72253906 394.06332031 -228.37867188 394.75554687 -229.0546875 395.46875 C-229.7146875 395.46875 -230.3746875 395.46875 -231.0546875 395.46875 C-231.0546875 396.12875 -231.0546875 396.78875 -231.0546875 397.46875 C-244.51073707 407.68025677 -257.83315694 411.16332151 -274.64453125 409.16015625 C-283.51001568 407.39952402 -292.09097415 403.23068776 -299.0546875 397.46875 C-299.0546875 396.80875 -299.0546875 396.14875 -299.0546875 395.46875 C-300.0446875 395.13875 -301.0346875 394.80875 -302.0546875 394.46875 C-302.0546875 393.80875 -302.0546875 393.14875 -302.0546875 392.46875 C-302.7146875 392.46875 -303.3746875 392.46875 -304.0546875 392.46875 C-305.4921875 390.38671875 -305.4921875 390.38671875 -307.0546875 387.65625 C-308.66447022 384.86730144 -310.26740626 382.14967187 -312.0546875 379.46875 C-314.75483636 372.91655391 -315.36445669 366.34881414 -315.4296875 359.34375 C-315.44338379 358.60439209 -315.45708008 357.86503418 -315.47119141 357.10327148 C-315.42491246 351.45536387 -314.0916526 346.71660313 -312.0546875 341.46875 C-313.34761719 341.52675781 -314.64054688 341.58476562 -315.97265625 341.64453125 C-329.94755312 342.08343456 -340.38772699 340.68891089 -351.76171875 331.80078125 C-353.0546875 330.46875 -353.0546875 330.46875 -353.0546875 328.46875 C-353.7146875 328.46875 -354.3746875 328.46875 -355.0546875 328.46875 C-359.62083365 323.08858337 -362.17819248 317.19173217 -364.0546875 310.46875 C-364.5496875 308.98375 -364.5496875 308.98375 -365.0546875 307.46875 C-366.00236801 294.06140111 -364.16690943 283.33220381 -356.421875 272.015625 C-355.97070312 271.50515625 -355.51953125 270.9946875 -355.0546875 270.46875 C-354.3946875 270.46875 -353.7346875 270.46875 -353.0546875 270.46875 C-353.0546875 269.80875 -353.0546875 269.14875 -353.0546875 268.46875 C-345.13669551 260.0835473 -333.65182015 257.2956091 -322.56428552 256.91699064 C-316.81598707 256.82742255 -311.07134365 256.8571564 -305.32275391 256.90112305 C-302.72958911 256.90253523 -300.13642231 256.90173821 -297.54325867 256.89891052 C-291.98469527 256.89630332 -286.42642794 256.91183686 -280.867939 256.94009972 C-272.831596 256.98093469 -264.79539447 256.99377723 -256.75895898 257.00003967 C-243.71682925 257.01095171 -230.6748569 257.04414144 -217.6328125 257.09155273 C-204.97233867 257.13752873 -192.31190777 257.17288114 -179.65136719 257.1940918 C-178.86946548 257.19540541 -178.08756377 257.19671903 -177.28196807 257.19807246 C-173.35894648 257.20459819 -169.43592459 257.2109166 -165.5129025 257.21713197 C-133.02671631 257.2688686 -100.54072306 257.35684899 -68.0546875 257.46875 C-68.1165625 255.9528125 -68.1165625 255.9528125 -68.1796875 254.40625 C-68.04894907 250.28798948 -67.32217964 247.35044467 -66.0546875 243.46875 C-67.29451637 243.47520255 -68.53434525 243.4816551 -69.81174469 243.48830318 C-99.25251953 243.63995634 -128.69320556 243.75535744 -158.13427427 243.82620731 C-161.75911322 243.8349621 -165.38395134 243.84402237 -169.00878906 243.85327148 C-169.73041935 243.85510766 -170.45204965 243.85694383 -171.19554752 243.85883565 C-182.87528456 243.88928273 -194.55478005 243.94446785 -206.23437387 244.00881957 C-218.22156897 244.07431454 -230.2086377 244.11316864 -242.19600439 244.12736946 C-248.92804233 244.13610685 -255.65957691 244.15709475 -262.39143372 244.2088604 C-268.72805198 244.25637924 -275.06389721 244.27102925 -281.40067673 244.26050377 C-283.72589189 244.26242926 -286.05113294 244.27635007 -288.376194 244.30318832 C-291.55354196 244.33806498 -294.72797897 244.3296301 -297.90539551 244.31053162 C-298.82370226 244.33092151 -299.74200902 244.3513114 -300.68814325 244.37231916 C-306.85610432 244.27223306 -310.00681082 242.5972544 -314.48106337 238.37514549 C-317.16531398 235.12326141 -318.14022566 231.69892137 -319.1171875 227.65625 C-319.46523438 226.3722229 -319.46523438 226.3722229 -319.8203125 225.06225586 C-320.32241837 223.19745725 -320.81170537 221.32916999 -321.28955078 219.45800781 C-322.08855849 216.33642186 -322.92454399 213.22662752 -323.76953125 210.1171875 C-324.96965365 205.69695104 -326.15729136 201.27366564 -327.3359375 196.84765625 C-328.84687251 191.20272885 -330.43093581 185.58212093 -332.0546875 179.96875 C-334.32953522 172.09562636 -336.49617462 164.19718326 -338.6171875 156.28125 C-342.55746682 141.5824158 -346.54817535 126.91918425 -351.00024414 112.36572266 C-356.69741856 93.64726043 -356.69741856 93.64726043 -353.4296875 86.28125 C-350.81261043 81.47551418 -347.20261559 79.18472603 -342.0546875 77.46875 C-340.58193607 77.31008423 -339.10408994 77.19634662 -337.62524414 77.11157227 C-336.72902847 77.05804092 -335.83281281 77.00450958 -334.90943909 76.94935608 C-333.4518644 76.86807716 -333.4518644 76.86807716 -331.96484375 76.78515625 C-330.95111191 76.72472641 -329.93738007 76.66429657 -328.89292908 76.60203552 C-324.56446155 76.34415359 -320.23546964 76.09562074 -315.90649414 75.84643555 C-305.25804635 75.22881412 -294.63117178 74.59796305 -284.0234375 73.46484375 C-271.48673657 72.126847 -258.90965478 71.49569268 -246.32446289 70.79150391 C-235.02990333 70.15418239 -223.78342432 69.42640857 -212.53910828 68.1716156 C-205.80428895 67.42126432 -199.06909981 66.93582128 -192.3046875 66.53125 C-189.71731528 66.36768531 -187.13007444 66.20281567 -184.54296875 66.03515625 C-183.86899551 65.9915799 -183.19502228 65.94800354 -182.50062561 65.90310669 C-173.82550853 65.33394101 -165.1593404 64.64677183 -156.4921875 63.96875 C-145.18267275 63.08569737 -133.87329261 62.22885267 -122.5546875 61.46875 C-110.37714484 60.65049957 -98.2098103 59.7208414 -86.0418396 58.77301025 C-73.84424127 57.82383299 -61.64500334 56.92860447 -49.4375 56.11523438 C-42.30317237 55.63760448 -35.17843675 55.08459 -28.0546875 54.46875 C-27.90773438 53.24285156 -27.76078125 52.01695312 -27.609375 50.75390625 C-26.28761344 40.36761615 -24.49637868 30.16752955 -22.1171875 19.96875 C-21.87661621 18.90148682 -21.63604492 17.83422363 -21.38818359 16.73461914 C-19.80572477 10.1816435 -18.46772352 5.58483881 -12.48413086 1.875 C-8.17769634 0.10913805 -4.60658565 0.00113305 0 0 Z M-49.3984375 88.375 C-62.09422848 89.63263077 -74.80976867 90.39083699 -87.54345703 91.14599609 C-97.88731355 91.76381767 -108.2080898 92.43373922 -118.51953125 93.46875 C-131.05440292 94.72544863 -143.61683006 95.42104417 -156.19165039 96.14599609 C-166.49943595 96.74476139 -176.78197381 97.37719679 -187.05078125 98.46875 C-199.38548111 99.77983755 -211.75569662 100.43396963 -224.13671875 101.14599609 C-235.5615675 101.80833247 -246.95150237 102.54758383 -258.33007812 103.78991699 C-263.73455787 104.37491698 -269.12410979 104.73133734 -274.5546875 104.96875 C-275.44551025 105.00935547 -276.33633301 105.04996094 -277.25415039 105.09179688 C-277.9836792 105.12337891 -278.71320801 105.15496094 -279.46484375 105.1875 C-286.31413568 105.51118815 -293.15241993 105.98771912 -299.9921875 106.46875 C-301.20777344 106.55189453 -302.42335938 106.63503906 -303.67578125 106.72070312 C-305.3928125 106.84348633 -305.3928125 106.84348633 -307.14453125 106.96875 C-308.16409912 107.0409375 -309.18366699 107.113125 -310.23413086 107.1875 C-312.89643031 107.45296949 -315.443425 107.8942543 -318.0546875 108.46875 C-317.24620382 112.94177386 -316.03775285 117.28610055 -314.8046875 121.65625 C-314.35018486 123.27862467 -313.89575988 124.90102109 -313.44140625 126.5234375 C-313.2098584 127.34811523 -312.97831055 128.17279297 -312.73974609 129.02246094 C-312.09677622 131.31845458 -311.45908481 133.61581656 -310.82421875 135.9140625 C-309.11386846 142.1037696 -307.39962296 148.2915185 -305.6171875 154.4609375 C-302.64836356 164.73943218 -299.8380234 175.04229718 -297.17529297 185.40454102 C-295.56046023 191.64845351 -293.80829974 197.80994437 -291.81640625 203.9453125 C-291.07209752 206.41107372 -290.55981406 208.9431172 -290.0546875 211.46875 C-214.1546875 211.46875 -138.2546875 211.46875 -60.0546875 211.46875 C-58.61163235 207.86111212 -57.66103048 205.10145839 -56.94140625 201.390625 C-56.74820801 200.40868164 -56.55500977 199.42673828 -56.35595703 198.41503906 C-56.15341309 197.36026367 -55.95086914 196.30548828 -55.7421875 195.21875 C-55.29576264 192.93746287 -54.84914302 190.65621383 -54.40234375 188.375 C-54.17691895 187.21613281 -53.95149414 186.05726563 -53.71923828 184.86328125 C-53.11182552 181.76061149 -52.49167693 178.66097812 -51.86328125 175.5625 C-49.16451136 162.25110573 -46.61181423 148.91496719 -44.10327148 135.56671143 C-42.00265752 124.39170784 -39.84743616 113.23130456 -37.56445312 102.09179688 C-36.57382427 97.22777494 -35.6921408 92.39205952 -35.0546875 87.46875 C-39.88130132 87.32606723 -44.60569052 87.88112912 -49.3984375 88.375 Z M-279.9921875 349.15625 C-282.74907791 353.58398309 -283.32619661 357.29362175 -283.0546875 362.46875 C-281.21385574 368.96580325 -277.4768747 373.48748372 -271.6796875 376.84375 C-266.63668791 378.04446419 -262.64349677 378.09181246 -257.8671875 376.21875 C-256.475 375.3525 -256.475 375.3525 -255.0546875 374.46875 C-254.1678125 373.9325 -253.2809375 373.39625 -252.3671875 372.84375 C-248.56131128 368.93501227 -247.32553394 364.54181534 -246.8515625 359.1640625 C-247.04879547 353.4640296 -249.22363127 350.1533338 -253.1640625 346.1328125 C-257.38781363 342.41521337 -261.26515747 340.81460151 -266.97265625 341.0546875 C-272.29031255 342.11223266 -276.09474153 345.59050156 -279.9921875 349.15625 Z M-109.0546875 349.46875 C-112.05401719 354.12288228 -112.84563951 358.06210541 -112.0546875 363.46875 C-109.89071559 369.27730617 -106.41690418 372.94643259 -101.2421875 376.28125 C-96.08098242 378.20405189 -92.02839258 378.20405189 -86.8671875 376.28125 C-81.20280316 372.63086898 -78.16313068 368.90505025 -76.0546875 362.46875 C-75.23893925 356.96244931 -76.55982663 353.21078703 -79.375 348.55859375 C-82.70893609 344.41055699 -86.984397 342.04373168 -92.203125 341.06640625 C-99.57471896 340.71336056 -104.41477282 344.07641673 -109.0546875 349.46875 Z " fill="#FC4F00" transform="translate(868.0546875,126.53125)"/>
<path d="M0 0 C1.48667909 -0.00596161 1.48667909 -0.00596161 3.0033921 -0.01204365 C6.29813637 -0.0216071 9.59244483 -0.0098846 12.88717651 0.00190735 C15.25987914 -0.00052254 17.63258075 -0.00424378 20.00527954 -0.00915527 C26.43069441 -0.01853975 32.8559563 -0.00915979 39.2813592 0.00417686 C45.32928377 0.01565276 51.3772081 0.01187597 57.42514013 0.00997434 C69.40762853 0.00678978 81.39005734 0.01842237 93.37252808 0.03804016 C104.98712986 0.05705054 116.60166185 0.06412481 128.21627808 0.05854797 C140.88154718 0.05248459 153.54678566 0.05267684 166.21205223 0.06403381 C167.56348602 0.06524103 168.91491981 0.06644702 170.26635361 0.06765175 C170.93119272 0.06825529 171.59603183 0.06885883 172.28101758 0.06948065 C176.95615998 0.07335269 181.63128708 0.07290889 186.30643082 0.0710659 C192.60197547 0.06918098 198.89743074 0.07730275 205.19295502 0.0931263 C207.50200658 0.09736503 209.81106723 0.09822247 212.120121 0.0954361 C215.27418886 0.09220769 218.42799073 0.1013129 221.58203125 0.11352539 C222.49351681 0.10974607 223.40500237 0.10596674 224.3441087 0.10207289 C236.06996476 0.18226992 244.91519437 4.00030838 253.53903198 12.0617218 C260.57285288 23.02620732 261.40492091 32.67662401 261.29293823 45.29219055 C261.29376897 47.00225983 261.29623603 48.71232902 261.30024719 50.4223938 C261.30308786 53.98527911 261.28857061 57.54752973 261.26095581 61.11030579 C261.22679748 65.6562194 261.23293354 70.20100559 261.25161839 74.74697399 C261.26222817 78.27054096 261.25321592 81.79384937 261.23823357 85.31739235 C261.23308569 86.99297122 261.23349188 88.66857746 261.23977852 90.34415245 C261.2786483 106.91694857 261.2786483 106.91694857 256.66403198 114.3742218 C256.08653198 115.4054718 255.50903198 116.4367218 254.91403198 117.4992218 C248.54744501 125.63430516 240.9371714 130.94046751 230.66403198 132.3742218 C228.26165118 132.46811327 225.85705404 132.51215792 223.45285034 132.51948547 C222.75774857 132.52284409 222.06264679 132.5262027 221.34648132 132.52966309 C219.06559427 132.53910554 216.78478107 132.54111244 214.50387573 132.54219055 C212.91017121 132.54540652 211.31646698 132.54877085 209.72276306 132.55227661 C206.38994665 132.55825016 203.0571561 132.56011821 199.72433472 132.55952454 C195.45839437 132.55942272 191.19261973 132.57310275 186.92671871 132.59029675 C183.63843526 132.60142228 180.3501919 132.60344362 177.06189156 132.60291481 C175.48905425 132.60409301 173.91621584 132.60850585 172.34339714 132.61624718 C170.14408632 132.62606344 167.94513593 132.62316331 165.74581909 132.61714172 C163.87101112 132.61927925 163.87101112 132.61927925 161.95832825 132.62145996 C157.87057918 132.31467287 154.93965018 131.54541992 151.89840698 128.75312805 C151.40856323 128.15371399 150.91871948 127.55429993 150.41403198 126.9367218 C149.91387573 126.33988586 149.41371948 125.74304993 148.89840698 125.12812805 C146.1621967 121.24028496 146.19455252 116.94729951 146.66403198 112.3742218 C148.52171345 107.11079098 151.2319494 104.53999507 155.66403198 101.3742218 C159.1483552 100.15076962 162.58500884 100.22376268 166.25265503 100.18476868 C166.90512207 100.17647537 167.55758911 100.16818207 168.22982788 100.15963745 C169.6413657 100.14228813 171.05293149 100.12710752 172.46451378 100.11386108 C174.6957121 100.09278323 176.92676869 100.06576835 179.15788269 100.03718567 C184.69513878 99.96745991 190.23249498 99.90783517 195.76986694 99.84815979 C200.45621254 99.79730629 205.14247905 99.74252931 209.82871437 99.68234253 C212.03182785 99.65570063 214.23494852 99.63493302 216.43812561 99.61433411 C217.77995156 99.59773994 219.12177413 99.58086889 220.46359253 99.56367493 C221.6395549 99.55114685 222.81551727 99.53861877 224.02711487 99.52571106 C226.58807018 99.67197921 226.58807018 99.67197921 227.66403198 98.3742218 C227.78778367 96.35007189 227.84200509 94.32164443 227.86935425 92.29389954 C227.88929947 90.99262619 227.90924469 89.69135284 227.92979431 88.35064697 C227.94677997 86.9197044 227.96365873 85.48876056 227.98043823 84.05781555 C228.00100104 82.6019226 228.02199732 81.14603571 228.04341125 79.69015503 C228.09870159 75.85149534 228.14808 72.01278115 228.19625854 68.17402649 C228.2464229 64.25958892 228.30213534 60.34523084 228.35739136 56.43086243 C228.46505801 48.74538279 228.56648391 41.05983723 228.66403198 33.3742218 C225.92009188 32.60184943 223.48532064 32.24905467 220.63787079 32.24838066 C219.4435285 32.24446904 219.4435285 32.24446904 218.22505808 32.2404784 C217.35619266 32.24270912 216.48732724 32.24493984 215.59213257 32.24723816 C214.66457075 32.24567817 213.73700892 32.24411818 212.78133917 32.24251091 C209.66604885 32.23851492 206.55080706 32.24168518 203.43551636 32.24482727 C201.20499137 32.24347261 198.9744666 32.24169231 196.74394226 32.23951721 C190.68004879 32.23495059 184.61617229 32.23672929 178.55227852 32.2398963 C172.21334919 32.24242386 165.87442133 32.24008125 159.53549194 32.23851013 C148.2069882 32.23657291 136.87849309 32.23968523 125.54999107 32.24476947 C115.27696572 32.24923726 105.00395166 32.24846125 94.73092651 32.24385071 C82.80334441 32.23850011 70.87576917 32.23650669 58.94818544 32.23946297 C52.63350942 32.24102392 46.31884118 32.24122447 40.00416565 32.23792648 C34.06824148 32.235043 28.13233871 32.23703231 22.19641685 32.24282074 C20.0146914 32.24414576 17.83296415 32.24375857 15.6512394 32.24155807 C12.67944556 32.23883651 9.7077208 32.24224015 6.7359314 32.24723816 C5.86706598 32.24500744 4.99820056 32.24277672 4.10300589 32.2404784 C3.30677769 32.24308614 2.5105495 32.24569389 1.69019318 32.24838066 C1.00430823 32.24854301 0.31842328 32.24870537 -0.38824606 32.24887264 C-2.47042862 32.38287526 -4.33100897 32.80986 -6.33596802 33.3742218 C-6.38228863 41.53657493 -6.41783575 49.69887323 -6.43959236 57.86132526 C-6.45003392 61.65139721 -6.46419984 65.4413793 -6.48684692 69.23139954 C-6.50856215 72.88831657 -6.52053384 76.54514711 -6.5257225 80.20212364 C-6.52942065 81.59799244 -6.53664213 82.99385646 -6.54742813 84.38968849 C-6.56192465 86.34322629 -6.56278478 88.29685094 -6.5630188 90.2504425 C-6.56968063 91.9192321 -6.56968063 91.9192321 -6.57647705 93.62173462 C-6.53909632 96.58971034 -6.53909632 96.58971034 -4.33596802 99.3742218 C-2.45672119 99.82895229 -2.45672119 99.82895229 -0.26351929 99.75949097 C1.01496384 99.77396271 1.01496384 99.77396271 2.3192749 99.78872681 C3.25643341 99.78414963 4.19359192 99.77957245 5.15914917 99.77485657 C6.14466766 99.78183563 7.13018616 99.7888147 8.14556885 99.79600525 C11.4174339 99.81606937 14.6889857 99.81548214 17.96090698 99.81562805 C20.23054867 99.82739329 22.50018261 99.84075539 24.76980591 99.85565186 C30.75818276 99.89193329 36.74649092 99.91206435 42.73495483 99.92720032 C52.30676125 99.95197224 61.87841559 99.99170031 71.45008087 100.04910088 C74.79476969 100.06542725 78.13931555 100.06920815 81.48403931 100.07211304 C83.53980759 100.08189201 85.59557364 100.09215572 87.65133667 100.10298157 C88.58039825 100.10042862 89.50945984 100.09787567 90.4666748 100.09524536 C96.69378986 100.1444796 101.36553028 100.84188733 106.66403198 104.3742218 C106.66403198 105.0342218 106.66403198 105.6942218 106.66403198 106.3742218 C107.32403198 106.3742218 107.98403198 106.3742218 108.66403198 106.3742218 C111.23111861 111.18750924 111.11687081 116.06207398 110.66403198 121.3742218 C109.66403198 124.4992218 109.66403198 124.4992218 108.66403198 126.3742218 C108.00403198 126.3742218 107.34403198 126.3742218 106.66403198 126.3742218 C106.66403198 127.0342218 106.66403198 127.6942218 106.66403198 128.3742218 C106.00403198 128.3742218 105.34403198 128.3742218 104.66403198 128.3742218 C104.66403198 129.0342218 104.66403198 129.6942218 104.66403198 130.3742218 C99.71131294 133.00263777 94.78137071 132.65560245 89.32516479 132.63301086 C88.28550568 132.6365155 87.24584656 132.64002014 86.17468262 132.64363098 C82.73877273 132.6524307 79.30306896 132.64660352 75.86715698 132.6398468 C73.47447673 132.64119436 71.08179675 132.64313566 68.68911743 132.64564514 C63.67226558 132.64859437 58.65548493 132.64430668 53.63864136 132.63496399 C47.22187219 132.6235943 40.80527079 132.63011454 34.38850784 132.64210892 C29.4452896 132.64935395 24.50211076 132.64702702 19.5588913 132.64185333 C17.19390594 132.64052287 14.82891697 132.64214334 12.46393585 132.64681244 C9.14935409 132.65191832 5.8350393 132.64410926 2.52047729 132.63301086 C1.55081024 132.63705933 0.58114319 132.64110779 -0.41790771 132.64527893 C-8.910697 132.59286875 -16.20023395 131.65279632 -23.39846802 126.8742218 C-24.33819458 126.2657843 -25.27792114 125.6573468 -26.24612427 125.0304718 C-26.93577271 124.4839093 -27.62542114 123.9373468 -28.33596802 123.3742218 C-28.33596802 122.7142218 -28.33596802 122.0542218 -28.33596802 121.3742218 C-28.99596802 121.3742218 -29.65596802 121.3742218 -30.33596802 121.3742218 C-31.77346802 119.6164093 -31.77346802 119.6164093 -33.33596802 117.2492218 C-34.10940552 116.10066711 -34.10940552 116.10066711 -34.89846802 114.9289093 C-37.92511406 109.55003291 -38.63424467 104.5825834 -38.62649536 98.49214172 C-38.63321259 97.72543655 -38.63992981 96.95873138 -38.64685059 96.16879272 C-38.66576631 93.64735844 -38.66975159 91.12619128 -38.67190552 88.60469055 C-38.67833823 86.84120578 -38.68506694 85.07772207 -38.69207764 83.3142395 C-38.70403457 79.62156197 -38.70776013 75.92897787 -38.70657349 72.23628235 C-38.70637046 67.52215443 -38.73366251 62.80863047 -38.7681179 58.0946455 C-38.79043953 54.45275156 -38.79440941 50.81100172 -38.79335403 47.1690464 C-38.79570246 45.43203464 -38.80448293 43.69501844 -38.82001877 41.95807457 C-38.96032061 24.65101601 -38.96032061 24.65101601 -34.33596802 17.3742218 C-33.98061981 16.7626976 -33.62527161 16.1511734 -33.25915527 15.52111816 C-32.21096802 13.8117218 -32.21096802 13.8117218 -30.33596802 11.3742218 C-29.67596802 11.3742218 -29.01596802 11.3742218 -28.33596802 11.3742218 C-28.00596802 10.3842218 -27.67596802 9.3942218 -27.33596802 8.3742218 C-19.24008964 1.48411255 -10.40670517 -0.08460856 0 0 Z " fill="#FC4F00" transform="translate(163.33596801757813,259.6257781982422)"/>
<path d="M0 0 C1.44069853 -0.00668677 1.44069853 -0.00668677 2.91050208 -0.01350862 C3.97312117 -0.01332426 5.03574025 -0.01313989 6.13055992 -0.01294994 C7.81524708 -0.01846498 7.81524708 -0.01846498 9.53396833 -0.02409142 C13.32328065 -0.03516492 17.11256559 -0.03897832 20.90189171 -0.04278088 C23.60838622 -0.04850857 26.31487659 -0.05567627 29.02136803 -0.0626936 C37.16302056 -0.08247074 45.30467436 -0.09252668 53.44634491 -0.10142139 C57.27967635 -0.10580303 61.1130064 -0.11117023 64.94633675 -0.11641026 C77.68869363 -0.13342527 90.43104964 -0.14791893 103.17341614 -0.155159 C106.48134551 -0.15706892 109.78927487 -0.15898925 113.09720421 -0.16094494 C114.33047449 -0.16167055 114.33047449 -0.16167055 115.58865933 -0.16241082 C128.9042152 -0.17070916 142.21968118 -0.19604151 155.53519781 -0.22852562 C169.20393157 -0.26159963 182.87261965 -0.27960814 196.54139364 -0.28280324 C204.2166764 -0.28496823 211.89182815 -0.29371504 219.56707191 -0.31926441 C226.10466966 -0.34097628 232.64210459 -0.34901957 239.1797343 -0.33929763 C242.51453098 -0.33475389 245.8487195 -0.33882579 249.18351555 -0.35605907 C252.8023782 -0.37371416 256.4203885 -0.36670204 260.03925133 -0.35352612 C261.61310347 -0.36997998 261.61310347 -0.36997998 263.2187506 -0.38676625 C270.88686111 -0.31935675 276.45812667 1.1264912 281.96585655 6.63422108 C284.18725974 11.81749518 284.21355797 16.57986768 283.46585655 22.13422108 C281.30187442 26.79510566 278.21590392 30.08626611 273.46585655 32.13422108 C269.71246931 32.7211958 265.999123 32.68259295 262.20624352 32.6556139 C260.49805382 32.66709054 260.49805382 32.66709054 258.75535524 32.67879903 C254.93682578 32.69944802 251.11889841 32.69147717 247.30032921 32.68353748 C244.56367313 32.69004403 241.8270506 32.70246817 239.09041405 32.71451283 C232.42694163 32.74000281 225.76363042 32.74359474 219.10011746 32.7389123 C213.68316718 32.73534507 208.2662658 32.7388471 202.84932137 32.74736118 C202.0781183 32.74855156 201.30691524 32.74974194 200.51234239 32.75096839 C198.94559443 32.75339192 197.37884649 32.75582018 195.81209855 32.75825314 C181.12111176 32.78000282 166.4302168 32.77567989 151.73922484 32.76348345 C138.30421975 32.75314606 124.86950474 32.77565339 111.43455704 32.81367989 C97.63458955 32.85243964 83.83475927 32.86894815 70.03473699 32.86143339 C62.2890502 32.85760959 54.54361027 32.86258163 46.79796791 32.89086246 C40.20365306 32.91469616 33.609737 32.91749391 27.01541664 32.89328213 C23.65201488 32.88150722 20.28993966 32.88255055 16.92649078 32.90328693 C13.27679579 32.92416582 9.62906101 32.90806957 5.97943687 32.88266468 C4.39216819 32.90478754 4.39216819 32.90478754 2.77283347 32.92735732 C-4.26485227 32.82428321 -8.57110539 31.22167218 -13.53414345 26.13422108 C-16.78997693 21.25047086 -16.10289662 15.84281773 -15.53414345 10.13422108 C-12.48147984 3.5766474 -7.17285379 0.01539511 0 0 Z " fill="#FC4F00" transform="translate(140.53414344787598,494.86577892303467)"/>
<path d="M0 0 C3.92248215 2.7575556 7.27261386 6.03201064 10.72265625 9.3515625 C12.11685143 10.68530826 13.51264588 12.01738458 14.91015625 13.34765625 C15.56371094 13.9701123 16.21726562 14.59256836 16.890625 15.23388672 C18.43600299 16.65116967 20.07131145 17.96945544 21.72265625 19.26171875 C22.71265625 20.07962891 22.71265625 20.07962891 23.72265625 20.9140625 C23.72265625 21.5740625 23.72265625 22.2340625 23.72265625 22.9140625 C24.38265625 22.9140625 25.04265625 22.9140625 25.72265625 22.9140625 C27.34765625 24.2890625 27.34765625 24.2890625 28.72265625 25.9140625 C28.72265625 26.5740625 28.72265625 27.2340625 28.72265625 27.9140625 C29.29628906 28.15253906 29.86992187 28.39101562 30.4609375 28.63671875 C33.19204242 30.17915624 34.84743822 31.99472332 36.91015625 34.3515625 C37.60496094 35.13402344 38.29976563 35.91648438 39.015625 36.72265625 C41.73425506 40.21270537 42.06400423 43.42216229 42.0078125 47.7890625 C41.29445546 53.10503822 37.81037054 57.59279464 33.72265625 60.9140625 C28.93721191 62.41518083 23.52931435 62.94075254 18.7578125 61.1953125 C14.77570739 59.03434518 11.85551924 56.12684547 8.72265625 52.9140625 C8.71331055 54.05883057 8.70396484 55.20359863 8.69433594 56.38305664 C8.65429426 60.6531383 8.58849673 64.9225102 8.51513672 69.19213867 C8.48700903 71.03579553 8.46575386 72.87957113 8.45166016 74.72338867 C8.43011634 77.38261347 8.38340955 80.04042284 8.33203125 82.69921875 C8.33080261 83.51616714 8.32957397 84.33311554 8.32830811 85.17481995 C8.18452959 90.86424144 6.95199889 94.20794162 3.72265625 98.9140625 C-0.46010149 102.83539788 -4.53257964 103.24340668 -10.19140625 103.1171875 C-14.41697107 102.70570928 -17.8434439 101.58022801 -20.66972351 98.29614258 C-24.17013693 92.99219286 -25.01485707 88.89374816 -24.984375 82.6015625 C-24.99949631 81.74723633 -25.01461761 80.89291016 -25.03019714 80.01269531 C-25.07281462 77.3128771 -25.08188662 74.61418245 -25.08984375 71.9140625 C-25.11300836 70.07158525 -25.13837776 68.22913433 -25.16601562 66.38671875 C-25.22861106 61.89573515 -25.26114887 57.40544336 -25.27734375 52.9140625 C-25.880625 53.47996094 -26.48390625 54.04585937 -27.10546875 54.62890625 C-28.30429687 55.72912109 -28.30429687 55.72912109 -29.52734375 56.8515625 C-30.31625 57.58246094 -31.10515625 58.31335938 -31.91796875 59.06640625 C-36.25724882 62.46455107 -40.90614163 62.32227386 -46.27734375 61.9140625 C-50.78666084 60.76051627 -53.22850529 58.37490616 -56.27734375 54.9140625 C-58.81436639 50.62675944 -58.91625402 46.78471613 -58.27734375 41.9140625 C-54.60030152 32.96126403 -46.3396526 26.71142914 -39.1328125 20.5546875 C-37.29985526 18.93396741 -35.60077334 17.23667839 -33.90234375 15.4765625 C-31.27734375 12.9140625 -31.27734375 12.9140625 -29.27734375 12.9140625 C-29.00921875 12.2746875 -28.74109375 11.6353125 -28.46484375 10.9765625 C-27.27734375 8.9140625 -27.27734375 8.9140625 -24.27734375 7.9140625 C-23.94734375 6.9240625 -23.61734375 5.9340625 -23.27734375 4.9140625 C-16.51185325 -1.53675402 -8.87610975 -4.23251889 0 0 Z " fill="#FC4F00" transform="translate(339.27734375,112.0859375)"/>
<path d="M0 0 C5.14108422 2.81197424 9.18126326 7.03989466 13.22265625 11.21875 C15.05663374 13.05675821 16.96694292 14.74735358 18.9375 16.4375 C22.56024734 19.55278078 25.91505691 22.86970379 29.23828125 26.30078125 C31.09309306 28.19089136 31.09309306 28.19089136 34 30 C34 30.66 34 31.32 34 32 C34.66 32 35.32 32 36 32 C36 32.66 36 33.32 36 34 C37.485 34.495 37.485 34.495 39 35 C39 35.66 39 36.32 39 37 C39.66 37 40.32 37 41 37 C43.67860838 43.00008276 44.55710281 46.56397506 43 53 C40.51853469 57.96293061 37.28033396 61.18133312 32 63 C25.76371951 63.85575032 20.98008295 62.93302678 15.6875 59.5 C15.130625 59.005 14.57375 58.51 14 58 C14 57.34 14 56.68 14 56 C13.34 56 12.68 56 12 56 C12 55.34 12 54.68 12 54 C11.34 54 10.68 54 10 54 C10.0314209 55.61056274 10.0314209 55.61056274 10.06347656 57.25366211 C10.13639829 61.27354361 10.1819874 65.29336778 10.21972656 69.3137207 C10.2397241 71.04689395 10.26693148 72.78000075 10.30175781 74.51293945 C10.67204793 93.4249629 10.67204793 93.4249629 6 100 C2.44456463 103.55543537 -1.47592245 104.14686153 -6.375 104.25 C-10.61880052 104.18728374 -13.41811868 103.4156874 -17 101 C-21.81241653 95.66732222 -22.18100751 92.05960404 -22.31640625 85.0546875 C-22.33718735 84.1696756 -22.35796844 83.2846637 -22.37937927 82.37283325 C-22.44486598 79.54030259 -22.50375562 76.70767775 -22.5625 73.875 C-22.60568606 71.95702143 -22.64930037 70.03905246 -22.69335938 68.12109375 C-22.80054647 63.41415949 -22.9018164 58.70713033 -23 54 C-23.45375 54.495 -23.9075 54.99 -24.375 55.5 C-26 57 -26 57 -28 57 C-28 57.66 -28 58.32 -28 59 C-32.53803739 63.0518191 -36.95159872 63.21626156 -42.8046875 63.16796875 C-45.48686857 62.96274849 -47.61563213 62.23064148 -50 61 C-50 60.34 -50 59.68 -50 59 C-50.99 58.67 -51.98 58.34 -53 58 C-55.60608783 53.17391143 -56.59616744 49.56422944 -56 44 C-54.25473608 38.67235225 -51.97896768 35.84016648 -48 32 C-47.20980469 31.19820312 -46.41960937 30.39640625 -45.60546875 29.5703125 C-41.10635028 25.02031547 -36.5565984 20.62513332 -31.6875 16.47265625 C-30.27139667 15.23684386 -28.93664801 13.90866507 -27.625 12.5625 C-26 11 -26 11 -24 11 C-24 10.34 -24 9.68 -24 9 C-23.34 9 -22.68 9 -22 9 C-21.67 8.01 -21.34 7.02 -21 6 C-20.34 6 -19.68 6 -19 6 C-19 5.34 -19 4.68 -19 4 C-12.30081243 0.08160727 -7.79466565 -2.04055475 0 0 Z " fill="#FC4F00" transform="translate(216,111)"/>
<path d="M0 0 C1.06573746 -0.00350464 2.13147491 -0.00700928 3.22950745 -0.01062012 C6.74413612 -0.01940606 10.25856272 -0.01359966 13.77319336 -0.00683594 C16.21886738 -0.00818339 18.66454113 -0.01012459 21.11021423 -0.01263428 C26.23203078 -0.01558121 31.35377751 -0.0113013 36.47558594 -0.00195312 C43.04181245 0.0094471 49.60787557 0.00287549 56.17409611 -0.00909805 C61.2226637 -0.01632308 66.27119252 -0.01402585 71.31976128 -0.00884247 C73.74108334 -0.00750807 76.16240892 -0.00914635 78.58372688 -0.01380157 C81.96606916 -0.01887791 85.34814623 -0.01114096 88.73046875 0 C89.73164734 -0.00404846 90.73282593 -0.00809692 91.76434326 -0.01226807 C98.97698721 0.03176589 104.01459258 0.97284453 109.30053711 6.25878906 C112.4509701 11.71146154 112.76414614 16.20920507 111.30053711 22.25878906 C108.91039252 26.62698435 106.38292579 30.30994619 101.46365833 31.82423019 C99.15108634 32.28881288 97.0489235 32.39044434 94.69059753 32.39923096 C93.76965805 32.4049411 92.84871857 32.41065125 91.89987183 32.41653442 C90.89666901 32.41765228 89.89346619 32.41877014 88.85986328 32.41992188 C87.26651405 32.42736923 87.26651405 32.42736923 85.64097595 32.43496704 C82.12514601 32.44957804 78.60936118 32.45638881 75.09350586 32.46191406 C72.649765 32.46766624 70.20602416 32.47342396 67.76228333 32.47918701 C62.63693023 32.48969387 57.51159282 32.49553866 52.38623047 32.49902344 C45.82235124 32.50450849 39.25867941 32.52853833 32.69486523 32.55699539 C27.64621884 32.57562865 22.59762235 32.58082774 17.54894447 32.58235931 C15.1292641 32.58538463 12.70958458 32.59340904 10.28993797 32.60654449 C6.90293005 32.62361942 3.51642816 32.62172096 0.12939453 32.61523438 C-1.36630066 32.62905655 -1.36630066 32.62905655 -2.89221191 32.64315796 C-10.11596512 32.59987172 -14.84046395 31.50949036 -20.63696289 26.94628906 C-23.8053967 22.74283354 -23.43676354 17.66875222 -23.25024414 12.62207031 C-22.58237165 8.54378513 -21.44388287 6.41443709 -18.59790039 3.49316406 C-12.78510819 -0.28634691 -6.67007802 -0.02702641 0 0 Z " fill="#FC4F00" transform="translate(147.699462890625,441.7412109375)"/>
<path d="M0 0 C0 0.66 0 1.32 0 2 C0.66 2 1.32 2 2 2 C5.6419346 7.64128606 5.45177012 12.91665327 5.43359375 19.49609375 C5.4388356 20.60300064 5.44407745 21.70990753 5.44947815 22.85035706 C5.45588798 25.18611819 5.45457486 27.52191166 5.44604492 29.85766602 C5.43753706 33.42197422 5.46630978 36.98467814 5.49804688 40.54882812 C5.49965914 42.82291619 5.49908087 45.09700708 5.49609375 47.37109375 C5.51294472 48.96201088 5.51294472 48.96201088 5.53013611 50.58506775 C5.45781763 58.30311422 4.1400594 62.72733674 -1.3125 68.41015625 C-4.7349939 70.43480017 -7.04330902 70.50145513 -11 70.4375 C-12.19625 70.43621094 -13.3925 70.43492187 -14.625 70.43359375 C-18.36049261 69.95368671 -20.1039664 69.39216289 -23 67 C-27.56129211 60.80997639 -27.58648637 55.46741573 -27.53125 47.93359375 C-27.5350769 46.78133804 -27.53890381 45.62908234 -27.54284668 44.44190979 C-27.5455607 42.0137545 -27.53823544 39.58556973 -27.52148438 37.1574707 C-27.50004975 33.44611366 -27.52131544 29.73668817 -27.546875 26.02539062 C-27.54423202 23.66145407 -27.53910766 21.29751872 -27.53125 18.93359375 C-27.53934692 17.82721054 -27.54744385 16.72082733 -27.55578613 15.58091736 C-27.48091713 9.41705188 -27.18176512 5.65614714 -23 1 C-15.04312425 -5.13342506 -8.82861367 -4.95263694 0 0 Z " fill="#FC4F00" transform="translate(779,249)"/>
<path d="M0 0 C3.51791569 2.42326734 5.0162663 5.87609702 6.1875 9.875 C6.61302864 13.59693454 6.60836061 17.28811574 6.5859375 21.03125 C6.58880768 22.09234985 6.59167786 23.15344971 6.59463501 24.2467041 C6.59666965 26.48234595 6.59118193 28.71800584 6.57861328 30.95361328 C6.56255174 34.36401399 6.57848309 37.77322964 6.59765625 41.18359375 C6.59567371 43.36198177 6.59182982 45.54036905 6.5859375 47.71875 C6.59201019 48.73247681 6.59808289 49.74620361 6.6043396 50.79064941 C6.5319155 58.12684818 5.50860672 62.92656715 0.875 68.8125 C-3.32845552 71.98093381 -8.40253685 71.61230064 -13.44921875 71.42578125 C-17.52750393 70.75790876 -19.65685198 69.61941998 -22.578125 66.7734375 C-26.41133063 60.87806429 -26.11933576 54.58491034 -26.11328125 47.81640625 C-26.11756638 46.75389145 -26.1218515 45.69137665 -26.12626648 44.59666443 C-26.13199601 42.35505891 -26.13252021 40.1134348 -26.12817383 37.87182617 C-26.12501399 34.45263803 -26.14849066 31.03431568 -26.17382812 27.61523438 C-26.17610134 25.43229275 -26.17680451 23.24934882 -26.17578125 21.06640625 C-26.184991 20.04954239 -26.19420074 19.03267853 -26.20368958 17.98500061 C-26.15876132 11.05242885 -25.61749121 5.67999121 -20.5 0.5625 C-13.66948555 -3.72642768 -6.89552351 -4.40789794 0 0 Z " fill="#FC4F00" transform="translate(624.8125,248.125)"/>
<path d="M0 0 C6.66349649 6.66349649 6.15737084 13.31352911 6.16796875 22.18359375 C6.17296135 23.64418968 6.17296135 23.64418968 6.17805481 25.1342926 C6.18310294 27.18758677 6.18546379 29.24088909 6.18530273 31.29418945 C6.1874902 34.423478 6.2056712 37.55241431 6.22460938 40.68164062 C6.2275436 42.68229047 6.2295282 44.68294198 6.23046875 46.68359375 C6.23765427 47.61296249 6.24483978 48.54233124 6.25224304 49.49986267 C6.22537162 57.1948957 5.50425352 63.16215536 0 69 C-3.64396001 71.42930667 -5.53912081 71.29874985 -9.875 71.3125 C-11.08929687 71.32925781 -12.30359375 71.34601563 -13.5546875 71.36328125 C-17.37090621 70.96089084 -19.06142144 70.44549504 -22 68 C-26.51463326 61.84799716 -26.57373117 56.63334056 -26.49609375 49.15234375 C-26.49754898 48.02228409 -26.49900421 46.89222443 -26.50050354 45.72792053 C-26.49884858 43.3468263 -26.48733276 40.96572093 -26.46655273 38.5847168 C-26.43756762 34.94598873 -26.44595972 31.30871611 -26.45898438 27.66992188 C-26.45274734 25.35155544 -26.44435667 23.03319359 -26.43359375 20.71484375 C-26.43652939 19.63033432 -26.43946503 18.54582489 -26.44248962 17.42845154 C-26.37347031 11.88895981 -26.18867757 7.74812139 -23 3 C-16.32489581 -3.49469597 -8.22453935 -4.54514017 0 0 Z " fill="#FC4F00" transform="translate(727,248)"/>
<path d="M0 0 C3.77685889 3.07418747 5.73348356 5.4228408 6.6875 10.1875 C6.78120144 11.76855536 6.8254256 13.35295504 6.83276367 14.93676758 C6.83914352 15.87486771 6.84552338 16.81296783 6.85209656 17.77949524 C6.85320938 18.78683212 6.8543222 19.79416901 6.85546875 20.83203125 C6.86046135 22.39675423 6.86046135 22.39675423 6.86555481 23.99308777 C6.87061534 26.19957031 6.8729634 28.40606049 6.87280273 30.61254883 C6.87498499 33.97685472 6.89313852 37.34083041 6.91210938 40.70507812 C6.91504437 42.85156138 6.91702846 44.99804619 6.91796875 47.14453125 C6.92515427 48.14579544 6.93233978 49.14705963 6.93974304 50.17866516 C6.91997117 56.26811013 6.74496241 61.86040097 3.453125 67.18359375 C-1.51804294 71.9113282 -6.35743791 71.80054806 -13.0078125 71.69140625 C-16.69671362 71.12891424 -18.46461271 70.59909479 -21.3125 68.1875 C-25.65583137 62.02378518 -25.88856048 56.04981068 -25.80859375 48.71484375 C-25.8107766 47.09202232 -25.8107766 47.09202232 -25.81300354 45.43641663 C-25.81135053 43.15965062 -25.79985677 40.88287273 -25.77905273 38.60620117 C-25.75005979 35.13216471 -25.75846538 31.65965281 -25.77148438 28.18554688 C-25.76524724 25.96613846 -25.7568565 23.74673483 -25.74609375 21.52734375 C-25.74902939 20.49488022 -25.75196503 19.46241669 -25.75498962 18.39866638 C-25.66954993 11.83324176 -25.07728767 6.65645611 -20.85546875 1.359375 C-14.29554333 -3.62284683 -7.17519459 -3.92604987 0 0 Z " fill="#FC4F00" transform="translate(675.3125,247.8125)"/>
</svg>
