<?xml version="1.0" encoding="UTF-8"?>
<svg version="1.1" xmlns="http://www.w3.org/2000/svg" width="1004" height="1024">
<path d="M0 0 C1.03846069 0.00181274 1.03846069 0.00181274 2.09790039 0.00366211 C19.02323845 0.08406286 31.35480149 3.88943718 45.875 12.375 C45.875 13.035 45.875 13.695 45.875 14.375 C46.596875 14.6225 47.31875 14.87 48.0625 15.125 C51.15106582 16.49769592 53.38511418 18.09853296 55.875 20.375 C55.875 21.035 55.875 21.695 55.875 22.375 C56.865 22.705 57.855 23.035 58.875 23.375 C60.58850125 25.27725182 62.14658085 27.15304596 63.6875 29.1875 C64.35289795 30.06438477 64.35289795 30.06438477 65.03173828 30.95898438 C71.9255934 40.27812939 75.8568241 50.23096591 78.875 61.375 C79.0500708 61.97618652 79.2251416 62.57737305 79.40551758 63.19677734 C83.89846632 84.04237727 78.78875605 105.57331146 67.875 123.375 C69.11056641 123.72111328 69.11056641 123.72111328 70.37109375 124.07421875 C74.59750103 125.64321945 78.14293065 127.78179263 81.9375 130.1875 C82.63166016 130.61353516 83.32582031 131.03957031 84.04101562 131.47851562 C89.52507719 134.92102721 93.79205411 138.96065549 97.9375 143.9375 C99.49851494 145.8098531 101.05518525 147.54864627 102.8125 149.2421875 C109.30342638 155.95439546 117.875 167.68487428 117.875 177.375 C118.48303467 177.55313232 119.09106934 177.73126465 119.7175293 177.91479492 C133.0952339 181.87508844 146.36359829 186.25356702 158.90234375 192.41748047 C161.32991147 193.59581222 163.77400663 194.73664145 166.21875 195.87890625 C177.71087825 201.27019264 188.9760813 206.86171326 199.875 213.375 C200.51421387 213.75446777 201.15342773 214.13393555 201.81201172 214.52490234 C220.96428143 225.96868089 238.71977304 239.56040768 255.75 253.9375 C256.36391602 254.45062744 256.97783203 254.96375488 257.61035156 255.49243164 C259.07137849 256.74188335 260.47901808 258.05327244 261.875 259.375 C261.875 260.035 261.875 260.695 261.875 261.375 C262.4412207 261.61669922 263.00744141 261.85839844 263.59082031 262.10742188 C266.3272274 263.62595817 268.20569338 265.44651881 270.421875 267.65625 C271.26621094 268.49800781 272.11054687 269.33976562 272.98046875 270.20703125 C273.85316406 271.08746094 274.72585938 271.96789062 275.625 272.875 C276.95724609 274.19564453 276.95724609 274.19564453 278.31640625 275.54296875 C279.15558594 276.38472656 279.99476563 277.22648437 280.859375 278.09375 C282.01518066 279.25293945 282.01518066 279.25293945 283.19433594 280.43554688 C284.875 282.375 284.875 282.375 284.875 284.375 C285.865 284.705 286.855 285.035 287.875 285.375 C287.875 286.035 287.875 286.695 287.875 287.375 C288.535 287.375 289.195 287.375 289.875 287.375 C291.8203125 289.4921875 291.8203125 289.4921875 294 292.25 C294.72445312 293.15492188 295.44890625 294.05984375 296.1953125 294.9921875 C297.875 297.375 297.875 297.375 297.875 299.375 C298.535 299.375 299.195 299.375 299.875 299.375 C301.4473148 301.1719312 302.88513235 302.96678546 304.3125 304.875 C304.74481934 305.44581299 305.17713867 306.01662598 305.62255859 306.60473633 C309.18301197 311.35221965 312.61536025 316.18853014 316 321.0625 C316.48525146 321.75730469 316.97050293 322.45210938 317.47045898 323.16796875 C320.875 328.13346319 320.875 328.13346319 320.875 330.375 C321.535 330.375 322.195 330.375 322.875 330.375 C324.11181641 331.97973633 324.11181641 331.97973633 325.4765625 334.20703125 C326.21132812 335.40489258 326.21132812 335.40489258 326.9609375 336.62695312 C327.46882812 337.47193359 327.97671875 338.31691406 328.5 339.1875 C329.2734375 340.43756836 329.2734375 340.43756836 330.0625 341.71289062 C333.875 347.99141245 333.875 347.99141245 333.875 351.375 C334.535 351.375 335.195 351.375 335.875 351.375 C336.143125 351.92285156 336.41125 352.47070312 336.6875 353.03515625 C338.99150711 357.69622326 341.36421819 362.31013289 343.83447266 366.88476562 C347.46246702 373.60617424 350.83837729 380.36138108 353.875 387.375 C354.35710938 388.46296875 354.83921875 389.5509375 355.3359375 390.671875 C364.875 412.46161168 364.875 412.46161168 364.875 417.375 C365.803125 417.21 366.73125 417.045 367.6875 416.875 C381.52856829 414.96874509 396.10872934 416.71764391 408.875 422.375 C409.86242187 422.808125 410.84984375 423.24125 411.8671875 423.6875 C429.87520126 432.1187329 443.49277662 446.75739566 451.25 464.9375 C451.58386719 465.71649658 451.91773438 466.49549316 452.26171875 467.2980957 C456.07295917 476.65661224 457.24564866 485.62441127 457.1875 495.6875 C457.18258545 496.6978833 457.1776709 497.7082666 457.17260742 498.74926758 C456.93187931 514.12006644 451.88609413 526.87215204 444.875 540.375 C445.98875 540.725625 447.1025 541.07625 448.25 541.4375 C453.76734516 543.52226135 458.2084113 546.82343692 462.875 550.375 C463.81085937 551.08140625 464.74671875 551.7878125 465.7109375 552.515625 C471.0205414 556.67602696 475.42103726 560.82966613 479.33984375 566.33203125 C480.85640689 568.45261439 480.85640689 568.45261439 482.88671875 570.37109375 C488.33767009 575.86488164 491.34030666 583.05525053 494.0625 590.1875 C494.3001709 590.80206055 494.5378418 591.41662109 494.78271484 592.04980469 C499.05724895 603.73373067 500.38832358 614.95719853 500.32104492 627.29711914 C500.31244751 629.70218266 500.34155527 632.10492976 500.37304688 634.50976562 C500.41601808 643.65205161 500.12327305 650.34714695 493.98046875 657.6171875 C493.34753906 658.15601563 492.71460938 658.69484375 492.0625 659.25 C491.43730469 659.80429687 490.81210937 660.35859375 490.16796875 660.9296875 C484.69434981 664.37983913 478.79632489 664.68358133 472.52734375 664.67578125 C471.75242081 664.68006638 470.97749786 664.6843515 470.17909241 664.68876648 C468.55128959 664.69447577 466.92346128 664.69503532 465.2956543 664.69067383 C462.81580014 664.68750422 460.33712982 664.71104752 457.85742188 664.73632812 C456.26823066 664.73860064 454.67903626 664.73930483 453.08984375 664.73828125 C451.98805031 664.75209587 451.98805031 664.75209587 450.86399841 664.76618958 C446.12243021 664.72385873 442.90175593 663.87504861 438.875 661.375 C434.25713543 656.38271397 433.57383122 652.46838332 433.66015625 645.87890625 C434.06914468 641.11233196 435.88571804 638.33824823 439.25 635.0625 C443.31998634 632.44608021 447.19921279 632.24815468 451.95703125 632.27734375 C452.88837891 632.28056641 453.81972656 632.28378906 454.77929688 632.28710938 C455.73900391 632.29548828 456.69871094 632.30386719 457.6875 632.3125 C458.66654297 632.31701172 459.64558594 632.32152344 460.65429688 632.32617188 C463.06126111 632.33791316 465.46809857 632.35433581 467.875 632.375 C467.28501546 613.6989377 463.86864542 599.32929341 451.875 584.375 C451.215 584.045 450.555 583.715 449.875 583.375 C449.875 582.715 449.875 582.055 449.875 581.375 C449.215 581.375 448.555 581.375 447.875 581.375 C447.875 580.715 447.875 580.055 447.875 579.375 C447.28976562 579.09398437 446.70453125 578.81296875 446.1015625 578.5234375 C444.04000268 577.46010664 442.17658041 576.28711968 440.25 575 C432.6955766 570.20939004 423.92020561 566.47862827 414.875 567.375 C411.29522778 568.5328286 411.29522778 568.5328286 407.8125 570.1875 C391.48439331 577.17294001 375.59095829 577.92262427 358.4375 574.125 C357.51380615 573.92068359 356.5901123 573.71636719 355.63842773 573.50585938 C350.58861621 572.29540396 346.1904501 570.77896462 341.66870117 568.20825195 C337.08689917 566.0798063 332.62728023 566.82448415 327.953125 568.29296875 C322.01003981 570.62344251 316.77701746 573.48653676 311.6171875 577.23828125 C309.875 578.375 309.875 578.375 307.875 578.375 C307.606875 579.014375 307.33875 579.65375 307.0625 580.3125 C305.875 582.375 305.875 582.375 302.875 583.375 C302.15615823 584.68094362 301.49742573 586.02044899 300.875 587.375 C299.78748283 588.88711456 298.68163223 590.38613228 297.5625 591.875 C290.90588359 601.46550972 288.60259161 609.84795645 287.234375 621.30078125 C287.10144043 622.36703735 286.96850586 623.43329346 286.83154297 624.53186035 C286.50657019 627.14554909 286.18790324 629.75984361 285.875 632.375 C287.07467911 632.36833817 288.27435822 632.36167633 289.51039124 632.35481262 C300.82489748 632.2939561 312.13937046 632.24900547 323.45400333 632.21956348 C329.27075594 632.20391815 335.08737626 632.18270028 340.90405273 632.14868164 C346.51911657 632.11604822 352.13405327 632.09813846 357.74920464 632.09036827 C359.88978514 632.08483195 362.03035881 632.07402086 364.17088509 632.05780983 C367.17275062 632.03598293 370.17409306 632.03303532 373.17602539 632.03442383 C374.49880745 632.01824509 374.49880745 632.01824509 375.84831238 632.0017395 C382.05707138 632.03274582 386.98064294 632.92244304 391.87109375 637.06640625 C395.40348837 641.65181824 396.71226014 645.15252162 396.3359375 650.9765625 C395.43430982 655.66808279 393.38601851 658.95842015 389.875 662.25 C386.48251801 664.15827112 383.1741779 664.50949834 379.328125 664.69140625 C378.48378906 664.73330078 377.63945313 664.77519531 376.76953125 664.81835938 C375.89683594 664.85767578 375.02414062 664.89699219 374.125 664.9375 C372.79275391 665.00227539 372.79275391 665.00227539 371.43359375 665.06835938 C369.24754037 665.17413615 367.06137911 665.27622546 364.875 665.375 C364.66407715 665.94307373 364.4531543 666.51114746 364.23583984 667.09643555 C360.15326405 678.05382087 355.95495058 688.83471606 350.875 699.375 C350.18810869 700.85714976 349.50337176 702.34029907 348.8203125 703.82421875 C343.97496526 714.29940815 338.77240894 724.45288998 332.875 734.375 C332.49263184 735.02001465 332.11026367 735.6650293 331.71630859 736.32958984 C323.52594315 750.03473318 314.24591071 763.05212576 304.30078125 775.5390625 C302.81057889 777.45795321 301.43635937 779.43412005 300.0625 781.4375 C299.340625 782.406875 298.61875 783.37625 297.875 784.375 C297.215 784.375 296.555 784.375 295.875 784.375 C295.58625 784.973125 295.2975 785.57125 295 786.1875 C293.875 788.375 293.875 788.375 291.875 791.375 C291.215 791.375 290.555 791.375 289.875 791.375 C289.606875 791.95765625 289.33875 792.5403125 289.0625 793.140625 C287.86019009 795.40286601 286.53674087 797.18076318 284.875 799.125 C284.359375 799.73859375 283.84375 800.3521875 283.3125 800.984375 C281.875 802.375 281.875 802.375 279.875 802.375 C279.875 803.035 279.875 803.695 279.875 804.375 C279.215 804.375 278.555 804.375 277.875 804.375 C277.545 805.365 277.215 806.355 276.875 807.375 C276.215 807.375 275.555 807.375 274.875 807.375 C274.875 808.035 274.875 808.695 274.875 809.375 C273.5 811 273.5 811 271.875 812.375 C271.215 812.375 270.555 812.375 269.875 812.375 C269.875 813.035 269.875 813.695 269.875 814.375 C268.51171875 815.75 268.51171875 815.75 266.5625 817.375 C262.1041007 821.15908624 257.79382292 825.08635665 253.48828125 829.04296875 C246.39258794 835.375 246.39258794 835.375 243.875 835.375 C243.875 836.035 243.875 836.695 243.875 837.375 C242.13951831 838.82026736 240.33524037 840.1837222 238.5 841.5 C237.50226562 842.22445312 236.50453125 842.94890625 235.4765625 843.6953125 C232.875 845.375 232.875 845.375 230.875 845.375 C230.875 846.035 230.875 846.695 230.875 847.375 C226.49038462 850.375 226.49038462 850.375 223.875 850.375 C223.875 851.035 223.875 851.695 223.875 852.375 C222.12524414 853.72851563 222.12524414 853.72851563 219.66015625 855.28125 C218.75475098 855.85536621 217.8493457 856.42948242 216.91650391 857.02099609 C215.93343262 857.63281738 214.95036133 858.24463867 213.9375 858.875 C212.93638184 859.5035791 211.93526367 860.1321582 210.90380859 860.77978516 C181.72408205 879.02234567 150.972696 894.5524141 117.875 904.375 C117.0711084 904.61686035 116.2672168 904.8587207 115.43896484 905.10791016 C106.33299929 907.82449574 97.31798348 910.13445119 87.875 911.375 C87.875 912.035 87.875 912.695 87.875 913.375 C88.68710938 913.69984375 88.68710938 913.69984375 89.515625 914.03125 C92.69145344 915.83999997 95.08228081 918.29223799 97.625 920.875 C98.13160156 921.37386719 98.63820313 921.87273438 99.16015625 922.38671875 C102.875 926.12158861 102.875 926.12158861 102.875 928.375 C103.535 928.375 104.195 928.375 104.875 928.375 C111.71587279 938.00960671 117.83004592 948.91771514 120.875 960.375 C121.15472656 961.39851562 121.43445313 962.42203125 121.72265625 963.4765625 C123.85895965 972.7570619 124.19124944 981.86334341 124.25 991.375 C124.26377686 992.62764648 124.27755371 993.88029297 124.29174805 995.17089844 C124.2507379 1003.32699615 123.84851336 1011.14176867 117.875 1017.375 C117.215 1017.375 116.555 1017.375 115.875 1017.375 C115.545 1018.365 115.215 1019.355 114.875 1020.375 C109.63973662 1024.30667559 104.22845782 1024.95373619 97.88049316 1024.88293457 C97.00950564 1024.88917453 96.13851811 1024.8954145 95.24113703 1024.90184355 C92.34081605 1024.91771872 89.44134191 1024.90519082 86.54101562 1024.89257812 C84.45431531 1024.89800167 82.36761882 1024.90512563 80.28092957 1024.91381836 C74.625992 1024.93202682 68.97134691 1024.92499427 63.31640434 1024.91230202 C57.39309792 1024.9021616 51.46981622 1024.9115706 45.54650879 1024.91784668 C35.60013339 1024.92512003 25.65387687 1024.91554351 15.70751953 1024.89648438 C4.2148856 1024.87471633 -7.27746447 1024.88176791 -18.77009153 1024.90379 C-28.6446308 1024.92195283 -38.5190847 1024.92449797 -48.39363527 1024.91403532 C-54.28812086 1024.90780529 -60.1824731 1024.90695139 -66.07695007 1024.92018127 C-71.61909433 1024.93175189 -77.16087326 1024.92369153 -82.70297813 1024.90060425 C-84.73466575 1024.89532369 -86.7663842 1024.89681973 -88.79805946 1024.90565491 C-91.57594978 1024.91661969 -94.35267656 1024.90283551 -97.13049316 1024.88293457 C-97.93050546 1024.89185746 -98.73051776 1024.90078034 -99.55477285 1024.90997362 C-105.00740447 1024.83443642 -109.68936548 1023.70615542 -114.125 1020.375 C-114.455 1019.385 -114.785 1018.395 -115.125 1017.375 C-115.785 1017.375 -116.445 1017.375 -117.125 1017.375 C-120.62571321 1011.27698345 -122.28821357 1007.66361203 -122.328125 1000.54296875 C-122.33382507 999.75537674 -122.33952515 998.96778473 -122.34539795 998.15632629 C-122.35486055 996.48094019 -122.36138692 994.80553536 -122.36523438 993.13012695 C-122.37481748 990.61048796 -122.4057746 988.09170871 -122.4375 985.57226562 C-122.5697899 965.55570041 -117.12148621 949.01183103 -106.125 932.375 C-105.42503906 931.25996094 -104.72507812 930.14492188 -104.00390625 928.99609375 C-103.07384766 927.69865234 -103.07384766 927.69865234 -102.125 926.375 C-101.465 926.375 -100.805 926.375 -100.125 926.375 C-99.8671875 925.79234375 -99.609375 925.2096875 -99.34375 924.609375 C-98.02665983 922.1947097 -96.57411616 920.55759823 -94.625 918.625 C-94.0165625 918.01140625 -93.408125 917.3978125 -92.78125 916.765625 C-91.125 915.375 -91.125 915.375 -89.125 915.375 C-89.125 914.715 -89.125 914.055 -89.125 913.375 C-87.125 911.75 -87.125 911.75 -85.125 910.375 C-86.41857422 910.04628906 -86.41857422 910.04628906 -87.73828125 909.7109375 C-114.16563203 902.8459657 -139.80485688 893.78017121 -164.14648438 881.37597656 C-166.01290505 880.43171142 -167.88663827 879.50489549 -169.765625 878.5859375 C-178.08572338 874.50050803 -186.12925507 870.0533614 -194.125 865.375 C-194.125 864.715 -194.125 864.055 -194.125 863.375 C-194.64707031 863.29894531 -195.16914063 863.22289062 -195.70703125 863.14453125 C-199.13175825 862.0545939 -201.8745815 860.0762809 -204.8125 858.0625 C-205.45517822 857.62679687 -206.09785645 857.19109375 -206.76000977 856.7421875 C-208.88700949 855.29410427 -211.00620652 853.83506003 -213.125 852.375 C-214.29385742 851.57570068 -214.29385742 851.57570068 -215.48632812 850.76025391 C-217.8510789 849.14037081 -220.2080028 847.5097428 -222.5625 845.875 C-223.31426514 845.35897217 -224.06603027 844.84294434 -224.84057617 844.3112793 C-225.53127197 843.82699463 -226.22196777 843.34270996 -226.93359375 842.84375 C-227.55032959 842.41513672 -228.16706543 841.98652344 -228.80249023 841.54492188 C-229.23891846 841.15884766 -229.67534668 840.77277344 -230.125 840.375 C-230.125 839.715 -230.125 839.055 -230.125 838.375 C-230.68703125 838.1171875 -231.2490625 837.859375 -231.828125 837.59375 C-234.39204579 836.23330223 -236.57726365 834.64711038 -238.875 832.875 C-239.67421875 832.2665625 -240.4734375 831.658125 -241.296875 831.03125 C-241.90015625 830.4846875 -242.5034375 829.938125 -243.125 829.375 C-243.125 828.715 -243.125 828.055 -243.125 827.375 C-243.7025 827.106875 -244.28 826.83875 -244.875 826.5625 C-247.18050043 825.34570811 -249.14556192 824.07166121 -251.125 822.375 C-251.125 821.715 -251.125 821.055 -251.125 820.375 C-251.68727295 820.13797363 -252.2495459 819.90094727 -252.82885742 819.65673828 C-255.65148833 818.08110699 -257.58272006 816.15925642 -259.86328125 813.8671875 C-261.21776367 812.50980469 -261.21776367 812.50980469 -262.59960938 811.125 C-263.0664917 810.65191406 -263.53337402 810.17882812 -264.0144043 809.69140625 C-265.41734121 808.27041817 -266.82873493 806.85779557 -268.24023438 805.4453125 C-282.57808322 791.01575033 -282.57808322 791.01575033 -284.125 786.375 C-284.785 786.375 -285.445 786.375 -286.125 786.375 C-287.6328125 784.6953125 -287.6328125 784.6953125 -289.25 782.5 C-289.78882813 781.78070312 -290.32765625 781.06140625 -290.8828125 780.3203125 C-292.125 778.375 -292.125 778.375 -292.125 776.375 C-292.785 776.375 -293.445 776.375 -294.125 776.375 C-295.38671875 774.96069336 -295.38671875 774.96069336 -296.8125 772.96484375 C-297.34141846 772.22967529 -297.87033691 771.49450684 -298.4152832 770.73706055 C-298.97948975 769.93695557 -299.54369629 769.13685059 -300.125 768.3125 C-300.70660889 767.49628174 -301.28821777 766.68006348 -301.88745117 765.83911133 C-307.12395745 758.45429478 -312.2213615 750.98490187 -317.125 743.375 C-317.48964355 742.80942383 -317.85428711 742.24384766 -318.22998047 741.66113281 C-322.35575285 735.21753176 -326.08554359 728.69988121 -329.421875 721.81640625 C-332.0089439 716.58886565 -334.76815973 711.45280606 -337.52294922 706.31201172 C-342.02589859 697.83849014 -345.72425981 689.08068065 -349.3125 680.1875 C-349.66763672 679.32447266 -350.02277344 678.46144531 -350.38867188 677.57226562 C-350.72833984 676.72986328 -351.06800781 675.88746094 -351.41796875 675.01953125 C-351.7224292 674.27034424 -352.02688965 673.52115723 -352.34057617 672.74926758 C-353.25404667 669.98440589 -353.6707266 667.24747422 -354.125 664.375 C-354.79368638 664.37684359 -355.46237276 664.37868717 -356.15132236 664.38058662 C-372.43525655 664.42478943 -388.71917168 664.45786813 -405.00315189 664.47862434 C-412.87801839 664.48892914 -420.75284479 664.50297423 -428.62768555 664.52587891 C-435.49281178 664.54583719 -442.35790897 664.55872223 -449.22306341 664.56317699 C-452.85682009 664.56578024 -456.4904937 664.57188238 -460.12422371 664.58646011 C-464.1844969 664.60261634 -468.2446264 664.60297812 -472.30493164 664.60205078 C-473.50471146 664.60924133 -474.70449127 664.61643188 -475.94062805 664.62384033 C-483.61431846 664.60486566 -490.33457179 664.5737982 -496.3125 659.1875 C-497.26189453 658.36185547 -497.26189453 658.36185547 -498.23046875 657.51953125 C-503.19942943 651.89487267 -504.73335726 647.37390607 -504.62109375 640.0546875 C-504.62254898 639.27417023 -504.62400421 638.49365295 -504.62550354 637.68948364 C-504.62385168 636.04392757 -504.61237069 634.3983549 -504.59155273 632.75292969 C-504.56281688 630.27729968 -504.57091532 627.80384737 -504.58398438 625.328125 C-504.57206156 615.97241323 -503.82951774 607.40297236 -501.125 598.375 C-500.90078369 597.61944824 -500.67656738 596.86389648 -500.44555664 596.08544922 C-497.39889465 586.52670585 -493.21928607 577.3909078 -487.125 569.375 C-486.465 569.375 -485.805 569.375 -485.125 569.375 C-484.85300781 568.78976562 -484.58101563 568.20453125 -484.30078125 567.6015625 C-477.53585436 554.79090361 -461.7386054 545.55309244 -449.125 539.375 C-450.2078125 537.7971875 -450.2078125 537.7971875 -451.3125 536.1875 C-458.9271474 523.96512563 -461.51561675 510.75031263 -461.4375 496.5625 C-461.43012817 494.97646973 -461.43012817 494.97646973 -461.42260742 493.35839844 C-461.30664451 485.62515894 -460.67245636 478.72975305 -458.125 471.375 C-457.7846875 470.39015625 -457.444375 469.4053125 -457.09375 468.390625 C-454.10316436 460.59085433 -450.05718392 453.1254504 -445.125 446.375 C-444.465 446.375 -443.805 446.375 -443.125 446.375 C-442.87492187 445.80265625 -442.62484375 445.2303125 -442.3671875 444.640625 C-435.02754742 431.25386007 -417.68129785 422.79204433 -403.625 418.625 C-389.87013107 415.17164993 -375.96290925 415.91293043 -362.125 418.375 C-360.1252502 418.70983109 -358.12532183 419.0436034 -356.125 419.375 C-353.95622507 414.16071135 -351.9565524 408.94746156 -350.25 403.5625 C-348.27760972 397.56155969 -345.75579292 391.94344043 -343.01855469 386.25634766 C-342.05445018 384.22645987 -341.12351763 382.18325988 -340.1953125 380.13671875 C-329.81972268 357.45576203 -317.03266248 336.15818177 -302.32226562 316.03955078 C-301.46049654 314.84143871 -300.6176135 313.62966034 -299.78710938 312.40966797 C-298.61327856 310.69833264 -297.37381807 309.03240787 -296.125 307.375 C-295.465 307.375 -294.805 307.375 -294.125 307.375 C-293.8775 306.65957031 -293.63 305.94414062 -293.375 305.20703125 C-291.98636405 302.06090294 -290.28036054 299.73689037 -288.125 297.0625 C-287.42375 296.17949219 -286.7225 295.29648437 -286 294.38671875 C-285.071875 293.39091797 -285.071875 293.39091797 -284.125 292.375 C-283.465 292.375 -282.805 292.375 -282.125 292.375 C-281.85945312 291.78799316 -281.59390625 291.20098633 -281.3203125 290.59619141 C-280.09096673 288.31175762 -278.77894008 286.71571866 -277 284.8359375 C-276.38068604 284.17779053 -275.76137207 283.51964355 -275.12329102 282.84155273 C-274.46385498 282.15134033 -273.80441895 281.46112793 -273.125 280.75 C-272.44945068 280.037229 -271.77390137 279.32445801 -271.07788086 278.59008789 C-250.17139387 256.6033038 -250.17139387 256.6033038 -243.125 253.375 C-243.125 252.715 -243.125 252.055 -243.125 251.375 C-242.135 251.375 -241.145 251.375 -240.125 251.375 C-239.8775 250.78589844 -239.63 250.19679687 -239.375 249.58984375 C-236.84898821 245.11406662 -232.18314741 242.40679015 -228.125 239.375 C-227.48965332 238.89853027 -226.85430664 238.42206055 -226.19970703 237.93115234 C-214.86920692 229.48069918 -203.18754708 221.73619427 -191.125 214.375 C-190.39394043 213.92495605 -189.66288086 213.47491211 -188.90966797 213.01123047 C-179.24215713 207.07894386 -169.40036434 201.94996977 -159.06787109 197.27807617 C-157.09580265 196.36142862 -155.15990749 195.39024071 -153.22265625 194.40234375 C-148.77707685 192.15976339 -144.21980029 190.22638551 -139.625 188.3125 C-138.82191406 187.97412109 -138.01882813 187.63574219 -137.19140625 187.28710938 C-134.84134792 186.30252254 -132.48560741 185.33399676 -130.125 184.375 C-129.38765625 184.07352051 -128.6503125 183.77204102 -127.890625 183.46142578 C-124.37814381 182.07513402 -121.95259275 181.375 -118.125 181.375 C-117.939375 180.17875 -117.75375 178.9825 -117.5625 177.75 C-115.23898874 167.43231012 -109.62906966 158.31787121 -102.82421875 150.36328125 C-100.97638761 148.28087227 -100.97638761 148.28087227 -99.125 145.375 C-98.465 145.375 -97.805 145.375 -97.125 145.375 C-96.8671875 144.78203125 -96.609375 144.1890625 -96.34375 143.578125 C-95.02730105 141.19839035 -93.69919218 139.86521208 -91.625 138.125 C-91.0165625 137.60421875 -90.408125 137.0834375 -89.78125 136.546875 C-88.125 135.375 -88.125 135.375 -86.125 135.375 C-86.125 134.715 -86.125 134.055 -86.125 133.375 C-84.08746024 131.94305405 -82.07213033 130.64610673 -79.9375 129.375 C-79.35935547 129.01921875 -78.78121094 128.6634375 -78.18554688 128.296875 C-74.92558386 126.32247932 -71.70937704 124.67104594 -68.125 123.375 C-69.26693545 119.53394438 -70.75670584 116.03136795 -72.5 112.4375 C-81.27283189 92.96545771 -82.26652307 70.75065124 -74.99365234 50.55810547 C-66.81219977 29.99639976 -50.46742696 13.50708897 -30.1875 4.6875 C-20.2253601 0.48065413 -10.73631479 -0.03445626 0 0 Z M-13.125 33.375 C-13.94355469 33.62121094 -14.76210938 33.86742187 -15.60546875 34.12109375 C-23.53822526 36.88833439 -30.5665713 42.06591533 -36.125 48.375 C-36.125 49.035 -36.125 49.695 -36.125 50.375 C-36.785 50.375 -37.445 50.375 -38.125 50.375 C-45.27701622 63.64638838 -49.67022804 75.93965606 -45.8125 91.15625 C-43.51459286 98.57222303 -39.97472769 104.36239483 -35.125 110.375 C-34.485625 111.261875 -33.84625 112.14875 -33.1875 113.0625 C-25.37669758 121.82006635 -14.07694296 125.93335592 -2.66796875 127.21484375 C8.39241022 127.71481678 17.1669734 124.42762268 26.875 119.375 C26.875 118.715 26.875 118.055 26.875 117.375 C27.62007812 117.12234375 28.36515625 116.8696875 29.1328125 116.609375 C38.23396035 112.51256201 43.39993506 101.21878846 46.875 92.375 C49.81750465 76.94811147 47.65277377 63.43116925 39.04296875 50.2890625 C32.39475429 41.35290396 22.68869045 34.98001108 11.875 32.375 C3.31632671 31.22767515 -4.81888303 30.82034554 -13.125 33.375 Z M-64.125 158.375 C-64.96933594 158.96152344 -65.81367188 159.54804688 -66.68359375 160.15234375 C-79.13933197 169.42305302 -85.32128163 181.9638449 -90.125 196.375 C-90.125 202.645 -90.125 208.915 -90.125 215.375 C-30.065 215.375 29.995 215.375 91.875 215.375 C90.71196586 193.2773514 87.87584593 178.44861512 71.9375 163.4375 C62.97821801 155.88847536 51.82229276 149.23701986 39.875 148.375 C36.56576377 149.44165187 36.56576377 149.44165187 33.25 151.125 C22.60636586 156.23592922 12.26894329 157.91722081 0.5 157.8125 C-0.6859375 157.80565186 -1.871875 157.79880371 -3.09375 157.79174805 C-15.31072694 157.5677142 -24.9630767 154.78093483 -35.91796875 149.328125 C-44.58723224 145.58423068 -57.13678017 153.47756464 -64.125 158.375 Z M123.875 214.375 C123.84921875 215.19742188 123.8234375 216.01984375 123.796875 216.8671875 C122.97063149 233.12916197 122.97063149 233.12916197 117.27734375 239.03125 C115.84768266 240.19390583 114.36529224 241.2911511 112.875 242.375 C112.875 243.035 112.875 243.695 112.875 244.375 C107.10800579 246.02082871 102.00546501 246.66448114 96.02561951 246.63569641 C95.17026063 246.63952196 94.31490174 246.64334751 93.4336229 246.64728898 C90.58646287 246.65755315 87.739507 246.65363945 84.89233398 246.6496582 C82.84342259 246.65400823 80.79451283 246.65919234 78.74560547 246.66514587 C73.19411496 246.6785134 67.64269261 246.67911721 62.09118915 246.67658257 C57.45381946 246.6755117 52.8164635 246.68039903 48.17909676 246.685188 C37.23991145 246.69627464 26.30076048 246.69672481 15.36157227 246.69067383 C4.07914052 246.684629 -7.20316667 246.69695996 -18.48557717 246.7182439 C-28.17834472 246.73585615 -37.87107262 246.74186199 -47.56385559 246.73860615 C-53.35042614 246.73679313 -59.13690777 246.73943184 -64.92346382 246.75332069 C-70.36293891 246.76588882 -75.80221952 246.76396446 -81.24169159 246.75090981 C-83.23671725 246.74854257 -85.23175657 246.75128397 -87.22676659 246.75953293 C-89.95227124 246.76998914 -92.67712192 246.76190883 -95.40260315 246.7492218 C-96.1899645 246.75659609 -96.97732584 246.76397037 -97.78854662 246.77156812 C-105.1847218 246.69925002 -110.57247737 244.43759416 -116.125 239.375 C-116.455 238.715 -116.785 238.055 -117.125 237.375 C-117.785 237.375 -118.445 237.375 -119.125 237.375 C-121.41084898 230.82223293 -121.73094368 224.27098561 -122.125 217.375 C-127.26932511 218.0441805 -131.70298267 220.24370116 -136.375 222.375 C-137.25019287 222.77074219 -138.12538574 223.16648438 -139.02709961 223.57421875 C-146.44859849 226.97364459 -153.65101023 230.7198063 -160.81640625 234.625 C-164.125 236.375 -164.125 236.375 -167.125 237.375 C-167.125 238.035 -167.125 238.695 -167.125 239.375 C-168.775 239.705 -170.425 240.035 -172.125 240.375 C-172.125 241.035 -172.125 241.695 -172.125 242.375 C-172.68703125 242.48070312 -173.2490625 242.58640625 -173.828125 242.6953125 C-178.7415862 244.14929592 -182.89684176 247.54627736 -187.125 250.375 C-187.75615723 250.79668457 -188.38731445 251.21836914 -189.03759766 251.65283203 C-203.23578157 261.18142162 -216.0880747 271.7630631 -228.73046875 283.26171875 C-230.40923586 284.74330604 -232.14801655 286.15831393 -233.92578125 287.51953125 C-235.01439453 288.43798828 -235.01439453 288.43798828 -236.125 289.375 C-236.125 290.035 -236.125 290.695 -236.125 291.375 C-236.7025 291.6225 -237.28 291.87 -237.875 292.125 C-240.45439979 293.55799988 -242.18621592 295.15924676 -244.125 297.375 C-244.125 298.035 -244.125 298.695 -244.125 299.375 C-244.785 299.375 -245.445 299.375 -246.125 299.375 C-246.125 300.035 -246.125 300.695 -246.125 301.375 C-247.61 301.87 -247.61 301.87 -249.125 302.375 C-250.80715965 303.99668112 -250.80715965 303.99668112 -252.4375 306 C-253.04335937 306.71671875 -253.64921875 307.4334375 -254.2734375 308.171875 C-254.88445312 308.89890625 -255.49546875 309.6259375 -256.125 310.375 C-256.71539062 311.04015625 -257.30578125 311.7053125 -257.9140625 312.390625 C-258.45804687 313.00421875 -259.00203125 313.6178125 -259.5625 314.25 C-260.05621094 314.80429687 -260.54992187 315.35859375 -261.05859375 315.9296875 C-262.32290607 317.34386621 -262.32290607 317.34386621 -262.125 319.375 C-262.785 319.375 -263.445 319.375 -264.125 319.375 C-265.71326222 321.08997772 -265.71326222 321.08997772 -267.25 323.25 C-267.78882813 323.96929687 -268.32765625 324.68859375 -268.8828125 325.4296875 C-270.30439632 327.27126006 -270.30439632 327.27126006 -270.125 329.375 C-270.785 329.375 -271.445 329.375 -272.125 329.375 C-273.44584976 330.85639353 -273.44584976 330.85639353 -274.7265625 332.8046875 C-275.21640625 333.51753906 -275.70625 334.23039062 -276.2109375 334.96484375 C-276.97277344 336.09599609 -276.97277344 336.09599609 -277.75 337.25 C-278.5234375 338.36955078 -278.5234375 338.36955078 -279.3125 339.51171875 C-282.10256112 343.1364698 -282.10256112 343.1364698 -283.125 347.375 C-283.785 347.375 -284.445 347.375 -285.125 347.375 C-285.66125 348.344375 -286.1975 349.31375 -286.75 350.3125 C-288.37142017 353.16711297 -290.12969541 355.86532391 -292 358.5625 C-294.86870504 362.82274107 -297.13872914 367.22952398 -299.375 371.84765625 C-300.66639406 374.45062239 -301.99058272 377.00607439 -303.375 379.55859375 C-311.82486224 395.15859776 -319.33002093 411.18476489 -324.875 428.0625 C-325.27187012 429.238125 -325.27187012 429.238125 -325.67675781 430.4375 C-326.9778979 434.53158151 -326.9778979 434.53158151 -326.421875 438.69140625 C-325.99390625 439.24699219 -325.5659375 439.80257812 -325.125 440.375 C-324.7228125 440.93703125 -324.320625 441.4990625 -323.90625 442.078125 C-322.68922262 443.54746293 -321.40839722 444.96326306 -320.125 446.375 C-319.465 446.375 -318.805 446.375 -318.125 446.375 C-317.86332031 447.08914063 -317.60164062 447.80328125 -317.33203125 448.5390625 C-316.07135851 451.50103146 -314.53057183 454.03003706 -312.8125 456.75 C-307.35671061 465.98725511 -303.3567082 476.55091704 -303.125 487.375 C-303.08632813 488.65117187 -303.04765625 489.92734375 -303.0078125 491.2421875 C-302.67553167 507.26248116 -304.50457244 522.7322739 -313.26953125 536.53515625 C-314.45415125 538.53209756 -314.45415125 538.53209756 -313.125 541.375 C-310.67920051 542.78804931 -310.67920051 542.78804931 -307.6875 544.0625 C-300.51627341 547.48998732 -294.48076248 551.88549337 -288.96875 557.6171875 C-287.3083113 559.60501266 -287.3083113 559.60501266 -285.125 559.375 C-285.125 560.035 -285.125 560.695 -285.125 561.375 C-284.465 562.014375 -283.805 562.65375 -283.125 563.3125 C-268.37650115 577.64437459 -259.97256397 598.99059602 -259.4609375 619.3828125 C-259.43596956 621.90845751 -259.44141634 624.43049088 -259.47314453 626.95605469 C-259.50036574 629.53464578 -259.4730052 632.10902563 -259.44140625 634.6875 C-259.44470471 636.35678027 -259.45109923 638.02605796 -259.4609375 639.6953125 C-259.44575577 640.82829269 -259.44575577 640.82829269 -259.43026733 641.98416138 C-259.55823725 647.84730977 -261.50150863 651.79552367 -265.125 656.375 C-272.43262779 662.98666324 -278.35397279 663.51458792 -287.80078125 663.69140625 C-289.18851997 663.7225779 -289.18851997 663.7225779 -290.60429382 663.75437927 C-293.54862307 663.8195656 -296.49303865 663.87861558 -299.4375 663.9375 C-301.43815983 663.98071464 -303.43881106 664.02432986 -305.43945312 664.06835938 C-310.33454779 664.1752152 -315.22972897 664.27656919 -320.125 664.375 C-318.05106645 670.89116971 -315.98199149 677.1833361 -312.8125 683.25 C-312.21050781 684.41660156 -311.60851562 685.58320312 -310.98828125 686.78515625 C-310.68100098 687.37441895 -310.3737207 687.96368164 -310.05712891 688.57080078 C-309.11666724 690.39112863 -308.20089068 692.22183899 -307.29296875 694.05859375 C-306.99237549 694.66654785 -306.69178223 695.27450195 -306.38208008 695.90087891 C-305.94545044 696.78525635 -305.94545044 696.78525635 -305.5 697.6875 C-296.80160273 715.27523497 -286.65404805 732.10029288 -274.55224609 747.54638672 C-273.14984436 749.34316896 -271.76902076 751.15446139 -270.39453125 752.97265625 C-265.85159036 758.97195067 -261.20439257 764.81718769 -256.125 770.375 C-255.26519531 771.32632813 -254.40539062 772.27765625 -253.51953125 773.2578125 C-248.08104378 779.23950641 -242.51647533 785.08325535 -236.8125 790.8125 C-236.25038818 791.3792041 -235.68827637 791.9459082 -235.10913086 792.52978516 C-228.93111066 799.68158106 -228.93111066 799.68158106 -221.125 803.375 C-221.125 804.035 -221.125 804.695 -221.125 805.375 C-218.87092092 807.33481288 -216.6117439 809.17900764 -214.25 811 C-213.59902344 811.515625 -212.94804687 812.03125 -212.27734375 812.5625 C-209.05993326 815.39964903 -209.05993326 815.39964903 -205.125 816.375 C-205.125 817.035 -205.125 817.695 -205.125 818.375 C-203.64360647 819.69584976 -203.64360647 819.69584976 -201.6953125 820.9765625 C-200.98246094 821.46640625 -200.26960938 821.95625 -199.53515625 822.4609375 C-198.78105469 822.96882812 -198.02695312 823.47671875 -197.25 824 C-196.13044922 824.7734375 -196.13044922 824.7734375 -194.98828125 825.5625 C-191.3635302 828.35256112 -191.3635302 828.35256112 -187.125 829.375 C-187.125 830.035 -187.125 830.695 -187.125 831.375 C-186.24199219 831.87128906 -185.35898437 832.36757813 -184.44921875 832.87890625 C-178.78701313 836.07907629 -173.17853507 839.28636536 -167.75 842.875 C-161.41749863 846.97195066 -154.69661858 850.20560719 -147.92138672 853.4921875 C-145.63230344 854.61712976 -143.38210405 855.81245116 -141.125 857 C-135.74333215 859.69083393 -130.11671217 861.70775273 -124.47265625 863.765625 C-121.50103163 864.85259094 -118.55624156 865.98997025 -115.62109375 867.171875 C-106.21601022 870.95326915 -96.98381702 873.95510855 -87.125 876.375 C-84.97736873 876.95167877 -82.83133162 877.53435251 -80.6875 878.125 C-79.16671281 878.54183504 -77.6458879 878.95853256 -76.125 879.375 C-76.26502441 878.71725586 -76.40504883 878.05951172 -76.54931641 877.38183594 C-81.43359691 852.86110675 -77.51951873 830.62750159 -63.67578125 809.78515625 C-62.32957951 807.6929485 -61.18369547 805.62277215 -60.125 803.375 C-59.465 803.375 -58.805 803.375 -58.125 803.375 C-56.92670868 801.9215751 -55.73093252 800.46595073 -54.55224609 798.99658203 C-45.27421415 788.45523955 -30.22091565 782.99500921 -17.125 779.375 C-16.52671387 779.19775391 -15.92842773 779.02050781 -15.31201172 778.83789062 C-10.36192732 777.79018355 -5.16350604 778.14664772 -0.125 778.125 C1.04417969 778.104375 2.21335937 778.08375 3.41796875 778.0625 C24.27423019 777.96990838 42.37713996 786.71197104 57.49609375 800.8359375 C74.53035433 819.0170038 79.5311064 839.7869673 79.2109375 864.01953125 C79.02649103 869.6349957 78.21649343 874.9248935 76.875 880.375 C84.55983116 879.90947862 91.61739208 878.3206956 99 876.1875 C100.10093994 875.87361328 101.20187988 875.55972656 102.33618164 875.23632812 C110.351966 872.9103586 118.14324382 870.27909058 125.88574219 867.16503906 C128.11508495 866.27964962 130.35672807 865.43125373 132.6015625 864.5859375 C134.21363738 863.9742105 135.82561831 863.36223586 137.4375 862.75 C138.17605225 862.47285156 138.91460449 862.19570313 139.67553711 861.91015625 C143.14712474 860.57362074 146.40544258 859.1469788 149.62109375 857.26953125 C152.24776113 855.7401991 154.5279115 854.66231835 157.375 853.6875 C163.41000351 851.36351844 168.71063183 847.98728365 174.1953125 844.609375 C177.30043312 842.70173766 180.46254707 840.94926698 183.6875 839.25 C189.06564916 836.35225638 193.92935864 832.94976729 198.875 829.375 C201.787382 827.3064255 204.70646766 825.24738352 207.625 823.1875 C208.3463916 822.67622559 209.0677832 822.16495117 209.81103516 821.63818359 C212.92724295 819.43312237 216.04603127 817.24803873 219.2421875 815.16015625 C221.96344976 813.43572296 221.96344976 813.43572296 224.25 811 C227.06499231 808.18500769 230.04846695 805.98545476 233.30078125 803.70703125 C233.82027344 803.26746094 234.33976563 802.82789063 234.875 802.375 C234.875 801.715 234.875 801.055 234.875 800.375 C235.41616455 800.15835693 235.9573291 799.94171387 236.51489258 799.71850586 C239.69311059 797.90928545 242.08144731 795.4540779 244.63671875 792.87890625 C245.18681107 792.33072739 245.73690338 791.78254852 246.30366516 791.21775818 C247.46849509 790.05428785 248.63080871 788.88829357 249.79077148 787.7199707 C251.532247 785.96793643 253.28392954 784.22664059 255.03710938 782.48632812 C261.77553143 775.75587854 267.96313476 768.84969445 273.875 761.375 C275.30847089 759.66328441 276.7455405 757.95457086 278.1875 756.25 C289.3807577 742.51546542 298.79136604 727.55678023 307.875 712.375 C308.51115234 711.31780762 308.51115234 711.31780762 309.16015625 710.23925781 C315.58894112 699.47687787 320.80317126 688.21904769 325.83496094 676.74560547 C326.49065427 675.25105565 327.15429766 673.75994482 327.82910156 672.27392578 C329.09790191 669.44175565 329.875 667.51977884 329.875 664.375 C329.19341324 664.36913376 328.51182648 664.36326752 327.80958557 664.35722351 C320.6873239 664.29307101 313.56550496 664.20859516 306.44360352 664.11254883 C303.78894197 664.07777337 301.13457104 664.05132813 298.47973633 664.02856445 C294.65416148 663.99486211 290.8292147 663.94253604 287.00390625 663.88671875 C285.82542618 663.88032883 284.64694611 663.8739389 283.43275452 663.86735535 C275.52912091 663.72773174 268.4007199 663.19557592 262.0625 658.125 C257.12741357 651.92089135 255.25758749 647.61360042 255.30859375 639.79296875 C255.30239517 638.97991776 255.29619659 638.16686676 255.28981018 637.32917786 C255.2827348 635.61049588 255.28584608 633.89174504 255.29858398 632.1730957 C255.31226351 629.60686529 255.27857588 627.04442813 255.24023438 624.47851562 C255.17112691 609.92271246 257.75128089 595.74350116 264.75 582.8125 C265.08515625 582.16394043 265.4203125 581.51538086 265.765625 580.84716797 C268.25428213 576.17041052 271.15316351 571.99087344 274.625 567.9765625 C276.08009029 566.45083233 276.08009029 566.45083233 275.875 564.375 C276.535 564.375 277.195 564.375 277.875 564.375 C279.54166667 563.04166667 279.54166667 563.04166667 280.875 561.375 C280.875 560.715 280.875 560.055 280.875 559.375 C281.535 559.375 282.195 559.375 282.875 559.375 C284.54166667 558.04166667 284.54166667 558.04166667 285.875 556.375 C285.875 555.715 285.875 555.055 285.875 554.375 C286.41640625 554.12492187 286.9578125 553.87484375 287.515625 553.6171875 C290.37576595 552.1113517 292.96029659 550.32939483 295.625 548.5 C300.25310091 545.38056924 304.81225341 542.71165227 309.875 540.375 C307.83173352 535.16859985 305.56282489 530.06480163 303.3125 524.9453125 C296.24863085 507.40081142 296.52073111 483.84480603 303.875 466.375 C306.80790664 460.08422875 309.695921 453.9428583 313.875 448.375 C313.875 447.715 313.875 447.055 313.875 446.375 C314.535 446.375 315.195 446.375 315.875 446.375 C317.40737551 444.82116853 317.40737551 444.82116853 319 442.8125 C322.07728083 439.18272198 325.33906975 436.071137 328.98046875 433.015625 C331.04668402 431.22632517 332.96202384 429.32615085 334.875 427.375 C334.41609375 426.26382813 333.9571875 425.15265625 333.484375 424.0078125 C332.86455551 422.50521981 332.24476589 421.0026148 331.625 419.5 C331.13858032 418.32244141 331.13858032 418.32244141 330.64233398 417.12109375 C329.03391686 413.21994672 327.45372831 409.31307715 325.9375 405.375 C319.4136759 389.02379831 311.12730512 373.29648137 301.765625 358.40625 C299.44953365 354.69284733 297.26623584 350.90876353 295.1015625 347.10546875 C294.69679688 346.53441406 294.29203125 345.96335937 293.875 345.375 C293.215 345.375 292.555 345.375 291.875 345.375 C291.63394531 344.6840625 291.39289062 343.993125 291.14453125 343.28125 C289.65103987 339.86230359 287.69568776 336.91435182 285.5625 333.875 C285.18416016 333.31941406 284.80582031 332.76382813 284.41601562 332.19140625 C281.87264975 328.53343503 279.04557737 325.48895992 275.875 322.375 C274.25033566 320.27357186 272.73075844 318.12424886 271.20703125 315.94921875 C270.76746094 315.42972656 270.32789063 314.91023438 269.875 314.375 C269.215 314.375 268.555 314.375 267.875 314.375 C267.606875 313.7975 267.33875 313.22 267.0625 312.625 C265.84570811 310.31949957 264.57166121 308.35443808 262.875 306.375 C262.215 306.375 261.555 306.375 260.875 306.375 C260.49891602 305.51213379 260.49891602 305.51213379 260.11523438 304.63183594 C258.70771173 302.07058804 257.09329975 300.33442608 255.03125 298.265625 C254.27972656 297.51152344 253.52820313 296.75742187 252.75390625 295.98046875 C251.96886719 295.20316406 251.18382812 294.42585938 250.375 293.625 C249.58996094 292.83222656 248.80492187 292.03945313 247.99609375 291.22265625 C247.24457031 290.47371094 246.49304688 289.72476563 245.71875 288.953125 C245.02974609 288.26637695 244.34074219 287.57962891 243.63085938 286.87207031 C242.00592041 285.15873251 242.00592041 285.15873251 239.875 285.375 C239.875 284.715 239.875 284.055 239.875 283.375 C238.46506362 281.87003161 238.46506362 281.87003161 236.5625 280.3125 C235.84191406 279.70148438 235.12132812 279.09046875 234.37890625 278.4609375 C233.13947266 277.42839844 233.13947266 277.42839844 231.875 276.375 C230.91464844 275.56289063 229.95429687 274.75078125 228.96484375 273.9140625 C224.44272423 269.42277918 224.44272423 269.42277918 218.875 267.375 C218.875 266.715 218.875 266.055 218.875 265.375 C216.47562519 263.48867972 214.07094985 261.73178992 211.5625 260 C210.42192139 259.20468872 210.42192139 259.20468872 209.25830078 258.39331055 C200.64109241 252.43856482 191.78923345 246.87103757 182.875 241.375 C182.20194824 240.95589355 181.52889648 240.53678711 180.83544922 240.10498047 C169.23502313 232.88804451 157.26186679 226.21876603 144.453125 221.3828125 C139.89399518 219.60060721 135.44348643 217.54758151 130.9765625 215.546875 C127.80395789 214.13936907 127.80395789 214.13936907 123.875 214.375 Z M-418.125 465.375 C-427.57861541 477.59420463 -431.00568577 490.1328183 -429.125 505.375 C-426.40642863 517.11371603 -419.19950252 528.55931092 -409.125 535.375 C-399.88863416 541.05365455 -392.02331092 543.72814445 -381.1875 543.6875 C-379.90456055 543.71166992 -379.90456055 543.71166992 -378.59570312 543.73632812 C-370.05194944 543.7428451 -363.95489822 541.09752888 -356.625 536.8125 C-355.5834375 536.21308594 -354.541875 535.61367188 -353.46875 534.99609375 C-352.6953125 534.46113281 -351.921875 533.92617188 -351.125 533.375 C-351.125 532.715 -351.125 532.055 -351.125 531.375 C-350.568125 531.16875 -350.01125 530.9625 -349.4375 530.75 C-341.60654874 526.09375871 -336.96258285 515.44260569 -334.75 506.9375 C-332.2689711 492.59405169 -335.07320392 479.81624618 -343.2734375 467.8125 C-351.44274549 457.05796797 -362.67778427 450.30830578 -376.125 448.375 C-392.5157669 446.96451858 -407.059037 453.3977224 -418.125 465.375 Z M340.875 465.375 C331.7920092 476.50458744 328.56601845 489.23034036 329.875 503.375 C333.14422965 519.56124026 341.26191818 529.60095349 354.765625 538.640625 C365.16982648 544.92063851 378.55118353 544.9894917 390.23828125 542.72265625 C392.95399812 541.80693696 395.35410719 540.73612104 397.875 539.375 C398.80570313 538.87742187 399.73640625 538.37984375 400.6953125 537.8671875 C410.41174494 532.17499956 417.13513429 524.55493886 421.875 514.375 C422.1946875 513.73691406 422.514375 513.09882812 422.84375 512.44140625 C426.88354725 502.84688778 426.28688783 490.08530443 422.875 480.4375 C416.38506165 465.94025742 406.4377041 456.42026046 391.875 450.375 C373.1214281 443.94959586 353.97998833 451.521803 340.875 465.375 Z M-435.125 569.375 C-435.94355469 569.75011719 -436.76210938 570.12523437 -437.60546875 570.51171875 C-442.84062892 573.02237801 -447.59504838 575.73134326 -452.125 579.375 C-452.125 580.035 -452.125 580.695 -452.125 581.375 C-452.785 581.375 -453.445 581.375 -454.125 581.375 C-454.125 582.035 -454.125 582.695 -454.125 583.375 C-455.115 583.705 -456.105 584.035 -457.125 584.375 C-470.02573016 599.00302458 -472.125 612.78137097 -472.125 632.375 C-412.065 632.375 -352.005 632.375 -290.125 632.375 C-290.125 613.69111568 -293.75506738 598.48564209 -306.75 584.5625 C-307.925625 583.4796875 -307.925625 583.4796875 -309.125 582.375 C-309.8675 581.570625 -310.61 580.76625 -311.375 579.9375 C-319.04046133 572.79468376 -329.51736644 566.55026002 -340.1875 565.75 C-344.76826034 566.47710482 -348.3761579 568.1275617 -352.59765625 569.99609375 C-371.45918558 577.36942692 -391.79081442 577.36942692 -410.65234375 569.99609375 C-412.63149029 569.12007807 -414.6094761 568.24143216 -416.5859375 567.359375 C-423.20303576 564.79397691 -428.92295879 566.52909078 -435.125 569.375 Z M-31.125 820.375 C-31.125 821.035 -31.125 821.695 -31.125 822.375 C-31.785 822.375 -32.445 822.375 -33.125 822.375 C-42.74933093 831.97808517 -46.97931533 843.3670824 -47.3125 856.75 C-47.13305937 867.77064515 -43.21003824 875.81675967 -38.125 885.375 C-37.465 885.375 -36.805 885.375 -36.125 885.375 C-35.87621094 885.95378906 -35.62742187 886.53257812 -35.37109375 887.12890625 C-30.5697205 895.78341916 -20.82490325 900.21337581 -11.8125 903.12109375 C0.05064171 906.19280009 12.9556609 904.59082068 23.7734375 898.83203125 C26.28962811 897.14037695 28.5830711 895.35863404 30.875 893.375 C31.59300781 892.75496094 32.31101562 892.13492188 33.05078125 891.49609375 C42.31543897 882.85954842 47.18871373 872.67799172 48.12109375 860.0390625 C48.37176486 847.3875442 45.42563933 835.18377155 36.875 825.375 C36.215 825.375 35.555 825.375 34.875 825.375 C34.38 823.89 34.38 823.89 33.875 822.375 C33.215 822.375 32.555 822.375 31.875 822.375 C31.875 821.715 31.875 821.055 31.875 820.375 C29.90082361 818.95756543 27.95207028 817.68695177 25.875 816.4375 C24.76125 815.74785156 23.6475 815.05820312 22.5 814.34765625 C15.4522824 810.36034757 9.29153873 808.8140615 1.1875 808.875 C0.3111792 808.87999512 -0.5651416 808.88499023 -1.46801758 808.89013672 C-12.41091675 809.18173286 -22.82447718 813.06110263 -31.125 820.375 Z M-78.52148438 949.14379883 C-88.7984369 963.2479646 -90.125 974.42924149 -90.125 992.375 C-30.065 992.375 29.995 992.375 91.875 992.375 C90.72412396 970.50835528 87.59514512 955.56380211 71.48046875 940.5234375 C63.09896248 933.61215047 52.79975065 926.88147548 41.68359375 926.06640625 C36.77369992 926.60587998 32.57113665 928.80442113 28.1328125 930.875 C9.8115243 939.31070104 -13.83847878 936.12731598 -32.125 929.375 C-34.12789432 928.3808097 -36.12839553 927.38176242 -38.125 926.375 C-52.83833216 923.98905424 -70.02340995 938.38006644 -78.52148438 949.14379883 Z " fill="#074CA6" transform="translate(504.125,-0.375)"/>
<path d="M0 0 C1.10968643 -0.00832352 2.21937286 -0.01664703 3.36268616 -0.02522278 C7.02519251 -0.04928691 10.68752068 -0.05809013 14.35009766 -0.06469727 C16.90068617 -0.07366545 19.45127414 -0.08278733 22.00186157 -0.09205627 C27.34647224 -0.10853848 32.69101636 -0.11627804 38.03564453 -0.11914062 C44.19903128 -0.12277528 50.36191991 -0.15267369 56.52515447 -0.19454521 C62.47105526 -0.23351312 68.41680737 -0.24473495 74.36284256 -0.24586678 C76.88498259 -0.25006873 79.40712306 -0.26250185 81.92918015 -0.28338432 C85.45973664 -0.31029329 88.98892395 -0.30547351 92.51953125 -0.29296875 C93.5566777 -0.30780304 94.59382416 -0.32263733 95.66239929 -0.33792114 C102.27247089 -0.27138359 106.81842284 0.92615798 111.88916016 5.30639648 C115.51626384 10.18031706 115.62956672 15.44009832 114.88916016 21.30639648 C113.38916016 24.93139648 113.38916016 24.93139648 111.88916016 27.30639648 C111.22916016 27.30639648 110.56916016 27.30639648 109.88916016 27.30639648 C109.88916016 27.96639648 109.88916016 28.62639648 109.88916016 29.30639648 C104.53189742 32.621766 100.2135706 32.71966284 94.12011719 32.64697266 C93.15363754 32.64741074 92.1871579 32.64784882 91.19139099 32.64830017 C88.00970984 32.6462169 84.82856131 32.62290722 81.64697266 32.59936523 C79.43594653 32.59376765 77.22491668 32.58949832 75.0138855 32.58650208 C69.20399645 32.57506615 63.39433358 32.54560951 57.58453369 32.51239014 C51.6522528 32.48166239 45.71993525 32.46799094 39.78759766 32.45288086 C28.15466996 32.42073877 16.52196928 32.36798083 4.88916016 32.30639648 C4.88916016 42.53639648 4.88916016 52.76639648 4.88916016 63.30639648 C69.56916016 63.30639648 134.24916016 63.30639648 200.88916016 63.30639648 C200.88916016 53.07639648 200.88916016 42.84639648 200.88916016 32.30639648 C198.31103516 32.3644043 195.73291016 32.42241211 193.07666016 32.48217773 C190.55797394 32.52125878 188.03932251 32.55156866 185.52050781 32.58105469 C183.7804432 32.60607881 182.04048243 32.64010943 180.30078125 32.68359375 C177.78831261 32.74478568 175.27724236 32.77272608 172.76416016 32.79467773 C171.99612061 32.82048416 171.22808105 32.84629059 170.43676758 32.87287903 C164.49937889 32.87590847 160.47864682 31.06901235 155.88916016 27.30639648 C152.74557002 23.08219724 152.30450097 18.98271645 152.47509766 13.84155273 C153.15920729 9.65299471 154.90122454 6.31517816 157.88916016 3.30639648 C163.5839666 -0.50073942 169.18458321 -0.14476729 175.78759766 -0.12719727 C177.51098862 -0.13506004 177.51098862 -0.13506004 179.26919556 -0.14308167 C181.69491774 -0.14949326 184.12067105 -0.14817609 186.54638672 -0.13964844 C190.24454558 -0.1311486 193.94115412 -0.15989834 197.63916016 -0.19165039 C200.00113886 -0.19326287 202.36312029 -0.19268397 204.72509766 -0.18969727 C205.82429535 -0.20093124 206.92349304 -0.21216522 208.05599976 -0.22373962 C216.32721183 -0.14921303 221.85584081 1.63705545 228.20166016 6.93139648 C233.28015649 12.46654235 234.04947751 19.39194334 233.95947266 26.64233398 C233.94932129 27.70758301 233.93916992 28.77283203 233.92871094 29.87036133 C233.91565918 30.67425293 233.90260742 31.47814453 233.88916016 32.30639648 C234.69824829 32.29751404 235.50733643 32.28863159 236.34094238 32.27947998 C243.99081181 32.19910899 251.64047458 32.13831845 259.29065704 32.0991478 C263.2230897 32.07833222 267.15517154 32.05012641 271.08740234 32.00463867 C274.88701289 31.96096348 278.68628743 31.93721409 282.48612976 31.92688751 C283.93093653 31.91953474 285.37572629 31.9051768 286.82038879 31.88347626 C296.54238429 31.74333703 303.08813009 32.38270364 310.73217773 38.62988281 C313.23073528 41.73024347 314.24326907 44.32704007 315.40087891 48.13061523 C315.6045256 48.78430588 315.8081723 49.43799652 316.01799011 50.11149597 C316.65633445 52.17230728 317.27310051 54.23882917 317.88916016 56.30639648 C318.28822108 57.60454502 318.68874994 58.9022433 319.09082031 60.19946289 C320.10305278 63.47906296 321.0960125 66.76411792 322.08178711 70.05175781 C323.16539386 73.6653452 324.25635681 77.27671478 325.34619141 80.88842773 C325.56381134 81.61031281 325.78143127 82.33219788 326.00564575 83.07595825 C327.94175508 89.49386466 329.91032463 95.90153847 331.88916016 102.30639648 C334.11407625 109.5099057 336.32109465 116.71849323 338.50244141 123.93530273 C338.83850906 125.04680191 338.83850906 125.04680191 339.18136597 126.18075562 C340.28185152 129.82166849 341.38062577 133.46308694 342.47705078 137.10522461 C342.88127965 138.44443785 343.28557465 139.78363112 343.68994141 141.12280273 C344.06787842 142.37657715 344.44581543 143.63035156 344.83520508 144.92211914 C345.70820908 147.72535783 346.65158607 150.47901628 347.64697266 153.23999023 C349.06440563 157.44281507 349.46541243 161.38478469 349.45166016 165.80639648 C349.45141846 166.54253174 349.45117676 167.27866699 349.45092773 168.03710938 C349.25252414 174.3407743 347.47839551 178.82882136 342.88916016 183.30639648 C341.40416016 184.29639648 341.40416016 184.29639648 339.88916016 185.30639648 C339.63201454 188.28749154 339.5276285 191.13608744 339.51416016 194.11889648 C339.07269131 208.50646058 333.8466105 220.27257605 324.27197266 231.14233398 C322.88916016 232.30639648 322.88916016 232.30639648 320.88916016 232.30639648 C320.89192554 233.26608023 320.89469091 234.22576397 320.89754009 235.21452904 C320.96419046 258.58457956 321.01346199 281.95461772 321.04459667 305.32474327 C321.06005404 316.62644202 321.08112199 327.92807792 321.11547852 339.22973633 C321.14541542 349.08226331 321.16474338 358.93474476 321.17142564 368.78731596 C321.17533061 374.00235547 321.18448438 379.21726473 321.20635033 384.43226242 C321.22678324 389.345506 321.23298021 394.25856626 321.2284832 399.1718483 C321.22930536 400.97049711 321.23523032 402.76915234 321.24677658 404.56776428 C321.38266405 426.8366088 321.38266405 426.8366088 314.88916016 435.30639648 C314.22916016 435.30639648 313.56916016 435.30639648 312.88916016 435.30639648 C312.88916016 435.96639648 312.88916016 436.62639648 312.88916016 437.30639648 C312.22916016 437.30639648 311.56916016 437.30639648 310.88916016 437.30639648 C310.88916016 437.96639648 310.88916016 438.62639648 310.88916016 439.30639648 C309.4743788 439.95634946 308.05724528 440.60118371 306.63916016 441.24389648 C305.85025391 441.60354492 305.06134766 441.96319336 304.24853516 442.33374023 C299.84729216 444.14815995 296.10684828 444.43337069 291.33692074 444.44061756 C290.67713519 444.44296979 290.01734963 444.44532202 289.33757058 444.44774553 C287.11711532 444.45442548 284.89671873 444.45397761 282.67625427 444.4535675 C281.07196862 444.45686676 279.4676838 444.46059246 277.86340004 444.46470898 C273.44705915 444.47473017 269.03073185 444.47844597 264.61438119 444.48109829 C259.85413623 444.48500101 255.09390203 444.4945794 250.33366394 444.50331116 C238.83351139 444.52307685 227.33335796 444.53314208 215.83319268 444.54203895 C210.41779195 444.54642182 205.00239221 444.55178865 199.58699226 444.55702782 C181.58516741 444.57404047 163.58334316 444.58853458 145.5815115 444.59577656 C140.9095656 444.59768646 136.23761971 444.59960679 131.56567383 444.6015625 C130.40448149 444.60204624 129.24328915 444.60252998 128.04690916 444.60302838 C109.23697224 444.61132842 90.42709891 444.63666474 71.61718976 444.66914318 C52.30622681 444.70221496 32.99529619 444.72022544 13.68430477 444.7234208 C2.84160962 444.72558582 -8.0009928 444.73433335 -18.84366035 444.75988197 C-28.07800314 444.78159059 -37.31223065 444.78963858 -46.54659606 444.77991519 C-51.2568215 444.77537094 -55.96680914 444.77726407 -60.67700195 444.79667664 C-64.99335661 444.81431211 -69.30930005 444.8133075 -73.6256591 444.79777934 C-75.18293049 444.79540385 -76.74023038 444.79972379 -78.29745824 444.81160799 C-88.14132376 444.88204871 -96.22745321 443.7480898 -105.11083984 439.30639648 C-105.11083984 438.64639648 -105.11083984 437.98639648 -105.11083984 437.30639648 C-105.77083984 437.30639648 -106.43083984 437.30639648 -107.11083984 437.30639648 C-107.11083984 436.64639648 -107.11083984 435.98639648 -107.11083984 435.30639648 C-108.10083984 434.97639648 -109.09083984 434.64639648 -110.11083984 434.30639648 C-116.10985839 424.30085206 -115.79885524 413.7219142 -115.6784668 402.48095703 C-115.67705365 400.61699461 -115.67785349 398.75302942 -115.68067932 396.8890686 C-115.68210449 391.86702263 -115.65286134 386.84558285 -115.61780953 381.82367682 C-115.58639509 376.56134154 -115.58360345 371.2989899 -115.5776825 366.03657532 C-115.5621882 356.0885301 -115.52121978 346.14076206 -115.47093505 336.19283849 C-115.41490376 324.86026468 -115.38752049 313.52767711 -115.36245787 302.1949991 C-115.31029979 278.89864501 -115.22244384 255.60253633 -115.11083984 232.30639648 C-115.77083984 232.30639648 -116.43083984 232.30639648 -117.11083984 232.30639648 C-128.51669346 220.24590226 -133.36577707 207.64527857 -134.10693359 191.32788086 C-134.40938844 186.00542546 -134.40938844 186.00542546 -137.57177734 181.86108398 C-138.40966797 181.34803711 -139.24755859 180.83499023 -140.11083984 180.30639648 C-144.31668885 174.14783187 -144.74621589 167.1499741 -143.55615234 159.95092773 C-142.54117351 155.68891484 -141.36855102 151.50230379 -140.11083984 147.30639648 C-139.83030762 146.36844238 -139.54977539 145.43048828 -139.26074219 144.46411133 C-137.27094719 137.85858369 -135.22585197 131.27089355 -133.16650391 124.68676758 C-131.50829873 119.37698291 -129.87142521 114.06068448 -128.23583984 108.74389648 C-127.91349365 107.6975 -127.59114746 106.65110352 -127.2590332 105.57299805 C-124.03758258 95.10073678 -120.86394429 84.6140327 -117.69921875 74.12451172 C-116.71220961 70.85479267 -115.71941375 67.5868737 -114.72320557 64.31994629 C-114.30128284 62.93260145 -113.88144262 61.54462214 -113.46331787 60.15612793 C-112.81316635 57.99890269 -112.15600583 55.84391463 -111.49755859 53.68920898 C-111.30281448 53.03765839 -111.10807037 52.38610779 -110.90742493 51.71481323 C-109.18019762 46.10534113 -107.35903478 40.86373349 -102.73583984 37.05639648 C-102.17123047 36.57686523 -101.60662109 36.09733398 -101.02490234 35.60327148 C-96.60535238 32.60880089 -92.76721898 32.05914456 -87.48461914 32.0793457 C-86.84015335 32.07905365 -86.19568756 32.0787616 -85.5316925 32.07846069 C-83.41600763 32.07984644 -81.30068143 32.09537142 -79.18505859 32.11108398 C-77.71247042 32.11481681 -76.23987976 32.11766251 -74.76728821 32.11965942 C-70.90226312 32.12727466 -67.03738971 32.14690485 -63.17242432 32.16906738 C-59.22418265 32.1895714 -55.27591634 32.19867086 -51.32763672 32.20874023 C-43.58863548 32.23015289 -35.84975896 32.26426315 -28.11083984 32.30639648 C-28.13114258 31.43176758 -28.15144531 30.55713867 -28.17236328 29.65600586 C-28.1960498 27.92060547 -28.1960498 27.92060547 -28.22021484 26.15014648 C-28.24051758 25.00739258 -28.26082031 23.86463867 -28.28173828 22.68725586 C-27.93461924 15.82024953 -25.08858309 9.12356736 -20.11083984 4.30639648 C-19.12083984 4.30639648 -18.13083984 4.30639648 -17.11083984 4.30639648 C-17.11083984 3.64639648 -17.11083984 2.98639648 -17.11083984 2.30639648 C-11.4249311 -0.11253626 -6.06802442 0.00387368 0 0 Z M-80.11083984 64.30639648 C-81.83610316 68.90709867 -83.5027807 73.35845354 -84.95068359 78.02514648 C-85.28559814 79.1028833 -85.6205127 80.18062012 -85.96557617 81.29101562 C-86.50154419 83.03112915 -86.50154419 83.03112915 -87.04833984 84.80639648 C-87.42949951 86.03801514 -87.81065918 87.26963379 -88.20336914 88.53857422 C-90.58181121 96.24310024 -92.9145909 103.96102807 -95.22802734 111.68530273 C-95.49299515 112.56999237 -95.75796295 113.45468201 -96.03096008 114.36618042 C-97.34061757 118.74226011 -98.64685086 123.11933032 -99.94848633 127.49780273 C-100.4358395 129.13332625 -100.92354214 130.76874567 -101.41162109 132.40405273 C-101.76017403 133.57268356 -101.76017403 133.57268356 -102.11576843 134.7649231 C-103.76071914 140.24056838 -105.53566381 145.6610152 -107.43579102 151.05419922 C-108.2543947 153.39348072 -108.2543947 153.39348072 -108.11083984 156.30639648 C31.14916016 156.30639648 170.40916016 156.30639648 313.88916016 156.30639648 C313.15425379 152.63186465 312.3270031 149.282968 311.21728516 145.72827148 C310.88212891 144.64803711 310.54697266 143.56780273 310.20166016 142.45483398 C309.85103516 141.33334961 309.50041016 140.21186523 309.13916016 139.05639648 C306.42931935 130.36406097 303.80031342 121.65283621 301.24121094 112.9152832 C299.01627276 105.32104901 296.75917815 97.73638538 294.49487305 90.15380859 C293.95925171 88.3576884 293.4251079 86.56112702 292.89233398 84.76416016 C292.10961891 82.12483829 291.3221695 79.48697032 290.53369141 76.84936523 C290.17897514 75.64790108 290.17897514 75.64790108 289.8170929 74.42216492 C289.59313339 73.67650772 289.36917389 72.93085052 289.13842773 72.16259766 C288.94477127 71.51215988 288.75111481 70.86172211 288.55158997 70.1915741 C287.79099706 67.90106151 287.79099706 67.90106151 285.88916016 64.30639648 C268.72916016 64.30639648 251.56916016 64.30639648 233.88916016 64.30639648 C233.22916016 69.58639648 232.56916016 74.86639648 231.88916016 80.30639648 C228.90170905 86.44278254 225.76795118 90.67707334 219.30655384 93.39124489 C215.00515869 94.54312524 211.08041186 94.5898631 206.64836121 94.57382202 C205.26587227 94.58061869 205.26587227 94.58061869 203.85545427 94.58755267 C200.77183043 94.60019746 197.6883832 94.59857623 194.60473633 94.59692383 C192.391879 94.60290902 190.17902376 94.60971454 187.96617126 94.61727905 C181.95783826 94.6349471 175.94956221 94.63963478 169.94120574 94.64091063 C166.18653442 94.64233232 162.43187758 94.64660226 158.67720985 94.65190506 C146.25196268 94.66945314 133.82674325 94.67874498 121.40148517 94.67724411 C120.7321811 94.6771642 120.06287703 94.67708429 119.37329102 94.67700195 C118.70316588 94.67692019 118.03304074 94.67683843 117.34260879 94.67675419 C106.48524623 94.6759415 95.62802248 94.69507668 84.77070006 94.72327869 C73.61159124 94.75203493 62.4525332 94.76545154 51.29338247 94.76409113 C45.03273099 94.76358142 38.77223661 94.76927018 32.51161766 94.79044724 C26.6223448 94.80982434 20.73337898 94.80995741 14.84409523 94.79541397 C12.6854266 94.79332415 10.52673877 94.79803704 8.36810303 94.81013489 C5.41534599 94.8256085 2.46364491 94.81626485 -0.48908997 94.8008728 C-1.762659 94.81630349 -1.762659 94.81630349 -3.0619567 94.83204591 C-10.37539002 94.74811731 -16.16752396 92.54587596 -21.98583984 88.11889648 C-27.46342792 80.86914756 -27.35050486 73.43041629 -28.11083984 64.30639648 C-45.27083984 64.30639648 -62.43083984 64.30639648 -80.11083984 64.30639648 Z M-102.11083984 188.30639648 C-100.92223754 199.00381723 -99.55051202 203.87597105 -91.44287109 210.63452148 C-87.02099818 213.80464143 -83.52948949 214.35143298 -78.17333984 214.18139648 C-69.06682383 212.57333607 -64.42036256 207.89347557 -58.60302734 200.86499023 C-54.23271418 196.37822672 -50.06291857 194.8584669 -43.86083984 194.74389648 C-37.01787265 194.9081277 -32.29916982 196.86782517 -27.11083984 201.30639648 C-25.51106876 203.24181437 -24.36227404 205.11638664 -23.11083984 207.30639648 C-22.45083984 207.30639648 -21.79083984 207.30639648 -21.11083984 207.30639648 C-21.11083984 207.96639648 -21.11083984 208.62639648 -21.11083984 209.30639648 C-14.9197536 212.79591782 -9.22408305 215.29483012 -2.00927734 213.90014648 C4.49812927 211.78963623 10.32617741 207.17483866 13.88916016 201.30639648 C13.88916016 200.64639648 13.88916016 199.98639648 13.88916016 199.30639648 C15.55582682 198.63972982 17.22249349 197.97306315 18.88916016 197.30639648 C20.03384766 196.78819336 20.03384766 196.78819336 21.20166016 196.25952148 C26.62229245 194.33708794 32.89888871 194.35345284 38.37744141 196.09936523 C41.98836919 197.82231249 43.61807584 198.89977001 45.88916016 202.30639648 C46.54916016 202.30639648 47.20916016 202.30639648 47.88916016 202.30639648 C48.15341797 202.90194336 48.41767578 203.49749023 48.68994141 204.11108398 C51.26757658 208.82975163 55.44739158 211.70347508 60.32666016 213.74389648 C67.78991377 214.92230495 73.61856317 213.33845777 79.88916016 209.30639648 C82.56163451 206.93761239 84.64244953 204.65519426 86.70166016 201.74389648 C90.41907401 197.60163533 94.24557001 195.69484238 99.76025391 194.88452148 C106.89144738 194.55748586 112.31900293 195.70496226 117.88916016 200.30639648 C119.29353103 202.00479542 120.47270018 203.74122481 121.65478516 205.59936523 C125.31356535 210.65913405 130.86175845 213.24895759 136.88916016 214.30639648 C142.81812768 214.29465595 149.15159027 213.01712745 153.48291016 208.72827148 C154.99604025 206.95265964 156.44724689 205.1400901 157.88916016 203.30639648 C162.26779901 198.36639367 166.18484908 195.72478975 172.72509766 194.98608398 C179.29392086 194.73789167 184.66505765 195.09439995 189.88916016 199.30639648 C192.50584362 202.07651463 195.00571695 204.93087611 197.51025391 207.80249023 C201.82046377 212.33918075 206.68591289 213.7713419 212.83837891 214.38061523 C217.84329858 214.19948481 222.55314337 211.65507224 226.88916016 209.30639648 C226.88916016 208.64639648 226.88916016 207.98639648 226.88916016 207.30639648 C227.54916016 207.30639648 228.20916016 207.30639648 228.88916016 207.30639648 C229.81405016 206.09284654 230.67965893 204.83378942 231.51416016 203.55639648 C234.73658786 199.19800505 237.59354619 196.69272795 242.88916016 195.30639648 C250.22214126 194.34273814 256.29224856 194.44318016 262.37353516 198.92749023 C264.15811139 200.55108665 265.5524402 202.30131654 266.88916016 204.30639648 C267.54916016 204.30639648 268.20916016 204.30639648 268.88916016 204.30639648 C269.09541016 204.88389648 269.30166016 205.46139648 269.51416016 206.05639648 C271.91216787 209.98040911 275.62379329 211.71589195 279.70166016 213.61889648 C285.25106836 214.81582767 290.49097009 214.29175068 295.57666016 211.68139648 C301.80842358 207.64737793 305.24184548 202.52830644 307.44384766 195.51733398 C308.05370038 192.86535833 308.05370038 192.86535833 307.88916016 188.30639648 C172.58916016 188.30639648 37.28916016 188.30639648 -102.11083984 188.30639648 Z M-44.11083984 232.30639648 C-44.68189453 232.75370117 -45.25294922 233.20100586 -45.84130859 233.66186523 C-57.37315764 242.26033456 -67.5152879 244.36032289 -82.11083984 246.30639648 C-82.11083984 301.08639648 -82.11083984 355.86639648 -82.11083984 412.30639648 C-49.44083984 412.30639648 -16.77083984 412.30639648 16.88916016 412.30639648 C16.91494141 403.03803711 16.94072266 393.76967773 16.96728516 384.22045898 C16.99245767 378.34153173 17.01863143 372.46263703 17.04931641 366.58374023 C17.09781306 357.25675701 17.1422737 347.9298821 17.16015625 338.6027832 C17.17320074 331.80892882 17.20023626 325.01529547 17.24377322 318.2215656 C17.26632564 314.62736776 17.28207461 311.03344189 17.28104401 307.43916702 C17.28015389 303.41754935 17.31051238 299.39672872 17.34326172 295.37524414 C17.33571617 293.60577927 17.33571617 293.60577927 17.32801819 291.80056763 C17.41726356 284.69582202 18.29224324 278.55392572 21.88916016 272.30639648 C22.54916016 271.97639648 23.20916016 271.64639648 23.88916016 271.30639648 C23.88916016 270.64639648 23.88916016 269.98639648 23.88916016 269.30639648 C25.55582682 268.63972982 27.22249349 267.97306315 28.88916016 267.30639648 C29.65282237 266.95870901 30.41648458 266.61102154 31.20328808 266.25279808 C34.19536831 265.1985001 36.50826098 265.04955876 39.6756134 265.03897095 C40.8320787 265.03044098 41.98854401 265.02191101 43.18005371 265.01312256 C44.43991089 265.01402893 45.69976807 265.0149353 46.99780273 265.01586914 C48.3451525 265.00988122 49.69249884 265.00307507 51.0398407 264.99551392 C54.69287624 264.97787219 58.34581804 264.97315928 61.99889207 264.97188234 C64.28365629 264.97045901 66.56839681 264.96618593 68.85315514 264.96088791 C76.83107385 264.9423928 84.8089258 264.93421653 92.78686523 264.93579102 C100.21174655 264.93699188 107.63633693 264.91589922 115.06114465 264.88430369 C121.44519563 264.85810963 127.82915178 264.84742505 134.21325606 264.84870183 C138.0219777 264.84921061 141.83044076 264.84357494 145.63910866 264.82234573 C149.22368975 264.80291058 152.80776703 264.80287429 156.39236641 264.817379 C158.32549621 264.82045045 160.25862633 264.80382706 162.19168091 264.78649902 C169.29096481 264.83762312 173.79151656 265.64638695 179.88916016 269.30639648 C180.54916016 269.30639648 181.20916016 269.30639648 181.88916016 269.30639648 C181.88916016 269.96639648 181.88916016 270.62639648 181.88916016 271.30639648 C182.88811139 272.30744415 183.8882465 273.30731098 184.88916016 274.30639648 C188.4510884 282.04899169 188.34990037 289.77018023 188.28027344 298.12719727 C188.2641446 300.43362121 188.28020689 302.73830594 188.29931641 305.04467773 C188.29733456 306.53035863 188.29349211 308.01603846 188.28759766 309.50170898 C188.29367035 310.18105499 188.29974304 310.860401 188.30599976 311.56033325 C188.21845291 317.58838564 186.80205723 322.25733833 182.63916016 326.71655273 C179.17986495 328.71645778 176.8666661 328.80818807 172.88916016 328.74389648 C171.69291016 328.74260742 170.49666016 328.74131836 169.26416016 328.73999023 C165.59780063 328.26896488 163.77103411 327.59288329 160.88916016 325.30639648 C157.88916016 320.30639648 157.88916016 320.30639648 156.88916016 296.30639648 C121.24916016 296.30639648 85.60916016 296.30639648 48.88916016 296.30639648 C48.88916016 334.58639648 48.88916016 372.86639648 48.88916016 412.30639648 C84.52916016 412.30639648 120.16916016 412.30639648 156.88916016 412.30639648 C157.21916016 400.75639648 157.54916016 389.20639648 157.88916016 377.30639648 C164.24027892 369.68505397 164.24027892 369.68505397 169.95947266 369.09155273 C175.22706909 368.8683495 179.36316283 369.37780998 183.88916016 372.30639648 C187.88916016 381.30639648 187.88916016 381.30639648 188.88916016 412.30639648 C221.55916016 412.30639648 254.22916016 412.30639648 287.88916016 412.30639648 C287.88916016 357.52639648 287.88916016 302.74639648 287.88916016 246.30639648 C280.46416016 245.31639648 280.46416016 245.31639648 272.88916016 244.30639648 C263.94584125 241.40809869 256.58988123 237.66140693 248.88916016 232.30639648 C248.15181641 232.91354492 247.41447266 233.52069336 246.65478516 234.14624023 C233.6134113 244.33251106 218.35634419 246.60575542 202.20166016 244.80639648 C192.82781864 243.08491112 184.12603226 238.43613517 176.88916016 232.30639648 C174.22265728 233.47965775 172.26437021 234.7982524 169.95166016 236.61889648 C159.83950686 243.83880255 148.92246113 245.29396539 136.88916016 245.30639648 C135.90947266 245.31799805 134.92978516 245.32959961 133.92041016 245.34155273 C122.78829129 244.93228366 112.17344211 239.56157509 103.88916016 232.30639648 C100.52364239 233.91321138 97.38710167 235.80764772 94.20166016 237.74389648 C80.37084739 245.74945718 65.42560803 247.09327772 49.88916016 243.30639648 C43.57105539 241.42804101 38.67674057 238.77486986 33.67822266 234.47827148 C31.68793083 232.9411044 31.68793083 232.9411044 27.88916016 233.30639648 C25.3911408 234.70061165 25.3911408 234.70061165 22.82666016 236.55639648 C9.54351471 245.21322214 -4.68161264 246.84070588 -20.12255859 244.05249023 C-23.98277 243.08869889 -27.55841768 241.73743359 -31.18505859 240.11108398 C-33.07054605 239.17788134 -33.07054605 239.17788134 -35.11083984 239.30639648 C-35.11083984 238.64639648 -35.11083984 237.98639648 -35.11083984 237.30639648 C-36.22458984 236.66702148 -37.33833984 236.02764648 -38.48583984 235.36889648 C-39.11232422 235.00924805 -39.73880859 234.64959961 -40.38427734 234.27905273 C-41.6088246 233.58920598 -42.85373061 232.9349511 -44.11083984 232.30639648 Z " fill="#074CA6" transform="translate(399.11083984375,289.693603515625)"/>
</svg>
