<?xml version="1.0" encoding="UTF-8"?>
<svg version="1.1" xmlns="http://www.w3.org/2000/svg" width="962" height="1024">
<path d="M0 0 C1.0639463 -0.00495952 2.1278926 -0.00991903 3.2240797 -0.01502883 C6.79542144 -0.02800005 10.36639024 -0.0195951 13.93774128 -0.01129913 C16.52163325 -0.0161873 19.10552303 -0.02237676 21.68940908 -0.02975702 C27.31059782 -0.0436637 32.93170609 -0.04640467 38.5529089 -0.04179764 C46.91208464 -0.03496442 55.27117892 -0.04522464 63.63034334 -0.0587552 C79.4292302 -0.08367043 95.22808327 -0.08818393 111.02698662 -0.08628923 C123.22825392 -0.08491626 135.42950949 -0.08873329 147.6307745 -0.09621429 C149.3836171 -0.09726463 151.13645971 -0.09831225 152.88930232 -0.09935716 C153.75940775 -0.0998765 154.62951319 -0.10039585 155.52598546 -0.10093093 C156.83353295 -0.10171114 156.83353295 -0.10171114 158.16749555 -0.10250711 C159.47723207 -0.1032931 159.47723207 -0.1032931 160.81342792 -0.10409497 C185.37404444 -0.11867963 209.93465665 -0.12696021 234.4952774 -0.12234497 C235.88427353 -0.12208704 235.88427353 -0.12208704 237.30133018 -0.1218239 C241.99465646 -0.120935 246.68798273 -0.11999019 251.381309 -0.11902589 C252.31341788 -0.11883485 253.24552677 -0.11864382 254.20588138 -0.118447 C256.09083302 -0.11805991 257.97578465 -0.11766958 259.86073629 -0.11727602 C289.18561594 -0.11130701 318.51041666 -0.12673934 347.83527851 -0.15888214 C380.7829915 -0.1949653 413.73065443 -0.21429084 446.67838842 -0.20934343 C450.19220054 -0.20887346 453.70601266 -0.2084632 457.21982479 -0.20809174 C458.08501164 -0.20798935 458.95019849 -0.20788696 459.84160312 -0.20778148 C472.8984339 -0.20658699 485.95521058 -0.21854943 499.01202679 -0.23723602 C513.86434925 -0.25848204 528.71655829 -0.2623138 543.56888583 -0.24293643 C551.87799144 -0.23261649 560.18682034 -0.23606413 568.49590089 -0.25946729 C574.70402071 -0.27540084 580.91184004 -0.26513011 587.11994103 -0.24474627 C589.62866551 -0.24055333 592.13742136 -0.24478362 594.6461127 -0.25834221 C612.46324428 -0.34807037 625.73062982 0.51207855 639.25983906 13.38311005 C645.25983906 19.53942267 645.25983906 19.53942267 645.25983906 22.38311005 C645.91983906 22.38311005 646.57983906 22.38311005 647.25983906 22.38311005 C648.24749919 24.58797823 649.22502422 26.79648316 650.19733906 29.00811005 C650.47513203 29.62557098 650.752925 30.24303192 651.03913593 30.8792038 C653.5598539 36.64952203 654.37953672 41.88599974 654.40701008 48.14469147 C654.41774303 49.83313423 654.41774303 49.83313423 654.42869282 51.55568695 C654.43272617 53.38633194 654.43272617 53.38633194 654.43684101 55.25395966 C654.44669781 57.1988755 654.44669781 57.1988755 654.45675373 59.18308258 C654.47769316 63.46719395 654.48814257 67.75130529 654.49812031 72.0354538 C654.50217083 73.51436697 654.50628784 74.99327996 654.51047039 76.47219276 C654.52949518 83.41815627 654.54373516 90.3641093 654.55208236 97.31009382 C654.56186267 105.31482986 654.58821401 113.31928997 654.62858325 121.32392877 C654.65876471 127.52198706 654.67355291 133.71996627 654.67686337 139.9180966 C654.67921034 143.61556854 654.68812533 147.31274475 654.71332455 151.01013756 C654.74098405 155.13455688 654.736768 159.25835967 654.72980976 163.38286591 C654.74261982 164.60127167 654.75542988 165.81967743 654.76862812 167.07500458 C654.72760723 173.74136103 654.2927184 177.98572509 650.25983906 183.38311005 C646.12866058 187.25608987 642.01683667 187.74805113 636.41999531 187.66436005 C632.62826818 187.17068129 629.27927393 185.71965721 626.25983906 183.38311005 C623.73102907 179.79987049 622.88525931 177.3648754 622.88802814 172.99648285 C622.87789188 171.39450043 622.87789188 171.39450043 622.86755085 169.76015472 C622.87912975 168.01769974 622.87912975 168.01769974 622.89094257 166.24004364 C622.88717609 165.0085257 622.88340961 163.77700775 622.879529 162.50817108 C622.87309327 159.83375638 622.87198705 157.15995159 622.87971401 154.48559952 C622.89133043 150.24785586 622.87910461 146.0103841 622.86309528 141.77266693 C622.82694983 131.24276621 622.82066295 120.71287188 622.82319355 110.18291473 C622.82490939 102.00549805 622.81763816 93.82830471 622.78321499 85.65095007 C622.76651728 81.44812576 622.76813263 77.24584802 622.78403771 73.04302669 C622.79125346 69.79614673 622.77255698 66.54938849 622.75813007 63.30254364 C622.76787357 62.15305237 622.77761707 61.0035611 622.78765583 59.81923676 C622.71943422 52.09118493 621.84630988 43.9706679 616.91876793 37.66770744 C610.67740362 31.95372032 602.90889071 32.0923104 594.97513485 32.13142776 C593.43486492 32.12706744 593.43486492 32.12706744 591.86347842 32.12261903 C588.41241956 32.11530296 584.96153759 32.12227003 581.51047993 32.12914276 C579.01534763 32.12683897 576.520216 32.12366299 574.02508581 32.11968827 C568.59483955 32.11306903 563.16464767 32.1126836 557.73440075 32.11778259 C549.65936451 32.12534444 541.58436186 32.12148166 533.50932585 32.11536598 C519.08715002 32.10482999 504.6649919 32.10574914 490.24281438 32.1115238 C477.62055133 32.116553 464.99829477 32.11786921 452.37603092 32.11547852 C451.53907842 32.11532575 450.70212592 32.11517298 449.83981122 32.11501558 C446.44240846 32.11439291 443.0450057 32.11375611 439.64760295 32.11309605 C407.76882521 32.10697632 375.89005876 32.11252751 344.01128277 32.12328984 C315.68690226 32.1327795 287.36253973 32.13193345 259.03815937 32.12236786 C227.22106379 32.11165866 195.40397818 32.10741205 163.58688104 32.11359239 C160.1950136 32.11423383 156.80314617 32.11485951 153.41127872 32.11547852 C152.57610499 32.11563667 151.74093126 32.11579483 150.88044924 32.11595777 C138.26729211 32.11823292 125.65414219 32.11557176 113.04098606 32.11051941 C98.69799482 32.10480283 84.35502407 32.10622635 70.01203538 32.1170809 C61.98434592 32.12295569 53.95670083 32.12333362 45.92901251 32.11578855 C39.93746703 32.11077823 33.94597918 32.11620841 27.95443718 32.1257377 C25.52852727 32.12797551 23.10261143 32.12682692 20.67670532 32.12198612 C17.38312706 32.11591707 14.08979111 32.12213039 10.79622555 32.13142776 C9.85124061 32.12674543 8.90625567 32.1220631 7.93263483 32.11723888 C2.08963038 32.15027242 -3.07570787 32.93175368 -8.74016094 34.38311005 C-8.74016094 35.04311005 -8.74016094 35.70311005 -8.74016094 36.38311005 C-10.11516094 38.00811005 -10.11516094 38.00811005 -11.74016094 39.38311005 C-12.40016094 39.38311005 -13.06016094 39.38311005 -13.74016094 39.38311005 C-13.88453594 40.18748505 -14.02891094 40.99186005 -14.17766094 41.82061005 C-14.74016094 44.38311005 -14.74016094 44.38311005 -15.74016094 45.38311005 C-15.897567 47.08874783 -15.99109486 48.80038249 -16.05656719 50.5120163 C-16.09846172 51.54648895 -16.14035625 52.58096161 -16.18352032 53.64678192 C-16.22283672 54.7353952 -16.26215313 55.82400848 -16.30266094 56.94561005 C-16.34584454 58.03809052 -16.38902813 59.13057098 -16.43352032 60.25615692 C-16.53998162 62.96500568 -16.64199611 65.67394997 -16.74016094 68.38311005 C-15.56688193 68.38159117 -14.39360291 68.38007228 -13.18476999 68.37850738 C38.53514794 68.31181635 90.25506945 68.25010736 141.9750185 68.21373749 C142.75830951 68.21318526 143.54160053 68.21263303 144.34862763 68.21206407 C161.37256754 68.20009181 178.39650791 68.18901118 195.420449 68.17884873 C203.7692562 68.17385948 212.11806329 68.16867325 220.46687031 68.16338348 C221.71306544 68.16259893 221.71306544 68.16259893 222.98443623 68.16179853 C249.90210516 68.14475995 276.81974046 68.1147198 303.73738903 68.07792116 C331.40393615 68.04016751 359.07046467 68.01556287 386.73703711 68.00745009 C390.64675141 68.0062975 394.55646563 68.00499496 398.46617985 68.00360107 C399.62038619 68.00319654 399.62038619 68.00319654 400.79790983 68.00278383 C413.17311059 67.99806107 425.54825374 67.97951996 437.92343102 67.95578191 C450.37143033 67.93220014 462.81937264 67.92324633 475.26739348 67.92910454 C482.00928397 67.93187484 488.75099568 67.92773334 495.49285793 67.90628815 C501.66915818 67.88678561 507.84517652 67.88586443 514.0214899 67.89951447 C516.25187797 67.90120089 518.48228381 67.89615845 520.71263702 67.88357732 C540.82833915 67.77673619 555.95356684 70.42712931 571.29108906 84.29717255 C573.25983906 86.38311005 573.25983906 86.38311005 574.25983906 89.38311005 C574.91983906 89.38311005 575.57983906 89.38311005 576.25983906 89.38311005 C577.05534298 90.77676004 577.84605744 92.17314435 578.63483906 93.57061005 C579.07569843 94.34791473 579.51655781 95.12521942 579.97077656 95.9260788 C585.3554198 106.18953516 585.55299261 117.00507772 585.50593472 128.37108898 C585.50741676 129.76360186 585.50977687 131.15611403 585.51292771 132.54862413 C585.5190344 136.36374018 585.51274182 140.17874874 585.50437144 143.99385674 C585.49747776 148.14859045 585.50224944 152.30331372 585.50552642 156.4580496 C585.50966735 163.73573811 585.50639755 171.01339387 585.49825001 178.29107857 C585.48616867 189.11268619 585.48557945 199.93427322 585.48733399 210.75588636 C585.48996058 228.96047791 585.48328353 247.16505493 585.47129917 265.36964226 C585.45946404 283.39376332 585.45176706 301.41787833 585.44959354 319.44200325 C585.44945606 320.56280166 585.44931859 321.68360007 585.44917694 322.83836206 C585.44850027 328.53035985 585.4478975 334.22235764 585.44732319 339.91435543 C585.44312267 380.22791903 585.42964879 420.54147473 585.41071796 460.85503387 C585.39234846 500.01844491 585.37818154 539.18185377 585.36970234 578.34526825 C585.36943929 579.55251269 585.36917623 580.75975714 585.36890521 582.00358475 C585.36626816 594.12725945 585.36371654 606.25093418 585.36122749 618.37460891 C585.3561551 643.07180411 585.3505126 667.76899916 585.34452534 692.46619415 C585.34425076 693.6017245 585.34397618 694.73725485 585.34369328 695.90719521 C585.32529279 771.73250344 585.29360248 847.55780729 585.25983906 923.38311005 C588.92785123 923.36009471 592.5928277 923.28249549 596.25983906 923.19561005 C597.2898 923.18980927 598.31976093 923.18400848 599.38093281 923.17803192 C606.21137368 922.98225495 611.01747069 921.92649597 616.25983906 917.38311005 C622.1576106 910.08849787 622.55185645 903.18575825 622.51596546 894.17674065 C622.52106077 892.46880551 622.52106077 892.46880551 622.52625901 890.72636664 C622.53368717 887.56089818 622.53216278 884.39557853 622.52690793 881.23011035 C622.5233997 877.7882426 622.53148995 874.34639917 622.53813028 870.90453875 C622.54817979 864.87062068 622.55084718 858.8367343 622.54870892 852.80280876 C622.54557583 843.83035657 622.55389392 834.85794074 622.56466402 825.88549577 C622.58249696 810.79184 622.59133716 795.69819171 622.59536457 780.60452652 C622.60098393 759.99702426 622.61964336 739.38954844 622.64180511 718.78205808 C622.65210817 709.18534921 622.66177206 699.5886397 622.67126942 689.99193001 C622.67222093 689.03120562 622.67317244 688.07048123 622.67415278 687.08064397 C622.69665569 664.20978952 622.71289883 641.33893129 622.72810078 618.46807098 C622.72876833 617.46725189 622.72943588 616.4664328 622.73012366 615.43528585 C622.74094919 599.19240571 622.75139523 582.94952532 622.7617923 566.70664489 C622.77154042 551.48356545 622.78142655 536.2604861 622.79157734 521.03740692 C622.79224222 520.03681681 622.79290709 519.03622671 622.79359212 518.00531569 C622.80879941 495.17044198 622.8257916 472.3355715 622.8484087 449.50070381 C622.84935796 448.54157123 622.85030721 447.58243864 622.85128524 446.59424143 C622.8608016 437.02025876 622.87063134 427.44627646 622.8809292 417.87229459 C622.90300372 397.28495925 622.91956343 376.69764019 622.92505474 356.11029333 C622.9291396 341.10688821 622.94001083 326.10350146 622.95803249 311.10010646 C622.96850744 302.1782178 622.97329132 293.25636668 622.9701323 284.33447223 C622.96856085 278.38249079 622.97414341 272.43054445 622.98564331 266.47857398 C622.99199099 263.08244336 622.99510133 259.6863913 622.98947543 256.29025762 C622.98507546 252.63935586 622.99279305 248.98868037 623.00371265 245.33779716 C622.99949128 244.27350451 622.9952699 243.20921186 622.9909206 242.11266792 C622.99633616 241.14339315 623.00175171 240.17411839 623.00733137 239.17547166 C623.00781978 238.34013403 623.00830818 237.5047964 623.00881138 236.64414551 C623.3734022 233.36023359 624.43167686 231.17183594 626.81843281 228.89873505 C631.66372264 225.63496393 635.71595541 224.55167118 641.56843281 224.82842255 C646.02463326 225.7468267 649.2972994 227.96022588 652.25983906 231.38311005 C653.87488234 234.82220005 654.50992697 237.54126466 654.51053739 241.3282783 C654.51554442 242.30619877 654.52055146 243.28411924 654.52571023 244.29167366 C654.52102789 245.36050348 654.51634556 246.42933331 654.51152134 247.53055191 C654.51442822 248.67496537 654.5173351 249.81937884 654.52033007 250.9984715 C654.5263857 254.18487794 654.52344894 257.37113217 654.51677417 260.55753278 C654.51171113 264.02042668 654.51821649 267.48330173 654.52326083 270.94619298 C654.53049453 277.01873717 654.53025874 283.09124582 654.52516651 289.16379166 C654.51761465 298.1939545 654.52146225 307.22408726 654.52758313 316.2542499 C654.53812716 332.38140943 654.53719671 348.50855315 654.5314253 364.6357142 C654.52639851 378.75117323 654.52507876 392.86662644 654.52747059 406.98208618 C654.52769974 408.38536709 654.52769974 408.38536709 654.52793353 409.8169971 C654.52855619 413.61441575 654.52919299 417.4118344 654.52985306 421.20925305 C654.53597478 456.85236999 654.5304186 492.49547684 654.51965926 528.13859222 C654.51017076 559.81255148 654.51101427 591.48649467 654.52058125 623.1604538 C654.53128933 658.73143423 654.53553755 694.30240575 654.52935672 729.87338758 C654.52871527 733.66521533 654.52808959 737.45704309 654.52747059 741.24887085 C654.52731243 742.18254127 654.52715428 743.11621168 654.52699133 744.07817514 C654.52471559 758.18275987 654.52737849 772.28733816 654.5324297 786.391922 C654.53814509 802.43126904 654.53672536 818.47059775 654.52586821 834.5099425 C654.51999113 843.48854408 654.51961876 852.46710599 654.52716056 861.44570655 C654.53164198 867.44190343 654.52886021 873.43806847 654.52015102 879.43426063 C654.51538979 882.85156542 654.5137744 886.26879133 654.52096298 889.68609366 C654.52702395 893.36823991 654.52082692 897.0501688 654.51152134 900.73230362 C654.51620367 901.79176878 654.520886 902.85123394 654.52571023 903.9428041 C654.47887319 913.18418195 652.99981527 920.79233131 648.63483906 928.94561005 C648.30999531 929.57273895 647.98515156 930.19986786 647.65046406 930.84600067 C646.86289171 932.36323564 646.06273302 933.87392701 645.25983906 935.38311005 C644.59983906 935.38311005 643.93983906 935.38311005 643.25983906 935.38311005 C642.90405781 936.23582489 642.90405781 936.23582489 642.54108906 937.1057663 C637.45095554 946.15316824 627.11476533 951.62907681 617.51765156 954.5042038 C610.20836321 956.04662795 602.62953162 955.59230502 595.19733906 955.50811005 C593.64851672 955.49806013 592.09968807 955.48893783 590.55085468 955.4807663 C586.78702477 955.45891212 583.02350283 955.42449348 579.25983906 955.38311005 C579.27554951 956.49383881 579.27554951 956.49383881 579.29157734 957.62700653 C579.33348986 961.02483899 579.35927651 964.4226168 579.38483906 967.82061005 C579.40159687 968.98527802 579.41835468 970.14994598 579.43562031 971.34990692 C579.51469139 985.38502432 576.1476588 998.31211735 566.69733906 1009.17998505 C565.25983906 1010.38311005 565.25983906 1010.38311005 563.25983906 1010.38311005 C563.25983906 1011.04311005 563.25983906 1011.70311005 563.25983906 1012.38311005 C552.48667896 1021.21880459 542.32802897 1024.69837508 528.59776497 1024.64037895 C527.54226054 1024.64388503 526.4867561 1024.6473911 525.39926669 1024.65100342 C521.85671069 1024.6603192 518.31431902 1024.65539355 514.77175617 1024.65053558 C512.20848954 1024.65427174 509.64522406 1024.65887313 507.08196038 1024.66426623 C501.50584696 1024.67456271 495.92976826 1024.67741063 490.35364628 1024.675354 C482.06149245 1024.6723031 473.76937702 1024.68062999 465.47723066 1024.69110326 C449.80495601 1024.71044484 434.13269444 1024.71607154 418.46040926 1024.71721737 C406.35687512 1024.7181365 394.25334612 1024.72225339 382.14981365 1024.72861862 C378.66565822 1024.73041372 375.18150278 1024.73219334 371.69734734 1024.73396838 C370.83117072 1024.73441047 369.9649941 1024.73485257 369.0725697 1024.73530806 C344.7084329 1024.74761652 320.34429789 1024.75550919 295.98015785 1024.75462151 C295.06157474 1024.75459035 294.14299162 1024.75455919 293.19657266 1024.75452709 C288.54082913 1024.75436087 283.88508561 1024.75416279 279.22934208 1024.75395767 C277.8423758 1024.75389784 277.8423758 1024.75389784 276.42739 1024.75383679 C274.55753381 1024.75375592 272.68767762 1024.75367232 270.81782143 1024.75358601 C241.72791734 1024.75236059 212.63805988 1024.76737209 183.54816914 1024.79473114 C150.86414931 1024.82545781 118.18016011 1024.84266328 85.49612492 1024.8408047 C82.01039771 1024.84065544 78.5246705 1024.84055802 75.03894329 1024.84049606 C74.18067219 1024.84047275 73.3224011 1024.84044945 72.43812178 1024.84042543 C58.6312297 1024.84036391 44.82437812 1024.85313119 31.01749808 1024.87036059 C17.13886094 1024.88732122 3.26028302 1024.88928755 -10.61835875 1024.87614195 C-18.86077658 1024.86875562 -27.10301444 1024.87240122 -35.34541318 1024.89202663 C-41.50387624 1024.90544967 -47.66214779 1024.89790716 -53.82060192 1024.88228019 C-56.30913868 1024.87920352 -58.79769495 1024.88286764 -61.28620871 1024.89400034 C-79.07735531 1024.96831218 -93.5342918 1024.20776617 -107.74016094 1012.38311005 C-116.64019105 1003.20218198 -122.97039973 992.48413947 -123.00758648 979.46952057 C-123.01211759 978.81032106 -123.01664871 978.15112155 -123.02131712 977.4719463 C-123.03388776 975.28267455 -123.03234561 973.09365391 -123.03068829 970.90435028 C-123.03667791 969.32686293 -123.04348445 967.7493785 -123.05104351 966.17189789 C-123.06866088 961.9013688 -123.07339692 957.63091992 -123.07467508 953.360358 C-123.076099 950.69066269 -123.08037302 948.02098764 -123.08566952 945.35129738 C-123.10415159 936.03351933 -123.11234191 926.7157984 -123.11076641 917.39800262 C-123.10956363 908.71769538 -123.13069728 900.03763622 -123.16225374 891.35739177 C-123.18840632 883.89733412 -123.19913422 876.4373576 -123.19785559 868.97725445 C-123.19734591 864.52477313 -123.20303335 860.07251271 -123.22421169 855.62007713 C-123.24357847 851.43469076 -123.24372947 847.2497365 -123.22917843 843.06433487 C-123.22708768 841.53007564 -123.23180713 839.99578946 -123.24389935 838.46157646 C-123.25936087 836.36378285 -123.25004044 834.26747794 -123.23463726 832.16971588 C-123.2357268 830.99706901 -123.23681633 829.82442213 -123.23793888 828.6162405 C-122.6287932 824.65976251 -121.20860111 822.49941508 -118.74016094 819.38311005 C-113.79545885 815.85117998 -108.61899305 815.422931 -102.74016094 816.38311005 C-98.36702826 818.10876443 -95.5479608 819.9995264 -93.1581068 824.09282112 C-91.64388439 827.6065161 -91.3641224 829.90569972 -91.3616209 833.70742035 C-91.35341824 834.95781601 -91.34521557 836.20821167 -91.33676434 837.49649811 C-91.34272196 838.86934774 -91.34894101 840.24219625 -91.35539532 841.61504364 C-91.3512871 843.07091445 -91.34582475 844.52678198 -91.33911419 845.98264313 C-91.3274107 849.11086842 -91.32489715 852.23891739 -91.32947063 855.3671608 C-91.33629395 860.31825724 -91.32038851 865.26912274 -91.30107403 870.2201767 C-91.2632488 880.73280873 -91.2504261 891.24542041 -91.24016094 901.75811005 C-91.22907921 913.10163794 -91.21366662 924.44505903 -91.16944838 935.78851378 C-91.15113529 940.70542393 -91.14718433 945.62206899 -91.15438366 950.53900504 C-91.15591034 953.60412372 -91.14509126 956.66911093 -91.13100529 959.7341938 C-91.12701789 961.14988394 -91.12810151 962.56559937 -91.13477802 963.98127937 C-91.34731907 976.01229426 -91.34731907 976.01229426 -85.98625469 986.4417038 C-85.38941875 986.89674286 -84.79258282 987.35178192 -84.17766094 987.82061005 C-83.57824688 988.29369598 -82.97883282 988.76678192 -82.36125469 989.2542038 C-79.59610189 991.17981623 -77.89679816 991.50886383 -74.57039535 991.51306188 C-73.68926582 991.5165903 -72.80813629 991.52011872 -71.90030587 991.52375406 C-70.92438292 991.52255628 -69.94845997 991.52135851 -68.9429636 991.52012444 C-67.39063762 991.52410218 -67.39063762 991.52410218 -65.80695152 991.52816027 C-62.29850352 991.53589113 -58.7900903 991.53641389 -55.28163433 991.53701019 C-52.75710645 991.54102232 -50.23257921 991.54546013 -47.70805275 991.55028975 C-41.47126269 991.5610279 -35.2344825 991.56701778 -28.99768493 991.57099863 C-21.53099317 991.57600175 -14.06431237 991.58672834 -6.59762706 991.59748036 C11.45245152 991.62312935 29.50253438 991.63814955 47.55262596 991.65099083 C53.52998984 991.65524388 59.5073534 991.65980956 65.48471689 991.66457415 C97.25161847 991.68983297 129.01852054 991.711886 160.78542995 991.72430229 C168.14799342 991.72722373 175.51055688 991.73019123 182.87312031 991.7332077 C184.2452104 991.73376407 184.2452104 991.73376407 185.64501948 991.73433167 C215.30737338 991.7464891 244.96966797 991.77743535 274.63199402 991.81912923 C305.11464041 991.86189814 335.59725548 991.88854094 366.07993269 991.89377701 C370.38366449 991.89451748 374.68739623 991.89542817 378.99112797 991.89643478 C379.83816683 991.8966254 380.68520569 991.89681601 381.55791239 991.8970124 C395.2006277 991.90052871 408.84326883 991.92083923 422.48595688 991.94723142 C436.19497158 991.97335235 449.90390042 991.98111354 463.61293645 991.97013013 C471.76088339 991.9641454 479.90853947 991.9721063 488.05644248 991.99996097 C494.13595087 992.01920918 500.21513372 992.01242033 506.29466103 991.9953918 C508.75772073 991.99257666 511.22080743 991.99827356 513.68382348 992.01320474 C517.02558053 992.03222904 520.3658724 992.02057544 523.70759487 992.0011425 C524.66947082 992.01399172 525.63134677 992.02684094 526.62237048 992.04007953 C532.86423091 991.96003074 537.58937565 990.72223733 542.25983906 986.38311005 C543.47564545 984.3053152 543.47564545 984.3053152 544.25983906 982.38311005 C544.91983906 982.38311005 545.57983906 982.38311005 546.25983906 982.38311005 C546.2941047 899.79657947 546.32590549 817.21004803 546.34452534 734.62351227 C546.34480145 733.4019601 546.34507757 732.18040794 546.34536205 730.92183904 C546.35134732 704.37669557 546.35688776 677.83155202 546.36196972 651.28640835 C546.36446447 638.26940721 546.36705757 625.25240608 546.36970234 612.23540497 C546.36996386 610.94003015 546.37022538 609.64465533 546.37049482 608.31002673 C546.37902341 566.29390397 546.39405042 524.27778658 546.4124335 482.26166708 C546.43128418 439.09860707 546.44360657 395.93555002 546.44766904 352.77248596 C546.44824538 346.68142269 546.44889666 340.59035944 546.44959354 334.49929619 C546.44972839 333.30044184 546.44986324 332.10158748 546.45000217 330.86640421 C546.45236917 311.53801625 546.46165487 292.20963745 546.47350313 272.88125323 C546.48525667 253.46796957 546.48978028 234.05469504 546.48684181 214.64140794 C546.48531619 203.09582972 546.4894159 191.55028479 546.50143414 180.00471256 C546.50890681 172.30237453 546.50918557 164.60005842 546.50350269 156.89771891 C546.50046916 152.50257572 546.50066964 148.10749571 546.50960542 143.71235917 C546.51766422 139.71842435 546.51661241 135.72460234 546.50811901 131.73066937 C546.50668394 130.29049717 546.50864294 128.85031683 546.51430955 127.41015506 C546.52149518 125.4612262 546.51522135 123.51226149 546.50823605 121.5633319 C546.50854801 120.4822302 546.50885997 119.40112849 546.50918139 118.28726612 C546.00034882 112.36075862 543.65793466 109.26979918 539.25983906 105.38311005 C534.50717509 101.58504607 529.90577687 101.9601853 524.09349823 101.99720669 C522.53597995 101.98931802 522.53597995 101.98931802 520.94699666 101.98126999 C517.44472906 101.9672411 513.94283245 101.97469872 510.4405489 101.98197174 C507.91342942 101.97637026 505.38631255 101.9694693 502.85919982 101.96137577 C497.35288425 101.94681719 491.84668195 101.94166374 486.34035015 101.94474411 C478.15221943 101.94931359 469.96417647 101.93684548 461.77606279 101.92112023 C446.30206774 101.89208341 430.82810246 101.88366691 415.35408338 101.88194906 C403.40584736 101.88057129 391.45762305 101.87440074 379.50939083 101.86484718 C376.07211315 101.86215462 372.63483545 101.85948518 369.19755775 101.85682255 C368.3430795 101.85615941 367.48860125 101.85549626 366.60822972 101.85481302 C342.56810559 101.83634631 318.52798553 101.82451175 294.487854 101.82584286 C293.58119249 101.82588959 292.67453098 101.82593633 291.74039488 101.82598448 C287.144888 101.82623381 282.54938113 101.82653093 277.95387425 101.82683861 C277.04116352 101.82689844 276.12845278 101.82695828 275.18808414 101.82701993 C273.34236008 101.82714124 271.49663603 101.82726663 269.65091197 101.8273961 C240.93074642 101.8292346 212.2106871 101.80671197 183.49055195 101.76567841 C151.23582198 101.71961401 118.98116181 101.69377863 86.72639686 101.69656807 C83.2881761 101.69679197 79.84995535 101.69693809 76.41173458 101.69703102 C75.56513522 101.69706598 74.71853586 101.69710095 73.84628198 101.69713697 C60.21209403 101.69722935 46.57799817 101.67805774 32.94383762 101.65223423 C19.24525094 101.626825 5.54679925 101.62381883 -8.15179793 101.64356219 C-16.29313423 101.65466292 -24.43406094 101.64911057 -32.57535399 101.61973517 C-38.64984418 101.59966649 -44.7238491 101.61085648 -50.79834475 101.63435484 C-53.25929302 101.63898574 -55.72028533 101.63341434 -58.18118171 101.61677461 C-61.52028756 101.59568687 -64.85726459 101.6113954 -68.19629669 101.63644314 C-69.63782431 101.61408633 -69.63782431 101.61408633 -71.10847369 101.59127787 C-77.89102752 101.69924063 -81.89896731 103.62194403 -86.74016094 108.38311005 C-89.98269774 112.77622441 -90.8645198 116.65551226 -90.86731946 122.04081905 C-90.8702315 122.97999205 -90.87314353 123.91916505 -90.87614381 124.88679785 C-90.8733235 126.43269994 -90.8733235 126.43269994 -90.87044621 128.00983238 C-90.87238963 129.11009308 -90.87433306 130.21035377 -90.87633538 131.3439557 C-90.88168628 135.0627374 -90.87988857 138.78148233 -90.87819195 142.50026703 C-90.88060857 145.18056481 -90.88342503 147.8608594 -90.88674128 150.54115593 C-90.8931826 156.38517195 -90.89595831 162.22918081 -90.89636707 168.07320023 C-90.89701114 176.76341091 -90.90339906 185.45361059 -90.91111387 194.14381754 C-90.92319876 207.86534311 -90.93185594 221.58686818 -90.93815202 235.30839755 C-90.9481782 257.08707173 -90.96742778 278.8657302 -90.9896944 300.64439496 C-90.9982253 309.0199622 -91.00649134 317.39552972 -91.01479816 325.77109718 C-91.01572317 326.70166431 -91.01664818 327.63223143 -91.01760122 328.59099756 C-91.0395985 350.74907643 -91.0593868 372.90715704 -91.07805157 395.06523895 C-91.07928109 396.51983643 -91.07928109 396.51983643 -91.08053544 398.00381971 C-91.09962313 420.63220139 -91.11658435 443.26058297 -91.12889385 465.88896942 C-91.12968835 467.34902409 -91.12968835 467.34902409 -91.13049891 468.83857481 C-91.13475057 476.68449501 -91.13892685 484.53041525 -91.1430837 492.37633549 C-91.16027072 524.70505475 -91.18746727 557.03375256 -91.22624408 589.3624534 C-91.23170615 593.92540088 -91.23703909 598.4883485 -91.24228573 603.05129623 C-91.24332011 603.94935351 -91.24435449 604.84741078 -91.24542022 605.77268191 C-91.26176316 620.24320217 -91.26727499 634.71370746 -91.26858339 649.18423607 C-91.27008575 663.71968328 -91.28221155 678.25508967 -91.3053398 692.79051886 C-91.31874807 701.43204823 -91.32372197 710.07348855 -91.31679344 718.71502604 C-91.31298278 724.48275848 -91.31996185 730.25041181 -91.33580922 736.0181236 C-91.34453216 739.3074495 -91.34681553 742.59655557 -91.33923535 745.88588987 C-91.33180297 749.42568042 -91.34263012 752.96495241 -91.3581934 756.50470543 C-91.34834958 758.04358403 -91.34834958 758.04358403 -91.3383069 759.61355108 C-91.38331164 764.97940426 -91.77020151 768.71508223 -94.74016094 773.38311005 C-95.40016094 773.38311005 -96.06016094 773.38311005 -96.74016094 773.38311005 C-96.74016094 774.04311005 -96.74016094 774.70311005 -96.74016094 775.38311005 C-102.00988968 778.71135978 -106.67914155 779.14809308 -112.74016094 778.38311005 C-116.36516094 776.88311005 -116.36516094 776.88311005 -118.74016094 775.38311005 C-118.74016094 774.72311005 -118.74016094 774.06311005 -118.74016094 773.38311005 C-119.40016094 773.38311005 -120.06016094 773.38311005 -120.74016094 773.38311005 C-122.49696504 770.34062709 -122.99068143 768.15393831 -122.99316061 764.65421003 C-122.99868009 763.69911715 -123.00419958 762.74402426 -123.00988632 761.75998917 C-123.00372037 760.18735271 -123.00372037 760.18735271 -122.99742985 758.58294582 C-123.00093592 757.46392263 -123.004442 756.34489943 -123.00805432 755.19196644 C-123.0174232 751.40927323 -123.01243084 747.62673213 -123.00758648 743.84403229 C-123.01021498 741.1177977 -123.01584014 738.39157112 -123.02131712 735.66534096 C-123.0316393 729.7208212 -123.03445708 723.77633402 -123.0324049 717.83180618 C-123.02936059 708.99188148 -123.0376663 700.15199296 -123.04815415 691.31207528 C-123.06752056 674.60556128 -123.07312339 657.89905953 -123.07426827 641.19253563 C-123.07518663 628.29083372 -123.07929952 615.38913664 -123.08566952 602.48743629 C-123.08746456 598.77639535 -123.08924419 595.06535439 -123.09101927 591.35431343 C-123.09146137 590.43178101 -123.09190347 589.50924859 -123.09235896 588.55876064 C-123.10467199 562.59993186 -123.11255964 536.64110475 -123.1116724 510.68227291 C-123.11164124 509.70306089 -123.11161009 508.72384886 -123.11157798 507.71496375 C-123.11141177 502.75169901 -123.11121368 497.78843429 -123.11100857 492.82516956 C-123.11096868 491.83941603 -123.11092879 490.8536625 -123.11088769 489.83803765 C-123.11080682 487.84460135 -123.11072322 485.85116504 -123.11063691 483.85772874 C-123.10941161 452.84851091 -123.12441876 421.83933684 -123.15178204 390.83013153 C-123.18249964 356.00515573 -123.19971467 321.18020868 -123.19785559 286.35521847 C-123.19770633 282.64197703 -123.19760892 278.9287356 -123.19754696 275.21549416 C-123.19752365 274.30117619 -123.19750034 273.38685823 -123.19747633 272.44483366 C-123.19741476 257.72609139 -123.21019093 243.00738706 -123.22741149 228.28865607 C-123.24436114 213.49547718 -123.24634711 198.70235384 -123.23319285 183.90917062 C-123.22579874 175.11979781 -123.2294753 166.33059369 -123.24907753 157.54123872 C-123.26106845 151.66859016 -123.25849636 145.79606389 -123.24413653 139.92342096 C-123.23636567 136.5781574 -123.23705398 133.233487 -123.25105123 129.88820403 C-123.26515029 126.27989013 -123.25460174 122.67244652 -123.23793888 119.06416225 C-123.24787524 118.03212611 -123.2578116 117.00008997 -123.26804906 115.93678001 C-123.15977589 104.85358099 -119.29605847 96.17043444 -112.74016094 87.38311005 C-112.03891094 86.37248505 -111.33766094 85.36186005 -110.61516094 84.32061005 C-102.59957673 75.12701665 -90.50805185 70.34787943 -78.74016094 68.38311005 C-76.3910468 68.30282059 -74.03984425 68.27545182 -71.68937969 68.2854538 C-71.03057308 68.28686874 -70.37176647 68.28828369 -69.69299603 68.28974152 C-67.60450332 68.29530504 -65.51612083 68.30785058 -63.42766094 68.32061005 C-62.00513646 68.32562977 -60.58261028 68.33019185 -59.16008282 68.33428192 C-55.68674017 68.34526247 -52.21346133 68.36250169 -48.74016094 68.38311005 C-48.75587139 67.61756805 -48.77158184 66.85202606 -48.78776836 66.06328583 C-48.85069973 62.54497113 -48.88933523 59.02677543 -48.92766094 55.50811005 C-48.95279766 54.30412567 -48.97793438 53.1001413 -49.00383282 51.85967255 C-49.12537101 36.95098713 -44.41615601 24.22418748 -33.89250469 13.50029755 C-24.04654572 4.45689189 -13.30858082 -0.0875102 0 0 Z " fill="#074CA6" transform="translate(122.74016094207764,-0.38311004638671875)"/>
<path d="M0 0 C1.42825356 -0.01029488 1.42825356 -0.01029488 2.88536072 -0.02079773 C6.01829134 -0.03902867 9.15071935 -0.03523307 12.28369141 -0.02954102 C14.4717322 -0.03410492 16.65977155 -0.03941111 18.84780884 -0.04542542 C23.42903473 -0.05434952 28.01008625 -0.05194166 32.59130859 -0.04199219 C38.44768844 -0.03050969 44.30346467 -0.05070702 50.15976524 -0.07990932 C54.67751865 -0.09830072 59.19512823 -0.09797286 63.7129097 -0.0922718 C65.87136303 -0.09211892 68.02982631 -0.09813613 70.18824387 -0.11056328 C73.21311478 -0.12552492 76.23688119 -0.11475743 79.26171875 -0.09765625 C80.14408707 -0.10732422 81.02645538 -0.11699219 81.93556213 -0.12695312 C91.3063524 -0.01662346 99.08091122 3.91528907 106.13525391 10.02905273 C107.26025391 11.40405273 107.26025391 11.40405273 107.26025391 13.40405273 C107.92025391 13.40405273 108.58025391 13.40405273 109.26025391 13.40405273 C113.38248397 19.24387866 114.55884021 24.97439372 114.53148937 32.00776196 C114.53899546 33.13153237 114.53899546 33.13153237 114.54665318 34.27800521 C114.56097967 36.79063147 114.5611369 39.30305542 114.56132507 41.8157196 C114.56864201 43.63464683 114.5768065 45.45357082 114.58574611 47.2724908 C114.60770511 52.27315126 114.61709148 57.27376843 114.62431657 62.27446902 C114.63418519 67.66743857 114.65537192 73.0603662 114.67481995 78.45330811 C114.71908905 91.48028809 114.74380114 104.50727714 114.7656078 117.53431126 C114.77406492 122.44255812 114.78366022 127.35080248 114.79326278 132.25904721 C114.83543864 153.90351723 114.8713743 175.54798926 114.89082623 197.19249249 C114.89566563 202.48933098 114.90054765 207.78616944 114.90551758 213.08300781 C114.90736226 215.05770597 114.90736226 215.05770597 114.90924422 217.07229701 C114.93018342 238.38259636 114.98872145 259.69257029 115.06290009 281.00275841 C115.13847892 302.89477386 115.17997951 324.78664819 115.18839103 346.67879421 C115.1939615 358.9649718 115.2143517 371.25072995 115.27295494 383.5367794 C115.32278627 394.00392896 115.3416559 404.47056609 115.3207927 414.93782326 C115.3110936 420.27315149 115.3156389 425.60741496 115.36001968 430.94259071 C115.40040747 435.83954649 115.39820599 440.7346767 115.36391852 445.63166199 C115.35877974 447.39091794 115.3684612 449.15030278 115.39556011 450.90935751 C115.59403825 464.65264486 111.84005106 474.43571988 105.26025391 486.40405273 C104.32880023 488.20715853 103.39931833 490.01129134 102.47509766 491.81811523 C101.71930689 493.22355356 100.96031089 494.62727407 100.19775391 496.02905273 C96.68327537 502.59486147 93.41462939 509.22757498 90.29907227 515.99047852 C87.40810421 522.21195165 84.21189588 528.25086479 80.97998047 534.30053711 C78.1648545 539.60087451 75.53037589 544.95773144 73.01025391 550.40405273 C61.26019934 575.6688433 61.26019934 575.6688433 50.15478516 580.71264648 C42.22783489 583.60557473 36.07269704 582.70132063 28.45947266 579.47436523 C26.26025391 578.40405273 26.26025391 578.40405273 23.26025391 576.40405273 C23.26025391 575.74405273 23.26025391 575.08405273 23.26025391 574.40405273 C22.60025391 574.40405273 21.94025391 574.40405273 21.26025391 574.40405273 C17.28986366 569.44763842 14.61003382 564.2941954 12.01025391 558.52905273 C9.09734916 552.21857507 6.06655917 546.01768019 2.76025391 539.90405273 C-0.85491023 533.20296438 -4.14900497 526.39043473 -7.36474609 519.48999023 C-9.84207622 514.20846002 -12.47090253 509.03820077 -15.23974609 503.90405273 C-19.34434443 496.29007668 -23.06150555 488.52368073 -26.72412109 480.68920898 C-28.68881384 476.48898969 -30.74398812 472.34024879 -32.86474609 468.21655273 C-34.83750685 464.13011974 -34.86689408 460.79510984 -34.87117386 456.30331421 C-34.87322649 455.57208243 -34.87527913 454.84085065 -34.87739396 454.08746034 C-34.8830837 451.61794192 -34.88160428 449.14847893 -34.88018799 446.67895508 C-34.88277051 444.89816632 -34.88578335 443.11737814 -34.88919139 441.33659077 C-34.89727823 436.42772121 -34.8990519 431.51886626 -34.89978886 426.60999084 C-34.90163654 421.32143621 -34.90918254 416.03288922 -34.91592407 410.74433899 C-34.92952094 399.17183411 -34.93553452 387.59933268 -34.93993473 376.02682114 C-34.94269546 368.80219194 -34.94693256 361.57756408 -34.9514389 354.35293579 C-34.96363446 334.35496606 -34.97393248 314.35699741 -34.977314 294.35902405 C-34.97753356 293.07842092 -34.97775313 291.7978178 -34.97797935 290.47840852 C-34.97819762 289.19471039 -34.9784159 287.91101226 -34.97864079 286.58841419 C-34.97908426 283.98708407 -34.97953083 281.38575395 -34.97998047 278.78442383 C-34.9802019 277.49406955 -34.98042333 276.20371527 -34.98065147 274.87425935 C-34.98459829 253.97235188 -35.00204749 233.0704793 -35.02533999 212.1685853 C-35.04905429 190.71515039 -35.06151592 169.26173299 -35.06268191 147.80828476 C-35.06359875 135.76057792 -35.06935304 123.7129165 -35.08750153 111.66522217 C-35.1029037 101.40430098 -35.10802234 91.14343925 -35.09976342 80.8825087 C-35.09585706 75.64779151 -35.0967859 70.41319404 -35.11082077 65.17849159 C-35.12356058 60.38290313 -35.12236136 55.58752434 -35.11023006 50.79193616 C-35.10827318 49.06034563 -35.11135105 47.32874025 -35.12007442 45.59717059 C-35.18120326 32.6390207 -34.64121152 20.63784162 -25.73974609 10.40405273 C-17.79440268 2.96524305 -10.75469233 -0.05461747 0 0 Z M-2.73974609 33.40405273 C-2.8336099 35.27586214 -2.85718413 37.15123334 -2.85327148 39.02539062 C-2.85315063 40.24343384 -2.85302979 41.46147705 -2.85290527 42.71643066 C-2.84778931 44.00682251 -2.84267334 45.29721436 -2.83740234 46.62670898 C-2.83639526 47.80519409 -2.83538818 48.9836792 -2.83435059 50.19787598 C-2.82909925 54.62077806 -2.81513815 59.04366632 -2.80224609 63.46655273 C-2.78162109 73.34592773 -2.76099609 83.22530273 -2.73974609 93.40405273 C25.64025391 93.40405273 54.02025391 93.40405273 83.26025391 93.40405273 C83.28087891 83.71030273 83.30150391 74.01655273 83.32275391 64.02905273 C83.33185791 60.9670459 83.34096191 57.90503906 83.3503418 54.75024414 C83.35326117 52.33536829 83.35580968 49.92049194 83.35791016 47.50561523 C83.36302612 46.24193115 83.36814209 44.97824707 83.37341309 43.67626953 C83.37353394 42.4786499 83.37365479 41.28103027 83.3737793 40.04711914 C83.37599991 39.0034317 83.37822052 37.95974426 83.38050842 36.88442993 C83.42730035 34.40199907 83.42730035 34.40199907 82.26025391 32.40405273 C71.32528919 32.38092976 60.39033025 32.36313788 49.45534611 32.35224056 C44.37834373 32.34701163 39.30135802 32.33991381 34.22436523 32.32861328 C29.32904839 32.31778475 24.43374762 32.31177597 19.53841972 32.30917549 C17.6664244 32.30732118 15.79443 32.30370045 13.92244148 32.29832268 C11.30984691 32.29111269 8.69731964 32.29006177 6.0847168 32.29052734 C5.30285004 32.28693207 4.52098328 32.28333679 3.71542358 32.27963257 C0.19502572 31.96121312 0.19502572 31.96121312 -2.73974609 33.40405273 Z M-2.73974609 125.40405273 C-2.73974609 230.67405273 -2.73974609 335.94405273 -2.73974609 444.40405273 C25.64025391 444.40405273 54.02025391 444.40405273 83.26025391 444.40405273 C83.26025391 339.13405273 83.26025391 233.86405273 83.26025391 125.40405273 C54.88025391 125.40405273 26.50025391 125.40405273 -2.73974609 125.40405273 Z M7.26025391 476.40405273 C13.26320207 489.33120206 13.26320207 489.33120206 19.76025391 501.96655273 C22.71684533 507.46956149 25.60178651 512.99885765 28.38525391 518.59155273 C28.70961426 519.2420459 29.03397461 519.89253906 29.36816406 520.56274414 C31.00905014 523.86185832 32.63376281 527.16830527 34.24462891 530.48217773 C34.72198486 531.45634644 34.72198486 531.45634644 35.20898438 532.45019531 C36.08225798 534.23333991 36.94881907 536.01976738 37.81494141 537.80639648 C38.99831124 540.50814687 38.99831124 540.50814687 41.26025391 541.40405273 C41.80552734 540.2297168 42.35080078 539.05538086 42.91259766 537.84545898 C47.02106998 529.05421176 51.26278633 520.38366053 55.87207031 511.84423828 C59.19657034 505.63710215 62.21547269 499.3020565 65.16650391 492.90991211 C66.81810312 489.35191305 68.51177431 485.90750084 70.52197266 482.53686523 C72.50284391 479.56397148 72.50284391 479.56397148 72.26025391 476.40405273 C50.81025391 476.40405273 29.36025391 476.40405273 7.26025391 476.40405273 Z " fill="#074CA6" transform="translate(847.73974609375,296.595947265625)"/>
<path d="M0 0 C0.97627232 -0.00384115 1.95254464 -0.00768229 2.95840096 -0.01163983 C4.02327225 -0.01077335 5.08814354 -0.00990687 6.18528366 -0.00901413 C7.3225168 -0.01198525 8.45974994 -0.01495637 9.63144469 -0.01801753 C13.45056624 -0.02670447 17.26965643 -0.02821278 21.08878708 -0.02970505 C23.82365733 -0.0337958 26.55852428 -0.03933731 29.29339218 -0.04475021 C36.72941203 -0.05832077 44.16542647 -0.06435619 51.60145664 -0.06876087 C56.24609682 -0.07152532 60.89073492 -0.07576303 65.53537369 -0.08026505 C78.3996645 -0.09245578 91.26395366 -0.10275565 104.12825012 -0.10614014 C104.951274 -0.1063597 105.77429787 -0.10657927 106.62226187 -0.10680549 C107.85971815 -0.10713291 107.85971815 -0.10713291 109.12217355 -0.10746694 C110.79382467 -0.1079104 112.4654758 -0.10835696 114.13712692 -0.10880661 C115.38091675 -0.10913875 115.38091675 -0.10913875 116.64983365 -0.10947761 C130.084136 -0.11342519 143.51838409 -0.13087887 156.95266548 -0.15416613 C170.75145081 -0.17789183 184.55020894 -0.19034253 198.349015 -0.19150805 C206.0941226 -0.1924241 213.83915949 -0.19815875 221.58424759 -0.21632767 C228.17955092 -0.23174506 234.77476168 -0.23683945 241.37007961 -0.22858956 C244.73328369 -0.22468886 248.09615025 -0.22722357 251.45935631 -0.23964691 C255.11042779 -0.25234208 258.76102213 -0.2465022 262.4120903 -0.23606491 C263.4680387 -0.24412132 264.52398711 -0.25217772 265.61193395 -0.26047826 C276.32427892 -0.18893428 285.60105923 2.90646681 293.61515427 10.13142776 C301.24537606 18.34739623 303.95292939 27.34070427 303.80109787 38.33362198 C303.80904668 39.50133741 303.81699549 40.66905284 303.82518518 41.87215358 C303.84098068 45.07761682 303.83024403 48.2816561 303.80768418 51.48703587 C303.78986788 54.95742342 303.80692468 58.42767315 303.81940842 61.89805984 C303.83831063 68.68147578 303.8252513 75.46446389 303.80088253 82.24784788 C303.77353999 90.15563574 303.77692711 98.06332355 303.78114919 105.97114668 C303.78751786 120.08333632 303.76425536 134.19532354 303.72501755 148.30745316 C303.6869922 161.98720331 303.67284945 175.66671642 303.68400192 189.34651566 C303.69612738 204.26380901 303.69574699 219.18099837 303.67303026 234.09828311 C303.6706158 235.6898297 303.66820383 237.2813763 303.66579437 238.8729229 C303.6645873 239.65588806 303.66338022 240.43885323 303.66213656 241.24554461 C303.6543913 246.75230921 303.65516033 252.25903497 303.65896606 257.76580238 C303.66321749 264.47811147 303.65270473 271.19021342 303.62373896 277.90246423 C303.60928864 281.32442978 303.60106433 284.74609423 303.61022568 288.1680851 C303.61667947 291.88245077 303.59848164 295.5959118 303.57404709 299.31018448 C303.58160574 300.38470373 303.58916438 301.45922299 303.59695208 302.56630343 C303.48246042 312.41405336 300.19604115 319.5330282 294.05265427 327.13142776 C293.39265427 327.13142776 292.73265427 327.13142776 292.05265427 327.13142776 C292.05265427 327.79142776 292.05265427 328.45142776 292.05265427 329.13142776 C291.39265427 329.13142776 290.73265427 329.13142776 290.05265427 329.13142776 C290.05265427 329.79142776 290.05265427 330.45142776 290.05265427 331.13142776 C281.78057026 335.98079533 275.33698102 338.01164626 265.78126144 337.88660049 C264.60608448 337.89525487 263.43090751 337.90390925 262.22011912 337.91282588 C258.99380009 337.93054438 255.76887835 337.92174507 252.54261923 337.90111673 C249.04970545 337.88537438 245.55694799 337.90444916 242.06405258 337.91891861 C235.23619808 337.94166242 228.40875476 337.93231965 221.58090876 337.91141775 C216.02966789 337.89509069 210.47853873 337.89094468 204.92727661 337.89538383 C204.13526104 337.89601451 203.34324548 337.89664519 202.52722944 337.89729497 C200.91796613 337.89864111 199.30870285 337.90002068 197.6994396 337.90143333 C182.63441852 337.91335032 167.56962216 337.88935385 152.50465222 337.85241524 C139.592188 337.82151325 126.67998212 337.81915943 113.76749802 337.83821487 C98.75093733 337.86035005 83.73452127 337.86645124 68.71795332 337.84589225 C67.1154357 337.84372944 65.51291805 337.84158034 63.91040039 337.83944511 C63.12204772 337.83837875 62.33369504 337.83731238 61.5214529 337.8362137 C55.97907564 337.82975752 50.4367731 337.83449533 44.89440155 337.84346962 C38.13707483 337.85402839 31.38005062 337.84643027 24.62277959 337.81601384 C21.17834972 337.80093398 17.73439641 337.79365734 14.28995323 337.80820465 C10.54950185 337.81965095 6.81042212 337.80021845 3.0700798 337.7730751 C1.99069149 337.78354659 0.91130318 337.79401808 -0.20079386 337.80480689 C-10.68559098 337.66336433 -18.60367629 333.49473269 -25.94734573 326.13142776 C-31.74028232 319.85574646 -34.06898759 312.56426263 -34.07598019 304.14726067 C-34.07920463 303.16278816 -34.08242908 302.17831565 -34.08575124 301.16401064 C-34.08420263 300.08999322 -34.08265403 299.01597579 -34.0810585 297.90941238 C-34.08445684 296.18919532 -34.08445684 296.18919532 -34.08792382 294.43422639 C-34.09315823 291.25518434 -34.09390884 288.07617786 -34.09272945 284.89713287 C-34.09252531 281.46692118 -34.09804541 278.03671792 -34.10278702 274.60651016 C-34.11109117 267.88779545 -34.11384175 261.16908951 -34.1143994 254.45037009 C-34.11487464 248.98906788 -34.11692983 243.52776857 -34.12010002 238.06646729 C-34.12890575 222.58162072 -34.13351949 207.09678108 -34.13276955 191.61193199 C-34.13272959 190.77725232 -34.13268964 189.94257264 -34.13264847 189.08259964 C-34.13260759 188.24690057 -34.13256671 187.4112015 -34.13252459 186.55017821 C-34.13211808 173.00460691 -34.14168896 159.45906341 -34.15578683 145.91350015 C-34.17014925 132.00398343 -34.1770571 118.09448027 -34.17619306 104.18495595 C-34.17586105 96.37621409 -34.17860966 88.56750136 -34.18937111 80.75876617 C-34.19847431 74.11071787 -34.20065283 67.46271192 -34.19386169 60.81466009 C-34.19059564 57.42343226 -34.19054284 54.0322857 -34.19921494 50.6410656 C-34.20691021 46.96310758 -34.20230619 43.2853637 -34.19458389 39.60741043 C-34.20229924 38.00307646 -34.20229924 38.00307646 -34.21017045 36.3663317 C-34.15963248 25.4902623 -31.42389297 17.85690897 -23.79890823 9.88533401 C-16.67034755 3.25552928 -9.85529093 0.01461133 0 0 Z M-2.94734573 35.13142776 C-3.39577112 37.26184255 -3.39577112 37.26184255 -3.32486916 39.66202927 C-3.3326924 40.59621893 -3.34051564 41.5304086 -3.34857595 42.49290705 C-3.34188378 43.52100536 -3.33519162 44.54910367 -3.32829666 45.60835648 C-3.33297663 46.69911153 -3.33765661 47.78986659 -3.34247839 48.91367483 C-3.35449318 52.58729243 -3.34494567 56.26054144 -3.33552933 59.93416214 C-3.33959214 62.56024774 -3.34493237 65.18633163 -3.3514595 67.81241226 C-3.36481848 74.21592925 -3.36190951 80.61934091 -3.35322158 87.02286208 C-3.34645393 92.22586345 -3.34552432 97.42883524 -3.34879303 102.63183975 C-3.34925273 103.37158856 -3.34971243 104.11133738 -3.35018606 104.87350282 C-3.35114521 106.37616003 -3.35211785 107.87881724 -3.35310383 109.38147444 C-3.36166406 123.48094294 -3.35181369 137.58035298 -3.33570273 151.67981189 C-3.32229897 163.78496965 -3.32462688 175.8900411 -3.33845901 187.9951973 C-3.35450367 202.04327075 -3.36084003 216.09129292 -3.35162222 230.13937426 C-3.35066655 231.63658809 -3.34972344 233.13380193 -3.34879303 234.63101578 C-3.3483302 235.36772612 -3.34786738 236.10443646 -3.34739053 236.86347136 C-3.34479728 242.06186739 -3.34917881 247.26023097 -3.35623169 252.45862198 C-3.36551075 259.45174191 -3.3589303 266.4446957 -3.34154892 273.43779945 C-3.3375692 276.01018057 -3.33874332 278.58257536 -3.34533691 281.1549511 C-3.35348374 284.65498869 -3.34331371 288.15449565 -3.32829666 291.65449905 C-3.33498883 292.68259737 -3.34168099 293.71069568 -3.34857595 294.76994848 C-3.34075271 295.70413815 -3.33292947 296.63832782 -3.32486916 297.60082626 C-3.3243821 298.40914351 -3.32389504 299.21746076 -3.32339323 300.05027246 C-2.85361001 302.65018831 -1.98525867 303.50337077 0.05265427 305.13142776 C2.4112445 306.31072288 3.81431327 306.25878602 6.44459057 306.26285553 C7.37330579 306.26669667 8.30202102 306.27053782 9.25887913 306.27449536 C10.79955943 306.27319564 10.79955943 306.27319564 12.37136459 306.27186966 C13.45718167 306.27484078 14.54299875 306.2778119 15.66171938 306.28087306 C19.32450938 306.28959117 22.98726681 306.29107092 26.65006638 306.29256058 C29.26615087 306.29718648 31.88223469 306.30221083 34.49831772 306.30760574 C41.62213876 306.32119939 48.74595417 306.32721519 55.86978602 306.3316164 C60.31519424 306.3343767 64.76060027 306.33861362 69.206007 306.34312057 C81.50659009 306.35531386 93.80717143 306.36561353 106.10776043 306.36899567 C107.28909993 306.36932502 107.28909993 306.36932502 108.49430487 306.36966102 C109.67851525 306.36998843 109.67851525 306.36998843 110.88664907 306.37032247 C112.48649911 306.37076594 114.08634915 306.3712125 115.68619919 306.37166214 C116.47978478 306.37188357 117.27337038 306.372105 118.09100402 306.37233314 C130.95726396 306.3762833 143.82346734 306.3937437 156.68970542 306.41702166 C169.88946034 306.44071093 183.08918685 306.45319638 196.28896338 306.45436358 C203.70416662 306.45528164 211.11929615 306.46106665 218.53447914 306.4791832 C225.50540671 306.49615402 232.47619189 306.49785502 239.44713402 306.48904419 C242.01145807 306.48826994 244.57578945 306.49266717 247.14009476 306.50250244 C250.62922011 306.51510434 254.11783942 306.50940933 257.6069603 306.49892044 C258.63184978 306.50697685 259.65673926 306.51503325 260.712686 306.52333379 C262.10967046 306.51344902 262.10967046 306.51344902 263.53487682 306.50336456 C264.74360916 306.5042602 264.74360916 306.5042602 265.97676033 306.50517392 C268.63556178 306.02648047 269.50334707 305.33111784 271.05265427 303.13142776 C271.50007115 300.98588405 271.50007115 300.98588405 271.42738438 298.56679821 C271.43459092 297.62502505 271.44179746 296.68325189 271.44922239 295.71294016 C271.4418481 294.67637783 271.43447382 293.6398155 271.42687607 292.57184219 C271.43085047 291.47221447 271.43482488 290.37258674 271.43891972 289.23963696 C271.44858364 285.53603864 271.43669965 281.83281841 271.42496872 278.1292305 C271.42739532 275.48180989 271.43099659 272.83441474 271.43603134 270.18700027 C271.44553058 263.73167511 271.43890989 257.27646154 271.4267684 250.82114463 C271.41316419 243.30904526 271.41478483 235.79697263 271.41690173 228.28486408 C271.4200932 214.88514425 271.40841442 201.48547754 271.38883591 188.08577347 C271.36982726 175.07273618 271.36274915 162.05976115 271.36832809 149.04671097 C271.37438067 134.88695032 271.37421869 120.72721706 271.36284226 106.56745869 C271.36163493 105.05874797 271.36042894 103.55003725 271.35922432 102.04132652 C271.35862078 101.29894725 271.35801724 100.55656797 271.35739541 99.79169236 C271.35351013 94.55075688 271.35391223 89.30983157 271.35581017 84.06889534 C271.35792839 77.68597924 271.35273636 71.30311777 271.33819661 64.92021709 C271.33093413 61.66126548 271.32795587 58.40241019 271.33143997 55.14344978 C271.33463939 51.61688687 271.32563675 48.09056754 271.31335068 44.56402969 C271.31713 43.52523664 271.32090932 42.48644359 271.32480317 41.41617197 C271.31897098 40.47700656 271.31313879 39.53784115 271.30712986 38.57021618 C271.30626308 37.75544369 271.30539631 36.94067119 271.30450326 36.10120863 C271.22689953 33.89786036 271.22689953 33.89786036 269.05265427 32.13142776 C267.00566381 31.82774262 267.00566381 31.82774262 264.61386585 31.87695217 C263.20511774 31.86820388 263.20511774 31.86820388 261.76791006 31.85927886 C260.20972049 31.86494784 260.20972049 31.86494784 258.62005234 31.87073135 C257.5219846 31.86690581 256.42391686 31.86308026 255.29257435 31.85913879 C251.58828565 31.84876439 247.88415068 31.85280935 244.17985153 31.85676956 C241.53420618 31.85242554 238.88857238 31.84730845 236.24293137 31.84128189 C229.78783159 31.82850812 223.33277337 31.82674453 216.87766308 31.82908215 C211.63268917 31.83086251 206.38772791 31.82912176 201.14275551 31.82485771 C200.39732048 31.82426252 199.65188546 31.82366733 198.88386149 31.82305411 C197.36968875 31.8218424 195.85551601 31.82062827 194.34134328 31.81941173 C180.12934767 31.80852586 165.91737577 31.81070362 151.70537882 31.81679658 C138.69361829 31.82196657 125.68193261 31.81071002 112.67018688 31.79169836 C99.32126549 31.77234303 85.97237955 31.76405991 72.62344402 31.76782161 C65.12441002 31.76973718 57.62543974 31.76721161 50.12641716 31.75310707 C43.74239697 31.74122159 37.3584797 31.73975635 30.97445817 31.75189724 C27.71534088 31.75780604 24.45645206 31.75721791 21.19734001 31.74689484 C17.66879577 31.73652085 14.14076492 31.74445275 10.61223984 31.75720596 C9.57567751 31.74983168 8.53911518 31.74245739 7.47114187 31.73485965 C6.52936872 31.74206619 5.58759556 31.74927273 4.61728382 31.75669765 C3.80234898 31.75664264 2.98741413 31.75658762 2.14778429 31.75653094 C-0.5226988 32.23437987 -1.39255981 32.9219397 -2.94734573 35.13142776 Z " fill="#074CA6" transform="translate(118.94734573364258,148.86857223510742)"/>
<path d="M0 0 C4.47484198 3.38341711 6.51381757 7.53447921 7.5 12.9375 C7.97345543 18.47908058 5.59144579 22.39408131 2.5625 26.9375 C1.9025 26.9375 1.2425 26.9375 0.5625 26.9375 C0.31886719 27.50984375 0.07523438 28.0821875 -0.17578125 28.671875 C-1.66267298 31.34183538 -3.41833908 33.07579007 -5.625 35.1875 C-10.43136442 39.88602932 -14.85664444 44.80955063 -19.1328125 49.9921875 C-19.66648438 50.63414062 -20.20015625 51.27609375 -20.75 51.9375 C-21.22050781 52.515 -21.69101563 53.0925 -22.17578125 53.6875 C-23.4375 54.9375 -23.4375 54.9375 -25.4375 54.9375 C-25.7675 55.9275 -26.0975 56.9175 -26.4375 57.9375 C-27.0975 57.9375 -27.7575 57.9375 -28.4375 57.9375 C-28.4375 58.5975 -28.4375 59.2575 -28.4375 59.9375 C-29.0975 59.9375 -29.7575 59.9375 -30.4375 59.9375 C-30.44114563 61.01776459 -30.44479126 62.09802917 -30.44854736 63.21102905 C-30.48558398 73.42109644 -30.54345113 83.63086464 -30.62140274 93.84070396 C-30.66081187 99.08896459 -30.69303254 104.33705908 -30.70849609 109.58544922 C-30.7237059 114.65609015 -30.75822811 119.72627413 -30.80580902 124.79671097 C-30.8205783 126.72541951 -30.82853844 128.65419331 -30.82938385 130.58295822 C-30.85026739 154.35026739 -30.85026739 154.35026739 -39.4375 162.9375 C-40.0975 162.9375 -40.7575 162.9375 -41.4375 162.9375 C-41.4375 163.5975 -41.4375 164.2575 -41.4375 164.9375 C-43.4140625 166.41015625 -43.4140625 166.41015625 -46.0625 168 C-46.92101562 168.52722656 -47.77953125 169.05445313 -48.6640625 169.59765625 C-54.36575804 172.35213733 -60.42141995 172.08608906 -66.62060547 172.08276367 C-67.52546692 172.08612228 -68.43032837 172.0894809 -69.36260986 172.09294128 C-72.34331651 172.10241256 -75.32396676 172.10439243 -78.3046875 172.10546875 C-80.38445051 172.10868381 -82.46421329 172.11204807 -84.54397583 172.11555481 C-88.89992802 172.12153639 -93.2558604 172.12339569 -97.61181641 172.12280273 C-103.18229274 172.12270113 -108.75264157 172.13635623 -114.32308769 172.15357494 C-118.61773254 172.16471482 -122.91234674 172.16672133 -127.20700455 172.16619301 C-129.26021896 172.16737001 -131.31343424 172.17177604 -133.36663437 172.17952538 C-136.24304797 172.18936605 -139.11918707 172.1864312 -141.99560547 172.18041992 C-142.83638641 172.18603943 -143.67716736 172.19165894 -144.54342651 172.19744873 C-155.46787237 172.13968375 -163.406325 168.85687111 -171.25 161.1875 C-176.22134727 153.80149835 -178.03745155 146.75191045 -177.93920898 137.93310547 C-177.94461197 136.98864563 -177.95001495 136.04418579 -177.95558167 135.07110596 C-177.96798178 131.98197062 -177.95163854 128.89378316 -177.93359375 125.8046875 C-177.93374891 123.6409602 -177.93524078 121.47723262 -177.93800354 119.31350708 C-177.93938354 114.79302589 -177.92689404 110.27286352 -177.90405273 105.75244141 C-177.87563553 99.97122119 -177.87842019 94.19052882 -177.89114285 88.40926933 C-177.89811108 83.94645716 -177.89029817 79.48376609 -177.87788582 75.02096939 C-177.87338487 72.88961375 -177.8730226 70.75824505 -177.87695122 68.62688828 C-177.87987552 65.64535788 -177.86329911 62.66454496 -177.84155273 59.68310547 C-177.84605438 58.81120575 -177.85055603 57.93930603 -177.85519409 57.04098511 C-177.74641419 48.02270576 -174.77891442 40.94682433 -168.8125 34.0625 C-167.4375 32.9375 -167.4375 32.9375 -165.4375 32.9375 C-165.4375 32.2775 -165.4375 31.6175 -165.4375 30.9375 C-164.25429424 30.30440809 -163.06562152 29.68153282 -161.875 29.0625 C-161.21371094 28.71445312 -160.55242187 28.36640625 -159.87109375 28.0078125 C-153.61177185 25.25491651 -148.11140935 24.64241751 -141.35620117 24.6628418 C-140.03276955 24.6551754 -140.03276955 24.6551754 -138.68260193 24.64735413 C-135.78182079 24.63351687 -132.88127887 24.63441073 -129.98046875 24.63671875 C-127.95176608 24.63282812 -125.92306422 24.62849269 -123.8943634 24.62373352 C-119.64691526 24.61628354 -115.39955025 24.61655338 -111.15209961 24.62182617 C-105.72862015 24.62761387 -100.30548297 24.61070063 -94.88206005 24.5874815 C-90.69283584 24.57269569 -86.50369309 24.57187914 -82.3144474 24.57499123 C-80.31591426 24.57448028 -78.31737629 24.56928537 -76.31886864 24.55917931 C-57.38717377 24.47520086 -57.38717377 24.47520086 -50.28242493 27.29402161 C-48.13367631 28.157051 -48.13367631 28.157051 -44.4375 27.9375 C-43.4475 26.4525 -43.4475 26.4525 -42.4375 24.9375 C-41.7775 24.9375 -41.1175 24.9375 -40.4375 24.9375 C-40.4375 24.2775 -40.4375 23.6175 -40.4375 22.9375 C-39.0625 21.3125 -39.0625 21.3125 -37.4375 19.9375 C-36.7775 19.9375 -36.1175 19.9375 -35.4375 19.9375 C-35.20675781 19.37933594 -34.97601563 18.82117188 -34.73828125 18.24609375 C-33.09216491 15.32460799 -31.02676868 13.33695334 -28.625 11 C-27.77292969 10.16597656 -26.92085937 9.33195313 -26.04296875 8.47265625 C-24.75326172 7.21775391 -24.75326172 7.21775391 -23.4375 5.9375 C-22.58800781 5.04933594 -21.73851562 4.16117188 -20.86328125 3.24609375 C-14.92654586 -2.40384282 -7.62756122 -2.35760983 0 0 Z M-146.4375 57.9375 C-145.4475 58.9275 -144.4575 59.9175 -143.4375 60.9375 C-142.7775 60.9375 -142.1175 60.9375 -141.4375 60.9375 C-141.22480469 61.58460938 -141.01210937 62.23171875 -140.79296875 62.8984375 C-138.91168427 67.11641826 -136.34883539 70.75605684 -133.75 74.5625 C-132.66061388 76.17651368 -131.57206892 77.79109545 -130.484375 79.40625 C-129.95908203 80.18484375 -129.43378906 80.9634375 -128.89257812 81.765625 C-125.98776079 86.10140604 -123.20527065 90.51348361 -120.4375 94.9375 C-119.9321875 95.74316406 -119.426875 96.54882812 -118.90625 97.37890625 C-117.7472657 99.23006173 -116.59189165 101.08347704 -115.4375 102.9375 C-112.21379571 101.8629319 -111.69181079 101.3319369 -109.625 98.8125 C-105.97551677 94.50657867 -102.16684843 90.37167019 -98.3125 86.25 C-97.7146167 85.60853027 -97.1167334 84.96706055 -96.50073242 84.30615234 C-93.88766089 81.51205587 -91.2664685 78.75637991 -88.5078125 76.10546875 C-86.20728977 74.19604961 -86.20728977 74.19604961 -86.4375 71.9375 C-85.4475 71.6075 -84.4575 71.2775 -83.4375 70.9375 C-83.4375 70.2775 -83.4375 69.6175 -83.4375 68.9375 C-82.7775 68.9375 -82.1175 68.9375 -81.4375 68.9375 C-79.69667628 67.25509272 -79.69667628 67.25509272 -77.9375 65.125 C-77.3290625 64.41730469 -76.720625 63.70960938 -76.09375 62.98046875 C-74.30220856 60.83541928 -74.30220856 60.83541928 -72.4375 57.9375 C-96.8575 57.9375 -121.2775 57.9375 -146.4375 57.9375 Z M-64.4375 95.9375 C-66.52525429 98.4657475 -68.51894543 101.06074446 -70.52734375 103.65234375 C-72.4375 105.9375 -72.4375 105.9375 -74.4375 106.9375 C-74.4375 107.5975 -74.4375 108.2575 -74.4375 108.9375 C-75.0975 108.9375 -75.7575 108.9375 -76.4375 108.9375 C-78.00614082 110.4882907 -78.00614082 110.4882907 -79.625 112.5 C-81.97029758 115.2628868 -84.34579405 117.90429757 -86.9375 120.4375 C-90.65165995 124.09349638 -94.04745304 127.98244521 -97.4375 131.9375 C-98.02273437 132.60652344 -98.60796875 133.27554688 -99.2109375 133.96484375 C-102.08012541 136.62670414 -102.08012541 136.62670414 -103.4375 139.9375 C-90.2375 139.9375 -77.0375 139.9375 -63.4375 139.9375 C-63.4375 125.4175 -63.4375 110.8975 -63.4375 95.9375 C-63.7675 95.9375 -64.0975 95.9375 -64.4375 95.9375 Z M-146.4375 113.9375 C-146.46636751 118.08331887 -146.48425327 122.22911216 -146.5 126.375 C-146.50837891 127.55900391 -146.51675781 128.74300781 -146.52539062 129.96289062 C-146.52861328 131.08759766 -146.53183594 132.21230469 -146.53515625 133.37109375 C-146.54039307 134.41322021 -146.54562988 135.45534668 -146.55102539 136.52905273 C-146.71055556 138.88878747 -146.71055556 138.88878747 -145.4375 139.9375 C-142.74095146 140.01069621 -140.07058542 140.02992537 -137.375 140 C-136.61638672 139.99548828 -135.85777344 139.99097656 -135.07617188 139.98632812 C-133.19658129 139.9745068 -131.31703101 139.95657078 -129.4375 139.9375 C-132.25369703 134.88664083 -135.27175632 130.04638603 -138.5 125.25 C-138.93376953 124.59966797 -139.36753906 123.94933594 -139.81445312 123.27929688 C-141.9445582 120.09872903 -144.12435417 116.989017 -146.4375 113.9375 Z " fill="#074CA6" transform="translate(262.4375,772.0625)"/>
<path d="M0 0 C3.9184133 3.58598473 7.05706233 7.68952358 10.1640625 11.98046875 C10.85628906 12.89892578 10.85628906 12.89892578 11.5625 13.8359375 C14.60410057 18.22397909 16.50634538 23.02404449 18.4140625 27.98046875 C18.67268066 28.6451416 18.93129883 29.30981445 19.19775391 29.99462891 C25.20452103 46.29184165 23.07048554 65.89197826 16.73046875 81.67578125 C14.13909984 87.1428588 10.99715552 92.28429518 7.1640625 96.98046875 C6.5040625 96.98046875 5.8440625 96.98046875 5.1640625 96.98046875 C4.761875 97.87765625 4.761875 97.87765625 4.3515625 98.79296875 C3.1640625 100.98046875 3.1640625 100.98046875 1.5390625 102.48046875 C-0.28642059 104.13276275 -0.28642059 104.13276275 0.1640625 107.98046875 C0.8859375 108.18671875 1.6078125 108.39296875 2.3515625 108.60546875 C6.13624634 110.45575863 7.68664903 112.58287313 10.1640625 115.98046875 C10.1640625 116.64046875 10.1640625 117.30046875 10.1640625 117.98046875 C11.1540625 118.31046875 12.1440625 118.64046875 13.1640625 118.98046875 C14.59971009 121.00479192 15.83216196 122.94997963 17.0390625 125.10546875 C17.56415405 126.03794434 17.56415405 126.03794434 18.09985352 126.98925781 C25.20260578 140.06630296 27.29305736 153.15699239 27.3671875 167.8984375 C27.37288757 168.7999202 27.37858765 169.70140289 27.38446045 170.63020325 C27.39382862 172.51834975 27.40041143 174.40651199 27.40429688 176.29467773 C27.41407398 179.17134762 27.44520293 182.04732299 27.4765625 184.92382812 C27.48308776 186.76952706 27.4883401 188.61523104 27.4921875 190.4609375 C27.5045343 191.31213669 27.5168811 192.16333588 27.52960205 193.04032898 C27.5044882 199.80240293 26.17046427 204.49100155 21.83178711 209.87426758 C16.89788046 213.56546414 10.34560062 212.71165528 4.48046875 212.6796875 C3.13817209 212.6856039 1.79588071 212.69285375 0.45359802 212.70137024 C-2.35323678 212.71322117 -5.15927719 212.70659426 -7.96606445 212.68725586 C-11.54879698 212.66438346 -15.12915535 212.69113967 -18.71165371 212.73231792 C-21.48203913 212.75799601 -24.251864 212.75528933 -27.02232552 212.74442482 C-28.98038658 212.74223135 -30.93842444 212.7651096 -32.89634705 212.78849792 C-42.81977931 212.65893617 -42.81977931 212.65893617 -47.10961914 209.08129883 C-50.80579397 205.28253486 -51.74874117 202.35381102 -52.0859375 197.04296875 C-52.0031818 193.40861414 -51.19165195 190.36975489 -49.8359375 186.98046875 C-49.1759375 186.98046875 -48.5159375 186.98046875 -47.8359375 186.98046875 C-47.8359375 186.32046875 -47.8359375 185.66046875 -47.8359375 184.98046875 C-42.40817663 181.3640471 -38.73745872 180.41233119 -32.27734375 180.58984375 C-31.09361427 180.59833344 -31.09361427 180.59833344 -29.88597107 180.60699463 C-27.38948376 180.62921189 -24.89448375 180.67937656 -22.3984375 180.73046875 C-20.69598441 180.75055287 -18.99350861 180.76880028 -17.29101562 180.78515625 C-13.13875836 180.82902803 -8.98759922 180.89794967 -4.8359375 180.98046875 C-4.94729644 177.50072815 -5.07755882 174.02192941 -5.2109375 170.54296875 C-5.241875 169.56908203 -5.2728125 168.59519531 -5.3046875 167.59179688 C-5.78514477 155.62040332 -8.04940551 144.80645733 -16.8515625 135.953125 C-18.48537078 134.59493885 -20.15702276 133.28248426 -21.8359375 131.98046875 C-21.8359375 131.32046875 -21.8359375 130.66046875 -21.8359375 129.98046875 C-22.53976562 129.70460938 -23.24359375 129.42875 -23.96875 129.14453125 C-25.87733088 128.36965781 -27.76896574 127.55163961 -29.640625 126.69140625 C-40.10896827 122.13647826 -50.21611535 120.97957115 -61.0859375 124.98046875 C-61.93671875 125.35171875 -62.7875 125.72296875 -63.6640625 126.10546875 C-65.8359375 126.98046875 -65.8359375 126.98046875 -68.8359375 126.98046875 C-68.8359375 127.64046875 -68.8359375 128.30046875 -68.8359375 128.98046875 C-70.33984375 130.171875 -70.33984375 130.171875 -72.3984375 131.54296875 C-81.3819268 138.10966093 -86.49120103 147.18648257 -88.8359375 157.98046875 C-88.92698919 159.44438526 -88.97102079 160.9116882 -88.9777832 162.37841797 C-88.98481766 163.23966278 -88.99185211 164.10090759 -88.99909973 164.98825073 C-89.00326401 165.91122955 -89.00742828 166.83420837 -89.01171875 167.78515625 C-89.03491413 169.75001075 -89.05903135 171.71485454 -89.08398438 173.6796875 C-89.1191008 176.7694418 -89.14845196 179.85880081 -89.16186523 182.94873047 C-89.17736369 185.93635529 -89.21757942 188.92283504 -89.26171875 191.91015625 C-89.25981033 192.82908661 -89.25790192 193.74801697 -89.25593567 194.6947937 C-89.38755759 201.61911163 -91.20689357 205.33372082 -96.15625 210.31640625 C-101.26919981 213.49150336 -107.05197047 212.8646844 -112.8359375 211.98046875 C-116.67857881 210.09669833 -118.89516078 207.74396394 -120.89428711 203.99658203 C-122.25558237 199.63634306 -122.14114008 195.46478264 -122.13671875 190.921875 C-122.14100388 189.9411351 -122.145289 188.9603952 -122.14970398 187.94993591 C-122.1554411 185.87296315 -122.15595209 183.79597029 -122.15161133 181.71899414 C-122.14847959 178.58508605 -122.1718198 175.4521489 -122.19726562 172.31835938 C-122.27035641 149.43011105 -117.97518546 129.15462165 -101.35009766 112.22875977 C-99.21053461 110.11162039 -97.03580104 108.03475308 -94.8359375 105.98046875 C-96.20953315 102.93027842 -97.81212956 100.73577593 -100.0859375 98.29296875 C-111.59943965 85.2984767 -117.2579444 69.98434263 -117.1484375 52.66796875 C-117.14106567 51.28266968 -117.14106567 51.28266968 -117.13354492 49.86938477 C-116.91153913 36.9076618 -113.21681584 23.79659632 -105.8359375 12.98046875 C-105.1759375 12.98046875 -104.5159375 12.98046875 -103.8359375 12.98046875 C-103.8359375 11.99046875 -103.8359375 11.00046875 -103.8359375 9.98046875 C-103.1759375 9.98046875 -102.5159375 9.98046875 -101.8359375 9.98046875 C-101.47048828 9.12775391 -101.47048828 9.12775391 -101.09765625 8.2578125 C-94.02343883 -4.51082142 -79.28623958 -10.93044917 -66.19921875 -15.44140625 C-42.57417227 -21.22075646 -18.75601153 -15.01143679 0 0 Z M-76.0859375 28.35546875 C-78.9935661 31.92679518 -81.01751287 35.76502984 -82.8359375 39.98046875 C-83.19429687 40.74746094 -83.55265625 41.51445312 -83.921875 42.3046875 C-86.60251584 50.15186259 -85.56873246 59.25473319 -82.09765625 66.671875 C-75.95056132 77.91934591 -68.97453372 84.50979969 -56.9765625 89.06640625 C-47.7481758 91.75227999 -38.28322809 90.35197377 -29.8359375 85.98046875 C-18.90001892 79.00083035 -13.86571308 71.0697955 -9.8359375 58.98046875 C-8.89188453 47.05272263 -11.15921808 37.2830436 -18.8359375 27.98046875 C-24.43429883 21.94238939 -30.01799273 18.47825977 -37.8359375 15.98046875 C-38.8259375 15.65046875 -39.8159375 15.32046875 -40.8359375 14.98046875 C-55.16448167 13.73893296 -66.38080506 17.73064795 -76.0859375 28.35546875 Z " fill="#074CA6" transform="translate(300.8359375,220.01953125)"/>
<path d="M0 0 C0.85484732 -0.00235223 1.70969463 -0.00470446 2.59044641 -0.00712797 C5.47441725 -0.01382095 8.35834306 -0.01335966 11.24232101 -0.01294994 C13.32309658 -0.01624837 15.4038715 -0.01997389 17.48464561 -0.02409142 C23.21795903 -0.03412174 28.95126199 -0.03782987 34.68458295 -0.04048073 C40.86196034 -0.04438065 47.03932942 -0.05395911 53.21670151 -0.0626936 C67.43593484 -0.08153084 81.65516624 -0.09171469 95.87440853 -0.10015428 C102.89994844 -0.10436045 109.92548749 -0.10958245 116.95102667 -0.11483881 C140.99697663 -0.13272809 165.04292683 -0.14772483 189.08888245 -0.155159 C190.59846901 -0.15563375 192.10805558 -0.15610964 193.61764215 -0.15658666 C194.74057566 -0.15694122 194.74057566 -0.15694122 195.8861947 -0.15730295 C199.67911815 -0.15850415 203.47204161 -0.1597196 207.26496506 -0.16094494 C208.39404197 -0.16130516 208.39404197 -0.16130516 209.54592852 -0.16167267 C233.95671511 -0.16956748 258.36745313 -0.19300352 282.77821851 -0.22550088 C308.58271878 -0.25979102 334.38719062 -0.27950933 360.19171405 -0.28280324 C363.02387795 -0.28322078 365.85604184 -0.28370035 368.68820572 -0.28422642 C369.38557133 -0.28434961 370.08293693 -0.2844728 370.80143483 -0.28459973 C382.02832543 -0.28693264 393.25515965 -0.30259754 404.48203014 -0.32306826 C415.76442513 -0.34331404 427.04675337 -0.34847575 438.32916936 -0.33929763 C444.44251202 -0.33474156 450.55567145 -0.33671519 456.66898918 -0.35605907 C462.26379844 -0.37360977 467.85828971 -0.37275889 473.45310196 -0.35716178 C475.47868718 -0.3547734 477.50429395 -0.35917255 479.5298461 -0.37099043 C482.28141904 -0.38605172 485.03185686 -0.37647678 487.78340149 -0.36076355 C488.96545391 -0.37609686 488.96545391 -0.37609686 490.17138618 -0.39173993 C495.73069059 -0.32236094 499.99228373 1.04390923 504.64338303 4.13422108 C509.37427352 9.22902622 509.985825 12.57160993 509.93244553 19.36859608 C509.53538966 23.16745492 508.13284586 25.2891207 505.64338303 28.13422108 C504.96275803 29.00047108 504.96275803 29.00047108 504.26838303 29.88422108 C499.51572986 33.54010813 493.76973633 33.42049757 488.03787708 33.38869667 C487.18042248 33.39190315 486.32296788 33.39510963 485.43952981 33.39841327 C482.55868771 33.40673215 479.67805248 33.40078234 476.79720688 33.39491749 C474.71399182 33.3979373 472.63077786 33.40182593 470.54756588 33.40651006 C464.81682247 33.41682061 459.08614141 33.41460046 453.35539281 33.41032946 C447.17738564 33.4078678 440.9993937 33.4168694 434.82139206 33.42436695 C422.71593316 33.43713134 410.61050166 33.43891134 398.50503916 33.43656669 C388.66828225 33.43473458 378.83153186 33.43649191 368.99477577 33.44079113 C367.58192383 33.44139353 366.16907188 33.44199473 364.75621993 33.44259473 C362.6272359 33.44350198 360.49825187 33.44441064 358.36926785 33.44532708 C338.57344781 33.45375748 318.77763024 33.45809168 298.98180866 33.45392036 C297.86225095 33.4536858 297.86225095 33.4536858 296.72007592 33.4534465 C292.93709922 33.45264071 289.15412253 33.45179493 285.37114585 33.4509332 C284.61982374 33.45076211 283.86850163 33.45059102 283.09441218 33.45041475 C281.57505652 33.45006809 280.05570087 33.44971956 278.53634521 33.44936916 C254.89126429 33.44401107 231.24622066 33.45194451 207.6011467 33.47040272 C181.04063389 33.4911125 154.48014418 33.50184744 127.91962284 33.49782723 C125.08835058 33.49743188 122.25707831 33.49707033 119.42580605 33.49672985 C118.72866602 33.49663912 118.03152599 33.49654839 117.3132605 33.49645491 C106.78351159 33.49528832 96.25378598 33.50194182 85.72404289 33.51254177 C73.75103559 33.52458226 61.77808147 33.52588722 49.80506892 33.5137516 C43.69389521 33.50784633 37.58282202 33.50680896 31.47165489 33.51875401 C25.88010215 33.5295566 20.28873452 33.52657673 14.69719063 33.51249232 C12.67168693 33.50982984 10.64616899 33.51226019 8.62067921 33.52022818 C5.87180455 33.53029341 3.12357846 33.52194713 0.37473011 33.50895119 C-0.41536016 33.51626053 -1.20545042 33.52356988 -2.01948282 33.53110072 C-8.55759348 33.46683899 -13.18467253 32.02286842 -18.23161697 27.63422108 C-21.86252019 23.36257023 -21.69485166 19.31614852 -21.63786697 13.93109608 C-21.20778607 9.6541804 -19.98264818 7.54096427 -17.35661697 4.13422108 C-11.8790867 0.02607338 -6.64334318 -0.01236045 0 0 Z " fill="#074CA6" transform="translate(106.35661697387695,711.8657789230347)"/>
<path d="M0 0 C1.30471162 -0.00788867 1.30471162 -0.00788867 2.63578105 -0.0159367 C5.56474115 -0.02994723 8.49325646 -0.02251283 11.42223549 -0.01523495 C13.53758823 -0.02083736 15.65293786 -0.0277387 17.76828253 -0.03583091 C23.59251432 -0.05422794 29.4166172 -0.05377913 35.24087143 -0.05024779 C41.51775174 -0.04963685 47.79459024 -0.06618156 54.07145119 -0.08042049 C66.37289906 -0.10536494 78.67429507 -0.11362495 90.97576497 -0.11525763 C100.97177916 -0.11663566 110.96777935 -0.12280755 120.96378899 -0.1323595 C123.83994566 -0.13505208 126.71610235 -0.13772153 129.59225905 -0.14038414 C130.6647534 -0.14137885 130.6647534 -0.14137885 131.75891431 -0.14239367 C151.87302732 -0.16085872 171.98713547 -0.1726951 192.10125732 -0.17136383 C192.85975803 -0.17131709 193.61825873 -0.17127036 194.39974431 -0.17122221 C198.24424422 -0.17097288 202.08874413 -0.17067576 205.93324403 -0.17036808 C206.696792 -0.17030825 207.46033997 -0.17024841 208.24702576 -0.17018676 C209.7911058 -0.17006545 211.33518584 -0.16994006 212.87926588 -0.16981059 C236.90687797 -0.167972 260.9343631 -0.19049697 284.96193886 -0.23152828 C311.94911615 -0.27759451 338.93621002 -0.30342797 365.92342913 -0.30063862 C368.80021453 -0.30041472 371.67699992 -0.3002686 374.55378532 -0.30017567 C375.26213706 -0.3001407 375.97048879 -0.30010574 376.70030573 -0.30006972 C388.10681878 -0.29997734 399.51322173 -0.3191468 410.91970203 -0.34497246 C422.3801203 -0.37038389 433.84032055 -0.37287076 445.30076216 -0.3536445 C451.51127702 -0.34382275 457.72139222 -0.34377172 463.93186951 -0.36970425 C469.61431401 -0.39318842 475.29603947 -0.38912081 480.97846563 -0.36285185 C483.03697668 -0.35822216 485.0955404 -0.363788 487.15398936 -0.38043208 C489.94804379 -0.40153246 492.73955694 -0.38580496 495.53352356 -0.36076355 C496.73833988 -0.38312036 496.73833988 -0.38312036 497.96749592 -0.40592882 C503.29003666 -0.30475533 506.07134713 1.1088722 509.97749243 4.70902837 C513.68716434 9.10490848 513.81353649 13.11088951 513.71682167 18.69059086 C513.26662136 22.43321997 511.85005384 24.57738802 509.39260292 27.38590336 C508.74291542 28.25215336 508.74291542 28.25215336 508.08010292 29.13590336 C503.08747165 32.83414875 496.63404243 32.67356864 490.6980772 32.64037895 C489.41567905 32.64518867 489.41567905 32.64518867 488.10737386 32.65009555 C485.24112386 32.65840033 482.37508256 32.65246955 479.50882912 32.64659977 C477.43371329 32.64962023 475.35859857 32.65350917 473.28348583 32.65819234 C467.57973542 32.6684946 461.87604772 32.66628484 456.17229211 32.66201174 C450.02155015 32.65954859 443.87082345 32.66855355 437.72008705 32.67604923 C425.66990928 32.6888094 413.61975903 32.69059414 401.56957764 32.68824897 C391.77718963 32.68641638 381.98480816 32.68817521 372.19242096 32.69247341 C370.7856043 32.69307581 369.37878764 32.69367701 367.97197099 32.69427701 C365.85204484 32.69518427 363.7321187 32.69609293 361.61219256 32.69700937 C341.90246547 32.70543888 322.19274084 32.70977457 302.4830122 32.70560265 C301.36848992 32.70536808 301.36848992 32.70536808 300.23145204 32.70512878 C296.46554724 32.70432299 292.69964244 32.70347722 288.93373764 32.70261548 C288.18581495 32.70244439 287.43789225 32.7022733 286.66730524 32.70209703 C285.15482436 32.70175037 283.64234348 32.70140184 282.1298626 32.70105144 C258.59202099 32.69569341 235.05421684 32.70362698 211.51638222 32.722085 C185.07231493 32.74279774 158.62827084 32.75352916 132.18419498 32.74950951 C129.36499687 32.74911416 126.54579876 32.74875262 123.72660065 32.74841213 C123.03244084 32.7483214 122.33828104 32.74823067 121.62308609 32.74813719 C111.14139288 32.74697093 100.65972309 32.75362163 90.17803574 32.76422405 C78.25887997 32.77626819 66.33977763 32.77756543 54.42061657 32.76543389 C48.33766558 32.75953117 42.25481555 32.75848424 36.17187119 32.77043629 C30.60497807 32.78124742 25.03827079 32.77824868 19.47138654 32.7641746 C17.45598909 32.76151451 15.44057729 32.76393512 13.42519385 32.77191047 C10.68756083 32.78199318 7.95057668 32.77361439 5.21296978 32.76063347 C4.42900106 32.76794281 3.64503235 32.77525216 2.83730701 32.782783 C-3.85764875 32.7169015 -9.3240791 31.3291527 -14.54489708 26.88590336 C-18.09152538 22.58695996 -17.94538058 18.54409432 -17.88864708 13.18277836 C-17.45856617 8.90586269 -16.23342829 6.79264655 -13.60739708 3.38590336 C-9.31469144 -0.00368673 -5.26026715 -0.04014711 0 0 Z " fill="#074CA6" transform="translate(102.60739707946777,627.6140966415405)"/>
<path d="M0 0 C0.87130573 -0.00376113 1.74261146 -0.00752226 2.64032039 -0.01139736 C5.5743515 -0.02037568 8.50790112 -0.00787355 11.44191456 0.00444412 C13.56082864 0.00242068 15.67974181 -0.00091762 17.79865199 -0.00546145 C23.6325588 -0.01413155 29.46630708 -0.00402355 35.3002001 0.00908089 C41.5871929 0.0199557 47.87417067 0.01356966 54.1611681 0.00929642 C65.0580231 0.0043071 75.95481893 0.01031922 86.85166454 0.02418137 C98.28261851 0.038706 109.71355153 0.04746731 121.14451504 0.04836655 C121.85507699 0.04842764 122.56563894 0.04848873 123.29773307 0.04855168 C126.18195798 0.04878119 129.06618288 0.04896837 131.95040779 0.04909982 C158.2413579 0.05031149 184.53227869 0.06601533 210.82321644 0.0906868 C235.65720312 0.11398635 260.49117203 0.12815424 285.32516956 0.13170242 C286.09039649 0.13181394 286.85562341 0.13192545 287.64403903 0.13204035 C290.7290662 0.1324892 293.81409337 0.13293117 296.89912053 0.13337278 C298.43644288 0.13359315 299.97376522 0.13381444 301.51108756 0.13403665 C303.04457912 0.13425801 304.57807068 0.13447678 306.11156224 0.13469296 C330.50964963 0.13820518 354.90773368 0.14966573 379.30581772 0.16249929 C386.45417232 0.16622127 393.60252669 0.16948527 400.75088191 0.17174816 C415.78536211 0.17655215 430.81982928 0.18375769 445.85430249 0.19989583 C452.07418037 0.20652022 458.29404872 0.21157154 464.51393032 0.21235657 C470.19896195 0.21313971 475.88396942 0.21850899 481.56899355 0.22767606 C483.63414054 0.23019786 485.69929041 0.23101186 487.76443871 0.23001727 C490.55458668 0.22893234 493.34465741 0.23390293 496.13479614 0.24050903 C497.35931506 0.23785483 497.35931506 0.23785483 498.60857174 0.235147 C504.1503173 0.25777727 504.1503173 0.25777727 506.37863636 1.3719368 C506.37863636 2.0319368 506.37863636 2.6919368 506.37863636 3.3719368 C506.97676136 3.5988118 507.57488636 3.8256868 508.19113636 4.0594368 C511.21399129 5.87314975 512.03208377 7.07288294 513.37863636 10.3719368 C514.06112131 15.76603469 514.09263478 19.99318124 511.56613636 24.8719368 C510.84426136 25.6969368 510.12238636 26.5219368 509.37863636 27.3719368 C508.86301136 27.9700618 508.34738636 28.5681868 507.81613636 29.1844368 C504.15806952 32.2063181 499.51428897 31.51312347 495.04577637 31.50336456 C494.18135346 31.5054172 493.31693055 31.50746983 492.42631301 31.50958467 C489.5037651 31.51527941 486.58126395 31.51379438 483.65871143 31.51237869 C481.55262488 31.51496091 479.44653882 31.51797366 477.34045345 31.52138209 C471.53260851 31.52947216 465.72477593 31.53124278 459.91692603 31.53197956 C453.66117845 31.53382662 447.40543734 31.54137216 441.14969349 31.54811478 C426.74784612 31.56242189 412.34600278 31.56822633 397.94414982 31.57280672 C390.82981315 31.57514155 383.71547729 31.57874406 376.60114125 31.5825021 C352.25567359 31.59533801 327.91020638 31.60605752 303.56473541 31.6095047 C302.03611459 31.60972633 300.50749377 31.60994812 298.97887294 31.61017005 C297.44652813 31.61039069 295.91418331 31.61061118 294.3818385 31.6108315 C291.30761031 31.61127406 288.23338213 31.61172117 285.15915394 31.61217117 C284.39692254 31.61228056 283.63469113 31.61238995 282.84936181 31.61250266 C258.1269115 31.61613432 233.4044905 31.63205827 208.68205142 31.65536154 C182.55369813 31.67994506 156.4253616 31.69367684 130.29699641 31.69487262 C127.43002752 31.69504408 124.56305863 31.69525951 121.69608974 31.69550705 C120.99014389 31.69556282 120.28419803 31.69561859 119.55685988 31.69567605 C108.1854073 31.69682774 96.81398475 31.7078597 85.44254232 31.72239411 C74.01779578 31.73674441 62.59309869 31.73975142 51.16834172 31.73195413 C44.97629995 31.72803653 38.78435942 31.72903121 32.59232998 31.74301147 C26.92793173 31.75568389 21.26371148 31.75461176 15.59931371 31.74242076 C13.54614568 31.74045217 11.49296532 31.74359534 9.43981465 31.75226513 C6.65599794 31.76327942 3.87281817 31.75592519 1.08901978 31.7438736 C0.28581888 31.75146879 -0.51738202 31.75906398 -1.34492233 31.76688933 C-6.15898534 31.72168038 -9.4537652 31.03546964 -13.62136364 28.3719368 C-17.55527276 23.40278844 -18.25888526 19.32420369 -18.00808239 13.0281868 C-17.29612908 8.13800243 -15.46394785 4.82823819 -11.51566762 1.70768285 C-7.66734857 -0.06834932 -4.15384711 -0.03898233 0 0 Z " fill="#074CA6" transform="translate(102.62136363983154,542.6280632019043)"/>
<path d="M0 0 C1.14968445 -0.00644889 2.29936889 -0.01289778 3.48389226 -0.0195421 C5.37943594 -0.01489629 5.37943594 -0.01489629 7.31327343 -0.01015663 C8.6687987 -0.01389253 10.02432182 -0.0184938 11.37984151 -0.02388728 C15.10843225 -0.03614035 18.83693342 -0.03585411 22.56553972 -0.03349853 C26.58542321 -0.03309094 30.60527776 -0.04412397 34.62514782 -0.05361366 C42.50239148 -0.07023745 50.37960521 -0.07572384 58.25686494 -0.07683842 C64.6592698 -0.07778827 71.06166477 -0.08189544 77.46406651 -0.08823967 C95.61102613 -0.10585611 113.75796209 -0.11507795 131.90493033 -0.11357872 C132.8835512 -0.11349881 133.86217207 -0.1134189 134.87044811 -0.11333656 C135.85026219 -0.1132548 136.83007627 -0.11317304 137.83958169 -0.1130888 C153.71966143 -0.11227586 169.59964633 -0.13141442 185.47969864 -0.1596133 C201.78029472 -0.18833082 218.08084454 -0.2021542 234.38146657 -0.20042574 C243.53499809 -0.19976143 252.68843021 -0.20527162 261.84193897 -0.22678185 C269.63555393 -0.2449788 277.42902441 -0.24935327 285.2226514 -0.235763 C289.1992458 -0.22922569 293.17556293 -0.22914337 297.15213108 -0.2464695 C300.79352329 -0.26217207 304.43441772 -0.25936592 308.07579758 -0.24190123 C310.01500365 -0.23736929 311.95422498 -0.25251084 313.8933714 -0.26838052 C320.59463437 -0.21513208 324.99731276 0.12827084 330.38924694 4.25726891 C332.26424694 6.88226891 332.26424694 6.88226891 333.38924694 9.25726891 C333.71924694 9.91726891 334.04924694 10.57726891 334.38924694 11.25726891 C335.23021381 17.72070002 334.47892056 22.23331605 330.87362194 27.66351891 C328.46920707 30.24510118 326.27717304 31.17130377 322.76415122 31.51141924 C321.75734757 31.51337016 320.75054393 31.51532108 319.71323109 31.51733112 C317.966879 31.52792951 317.966879 31.52792951 316.18524706 31.53874201 C314.90530537 31.53632692 313.62536367 31.53391184 312.30663586 31.53142357 C310.9338983 31.53587536 309.56116331 31.54118921 308.1884321 31.54729229 C304.41230933 31.56148965 300.6362688 31.56313526 296.86012316 31.56269538 C292.78913033 31.56434204 288.71817153 31.57740563 284.64719677 31.58888817 C275.74442263 31.6117479 266.84167232 31.61965963 257.93887281 31.62471461 C252.38149853 31.62797011 246.82413119 31.63449164 241.26676083 31.641716 C225.88389909 31.66128219 210.50104381 31.67768663 195.11816883 31.68059254 C193.64132179 31.68087389 193.64132179 31.68087389 192.13463946 31.68116093 C190.13864287 31.68152718 188.14264627 31.68189088 186.14664967 31.68225204 C185.1558181 31.68243485 184.16498653 31.68261766 183.14412975 31.68280602 C181.65607148 31.68307684 181.65607148 31.68307684 180.13795142 31.68335313 C164.05671448 31.68689618 147.97561134 31.71392662 131.89442082 31.7513039 C115.3892969 31.78936003 98.88423942 31.80874981 82.37907064 31.80905205 C73.10984972 31.80963718 63.84078844 31.81816524 54.57160854 31.84704971 C46.68022961 31.87152746 38.78906855 31.8788709 30.89766194 31.86380219 C26.87050146 31.85661874 22.84377154 31.85755193 18.81665897 31.88021278 C15.13020504 31.90075827 11.44451387 31.89824498 7.75806861 31.87733794 C5.79226311 31.87217426 3.82644065 31.89165651 1.86073363 31.91199964 C-7.67714816 31.82074657 -7.67714816 31.82074657 -11.36030483 28.83872128 C-15.97248907 23.54816014 -16.15752466 19.41366282 -16.06387806 12.46820641 C-15.48672196 8.3783589 -14.18852842 6.3941913 -11.31387806 3.52680016 C-7.54007812 0.71376121 -4.71120232 0.0066767 0 0 Z " fill="#074CA6" transform="translate(281.6107530593872,854.7427310943604)"/>
<path d="M0 0 C1.40015332 -0.00350492 2.80030263 -0.00916769 4.20043945 -0.01681519 C7.98776369 -0.03101861 11.77435801 -0.0140469 15.56161237 0.00946999 C19.53195194 0.02963214 23.50226279 0.02369671 27.47264099 0.0213623 C34.13796981 0.02141581 40.80301454 0.0411357 47.46826172 0.07324219 C55.16699528 0.11014742 62.86535708 0.118915 70.56416756 0.11194468 C77.98111701 0.1056334 85.39793941 0.11640453 92.8148632 0.13591003 C95.96664177 0.14407059 99.11835527 0.14679607 102.27014351 0.1452179 C105.98277224 0.14433712 109.69504924 0.15860659 113.40758514 0.18444443 C115.41498096 0.19498902 117.4224369 0.19094132 119.42985535 0.18643188 C120.63121124 0.19778168 121.83256714 0.20913147 123.07032776 0.2208252 C124.63019079 0.22641827 124.63019079 0.22641827 126.2215662 0.23212433 C129.69076405 0.68235351 132.14343717 1.90797984 135.17358398 3.61523438 C135.17358398 4.27523438 135.17358398 4.93523437 135.17358398 5.61523438 C136.16358398 5.94523437 137.15358398 6.27523438 138.17358398 6.61523438 C140.8550398 11.73519532 140.84448517 16.97469481 140.17358398 22.61523438 C137.58398294 27.98625877 134.34010965 30.03197154 129.17358398 32.61523438 C127.31201144 32.71521888 125.44682858 32.75033131 123.58258057 32.75567627 C122.39369232 32.76138641 121.20480408 32.76709656 119.97988892 32.77297974 C118.66870087 32.7740976 117.35751282 32.77521545 116.0065918 32.77636719 C114.61703357 32.78099463 113.22747661 32.78601919 111.83792114 32.79141235 C108.05676605 32.80454758 104.27562873 32.81098377 100.49445438 32.81542301 C98.13217237 32.8183526 95.76989523 32.82245724 93.40761566 32.82692719 C86.01686858 32.84060655 78.6261326 32.85027043 71.23537374 32.85412908 C62.70370752 32.85860774 54.17220168 32.87614479 45.64058423 32.90512967 C39.04687079 32.92675294 32.45320244 32.93683374 25.85945392 32.93817019 C21.92112489 32.93921799 17.98294654 32.94511985 14.04465485 32.96298981 C10.33790596 32.97948119 6.6314208 32.98162094 2.92464828 32.9728508 C0.91954379 32.97171448 -1.085552 32.98542457 -3.09060669 32.99960327 C-4.890858 32.99124954 -4.890858 32.99124954 -6.72747803 32.98272705 C-7.76650646 32.98419361 -8.8055349 32.98566017 -9.87604904 32.98717117 C-15.31537937 32.30146423 -19.32537417 29.76461731 -22.82641602 25.61523438 C-24.70422608 19.98180419 -24.53941855 13.88006595 -22.76391602 8.24023438 C-16.49028348 -0.25952584 -9.9338317 -0.1011505 0 0 Z " fill="#074CA6" transform="translate(475.826416015625,306.384765625)"/>
<path d="M0 0 C1.20571655 -0.0071553 2.41143311 -0.01431061 3.65368652 -0.02168274 C4.99700902 -0.02452313 6.34033179 -0.02723485 7.68365479 -0.02983093 C9.09291756 -0.03609479 10.50217868 -0.04274152 11.91143799 -0.04974365 C15.74630511 -0.06716184 19.58115975 -0.07770788 23.41605663 -0.08594918 C25.81184036 -0.09109819 28.2076202 -0.097174 30.60340118 -0.10346031 C38.09879671 -0.12251569 45.59418237 -0.13674542 53.08959746 -0.14507228 C61.74243041 -0.15484346 70.39500746 -0.18115825 79.04775023 -0.22157317 C85.73488004 -0.25173537 92.4219365 -0.26654129 99.10913301 -0.26985329 C103.10340613 -0.2722039 107.09740598 -0.28116518 111.09160614 -0.30631447 C114.85093785 -0.32960193 118.60981651 -0.33382599 122.36920166 -0.32355309 C123.7470475 -0.32305775 125.12491568 -0.32937763 126.50269318 -0.34310913 C139.39494289 -0.46438185 139.39494289 -0.46438185 144.33306885 4.14717102 C147.70566351 7.78602315 148.64763076 10.67732672 148.89556885 15.52217102 C148.67401528 20.9428484 147.37767716 25.37812943 143.33306885 29.14717102 C136.69763722 32.94236345 130.20376449 32.57754524 122.70611572 32.55122375 C121.32729033 32.55693271 119.94846966 32.56389901 118.56965637 32.57202148 C114.84031235 32.5899084 111.11120419 32.58879323 107.38183022 32.5830791 C104.26303472 32.5799813 101.14428414 32.58608614 98.02549505 32.59211785 C90.66623008 32.60614626 83.30708123 32.60461535 75.94781494 32.59321594 C68.36608184 32.58173118 60.78470233 32.59582004 53.2030158 32.62261242 C46.68219948 32.64478953 40.16149399 32.65140244 33.64064264 32.64553601 C29.75095807 32.64217063 25.86150024 32.64455358 21.97184753 32.66178703 C18.31417472 32.67728683 14.65702487 32.67326767 10.99937248 32.65448189 C9.02433833 32.64905668 7.04928052 32.66328625 5.07429504 32.67817688 C-1.71514533 32.6218752 -6.15309303 32.24591989 -11.66693115 28.14717102 C-11.66693115 27.48717102 -11.66693115 26.82717102 -11.66693115 26.14717102 C-12.32693115 26.14717102 -12.98693115 26.14717102 -13.66693115 26.14717102 C-16.10856425 20.77752372 -16.22850645 15.96474009 -15.66693115 10.14717102 C-12.81037227 3.08094642 -7.27350974 0.02953922 0 0 Z " fill="#074CA6" transform="translate(467.66693115234375,397.8528289794922)"/>
<path d="M0 0 C1.40015332 -0.00350492 2.80030263 -0.00916769 4.20043945 -0.01681519 C7.98776369 -0.03101861 11.77435801 -0.0140469 15.56161237 0.00946999 C19.53195194 0.02963214 23.50226279 0.02369671 27.47264099 0.0213623 C34.13796981 0.02141581 40.80301454 0.0411357 47.46826172 0.07324219 C55.16699528 0.11014742 62.86535708 0.118915 70.56416756 0.11194468 C77.98111701 0.1056334 85.39793941 0.11640453 92.8148632 0.13591003 C95.96664177 0.14407059 99.11835527 0.14679607 102.27014351 0.1452179 C105.98277224 0.14433712 109.69504924 0.15860659 113.40758514 0.18444443 C115.41498096 0.19498902 117.4224369 0.19094132 119.42985535 0.18643188 C120.63121124 0.19778168 121.83256714 0.20913147 123.07032776 0.2208252 C124.63019079 0.22641827 124.63019079 0.22641827 126.2215662 0.23212433 C130.37701807 0.7714149 133.64023555 2.41046061 136.92358398 4.99023438 C140.24552992 9.30876409 140.67142152 13.73265772 140.55249023 19.04492188 C139.93055823 23.26380083 138.1732764 26.59461388 135.17358398 29.61523438 C130.98297337 32.04751917 127.93254262 32.99089991 123.1015625 32.9961853 C121.9071756 33.00464478 120.7127887 33.01310425 119.48220825 33.02182007 C118.18540131 33.01574738 116.88859436 33.00967468 115.55249023 33.00341797 C114.16233916 33.0074865 112.77219131 33.01282996 111.38204956 33.01934814 C107.61757818 33.03299421 103.85335419 33.02773441 100.08887863 33.01821089 C96.1438812 33.0106002 92.19890454 33.01766381 88.25390625 33.02236938 C81.62976287 33.02782284 75.00571992 33.02064612 68.3815918 33.00634766 C60.73004259 32.99002188 53.07873322 32.99531069 45.42718983 33.01182687 C38.85036324 33.02545346 32.27360873 33.02735568 25.69677258 33.01951087 C21.77193968 33.01484078 17.8472194 33.01419115 13.9223938 33.02412033 C10.2319736 33.03280485 6.54186175 33.02674128 2.85147476 33.00943756 C0.85597402 33.00359736 -1.13955288 33.01247559 -3.13504028 33.02182007 C-4.32942719 33.0133606 -5.52381409 33.00490112 -6.75439453 32.9961853 C-7.78822769 32.99505423 -8.82206085 32.99392315 -9.88722229 32.9927578 C-13.39411159 32.54231697 -15.80058626 31.41848733 -18.82641602 29.61523438 C-20.20141602 27.42773438 -20.20141602 27.42773438 -20.82641602 25.61523438 C-21.48641602 25.61523438 -22.14641602 25.61523438 -22.82641602 25.61523438 C-24.47187488 19.85612836 -24.59514856 14.01187113 -22.76391602 8.30273438 C-16.57174497 -0.28640611 -9.92597849 -0.10107054 0 0 Z " fill="#074CA6" transform="translate(475.826416015625,221.384765625)"/>
</svg>
