<?xml version="1.0" encoding="UTF-8"?>
<svg version="1.1" xmlns="http://www.w3.org/2000/svg" width="1024" height="1024">
<path d="M0 0 C1.07123003 -0.00570851 1.07123003 -0.00570851 2.16410106 -0.01153234 C4.54550251 -0.02179882 6.9266634 -0.01795117 9.30808067 -0.01409245 C11.03742592 -0.01854754 12.76676913 -0.02386247 14.49610937 -0.02996117 C19.23968277 -0.04411907 23.98319058 -0.04580488 28.72678208 -0.04536426 C33.84626189 -0.04701442 38.96571482 -0.06008465 44.08518028 -0.07155704 C55.27537196 -0.0943907 66.46554466 -0.10232588 77.65575647 -0.10738349 C84.64575705 -0.11064236 91.63575212 -0.11716599 98.62574959 -0.12438488 C117.98740079 -0.14394855 137.34904689 -0.16035417 156.71070862 -0.16326141 C157.94930251 -0.16344898 159.1878964 -0.16363655 160.46402343 -0.16382981 C162.97484295 -0.16419605 165.48566246 -0.16455975 167.99648197 -0.16492092 C169.24281876 -0.16510373 170.48915555 -0.16528654 171.77326012 -0.16547489 C173.02112196 -0.16565544 174.26898381 -0.16583599 175.55465965 -0.16602201 C195.77203572 -0.16956325 215.98930525 -0.19658361 236.20664437 -0.23397278 C256.97433885 -0.27207174 277.74198048 -0.29141901 298.50971067 -0.29172093 C310.16567433 -0.29230513 321.82151088 -0.30077345 333.47744179 -0.32971859 C343.40295387 -0.35425364 353.32829247 -0.36150093 363.25382669 -0.34647106 C368.31485959 -0.33931099 373.37555009 -0.34012089 378.43654442 -0.36288166 C383.07678818 -0.38354965 387.71642799 -0.38079858 392.35666578 -0.36000682 C394.02827086 -0.35652685 395.69992022 -0.3613581 397.37146731 -0.37571125 C411.24405534 -0.48707955 422.90890051 1.5991096 434.01886559 10.70928097 C435.49542809 12.26006222 435.49542809 12.26006222 435.49542809 14.26006222 C436.08195152 14.48307003 436.66847496 14.70607784 437.27277184 14.93584347 C443.37646166 18.57231245 447.17821285 27.69461904 449.49542809 34.26006222 C450.35930576 38.53400089 450.62140198 42.5832462 450.62406254 46.93904495 C450.62581558 47.5882304 450.62756861 48.23741584 450.62937477 48.90627357 C450.63402159 51.07861205 450.63157268 53.25088322 450.62914085 55.42322445 C450.63100949 56.99766284 450.6333104 58.57210077 450.63600618 60.14653796 C450.64212407 64.47101284 450.64199059 68.79546838 450.6408118 73.1199466 C450.64060779 77.78468157 450.64612656 82.44941034 450.65086937 87.11414242 C450.65917639 96.25243781 450.66192423 105.39072674 450.66248175 114.52902559 C450.66295688 121.95681986 450.66501147 129.38461199 450.66818237 136.81240559 C450.67698902 157.87030266 450.68160172 178.92819463 450.6808519 199.98609356 C450.68079196 201.68900663 450.68079196 201.68900663 450.68073082 203.42632198 C450.6806695 205.13131354 450.6806695 205.13131354 450.68060694 206.87074938 C450.68020045 225.29389702 450.68977074 243.71702423 450.70386919 262.14016596 C450.71823024 281.0556784 450.72513952 299.97118087 450.72427541 318.8866989 C450.72394335 329.50682163 450.72669438 340.12692293 450.73745346 350.74704075 C450.74655488 359.78886643 450.74873665 368.83066097 450.74194404 377.87248925 C450.73867705 382.48519967 450.73862862 387.09785033 450.74729729 391.71055508 C450.75515525 395.93533874 450.75373804 400.1600152 450.74501316 404.38479622 C450.74347662 405.91101234 450.74530011 407.43723643 450.75087323 408.96344314 C450.77706651 416.64700648 450.5736644 423.81192865 448.49542809 431.26006222 C449.09371422 431.42836544 449.69200035 431.59666866 450.30841637 431.77007198 C461.51878228 435.01517791 471.31754254 442.45178203 477.24542809 452.57256222 C478.00490555 454.13047757 478.75389106 455.69352812 479.49542809 457.26006222 C479.85086724 457.95824283 480.2063064 458.65642344 480.57251644 459.37576103 C484.81829156 469.02964781 484.04897474 479.21609121 483.99713707 489.54546261 C484.00092458 491.69832366 484.00642818 493.85118226 484.01350975 496.004035 C484.02742425 501.82628788 484.01632295 507.64824392 483.99979854 513.4704802 C483.9859059 519.57567157 483.99241285 525.68084645 483.99593163 531.78604794 C483.99863021 542.03565385 483.98518765 552.28514243 483.96198082 562.53472042 C483.9353663 574.37100156 483.93362762 586.20708666 483.94536918 598.04338747 C483.95616166 609.44880774 483.94994878 620.85415736 483.9358139 632.25957203 C483.9300676 637.10502392 483.9301261 641.95042388 483.9348793 646.7958765 C483.9396642 652.50463412 483.92948464 658.21317803 483.90792465 663.92189503 C483.9023775 666.01240856 483.90187237 668.10294271 483.90687752 670.1934576 C483.91286917 673.05570159 483.90025118 675.91730059 483.88310814 678.77948666 C483.88911818 679.59886355 483.89512823 680.41824044 483.9013204 681.26244694 C483.7619863 694.13069876 478.37832198 704.49295183 469.55792809 713.63506222 C464.2899118 718.67437719 456.21123887 725.26006222 448.49542809 725.26006222 C448.63685667 725.80276099 448.77828525 726.34545977 448.92399955 726.90460396 C450.29235576 732.51809133 450.7812178 737.71806838 450.74939537 743.48198605 C450.75251535 744.36537309 450.75563533 745.24876013 450.75884986 746.15891647 C450.76677549 749.09504499 450.76052753 752.03096371 450.75421715 754.96709347 C450.75692942 757.0818713 450.76049168 759.19664819 450.76483727 761.3114233 C450.77393535 767.03860839 450.77042764 772.76572121 450.76407909 778.49290752 C450.75900575 784.49447731 450.76371426 790.49604101 450.76685143 796.49761105 C450.77048717 806.57501489 450.76570221 816.65238939 450.75617027 826.72978878 C450.74528649 838.37060841 450.74881235 850.01135797 450.75982308 861.6521759 C450.76890708 871.65751685 450.77017578 881.66283673 450.76494575 891.66818047 C450.76183218 897.63921856 450.76139988 903.61022376 450.76801872 909.58125973 C450.77380771 915.19554699 450.7697668 920.80974416 450.75823021 926.42402172 C450.75559194 928.4810957 450.75633444 930.5381773 450.76075554 932.59524822 C450.76624535 935.40964637 450.75933531 938.22375832 450.74939537 941.03813839 C450.75385681 941.84622857 450.75831826 942.65431875 450.7629149 943.48689651 C450.70980839 951.27425523 449.25822151 958.27951799 445.87042809 965.32256222 C445.42441246 966.26228878 444.97839684 967.20201534 444.51886559 968.17021847 C444.18113121 968.85986691 443.84339684 969.54951534 443.49542809 970.26006222 C442.83542809 970.26006222 442.17542809 970.26006222 441.49542809 970.26006222 C441.26855309 970.79631222 441.04167809 971.33256222 440.80792809 971.88506222 C436.84340174 979.05896703 431.03507146 983.69912261 423.80792809 987.38506222 C422.8553109 987.88264034 421.90269371 988.38021847 420.92120934 988.89287472 C413.60260013 991.81364236 406.14659077 992.55829094 398.32529259 992.52075863 C397.45950203 992.52458418 396.59371147 992.52840972 395.70168483 992.5323512 C392.83094835 992.5425834 389.96041555 992.53870782 387.08966637 992.53472042 C385.01901631 992.53907231 382.94836786 992.54425704 380.87772179 992.55020809 C375.27436289 992.56355784 369.6710716 992.56418126 364.06769991 992.56164479 C359.38099468 992.56057237 354.69430298 992.56546536 350.00760067 992.57025021 C338.94640386 992.58133143 327.88524103 992.58179056 316.82404137 992.57573605 C305.43260463 992.56969643 294.04129142 992.58201022 282.64987576 992.60330611 C272.85083358 992.62094804 263.05183063 992.62691939 253.25277317 992.62366837 C247.40850518 992.62185955 241.56432532 992.62445168 235.72007179 992.63838291 C230.22228043 992.65099884 224.72468103 992.64898153 219.22689247 992.63597202 C217.21622718 992.63361491 215.20554821 992.63630968 213.19489861 992.64459515 C188.29491821 992.73975629 188.29491821 992.73975629 177.49542809 986.26006222 C176.82253746 985.87334347 176.14964684 985.48662472 175.45636559 985.08818722 C164.72736614 978.52543154 157.39033278 969.23849042 153.49542809 957.26006222 C150.96932715 946.68713675 151.21196249 936.06113851 151.23663902 925.26982784 C151.23392466 923.267848 151.23036123 921.26586915 151.22601891 919.26389217 C151.21694566 913.85691953 151.22041818 908.4500237 151.22677708 903.04304981 C151.23186338 897.36721633 151.22713834 891.69138914 151.22400475 886.01555538 C151.22037275 876.48653141 151.22514407 866.9575385 151.2346859 857.42851925 C151.24556895 846.43355364 151.24204283 835.43866222 151.23103309 824.44369841 C151.22193836 814.98007115 151.22068562 805.51646615 151.22591043 796.05283594 C151.22901811 790.41094625 151.22947261 784.76909136 151.22283745 779.12720394 C151.21703276 773.82147745 151.22111776 768.51584603 151.23262596 763.21012974 C151.2352559 761.27041754 151.23453617 759.33069726 151.23010063 757.39098835 C151.2245774 754.72887311 151.23156028 752.06705628 151.2414608 749.40495968 C151.23476864 748.27320238 151.23476864 748.27320238 151.22794127 747.1185813 C151.27511155 740.51095241 152.36815715 735.02368785 153.49542809 728.26006222 C142.93542809 727.93006222 132.37542809 727.60006222 121.49542809 727.26006222 C121.50208992 730.40079754 121.50875175 733.54153286 121.51561546 736.77744198 C121.57538058 765.61439384 121.62013251 794.45132882 121.64862407 823.28832732 C121.65237595 827.07195587 121.65625894 830.85558427 121.66022301 834.63921261 C121.66100994 835.39242811 121.66179687 836.14564361 121.66260765 836.92168383 C121.67564242 849.09909325 121.69928558 861.27645996 121.72688647 873.45384409 C121.75499445 885.95975144 121.77161572 898.46563649 121.77769357 910.97157413 C121.78179886 918.68120031 121.79473967 926.39070571 121.81917749 934.10029469 C121.8369905 940.0235734 121.83878014 945.94679096 121.83475113 951.87009716 C121.83557356 954.29154292 121.84150213 956.71299343 121.85304451 959.13441181 C121.94386728 979.17801749 121.06699979 995.92279437 106.54620934 1011.26396847 C93.07785809 1024.37316368 78.84638499 1024.98468812 60.99811363 1024.82768917 C58.74006749 1024.82627677 56.48201905 1024.82707443 54.22397423 1024.8299017 C48.12762704 1024.83132973 42.03177693 1024.80203893 35.93554473 1024.76703191 C29.55211488 1024.73566618 23.16867225 1024.73282962 16.78517723 1024.72690487 C6.08180128 1024.71315577 -4.62135859 1024.68197592 -15.32464027 1024.63725948 C-26.34286046 1024.59127552 -37.36103103 1024.55598448 -48.37932777 1024.53472042 C-49.066852 1024.53338043 -49.75437623 1024.53204045 -50.46273452 1024.53065985 C-56.44439013 1024.51909365 -62.42604711 1024.50833058 -68.40770435 1024.49764633 C-94.10683064 1024.45070458 -119.80547639 1024.35107184 -145.50457191 1024.26006222 C-145.50457191 985.98006222 -145.50457191 947.70006222 -145.50457191 908.26006222 C-155.70423145 911.85994205 -165.875794 915.47540073 -176.00457191 919.26006222 C-191.80416295 925.12955715 -191.80416295 925.12955715 -199.50457191 927.88506222 C-200.18584145 928.13256222 -200.86711098 928.38006222 -201.56902504 928.63506222 C-204.36831055 929.62750963 -206.50692978 930.26006222 -209.50457191 930.26006222 C-209.50457191 961.28006222 -209.50457191 992.30006222 -209.50457191 1024.26006222 C-318.73457191 1024.26006222 -427.96457191 1024.26006222 -540.50457191 1024.26006222 C-540.56644691 978.28693722 -540.62832191 932.31381222 -540.69207191 884.94756222 C-540.71938393 870.45036251 -540.74669594 855.9531628 -540.77483559 841.01665401 C-540.78838539 823.26555538 -540.78838539 823.26555538 -540.79090309 814.94617367 C-540.79368942 809.15613774 -540.8046458 803.36618964 -540.8212986 797.57617855 C-540.84051665 790.8842552 -540.84905151 784.19241546 -540.84490677 777.50046437 C-540.84311448 774.08378051 -540.84749454 770.66743123 -540.86221731 767.25075758 C-540.936185 749.23781946 -540.04146843 732.01726102 -535.19207191 714.57256222 C-534.97969887 713.79332394 -534.76732582 713.01408566 -534.54851723 712.21123409 C-528.97209332 692.31740251 -520.39887036 673.17495287 -508.50457191 656.26006222 C-508.03132484 655.58298214 -507.55807777 654.90590206 -507.07048988 654.20830441 C-505.58183897 652.09130488 -504.07876692 649.98565843 -502.56707191 647.88506222 C-501.85768471 646.89264523 -501.85768471 646.89264523 -501.13396645 645.88017941 C-499.97501853 644.30151805 -498.74574456 642.77492934 -497.50457191 641.26006222 C-496.84457191 641.26006222 -496.18457191 641.26006222 -495.50457191 641.26006222 C-495.25965004 640.69932003 -495.01472816 640.13857784 -494.76238441 639.56084347 C-490.21753603 631.24744067 -481.18782264 622.24707359 -472.50457191 618.26006222 C-472.50457191 617.60006222 -472.50457191 616.94006222 -472.50457191 616.26006222 C-470.38738441 614.53349972 -470.38738441 614.53349972 -467.62957191 612.63506222 C-466.72465004 612.00342159 -465.81972816 611.37178097 -464.88738441 610.72099972 C-462.50457191 609.26006222 -462.50457191 609.26006222 -460.50457191 609.26006222 C-460.50457191 608.60006222 -460.50457191 607.94006222 -460.50457191 607.26006222 C-454.35573653 602.00589865 -446.66173405 598.7099041 -439.43865395 595.21172237 C-437.43500163 594.22583034 -435.45135945 593.20681532 -433.46941566 592.17803097 C-432.78758217 591.82724483 -432.10574867 591.4764587 -431.40325356 591.11504269 C-430.11150865 590.44961251 -428.82260661 589.77861446 -427.5375309 589.10039425 C-421.59016192 586.06520687 -416.07327285 584.4496292 -409.50457191 582.26006222 C-409.17457191 573.68006222 -408.84457191 565.10006222 -408.50457191 556.26006222 C-410.48457191 555.60006222 -412.46457191 554.94006222 -414.50457191 554.26006222 C-417.54948728 552.88697838 -420.48914824 551.32026636 -423.44207191 549.76006222 C-424.2731144 549.32226437 -425.10415688 548.88446651 -425.96038246 548.43340206 C-433.83707033 544.20909209 -441.17656616 539.36013948 -448.50457191 534.26006222 C-449.36961342 533.71237179 -449.36961342 533.71237179 -450.25213051 533.15361691 C-451.7007029 532.2364559 -453.10727807 531.25359944 -454.50457191 530.26006222 C-454.50457191 529.60006222 -454.50457191 528.94006222 -454.50457191 528.26006222 C-455.58351723 527.90428097 -455.58351723 527.90428097 -456.68425941 527.54131222 C-459.95034437 526.05755063 -462.02317705 524.21501518 -464.62957191 521.76006222 C-467.20867671 519.34558114 -469.56058802 517.22271815 -472.50457191 515.26006222 C-472.50457191 514.60006222 -472.50457191 513.94006222 -472.50457191 513.26006222 C-473.49457191 512.93006222 -474.48457191 512.60006222 -475.50457191 512.26006222 C-475.50457191 511.60006222 -475.50457191 510.94006222 -475.50457191 510.26006222 C-476.16457191 510.26006222 -476.82457191 510.26006222 -477.50457191 510.26006222 C-478.86634113 508.61654764 -480.19419257 506.94483566 -481.50457191 505.26006222 C-482.41207191 504.37318722 -483.31957191 503.48631222 -484.25457191 502.57256222 C-486.50457191 500.26006222 -486.50457191 500.26006222 -486.50457191 498.26006222 C-487.49457191 497.93006222 -488.48457191 497.60006222 -489.50457191 497.26006222 C-491.11004066 495.48271847 -491.11004066 495.48271847 -492.69207191 493.32256222 C-493.2218766 492.61228878 -493.75168129 491.90201534 -494.29754066 491.17021847 C-495.50457191 489.26006222 -495.50457191 489.26006222 -495.50457191 487.26006222 C-496.16457191 487.26006222 -496.82457191 487.26006222 -497.50457191 487.26006222 C-499.20379066 485.02178097 -499.20379066 485.02178097 -501.19207191 481.94756222 C-501.90621254 480.84541378 -502.62035316 479.74326534 -503.35613441 478.60771847 C-504.06511879 477.50299191 -504.77410316 476.39826534 -505.50457191 475.26006222 C-506.11043129 474.35127316 -506.71629066 473.44248409 -507.34050941 472.50615597 C-511.63684889 465.98388495 -515.18624829 459.20884297 -518.56389809 452.17925167 C-519.25545575 450.76831609 -519.966919 449.36709307 -520.68938637 447.97173214 C-523.7564792 442.01713784 -526.25838307 436.02758731 -528.44207191 429.69756222 C-528.78125648 428.71521603 -529.12044106 427.73286983 -529.46990395 426.72075558 C-531.94945144 419.33515467 -534.03585289 411.89081105 -535.87957191 404.32256222 C-536.11796791 403.35439571 -536.35636391 402.38622921 -536.60198402 401.38872433 C-540.08019894 386.43704788 -540.85405862 371.78677152 -540.82024574 356.49834347 C-540.81709088 353.52791559 -540.84062398 350.55849264 -540.86590004 347.58818722 C-540.9202217 331.2786789 -539.13889888 315.47918301 -535.19207191 299.63506222 C-534.98114906 298.77445187 -534.77022621 297.91384151 -534.55291176 297.02715206 C-531.2546431 283.93271274 -526.94712823 271.53097144 -521.02019691 259.39678097 C-519.72466202 256.71555797 -518.56837428 254.03950664 -517.50457191 251.26006222 C-516.84457191 251.26006222 -516.18457191 251.26006222 -515.50457191 251.26006222 C-515.33828285 250.16564816 -515.33828285 250.16564816 -515.16863441 249.04912472 C-514.46931802 246.11199584 -513.47477055 244.18567394 -511.87957191 241.63506222 C-511.33429848 240.76107784 -510.78902504 239.88709347 -510.22722816 238.98662472 C-509.6587516 238.08685909 -509.09027504 237.18709347 -508.50457191 236.26006222 C-507.72920082 234.97228878 -507.72920082 234.97228878 -506.93816566 233.65849972 C-500.25191592 222.73493989 -492.17456798 212.8237776 -483.47722816 203.44365597 C-482.08828218 201.90618903 -480.75917699 200.31359737 -479.47722816 198.68584347 C-477.71849675 196.52312623 -476.00327838 194.79939788 -473.87957191 193.01006222 C-470.79777079 190.38230177 -467.79470858 187.69279797 -464.81707191 184.94756222 C-460.84909176 181.37391549 -456.77088079 177.98701479 -452.56707191 174.69756222 C-452.01124428 174.25565548 -451.45541664 173.81374874 -450.88274574 173.35845089 C-446.8610656 170.26006222 -446.8610656 170.26006222 -443.50457191 170.26006222 C-443.50457191 169.60006222 -443.50457191 168.94006222 -443.50457191 168.26006222 C-441.73894691 166.99834347 -441.73894691 166.99834347 -439.25457191 165.57256222 C-435.11461939 163.19553829 -435.11461939 163.19553829 -431.04754066 160.69756222 C-415.25978872 150.85092832 -397.48396026 143.86029308 -379.50457191 139.26006222 C-378.2709391 138.90557003 -377.03730629 138.55107784 -375.76629066 138.18584347 C-362.94432581 134.54370139 -350.13392062 132.26081425 -336.81707191 131.68633175 C-335.91209969 131.64563124 -335.00712746 131.60493073 -334.07473183 131.56299686 C-323.76071275 131.13574825 -313.45077586 131.11509895 -303.12957191 131.12724972 C-301.06080552 131.12657332 -298.99203921 131.12560053 -296.92327309 131.12435055 C-292.63086614 131.12289196 -288.33848028 131.12496979 -284.04607582 131.12969112 C-278.57857036 131.13541637 -273.11111372 131.13208006 -267.64361 131.12611866 C-263.38825558 131.12248758 -259.13291254 131.12366281 -254.87755775 131.12624645 C-252.86197338 131.12690719 -250.84638793 131.12611763 -248.83080482 131.1237669 C-219.12933659 131.09668608 -193.25978761 135.66206881 -170.50457191 156.26006222 C-170.50457191 156.92006222 -170.50457191 157.58006222 -170.50457191 158.26006222 C-169.84457191 158.26006222 -169.18457191 158.26006222 -168.50457191 158.26006222 C-166.62957191 160.27178097 -166.62957191 160.27178097 -164.50457191 162.94756222 C-163.80332191 163.81767941 -163.10207191 164.68779659 -162.37957191 165.58428097 C-160.61434766 168.10340308 -159.50588174 170.36565101 -158.50457191 173.26006222 C-157.84457191 173.26006222 -157.18457191 173.26006222 -156.50457191 173.26006222 C-155.05472525 176.21249378 -153.62211269 179.17299327 -152.19207191 182.13506222 C-151.78795082 182.95748409 -151.38382973 183.77990597 -150.96746254 184.62724972 C-140.81063728 205.76665838 -140.35422993 232.2167175 -147.75457191 254.32256222 C-152.79509607 267.6953814 -161.79019132 285.54061686 -174.50457191 293.26006222 C-175.16457191 293.26006222 -175.82457191 293.26006222 -176.50457191 293.26006222 C-176.83457191 294.25006222 -177.16457191 295.24006222 -177.50457191 296.26006222 C-181.83790525 299.26006222 -181.83790525 299.26006222 -184.50457191 299.26006222 C-184.50457191 299.92006222 -184.50457191 300.58006222 -184.50457191 301.26006222 C-191.92957191 305.22006222 -191.92957191 305.22006222 -199.50457191 309.26006222 C-198.20519691 311.67318722 -196.90582191 314.08631222 -195.56707191 316.57256222 C-187.1658696 332.3829657 -179.86901293 348.52701582 -173.50457191 365.26006222 C-173.23016273 365.97339718 -172.95575356 366.68673214 -172.67302895 367.42168331 C-163.11291455 392.47190266 -159.07593053 416.50624562 -159.50457191 443.26006222 C-160.9325309 443.70031734 -160.9325309 443.70031734 -162.38933754 444.14946651 C-172.64036745 447.32370012 -182.83033097 450.6611458 -193.00457191 454.07256222 C-194.52145102 454.57986715 -196.03837793 455.08702918 -197.55535316 455.59404659 C-201.20564244 456.81441545 -204.85529147 458.03668011 -208.50457191 459.26006222 C-208.52439125 460.44970577 -208.54421059 461.63934933 -208.56463051 462.86504269 C-208.641258 467.3195061 -208.72988279 471.77366693 -208.82195473 476.22783566 C-208.86001015 478.14802185 -208.89490188 480.06827366 -208.92644691 481.98857784 C-208.9726112 484.76420553 -209.03051531 487.53939047 -209.09050941 490.31474972 C-209.10206062 491.15996181 -209.11361183 492.00517391 -209.12551308 492.8759985 C-209.4622424 506.77406171 -213.60475867 518.31378362 -220.50457191 530.26006222 C-221.16457191 530.26006222 -221.82457191 530.26006222 -222.50457191 530.26006222 C-222.57804848 530.81049191 -222.65152504 531.36092159 -222.72722816 531.92803097 C-225.64639784 540.68554 -236.04244546 547.62178841 -243.50457191 552.26006222 C-244.55644691 552.96131222 -245.60832191 553.66256222 -246.69207191 554.38506222 C-255.29476174 559.10530295 -264.86609684 561.18912054 -274.50457191 562.26006222 C-274.50457191 601.86006222 -274.50457191 641.46006222 -274.50457191 682.26006222 C-273.51457191 682.59006222 -272.52457191 682.92006222 -271.50457191 683.26006222 C-267.07320461 688.68424952 -263.82270084 695.11732354 -260.50457191 701.26006222 C-259.56903653 702.94865218 -258.63158791 704.63618379 -257.69207191 706.32256222 C-256.96290525 707.63506222 -256.23373858 708.94756222 -255.50457191 710.26006222 C-250.74801443 710.5119223 -247.27744269 709.69587745 -242.81707191 708.07256222 C-237.04218428 706.04002753 -231.24934425 704.33313981 -225.31707191 702.82256222 C-218.9367255 701.18852434 -212.61558372 699.43565949 -206.31707191 697.51006222 C-197.30941029 694.76315506 -188.25766628 692.18251278 -179.19207191 689.63506222 C-178.52446846 689.44706051 -177.85686501 689.2590588 -177.16903114 689.06536007 C-172.61762423 687.78446502 -168.06268428 686.51687965 -163.50457191 685.26006222 C-162.46747078 684.97322567 -162.46747078 684.97322567 -161.40941811 684.68059444 C-159.34467627 684.11144972 -157.27843614 683.54812254 -155.21160316 682.98662472 C-153.38786171 682.48896603 -153.38786171 682.48896603 -151.52727699 681.98125362 C-148.50457191 681.26006222 -148.50457191 681.26006222 -145.50457191 681.26006222 C-145.50457191 663.44006222 -145.50457191 645.62006222 -145.50457191 627.26006222 C-134.28457191 627.26006222 -123.06457191 627.26006222 -111.50457191 627.26006222 C-111.50457191 605.15006222 -111.50457191 583.04006222 -111.50457191 560.26006222 C-100.94457191 560.26006222 -90.38457191 560.26006222 -79.50457191 560.26006222 C-79.52028236 557.72294552 -79.53599281 555.18582882 -79.55217934 552.5718298 C-79.60210875 544.14612445 -79.63511367 535.72041222 -79.66000843 527.29459763 C-79.6755986 522.19096455 -79.69671406 517.08748432 -79.73089027 511.98393917 C-79.76372255 507.0496507 -79.7814748 502.11550833 -79.78920364 497.18111897 C-79.79470463 495.30785672 -79.80544544 493.43460158 -79.82176208 491.56140232 C-79.97752653 472.92111973 -78.08486225 457.52619245 -64.68816566 443.44756222 C-63.96757973 442.72568722 -63.24699379 442.00381222 -62.50457191 441.26006222 C-62.00054848 440.74443722 -61.49652504 440.22881222 -60.97722816 439.69756222 C-56.81114706 435.83337104 -49.34297876 431.26006222 -43.50457191 431.26006222 C-43.82915052 430.40946083 -44.15372912 429.55885943 -44.48814344 428.68248224 C-45.55337048 425.0957524 -45.75946479 422.23445063 -45.76742744 418.50134182 C-45.77358535 417.51461526 -45.77358535 417.51461526 -45.77986765 416.50795484 C-45.79116653 414.30614801 -45.78829838 412.10459303 -45.7854557 409.90276241 C-45.79062538 408.30713632 -45.79665237 406.71151282 -45.80346251 405.11589289 C-45.81958164 400.73265383 -45.82318048 396.34948032 -45.82465744 391.96621513 C-45.82836227 387.23797446 -45.84345897 382.50976765 -45.85692787 377.78154659 C-45.88408205 367.44245335 -45.89614237 357.10337563 -45.90494919 346.76425266 C-45.91047689 340.30593824 -45.9189522 333.8476298 -45.92795753 327.38931942 C-45.95234265 309.50151349 -45.97294041 291.61371235 -45.97970772 273.72589016 C-45.98036642 272.0088393 -45.98036642 272.0088393 -45.98103842 270.25710055 C-45.98147498 269.10968576 -45.98191153 267.96227097 -45.98236132 266.78008604 C-45.98324824 264.45505206 -45.98414137 262.13001807 -45.98504066 259.80498409 C-45.98570495 258.07504433 -45.98570495 258.07504433 -45.98638266 256.31015629 C-45.99427506 237.63166201 -46.02917223 218.95332396 -46.07575971 200.27489001 C-46.12322507 181.0892757 -46.14811321 161.9037397 -46.15044355 142.71806574 C-46.15227508 131.94959378 -46.16372938 121.18132531 -46.20008278 110.41290951 C-46.23093685 101.24123935 -46.24109535 92.06983554 -46.22460657 82.89812332 C-46.21681131 78.22183114 -46.2185639 73.54607489 -46.24672127 68.86984921 C-46.27230891 64.58099734 -46.26971108 60.29308106 -46.24553984 56.00422949 C-46.24164445 54.46041934 -46.24769667 52.91654167 -46.26522857 51.37282616 C-46.4141112 37.36613858 -42.9046008 26.74207998 -34.02019691 15.73662472 C-32.50457191 14.26006222 -32.50457191 14.26006222 -30.50457191 14.26006222 C-30.17457191 13.27006222 -29.84457191 12.28006222 -29.50457191 11.26006222 C-21.02670563 3.49037093 -11.40449453 0.01758512 0 0 Z M-6.21160316 38.72490597 C-10.11076318 43.91919334 -11.75354421 46.92837291 -11.76184082 53.47709942 C-11.76828971 54.76201959 -11.77473861 56.04693977 -11.78138292 57.37079692 C-11.77844052 58.79984847 -11.77530508 60.22889964 -11.77199745 61.6579504 C-11.77573285 63.17362992 -11.78033392 64.68930752 -11.7857281 66.20498204 C-11.79798743 70.37630091 -11.79769418 74.54753976 -11.79533935 78.71887255 C-11.79493191 83.21526075 -11.80596334 87.71162304 -11.81545448 92.20799923 C-11.83208197 101.02004264 -11.83756484 109.8320593 -11.83867924 118.64411709 C-11.83962897 125.80642911 -11.84373551 132.9687323 -11.85008049 140.13104153 C-11.86769835 160.43109857 -11.87691861 180.73113445 -11.87541954 201.03119919 C-11.87533963 202.12605016 -11.87525972 203.22090113 -11.87517738 204.34892941 C-11.87509562 205.44511515 -11.87501386 206.5413009 -11.87492962 207.67070439 C-11.87411676 225.43509672 -11.89325299 243.19940424 -11.92145412 260.96377203 C-11.95017274 279.19782344 -11.96399495 297.43183349 -11.96226656 315.6659081 C-11.96160227 325.90543621 -11.96711184 336.14487544 -11.98862267 346.3843832 C-12.00682111 355.10315732 -12.01119286 363.82180229 -11.99760382 372.54058716 C-11.99106716 376.98918182 -11.99098202 381.43752863 -12.00831032 385.88609982 C-12.02401558 389.95990844 -12.02120366 394.03327216 -12.00374205 398.10706976 C-12.0006665 399.57949391 -12.00432552 401.05195106 -12.0154622 402.52433631 C-12.07126936 410.42709684 -12.10656799 416.63756581 -7.50457191 423.26006222 C-5.44680687 424.46339095 -5.44680687 424.46339095 -3.50457191 425.26006222 C-3.50457191 425.92006222 -3.50457191 426.58006222 -3.50457191 427.26006222 C0.11403741 428.38874982 3.50143228 428.38875625 7.27748394 428.39428329 C7.96210511 428.39663552 8.64672628 428.39898776 9.35209355 428.40141127 C11.65699311 428.40809323 13.96183619 428.40764329 16.26674461 428.40723324 C17.93162821 428.41053234 19.596511 428.41425801 21.26139277 428.41837472 C25.84507811 428.42839718 30.42875035 428.43211189 35.01244509 428.43476403 C39.95257412 428.43866624 44.89269277 428.44824451 49.83281517 428.45697689 C61.76602412 428.47674163 73.69923392 428.48680664 85.63245514 428.49570468 C91.24960338 428.50008678 96.86675067 428.50545372 102.48389816 428.51069355 C121.15141193 428.52770436 139.8189251 428.5421998 158.48644543 428.54944229 C163.33099239 428.55135223 168.17553935 428.55327256 173.02008629 428.55522823 C174.22419648 428.55571197 175.42830667 428.55619571 176.66890504 428.55669411 C196.18639447 428.56499921 215.70382269 428.59034488 235.22128538 428.62280891 C255.25091685 428.65585384 275.28051719 428.67388865 295.31017607 428.67708653 C306.55963129 428.6792538 317.80899722 428.6880343 329.0584259 428.71354771 C338.63616931 428.73521949 348.21380174 428.74332243 357.79156689 428.73358092 C362.67951682 428.72902626 367.5672376 428.73099013 372.45515633 428.75034237 C376.92920003 428.76790334 381.40284621 428.76703404 385.87689372 428.75144508 C387.4960045 428.74905825 389.11514231 428.75344799 390.73421166 428.76527373 C392.93524083 428.78035525 395.13485456 428.77074803 397.33584881 428.75504684 C398.55827858 428.75602365 399.78070836 428.75700046 401.04018146 428.75800687 C406.01516933 428.04104832 409.51183176 426.08624665 413.25068706 422.644095 C417.67641104 416.05646958 417.19050725 409.00986192 417.12361717 401.33646297 C417.12866605 399.81248756 417.13589752 398.28851809 417.14511532 396.76456219 C417.16401601 392.58876995 417.15181643 388.41356464 417.13439238 384.23778737 C417.12100979 379.72988162 417.13645861 375.22206126 417.14821434 370.71416378 C417.16658818 361.88822677 417.15808051 353.06251123 417.14012612 344.23658114 C417.12609827 337.063856 417.12220772 329.89119095 417.12556839 322.71845341 C417.12604583 321.69745009 417.12652327 320.67644677 417.12701518 319.62450396 C417.12804152 317.55034334 417.12909688 315.47618273 417.13018095 313.40202213 C417.13874738 295.06372361 417.12207435 276.72553199 417.09235191 258.38725948 C417.06351045 240.59229194 417.05643305 222.79747837 417.0718441 205.00249386 C417.08860371 185.62379866 417.09264323 166.24517656 417.07513374 146.86647946 C417.07328935 144.8002714 417.07145463 142.73406334 417.06962967 140.66785526 C417.06871758 139.65124346 417.06780549 138.63463166 417.06686576 137.58721344 C417.0612592 130.42244511 417.06456862 123.25771245 417.07117462 116.09294605 C417.07890464 107.36250775 417.072167 98.63222106 417.04699958 89.90181332 C417.03449737 85.44725369 417.02836679 80.99293016 417.03954124 76.53836155 C417.0495778 72.46042307 417.04113671 68.38295559 417.01796006 64.30507446 C417.0127984 62.83010579 417.01436695 61.35509496 417.02335472 59.88014465 C417.07569591 50.51105254 416.5523331 45.2635784 410.62042809 37.94756222 C404.85833768 33.37178454 398.05521876 33.98620475 391.07404137 34.03301144 C389.93199745 34.03271938 388.78995354 34.03242733 387.61330223 34.03212643 C383.84737043 34.03351712 380.08163773 34.0490664 376.31574059 34.06474972 C373.70114818 34.06848076 371.08655437 34.0713273 368.47196007 34.07332516 C362.29912263 34.0795311 356.12635637 34.09592986 349.95355022 34.11602414 C342.23314819 34.14060854 334.51273451 34.15152786 326.79230309 34.16240597 C313.02662269 34.181862 299.26109754 34.22193017 285.49542809 34.26006222 C285.49542809 66.93006222 285.49542809 99.60006222 285.49542809 133.26006222 C230.71542809 133.26006222 175.93542809 133.26006222 119.49542809 133.26006222 C119.49542809 100.59006222 119.49542809 67.92006222 119.49542809 34.26006222 C97.86024995 34.16992691 97.86024995 34.16992691 76.2250452 34.10930061 C68.48707299 34.09268186 60.74919787 34.07158913 53.01129723 34.03374386 C46.22914293 34.00058892 39.44709383 33.98320708 32.66486359 33.97543049 C30.07771272 33.9698887 27.49056757 33.95906702 24.90346146 33.94287205 C21.27896138 33.92108607 17.65489524 33.91809587 14.03034019 33.91948605 C12.96147072 33.90870022 11.89260124 33.89791439 10.79134178 33.88680172 C4.29977258 33.91373237 -1.0826334 34.32361613 -6.21160316 38.72490597 Z M153.49542809 34.26006222 C153.49542809 55.38006222 153.49542809 76.50006222 153.49542809 98.26006222 C185.83542809 98.26006222 218.17542809 98.26006222 251.49542809 98.26006222 C251.49542809 77.14006222 251.49542809 56.02006222 251.49542809 34.26006222 C219.15542809 34.26006222 186.81542809 34.26006222 153.49542809 34.26006222 Z M-366.56707191 172.13506222 C-367.51477455 172.39408321 -368.46247719 172.65310421 -369.43889809 172.91997433 C-380.60620514 176.02967646 -391.28343369 179.72842845 -401.50457191 185.26006222 C-402.3746891 185.72283566 -403.24480629 186.18560909 -404.14129066 186.66240597 C-406.94387072 188.16964232 -409.72658192 189.70798684 -412.50457191 191.26006222 C-413.61445473 191.87623409 -414.72433754 192.49240597 -415.86785316 193.12724972 C-416.96484535 193.74857784 -418.06183754 194.36990597 -419.19207191 195.01006222 C-420.2065641 195.58240597 -421.22105629 196.15474972 -422.26629066 196.74443722 C-423.37423988 197.49467159 -423.37423988 197.49467159 -424.50457191 198.26006222 C-424.50457191 198.92006222 -424.50457191 199.58006222 -424.50457191 200.26006222 C-425.20582191 200.50756222 -425.90707191 200.75506222 -426.62957191 201.01006222 C-432.27105331 203.46288022 -436.2145265 206.94489208 -440.50457191 211.26006222 C-442.39384902 212.97564341 -444.29003396 214.68363975 -446.19207191 216.38506222 C-451.9917351 221.64338724 -457.61710031 227.12909674 -462.50457191 233.26006222 C-462.50457191 233.92006222 -462.50457191 234.58006222 -462.50457191 235.26006222 C-463.16457191 235.26006222 -463.82457191 235.26006222 -464.50457191 235.26006222 C-465.79069729 236.65765764 -465.79069729 236.65765764 -467.04363441 238.52178097 C-467.53782875 239.22214474 -468.03202309 239.92250851 -468.54119301 240.64409542 C-469.06535805 241.40423946 -469.58952309 242.16438351 -470.12957191 242.94756222 C-470.937089 244.10808102 -470.937089 244.10808102 -471.76091957 245.29204464 C-488.09605983 268.94554247 -501.20232164 296.35893268 -504.50457191 325.26006222 C-504.59472572 326.03551388 -504.68487953 326.81096554 -504.77776527 327.60991573 C-505.55736049 335.17595844 -505.69074384 342.7124845 -505.68987465 350.31011105 C-505.69205088 352.42709963 -505.71025189 354.54355646 -505.72918129 356.66045284 C-505.76837443 366.34874443 -504.91716084 375.67292719 -503.50457191 385.26006222 C-503.36970375 386.22307247 -503.23483559 387.18608273 -503.09588051 388.17827511 C-499.32473402 413.94238102 -487.53205995 439.22157897 -472.50457191 460.26006222 C-471.77754066 461.30678097 -471.05050941 462.35349972 -470.30144691 463.43193722 C-467.51081616 467.42886395 -467.51081616 467.42886395 -464.50457191 471.26006222 C-463.84457191 471.26006222 -463.18457191 471.26006222 -462.50457191 471.26006222 C-462.28929848 471.78986691 -462.07402504 472.31967159 -461.85222816 472.86553097 C-459.99262295 476.16969907 -457.5102173 478.81390395 -454.94207191 481.57256222 C-454.40703041 482.15070675 -453.87198891 482.72885128 -453.32073402 483.32451534 C-449.66918053 487.19887734 -445.89311101 490.61077053 -441.53972816 493.69756222 C-439.50457191 495.26006222 -439.50457191 495.26006222 -437.12957191 497.67412472 C-432.00932207 502.71818037 -416.08384096 516.26006222 -408.50457191 516.26006222 C-404.58133632 488.10721499 -404.58133632 488.10721499 -413.19207191 462.62334347 C-417.53658871 457.83278674 -422.70920421 454.04701933 -427.95598793 450.29790401 C-433.70411297 445.70171667 -436.85866707 439.58658487 -438.81707191 432.57256222 C-439.12257973 431.51682003 -439.42808754 430.46107784 -439.74285316 429.37334347 C-443.14182673 415.48112845 -442.31785411 400.99508907 -435.46160316 388.28349972 C-429.57749018 379.19307367 -422.27340567 372.10094597 -412.50457191 367.26006222 C-411.17108627 366.59370026 -409.8377305 365.92707827 -408.50457191 365.26006222 C-408.50046303 364.36923946 -408.49635414 363.47841671 -408.49212074 362.56059933 C-408.46475453 359.17704078 -408.41527733 355.79517036 -408.35198402 352.41216183 C-408.32913437 350.96272689 -408.31448798 349.51313372 -408.30901527 348.06352901 C-408.24558973 334.00745311 -405.57530561 322.04653077 -397.64129066 310.11553097 C-396.33044069 308.33849092 -396.33044069 308.33849092 -396.50457191 306.26006222 C-395.84457191 306.26006222 -395.18457191 306.26006222 -394.50457191 306.26006222 C-392.10636886 303.62321475 -392.10636886 303.62321475 -391.50457191 300.26006222 C-390.51457191 299.93006222 -389.52457191 299.60006222 -388.50457191 299.26006222 C-388.50457191 298.60006222 -388.50457191 297.94006222 -388.50457191 297.26006222 C-386.50457191 296.26006222 -384.50457191 295.26006222 -382.50457191 294.26006222 C-382.50457191 293.60006222 -382.50457191 292.94006222 -382.50457191 292.26006222 C-381.79429848 291.99064816 -381.08402504 291.72123409 -380.35222816 291.44365597 C-376.46466966 289.82783947 -372.82429649 287.80099468 -369.12566566 285.79521847 C-359.80593171 281.84413385 -350.72969378 280.82221744 -340.69036293 280.89116573 C-339.47078896 280.88739925 -338.25121498 280.88363277 -336.99468422 280.87975216 C-334.36731688 280.87335526 -331.74057861 280.87215361 -329.11327744 280.87993717 C-324.94583423 280.89165073 -320.77866288 280.87925003 -316.61124611 280.86331844 C-306.26422142 280.82734476 -295.91720535 280.82088779 -285.57012367 280.82341671 C-277.51560716 280.82513471 -269.46131728 280.81782427 -261.40686363 280.78343815 C-257.94850661 280.76949915 -254.49053045 280.76341384 -251.03216171 280.77648258 C-247.17057232 280.78834088 -243.30972831 280.77580241 -239.44817543 280.75835323 C-237.76524643 280.77296848 -237.76524643 280.77296848 -236.04831886 280.78787899 C-219.93346259 280.64352063 -206.40385404 274.32677931 -194.69597816 263.50615597 C-190.31181431 259.49826606 -190.31181431 259.49826606 -188.50457191 254.26006222 C-187.84457191 254.26006222 -187.18457191 254.26006222 -186.50457191 254.26006222 C-185.5330914 252.45457485 -184.5781068 250.64020921 -183.62957191 248.82256222 C-183.09590004 247.81322628 -182.56222816 246.80389034 -182.01238441 245.76396847 C-178.85178655 238.41926306 -178.13948895 231.25954123 -178.19207191 223.32256222 C-178.19698647 222.44156857 -178.20190102 221.56057491 -178.20696449 220.65288448 C-178.31974825 214.41044798 -178.95170844 209.01397716 -181.50457191 203.26006222 C-181.93769691 202.25846066 -182.37082191 201.25685909 -182.81707191 200.22490597 C-184.00768335 197.54941266 -185.2353022 194.89893918 -186.50457191 192.26006222 C-187.16457191 192.26006222 -187.82457191 192.26006222 -188.50457191 192.26006222 C-188.76496254 191.68385128 -189.02535316 191.10764034 -189.29363441 190.51396847 C-190.59177 188.09776127 -192.06649622 186.25211743 -193.87957191 184.19756222 C-194.46480629 183.52596066 -195.05004066 182.85435909 -195.65300941 182.16240597 C-197.49476221 180.27014097 -199.30185736 178.71494159 -201.50457191 177.26006222 C-202.16457191 177.26006222 -202.82457191 177.26006222 -203.50457191 177.26006222 C-203.50457191 176.60006222 -203.50457191 175.94006222 -203.50457191 175.26006222 C-205.22312544 174.30324593 -206.95534051 173.37097309 -208.69207191 172.44756222 C-209.6550016 171.92549191 -210.61793129 171.40342159 -211.61004066 170.86553097 C-224.34774043 165.1757087 -237.85959789 165.81772193 -251.49675941 165.86162472 C-253.73236625 165.85959822 -255.96797244 165.85668203 -258.20357704 165.85292721 C-262.87851726 165.84852181 -267.55328473 165.85487115 -272.22820473 165.86894894 C-278.152449 165.88593979 -284.07628233 165.87625232 -290.00051117 165.85823154 C-294.6183206 165.84725972 -299.23603677 165.85090223 -303.85384941 165.85861492 C-306.03421645 165.86058539 -308.21459258 165.85827173 -310.39494896 165.85117626 C-329.30358345 165.80317773 -348.28576825 166.93289601 -366.56707191 172.13506222 Z M-365.52410316 325.37334347 C-371.68343944 332.88125021 -374.64181736 340.85218388 -374.61809731 350.60112667 C-374.61798401 352.16217884 -374.61798401 352.16217884 -374.61786842 353.75476742 C-374.61270714 354.86639751 -374.60754585 355.97802761 -374.60222816 357.12334347 C-374.60010574 358.84402287 -374.60010574 358.84402287 -374.59794044 360.59946346 C-374.59235052 364.25718976 -374.57979981 367.91485447 -374.56707191 371.57256222 C-374.56205562 374.05498321 -374.55749293 376.53740516 -374.55340004 379.01982784 C-374.54238438 385.09992692 -374.52565622 391.17999017 -374.50457191 397.26006222 C-375.06853676 397.23387814 -375.6325016 397.20769405 -376.21355629 397.18071651 C-378.81026916 397.07571021 -381.40653411 397.01141848 -384.00457191 396.94756222 C-384.89144691 396.90566769 -385.77832191 396.86377316 -386.69207191 396.82060909 C-393.27442376 396.69960998 -397.39391105 398.08691892 -402.50457191 402.26006222 C-407.19982285 406.95531316 -406.97577081 411.73594635 -407.03582191 418.04131222 C-406.18832463 423.17614869 -403.80274073 426.32225851 -399.60666847 429.3535223 C-398.51038628 430.02562237 -397.41410408 430.69772243 -396.28460121 431.39018917 C-386.71638767 437.97711703 -377.70982677 445.92341056 -374.63934517 457.53092861 C-371.33057422 476.16714923 -372.50413727 495.71649792 -373.1144675 514.54984391 C-373.35925071 522.27366285 -373.44440928 529.9970098 -373.51907694 537.72404802 C-373.6756788 553.57497924 -374.02369802 569.41544124 -374.50457191 585.26006222 C-372.85457191 585.92006222 -371.20457191 586.58006222 -369.50457191 587.26006222 C-369.50457191 587.92006222 -369.50457191 588.58006222 -369.50457191 589.26006222 C-368.51457191 589.79631222 -367.52457191 590.33256222 -366.50457191 590.88506222 C-362.81026163 592.9767491 -359.52497993 595.45211558 -356.20379066 598.08818722 C-354.57418943 599.44930654 -354.57418943 599.44930654 -352.50457191 599.26006222 C-352.50457191 599.92006222 -352.50457191 600.58006222 -352.50457191 601.26006222 C-350.12145744 603.1441743 -347.72234443 604.93046727 -345.25457191 606.69756222 C-338.42676528 611.70105367 -332.16947041 616.96142209 -326.03582191 622.80547237 C-323.15266401 625.54428851 -320.2332423 628.2440084 -317.31707191 630.94756222 C-316.75157631 631.47736691 -316.1860807 632.00717159 -315.60344887 632.55303097 C-313.38232789 635.10691274 -313.38232789 635.10691274 -310.50457191 636.26006222 C-310.50457191 611.84006222 -310.50457191 587.42006222 -310.50457191 562.26006222 C-321.06457191 562.26006222 -331.62457191 562.26006222 -342.50457191 562.26006222 C-342.50457191 551.04006222 -342.50457191 539.82006222 -342.50457191 528.26006222 C-338.09597816 528.29486691 -333.68738441 528.32967159 -329.14519691 528.36553097 C-325.59867543 528.38486514 -322.05216913 528.40111888 -318.50562477 528.41531277 C-314.7790895 528.43106188 -311.05276367 528.45205712 -307.32634926 528.48638058 C-303.72773391 528.51931415 -300.12931985 528.53698564 -296.53056526 528.54469395 C-294.51013479 528.55282006 -292.4897837 528.57618315 -290.4694767 528.59995174 C-279.84666551 528.6018615 -269.78523408 527.59098057 -260.94207191 521.32256222 C-259.97140785 520.65353878 -259.00074379 519.98451534 -258.00066566 519.29521847 C-255.69352562 517.41412306 -254.06763265 515.78095815 -252.50457191 513.26006222 C-252.50457191 512.60006222 -252.50457191 511.94006222 -252.50457191 511.26006222 C-251.84457191 511.26006222 -251.18457191 511.26006222 -250.50457191 511.26006222 C-245.36315052 501.22218781 -243.64803136 493.25724402 -243.91863441 481.89287472 C-243.92986452 480.47800682 -243.93838659 479.06311514 -243.94436073 477.64821529 C-243.96696098 473.97505163 -244.02562018 470.30337655 -244.09258461 466.63078976 C-244.15464225 462.86288737 -244.18150918 459.09473768 -244.21160316 455.32646847 C-244.27540426 447.9703307 -244.37741592 440.61540722 -244.50457191 433.26006222 C-243.61003304 433.12580334 -242.71549416 432.99154446 -241.79384804 432.85321712 C-239.00067736 432.34952487 -236.54274247 431.70841221 -233.87615395 430.7695837 C-232.58549522 430.31923008 -232.58549522 430.31923008 -231.26876259 429.8597784 C-230.35915779 429.536833 -229.44955299 429.2138876 -228.51238441 428.88115597 C-227.56644417 428.54963024 -226.62050392 428.21810452 -225.64589882 427.87653255 C-222.63882338 426.82145734 -219.6341896 425.75961378 -216.62957191 424.69756222 C-214.58545872 423.97901467 -212.54118952 423.26091072 -210.49675941 422.54326534 C-205.49754514 420.78733228 -200.50031576 419.02584302 -195.50457191 417.26006222 C-197.67265639 406.95070197 -199.98169255 396.85315992 -203.44207191 386.88506222 C-203.79269691 385.85759884 -204.14332191 384.83013546 -204.50457191 383.77153683 C-206.90492005 376.81019509 -209.42450404 369.95311293 -212.50457191 363.26006222 C-212.78768227 362.64179562 -213.07079262 362.02352901 -213.36248207 361.38652706 C-215.3515745 357.05708353 -217.38662744 352.75142991 -219.45183754 348.45781612 C-220.49684451 346.27619442 -221.52420726 344.08681254 -222.55144691 341.89678097 C-227.99173867 330.45336331 -233.51681477 321.61471726 -245.50457191 316.26006222 C-250.6122677 315.14774712 -255.58099742 315.11204049 -260.77947426 315.11479855 C-262.15139679 315.10976063 -262.15139679 315.10976063 -263.55103493 315.10462093 C-266.56420704 315.09514878 -269.57732336 315.09316975 -272.59050941 315.09209347 C-274.69269267 315.08887847 -276.7948757 315.08551421 -278.89705849 315.08200741 C-283.30008907 315.07602561 -287.70310005 315.07416655 -292.10613441 315.07475948 C-297.73714434 315.07486109 -303.36802814 315.06120594 -308.99900818 315.04398727 C-313.3399761 315.03284805 -317.6809137 315.03084086 -322.02189445 315.03136921 C-324.09743751 315.03019211 -326.17298143 315.02578554 -328.24851036 315.01803684 C-331.15605604 315.00819749 -334.0633301 315.01113051 -336.97088051 315.0171423 C-338.24607803 315.00871304 -338.24607803 315.00871304 -339.54703712 315.00011349 C-349.9087112 315.05432765 -358.2294053 317.74001359 -365.52410316 325.37334347 Z M-42.16494179 470.90250301 C-44.14575753 474.38845805 -43.89778988 477.80020687 -43.84514809 481.70049191 C-43.84558617 482.54963665 -43.84602425 483.39878139 -43.8464756 484.2736578 C-43.84438779 487.07665257 -43.82105716 489.8790471 -43.79754066 492.68193722 C-43.79194468 494.62677846 -43.78767459 496.57162393 -43.78467751 498.51647091 C-43.77322893 503.63263808 -43.74376153 508.74854932 -43.71056557 513.86461544 C-43.67986503 519.08623957 -43.6661722 524.30790508 -43.65105629 529.52959347 C-43.61889193 539.77319543 -43.56769532 550.01660753 -43.50457191 560.26006222 C-42.90510467 560.26152878 -42.30563742 560.26299534 -41.68800449 560.26450634 C-27.03678392 560.30171336 -12.3857631 560.36091021 2.26526546 560.44396496 C9.35069739 560.4836124 16.43602056 560.51607686 23.52155113 560.53105831 C29.70421924 560.54414963 35.88664658 560.57130209 42.069179 560.61467528 C45.33659628 560.63712421 48.60365852 560.6508837 51.87116241 560.65194607 C84.00129243 560.67288498 84.00129243 560.67288498 97.49542809 569.26006222 C98.48542809 569.26006222 99.47542809 569.26006222 100.49542809 569.26006222 C100.82542809 570.25006222 101.15542809 571.24006222 101.49542809 572.26006222 C103.32390766 574.07507476 103.32390766 574.07507476 105.49542809 575.82256222 C109.39619144 579.06158894 109.39619144 579.06158894 110.49542809 581.26006222 C111.15542809 581.26006222 111.81542809 581.26006222 112.49542809 581.26006222 C113.86647188 584.66318879 115.20936448 588.07386101 116.49542809 591.51006222 C116.82542809 592.38146847 117.15542809 593.25287472 117.49542809 594.15068722 C119.76259128 601.20014778 120.79383066 607.87486349 120.81427574 615.26811886 C120.82934418 616.54293118 120.82934418 616.54293118 120.84471703 617.84349728 C120.87531151 620.61906487 120.89251742 623.3945371 120.90949059 626.17021847 C120.92822138 628.10792504 120.94779619 630.04562363 120.96817589 631.98331356 C121.01930123 637.0581403 121.05903136 642.13299343 121.0963192 647.20793819 C121.13648228 652.39660216 121.18751825 657.58515822 121.23761559 662.77373409 C121.33414257 672.93576745 121.41862106 683.09786201 121.49542809 693.26006222 C128.46958452 693.36184271 135.44354798 693.43168718 142.41827965 693.47978878 C144.78879517 693.49985047 147.15926154 693.52710648 149.52960777 693.56182003 C152.9454216 693.6105764 156.36057863 693.63308621 159.77667809 693.65068722 C161.35527611 693.68165493 161.35527611 693.68165493 162.965765 693.71324825 C169.34098749 693.71517353 174.19590965 692.97087889 179.49542809 689.26006222 C184.86010252 683.75421214 185.7931006 678.52411576 185.76285362 671.04392147 C185.76965029 669.80866371 185.76965029 669.80866371 185.77658427 668.54845124 C185.78923703 665.79105021 185.78760733 663.03384648 185.78595543 660.27641964 C185.79194015 658.29853721 185.79874556 656.32065713 185.80631065 654.34278011 C185.82398403 648.97079706 185.82866661 643.59887771 185.82994223 638.22686839 C185.83184162 633.74134724 185.83919966 629.25584092 185.84628642 624.77032548 C185.86257321 614.18641172 185.86745512 603.60253199 185.86603355 593.01860714 C185.86483216 582.10374399 185.88593295 571.18907858 185.91752088 560.27426547 C185.94368043 550.90085934 185.95440098 541.5275178 185.95312274 532.15407544 C185.95261299 526.55686386 185.95830315 520.95982798 185.97947884 515.36265278 C185.99885557 510.09717422 185.99898939 504.83203908 185.98444557 499.56654835 C185.98235566 497.63644312 185.98706922 495.70631643 185.99916649 493.77624798 C186.01463936 491.13614796 186.00529767 488.4972291 185.9899044 485.85715389 C186.00019153 485.09789567 186.01047866 484.33863744 186.02107751 483.55637139 C185.94249217 477.43458668 184.18981655 472.18440327 179.98445928 467.62013978 C174.87777083 463.00665777 168.7258163 463.62161527 162.21808434 463.77178097 C160.66583153 463.77933407 160.66583153 463.77933407 159.08222008 463.78703976 C155.24050498 463.8130724 151.39918682 463.88287914 147.55792809 463.94756222 C138.95730309 464.05068722 130.35667809 464.15381222 121.49542809 464.26006222 C121.16542809 485.71006222 120.83542809 507.16006222 120.49542809 529.26006222 C70.99542809 529.75506222 70.99542809 529.75506222 20.49542809 530.26006222 C20.49542809 508.48006222 20.49542809 486.70006222 20.49542809 464.26006222 C11.72980309 464.15693722 2.96417809 464.05381222 -6.06707191 463.94756222 C-10.2002494 463.87928219 -10.2002494 463.87928219 -14.41692543 463.80962276 C-16.61409731 463.79501233 -18.81128276 463.78227298 -21.00847816 463.77178097 C-22.70369606 463.73341122 -22.70369606 463.73341122 -24.43316078 463.69426632 C-32.6815911 463.68971672 -36.27798661 465.07911661 -42.16494179 470.90250301 Z M54.49542809 464.26006222 C54.49542809 474.16006222 54.49542809 484.06006222 54.49542809 494.26006222 C65.05542809 494.26006222 75.61542809 494.26006222 86.49542809 494.26006222 C86.49542809 484.36006222 86.49542809 474.46006222 86.49542809 464.26006222 C75.93542809 464.26006222 65.37542809 464.26006222 54.49542809 464.26006222 Z M222.49542809 470.26006222 C219.97675617 476.00363399 219.05917661 480.57504508 219.11447716 486.80573177 C219.10979719 487.62842224 219.10511721 488.4511127 219.10029542 489.29873317 C219.08839876 492.03544074 219.0977816 494.77164259 219.10724449 497.50835323 C219.10317645 499.47844896 219.09783327 501.44854241 219.09131432 503.41863155 C219.0776635 508.75529163 219.08292995 514.09177729 219.09245157 519.42844033 C219.10005864 525.01855415 219.09299974 530.60865325 219.08829308 536.19876766 C219.08283904 545.58437939 219.09001841 554.96992024 219.1043148 564.3555212 C219.12064536 575.2017095 219.1153484 586.04772864 219.09883559 596.89391285 C219.0852164 606.2130171 219.08330305 615.53207046 219.0911516 624.85118145 C219.0958251 630.41418031 219.09646167 635.97709969 219.08654213 641.54009342 C219.07786833 646.76946453 219.08390207 651.99861775 219.1012249 657.22796535 C219.10518731 659.14558393 219.10405991 661.06322087 219.0974369 662.9808321 C219.08922175 665.60126001 219.09954248 668.22099253 219.11447716 670.8413763 C219.10778499 671.59761006 219.10109283 672.35384382 219.09419787 673.13299376 C219.15644041 678.77519564 220.23458144 683.56063604 223.92511559 687.96709347 C229.85232562 692.50060817 234.3777302 693.55734311 241.7495327 693.53421688 C242.57712143 693.53945356 243.40471015 693.54469024 244.25737733 693.5500856 C247.02858972 693.5650791 249.79961737 693.56579061 252.57086754 693.5664587 C254.55860264 693.57408061 256.54633479 693.58250816 258.53406334 693.59168148 C263.93289825 693.61362997 269.33167652 693.62242585 274.730551 693.62750793 C278.10412534 693.63115102 281.47768483 693.63739083 284.85125351 693.64450932 C296.62221872 693.66900484 308.39313986 693.68205598 320.16412926 693.68559933 C331.13356314 693.68923487 342.10271728 693.71913147 353.07206565 693.76100391 C362.49218082 693.79570108 371.91220326 693.81114767 381.3323819 693.81184536 C386.95758548 693.81263835 392.58250409 693.82138755 398.2076416 693.84984303 C403.49943667 693.87601366 408.79071028 693.87823424 414.08254051 693.86218739 C416.02232754 693.86037213 417.96214449 693.86707054 419.90186691 693.8830061 C422.5553174 693.90347242 425.20694434 693.89291233 427.86037254 693.87479305 C428.62352172 693.88799302 429.38667089 693.90119299 430.1729458 693.91479295 C436.81003911 693.8116503 441.18681919 691.07218629 446.16091615 686.84449476 C449.40716822 682.99030112 448.64372069 677.78188258 448.64259911 673.00559139 C448.64627579 672.16590087 448.64995248 671.32621034 448.65374058 670.46107465 C448.66476746 667.64300638 448.66861955 664.824975 448.67243004 662.00688839 C448.67869534 659.98812398 448.6853422 657.96936071 448.69234276 655.95059872 C448.71337394 649.31808429 448.72374282 642.68556965 448.73370934 636.05303097 C448.73775695 633.76989702 448.74187387 631.48676319 448.74605942 629.20362949 C448.76510734 618.47952693 448.77934041 607.75543125 448.78767139 597.03131503 C448.79744912 584.64926351 448.82378441 572.2673905 448.86417228 559.8854019 C448.8943164 550.31586275 448.90913857 540.74637482 448.9124524 531.1767891 C448.91480441 525.46053606 448.92378506 519.74447382 448.94891357 514.02827168 C448.97216998 508.65120121 448.97643722 503.27444752 448.96615219 497.89733982 C448.96565617 495.92488331 448.97199621 493.95241132 448.98570824 491.9800024 C449.00339562 489.28478292 448.99633669 486.59070425 448.98317528 483.89548397 C448.99414452 483.11706699 449.00511377 482.33865001 449.01641542 481.53664464 C448.93883009 474.94483808 446.70882752 470.97469679 442.52789879 465.84697628 C437.55346024 463.24381627 432.49806189 463.77218432 426.97589684 463.86943722 C425.89973106 463.87346554 424.82356529 463.87749386 423.71478844 463.88164425 C419.70399429 463.90253454 415.69344364 463.95838002 411.68292809 464.01006222 C402.71105309 464.09256222 393.73917809 464.17506222 384.49542809 464.26006222 C384.49542809 486.04006222 384.49542809 507.82006222 384.49542809 530.26006222 C351.16542809 530.26006222 317.83542809 530.26006222 283.49542809 530.26006222 C283.49542809 508.48006222 283.49542809 486.70006222 283.49542809 464.26006222 C274.91542809 464.13631222 266.33542809 464.01256222 257.49542809 463.88506222 C254.80128746 463.83043819 252.10714684 463.77581417 249.33136559 463.71953487 C247.17773795 463.70199873 245.02409033 463.68671236 242.87042809 463.67412472 C241.76699059 463.64342892 240.66355309 463.61273312 239.52667809 463.58110714 C232.51719738 463.57637952 226.99333462 464.46070972 222.49542809 470.26006222 Z M319.49542809 464.26006222 C319.49542809 474.16006222 319.49542809 484.06006222 319.49542809 494.26006222 C329.39542809 494.26006222 339.29542809 494.26006222 349.49542809 494.26006222 C349.49542809 484.36006222 349.49542809 474.46006222 349.49542809 464.26006222 C339.59542809 464.26006222 329.69542809 464.26006222 319.49542809 464.26006222 Z M-77.50457191 596.26006222 C-77.50457191 606.49006222 -77.50457191 616.72006222 -77.50457191 627.26006222 C-57.9547754 627.37300455 -38.40524373 627.46507838 -18.85520363 627.51912308 C-9.77743269 627.54488586 -0.69987911 627.57999943 8.3777523 627.63725948 C16.29141767 627.68715358 24.2049256 627.71936724 32.1187439 627.73050469 C36.30769533 627.73701334 40.49619643 627.75226984 44.68500328 627.7887125 C48.63148537 627.82276726 52.5773336 627.83309632 56.52394867 627.82560062 C57.9686999 627.82697097 59.41347334 627.83684753 60.85809708 627.85608959 C68.95184199 627.95856645 75.27532403 627.87279977 81.49542809 622.26006222 C85.05287678 618.35834429 85.86592083 614.66486739 85.76886559 609.38506222 C85.11123794 604.27435596 82.82072452 601.28741958 78.81975365 598.1859045 C72.97183739 594.9432306 66.23862399 595.73743975 59.74762535 595.80596066 C58.24907525 595.80709005 56.75052293 595.80645348 55.25197411 595.80419064 C51.19860326 595.80304613 47.14570889 595.82651226 43.09244847 595.85448647 C38.85106228 595.87954438 34.60966436 595.88184557 30.36821556 595.8865881 C22.3430855 595.89900501 14.31817421 595.93180913 6.29314035 595.97198606 C-2.84587399 596.01674384 -11.98489895 596.03870087 -21.12399566 596.0587678 C-39.91767019 596.10054303 -58.71104494 596.17387923 -77.50457191 596.26006222 Z M-399.31707191 615.94756222 C-403.01465068 617.64326713 -406.73819997 619.076026 -410.56707191 620.44756222 C-418.07931924 623.28788188 -424.90929093 627.17411918 -431.80144691 631.25713253 C-433.34439212 632.16573616 -434.90786355 633.03925836 -436.47332191 633.90849972 C-437.14363441 634.35451534 -437.81394691 634.80053097 -438.50457191 635.26006222 C-438.50457191 635.92006222 -438.50457191 636.58006222 -438.50457191 637.26006222 C-439.49457191 637.26006222 -440.48457191 637.26006222 -441.50457191 637.26006222 C-441.50457191 637.92006222 -441.50457191 638.58006222 -441.50457191 639.26006222 C-442.17617348 639.45084347 -442.84777504 639.64162472 -443.53972816 639.83818722 C-447.71790526 641.84195067 -450.62922379 644.81281697 -453.94207191 648.01006222 C-454.58466957 648.61849972 -455.22726723 649.22693722 -455.88933754 649.85381222 C-457.77309221 651.64385726 -459.64003844 653.45002972 -461.50457191 655.26006222 C-462.10156898 655.82789425 -462.69856606 656.39572628 -463.31365395 656.98076534 C-464.74945737 658.3681046 -466.13256817 659.80959767 -467.50457191 661.26006222 C-467.50457191 661.92006222 -467.50457191 662.58006222 -467.50457191 663.26006222 C-468.49457191 663.59006222 -469.48457191 663.92006222 -470.50457191 664.26006222 C-471.82539254 665.71345924 -471.82539254 665.71345924 -472.99285316 667.54131222 C-473.44893959 668.21388058 -473.90502602 668.88644894 -474.37493324 669.57939816 C-474.850839 670.2990173 -475.32674477 671.01863644 -475.81707191 671.76006222 C-476.30909096 672.49257198 -476.80111 673.22508175 -477.30803871 673.97978878 C-478.28026903 675.42857739 -479.24951349 676.87937495 -480.21550941 678.33232784 C-481.24188821 679.86723068 -482.29125638 681.38675438 -483.34832191 682.90068722 C-504.34819725 713.06008264 -510.20972876 754.22045148 -504.19207191 789.90849972 C-503.96519691 791.01451534 -503.73832191 792.12053097 -503.50457191 793.26006222 C-503.37566566 793.9165173 -503.24675941 794.57297237 -503.11394691 795.24932003 C-499.96781422 811.00183166 -494.67832632 825.39531116 -486.50457191 839.26006222 C-485.93150307 840.23556026 -485.93150307 840.23556026 -485.34685707 841.23076534 C-480.81972067 848.87851425 -476.27982446 856.11333364 -470.09832191 862.56084347 C-468.50457191 864.26006222 -468.50457191 864.26006222 -466.50457191 867.26006222 C-465.84457191 867.26006222 -465.18457191 867.26006222 -464.50457191 867.26006222 C-464.27769691 867.81693722 -464.05082191 868.37381222 -463.81707191 868.94756222 C-462.12907155 871.92165809 -460.03780675 873.98015087 -457.50457191 876.26006222 C-456.84457191 876.26006222 -456.18457191 876.26006222 -455.50457191 876.26006222 C-455.50457191 876.92006222 -455.50457191 877.58006222 -455.50457191 878.26006222 C-453.91463077 879.71924185 -452.25469619 881.10255576 -450.56707191 882.44756222 C-449.07433754 883.64252316 -449.07433754 883.64252316 -447.55144691 884.86162472 C-443.5492248 888.01209187 -439.54439068 891.1578804 -435.50457191 894.26006222 C-428.89384205 888.82647402 -422.91242996 882.79560179 -416.88347816 876.73662472 C-415.77269022 875.62396837 -414.66167882 874.51153506 -413.55045509 873.39931393 C-410.64668257 870.49174952 -407.74592756 867.58119317 -404.84581947 864.66997433 C-401.87778929 861.69165793 -398.90687529 858.71622115 -395.93621254 855.74053097 C-390.12286108 849.91650099 -384.31269857 844.08930272 -378.50457191 838.26006222 C-379.13411084 836.03259171 -379.76549081 833.80564148 -380.39763832 831.57890987 C-380.74903877 830.33872097 -381.10043922 829.09853207 -381.46248817 827.82076168 C-382.76873892 823.35742908 -384.25293032 818.99027918 -385.87957191 814.63506222 C-386.32792397 813.42886227 -386.32792397 813.42886227 -386.78533363 812.19829464 C-390.37856133 802.71495071 -394.72098258 793.61413569 -400.50457191 785.26006222 C-401.16457191 785.26006222 -401.82457191 785.26006222 -402.50457191 785.26006222 C-402.75722816 784.70447628 -403.00988441 784.14889034 -403.27019691 783.57646847 C-413.35436359 764.6527 -436.93727944 751.1742836 -456.56707191 744.70537472 C-458.82296218 744.11072995 -458.82296218 744.11072995 -462.50457191 744.26006222 C-462.1784391 743.02771847 -461.85230629 741.79537472 -461.51629066 740.52568722 C-458.57601489 729.40021271 -458.57601489 729.40021271 -455.69207191 718.26006222 C-455.4587516 717.35256222 -455.22543129 716.44506222 -454.98504066 715.51006222 C-454.40015525 713.15454129 -454.40015525 713.15454129 -454.50457191 710.26006222 C-423.09319041 718.14496002 -392.0035676 735.8419079 -373.50457191 763.26006222 C-373.17457191 764.25006222 -372.84457191 765.24006222 -372.50457191 766.26006222 C-371.84457191 766.59006222 -371.18457191 766.92006222 -370.50457191 767.26006222 C-368.5938352 770.11135538 -367.10123477 773.22518397 -365.50457191 776.26006222 C-364.63638832 777.812738 -364.63638832 777.812738 -363.75066566 779.39678097 C-356.56997621 792.62543661 -352.18566287 807.00874085 -347.50457191 821.26006222 C-339.62968224 819.34777435 -331.83594684 817.25118443 -324.06707191 814.94756222 C-321.95393595 814.32597434 -319.84065195 813.70488954 -317.72722816 813.08428097 C-316.68067055 812.77667843 -315.63411293 812.46907589 -314.55584145 812.15215206 C-310.04483747 810.83328436 -305.52523367 809.54535691 -301.00457191 808.26006222 C-293.23027507 806.04289803 -285.45827527 803.81792541 -277.69207191 801.57256222 C-276.6956266 801.28703487 -275.69918129 801.00150753 -274.67254066 800.70732784 C-269.17778944 799.11340205 -263.832231 797.3469914 -258.50457191 795.26006222 C-259.08646574 790.22991334 -260.16516128 785.65899128 -261.87957191 780.88506222 C-262.25952309 779.81832272 -262.25952309 779.81832272 -262.64715004 778.73003292 C-269.44510546 760.18607003 -277.84182342 741.93290291 -287.81707191 724.88506222 C-288.28492104 724.08286251 -288.75277016 723.2806628 -289.23479652 722.45415401 C-292.27171696 717.28084619 -295.36470205 712.14524319 -298.56707191 707.07256222 C-298.93679115 706.47846554 -299.30651039 705.88436886 -299.68743324 705.27226925 C-300.57102947 703.89760182 -301.53060026 702.5722482 -302.50457191 701.26006222 C-303.16457191 701.26006222 -303.82457191 701.26006222 -304.50457191 701.26006222 C-304.50457191 700.27006222 -304.50457191 699.28006222 -304.50457191 698.26006222 C-305.16457191 698.26006222 -305.82457191 698.26006222 -306.50457191 698.26006222 C-306.77269691 697.51756222 -307.04082191 696.77506222 -307.31707191 696.01006222 C-308.45733942 693.36944273 -309.59837497 691.40453378 -311.50457191 689.26006222 C-312.16457191 689.26006222 -312.82457191 689.26006222 -313.50457191 689.26006222 C-313.76367348 688.69287472 -314.02277504 688.12568722 -314.28972816 687.54131222 C-315.62109697 685.0412499 -317.17851587 682.9749369 -318.94207191 680.76006222 C-320.71390866 678.52517527 -322.46588082 676.31530818 -324.10222816 673.97881222 C-324.79638832 673.12803097 -324.79638832 673.12803097 -325.50457191 672.26006222 C-326.16457191 672.26006222 -326.82457191 672.26006222 -327.50457191 672.26006222 C-327.75207191 671.70318722 -327.99957191 671.14631222 -328.25457191 670.57256222 C-331.01286438 665.46972115 -334.85016693 662.00919953 -339.20769691 658.30693722 C-342.7865613 655.11760909 -346.07953635 651.65355891 -349.40300941 648.20146847 C-351.272577 646.03387436 -351.272577 646.03387436 -353.50457191 646.26006222 C-353.83457191 645.27006222 -354.16457191 644.28006222 -354.50457191 643.26006222 C-356.63592977 641.42147329 -358.76379493 639.70454125 -361.00457191 638.01006222 C-361.63589027 637.52497189 -362.26720863 637.03988155 -362.91765785 636.54009151 C-364.18633553 635.56529289 -365.45682466 634.59284694 -366.72918129 633.62285519 C-369.80130913 631.26468445 -372.81248203 628.82871331 -375.83269691 626.40459347 C-377.4419422 625.07176514 -377.4419422 625.07176514 -379.50457191 625.26006222 C-379.50457191 624.60006222 -379.50457191 623.94006222 -379.50457191 623.26006222 C-380.61832191 622.60006222 -381.73207191 621.94006222 -382.87957191 621.26006222 C-383.50605629 620.88881222 -384.13254066 620.51756222 -384.77800941 620.13506222 C-386.47929859 619.10937874 -386.47929859 619.10937874 -388.50457191 619.26006222 C-388.50457191 618.60006222 -388.50457191 617.94006222 -388.50457191 617.26006222 C-392.90651204 614.24820845 -394.57914746 613.7236385 -399.31707191 615.94756222 Z M83.19326305 659.68635273 C73.52179508 661.4008345 64.10818976 661.56715414 54.31256676 661.57890987 C52.51756409 661.58822739 50.72256569 661.59839872 48.92757225 661.60935116 C44.09379448 661.63645981 39.26004553 661.65174328 34.42621207 661.66477919 C29.36000211 661.6804942 24.29385029 661.70725738 19.22768211 661.73281002 C9.65165952 661.77945046 0.0756258 661.81626554 -9.50045174 661.84948289 C-20.40989253 661.88780887 -31.3192747 661.93719134 -42.22866595 661.98746705 C-64.65392989 662.09056758 -87.0792188 662.17843947 -109.50457191 662.26006222 C-109.50457191 678.10006222 -109.50457191 693.94006222 -109.50457191 710.26006222 C-104.88457191 707.95006222 -100.26457191 705.64006222 -95.50457191 703.26006222 C-76.73362329 698.01772522 -58.56476549 699.2764006 -41.27019691 708.46709347 C-37.2619152 711.06568288 -33.86974411 714.16411667 -30.46550941 717.50224972 C-28.69527734 719.48255832 -28.69527734 719.48255832 -26.50457191 719.26006222 C-26.17457191 720.25006222 -25.84457191 721.24006222 -25.50457191 722.26006222 C-24.84457191 722.26006222 -24.18457191 722.26006222 -23.50457191 722.26006222 C-23.00957191 723.74506222 -23.00957191 723.74506222 -22.50457191 725.26006222 C-21.84038246 725.30493771 -21.17619301 725.34981319 -20.4918766 725.39604855 C3.00856117 727.03243872 22.39158533 730.03858168 39.24542809 748.07256222 C45.65476634 755.79392972 49.38398881 764.81405169 52.49542809 774.26006222 C52.82542809 775.25006222 53.15542809 776.24006222 53.49542809 777.26006222 C54.40643009 790.23524391 55.24624922 804.30226416 49.49542809 816.26006222 C48.94757652 817.41248409 48.39972496 818.56490597 47.83527184 819.75224972 C38.07640673 838.95484453 21.67841833 847.93326272 2.04767418 854.40019894 C-3.00002026 856.10079008 -7.99756436 857.94393827 -13.00457191 859.76006222 C-20.65292504 862.52062276 -28.30785238 865.25976804 -35.97991371 867.95366573 C-43.35158871 870.54758326 -50.69844703 873.21017728 -58.04851723 875.86455441 C-64.76991225 878.28769195 -71.5050432 880.66655716 -78.25457191 883.01006222 C-84.81437543 885.29006908 -91.31894175 887.66414524 -97.78582191 890.19756222 C-100.26505098 891.16645634 -102.75517677 892.09479075 -105.25457191 893.01006222 C-108.31419451 893.93430532 -108.31419451 893.93430532 -109.50457191 895.26006222 C-109.59983997 898.21252576 -109.63009644 901.14154643 -109.61809731 904.09429073 C-109.61824333 905.02102596 -109.61838936 905.94776119 -109.61853981 906.90257931 C-109.6178403 909.98139909 -109.61004613 913.06015919 -109.60222816 916.13896847 C-109.60036412 918.26746239 -109.59894015 920.39595675 -109.59794044 922.52445126 C-109.59411419 928.13868542 -109.58428299 933.7528939 -109.57323647 939.36711788 C-109.56302465 945.09119475 -109.55844332 950.81527575 -109.55340004 956.53935909 C-109.54266082 967.77960478 -109.52558312 979.01983137 -109.50457191 990.26006222 C-85.74798148 990.33013028 -61.99140652 990.38303962 -38.23473358 990.41549873 C-27.20420186 990.43097036 -16.17373432 990.4520656 -5.14324379 990.48638058 C4.47046001 990.5162738 14.08411733 990.53563507 23.69786632 990.5423277 C28.7887007 990.54624007 33.87940209 990.55544096 38.97019386 990.57725239 C43.76195139 990.59761625 48.55352115 990.60389619 53.34531784 990.59938526 C55.10372055 990.6002105 56.86212955 990.60617674 58.62049484 990.61767864 C61.02273126 990.63262133 63.42426024 990.62900958 65.82651329 990.62082577 C66.52107978 990.62956429 67.21564627 990.63830282 67.93126023 990.64730614 C73.86260976 990.59275056 77.66958618 988.71243646 82.24542809 985.07256222 C87.63948388 978.32999247 86.77573398 969.55296844 86.73593712 961.33940792 C86.73764597 960.04625353 86.73935482 958.75309914 86.74111545 957.42075825 C86.74557093 953.84729197 86.73761018 950.2739464 86.72755933 946.70049548 C86.71890109 942.84102281 86.72184667 938.98155664 86.72336388 935.12207699 C86.72441123 928.44053702 86.7181503 921.75903619 86.7068882 915.07750607 C86.69061584 905.41720852 86.68542342 895.75692985 86.68291222 886.09662008 C86.67853784 870.42241169 86.66523571 854.74822414 86.64630699 839.07402706 C86.62794154 823.85039531 86.61378829 808.62676922 86.60529137 793.40312862 C86.6045032 791.9949259 86.6045032 791.9949259 86.6036991 790.55827463 C86.60108898 785.84845729 86.59856157 781.13863992 86.5960753 776.42882252 C86.57535081 737.37255449 86.54013227 698.31630973 86.49542809 659.26006222 C85.26909215 659.22971651 85.26909215 659.22971651 83.19326305 659.68635273 Z M-156.02019691 719.76396847 C-157.62930946 720.25111324 -157.62930946 720.25111324 -159.27092934 720.74809933 C-160.42053139 721.10267208 -161.57013344 721.45724483 -162.75457191 721.82256222 C-165.21374349 722.56628519 -167.67338956 723.30844076 -170.13347816 724.04912472 C-171.37371742 724.42327511 -172.61395668 724.7974255 -173.89177895 725.18291378 C-179.14200609 726.74826059 -184.41350487 728.23112532 -189.69207191 729.69756222 C-191.17501747 730.11195553 -191.17501747 730.11195553 -192.68792152 730.53472042 C-198.06374701 732.03444704 -203.44374902 733.51799288 -208.82816505 734.98651791 C-211.76895057 735.79035111 -214.70776118 736.60125998 -217.64632607 737.41316891 C-219.08258562 737.8080994 -220.51973368 738.19981405 -221.95778847 738.5881567 C-223.97176815 739.13225522 -225.98247894 739.68718748 -227.99285316 740.24443722 C-229.73369179 740.71961788 -229.73369179 740.71961788 -231.50969887 741.20439816 C-234.36558088 742.21106921 -236.22782669 743.29630404 -238.50457191 745.26006222 C-238.13489296 746.2249255 -238.13489296 746.2249255 -237.75774574 747.20928097 C-232.95296322 759.78581323 -228.28705833 772.33498301 -224.50457191 785.26006222 C-219.45377829 784.65318391 -214.74415189 783.57222657 -209.87957191 782.07256222 C-208.35767328 781.61474312 -206.83552681 781.15774726 -205.31316566 780.70146847 C-204.52152016 780.46315304 -203.72987465 780.22483761 -202.91423988 779.9793005 C-198.93265246 778.79087532 -194.93796823 777.64928611 -190.94207191 776.51006222 C-190.10361732 776.27045773 -189.26516273 776.03085323 -188.40130043 775.783988 C-182.64607539 774.1435018 -176.8849558 772.52460009 -171.12175941 770.91240597 C-169.65373901 770.50128325 -168.18572144 770.09015041 -166.71770668 769.67900753 C-163.81000506 768.86475612 -160.90152356 768.05336687 -157.99260902 767.24346066 C-156.64891502 766.86757483 -155.30524527 766.49160228 -153.96160316 766.11553097 C-152.76511147 765.78190548 -151.56861977 765.44827999 -150.33587074 765.10454464 C-147.58788049 764.37376162 -147.58788049 764.37376162 -145.50457191 763.26006222 C-145.50457191 748.41006222 -145.50457191 733.56006222 -145.50457191 718.26006222 C-149.74209212 718.26006222 -152.10776665 718.56191259 -156.02019691 719.76396847 Z M192.49542809 731.26006222 C192.49542809 731.92006222 192.49542809 732.58006222 192.49542809 733.26006222 C191.83542809 733.26006222 191.17542809 733.26006222 190.49542809 733.26006222 C187.08343835 737.46011287 187.06396213 741.56633089 187.09428978 746.74867916 C187.08749311 747.60147477 187.08069644 748.45427037 187.07369381 749.33290827 C187.05470882 752.18944693 187.05715948 755.04555731 187.05963707 757.90215206 C187.05066039 759.95062468 187.04045235 761.99909221 187.02910423 764.04755306 C187.00259169 769.61162624 186.99557026 775.17556103 186.99365687 780.73969126 C186.99080835 785.38437571 186.97977211 790.02902793 186.96914059 794.67369998 C186.94471008 805.63154046 186.93738762 816.589307 186.93951988 827.54717159 C186.94132254 838.85182492 186.90966045 850.15604892 186.86228889 861.46059358 C186.82306721 871.16605189 186.80696797 880.87136984 186.80888611 890.5769068 C186.80965118 896.37370145 186.80109134 902.17011453 186.76935196 907.96683025 C186.7403155 913.41875148 186.74006543 918.86992618 186.76190186 924.32187366 C186.76504026 926.32174488 186.75794512 928.32166251 186.73982048 930.32145405 C186.71665754 933.05433975 186.73058684 935.7846477 186.75371361 938.51747799 C186.73828292 939.30688569 186.72285223 940.0962934 186.70695394 940.90962255 C186.80397947 946.10595098 188.10981425 949.07293305 191.75375652 952.81109428 C197.03321898 957.20329542 202.41528397 957.69856331 208.95207787 957.64101315 C209.77729189 957.64569312 210.60250591 957.65037309 211.45272642 957.65519488 C214.20402403 957.66711288 216.95482058 957.65770019 219.70612144 957.64824581 C221.68429924 957.65231296 223.66247475 957.65765565 225.64064598 957.66417599 C231.0042907 957.67783915 236.36776208 957.67255477 241.73140979 957.66303873 C247.34908876 957.65543594 252.96675304 957.66248957 258.5844326 957.66719723 C268.01890282 957.67265341 277.45330256 957.6654672 286.88776207 957.6511755 C297.78787289 957.63485402 308.68781531 957.64013445 319.58792204 957.65665472 C328.95288117 957.6702791 338.31778968 957.67218443 347.68275553 957.66433871 C353.27318777 957.65966684 358.86354092 957.65902392 364.45396805 957.66894817 C369.7112349 957.6776292 374.9682852 957.67157502 380.22552872 957.6542654 C382.15240177 957.65030645 384.07929311 957.65142446 386.00615883 957.6580534 C388.64161489 957.6662825 391.27638218 957.65593095 393.91179466 957.64101315 C395.04863564 957.65105139 395.04863564 957.65105139 396.20844311 957.66129243 C401.9146157 957.59888026 407.67716242 956.70086572 412.11966264 952.85336822 C416.51205977 947.7664308 416.93346032 942.16637473 416.88310814 935.76544857 C416.88849368 934.93615099 416.89387921 934.10685342 416.89942795 933.25242561 C416.91367891 930.48732127 416.90661093 927.72269759 416.89948082 924.95757198 C416.90518587 922.96954114 416.91215066 920.98151358 416.92027855 918.99349117 C416.93820981 913.60299728 416.93704163 908.21266617 416.93133616 902.82215142 C416.92824436 898.31912755 416.93433666 893.81613496 416.94037491 889.31311554 C416.95441835 878.68887791 416.95286025 868.0647207 416.94147301 857.44048214 C416.92999094 846.48580489 416.94406946 835.53137244 416.97086948 824.57672745 C416.99303125 815.16505668 416.9996628 805.75346273 416.99379307 796.34176773 C416.99042358 790.72335824 416.99283825 785.10510569 417.0100441 779.48671818 C417.02551871 774.20314087 417.02155173 768.91992605 417.00273895 763.63636303 C416.99905458 761.69981168 417.00215711 759.76323345 417.01262474 757.82670689 C417.02584675 755.17794147 417.01427679 752.530374 416.99663353 749.88165951 C417.00623854 749.11987457 417.01584354 748.35808964 417.02573961 747.57322031 C416.9480879 741.88646679 415.30442263 738.1985887 412.49542809 733.26006222 C411.83542809 733.26006222 411.17542809 733.26006222 410.49542809 733.26006222 C410.16542809 732.27006222 409.83542809 731.28006222 409.49542809 730.26006222 C402.92491642 726.96661733 397.02700999 726.85995817 389.77667809 726.96709347 C388.31439781 726.97162533 388.31439781 726.97162533 386.82257652 726.97624874 C383.21341791 726.99183451 379.60441131 727.03371775 375.99542809 727.07256222 C367.91042809 727.13443722 359.82542809 727.19631222 351.49542809 727.26006222 C351.49542809 749.37006222 351.49542809 771.48006222 351.49542809 794.26006222 C318.49542809 794.26006222 285.49542809 794.26006222 251.49542809 794.26006222 C251.49542809 772.15006222 251.49542809 750.04006222 251.49542809 727.26006222 C243.43105309 727.17756222 235.36667809 727.09506222 227.05792809 727.01006222 C224.52951256 726.9736462 222.00109703 726.93723019 219.39606285 726.89971066 C217.36799529 726.8880165 215.33991826 726.8778264 213.31183434 726.86943722 C211.76151512 726.83874142 211.76151512 726.83874142 210.17987633 726.8074255 C203.39974608 726.8041934 198.43901132 727.96455232 192.49542809 731.26006222 Z M285.49542809 727.26006222 C285.49542809 737.82006222 285.49542809 748.38006222 285.49542809 759.26006222 C296.05542809 759.26006222 306.61542809 759.26006222 317.49542809 759.26006222 C317.49542809 748.70006222 317.49542809 738.14006222 317.49542809 727.26006222 C306.93542809 727.26006222 296.37542809 727.26006222 285.49542809 727.26006222 Z M-92.59050941 741.36943722 C-97.89709467 746.61104388 -101.38636224 751.25096699 -103.68035316 758.38896847 C-103.93584435 759.14169537 -104.19133553 759.89442226 -104.45456886 760.66995907 C-104.98703881 762.24815519 -105.5118515 763.82895413 -106.02923012 765.41216183 C-106.81784257 767.82492005 -107.62869281 770.22926362 -108.44402504 772.63310909 C-108.96160232 774.17629306 -109.47792218 775.71989946 -109.99285316 777.26396847 C-110.35060577 778.33295124 -110.35060577 778.33295124 -110.71558571 779.42352962 C-111.99467301 783.34917343 -112.94331084 787.16904823 -113.50457191 791.26006222 C-114.68019691 791.50756222 -115.85582191 791.75506222 -117.06707191 792.01006222 C-128.81613055 794.6390954 -140.34335884 798.07474163 -151.88567543 801.47710323 C-159.56308611 803.72687422 -167.27255216 805.83165716 -175.00457191 807.88506222 C-183.1066156 810.04049488 -191.11425271 812.33104714 -199.09832191 814.88896847 C-214.33999905 819.70117102 -229.81213206 823.83652054 -245.25457191 827.94756222 C-253.20031075 830.06470846 -261.05627772 832.31038395 -268.88738441 834.81865597 C-275.41558976 836.88283258 -281.99337972 838.78440546 -288.56707191 840.69756222 C-289.24048622 840.89360043 -289.91390053 841.08963863 -290.60772133 841.29161739 C-300.27744218 844.09976826 -309.9820139 846.73420244 -319.73894691 849.22368526 C-327.75881754 851.28458861 -335.63890708 853.67254911 -343.50457191 856.26006222 C-345.04951332 856.66998409 -345.04951332 856.66998409 -346.62566566 857.08818722 C-350.20189734 858.54391246 -351.91217456 860.407625 -354.50457191 863.26006222 C-355.55159631 864.32884383 -356.60397237 865.39240131 -357.66082191 866.45146847 C-358.48259926 867.28001339 -358.48259926 867.28001339 -359.32097816 868.12529659 C-359.8765641 868.68539425 -360.43215004 869.24549191 -361.00457191 869.82256222 C-361.56015785 870.38652706 -362.11574379 870.95049191 -362.68816566 871.53154659 C-365.81578666 874.67756536 -369.02646558 877.49786113 -372.50457191 880.26006222 C-373.51822984 881.35408688 -374.49863249 882.47993694 -375.44207191 883.63506222 C-378.98739559 887.78301265 -382.7771989 891.6501875 -386.62957191 895.51006222 C-387.52663857 896.4137756 -387.52663857 896.4137756 -388.44182777 897.33574581 C-391.65482759 900.5384833 -394.94088276 903.44430783 -398.50457191 906.26006222 C-399.87825536 907.89363173 -401.22394707 909.55256242 -402.50457191 911.26006222 C-400.90539447 914.45841711 -397.71101083 915.09178558 -394.50457191 916.26006222 C-391.07157208 917.37908676 -387.61008629 918.36284351 -384.12957191 919.32256222 C-383.25429848 919.57844112 -382.37902504 919.83432003 -381.47722816 920.09795284 C-366.7484533 924.17298373 -351.76323613 924.61125517 -336.57683754 924.57573605 C-333.7711011 924.57258081 -330.96642891 924.59613007 -328.16082191 924.62139034 C-306.59770678 924.69845197 -286.42158542 921.4152962 -266.19207191 913.88506222 C-263.99727625 913.08026591 -261.801965 912.27687425 -259.60613441 911.47490597 C-258.55844887 911.09189327 -257.51076332 910.70888058 -256.43132973 910.31426144 C-252.66446538 908.95746128 -248.87435293 907.68550632 -245.06707191 906.44756222 C-240.44441333 904.93235746 -235.95273967 903.26549478 -231.45769691 901.41240597 C-227.36474413 899.81528815 -223.21782786 898.38656956 -219.06707191 896.94756222 C-212.29096238 894.59804737 -205.54076244 892.19323101 -198.81707191 889.69756222 C-187.46328814 885.48920541 -176.07051931 881.41661844 -164.56707191 877.63506222 C-160.59757072 876.32296768 -156.68161078 874.97952231 -152.81707191 873.38506222 C-148.30672519 871.53298747 -143.73543115 869.91691628 -139.12957191 868.32256222 C-129.22196855 864.89087837 -119.36248508 861.33126461 -109.50457191 857.76006222 C-98.92303227 853.92699563 -88.33407472 850.12486517 -77.69988441 846.43974972 C-72.39089358 844.59233287 -67.15083547 842.59848882 -61.91472816 840.55303097 C-56.95508883 838.67257207 -51.94591148 836.94229648 -46.93572426 835.20195675 C-39.31901153 832.55371043 -31.72248046 829.85075189 -24.12957191 827.13506222 C-22.9899601 826.72747677 -21.85034828 826.31989132 -20.67620277 825.8999548 C-18.43114951 825.09672643 -16.1867572 824.29164815 -13.94304848 823.48467159 C-11.53741983 822.62790979 -9.130037 821.78503423 -6.71453285 820.95732784 C-5.47735512 820.52871456 -4.24017738 820.10010128 -2.96550941 819.65849972 C-1.28787514 819.08494747 -1.28787514 819.08494747 0.42365074 818.49980831 C8.5373378 815.2251856 14.8302038 809.20755191 18.49542809 801.26006222 C21.05925749 792.82791216 21.25833876 784.83102916 17.30011559 776.84990597 C12.70430403 769.32834553 6.68178135 764.48983972 -1.69622231 761.79228878 C-5.12257346 761.14294117 -8.19839917 761.26665377 -11.68035316 761.45146847 C-34.57442733 762.63513633 -34.57442733 762.63513633 -42.80144691 755.89287472 C-47.11946766 751.7169573 -50.86353657 747.1468968 -54.58782387 742.44341183 C-59.1195669 737.28134611 -64.88344824 735.4032727 -71.53582191 734.38896847 C-79.45545997 734.04508945 -86.4260277 736.47162983 -92.59050941 741.36943722 Z M-506.50457191 873.26006222 C-506.50457191 911.87006222 -506.50457191 950.48006222 -506.50457191 990.26006222 C-420.04457191 990.26006222 -333.58457191 990.26006222 -244.50457191 990.26006222 C-244.50457191 974.75006222 -244.50457191 959.24006222 -244.50457191 943.26006222 C-254.83251272 946.42944314 -254.83251272 946.42944314 -265.06707191 949.82256222 C-313.24788924 966.06726876 -378.54391281 963.68235801 -424.58172035 941.24785519 C-441.79307139 932.61888961 -457.871158 922.58533339 -472.01629066 909.43974972 C-473.44927592 908.05300322 -473.44927592 908.05300322 -475.50457191 908.26006222 C-475.50457191 907.60006222 -475.50457191 906.94006222 -475.50457191 906.26006222 C-477.02177174 904.72548855 -477.02177174 904.72548855 -479.00457191 903.13506222 C-488.3644551 895.1405047 -496.42291416 886.1542306 -503.50457191 876.07256222 C-504.16457191 875.14443722 -504.82457191 874.21631222 -505.50457191 873.26006222 C-505.83457191 873.26006222 -506.16457191 873.26006222 -506.50457191 873.26006222 Z " fill="#FC4F00" transform="translate(540.5045719146729,-0.26006221771240234)"/>
<path d="M0 0 C55.11 0 110.22 0 167 0 C167 11.22 167 22.44 167 34 C111.89 34 56.78 34 0 34 C0 22.78 0 11.56 0 0 Z " fill="#FC4F00" transform="translate(758,297)"/>
<path d="M0 0 C11.88 0 23.76 0 36 0 C36 11.22 36 22.44 36 34 C24.12 34 12.24 34 0 34 C0 22.78 0 11.56 0 0 Z " fill="#FC4F00" transform="translate(824,363)"/>
<path d="M0 0 C11.88 0 23.76 0 36 0 C36 11.22 36 22.44 36 34 C24.12 34 12.24 34 0 34 C0 22.78 0 11.56 0 0 Z " fill="#FC4F00" transform="translate(758,363)"/>
<path d="M0 0 C11.55 0 23.1 0 35 0 C35 11.22 35 22.44 35 34 C23.45 34 11.9 34 0 34 C0 22.78 0 11.56 0 0 Z " fill="#FC4F00" transform="translate(890,363)"/>
</svg>
