<?xml version="1.0" encoding="UTF-8"?>
<svg version="1.1" xmlns="http://www.w3.org/2000/svg" width="781" height="1024">
<path d="M0 0 C0.94006897 -0.0033284 1.88013794 -0.0066568 2.84869385 -0.01008606 C4.83548498 -0.01512831 6.82228451 -0.01749522 8.80908203 -0.01733398 C11.77782095 -0.01949464 14.74617168 -0.03760751 17.71484375 -0.05664062 C74.43940307 -0.22420421 133.9834456 18.21616557 179.078125 53.16796875 C180.14265291 53.97862187 181.20779184 54.78847303 182.2734375 55.59765625 C185.03041358 57.69725507 187.77204047 59.81567091 190.50585938 61.9453125 C192.04144352 63.13944378 193.58315417 64.3256835 195.125 65.51171875 C196.03765625 66.22328125 196.9503125 66.93484375 197.890625 67.66796875 C198.70144531 68.29703125 199.51226563 68.92609375 200.34765625 69.57421875 C200.91871094 70.10015625 201.48976563 70.62609375 202.078125 71.16796875 C202.078125 71.82796875 202.078125 72.48796875 202.078125 73.16796875 C202.738125 73.16796875 203.398125 73.16796875 204.078125 73.16796875 C204.078125 73.82796875 204.078125 74.48796875 204.078125 75.16796875 C204.60921875 75.37421875 205.1403125 75.58046875 205.6875 75.79296875 C209.08585936 77.74758067 211.58868428 80.38920592 214.328125 83.16796875 C215.15957031 83.9878125 215.15957031 83.9878125 216.0078125 84.82421875 C220.078125 88.91458205 220.078125 88.91458205 220.078125 91.16796875 C220.738125 91.16796875 221.398125 91.16796875 222.078125 91.16796875 C227.078125 96.64415923 227.078125 96.64415923 227.078125 99.16796875 C228.068125 99.49796875 229.058125 99.82796875 230.078125 100.16796875 C231.71630859 102.00634766 231.71630859 102.00634766 233.4765625 104.39453125 C234.44335938 105.69583984 234.44335938 105.69583984 235.4296875 107.0234375 C236.43128906 108.39435547 236.43128906 108.39435547 237.453125 109.79296875 C238.113125 110.68371094 238.773125 111.57445313 239.453125 112.4921875 C240.74392756 114.23811367 242.02892834 115.98834662 243.30761719 117.74316406 C244.4163106 119.2615787 245.53521296 120.77264926 246.66894531 122.27246094 C250.078125 126.83965656 250.078125 126.83965656 250.078125 130.16796875 C250.738125 130.16796875 251.398125 130.16796875 252.078125 130.16796875 C253.15625 131.57885742 253.15625 131.57885742 254.328125 133.5859375 C254.98590942 134.70911377 254.98590942 134.70911377 255.65698242 135.85498047 C256.12595947 136.6801416 256.59493652 137.50530273 257.078125 138.35546875 C257.56579346 139.20898926 258.05346191 140.06250977 258.5559082 140.94189453 C273.93162698 168.25386307 285.58665131 198.23498404 291.078125 229.16796875 C291.20670898 229.88758789 291.33529297 230.60720703 291.46777344 231.34863281 C291.89309882 233.76548175 292.30145833 236.18458019 292.703125 238.60546875 C292.8882666 239.69565308 292.8882666 239.69565308 293.07714844 240.80786133 C294.92063673 252.47520168 295.14265501 264.20290322 295.25390625 275.98828125 C295.27194305 277.72045647 295.27194305 277.72045647 295.29034424 279.48762512 C295.338837 284.30507538 295.38631461 289.12226556 295.40405273 293.93994141 C295.38888665 312.44504333 295.38888665 312.44504333 300.078125 330.16796875 C301.35942464 334.85570012 301.25718391 339.56141098 301.28125 344.38671875 C301.28695007 345.28104614 301.29265015 346.17537354 301.29852295 347.09680176 C301.30795303 348.98965277 301.314499 350.88252006 301.31835938 352.77539062 C301.32799854 355.63051227 301.35901309 358.48489285 301.390625 361.33984375 C301.45484644 372.38399977 301.04834072 382.42207084 297.043396 392.86639404 C295.9493972 396.60826424 295.81276231 399.76982929 295.79101562 403.66699219 C295.78418259 404.39307678 295.77734955 405.11916138 295.77030945 405.86724854 C295.75677972 407.43533006 295.74768915 409.00345497 295.74259949 410.57158661 C295.73425983 413.06173241 295.71370626 415.55152027 295.69006348 418.04156494 C295.64197056 423.33364584 295.60898299 428.62576299 295.578125 433.91796875 C295.54231808 440.04109118 295.50014755 446.16403879 295.44218445 452.28699493 C295.42230034 454.7251886 295.41383284 457.16324415 295.40588379 459.60150146 C295.33254043 470.38547891 294.69885073 479.86163347 289.640625 489.54296875 C289.04378906 490.70570313 288.44695313 491.8684375 287.83203125 493.06640625 C286.38190113 495.63077889 285.02761791 497.96324975 283.078125 500.16796875 C282.418125 500.16796875 281.758125 500.16796875 281.078125 500.16796875 C280.81 500.80734375 280.541875 501.44671875 280.265625 502.10546875 C279.078125 504.16796875 279.078125 504.16796875 276.078125 505.16796875 C275.748125 506.15796875 275.418125 507.14796875 275.078125 508.16796875 C262.81638174 518.29723492 249.48398018 520.47569123 234.03697014 520.25897217 C230.87466716 520.21989287 227.71266676 520.21821746 224.55015659 520.21417236 C218.68252938 520.20647583 212.81599715 520.18464183 206.94897461 520.09619141 C202.84658838 520.03578743 198.74654804 520.0244332 194.64380074 520.04489136 C193.09007437 520.04362066 191.53624908 520.02450402 189.98298454 519.98660278 C181.06881667 519.59967548 181.06881667 519.59967548 173.36746216 523.46972656 C171.16265999 526.16981853 171.16265999 526.16981853 169.4533844 529.02001953 C168.9995488 529.72884277 168.5457132 530.43766602 168.078125 531.16796875 C167.418125 531.16796875 166.758125 531.16796875 166.078125 531.16796875 C165.81999023 531.7513501 165.56185547 532.33473145 165.29589844 532.93579102 C163.97880125 535.35002911 162.54172708 536.94771085 160.59375 538.8828125 C159.90539062 539.56923828 159.21703125 540.25566406 158.5078125 540.96289062 C157.78851562 541.66994141 157.06921875 542.37699219 156.328125 543.10546875 C155.62429688 543.80865234 154.92046875 544.51183594 154.1953125 545.23632812 C143.17146497 556.16796875 143.17146497 556.16796875 140.078125 556.16796875 C140.078125 556.82796875 140.078125 557.48796875 140.078125 558.16796875 C138.04552207 559.73631684 136.02149934 561.18258718 133.890625 562.60546875 C133.31248047 563.00056641 132.73433594 563.39566406 132.13867188 563.80273438 C129.61374643 565.51740126 127.16020626 567.12813243 124.41108704 568.46235657 C121.85258621 569.95403545 121.85258621 569.95403545 121.43888855 572.65470886 C121.43222672 573.64288101 121.42556488 574.63105316 121.41870117 575.64916992 C121.39905807 576.77010544 121.37941498 577.89104095 121.35917664 579.04594421 C121.36310928 580.255392 121.36704193 581.46483978 121.37109375 582.7109375 C121.35597244 583.94967117 121.34085114 585.18840485 121.32527161 586.4646759 C121.28953977 589.75448002 121.27522964 593.04346808 121.27124023 596.33343506 C121.2619138 599.69186218 121.22450367 603.04996339 121.18945312 606.40820312 C121.12642735 612.99479872 121.09163237 619.58109562 121.078125 626.16796875 C121.98119385 626.30678467 122.8842627 626.44560059 123.81469727 626.58862305 C126.42936024 627.05279565 128.78226608 627.60946693 131.29296875 628.4375 C132.43366821 628.8077832 132.43366821 628.8077832 133.59741211 629.18554688 C134.79442749 629.5790332 134.79442749 629.5790332 136.015625 629.98046875 C141.81943437 631.85262946 147.61301957 633.634068 153.515625 635.16796875 C160.82901132 637.07007029 168.05186973 639.21996399 175.28125 641.41796875 C179.49190931 642.6967834 183.71193987 643.93930947 187.9375 645.16796875 C219.24966211 654.32254873 250.75967605 664.75400801 280.078125 679.16796875 C280.70477051 679.47444336 281.33141602 679.78091797 281.97705078 680.09667969 C297.16595871 687.54044284 311.94038186 695.43415318 325.78857422 705.18481445 C328.83494681 707.33688331 328.83494681 707.33688331 332.078125 709.16796875 C332.078125 709.82796875 332.078125 710.48796875 332.078125 711.16796875 C332.78324219 711.40515625 333.48835937 711.64234375 334.21484375 711.88671875 C337.58099368 713.39299048 340.04795673 715.32381392 342.890625 717.66796875 C344.35435547 718.8590625 344.35435547 718.8590625 345.84765625 720.07421875 C346.95173828 721.110625 346.95173828 721.110625 348.078125 722.16796875 C348.078125 722.82796875 348.078125 723.48796875 348.078125 724.16796875 C348.738125 724.16796875 349.398125 724.16796875 350.078125 724.16796875 C350.078125 724.82796875 350.078125 725.48796875 350.078125 726.16796875 C351.068125 726.49796875 352.058125 726.82796875 353.078125 727.16796875 C353.078125 727.82796875 353.078125 728.48796875 353.078125 729.16796875 C353.738125 729.16796875 354.398125 729.16796875 355.078125 729.16796875 C355.078125 729.82796875 355.078125 730.48796875 355.078125 731.16796875 C356.068125 731.49796875 357.058125 731.82796875 358.078125 732.16796875 C358.078125 732.82796875 358.078125 733.48796875 358.078125 734.16796875 C358.738125 734.16796875 359.398125 734.16796875 360.078125 734.16796875 C360.078125 734.82796875 360.078125 735.48796875 360.078125 736.16796875 C361.068125 736.49796875 362.058125 736.82796875 363.078125 737.16796875 C365.12109375 739.3828125 365.12109375 739.3828125 367.265625 742.10546875 C368.33876953 743.44931641 368.33876953 743.44931641 369.43359375 744.8203125 C371.078125 747.16796875 371.078125 747.16796875 371.078125 749.16796875 C371.738125 749.16796875 372.398125 749.16796875 373.078125 749.16796875 C373.078125 750.15796875 373.078125 751.14796875 373.078125 752.16796875 C373.738125 752.16796875 374.398125 752.16796875 375.078125 752.16796875 C379.97604872 758.14284558 383.53021177 765.34148649 387.078125 772.16796875 C387.38459961 772.74522705 387.69107422 773.32248535 388.00683594 773.91723633 C390.83133014 779.36437673 393.02022936 784.95469524 395.078125 790.73046875 C395.408125 791.59865234 395.738125 792.46683594 396.078125 793.36132812 C404.42286503 816.81461114 403.67986784 841.33838098 403.61542702 865.86125112 C403.60517298 870.99397037 403.61472417 876.12666353 403.62097168 881.25938416 C403.62820132 889.85339594 403.61877289 898.44726912 403.59960938 907.04125977 C403.57773142 916.96704649 403.58498955 926.89250588 403.606915 936.81828505 C403.62506279 945.37846045 403.62763389 953.93853742 403.61716032 962.49872583 C403.61093711 967.5959212 403.61005991 972.69296241 403.62330627 977.79014778 C403.63485923 982.5667226 403.62684939 987.34287297 403.60372925 992.11940193 C403.59844427 993.86974381 403.59995234 995.62012147 403.60877991 997.37044907 C403.61972469 999.76075818 403.60598757 1002.14970948 403.58605957 1004.53993225 C403.59498246 1005.23048283 403.60390534 1005.92103341 403.61309862 1006.63250977 C403.53329695 1011.57219895 402.12887582 1014.34269398 399.078125 1018.16796875 C393.31026134 1023.35904604 389.25834095 1024.46411335 381.56533432 1024.42523766 C380.69360327 1024.42874373 379.82187221 1024.4322498 378.92372507 1024.43586212 C375.98227025 1024.44521763 373.04101162 1024.44024212 370.09954834 1024.43539429 C367.97752382 1024.43912846 365.85550068 1024.44372904 363.73347974 1024.44912493 C357.88613586 1024.46139924 352.03884901 1024.46108926 346.19149518 1024.45873618 C339.89141275 1024.45832913 333.59134888 1024.4693565 327.29127502 1024.47885132 C314.94190154 1024.49548677 302.59255103 1024.5009879 290.24316779 1024.50207607 C280.20757268 1024.50299459 270.17198378 1024.50710831 260.13639069 1024.51347733 C257.24931439 1024.51527238 254.36223809 1024.517052 251.47516179 1024.51882708 C250.75745503 1024.51926918 250.03974827 1024.51971127 249.30029281 1024.52016677 C229.1072329 1024.53247843 208.91417513 1024.54036757 188.7211113 1024.53948021 C187.57870046 1024.53943347 187.57870046 1024.53943347 186.41321062 1024.53938579 C182.55293475 1024.53921957 178.69265888 1024.53902149 174.83238301 1024.53881638 C174.06569802 1024.53877649 173.29901303 1024.5387366 172.50909516 1024.5386955 C170.95867021 1024.53861462 169.40824526 1024.53853103 167.85782031 1024.53844471 C143.73640688 1024.53721924 119.61504968 1024.55223041 95.49365234 1024.57958984 C68.40246993 1024.61030495 41.31132446 1024.62752266 14.22012353 1024.6256634 C11.33178981 1024.62551413 8.4434561 1024.62541672 5.55512238 1024.62535477 C4.84392526 1024.62533146 4.13272815 1024.62530815 3.39997961 1024.62528413 C-8.05006653 1024.62522256 -19.50006391 1024.63799988 -30.95009555 1024.6552193 C-42.45654551 1024.67216572 -53.96289895 1024.67381402 -65.46935925 1024.66100065 C-71.70421304 1024.65445548 -77.93888991 1024.65440975 -84.17372704 1024.67170715 C-89.8795654 1024.68737437 -95.58508563 1024.68463919 -101.29091594 1024.66713889 C-103.35687529 1024.66405496 -105.42285802 1024.66775343 -107.48878983 1024.67885904 C-110.29481965 1024.69294597 -113.09972831 1024.68242053 -115.90571976 1024.66574669 C-116.70979816 1024.67568305 -117.51387656 1024.68561941 -118.34232098 1024.69585687 C-124.53804697 1024.61790094 -129.7280748 1022.96611569 -134.45257361 1018.82689562 C-138.55980876 1014.33125483 -139.69605809 1009.65195474 -140.234375 1003.73046875 C-139.61085273 996.62231482 -137.13527435 991.15469856 -131.921875 986.16796875 C-125.34288296 982.16557877 -119.31821334 981.61841715 -111.76171875 981.77734375 C-110.21599937 981.78583344 -110.21599937 981.78583344 -108.63905334 981.79449463 C-105.37866871 981.81671401 -102.11942208 981.86688367 -98.859375 981.91796875 C-96.63608369 981.93805239 -94.41277498 981.95629988 -92.18945312 981.97265625 C-86.76654509 982.01653112 -81.34429138 982.08329674 -75.921875 982.16796875 C-75.78088379 981.13236816 -75.63989258 980.09676758 -75.49462891 979.02978516 C-74.67143221 973.47934809 -73.47740889 968.02683697 -72.296875 962.54296875 C-71.90145508 960.69928711 -71.90145508 960.69928711 -71.49804688 958.81835938 C-69.33656187 948.85123065 -66.9615568 938.9423092 -64.53100586 929.03759766 C-62.21400487 919.53604308 -60.13683489 909.99631501 -58.12548828 900.42602539 C-56.47498848 892.61950309 -54.68463065 884.85783607 -52.796875 877.10546875 C-52.06769249 874.07787441 -51.339826 871.04996655 -50.61230469 868.02197266 C-50.16019485 866.15310277 -49.70271347 864.28552223 -49.23925781 862.41943359 C-48.61267329 859.88171946 -48.01411532 857.33888299 -47.421875 854.79296875 C-47.23737793 854.07488037 -47.05288086 853.35679199 -46.86279297 852.61694336 C-44.44091829 841.85876064 -49.0060935 830.76493718 -51.921875 820.48046875 C-52.63104856 817.95596505 -53.33940498 815.43123163 -54.046875 812.90625 C-54.37768066 811.72627441 -54.70848633 810.54629883 -55.04931641 809.33056641 C-56.07227173 805.62285423 -57.00654133 801.90362541 -57.921875 798.16796875 C-58.78637421 794.83186219 -59.6665418 791.49992754 -60.546875 788.16796875 C-60.77632813 787.29785156 -61.00578125 786.42773438 -61.2421875 785.53125 C-61.80162861 783.41003581 -62.36153255 781.28894498 -62.921875 779.16796875 C-66.47764032 779.16796875 -69.25296813 781.95298161 -72.109375 783.91796875 C-88.42558401 795.08767203 -88.42558401 795.08767203 -99.921875 794.16796875 C-103.67178852 793.13118835 -106.68497678 791.3259009 -109.921875 789.16796875 C-109.921875 788.50796875 -109.921875 787.84796875 -109.921875 787.16796875 C-110.581875 787.16796875 -111.241875 787.16796875 -111.921875 787.16796875 C-115.82898055 779.92206391 -119.70487162 772.67060467 -123.359375 765.29296875 C-125.94282472 760.0790975 -128.62063484 754.92679824 -131.359375 749.79296875 C-136.04144103 741.00641699 -140.48618013 732.11129229 -144.90136719 723.18847656 C-145.88552652 721.20155191 -146.87176853 719.21568215 -147.859375 717.23046875 C-148.18107666 716.58311768 -148.50277832 715.9357666 -148.83422852 715.26879883 C-151.81491247 709.30816599 -154.94423574 703.42857626 -158.12866211 697.57446289 C-160.921875 692.38336709 -160.921875 692.38336709 -160.921875 690.16796875 C-165.60130957 691.65477 -170.27850721 693.14835373 -174.95385742 694.64794922 C-176.54084184 695.15595174 -178.12839675 695.66217597 -179.71655273 696.16650391 C-191.04577004 699.73205593 -191.04577004 699.73205593 -201.99975586 704.29199219 C-206.07524247 706.14933322 -210.37107958 707.46289127 -214.61523438 708.87890625 C-218.88386223 710.33974301 -222.86269417 712.04749548 -226.86987305 714.11914062 C-229.01365417 715.21487932 -231.18153107 716.23663983 -233.3671875 717.24609375 C-274.24498906 736.1828036 -311.61452151 762.50231979 -328.35546875 805.8828125 C-333.3418266 819.98369984 -335.37323353 833.74279977 -335.35424805 848.66210938 C-335.36329711 850.13243922 -335.37363183 851.60276162 -335.38513184 853.07307434 C-335.41235965 857.00797258 -335.42193892 860.94272643 -335.42798591 864.87770653 C-335.43746019 869.01101618 -335.46366972 873.14422167 -335.48799133 877.27746582 C-335.53141376 885.07904957 -335.56010883 892.88061283 -335.58331472 900.68228006 C-335.61049761 909.57492482 -335.65440019 918.46746352 -335.69960344 927.36003208 C-335.79210164 945.62928804 -335.86394053 963.89857209 -335.921875 982.16796875 C-334.69670166 982.14702148 -333.47152832 982.12607422 -332.20922852 982.10449219 C-327.63024752 982.03167065 -323.05131693 981.98601661 -318.47192383 981.94824219 C-316.4962501 981.92822229 -314.52063491 981.90099783 -312.54516602 981.86621094 C-309.6927235 981.81726668 -306.84106951 981.7949035 -303.98828125 981.77734375 C-303.11603409 981.75669861 -302.24378693 981.73605347 -301.34510803 981.71478271 C-293.81343988 981.71207441 -287.93434918 983.74489169 -282.046875 988.48046875 C-277.50351163 994.22648713 -276.29470361 999.14041632 -276.50390625 1006.3828125 C-277.38074788 1012.22569176 -280.25131456 1016.53917233 -284.421875 1020.60546875 C-289.35063568 1023.68594417 -293.18928101 1024.42119345 -299.00366211 1024.44262695 C-299.69701157 1024.44773788 -300.39036102 1024.45284882 -301.10472107 1024.45811462 C-303.38630922 1024.47196289 -305.66759369 1024.47105754 -307.94921875 1024.46875 C-309.54195772 1024.47263947 -311.13469565 1024.47697466 -312.72743225 1024.48173523 C-316.06205613 1024.48918712 -319.39657411 1024.48891361 -322.73120117 1024.48364258 C-326.99605106 1024.47784836 -331.26046661 1024.49478254 -335.52524471 1024.51798725 C-338.81358864 1024.53274705 -342.10182848 1024.53359326 -345.39019966 1024.53047752 C-346.96221337 1024.53098958 -348.53423308 1024.53620552 -350.10621452 1024.54628944 C-352.30799144 1024.55868099 -354.50892902 1024.55184684 -356.71069336 1024.5402832 C-358.58669472 1024.54122734 -358.58669472 1024.54122734 -360.50059509 1024.54219055 C-365.60716274 1023.98363089 -369.57974788 1021.94430676 -373.171875 1018.29296875 C-373.65140625 1017.82117188 -374.1309375 1017.349375 -374.625 1016.86328125 C-377.94859442 1012.51858252 -378.17535169 1008.27860257 -378.18930054 1002.93939209 C-378.19383165 1002.22180324 -378.19836276 1001.50421439 -378.20303118 1000.76488042 C-378.21567035 998.36499766 -378.21405501 995.96534201 -378.21240234 993.56542969 C-378.21838883 991.8417278 -378.22519465 990.11802858 -378.23275757 988.39433289 C-378.25043551 983.70920116 -378.25511435 979.02414252 -378.25638914 974.33898067 C-378.25781292 971.40146824 -378.26208735 968.46397422 -378.26738358 965.52646637 C-378.285906 955.24663625 -378.29405344 944.96685797 -378.29248047 934.68701172 C-378.29128591 925.16189285 -378.31224682 915.63700311 -378.3439678 906.11194205 C-378.37032573 897.89919354 -378.38083933 889.68651878 -378.37956965 881.47372842 C-378.3790647 876.5852252 -378.38448139 871.69692452 -378.40592575 866.80846405 C-378.5302354 836.33859489 -377.95665713 806.00593595 -363.921875 778.16796875 C-363.58285156 777.46542969 -363.24382812 776.76289062 -362.89453125 776.0390625 C-361.93280929 774.0654082 -360.93795505 772.11415284 -359.921875 770.16796875 C-359.38820313 769.14316406 -359.38820313 769.14316406 -358.84375 768.09765625 C-345.03552688 742.41436125 -323.8431223 721.40654985 -299.8515625 705.1640625 C-297.62386786 703.64625988 -295.45323812 702.09516171 -293.296875 700.48046875 C-289.67813477 697.87533143 -285.77150387 695.84442458 -281.83984375 693.75390625 C-279.01938199 692.22096452 -276.28976969 690.58483486 -273.546875 688.91796875 C-252.0181749 676.32727653 -228.2466421 667.04989622 -204.66796875 659.10253906 C-201.56842482 658.04768005 -198.47936432 656.96498735 -195.390625 655.87890625 C-175.29220728 648.82425666 -175.29220728 648.82425666 -165.296875 646.1171875 C-161.95621811 645.17762775 -158.6656601 644.13468076 -155.36523438 643.06469727 C-146.32134648 640.13322376 -137.2193693 637.63162935 -128.00732422 635.28442383 C-122.06282953 633.75917171 -116.23415165 632.07231322 -110.4375 630.046875 C-107.76066076 629.1116439 -105.06986296 628.25047577 -102.359375 627.41796875 C-101.57433594 627.175625 -100.78929687 626.93328125 -99.98046875 626.68359375 C-97.921875 626.16796875 -97.921875 626.16796875 -94.921875 626.16796875 C-94.921875 607.68796875 -94.921875 589.20796875 -94.921875 570.16796875 C-96.571875 569.50796875 -98.221875 568.84796875 -99.921875 568.16796875 C-101.67944336 567.10229492 -101.67944336 567.10229492 -103.26171875 565.9609375 C-103.85017578 565.53876953 -104.43863281 565.11660156 -105.04492188 564.68164062 C-105.94307617 564.02518555 -105.94307617 564.02518555 -106.859375 563.35546875 C-107.75172852 562.71641602 -107.75172852 562.71641602 -108.66210938 562.06445312 C-112.55459979 559.25250103 -116.34969002 556.38020837 -119.921875 553.16796875 C-119.921875 552.50796875 -119.921875 551.84796875 -119.921875 551.16796875 C-120.685 550.89984375 -121.448125 550.63171875 -122.234375 550.35546875 C-124.81176118 549.2166237 -126.19142364 548.35380204 -127.921875 546.16796875 C-127.921875 545.50796875 -127.921875 544.84796875 -127.921875 544.16796875 C-128.911875 543.83796875 -129.901875 543.50796875 -130.921875 543.16796875 C-130.921875 542.50796875 -130.921875 541.84796875 -130.921875 541.16796875 C-131.581875 541.16796875 -132.241875 541.16796875 -132.921875 541.16796875 C-132.921875 540.50796875 -132.921875 539.84796875 -132.921875 539.16796875 C-133.911875 538.83796875 -134.901875 538.50796875 -135.921875 538.16796875 C-135.921875 537.50796875 -135.921875 536.84796875 -135.921875 536.16796875 C-136.581875 536.16796875 -137.241875 536.16796875 -137.921875 536.16796875 C-142.921875 530.69177827 -142.921875 530.69177827 -142.921875 528.16796875 C-143.581875 528.16796875 -144.241875 528.16796875 -144.921875 528.16796875 C-146.16772461 526.81713867 -146.16772461 526.81713867 -147.57421875 524.8984375 C-148.09798096 524.18421631 -148.62174316 523.46999512 -149.16137695 522.73413086 C-149.72171631 521.94917236 -150.28205566 521.16421387 -150.859375 520.35546875 C-151.43840576 519.5466626 -152.01743652 518.73785645 -152.61401367 517.90454102 C-163.53010769 502.40634596 -174.46575433 484.7613875 -179.3515625 466.26953125 C-179.96281554 463.86950643 -179.96281554 463.86950643 -181.359375 460.48046875 C-183.78798461 454.24100895 -185.26036048 447.64534514 -186.921875 441.16796875 C-187.59130127 441.14814941 -188.26072754 441.12833008 -188.95043945 441.10791016 C-192.04541471 441.01141709 -195.13982599 440.90225241 -198.234375 440.79296875 C-199.28689453 440.76203125 -200.33941406 440.73109375 -201.42382812 440.69921875 C-217.91119198 440.09045455 -235.03806136 436.19842637 -247.921875 425.16796875 C-247.921875 424.50796875 -247.921875 423.84796875 -247.921875 423.16796875 C-248.6025 423.00296875 -249.283125 422.83796875 -249.984375 422.66796875 C-254.33670608 420.44550181 -256.89164391 416.93033621 -259.921875 413.16796875 C-260.57929688 412.39582031 -261.23671875 411.62367188 -261.9140625 410.828125 C-278.79667999 388.4602991 -278.3569283 356.95900873 -274.75 330.44140625 C-274.03121451 327.60016928 -273.13019176 325.46579562 -271.90161133 322.83740234 C-269.28006652 316.32627047 -269.37280852 310.12342873 -269.41796875 303.18359375 C-269.41057159 301.8381011 -269.40100736 300.49261885 -269.38941956 299.14715576 C-269.35751753 294.90402886 -269.35768173 290.66119205 -269.359375 286.41796875 C-269.34990416 268.16082797 -269.25331933 250.19080524 -265.921875 232.16796875 C-265.72804733 231.11678864 -265.72804733 231.11678864 -265.53030396 230.04437256 C-264.7128812 225.74383333 -263.75707358 221.48632918 -262.734375 217.23046875 C-262.43249268 215.96323975 -262.13061035 214.69601074 -261.81958008 213.39038086 C-256.19129367 190.46892837 -247.98711076 166.84251525 -235.484375 146.69921875 C-233.91611826 144.15864283 -232.54403311 141.56872874 -231.171875 138.91796875 C-227.40040451 131.93114273 -222.79273849 125.51673785 -218.22753906 119.03466797 C-217.04366314 117.34208844 -215.88368697 115.63285443 -214.7265625 113.921875 C-214.11039063 113.01308594 -213.49421875 112.10429688 -212.859375 111.16796875 C-212.06853516 109.99234375 -212.06853516 109.99234375 -211.26171875 108.79296875 C-210.81957031 108.25671875 -210.37742188 107.72046875 -209.921875 107.16796875 C-209.261875 107.16796875 -208.601875 107.16796875 -207.921875 107.16796875 C-207.6640625 106.6059375 -207.40625 106.04390625 -207.140625 105.46484375 C-205.78017723 102.90092296 -204.19398538 100.7157051 -202.421875 98.41796875 C-201.8134375 97.61875 -201.205 96.81953125 -200.578125 95.99609375 C-199.75828125 95.09117188 -199.75828125 95.09117188 -198.921875 94.16796875 C-198.261875 94.16796875 -197.601875 94.16796875 -196.921875 94.16796875 C-196.55932617 93.3186377 -196.55932617 93.3186377 -196.18945312 92.45214844 C-194.67091683 89.71574135 -192.85035619 87.83727537 -190.640625 85.62109375 C-189.79886719 84.77675781 -188.95710937 83.93242188 -188.08984375 83.0625 C-187.20941406 82.18980469 -186.32898438 81.31710938 -185.421875 80.41796875 C-184.54144531 79.52980469 -183.66101563 78.64164062 -182.75390625 77.7265625 C-181.91214844 76.88738281 -181.07039062 76.04820313 -180.203125 75.18359375 C-179.43033203 74.41305664 -178.65753906 73.64251953 -177.86132812 72.84863281 C-175.921875 71.16796875 -175.921875 71.16796875 -173.921875 71.16796875 C-173.921875 70.50796875 -173.921875 69.84796875 -173.921875 69.16796875 C-171.87541047 67.39698983 -169.82217387 65.74225092 -167.671875 64.10546875 C-167.03725342 63.61594727 -166.40263184 63.12642578 -165.7487793 62.62207031 C-163.81114243 61.13117109 -161.86667433 59.64950575 -159.921875 58.16796875 C-158.8499972 57.3414871 -157.77836358 56.51468861 -156.70703125 55.6875 C-150.31732262 50.80915478 -143.79316048 46.33764894 -136.921875 42.16796875 C-135.99979248 41.60142578 -135.99979248 41.60142578 -135.05908203 41.0234375 C-125.27032142 35.02594741 -115.32825116 29.79243255 -104.86572266 25.07373047 C-102.88291951 24.14981692 -100.94636075 23.1579912 -99.00390625 22.15234375 C-94.68539629 19.97707095 -90.24194076 18.35683151 -85.671875 16.79296875 C-84.81070068 16.49551758 -83.94952637 16.19806641 -83.06225586 15.89160156 C-73.76137114 12.71564855 -64.38238503 9.82893854 -54.921875 7.16796875 C-53.83261719 6.85988281 -52.74335938 6.55179687 -51.62109375 6.234375 C-41.5436083 3.65827607 -31.14079266 2.69603958 -20.8269043 1.50927734 C-18.61204358 1.24905587 -16.40149829 0.95182457 -14.19360352 0.63793945 C-9.46130195 0.04683266 -4.7641014 0.00602257 0 0 Z M-60.921875 53.16796875 C-62.46343836 53.68520383 -64.00510612 54.20212786 -65.546875 54.71875 C-83.80350384 60.99672871 -101.11087782 69.44694492 -117.21484375 80.07763672 C-120.05278882 81.89031731 -122.98415118 83.5229933 -125.921875 85.16796875 C-125.921875 85.82796875 -125.921875 86.48796875 -125.921875 87.16796875 C-126.78619141 87.56822266 -126.78619141 87.56822266 -127.66796875 87.9765625 C-131.79994723 90.16071057 -135.28163173 93.25914994 -138.921875 96.16796875 C-140.12650391 97.09029297 -140.12650391 97.09029297 -141.35546875 98.03125 C-153.47881707 107.53433125 -166.51338794 119.14193964 -174.921875 132.16796875 C-174.921875 132.82796875 -174.921875 133.48796875 -174.921875 134.16796875 C-175.581875 134.16796875 -176.241875 134.16796875 -176.921875 134.16796875 C-178.70218591 136.38373009 -180.35523669 138.59523691 -181.984375 140.91796875 C-182.44392578 141.5521875 -182.90347656 142.18640625 -183.37695312 142.83984375 C-185.58925311 145.95850452 -187.15279897 148.37296024 -187.921875 152.16796875 C-188.581875 152.16796875 -189.241875 152.16796875 -189.921875 152.16796875 C-190.44974609 153.15023437 -190.44974609 153.15023437 -190.98828125 154.15234375 C-193.60474337 158.98904135 -196.27717349 163.74244136 -199.171875 168.41796875 C-210.89900006 188.4062019 -217.75459018 210.7253319 -222.921875 233.16796875 C-223.22222656 234.44929687 -223.52257812 235.730625 -223.83203125 237.05078125 C-226.55199281 249.92617718 -227.12061405 263.06008763 -227.921875 276.16796875 C-226.42140625 275.95140625 -226.42140625 275.95140625 -224.890625 275.73046875 C-213.23803503 274.06915572 -201.67369218 272.80959095 -189.921875 272.16796875 C-189.81230469 270.97042969 -189.70273438 269.77289063 -189.58984375 268.5390625 C-185.86721667 229.5782487 -172.78647218 192.17466806 -148.12109375 161.40478516 C-145.67816208 158.62881326 -145.67816208 158.62881326 -144.921875 155.16796875 C-144.261875 155.16796875 -143.601875 155.16796875 -142.921875 155.16796875 C-141.61915562 153.64914405 -140.38153662 152.07440257 -139.171875 150.48046875 C-135.27083176 145.5866641 -131.08466456 141.28315853 -126.484375 137.04296875 C-125.86916992 136.47489502 -125.25396484 135.90682129 -124.62011719 135.3215332 C-120.21999031 131.31702641 -120.21999031 131.31702641 -117.921875 130.16796875 C-117.921875 129.50796875 -117.921875 128.84796875 -117.921875 128.16796875 C-117.37144531 127.91660156 -116.82101562 127.66523437 -116.25390625 127.40625 C-113.50406402 125.94611602 -111.11237352 124.2070504 -108.609375 122.35546875 C-107.63226563 121.64003906 -106.65515625 120.92460938 -105.6484375 120.1875 C-104.11368596 119.05072844 -102.58355019 117.90744437 -101.0703125 116.7421875 C-96.63459725 113.38808755 -91.83116998 111.06387053 -86.8359375 108.640625 C-84.3934168 107.40626802 -82.14295793 106.10436372 -79.859375 104.60546875 C-68.88605427 97.60831079 -56.23614076 94.06158291 -43.921875 90.16796875 C-42.87644531 89.83539063 -41.83101562 89.5028125 -40.75390625 89.16015625 C9.31651195 74.41073073 65.71567645 83.04160411 111.25390625 107.30200195 C119.84262398 112.01115684 128.28601815 117.23495108 135.8671875 123.45703125 C137.87580473 125.37197011 137.87580473 125.37197011 140.078125 125.16796875 C140.078125 125.82796875 140.078125 126.48796875 140.078125 127.16796875 C141.54622005 128.47950638 143.08008284 129.7179095 144.640625 130.91796875 C145.55585937 131.6346875 146.47109375 132.35140625 147.4140625 133.08984375 C148.29320312 133.775625 149.17234375 134.46140625 150.078125 135.16796875 C157.78603719 141.32211208 163.75410108 148.56425671 169.59765625 156.48046875 C170.08621094 157.03734375 170.57476563 157.59421875 171.078125 158.16796875 C171.738125 158.16796875 172.398125 158.16796875 173.078125 158.16796875 C173.30886719 158.6784375 173.53960938 159.18890625 173.77734375 159.71484375 C175.5791581 163.11285999 177.73629293 166.23530743 179.890625 169.41796875 C180.801365 170.77825518 181.71152864 172.13892769 182.62109375 173.5 C183.93195669 175.45869876 185.24547327 177.41525767 186.56640625 179.3671875 C202.00023487 202.96874673 210.26226097 230.49691675 214.078125 258.16796875 C214.28519391 259.60434951 214.49347927 261.04055557 214.703125 262.4765625 C215.17140859 265.70576807 215.62791252 268.93621322 216.078125 272.16796875 C216.84366699 272.21808105 217.60920898 272.26819336 218.39794922 272.31982422 C221.91683205 272.55406231 225.43494235 272.79844776 228.953125 273.04296875 C230.15710938 273.12160156 231.36109375 273.20023438 232.6015625 273.28125 C239.5674158 273.77340268 246.27650856 274.56724181 253.078125 276.16796875 C253.9810282 244.96764723 245.9398701 213.48573141 233.078125 185.16796875 C232.78292969 184.50812988 232.48773437 183.84829102 232.18359375 183.16845703 C228.75444616 175.52972337 225.38616809 168.08454226 220.4921875 161.25390625 C218.89251261 158.89416483 217.62892316 156.4541618 216.328125 153.91796875 C210.94473341 143.85397821 203.15751464 135.156377 195.890625 126.41015625 C194.078125 124.16796875 194.078125 124.16796875 192.078125 121.16796875 C191.418125 121.16796875 190.758125 121.16796875 190.078125 121.16796875 C190.078125 120.50796875 190.078125 119.84796875 190.078125 119.16796875 C188.45973781 117.45438232 186.78140819 115.79719615 185.078125 114.16796875 C184.0155741 113.06385107 182.95307385 111.95968463 181.890625 110.85546875 C179.4854767 107.93768283 179.4854767 107.93768283 177.078125 108.16796875 C177.078125 107.50796875 177.078125 106.84796875 177.078125 106.16796875 C171.97045665 100.90087633 165.81298318 96.51760483 160.015625 92.04296875 C159.25185547 91.44871094 158.48808594 90.85445312 157.70117188 90.2421875 C155.50268746 88.53831506 153.29377565 86.84943932 151.078125 85.16796875 C150.41441895 84.65911133 149.75071289 84.15025391 149.06689453 83.62597656 C145.47149439 80.83160845 145.47149439 80.83160845 141.078125 80.16796875 C141.078125 79.50796875 141.078125 78.84796875 141.078125 78.16796875 C138.05348528 76.49592072 135.01862587 74.8434479 131.97851562 73.19970703 C130.64437421 72.47539028 129.31253572 71.74682329 127.98242188 71.01513672 C116.64558648 64.78880389 105.29815183 59.42561246 93.078125 55.16796875 C92.41780273 54.93770996 91.75748047 54.70745117 91.07714844 54.47021484 C83.12785733 51.74924956 75.04465819 49.55922218 66.890625 47.54296875 C66.12709717 47.34880371 65.36356934 47.15463867 64.5769043 46.95458984 C47.82182329 42.96343104 30.94431687 41.58297478 13.765625 41.66796875 C12.82122559 41.6693988 11.87682617 41.67082886 10.90380859 41.67230225 C-13.77610977 41.76399716 -37.54778617 44.9311431 -60.921875 53.16796875 Z M-32.046875 129.98046875 C-32.87888428 130.23763672 -33.71089355 130.49480469 -34.56811523 130.75976562 C-54.57060652 137.06846503 -73.7791963 146.58563754 -89.921875 160.16796875 C-89.921875 160.82796875 -89.921875 161.48796875 -89.921875 162.16796875 C-90.50453125 162.43609375 -91.0871875 162.70421875 -91.6875 162.98046875 C-93.94974101 164.18277866 -95.72763818 165.50622788 -97.671875 167.16796875 C-98.28546875 167.68359375 -98.8990625 168.19921875 -99.53125 168.73046875 C-101.15363876 170.07420127 -101.15363876 170.07420127 -100.921875 172.16796875 C-101.581875 172.16796875 -102.241875 172.16796875 -102.921875 172.16796875 C-108.08818506 176.87023898 -112.15240254 182.99149994 -116.359375 188.54296875 C-116.90384277 189.25710937 -117.44831055 189.97125 -118.00927734 190.70703125 C-118.51539551 191.3825 -119.02151367 192.05796875 -119.54296875 192.75390625 C-120.23024048 193.6672876 -120.23024048 193.6672876 -120.93139648 194.59912109 C-122.0998248 196.14060329 -122.0998248 196.14060329 -121.921875 198.16796875 C-122.581875 198.16796875 -123.241875 198.16796875 -123.921875 198.16796875 C-124.30859375 198.88082031 -124.6953125 199.59367187 -125.09375 200.328125 C-125.61453125 201.28589844 -126.1353125 202.24367188 -126.671875 203.23046875 C-127.18234375 204.17019531 -127.6928125 205.10992187 -128.21875 206.078125 C-129.42404278 208.2647915 -130.66911524 210.42974965 -131.94140625 212.578125 C-133.95342486 216.09362475 -135.4725391 219.74247271 -136.859375 223.54296875 C-137.11243408 224.23068359 -137.36549316 224.91839844 -137.6262207 225.62695312 C-142.30741745 238.57899671 -145.72958491 251.56984511 -147.921875 265.16796875 C-148.09678467 266.25198975 -148.27169434 267.33601074 -148.4519043 268.45288086 C-148.91122355 272.08376971 -149.03578636 275.53791355 -149.01953125 279.1953125 C-149.01630859 280.48115234 -149.01308594 281.76699219 -149.00976562 283.09179688 C-149.00141302 284.4296882 -148.99294811 285.76757882 -148.984375 287.10546875 C-148.97935159 288.47070149 -148.97479017 289.83593601 -148.97070312 291.20117188 C-148.95896351 294.52348332 -148.94254179 297.84570283 -148.921875 301.16796875 C-127.11958644 301.61090464 -105.5851538 300.37261239 -84.25048828 295.67822266 C-82.10196152 295.20742994 -79.94952959 294.76808575 -77.79296875 294.3359375 C-64.84282928 291.62982018 -52.38693594 287.18309116 -39.90679932 282.85464478 C-37.71982809 282.09807149 -35.53050054 281.3485106 -33.34130859 280.59838867 C-21.16072447 276.40325249 -9.1528266 271.83739402 2.828125 267.10546875 C39.12465888 252.81307545 39.12465888 252.81307545 48.765625 250.35546875 C49.56323242 250.15026611 50.36083984 249.94506348 51.18261719 249.73364258 C57.81080824 248.10063904 64.24506808 247.28621695 71.078125 247.16796875 C72.25503906 247.12929687 73.43195313 247.090625 74.64453125 247.05078125 C87.73595936 246.80506101 100.58937062 248.09362335 113.078125 252.16796875 C114.14160156 252.50570312 115.20507812 252.8434375 116.30078125 253.19140625 C135.85946862 259.7624196 153.34159487 270.87751795 170.734375 281.76953125 C172.76637597 283.25336699 172.76637597 283.25336699 174.078125 283.16796875 C174.59375803 267.73717292 172.49788615 253.98591193 168.078125 239.16796875 C167.78035156 238.10835938 167.48257812 237.04875 167.17578125 235.95703125 C165.13108945 228.91146674 162.5949136 222.59661729 159.078125 216.16796875 C158.62566406 215.30816406 158.17320312 214.44835937 157.70703125 213.5625 C152.37898336 203.55616616 146.67782484 193.79085461 139.5234375 184.97265625 C138.078125 183.16796875 138.078125 183.16796875 136.078125 180.16796875 C135.418125 180.16796875 134.758125 180.16796875 134.078125 180.16796875 C133.871875 179.636875 133.665625 179.10578125 133.453125 178.55859375 C131.49851308 175.16023439 128.85688783 172.65740947 126.078125 169.91796875 C125.25828125 169.08652344 125.25828125 169.08652344 124.421875 168.23828125 C121.75211732 165.175811 121.75211732 165.175811 118.078125 164.16796875 C118.078125 163.50796875 118.078125 162.84796875 118.078125 162.16796875 C115.82892266 160.23132586 113.57948143 158.43815407 111.203125 156.66796875 C110.48858154 156.13478027 109.77403809 155.6015918 109.0378418 155.05224609 C81.84714582 135.23165206 49.30991151 123.75659072 15.65039062 123.85229492 C13.3445662 123.85544628 11.04004138 123.83192636 8.734375 123.80664062 C-5.27080109 123.74593829 -18.66137284 125.75120595 -32.046875 129.98046875 Z M44.953125 295.56640625 C40.93016698 297.26384823 36.83257236 298.69135856 32.703125 300.10546875 C26.01418562 302.41041523 19.49714649 305.01917575 12.97900391 307.76660156 C8.51903357 309.62831792 4.08084228 311.17326872 -0.58666992 312.44555664 C-2.78579272 313.12587074 -4.7376242 313.95614534 -6.8125 314.9453125 C-13.09754778 317.78403328 -19.62786575 319.88977135 -26.171875 322.04296875 C-26.83382874 322.26173676 -27.49578247 322.48050476 -28.17779541 322.7059021 C-43.73538775 327.84007131 -59.25862415 332.52037537 -75.296875 335.91796875 C-76.23515137 336.11688721 -77.17342773 336.31580566 -78.14013672 336.52075195 C-94.18362566 339.77552765 -110.04288462 340.68778517 -126.359375 341.29296875 C-128.55536384 341.3795693 -130.75132775 341.46680425 -132.94726562 341.5546875 C-138.27187055 341.76642089 -143.59672838 341.97035315 -148.921875 342.16796875 C-148.96859681 350.88810188 -149.00394367 359.60819071 -149.02549934 368.32842255 C-149.0358546 372.37931295 -149.04985906 376.43011656 -149.07275391 380.48095703 C-149.09478171 384.40377126 -149.10650535 388.326503 -149.11162949 392.24937439 C-149.11527238 393.73218583 -149.12238235 395.21499371 -149.13333511 396.69776917 C-149.23382119 410.89004091 -148.07787613 424.65086042 -144.109375 438.35546875 C-143.8422168 439.29688721 -143.57505859 440.23830566 -143.29980469 441.20825195 C-138.24057297 458.71204799 -130.55942256 475.31554385 -119.921875 490.16796875 C-119.16943934 491.35392694 -118.41920504 492.54128665 -117.671875 493.73046875 C-117.094375 494.53484375 -116.516875 495.33921875 -115.921875 496.16796875 C-115.261875 496.16796875 -114.601875 496.16796875 -113.921875 496.16796875 C-113.6640625 496.73 -113.40625 497.29203125 -113.140625 497.87109375 C-111.78017723 500.43501454 -110.19398538 502.6202324 -108.421875 504.91796875 C-107.8134375 505.7171875 -107.205 506.51640625 -106.578125 507.33984375 C-106.0315625 507.943125 -105.485 508.54640625 -104.921875 509.16796875 C-104.261875 509.16796875 -103.601875 509.16796875 -102.921875 509.16796875 C-102.921875 509.82796875 -102.921875 510.48796875 -102.921875 511.16796875 C-102.261875 511.16796875 -101.601875 511.16796875 -100.921875 511.16796875 C-100.591875 512.15796875 -100.261875 513.14796875 -99.921875 514.16796875 C-99.261875 514.16796875 -98.601875 514.16796875 -97.921875 514.16796875 C-97.921875 514.82796875 -97.921875 515.48796875 -97.921875 516.16796875 C-74.60668811 538.24602327 -43.63369687 553.14645546 -11.98876953 557.859375 C-10.01472376 558.15410614 -8.04432338 558.47295175 -6.07421875 558.79296875 C14.37040837 561.88868516 36.27303081 560.31057794 56.078125 554.16796875 C57.26277344 553.80832031 58.44742188 553.44867187 59.66796875 553.078125 C72.15484376 549.16759343 83.72673622 543.64493764 95.078125 537.16796875 C96.0371875 536.6265625 96.99625 536.08515625 97.984375 535.52734375 C99.36109375 534.73070312 99.36109375 534.73070312 100.765625 533.91796875 C101.59449219 533.4384375 102.42335938 532.95890625 103.27734375 532.46484375 C103.87160156 532.036875 104.46585938 531.60890625 105.078125 531.16796875 C105.078125 530.50796875 105.078125 529.84796875 105.078125 529.16796875 C106.068125 529.16796875 107.058125 529.16796875 108.078125 529.16796875 C108.078125 528.50796875 108.078125 527.84796875 108.078125 527.16796875 C108.614375 526.92046875 109.150625 526.67296875 109.703125 526.41796875 C112.64973919 524.86711918 115.35730066 523.08491317 118.078125 521.16796875 C118.078125 520.83796875 118.078125 520.50796875 118.078125 520.16796875 C117.51343506 520.16650219 116.94874512 520.16503563 116.36694336 520.16352463 C102.60275147 520.12641184 88.83880799 520.06708721 75.07481384 519.98406601 C68.41850407 519.94458375 61.7623794 519.91239878 55.10595703 519.89697266 C48.6802445 519.88181136 42.25489608 519.84737408 35.8293457 519.79965973 C33.37983365 519.7848407 30.93026962 519.77692744 28.48071289 519.7760849 C25.04534236 519.7737152 21.610978 519.7466329 18.17578125 519.71386719 C17.16661148 519.71889755 16.15744171 519.72392792 15.11769104 519.72911072 C8.95116074 519.63832062 4.21602042 518.71834417 -0.921875 515.16796875 C-6.75887081 509.02376264 -7.43530373 503.9831839 -7.296875 495.66015625 C-6.77362474 490.78738822 -5.40295625 487.61432599 -1.921875 484.16796875 C3.08035769 480.43544939 7.73050216 479.03893625 13.90327454 479.07704163 C15.11877991 479.08170441 16.33428528 479.08636719 17.58662415 479.09117126 C18.93576058 479.10121554 20.28489693 479.11127147 21.6340332 479.12133789 C23.05329128 479.12812777 24.47255222 479.13433921 25.89181519 479.14001465 C28.94966571 479.15247172 32.00749658 479.16706463 35.06533241 479.18269539 C39.90214133 479.20540865 44.7388724 479.21109239 49.57572937 479.21202087 C50.80017941 479.21229352 50.80017941 479.21229352 52.04936582 479.21257168 C55.41691284 479.21302155 58.78445971 479.21293931 62.15200675 479.21273625 C71.71482298 479.21300106 81.27698465 479.22977071 90.83959961 479.29467773 C98.43524232 479.3461184 106.03003803 479.36232046 113.62582654 479.33721632 C117.645244 479.32527158 121.66285366 479.33120633 125.68203163 479.37989998 C129.46434166 479.42533792 133.24377409 479.42402079 137.02614975 479.38715363 C138.41208815 479.38189148 139.79821454 479.39366345 141.18383217 479.42394066 C145.335654 479.50907166 149.11117673 479.4512294 153.078125 478.16796875 C155.9946011 475.16932886 157.55910362 472.03335925 159.078125 468.16796875 C159.53477539 467.1833667 159.99142578 466.19876465 160.46191406 465.18432617 C160.75291992 464.38873291 161.04392578 463.59313965 161.34375 462.7734375 C161.67632813 461.88076172 162.00890625 460.98808594 162.3515625 460.06835938 C162.67382812 459.17310547 162.99609375 458.27785156 163.328125 457.35546875 C163.99985788 455.53640585 164.67172835 453.71739374 165.34375 451.8984375 C165.63024414 451.10848389 165.91673828 450.31853027 166.21191406 449.50463867 C166.8290715 447.83980953 167.47411354 446.18520549 168.13769531 444.53833008 C169.1674717 441.94276961 169.8939227 439.37503004 170.578125 436.66796875 C170.93390625 435.29125 170.93390625 435.29125 171.296875 433.88671875 C174.76915887 417.35864752 175.03202467 400.74219197 175.33044338 383.917099 C175.41782613 379.04813218 175.54628643 374.18791671 175.7722168 369.32324219 C177.67337806 349.01876793 177.67337806 349.01876793 172.1038208 330.20019531 C167.31550323 325.69578799 161.9920611 323.37305404 155.83477783 321.27905273 C151.86621451 319.67950161 148.64801735 317.30432338 145.23091125 314.76123047 C142.34036939 312.6219611 139.34563519 310.91631974 136.203125 309.16796875 C134.99957521 308.49555143 133.79645755 307.82236012 132.59375 307.1484375 C132.00400391 306.8189209 131.41425781 306.4894043 130.80664062 306.14990234 C128.15785453 304.64518233 125.56130154 303.05425067 122.953125 301.48046875 C117.2041129 298.11538034 111.28390352 295.56364678 105.078125 293.16796875 C103.99917969 292.72130859 103.99917969 292.72130859 102.8984375 292.265625 C83.808117 284.56049564 63.43186792 287.72759194 44.953125 295.56640625 Z M-225.0859375 324.1640625 C-233.69611221 333.5619766 -234.40997918 343.29596352 -234.296875 355.60546875 C-234.30847656 356.86423828 -234.32007813 358.12300781 -234.33203125 359.41992188 C-234.29900598 369.9714971 -232.86417167 379.82644949 -225.921875 388.16796875 C-215.1810048 398.14001877 -205.83609885 398.16796875 -190.921875 398.16796875 C-190.921875 370.44796875 -190.921875 342.72796875 -190.921875 314.16796875 C-210.14672117 314.14026988 -210.14672117 314.14026988 -225.0859375 324.1640625 Z M217.078125 314.16796875 C217.078125 341.88796875 217.078125 369.60796875 217.078125 398.16796875 C236.34129303 398.17012018 236.34129303 398.17012018 251.078125 388.16796875 C251.078125 387.50796875 251.078125 386.84796875 251.078125 386.16796875 C252.068125 385.83796875 253.058125 385.50796875 254.078125 385.16796875 C259.85855247 377.19987817 259.82823836 368.27189512 259.67504883 358.87890625 C259.6405687 356.5391483 259.65448431 354.20314864 259.67382812 351.86328125 C259.66629068 343.98691115 259.41424835 337.01262469 255.078125 330.16796875 C254.65007568 329.48259033 254.22202637 328.79721191 253.78100586 328.09106445 C252.35344185 325.89171539 252.35344185 325.89171539 250.078125 323.16796875 C249.418125 323.16796875 248.758125 323.16796875 248.078125 323.16796875 C248.078125 322.50796875 248.078125 321.84796875 248.078125 321.16796875 C246.72956733 320.36678483 245.37390757 319.57755267 244.015625 318.79296875 C243.26152344 318.35210937 242.50742187 317.91125 241.73046875 317.45703125 C233.05321954 313.23981146 227.25888656 314.16796875 217.078125 314.16796875 Z M247.890625 437.10546875 C240.47154325 439.90823297 231.90750432 439.45693373 224.078125 439.73046875 C222.92183594 439.77365234 221.76554688 439.81683594 220.57421875 439.86132812 C217.74228646 439.96664792 214.91027753 440.06877962 212.078125 440.16796875 C211.92778809 440.750625 211.77745117 441.33328125 211.62255859 441.93359375 C210.90823053 444.68076018 210.18067431 447.42427535 209.453125 450.16796875 C209.21722656 451.08320313 208.98132813 451.9984375 208.73828125 452.94140625 C206.43122008 461.57809677 203.30675295 469.8435227 200.078125 478.16796875 C206.0553918 478.31694204 212.03156442 478.42547987 218.01025391 478.49755859 C220.04137002 478.52762286 222.07235747 478.56848658 224.10302734 478.62060547 C227.03255029 478.69387946 229.96034885 478.72752851 232.890625 478.75390625 C233.78990723 478.78487396 234.68918945 478.81584167 235.61572266 478.8477478 C241.53056355 478.85086365 244.88140977 477.56227699 249.4909668 473.85049438 C253.31972026 469.79168295 253.31675234 466.23501417 253.2734375 460.77734375 C253.26919266 459.72042328 253.26919266 459.72042328 253.26486206 458.64215088 C253.25370301 456.40058115 253.22860693 454.15941689 253.203125 451.91796875 C253.19308964 450.39453704 253.18396476 448.87109904 253.17578125 447.34765625 C253.15377791 443.62096289 253.11927772 439.89450542 253.078125 436.16796875 C250.14104267 435.9710091 250.14104267 435.9710091 247.890625 437.10546875 Z M-53.921875 590.16796875 C-54.17002534 595.73608064 -54.35094228 601.30094666 -54.47119141 606.87329102 C-54.52133027 608.76611404 -54.58946608 610.65855257 -54.67626953 612.55004883 C-55.5896792 623.26063779 -55.5896792 623.26063779 -51.90405273 632.83813477 C-49.31824736 634.65421203 -46.81994887 635.92254419 -43.921875 637.16796875 C-42.65868041 637.97787201 -41.41236054 638.81521879 -40.19140625 639.6875 C-39.03983131 640.45298077 -37.88747857 641.21729263 -36.734375 641.98046875 C-36.10200928 642.40078369 -35.46964355 642.82109863 -34.81811523 643.25415039 C-32.22699646 644.97632962 -29.63406284 646.69576529 -27.04101562 648.41503906 C-19.87512256 653.16838963 -12.74460573 657.96431381 -5.671875 662.85546875 C0.48675642 667.11391431 6.71551176 671.2182957 13.078125 675.16796875 C13.54484619 674.85682129 14.01156738 674.54567383 14.49243164 674.22509766 C15.90005258 673.28668369 17.30768735 672.34829046 18.71533203 671.40991211 C20.35052306 670.31972989 21.98561201 669.22939452 23.62060547 668.13891602 C27.42836511 665.59954749 31.23676955 663.06122086 35.05078125 660.53125 C42.10198016 655.85035092 49.10162241 651.10229301 56.06738281 646.29516602 C60.83832416 643.00767093 65.6344497 639.76008821 70.453125 636.54296875 C71.08992188 636.11693359 71.72671875 635.69089844 72.3828125 635.25195312 C76.83003932 632.29201159 76.83003932 632.29201159 79.078125 631.16796875 C79.078125 617.96796875 79.078125 604.76796875 79.078125 591.16796875 C71.40100603 592.65750411 71.40100603 592.65750411 63.953125 594.60546875 C47.27851656 599.2517175 30.68202232 600.38107559 13.453125 600.35546875 C12.70078583 600.3548645 11.94844666 600.35426025 11.17330933 600.3536377 C-11.48018167 600.30426991 -32.30896078 597.02967653 -53.921875 590.16796875 Z M-88.296875 667.79296875 C-98.76721668 671.17432555 -109.32800078 674.20022077 -119.921875 677.16796875 C-118.44026518 682.17425035 -116.28377607 686.48881475 -113.796875 691.04296875 C-110.73663276 696.73386964 -107.73477209 702.44379489 -104.859375 708.23046875 C-104.37416382 709.20693359 -104.37416382 709.20693359 -103.87915039 710.203125 C-103.22522772 711.52106325 -102.57182611 712.83926016 -101.91894531 714.15771484 C-100.19972161 717.62394598 -98.46618897 721.08301597 -96.734375 724.54296875 C-96.07415467 725.86324921 -95.41399634 727.18356067 -94.75390625 728.50390625 C-94.28911865 729.43348145 -94.28911865 729.43348145 -93.81494141 730.38183594 C-90.8684082 736.27490234 -90.8684082 736.27490234 -87.921875 742.16796875 C-85.941875 741.67296875 -85.941875 741.67296875 -83.921875 741.16796875 C-83.921875 740.50796875 -83.921875 739.84796875 -83.921875 739.16796875 C-83.23867188 738.93078125 -82.55546875 738.69359375 -81.8515625 738.44921875 C-78.30527937 736.89831093 -75.22673837 734.84572363 -72.046875 732.66796875 C-70.70453812 731.76025245 -69.36208704 730.85270499 -68.01953125 729.9453125 C-66.99690186 729.25091064 -66.99690186 729.25091064 -65.95361328 728.54248047 C-63.42086037 726.8290223 -60.87299847 725.13906337 -58.32397461 723.44995117 C-51.68010804 719.04568926 -45.09377262 714.56324628 -38.55102539 710.01000977 C-34.09203874 706.92105417 -29.54416793 704.00643223 -24.921875 701.16796875 C-27.67358251 698.21243105 -30.34157799 696.0523356 -33.921875 694.16796875 C-34.581875 694.16796875 -35.241875 694.16796875 -35.921875 694.16796875 C-35.921875 693.50796875 -35.921875 692.84796875 -35.921875 692.16796875 C-37.99791592 690.63802362 -37.99791592 690.63802362 -40.609375 689.16796875 C-41.47949219 688.65234375 -42.34960938 688.13671875 -43.24609375 687.60546875 C-45.75834695 686.25582032 -48.25391415 685.16785318 -50.921875 684.16796875 C-50.921875 683.50796875 -50.921875 682.84796875 -50.921875 682.16796875 C-52.97744179 680.70231314 -55.02407206 679.36132539 -57.171875 678.04296875 C-58.45516772 677.24076693 -59.73770607 676.4373572 -61.01953125 675.6328125 C-61.67066895 675.22530762 -62.32180664 674.81780273 -62.99267578 674.39794922 C-66.89925855 671.90726787 -70.69063181 669.24324311 -74.49609375 666.6015625 C-79.20808926 663.81685662 -83.47531335 666.20767782 -88.296875 667.79296875 Z M99.078125 667.16796875 C99.078125 667.82796875 99.078125 668.48796875 99.078125 669.16796875 C98.35882813 669.42449219 97.63953125 669.68101562 96.8984375 669.9453125 C93.91399352 671.2391227 91.57369063 672.81112481 88.953125 674.73046875 C86.24312447 676.71148737 84.2742763 678.10258498 81.078125 679.16796875 C81.078125 679.82796875 81.078125 680.48796875 81.078125 681.16796875 C80.40136719 681.40128906 79.72460938 681.63460937 79.02734375 681.875 C75.34633763 683.48879209 72.20262469 685.59581327 68.890625 687.85546875 C68.23441162 688.29810059 67.57819824 688.74073242 66.90209961 689.19677734 C61.5853439 692.79331056 56.31059831 696.44983478 51.078125 700.16796875 C59.77606134 707.41624903 69.47173888 713.50450105 78.828125 719.85546875 C79.93623696 720.60866652 81.04431004 721.3619215 82.15234375 722.11523438 C85.12586339 724.1354256 88.09943093 726.15541436 91.078125 728.16796875 C92.67769043 729.27748901 92.67769043 729.27748901 94.30957031 730.40942383 C96.81285495 732.34669118 96.81285495 732.34669118 99.078125 732.16796875 C99.078125 732.82796875 99.078125 733.48796875 99.078125 734.16796875 C100.08875 734.74546875 101.099375 735.32296875 102.140625 735.91796875 C105.78645833 738.00130208 109.43229167 740.08463542 113.078125 742.16796875 C119.17007175 731.58304608 124.75566548 720.86441774 129.95019531 709.81079102 C133.40262146 702.4930953 137.06902745 695.31659591 140.90625 688.19360352 C141.29425781 687.47100342 141.68226563 686.74840332 142.08203125 686.00390625 C142.42049072 685.3804834 142.7589502 684.75706055 143.10766602 684.11474609 C144.23777368 681.84770748 145.16377102 679.52922094 146.078125 677.16796875 C145.44011963 676.98210205 144.80211426 676.79623535 144.14477539 676.60473633 C142.23141091 676.0472372 140.31808426 675.48960821 138.40478516 674.93188477 C136.22095291 674.29535565 134.03703299 673.65912728 131.85302734 673.02319336 C126.82169354 671.55698891 121.79176954 670.08694078 116.76953125 668.58984375 C115.9902124 668.3580542 115.21089355 668.12626465 114.40795898 667.88745117 C112.9653833 667.45760163 111.52345867 667.02555956 110.08227539 666.59106445 C105.34081976 665.18018061 103.43669825 664.84339635 99.078125 667.16796875 Z M187.078125 690.16796875 C181.59002248 699.88149293 176.21011891 709.60461021 171.515625 719.73046875 C167.0356769 729.3927679 162.10291123 738.77997315 157.078125 748.16796875 C155.53356676 751.06227037 153.99244401 753.95837777 152.453125 756.85546875 C151.90144653 757.89006226 151.90144653 757.89006226 151.33862305 758.94555664 C149.11333427 763.13988284 146.9862896 767.37129686 144.90991211 771.64111328 C136.57671483 788.72267072 136.57671483 788.72267072 129.078125 792.16796875 C122.21425904 794.45592407 114.79538767 793.55632881 108.078125 791.16796875 C108.078125 790.50796875 108.078125 789.84796875 108.078125 789.16796875 C107.10875 788.63171875 106.139375 788.09546875 105.140625 787.54296875 C101.27730614 785.35112662 97.64121876 782.87449178 93.99609375 780.33984375 C92.16829042 778.99417551 92.16829042 778.99417551 90.078125 779.16796875 C89.583125 778.17796875 89.583125 778.17796875 89.078125 777.16796875 C86.91268619 781.94627019 85.28245821 786.63474265 84.02734375 791.734375 C83.84782166 792.44240265 83.66829956 793.1504303 83.4833374 793.87991333 C82.90553794 796.16214949 82.33542252 798.44622297 81.765625 800.73046875 C80.97165254 803.88485136 80.17391318 807.03827171 79.375 810.19140625 C79.17905746 810.96649033 78.98311493 811.7415744 78.78123474 812.54014587 C76.9183432 819.87318521 74.90841744 827.16501568 72.75463867 834.41821289 C70.47895299 842.39985177 70.72563266 849.06507067 72.953125 857.04296875 C74.08163273 861.2142677 75.14300388 865.36465906 75.9609375 869.609375 C77.43863718 877.19984021 79.29020769 884.70846826 81.078125 892.23046875 C81.78731225 895.22115233 82.49555589 898.21205819 83.203125 901.203125 C83.37293884 901.92085587 83.54275269 902.63858673 83.7177124 903.37806702 C84.68909344 907.4926456 85.63615872 911.61083407 86.54101562 915.74047852 C87.9341379 922.03675797 89.38987145 928.31936318 90.828125 934.60546875 C91.00320587 935.37076904 91.17828674 936.13606934 91.3586731 936.92456055 C92.42834196 941.59951341 93.49890415 946.27426117 94.56988525 950.94891357 C95.05394129 953.06237885 95.53754539 955.17594697 96.02099609 957.28955078 C96.85094964 960.91605695 97.68290388 964.54209722 98.515625 968.16796875 C98.7621582 969.24618896 99.00869141 970.32440918 99.26269531 971.43530273 C99.48924805 972.41958252 99.71580078 973.4038623 99.94921875 974.41796875 C100.24203735 975.69414063 100.24203735 975.69414063 100.54077148 976.99609375 C101.08678783 979.32583043 101.08678783 979.32583043 102.078125 982.16796875 C187.878125 982.16796875 273.678125 982.16796875 362.078125 982.16796875 C362.09875 959.17109375 362.119375 936.17421875 362.140625 912.48046875 C362.15428101 901.61620972 362.15428101 901.61620972 362.16821289 890.5324707 C362.17155875 884.00093865 362.17155875 884.00093865 362.17356873 877.46940613 C362.17449478 874.57580284 362.17821984 871.68221817 362.18370056 868.78862 C362.19062508 865.08293109 362.19260418 861.37726877 362.19119728 857.671574 C362.19162809 855.68973113 362.19695725 853.70789111 362.20255375 851.7260561 C362.18930966 840.17104766 361.65637144 828.91727622 358.890625 817.66796875 C358.56288086 816.31578247 358.56288086 816.31578247 358.22851562 814.9362793 C356.33536439 807.49499506 353.64692045 800.97761628 350.078125 794.16796875 C349.72492188 793.36101562 349.37171875 792.5540625 349.0078125 791.72265625 C345.39421185 783.61213036 339.78947666 776.79808909 334.36230469 769.83691406 C333.31896826 768.48097342 332.32032157 767.09073249 331.3359375 765.69140625 C330.92085937 765.18867187 330.50578125 764.6859375 330.078125 764.16796875 C329.418125 764.16796875 328.758125 764.16796875 328.078125 764.16796875 C327.748125 763.17796875 327.418125 762.18796875 327.078125 761.16796875 C326.418125 761.16796875 325.758125 761.16796875 325.078125 761.16796875 C325.078125 760.50796875 325.078125 759.84796875 325.078125 759.16796875 C324.418125 759.16796875 323.758125 759.16796875 323.078125 759.16796875 C322.748125 758.17796875 322.418125 757.18796875 322.078125 756.16796875 C308.09504071 742.6720001 289.89904041 731.26664035 272.51171875 722.83984375 C270.44894745 721.83544544 268.39570736 720.81055865 266.36328125 719.74609375 C247.34149139 709.80225059 226.78788115 702.27667578 206.44482422 695.51831055 C204.41835632 694.84389766 202.39472464 694.16138795 200.37109375 693.47851562 C199.07307845 693.0450881 197.77490727 692.61212708 196.4765625 692.1796875 C195.31817871 691.79256592 194.15979492 691.40544434 192.96630859 691.0065918 C190.09920262 690.02854554 190.09920262 690.02854554 187.078125 690.16796875 Z M8.015625 728.54296875 C6.91541016 729.20425781 6.91541016 729.20425781 5.79296875 729.87890625 C5.22707031 730.30429687 4.66117187 730.7296875 4.078125 731.16796875 C4.078125 731.82796875 4.078125 732.48796875 4.078125 733.16796875 C3.40136719 733.40128906 2.72460938 733.63460937 2.02734375 733.875 C-1.65366237 735.48879209 -4.79737531 737.59581327 -8.109375 739.85546875 C-8.76558838 740.29810059 -9.42180176 740.74073242 -10.09790039 741.19677734 C-15.4146561 744.79331056 -20.68940169 748.44983478 -25.921875 752.16796875 C-25.67953125 753.13734375 -25.4371875 754.10671875 -25.1875 755.10546875 C-25.02765625 755.74500488 -24.8678125 756.38454102 -24.703125 757.04345703 C-24.3440553 758.4794058 -23.98467206 759.9152762 -23.625 761.35107422 C-22.7115691 764.99924746 -21.80224513 768.64828347 -20.90625 772.30078125 C-19.10731901 779.61150129 -17.17379068 786.86483368 -15.06640625 794.09375 C-13.22543892 800.53462297 -11.59892063 807.03603843 -9.93994141 813.52563477 C-9.5694165 814.96507446 -9.5694165 814.96507446 -9.19140625 816.43359375 C-8.97073486 817.29758789 -8.75006348 818.16158203 -8.52270508 819.05175781 C-7.98405528 821.19854273 -7.98405528 821.19854273 -6.921875 823.16796875 C6.278125 823.16796875 19.478125 823.16796875 33.078125 823.16796875 C37.42533113 807.53328004 41.72954765 791.90522061 45.73071289 776.1784668 C47.18424713 770.49181738 48.72752924 764.85909338 50.48510742 759.25830078 C51.30358823 756.37323174 51.65542696 754.12664132 51.078125 751.16796875 C48.68919999 749.28197532 47.15960942 748.16796875 44.078125 748.16796875 C44.078125 747.50796875 44.078125 746.84796875 44.078125 746.16796875 C43.129375 745.65234375 42.180625 745.13671875 41.203125 744.60546875 C38.1839779 742.88196362 35.34886133 740.99417391 32.515625 738.98046875 C28.25007184 735.95245262 23.91160785 733.06385864 19.515625 730.23046875 C18.89550537 729.82868408 18.27538574 729.42689941 17.63647461 729.01293945 C12.81665614 725.87034823 12.81665614 725.87034823 8.015625 728.54296875 Z M-5.921875 865.16796875 C-9.11012243 873.13858732 -10.79728646 881.29210614 -12.296875 889.73046875 C-13.33636052 895.54895077 -14.67217071 901.21857864 -16.234375 906.91796875 C-18.70752803 915.97961649 -20.68093772 925.12055653 -22.61157227 934.3112793 C-24.58826376 943.69786347 -26.70669521 953.04506001 -28.91772461 962.37915039 C-29.26782593 963.86983032 -29.26782593 963.86983032 -29.625 965.390625 C-29.92905762 966.67078491 -29.92905762 966.67078491 -30.23925781 967.97680664 C-31.24626785 972.68447053 -32.06069128 977.43145831 -32.921875 982.16796875 C-2.561875 982.16796875 27.798125 982.16796875 59.078125 982.16796875 C56.73623167 971.62944876 54.38841672 961.11736324 51.8359375 950.6328125 C50.63728419 945.66147471 49.56268147 940.6826145 48.57861328 935.66455078 C47.7360143 931.46142043 46.78283757 927.28432444 45.828125 923.10546875 C45.51041138 921.70893066 45.51041138 921.70893066 45.1862793 920.28417969 C43.24027442 911.7789481 41.20445185 903.29575873 39.13378906 894.82006836 C38.02822311 890.26688227 36.97025492 885.72353157 36.08984375 881.12109375 C34.99249626 875.74875161 33.52086834 870.45802766 32.078125 865.16796875 C19.538125 865.16796875 6.998125 865.16796875 -5.921875 865.16796875 Z " fill="#074CA6" transform="translate(377.921875,-0.16796875)"/>
<path d="M0 0 C0.89984619 -0.0071553 1.79969238 -0.01431061 2.72680664 -0.02168274 C3.71176117 -0.02437164 4.6967157 -0.02706055 5.71151733 -0.02983093 C7.27056793 -0.03968773 7.27056793 -0.03968773 8.8611145 -0.04974365 C12.30783153 -0.06948615 15.75450492 -0.08114265 19.20126343 -0.09111023 C20.37879559 -0.09518576 21.55632774 -0.09926128 22.76954269 -0.10346031 C29.0044309 -0.12432708 35.23929707 -0.13862508 41.47421265 -0.147995 C47.90683181 -0.15904865 54.33910404 -0.19343524 60.77160072 -0.23316669 C65.7233951 -0.25934633 70.67510708 -0.26768816 75.62696457 -0.27127647 C77.99755567 -0.27614046 80.36814314 -0.287749 82.73866653 -0.30631447 C86.06322723 -0.33072911 89.38689395 -0.32973595 92.71151733 -0.32279968 C93.68432648 -0.33560974 94.65713562 -0.3484198 95.65942383 -0.36161804 C103.07055176 -0.30548424 109.18843611 1.32502266 114.97470093 6.11201477 C115.77907593 7.08847961 115.77907593 7.08847961 116.59970093 8.08467102 C117.15657593 8.73306946 117.71345093 9.3814679 118.28720093 10.04951477 C121.27831842 14.82996147 120.97754194 20.68300874 120.59970093 26.14717102 C119.50321327 30.80724357 117.55948799 34.38016931 114.59970093 38.14717102 C113.60970093 38.14717102 112.61970093 38.14717102 111.59970093 38.14717102 C111.59970093 38.80717102 111.59970093 39.46717102 111.59970093 40.14717102 C104.91877185 42.8406453 99.06502184 43.58503921 91.89852905 43.55122375 C90.8680394 43.55808701 89.83754974 43.56495026 88.77583313 43.57202148 C85.3940627 43.59021464 82.01275944 43.58646302 78.63095093 43.58076477 C76.26640676 43.58532968 73.90186392 43.59063618 71.537323 43.59664917 C66.59142655 43.60556525 61.64569171 43.60317361 56.69979858 43.59321594 C50.37491427 43.58172004 44.05058775 43.60195562 37.72577667 43.63113308 C32.84602338 43.64951336 27.96640337 43.64919906 23.08662415 43.64349556 C20.75512407 43.64334262 18.42361481 43.64936463 16.09214783 43.66178703 C12.82803715 43.67673173 9.56495227 43.66599398 6.3008728 43.64888 C5.34684067 43.65854797 4.39280853 43.66821594 3.40986633 43.67817688 C-4.37171261 43.59311874 -10.47590354 41.76046064 -16.33779907 36.52217102 C-17.01842407 35.73842102 -17.69904907 34.95467102 -18.40029907 34.14717102 C-19.06029907 33.48717102 -19.72029907 32.82717102 -20.40029907 32.14717102 C-22.75399079 24.27662516 -22.83562549 17.63866598 -19.40029907 10.14717102 C-15.50360461 3.50835823 -7.55456004 0.04128559 0 0 Z " fill="#074CA6" transform="translate(562.4002990722656,881.8528289794922)"/>
<path d="M0 0 C4.34916201 2.23498603 4.34916201 2.23498603 5.5 5.6875 C6.16 5.6875 6.82 5.6875 7.5 5.6875 C10.22465641 10.35833956 10.9078557 13.79916563 10.875 19.1875 C10.88660156 21.09015625 10.88660156 21.09015625 10.8984375 23.03125 C10.47796733 26.88968216 9.44222805 29.35796621 7.5 32.6875 C6.84 32.6875 6.18 32.6875 5.5 32.6875 C5.17 33.6775 4.84 34.6675 4.5 35.6875 C-2.22636103 40.21485838 -8.52486751 40.65448481 -16.5 39.6875 C-21.95915866 38.20897786 -25.52495168 35.36882656 -28.53125 30.60546875 C-32.0505228 23.63787624 -31.93293835 17.42721916 -29.6875 10 C-23.71231439 -1.63588777 -11.57227991 -5.40806831 0 0 Z " fill="#074CA6" transform="translate(179.5,984.3125)"/>
</svg>
