<?xml version="1.0" standalone="no"?>
<!DOCTYPE svg PUBLIC "-//W3C//DTD SVG 20010904//EN"
 "http://www.w3.org/TR/2001/REC-SVG-20010904/DTD/svg10.dtd">
<svg version="1.0" xmlns="http://www.w3.org/2000/svg"
 width="73.000000pt" height="80.000000pt" viewBox="0 0 73.000000 80.000000"
 preserveAspectRatio="xMidYMid meet">

<g transform="translate(0.000000,80.000000) scale(0.100000,-0.100000)"
fill="#074CA6" stroke="none" >
<path d="M363 755 c0 -27 2 -38 4 -22 2 15 2 37 0 50 -2 12 -4 0 -4 -28z"/>
<path d="M130 665 c19 -19 36 -35 39 -35 3 0 -10 16 -29 35 -19 19 -36 35 -39
35 -3 0 10 -16 29 -35z"/>
<path d="M589 663 l-34 -38 38 34 c34 33 42 41 34 41 -2 0 -19 -17 -38 -37z"/>
<path d="M296 635 c-21 -7 -44 -19 -50 -26 -8 -9 -6 -10 9 -4 106 41 137 42
208 2 99 -56 120 -205 39 -290 -37 -40 -52 -69 -52 -101 0 -22 -4 -26 -31 -26
-24 0 -29 4 -25 18 2 9 12 52 21 95 9 42 22 77 28 77 6 0 7 3 4 7 -4 3 -15 -1
-26 -11 -16 -15 -19 -15 -31 -1 -16 19 -34 19 -50 0 -12 -14 -15 -14 -30 0
-20 18 -37 20 -22 3 9 -11 25 -67 46 -161 6 -25 4 -27 -24 -27 -26 0 -30 4
-30 28 0 28 -14 54 -65 117 -24 30 -30 49 -33 100 -2 36 1 71 7 84 7 11 8 21
2 21 -5 0 -14 -22 -21 -49 -17 -73 -4 -111 75 -220 26 -35 33 -75 14 -86 -19
-12 -1 -103 28 -140 46 -58 110 -58 156 0 14 18 29 49 31 69 2 19 7 39 10 45
3 5 -1 14 -9 21 -29 24 -17 66 41 134 71 83 67 196 -10 272 -60 61 -131 77
-210 49z m92 -275 l23 -19 -16 -76 c-10 -43 -22 -75 -29 -75 -7 0 -20 32 -30
74 -17 72 -17 75 1 94 23 25 23 25 51 2z m82 -195 c0 -12 -18 -15 -105 -15
-87 0 -105 3 -105 15 0 12 18 15 105 15 87 0 105 -3 105 -15z m-12 -42 c3 -10
-20 -13 -92 -13 -88 0 -108 5 -89 24 13 12 176 2 181 -11z m2 -43 c0 -15 -39
-21 -110 -18 -39 2 -65 8 -68 16 -3 9 19 12 87 12 53 0 91 -4 91 -10z m-40
-45 c-16 -19 -101 -17 -108 3 -3 9 13 12 58 12 55 0 61 -2 50 -15z"/>
<path d="M293 589 c-41 -20 -83 -71 -83 -100 0 -8 10 4 23 26 14 26 37 48 66
62 24 12 46 25 49 28 12 11 -15 4 -55 -16z"/>
<path d="M23 433 c15 -2 37 -2 50 0 12 2 0 4 -28 4 -27 0 -38 -2 -22 -4z"/>
<path d="M663 433 c15 -2 37 -2 50 0 12 2 0 4 -28 4 -27 0 -38 -2 -22 -4z"/>
</g>
</svg>
