<?xml version="1.0" standalone="no"?>
<!DOCTYPE svg PUBLIC "-//W3C//DTD SVG 20010904//EN"
 "http://www.w3.org/TR/2001/REC-SVG-20010904/DTD/svg10.dtd">
<svg version="1.0" xmlns="http://www.w3.org/2000/svg"
 width="400.000000pt" height="100.000000pt" viewBox="0 0 400.000000 100.000000"
 preserveAspectRatio="xMidYMid meet">

<g transform="translate(0.000000,100.000000) scale(0.100000,-0.100000)"
fill="#000000" stroke="none">
<path d="M362 683 c-17 -43 -46 -117 -66 -165 l-35 -88 39 0 c35 0 39 3 50 35
l12 36 66 -3 c65 -3 66 -3 76 -35 8 -30 13 -33 47 -33 22 0 39 1 39 3 0 1 -29
74 -64 162 l-64 160 -34 3 c-34 3 -35 3 -66 -75z m97 -110 c1 -8 -12 -13 -35
-13 -25 0 -35 4 -31 13 2 6 10 29 18 50 l14 39 17 -39 c9 -21 17 -44 17 -50z"/>
<path d="M630 653 c0 -179 25 -223 126 -223 113 0 134 33 134 209 l0 121 -35
0 -35 0 0 -105 c0 -126 -10 -155 -55 -155 -18 0 -37 6 -43 13 -6 7 -13 64 -14
128 l-3 114 -37 3 -38 3 0 -108z"/>
<path d="M950 730 c0 -27 3 -30 34 -30 22 0 36 -6 40 -16 3 -9 6 -69 6 -135
l0 -119 35 0 35 0 0 135 0 135 40 0 c38 0 40 2 40 30 l0 30 -115 0 -115 0 0
-30z"/>
<path d="M1297 735 c-97 -67 -96 -216 3 -282 44 -30 132 -32 174 -3 104 68 98
244 -10 295 -51 24 -123 19 -167 -10z m152 -71 c49 -62 14 -164 -55 -164 -20
0 -43 4 -53 10 -45 24 -51 120 -10 161 30 30 92 26 118 -7z"/>
<path d="M1698 739 c-54 -28 -88 -83 -88 -142 0 -95 61 -158 161 -165 34 -3
72 1 89 8 28 12 29 13 15 40 -13 25 -18 27 -59 23 -60 -7 -101 11 -120 52 -9
18 -16 36 -16 40 0 4 7 22 16 40 19 41 60 59 120 52 41 -4 46 -2 59 23 13 26
13 28 -11 39 -39 17 -124 13 -166 -10z"/>
<path d="M2019 737 c-81 -54 -103 -149 -54 -232 29 -51 75 -75 142 -75 84 0
145 56 159 147 8 55 -26 128 -75 160 -47 32 -125 31 -172 0z m151 -79 c24 -39
25 -79 5 -117 -16 -32 -33 -41 -78 -41 -48 0 -77 34 -77 90 0 68 27 100 86
100 39 0 47 -4 64 -32z"/>
<path d="M2330 596 l0 -166 35 0 c38 0 39 1 36 78 -1 23 2 42 7 42 5 0 30 -27
56 -60 44 -55 50 -60 87 -60 21 0 39 3 39 6 0 3 -23 33 -50 66 -50 60 -51 61
-29 76 28 19 48 70 42 104 -3 14 -16 37 -30 50 -21 20 -37 24 -109 27 l-84 3
0 -166z m140 89 c19 -22 4 -62 -25 -69 -35 -9 -44 -1 -40 32 2 15 4 33 4 40 1
17 46 15 61 -3z"/>
<path d="M2650 595 l0 -165 35 0 35 0 0 165 0 165 -35 0 -35 0 0 -165z"/>
<path d="M2810 595 l0 -165 35 0 35 0 0 103 1 102 66 -102 c62 -97 68 -103
100 -103 l33 0 0 165 0 165 -35 0 -34 0 -3 -102 -3 -101 -64 101 c-60 97 -65
102 -97 102 l-34 0 0 -165z"/>
<path d="M3230 737 c-48 -32 -73 -79 -74 -141 -1 -97 64 -166 157 -166 89 0
147 55 147 140 l0 40 -75 0 c-73 0 -75 -1 -75 -25 0 -22 4 -25 40 -25 44 0 52
-16 24 -44 -41 -41 -104 -28 -130 28 -46 95 51 199 127 137 23 -19 24 -19 41
2 25 28 23 34 -14 57 -47 28 -125 27 -168 -3z"/>
<path d="M727 283 c-16 -15 -6 -50 18 -63 33 -18 32 -32 -2 -28 -20 2 -28 -2
-28 -12 0 -17 27 -24 61 -16 33 9 33 50 -1 72 -31 20 -32 35 -4 31 12 -1 24 4
26 11 5 13 -58 18 -70 5z"/>
<path d="M830 225 l0 -65 41 0 c43 0 52 22 11 28 -28 4 -29 20 -2 24 29 4 30
22 2 26 -28 4 -24 26 6 30 38 6 24 22 -18 22 l-40 0 0 -65z"/>
<path d="M940 225 c0 -51 3 -65 15 -65 9 0 15 9 15 23 l1 22 19 -23 c11 -13
27 -22 36 -20 14 3 13 7 -6 31 -12 15 -17 27 -11 27 16 0 24 40 11 55 -7 8
-28 15 -46 15 l-34 0 0 -65z m50 31 c0 -8 -4 -18 -10 -21 -5 -3 -10 3 -10 14
0 12 5 21 10 21 6 0 10 -6 10 -14z"/>
<path d="M1078 225 c15 -36 32 -65 38 -65 6 0 23 27 38 61 30 70 30 69 12 69
-8 0 -22 -19 -31 -42 l-17 -43 -16 43 c-11 27 -22 42 -33 42 -16 0 -15 -7 9
-65z"/>
<path d="M1200 225 c0 -51 3 -65 15 -65 12 0 15 14 15 65 0 51 -3 65 -15 65
-12 0 -15 -14 -15 -65z"/>
<path d="M1277 272 c-26 -28 -22 -78 7 -97 26 -17 75 -17 79 0 1 6 -13 11 -30
13 -26 3 -34 9 -39 28 -8 31 2 41 40 46 16 2 31 9 34 16 6 20 -72 15 -91 -6z"/>
<path d="M1400 225 c0 -51 3 -65 15 -65 12 0 15 14 15 65 0 51 -3 65 -15 65
-12 0 -15 -14 -15 -65z"/>
<path d="M1470 270 c-41 -41 -10 -110 48 -110 36 0 62 28 62 67 0 57 -69 84
-110 43z m80 -46 c0 -28 -25 -42 -49 -27 -18 12 -17 53 1 64 19 12 48 -10 48
-37z"/>
<path d="M1627 283 c-16 -15 -6 -50 18 -63 33 -18 32 -32 -2 -28 -20 2 -28 -2
-28 -12 0 -10 12 -16 37 -18 29 -2 39 1 48 18 10 18 7 25 -20 50 -18 17 -28
31 -24 31 5 1 15 2 23 3 8 0 16 7 18 14 5 13 -58 18 -70 5z"/>
<path d="M1790 225 l0 -65 35 0 c24 0 35 5 35 15 0 8 -9 15 -20 15 -11 0 -20
5 -20 10 0 6 9 10 20 10 11 0 20 7 20 15 0 8 -9 15 -20 15 -11 0 -20 7 -20 15
0 8 9 15 20 15 11 0 20 5 20 10 0 6 -16 10 -35 10 l-35 0 0 -65z"/>
<path d="M1896 274 c-3 -9 -6 -38 -6 -65 0 -37 4 -49 15 -49 11 0 15 11 16 38
l1 37 12 -34 c17 -48 30 -48 49 -4 l15 38 1 -37 c1 -27 6 -38 16 -38 17 0 18
15 9 84 -5 36 -11 46 -25 46 -11 0 -19 -4 -19 -9 0 -5 -5 -22 -11 -38 l-11
-28 -15 38 c-16 39 -37 48 -47 21z"/>
<path d="M2060 226 c0 -52 3 -66 15 -66 9 0 15 9 15 24 0 18 6 26 21 28 12 2
27 11 33 21 17 26 -4 51 -48 55 l-36 3 0 -65z m55 24 c0 -7 -6 -15 -12 -17 -8
-3 -13 4 -13 17 0 13 5 20 13 18 6 -3 12 -11 12 -18z"/>
<path d="M2170 226 c0 -52 3 -66 15 -66 8 0 15 9 15 20 0 11 4 20 10 20 5 0
14 -9 20 -20 6 -11 20 -20 31 -20 l20 0 -20 26 c-16 20 -18 30 -10 40 6 7 9
23 7 36 -2 19 -10 23 -45 26 l-43 3 0 -65z m60 30 c0 -8 -4 -17 -9 -21 -12 -7
-24 12 -16 25 9 15 25 12 25 -4z"/>
<path d="M2300 225 l0 -65 40 0 c29 0 40 4 40 15 0 9 -9 15 -25 15 -31 0 -33
17 -3 22 32 5 35 28 3 28 -32 0 -29 23 3 28 38 6 24 22 -18 22 l-40 0 0 -65z"/>
<path d="M2422 278 c-18 -18 -15 -26 21 -60 l32 -30 -32 4 c-34 5 -54 -16 -27
-26 69 -27 117 36 54 69 -32 17 -32 40 1 30 13 -4 19 -2 19 9 0 19 -50 22 -68
4z"/>
<path d="M2541 231 c-11 -32 -21 -61 -21 -65 0 -13 28 -6 34 9 3 8 15 15 26
15 11 0 23 -7 26 -15 4 -8 14 -15 24 -15 16 0 15 6 -8 65 -33 84 -52 86 -81 6z
m49 -6 c0 -8 -4 -15 -10 -15 -5 0 -10 7 -10 15 0 8 5 15 10 15 6 0 10 -7 10
-15z"/>
<path d="M2663 225 c0 -55 3 -65 16 -63 10 2 15 12 13 28 l-3 25 24 -27 c12
-16 31 -28 41 -28 16 0 16 2 -3 26 -16 20 -18 30 -10 40 6 7 9 23 7 36 -2 19
-10 24 -44 26 l-41 3 0 -66z m52 15 c-5 -8 -11 -8 -17 -2 -6 6 -7 16 -3 22 5
8 11 8 17 2 6 -6 7 -16 3 -22z"/>
<path d="M2790 225 c0 -51 3 -65 15 -65 12 0 15 14 15 65 0 51 -3 65 -15 65
-12 0 -15 -14 -15 -65z"/>
<path d="M2887 278 c-50 -126 -48 -118 -27 -118 11 0 20 7 20 15 0 9 9 15 25
15 14 0 28 -7 31 -15 4 -8 13 -15 21 -15 16 0 13 15 -18 88 -18 41 -42 55 -52
30z m33 -59 c0 -5 -4 -9 -10 -9 -5 0 -10 7 -10 16 0 8 5 12 10 9 6 -3 10 -10
10 -16z"/>
<path d="M2990 225 l0 -65 41 0 c43 0 52 22 11 28 -19 3 -22 10 -22 53 0 37
-4 49 -15 49 -12 0 -15 -14 -15 -65z"/>
<path d="M3097 283 c-4 -3 -7 -33 -7 -65 l0 -58 40 0 c29 0 40 4 40 15 0 9 -9
15 -25 15 -14 0 -25 5 -25 10 0 6 11 10 25 10 16 0 25 6 25 15 0 9 -10 15 -26
15 -31 0 -28 23 4 28 12 2 22 8 22 13 0 10 -63 13 -73 2z"/>
<path d="M3217 284 c-17 -17 -6 -55 18 -66 33 -15 32 -30 -2 -26 -20 2 -28 -2
-28 -12 0 -17 27 -24 61 -16 34 9 33 52 -1 68 -28 13 -34 39 -7 35 9 -1 19 3
22 8 6 11 -52 20 -63 9z"/>
</g>
</svg>
