<?xml version="1.0" encoding="UTF-8"?>
<svg version="1.1" xmlns="http://www.w3.org/2000/svg" width="500" height="500">
<path d="M0 0 C165 0 330 0 500 0 C500 165 500 330 500 500 C335 500 170 500 0 500 C0 335 0 170 0 0 Z " fill="#FEFEFE" transform="translate(0,0)"/>
<path d="M0 0 C4.47870656 2.15937638 7.18198188 4.92952939 10 9 C11.59072853 13.77218558 12.02510621 18.48142009 10.09375 23.2265625 C7.49092591 27.68139604 4.81234745 30.90006657 0 33 C-5.58322722 33.73726247 -10.31899723 33.75044766 -15.5 31.4375 C-20.27630264 26.78060493 -22.22390646 23.16964961 -22.5625 16.5625 C-22.35129458 11.0787021 -20.8111954 6.98999222 -17 3 C-11.62758393 -0.94280704 -6.43670674 -0.78602932 0 0 Z " fill="#C42D37" transform="translate(266,274)"/>
<path d="M0 0 C4.99819447 2.50982297 8.20895557 5.62686671 10 11 C10.69448865 18.14981754 10.46194101 23.24644448 6 29 C2.21914991 32.68632884 -0.88128869 33.3036138 -6 33.5 C-11.11720994 33.31000458 -14.18069828 32.62833663 -18 29 C-22.34644762 23.36136525 -23.71120599 19.11205988 -23 12 C-18.49411579 1.60927563 -11.02862224 -1.64761382 0 0 Z " fill="#0549A7" transform="translate(195,274)"/>
<path d="M0 0 C8 0 8 0 10.13671875 1.90625 C10.64847656 2.7621875 11.16023438 3.618125 11.6875 4.5 C12.24953125 5.40492188 12.8115625 6.30984375 13.390625 7.2421875 C13.92171875 8.15226562 14.4528125 9.06234375 15 10 C15.97636358 11.54344343 16.95520017 13.08532779 17.9375 14.625 C18.9584375 16.295625 18.9584375 16.295625 20 18 C20.33 12.06 20.66 6.12 21 0 C23.64 0 26.28 0 29 0 C29 10.89 29 21.78 29 33 C21 33 21 33 19.20556641 31.6706543 C18.65908447 30.7566687 18.65908447 30.7566687 18.1015625 29.82421875 C17.68519531 29.16099609 17.26882813 28.49777344 16.83984375 27.81445312 C16.43894531 27.11255859 16.03804688 26.41066406 15.625 25.6875 C15.20089844 24.99720703 14.77679688 24.30691406 14.33984375 23.59570312 C13.55282784 22.31090587 12.77746446 21.01884119 12.01806641 19.7175293 C11.0661898 18.11166553 10.03550322 16.55325483 9 15 C8.67 20.94 8.34 26.88 8 33 C5.36 33 2.72 33 0 33 C0 22.11 0 11.22 0 0 Z " fill="#C4242B" transform="translate(330,274)"/>
<path d="M0 0 C16 0 16 0 21 3 C22.8656461 6.05287544 23.00170747 7.90438162 22.9375 11.5 C21.82605823 15.64938261 20.08652932 17.11594701 17 20 C17.6496875 20.77085937 18.299375 21.54171875 18.96875 22.3359375 C19.8040625 23.33882813 20.639375 24.34171875 21.5 25.375 C22.3353125 26.37273437 23.170625 27.37046875 24.03125 28.3984375 C26 31 26 31 26 33 C22.77280243 33.73956611 20.20224326 33.92268026 17 33 C13.76880491 29.6733016 11.3680477 25.97470676 9 22 C8.67 25.63 8.34 29.26 8 33 C5.36 33 2.72 33 0 33 C0 22.11 0 11.22 0 0 Z " fill="#B63640" transform="translate(283,274)"/>
<path d="M0 0 C2.31 0 4.62 0 7 0 C10.37953988 6.4645327 13.11478703 13.07666556 15.75 19.875 C16.16121094 20.91914063 16.57242188 21.96328125 16.99609375 23.0390625 C20 30.74343335 20 30.74343335 20 33 C17.36 33 14.72 33 12 33 C11.34 31.02 10.68 29.04 10 27 C5.71 26.67 1.42 26.34 -3 26 C-3.33 27.65 -3.66 29.3 -4 31 C-4.33 31.66 -4.66 32.32 -5 33 C-7.64 33 -10.28 33 -13 33 C-10.77389063 26.04161296 -8.16983836 19.31068231 -5.375 12.5625 C-4.96765625 11.57056641 -4.5603125 10.57863281 -4.140625 9.55664062 C-1.16635497 2.33270994 -1.16635497 2.33270994 0 0 Z " fill="#0C4DA6" transform="translate(89,274)"/>
<path d="M0 0 C2.50953858 1.07817213 3.93524005 2.16465782 6 4 C5.75 5.875 5.75 5.875 5 8 C2.9375 9.25 2.9375 9.25 1 10 C0.484375 9.484375 -0.03125 8.96875 -0.5625 8.4375 C-3.03995263 6.7066105 -3.03995263 6.7066105 -6.5625 6.9375 C-10.14865218 7.68726576 -10.14865218 7.68726576 -12 10.5625 C-13.30993238 15.06539256 -13.10590914 17.42890888 -12 22 C-10.55985074 24.69138543 -10.55985074 24.69138543 -8 26 C-4.40528996 26.24838381 -4.40528996 26.24838381 -1 25 C0.99083177 22.5748212 0.99083177 22.5748212 2 20 C-0.64 20 -3.28 20 -6 20 C-6 18.35 -6 16.7 -6 15 C-1.05 15 3.9 15 9 15 C9.44680851 24.9787234 9.44680851 24.9787234 6 29 C2.31228553 32.41113589 -0.59971232 33.30691801 -5.5 33.5 C-10.4207651 33.29969749 -13.30010527 32.42917072 -17 29 C-21.39035595 23.3044031 -22.59703807 19.16445687 -22 12 C-20.60165882 7.72507125 -18.67923856 4.67923856 -15.5 1.5 C-10.33581865 -0.71322058 -5.53522003 -0.7864247 0 0 Z " fill="#BF2E36" transform="translate(387,274)"/>
<path d="M0 0 C2.64 0 5.28 0 8 0 C8.02505615 0.72179443 8.0501123 1.44358887 8.07592773 2.18725586 C8.19151302 5.437535 8.31440774 8.68749688 8.4375 11.9375 C8.47681641 13.07380859 8.51613281 14.21011719 8.55664062 15.38085938 C8.61948242 17.00024414 8.61948242 17.00024414 8.68359375 18.65234375 C8.72025146 19.65257568 8.75690918 20.65280762 8.79467773 21.68334961 C8.74671841 23.96069188 8.74671841 23.96069188 10 25 C13 25.16666667 13 25.16666667 16 25 C17.71443219 23.28556781 17.23052967 20.99554759 17.31640625 18.65234375 C17.35830078 17.57275391 17.40019531 16.49316406 17.44335938 15.38085938 C17.48267578 14.24455078 17.52199219 13.10824219 17.5625 11.9375 C17.62727539 10.22723633 17.62727539 10.22723633 17.69335938 8.48242188 C17.79982839 5.65507805 17.90184207 2.82764262 18 0 C20.64 0 23.28 0 26 0 C26.08746928 4.04152915 26.14054982 8.08281305 26.1875 12.125 C26.21263672 13.26710938 26.23777344 14.40921875 26.26367188 15.5859375 C26.35899487 26.51630797 26.35899487 26.51630797 23 31 C18.51506119 34.33718027 12.29906161 33.59442278 7 33 C3.27740937 30.91534925 1.56968344 28.9032281 0 25 C-0.22705078 22.25097656 -0.22705078 22.25097656 -0.1953125 19.140625 C-0.18886719 18.02558594 -0.18242188 16.91054688 -0.17578125 15.76171875 C-0.15902344 14.60285156 -0.14226562 13.44398438 -0.125 12.25 C-0.11597656 11.07566406 -0.10695313 9.90132813 -0.09765625 8.69140625 C-0.07410063 5.79406464 -0.04120652 2.89713559 0 0 Z " fill="#2F63AA" transform="translate(113,274)"/>
<path d="M0 0 C1.71316406 -0.03867187 1.71316406 -0.03867187 3.4609375 -0.078125 C6.85436235 0.27378573 8.17208921 0.95417216 10.625 3.25 C9.965 4.9 9.305 6.55 8.625 8.25 C7.80515625 8.23839844 6.9853125 8.22679687 6.140625 8.21484375 C5.06296875 8.20582031 3.9853125 8.19679688 2.875 8.1875 C1.80765625 8.17589844 0.7403125 8.16429687 -0.359375 8.15234375 C-2.90868501 8.23489913 -4.95433591 8.50382442 -7.375 9.25 C-8.56854869 12.97983966 -8.78465996 16.35823039 -8.375 20.25 C-6.77782421 23.43328877 -6.77782421 23.43328877 -3.375 25.25 C0.66013524 25.6592855 4.58443942 25.53999239 8.625 25.25 C8.955 27.23 9.285 29.21 9.625 31.25 C4.74158405 34.50561063 -0.66664255 33.81942975 -6.375 33.25 C-11.40859633 30.8656649 -14.87496787 27.25006427 -17.375 22.25 C-17.8988576 16.99424835 -18.04005372 12.60473905 -15.6875 7.8125 C-10.69272554 2.27774992 -7.40557005 0.09985038 0 0 Z " fill="#CE1F2A" transform="translate(228.375,273.75)"/>
<path d="M0 0 C7.92 0 15.84 0 24 0 C24 2.31 24 4.62 24 7 C21.36 7 18.72 7 16 7 C16 15.58 16 24.16 16 33 C13.36 33 10.72 33 8 33 C8 24.42 8 15.84 8 7 C5.36 7 2.72 7 0 7 C0 4.69 0 2.38 0 0 Z " fill="#1957AB" transform="translate(144,274)"/>
<path d="M0 0 C0.66 0 1.32 0 2 0 C2 1.98 2 3.96 2 6 C0.02 6.99 0.02 6.99 -2 8 C-0.02 8.66 1.96 9.32 4 10 C4.33 14.95 4.66 19.9 5 25 C3.68 25.33 2.36 25.66 1 26 C-1.2072358 27.48800372 -1.2072358 27.48800372 -3 29 C-3.33 28.34 -3.66 27.68 -4 27 C-3.21625 26.5875 -2.4325 26.175 -1.625 25.75 C2.50553008 21.42277802 2.29949577 16.85876266 3 11 C-1.95 11 -6.9 11 -12 11 C-12 12.65 -12 14.3 -12 16 C-9.36 16 -6.72 16 -4 16 C-4.35732494 18.59060578 -4.8616396 19.84567494 -6.625 21.8125 C-10.21120568 23.60560284 -12.22252479 23.21418846 -16 22 C-19.0300397 18.28820137 -20.36352876 15.68233811 -20.0625 10.875 C-19.23782575 6.68630804 -17.58880656 4.41854355 -14 2 C-9.83447809 2.07307933 -6.57486672 2.85507997 -3 5 C-2.54625 4.175 -2.0925 3.35 -1.625 2.5 C-1.08875 1.675 -0.5525 0.85 0 0 Z " fill="#F8DADC" transform="translate(393,278)"/>
<path d="M0 0 C3.22133889 0.02886504 3.96545032 0.14169255 6.625 2.1875 C9.49562754 6.09155345 9.29905391 8.42271372 8.6796875 13.11328125 C8.1875 15.3125 8.1875 15.3125 6.625 17.875 C2.91049833 20.06560355 0.47414542 19.78879394 -3.8125 19.3125 C-6.48681489 17.50086733 -6.77170359 16.43488923 -7.8125 13.3125 C-8.18529581 8.27975663 -7.82225759 5.40577032 -4.8125 1.3125 C-3.8125 0.3125 -3.8125 0.3125 0 0 Z " fill="#FAFBF9" transform="translate(259.8125,280.6875)"/>
<path d="M0 0 C3.2581492 0.10070643 3.96143189 0.30664551 6.625 2.4375 C8.5431969 6.27389381 8.85668796 9.22604022 8.125 13.4375 C6.96867254 15.80043002 5.97516245 17.58733755 4.125 19.4375 C-2.9346745 20.01616184 -2.9346745 20.01616184 -6.3125 17.9375 C-8.45266626 14.51323398 -9.09933741 11.46756141 -8.875 7.4375 C-6.75116812 2.78529684 -5.20769294 0.58796533 0 0 Z " fill="#F4FBFB" transform="translate(188.875,280.5625)"/>
<path d="M0 0 C0.66 0 1.32 0 2 0 C2 0.99 2 1.98 2 3 C2.99 2.67 3.98 2.34 5 2 C5.25523437 3.35544922 5.25523437 3.35544922 5.515625 4.73828125 C5.75796875 5.91777344 6.0003125 7.09726562 6.25 8.3125 C6.48203125 9.48425781 6.7140625 10.65601563 6.953125 11.86328125 C7.76901648 14.98981867 7.76901648 14.98981867 9.6875 16.90625 C12.82248551 18.38901342 15.29925804 18.29102226 18.75 18.1875 C19.92046875 18.16042969 21.0909375 18.13335937 22.296875 18.10546875 C23.18890625 18.07066406 24.0809375 18.03585937 25 18 C24 21 24 21 21.84375 22.66015625 C18.51818485 24.22700906 16.16505655 24.43321839 12.5 24.4375 C11.3965625 24.45683594 10.293125 24.47617187 9.15625 24.49609375 C5.34786678 23.89749886 3.74467074 22.65237208 1 20 C-2.66707053 14.81552098 -2.74295102 9.14623118 -2 3 C-1.34 2.01 -0.68 1.02 0 0 Z " fill="#C02932" transform="translate(246,282)"/>
<path d="M0 0 C2.31 0 4.62 0 7 0 C7 10.89 7 21.78 7 33 C4.69 33 2.38 33 0 33 C0 22.11 0 11.22 0 0 Z " fill="#CB212B" transform="translate(315,274)"/>
<path d="M0 0 C7.95505618 -0.13258427 7.95505618 -0.13258427 12 1 C12.33 0.67 12.66 0.34 13 0 C14.99958364 -0.04080783 17.00045254 -0.04254356 19 0 C18.67 0.99 18.34 1.98 18 3 C17.01 2.67 16.02 2.34 15 2 C16.2375 3.0828125 16.2375 3.0828125 17.5 4.1875 C20 7 20 7 20.3125 9.8125 C20.209375 10.534375 20.10625 11.25625 20 12 C17.2201184 13.3899408 15.0813674 13.18488204 12 13 C9.625 12 9.625 12 8 11 C8 11.66 8 12.32 8 13 C5.36 13 2.72 13 0 13 C0 8.71 0 4.42 0 0 Z " fill="#E2E2E2" transform="translate(359,321)"/>
<path d="M0 0 C4.00871318 2.02448643 6.57682096 4.17883304 9 8 C8.75 10.3125 8.75 10.3125 8 12 C7.34 12 6.68 12 6 12 C5.566875 10.88625 5.13375 9.7725 4.6875 8.625 C3.30088881 4.82487666 3.30088881 4.82487666 0 3 C-2.87057251 2.68211508 -2.87057251 2.68211508 -6 2.75 C-7.051875 2.74484375 -8.10375 2.7396875 -9.1875 2.734375 C-12.20650379 2.79532983 -12.20650379 2.79532983 -15 5 C-14.67 5.66 -14.34 6.32 -14 7 C-13.01 6.67 -12.02 6.34 -11 6 C-9.10529184 5.9314505 -7.2083166 5.91519628 -5.3125 5.9375 C-4.31863281 5.94652344 -3.32476562 5.95554687 -2.30078125 5.96484375 C-1.16189453 5.98224609 -1.16189453 5.98224609 0 6 C0 6.66 0 7.32 0 8 C0.66 8 1.32 8 2 8 C3.6875 10.375 3.6875 10.375 5 14 C4.37836519 17.48115495 3.26968304 20.70533529 2 24 C1.01 24 0.02 24 -1 24 C-0.67 23.505 -0.34 23.01 0 22.5 C1.74262798 18.14343006 1.74262798 13.85656994 0 9.5 C-2.72108346 7.45918741 -4.79133784 7.48931495 -8.12890625 7.69140625 C-10.07768819 7.91417459 -10.07768819 7.91417459 -11.9375 9 C-13.31871613 11.59993624 -13.55426876 14.15368236 -13.81640625 17.05859375 C-14.01049463 19.11097509 -14.42302028 21.02178381 -15 23 C-15.66 23 -16.32 23 -17 23 C-16.98839844 22.00097656 -16.97679687 21.00195312 -16.96484375 19.97265625 C-16.95582031 18.68230469 -16.94679687 17.39195312 -16.9375 16.0625 C-16.92009766 14.13083984 -16.92009766 14.13083984 -16.90234375 12.16015625 C-16.63467451 9.13701597 -16.63467451 9.13701597 -18 8 C-19.53266582 11.06533164 -19.10276471 14.26754272 -19.0625 17.625 C-19.05573242 18.68460937 -19.05573242 18.68460937 -19.04882812 19.765625 C-19.03703875 21.51045275 -19.01910324 23.255237 -19 25 C-18.34 25.33 -17.68 25.66 -17 26 C-16.690625 26.66 -16.38125 27.32 -16.0625 28 C-15.1108154 30.34608221 -15.1108154 30.34608221 -12 31 C-12.66 31.33 -13.32 31.66 -14 32 C-19.17582611 28.31941255 -21.54716834 25.21621413 -23 19 C-23.78798914 13.48407603 -22.57585309 10.23892477 -19.46484375 5.80078125 C-14.21386274 -0.65442474 -7.88631035 -1.17817019 0 0 Z " fill="#1A5099" transform="translate(195,274)"/>
<path d="M0 0 C0 0.66 0 1.32 0 2 C-1.32 2.33 -2.64 2.66 -4 3 C-5.19354869 6.72983966 -5.40965996 10.10823039 -5 14 C-3.40282421 17.18328877 -3.40282421 17.18328877 0 19 C4.03513524 19.4092855 7.95943942 19.28999239 12 19 C12.33 20.98 12.66 22.96 13 25 C8.11658405 28.25561063 2.70835745 27.56942975 -3 27 C-7.44132645 24.89621379 -10.34312424 22.14472618 -13 18 C-12.505 16.515 -12.505 16.515 -12 15 C-10.68 16.32 -9.36 17.64 -8 19 C-8.10699219 18.27554687 -8.21398437 17.55109375 -8.32421875 16.8046875 C-9.56543327 6.79489301 -9.56543327 6.79489301 -6 2 C-3.78871894 0.52581263 -2.64329833 0 0 0 Z " fill="#C12931" transform="translate(225,280)"/>
<path d="M0 0 C1.65 0 3.3 0 5 0 C7.02055843 4.39251833 8.40895235 8.15340923 9 13 C9.99 13 10.98 13 12 13 C12.985267 15.22664317 13.96331444 17.45601317 14.9375 19.6875 C15.21529297 20.31333984 15.49308594 20.93917969 15.77929688 21.58398438 C17.2788865 25.03484724 18.43729857 28.27477406 19 32 C16.36 32 13.72 32 11 32 C10.01 29.36 9.02 26.72 8 24 C6.68 24 5.36 24 4 24 C4 22.35 4 20.7 4 19 C4.66 19 5.32 19 6 19 C5.1341519 12.20962619 5.1341519 12.20962619 1.875 6.375 C1.25625 5.92125 0.6375 5.4675 0 5 C0.66 4.67 1.32 4.34 2 4 C2 3.34 2 2.68 2 2 C1.34 2 0.68 2 0 2 C0 1.34 0 0.68 0 0 Z " fill="#0349AC" transform="translate(90,275)"/>
<path d="M0 0 C0.66 0 1.32 0 2 0 C3.32 0 4.64 0 6 0 C6 4.29 6 8.58 6 13 C4.68 13 3.36 13 2 13 C2 12.01 2 11.02 2 10 C1.34 10 0.68 10 0 10 C0 10.99 0 11.98 0 13 C-3.49186021 13.20145347 -6.19917389 13.34907805 -9.4375 11.9375 C-11 10 -11 10 -11.4375 6.5 C-11 3 -11 3 -10 1.0625 C-6.72269892 -0.6785662 -3.67688082 -0.17508956 0 0 Z " fill="#EAEAEA" transform="translate(187,321)"/>
<path d="M0 0 C0.66 0 1.32 0 2 0 C3.231394 3.69418201 2.64432764 6.2056261 2 10 C3.65 10 5.3 10 7 10 C7.08706892 13.27066566 7.14041241 16.54103365 7.1875 19.8125 C7.22520508 21.2056543 7.22520508 21.2056543 7.26367188 22.62695312 C7.27817383 23.9659668 7.27817383 23.9659668 7.29296875 25.33203125 C7.31653442 26.56530151 7.31653442 26.56530151 7.34057617 27.82348633 C6.91922366 30.51621581 6.06259048 31.28681874 4 33 C3.4225 33.598125 2.845 34.19625 2.25 34.8125 C0 36 0 36 -3.75 35.1875 C-4.8225 34.795625 -5.895 34.40375 -7 34 C-7 33.67 -7 33.34 -7 33 C-4.69 33 -2.38 33 0 33 C0 22.11 0 11.22 0 0 Z " fill="#FAFEFC" transform="translate(322,274)"/>
<path d="M0 0 C7.38461538 -0.36923077 7.38461538 -0.36923077 10.5 1.5 C10.995 1.995 11.49 2.49 12 3 C12.33 2.01 12.66 1.02 13 0 C13.99 0 14.98 0 16 0 C16 4.29 16 8.58 16 13 C9.1640625 13.1953125 9.1640625 13.1953125 7 13 C6.34 12.34 5.68 11.68 5 11 C4.67 11.66 4.34 12.32 4 13 C2.68 13 1.36 13 0 13 C0 8.71 0 4.42 0 0 Z " fill="#040404" transform="translate(316,321)"/>
<path d="M0 0 C1.98 0 3.96 0 6 0 C6 8.58 6 17.16 6 26 C6.66 26 7.32 26 8 26 C8 26.66 8 27.32 8 28 C10.64 28 13.28 28 16 28 C15.67 29.32 15.34 30.64 15 32 C11.7 31.67 8.4 31.34 5 31 C5 30.34 5 29.68 5 29 C4.34 29 3.68 29 3 29 C3 28.01 3 27.02 3 26 C2.34 26 1.68 26 1 26 C0.67 17.42 0.34 8.84 0 0 Z " fill="#034AB2" transform="translate(114,274)"/>
<path d="M0 0 C0.66 0 1.32 0 2 0 C2.08096803 1.45742463 2.13917774 2.91612807 2.1875 4.375 C2.22230469 5.18710937 2.25710938 5.99921875 2.29296875 6.8359375 C2.19628906 7.55007813 2.09960938 8.26421875 2 9 C1.01 9.66 0.02 10.32 -1 11 C-0.4225519 14.94131242 1.52898153 17.13124802 4.0625 20.125 C8 24.78910369 8 24.78910369 8 27 C4.77503601 27.73905425 2.20395031 27.90342513 -1 27 C-4.35296814 23.74613436 -6.87063719 20.15428821 -9 16 C-9 14.68 -9 13.36 -9 12 C-8.401875 11.938125 -7.80375 11.87625 -7.1875 11.8125 C-4.14245324 10.68148263 -3.55509485 8.75675905 -2 6 C-1.34 6 -0.68 6 0 6 C-0.2784375 4.7934375 -0.2784375 4.7934375 -0.5625 3.5625 C-0.706875 2.716875 -0.85125 1.87125 -1 1 C-0.67 0.67 -0.34 0.34 0 0 Z " fill="#C6272E" transform="translate(301,280)"/>
<path d="M0 0 C2.64 0.33 5.28 0.66 8 1 C8 5.29 8 9.58 8 14 C7.01 14 6.02 14 5 14 C4.67 13.01 4.34 12.02 4 11 C3.1646875 12.0209375 3.1646875 12.0209375 2.3125 13.0625 C0 15 0 15 -2.46875 15.03125 C-5 14 -5 14 -6.58203125 11.05859375 C-6.98808594 9.86363281 -7.39414063 8.66867187 -7.8125 7.4375 C-8.23144531 6.23996094 -8.65039062 5.04242188 -9.08203125 3.80859375 C-9.38496094 2.88175781 -9.68789062 1.95492188 -10 1 C-8.68 1 -7.36 1 -6 1 C-5.01 2.98 -4.02 4.96 -3 7 C-2.01 4.69 -1.02 2.38 0 0 Z " fill="#ECECEC" transform="translate(165,320)"/>
<path d="M0 0 C2.31 0 4.62 0 7 0 C7.05784708 4.12494151 7.09354407 8.24977944 7.125 12.375 C7.15013672 14.1384375 7.15013672 14.1384375 7.17578125 15.9375 C7.18222656 17.05898438 7.18867188 18.18046875 7.1953125 19.3359375 C7.20578613 20.37282715 7.21625977 21.4097168 7.22705078 22.47802734 C7 25 7 25 5 27 C4.67 26.34 4.34 25.68 4 25 C3.67 26.65 3.34 28.3 3 30 C2.01 30 1.02 30 0 30 C0 27.69 0 25.38 0 23 C0.66 22.67 1.32 22.34 2 22 C1.938125 21.0925 1.87625 20.185 1.8125 19.25 C2.01672076 15.71017358 2.64551835 14.55068845 5 12 C3.68 12 2.36 12 1 12 C1 15.3 1 18.6 1 22 C0.67 22 0.34 22 0 22 C0 14.74 0 7.48 0 0 Z " fill="#124A8C" transform="translate(132,274)"/>
<path d="M0 0 C1.65 0 3.3 0 5 0 C4.67 9.9 4.34 19.8 4 30 C2.35 30.33 0.7 30.66 -1 31 C-2.60355101 27.49223216 -3.22036864 24.85645121 -3 21 C-2.34 21 -1.68 21 -1 21 C-1.00523682 20.39937744 -1.01047363 19.79875488 -1.01586914 19.17993164 C-1.03658014 16.47413162 -1.04964125 13.76834823 -1.0625 11.0625 C-1.07087891 10.11697266 -1.07925781 9.17144531 -1.08789062 8.19726562 C-1.09111328 7.29814453 -1.09433594 6.39902344 -1.09765625 5.47265625 C-1.10289307 4.64000244 -1.10812988 3.80734863 -1.11352539 2.94946289 C-1 1 -1 1 0 0 Z " fill="#C72329" transform="translate(353,274)"/>
<path d="M0 0 C2.96175123 0.61277612 4.38058783 1.25372522 7 3 C11.50850182 2.65554402 11.50850182 2.65554402 15 0 C15.99 0 16.98 0 18 0 C18 0.66 18 1.32 18 2 C17.34 2 16.68 2 16 2 C15.9175 2.53625 15.835 3.0725 15.75 3.625 C14.73623902 6.8352431 12.92839451 9.26292392 11 12 C5.25 11.25 5.25 11.25 3 9 C0.41645782 8.83312552 0.41645782 8.83312552 -2 9 C-2 9.66 -2 10.32 -2 11 C-3.98 11.66 -5.96 12.32 -8 13 C-6.40956621 7.91061189 -3.2553049 4.12543357 0 0 Z " fill="#A7CAEE" transform="translate(405,267)"/>
<path d="M0 0 C3.48770261 2.3935214 4.64802051 3.78160945 5.8125 7.8125 C5.874375 8.534375 5.93625 9.25625 6 10 C6.66 10 7.32 10 8 10 C8.33 9.34 8.66 8.68 9 8 C9.5683665 20.01989891 9.5683665 20.01989891 6 24 C5.34 24 4.68 24 4 24 C3.67 24.99 3.34 25.98 3 27 C1.72233302 24.44466604 2.25084983 23.70177382 3 21 C4.32741589 13.28440415 4.32741589 13.28440415 2 6 C1.34 6 0.68 6 0 6 C0 5.34 0 4.68 0 4 C-1.72945653 4.14235457 -3.45855654 4.28904382 -5.1875 4.4375 C-6.15042969 4.51871094 -7.11335937 4.59992188 -8.10546875 4.68359375 C-10.78649602 4.97666151 -13.3662986 5.42703754 -16 6 C-15.6875 4.125 -15.6875 4.125 -15 2 C-10.33127973 -1.11248018 -5.46245771 -0.7224303 0 0 Z " fill="#034BB3" transform="translate(195,276)"/>
<path d="M0 0 C0.66 0.33 1.32 0.66 2 1 C1.67 7.6 1.34 14.2 1 21 C0.34 21 -0.32 21 -1 21 C-0.67 21.9075 -0.34 22.815 0 23.75 C1 27 1 27 1 31 C2.65 30.67 4.3 30.34 6 30 C5.98952637 29.23333008 5.97905273 28.46666016 5.96826172 27.67675781 C5.92667301 24.20120526 5.90066449 20.72570509 5.875 17.25 C5.84986328 15.44015625 5.84986328 15.44015625 5.82421875 13.59375 C5.81777344 12.43359375 5.81132812 11.2734375 5.8046875 10.078125 C5.79421387 9.00981445 5.78374023 7.94150391 5.77294922 6.84082031 C6 4 6 4 8 0 C8 10.89 8 21.78 8 33 C5.36 33 2.72 33 0 33 C-2.53125 30.375 -2.53125 30.375 -4.5 27 C-5.1703125 25.88625 -5.840625 24.7725 -6.53125 23.625 C-7.0159375 22.75875 -7.500625 21.8925 -8 21 C-6.68 19.68 -5.36 18.36 -4 17 C-3.01 17.33 -2.02 17.66 -1 18 C-0.505 9.09 -0.505 9.09 0 0 Z " fill="#BC343E" transform="translate(351,274)"/>
<path d="M0 0 C0.33 0.99 0.66 1.98 1 3 C0.33613281 2.9278125 -0.32773437 2.855625 -1.01171875 2.78125 C-1.89472656 2.6884375 -2.77773438 2.595625 -3.6875 2.5 C-4.55761719 2.4071875 -5.42773438 2.314375 -6.32421875 2.21875 C-8.89723339 2.00840136 -11.41984364 1.96280856 -14 2 C-14 2.66 -14 3.32 -14 4 C-14.99 4.495 -14.99 4.495 -16 5 C-17.400189 8.62816269 -17.09801152 12.41475583 -17.0625 16.25 C-17.05347656 17.51328125 -17.04445313 18.7765625 -17.03515625 20.078125 C-17.02355469 21.04234375 -17.01195312 22.0065625 -17 23 C-21.8359375 21.3359375 -21.8359375 21.3359375 -23.3125 18.3125 C-24.04501766 14.78309671 -24.14379461 11.59486524 -24 8 C-23.34 8 -22.68 8 -22 8 C-21.78601563 7.0615625 -21.57203125 6.123125 -21.3515625 5.15625 C-20 2 -20 2 -17.4609375 0.46875 C-10.88637335 -1.59516381 -6.45413197 -2.80084972 0 0 Z " fill="#D21E29" transform="translate(390,277)"/>
<path d="M0 0 C1.875 1.0625 1.875 1.0625 3 3 C3.36528977 6.4093712 3.6140629 8.88023824 1.9375 11.9375 C-1.15493758 13.63335287 -3.55514741 13.43060657 -7 13 C-9 11.4375 -9 11.4375 -10 9 C-9.875 5.375 -9.875 5.375 -9 2 C-5.53076119 -0.31282587 -4.07794425 -0.42478586 0 0 Z " fill="#151515" transform="translate(205,321)"/>
<path d="M0 0 C0.66 0 1.32 0 2 0 C6.42857143 7.28571429 6.42857143 7.28571429 7 12 C7.66 12 8.32 12 9 12 C9 12.99 9 13.98 9 15 C9.99 15.33 10.98 15.66 12 16 C12.66 16.66 13.32 17.32 14 18 C14.66 12.39 15.32 6.78 16 1 C16.33 1 16.66 1 17 1 C17.33 9.91 17.66 18.82 18 28 C13 26 13 26 12 24 C11.01 24 10.02 24 9 24 C7.4943349 20.37732706 5.99643454 16.75149451 4.5 13.125 C4.07074219 12.09246094 3.64148438 11.05992187 3.19921875 9.99609375 C2.79316406 9.00996094 2.38710937 8.02382813 1.96875 7.0078125 C1.59169922 6.09660645 1.21464844 5.18540039 0.82617188 4.24658203 C0 2 0 2 0 0 Z " fill="#F2FCFD" transform="translate(96,273)"/>
<path d="M0 0 C1.45922693 0.11409593 2.91740598 0.24165544 4.375 0.375 C5.59316406 0.47941406 5.59316406 0.47941406 6.8359375 0.5859375 C9 1 9 1 11 3 C11.57416268 10.23444976 11.57416268 10.23444976 9.5 13 C9.005 13.33 8.51 13.66 8 14 C7.01 13.67 6.02 13.34 5 13 C4.67 17.95 4.34 22.9 4 28 C3.67 28 3.34 28 3 28 C3.02320313 27.03578125 3.04640625 26.0715625 3.0703125 25.078125 C3.08835937 23.81484375 3.10640625 22.5515625 3.125 21.25 C3.14820313 19.99703125 3.17140625 18.7440625 3.1953125 17.453125 C3.0147594 14.26094619 2.86967613 12.55068399 1 10 C0.01 9.67 -0.98 9.34 -2 9 C-2 8.34 -2 7.68 -2 7 C-0.68 7 0.64 7 2 7 C2 5.68 2 4.36 2 3 C1.34 3 0.68 3 0 3 C0 2.01 0 1.02 0 0 Z " fill="#C73B3F" transform="translate(287,279)"/>
<path d="M0 0 C1.32 0 2.64 0 4 0 C4.99 1.98 5.98 3.96 7 6 C7.66 4.02 8.32 2.04 9 0 C10.32 0 11.64 0 13 0 C13.33 4.29 13.66 8.58 14 13 C13.01 13 12.02 13 11 13 C10.67 11.02 10.34 9.04 10 7 C9.34 8.98 8.68 10.96 8 13 C7.34 13 6.68 13 6 13 C5.34 11.35 4.68 9.7 4 8 C3.67 9.65 3.34 11.3 3 13 C2.01 13 1.02 13 0 13 C0 8.71 0 4.42 0 0 Z " fill="#0F0F0F" transform="translate(239,321)"/>
<path d="M0 0 C2.31 0 4.62 0 7 0 C9.39542583 4.58154261 11.50829734 9.0276578 13 14 C12.01 14 11.02 14 10 14 C8.18757677 9.9811485 6.66498383 6.38889325 6 2 C4.35 1.67 2.7 1.34 1 1 C1 1.66 1 2.32 1 3 C1.66 3 2.32 3 3 3 C2.67 3.99 2.34 4.98 2 6 C2.66 6.66 3.32 7.32 4 8 C5.93549526 9.93549526 6.93255542 11.28150876 7.19140625 14.0390625 C7.18789388 16.02706265 7.09927614 18.01447711 7 20 C4.69 20 2.38 20 0 20 C0.55338542 18.046875 1.10677083 16.09375 1.66015625 14.140625 C2.03486159 11.78041204 1.72653324 10.25580949 1 8 C-0.32 8 -1.64 8 -3 8 C-1.125 2.25 -1.125 2.25 0 0 Z " fill="#1850A9" transform="translate(89,274)"/>
<path d="M0 0 C2.3671875 2.40234375 2.3671875 2.40234375 2.85546875 5.85546875 C2.79746094 7.1084375 2.73945313 8.36140625 2.6796875 9.65234375 C2.61201172 11.54726563 2.61201172 11.54726563 2.54296875 13.48046875 C2.48496094 14.4446875 2.42695313 15.40890625 2.3671875 16.40234375 C4.0171875 16.07234375 5.6671875 15.74234375 7.3671875 15.40234375 C6.01436581 19.82976019 4.13419862 21.76543596 0.3671875 24.40234375 C-2.39733283 25.78460391 -4.6789488 25.49759762 -7.7578125 25.46484375 C-8.85351562 25.45582031 -9.94921875 25.44679688 -11.078125 25.4375 C-12.34269531 25.42009766 -12.34269531 25.42009766 -13.6328125 25.40234375 C-13.6328125 25.07234375 -13.6328125 24.74234375 -13.6328125 24.40234375 C-12.89675781 24.36496094 -12.16070312 24.32757813 -11.40234375 24.2890625 C-3.99842662 23.91267824 -3.99842662 23.91267824 2.3671875 20.40234375 C2.6971875 19.74234375 3.0271875 19.08234375 3.3671875 18.40234375 C2.3771875 18.64984375 2.3771875 18.64984375 1.3671875 18.90234375 C-2.36381044 19.52417674 -5.85154628 19.46643301 -9.6328125 19.40234375 C-9.6328125 19.07234375 -9.6328125 18.74234375 -9.6328125 18.40234375 C-8.3540625 18.17546875 -7.0753125 17.94859375 -5.7578125 17.71484375 C-2.31961019 16.89306279 -2.31961019 16.89306279 -0.1328125 14.15234375 C0.64071245 9.89795652 1.03105051 5.48637113 -0.6328125 1.40234375 C-4.35164395 0.16273327 -7.74952785 -0.36131474 -11.6328125 0.40234375 C-13.5682273 2.79291317 -13.5682273 2.79291317 -14.6328125 5.40234375 C-15.2928125 5.40234375 -15.9528125 5.40234375 -16.6328125 5.40234375 C-16.8203125 3.02734375 -16.8203125 3.02734375 -16.6328125 0.40234375 C-11.0761528 -3.30209605 -5.68116601 -3.44747315 0 0 Z " fill="#B3353A" transform="translate(267.6328125,281.59765625)"/>
<path d="M0 0 C0.33 0 0.66 0 1 0 C1.33 6.93 1.66 13.86 2 21 C2.66 21 3.32 21 4 21 C4 17.7 4 14.4 4 11 C4.66 11 5.32 11 6 11 C6.33 8.69 6.66 6.38 7 4 C7.99 4 8.98 4 10 4 C9.690625 4.763125 9.38125 5.52625 9.0625 6.3125 C6.13413637 13.71953741 6.89846969 19.51329827 9 27 C7.35 26.67 5.7 26.34 4 26 C3.896875 26.78375 3.79375 27.5675 3.6875 28.375 C3 31 3 31 0 33 C0 22.11 0 11.22 0 0 Z " fill="#FEF4F7" transform="translate(359,274)"/>
<path d="M0 0 C4.45399346 5.56749183 4.45399346 5.56749183 6.078125 8.515625 C6.43519531 9.12664062 6.79226563 9.73765625 7.16015625 10.3671875 C7.88965033 11.62746043 8.60058634 12.89865038 9.29296875 14.1796875 C10.84726925 16.7794072 12.11094063 18.72535161 15.08007812 19.64257812 C17.5370536 19.99118791 17.5370536 19.99118791 21 20 C17.34480082 22.43679946 16.01377491 22.11604695 11.875 21.4921875 C9.54992888 20.88185633 8.37020379 19.96966795 7 18 C6.67 18.66 6.34 19.32 6 20 C5.34 20 4.68 20 4 20 C4 16.37 4 12.74 4 9 C3.01 9 2.02 9 1 9 C1.09539062 9.62648438 1.19078125 10.25296875 1.2890625 10.8984375 C1.39992188 11.71570313 1.51078125 12.53296875 1.625 13.375 C1.74101562 14.18710937 1.85703125 14.99921875 1.9765625 15.8359375 C1.98429687 16.55007813 1.99203125 17.26421875 2 18 C1.34 18.66 0.68 19.32 0 20 C0 13.4 0 6.8 0 0 Z " fill="#FCEEEB" transform="translate(338,287)"/>
<path d="M0 0 C2.97 0.33 5.94 0.66 9 1 C9 1.33 9 1.66 9 2 C6.36 2 3.72 2 1 2 C1 8.6 1 15.2 1 22 C-3.5 16.375 -3.5 16.375 -5.359375 13.44921875 C-5.75253906 12.83369141 -6.14570313 12.21816406 -6.55078125 11.58398438 C-6.94652344 10.95814453 -7.34226562 10.33230469 -7.75 9.6875 C-8.16121094 9.04232422 -8.57242187 8.39714844 -8.99609375 7.73242188 C-9.99996311 6.15658043 -11.00034356 4.57851733 -12 3 C-10.68 2.67 -9.36 2.34 -8 2 C-6.74335022 4.90600261 -6 6.79604584 -6 10 C-5.34 10 -4.68 10 -4 10 C-4 10.66 -4 11.32 -4 12 C-3.34 12 -2.68 12 -2 12 C-2.226875 11.13375 -2.45375 10.2675 -2.6875 9.375 C-3.0632763 5.31661591 -2.05257931 3.44833324 0 0 Z " fill="#FCE8E3" transform="translate(350,272)"/>
<path d="M0 0 C0.66 0 1.32 0 2 0 C1.01 2.97 0.02 5.94 -1 9 C1.64 9 4.28 9 7 9 C7.66 6.69 8.32 4.38 9 2 C13.29 2 17.58 2 22 2 C22.66 3.98 23.32 5.96 24 8 C22.9790625 7.2575 22.9790625 7.2575 21.9375 6.5 C18.40534991 4.69634889 15.91363009 4.76978647 12 5 C11.773125 5.804375 11.54625 6.60875 11.3125 7.4375 C10 10 10 10 7.75 10.875 C4.68838924 11.01416413 1.99404289 10.62666014 -1 10 C-1 10.66 -1 11.32 -1 12 C-0.34 12.33 0.32 12.66 1 13 C-0.65 13.33 -2.3 13.66 -4 14 C-4.33 12.35 -4.66 10.7 -5 9 C-4.01 8.67 -3.02 8.34 -2 8 C-1.855625 6.865625 -1.71125 5.73125 -1.5625 4.5625 C-1 1 -1 1 0 0 Z " fill="#EDFAF9" transform="translate(77,298)"/>
<path d="M0 0 C6.15234375 -0.09765625 6.15234375 -0.09765625 8 0 C9 1 9 1 9.0625 3.3125 C9.041875 4.199375 9.02125 5.08625 9 6 C8.63019987 10.04622502 8.63019987 10.04622502 11 13 C7 13 7 13 4.75 11 C4.1725 10.34 3.595 9.68 3 9 C3 10.32 3 11.64 3 13 C2.01 13 1.02 13 0 13 C0 8.71 0 4.42 0 0 Z " fill="#040404" transform="translate(267,321)"/>
<path d="M0 0 C3.375 -0.125 3.375 -0.125 7 0 C7.66 0.66 8.32 1.32 9 2 C8.625 4.5 8.625 4.5 8 7 C8 9.46278801 8.85452863 10.85224119 10 13 C8.68 13 7.36 13 6 13 C5.34 12.01 4.68 11.02 4 10 C3.67 10.99 3.34 11.98 3 13 C2.01 13 1.02 13 0 13 C0 8.71 0 4.42 0 0 Z " fill="#151515" transform="translate(144,321)"/>
<path d="M0 0 C1.88414642 3.19457351 2.23819737 5.51502629 2.1953125 9.203125 C2.18886719 10.1828125 2.18242188 11.1625 2.17578125 12.171875 C2.15902344 13.18765625 2.14226562 14.2034375 2.125 15.25 C2.11597656 16.28125 2.10695313 17.3125 2.09765625 18.375 C2.07412011 20.91690287 2.04124023 23.4583328 2 26 C2.66 26 3.32 26 4 26 C4 26.99 4 27.98 4 29 C4.66 29 5.32 29 6 29 C6 29.66 6 30.32 6 31 C9.96 31 13.92 31 18 31 C18.33 30.34 18.66 29.68 19 29 C19.99 29.33 20.98 29.66 22 30 C22 28.35 22 26.7 22 25 C22.66 24.67 23.32 24.34 24 24 C24.75 25.75 24.75 25.75 25 28 C23.14944202 30.23343204 21.59616917 31.70191542 19 33 C8.66318277 33.93138235 8.66318277 33.93138235 3.875 31.25 C0.50390587 27.20468704 -0.2491129 24.41306381 -0.1953125 19.140625 C-0.18886719 18.02558594 -0.18242188 16.91054688 -0.17578125 15.76171875 C-0.15902344 14.60285156 -0.14226562 13.44398438 -0.125 12.25 C-0.11597656 11.07566406 -0.10695313 9.90132813 -0.09765625 8.69140625 C-0.07410063 5.79406464 -0.04120652 2.89713559 0 0 Z " fill="#26589B" transform="translate(113,274)"/>
<path d="M0 0 C1.32 0 2.64 0 4 0 C5.65 4.29 7.3 8.58 9 13 C7.68 13 6.36 13 5 13 C5 12.34 5 11.68 5 11 C3.02 11 1.04 11 -1 11 C-1 11.66 -1 12.32 -1 13 C-1.99 13 -2.98 13 -4 13 C-3.40895235 8.15340923 -2.02055843 4.39251833 0 0 Z " fill="#151515" transform="translate(306,321)"/>
<path d="M0 0 C0.66 0.66 1.32 1.32 2 2 C1.9765625 5.2578125 1.9765625 5.2578125 1.625 9.125 C1.51414063 10.40632813 1.40328125 11.68765625 1.2890625 13.0078125 C1.19367188 13.99523437 1.09828125 14.98265625 1 16 C1.66 16 2.32 16 3 16 C3.33 15.34 3.66 14.68 4 14 C4.33 15.65 4.66 17.3 5 19 C6.32 19.33 7.64 19.66 9 20 C9.33 21.32 9.66 22.64 10 24 C7.69 23.67 5.38 23.34 3 23 C3 22.34 3 21.68 3 21 C2.01 20.67 1.02 20.34 0 20 C-2.37637279 16.64931437 -2.2682575 13.44958469 -2.25 9.4375 C-2.25515625 8.30183594 -2.2603125 7.16617187 -2.265625 5.99609375 C-2 3 -2 3 0 0 Z " fill="#0349AC" transform="translate(177,281)"/>
<path d="M0 0 C0.33 0 0.66 0 1 0 C1.33 4.29 1.66 8.58 2 13 C2.33 13 2.66 13 3 13 C3 19.27 3 25.54 3 32 C3.99 32 4.98 32 6 32 C6.33 26.39 6.66 20.78 7 15 C7.33 15 7.66 15 8 15 C8 20.94 8 26.88 8 33 C5.36 33 2.72 33 0 33 C0 22.11 0 11.22 0 0 Z " fill="#C74752" transform="translate(330,274)"/>
<path d="M0 0 C-0.99 0.33 -1.98 0.66 -3 1 C-3 1.66 -3 2.32 -3 3 C-3.66 3 -4.32 3 -5 3 C-5 3.66 -5 4.32 -5 5 C-5.66 5 -6.32 5 -7 5 C-7.75427297 9.97906259 -7.75427297 9.97906259 -8 15 C-7.34 15.33 -6.68 15.66 -6 16 C-6 16.99 -6 17.98 -6 19 C-4.02 18.34 -2.04 17.68 0 17 C-0.99 16.01 -1.98 15.02 -3 14 C-0.36 14 2.28 14 5 14 C4.64267506 16.59060578 4.1383604 17.84567494 2.375 19.8125 C-1.21120568 21.60560284 -3.22252479 21.21418846 -7 20 C-10.0300397 16.28820137 -11.36352876 13.68233811 -11.0625 8.875 C-9.91480463 2.91625837 -6.26764749 -0.89537821 0 0 Z " fill="#FAD6D7" transform="translate(384,280)"/>
<path d="M0 0 C1.32 0 2.64 0 4 0 C4.67305018 1.60149886 5.33822227 3.20631029 6 4.8125 C6.37125 5.70582031 6.7425 6.59914063 7.125 7.51953125 C8 10 8 10 8 13 C7.01 13 6.02 13 5 13 C5 12.01 5 11.02 5 10 C3.02 10 1.04 10 -1 10 C-1 10.99 -1 11.98 -1 13 C-1.99 13 -2.98 13 -4 13 C-3.40895235 8.15340923 -2.02055843 4.39251833 0 0 Z " fill="#181818" transform="translate(339,321)"/>
<path d="M0 0 C2.31 0 4.62 0 7 0 C7 10.89 7 21.78 7 33 C4.69 33 2.38 33 0 33 C0 22.11 0 11.22 0 0 Z M3 1 C0.82038746 7.15977457 0.73147076 12.81736711 0.8125 19.3125 C0.81314453 20.31345703 0.81378906 21.31441406 0.81445312 22.34570312 C0.64158974 27.33553076 0.64158974 27.33553076 2 32 C3.32 32 4.64 32 6 32 C6 21.77 6 11.54 6 1 C5.01 1 4.02 1 3 1 Z " fill="#A92F38" transform="translate(315,274)"/>
<path d="M0 0 C6.27 0 12.54 0 19 0 C18 3 18 3 15.83203125 4.67578125 C12.52808824 6.22065943 10.31334322 6.30703329 6.6875 6.1875 C5.08455078 6.14689453 5.08455078 6.14689453 3.44921875 6.10546875 C2.23685547 6.05326172 2.23685547 6.05326172 1 6 C1.33 5.34 1.66 4.68 2 4 C1.01 3.67 0.02 3.34 -1 3 C-0.67 2.01 -0.34 1.02 0 0 Z " fill="#C92229" transform="translate(252,300)"/>
<path d="M0 0 C1.98 0 3.96 0 6 0 C6 7.26 6 14.52 6 22 C5.67 22 5.34 22 5 22 C5 17.38 5 12.76 5 8 C4.01 8 3.02 8 2 8 C2.11426509 10.41760876 2.24099661 12.83347218 2.375 15.25 C2.4059375 15.93191406 2.436875 16.61382812 2.46875 17.31640625 C2.68259374 20.98739038 3.01077055 23.86251616 5 27 C4.34 27.66 3.68 28.32 3 29 C3 28.01 3 27.02 3 26 C2.34 26 1.68 26 1 26 C0.67 17.42 0.34 8.84 0 0 Z " fill="#0747A0" transform="translate(114,274)"/>
<path d="M0 0 C0.66 0 1.32 0 2 0 C3.19583104 3.58749311 3.01782444 6.292557 2.87890625 10.07421875 C2.85529526 10.7580513 2.83168427 11.44188385 2.80735779 12.1464386 C2.7308855 14.32701226 2.64679119 16.50721595 2.5625 18.6875 C2.50926281 20.1672997 2.45652252 21.64711738 2.40429688 23.12695312 C2.27529303 26.75152817 2.13945273 30.37581023 2 34 C0.171875 35.0546875 0.171875 35.0546875 -2 36 C-4.75 35.125 -4.75 35.125 -7 34 C-7 33.67 -7 33.34 -7 33 C-4.69 33 -2.38 33 0 33 C0 22.11 0 11.22 0 0 Z " fill="#F6D0CF" transform="translate(322,274)"/>
<path d="M0 0 C7.26 0 14.52 0 22 0 C22 0.33 22 0.66 22 1 C19.69 1 17.38 1 15 1 C15 1.99 15 2.98 15 4 C12.69 4 10.38 4 8 4 C8 4.66 8 5.32 8 6 C5.36 6 2.72 6 0 6 C0 4.02 0 2.04 0 0 Z " fill="#09489E" transform="translate(145,274)"/>
<path d="M0 0 C6.91999386 8.2014742 6.91999386 8.2014742 9 13 C8.3125 16 8.3125 16 7 18 C5.1875 17.8125 5.1875 17.8125 3 17 C1.1875 14.625 1.1875 14.625 0 12 C0.33 11.01 0.66 10.02 1 9 C0.34 9 -0.32 9 -1 9 C-0.67 8.01 -0.34 7.02 0 6 C-0.31802943 4.33034549 -0.64984951 2.66321482 -1 1 C-0.67 0.67 -0.34 0.34 0 0 Z " fill="#C32F35" transform="translate(339,276)"/>
<path d="M0 0 C3.375 -0.125 3.375 -0.125 7 0 C7.66 0.66 8.32 1.32 9 2 C8.625 4.625 8.625 4.625 8 7 C6.35 7.33 4.7 7.66 3 8 C3 9.65 3 11.3 3 13 C2.01 13 1.02 13 0 13 C0 8.71 0 4.42 0 0 Z " fill="#0D0D0D" transform="translate(256,321)"/>
<path d="M0 0 C2.97 0.495 2.97 0.495 6 1 C5.01 1.495 5.01 1.495 4 2 C4 4.64 4 7.28 4 10 C5.32 10.66 6.64 11.32 8 12 C6 14 6 14 3.375 14.125 C2.59125 14.08375 1.8075 14.0425 1 14 C1 13.01 1 12.02 1 11 C0.01 10.67 -0.98 10.34 -2 10 C-2.25 3.375 -2.25 3.375 0 0 Z " fill="#FCF9FA" transform="translate(377,285)"/>
<path d="M0 0 C0.99 0.33 1.98 0.66 3 1 C2.690625 2.051875 2.38125 3.10375 2.0625 4.1875 C0.5317696 9.68012084 -0.11229941 14.27273023 0 20 C-3 19 -3 19 -5 17 C-5.50527263 11.037783 -4.75248003 7.29323084 -2 2 C-1.34 1.34 -0.68 0.68 0 0 Z " fill="#CE1F27" transform="translate(217,279)"/>
<path d="M0 0 C2.64 0 5.28 0 8 0 C8 0.66 8 1.32 8 2 C6.35 2 4.7 2 3 2 C3 2.99 3 3.98 3 5 C4.65 5 6.3 5 8 5 C8 5.99 8 6.98 8 8 C6.35 8 4.7 8 3 8 C3 8.66 3 9.32 3 10 C4.65 10 6.3 10 8 10 C8 10.99 8 11.98 8 13 C5.36 13 2.72 13 0 13 C0 8.71 0 4.42 0 0 Z " fill="#383838" transform="translate(359,321)"/>
<path d="M0 0 C2.64 0 5.28 0 8 0 C8 0.66 8 1.32 8 2 C6.35 2 4.7 2 3 2 C3 2.99 3 3.98 3 5 C4.65 5 6.3 5 8 5 C8 5.99 8 6.98 8 8 C6.35 8 4.7 8 3 8 C3 8.66 3 9.32 3 10 C4.65 10 6.3 10 8 10 C8 10.99 8 11.98 8 13 C5.36 13 2.72 13 0 13 C0 8.71 0 4.42 0 0 Z " fill="#252525" transform="translate(280,321)"/>
<path d="M0 0 C0.99 0 1.98 0 3 0 C3 4.29 3 8.58 3 13 C-2 13 -2 13 -4.4375 10.875 C-6 8 -6 8 -5.25 4.6875 C-4.8375 3.800625 -4.425 2.91375 -4 2 C-3.01 2.33 -2.02 2.66 -1 3 C-0.67 2.01 -0.34 1.02 0 0 Z " fill="#EAEAEA" transform="translate(329,321)"/>
<path d="M0 0 C2.64 0 5.28 0 8 0 C8 0.66 8 1.32 8 2 C6.35 2 4.7 2 3 2 C3 2.99 3 3.98 3 5 C4.65 5 6.3 5 8 5 C8 5.99 8 6.98 8 8 C6.35 8 4.7 8 3 8 C3 8.66 3 9.32 3 10 C4.65 10 6.3 10 8 10 C8 10.99 8 11.98 8 13 C5.36 13 2.72 13 0 13 C0 8.71 0 4.42 0 0 Z " fill="#1E1E1E" transform="translate(133,321)"/>
<path d="M0 0 C2.96404505 2.80804268 5.44499019 5.18315774 7 9 C5.625 10.5 5.625 10.5 4 12 C3.34 12 2.68 12 2 12 C1.67 12.66 1.34 13.32 1 14 C0.01 14 -0.98 14 -2 14 C-3.68798827 15.43750191 -3.68798827 15.43750191 -5 17 C-5.99 16.67 -6.98 16.34 -8 16 C-8 14.68 -8 13.36 -8 12 C-5.36 12 -2.72 12 0 12 C0 8.04 0 4.08 0 0 Z " fill="#FBF6F1" transform="translate(291,295)"/>
<path d="M0 0 C0.495 0.33 0.99 0.66 1.5 1 C1.5 1.66 1.5 2.32 1.5 3 C0.64535156 3.04898437 -0.20929688 3.09796875 -1.08984375 3.1484375 C-2.19457031 3.22320312 -3.29929687 3.29796875 -4.4375 3.375 C-5.53964844 3.44460938 -6.64179688 3.51421875 -7.77734375 3.5859375 C-9.12505859 3.79089844 -9.12505859 3.79089844 -10.5 4 C-10.83 4.66 -11.16 5.32 -11.5 6 C-10.84 6 -10.18 6 -9.5 6 C-9.5 7.32 -9.5 8.64 -9.5 10 C-10.82 10 -12.14 10 -13.5 10 C-13.5 6.7 -13.5 3.4 -13.5 0 C-8.97258828 -1.50913724 -4.43573202 -1.77429281 0 0 Z " fill="#CF1F28" transform="translate(298.5,276)"/>
<path d="M0 0 C1.134375 0.020625 2.26875 0.04125 3.4375 0.0625 C3.4375 1.0525 3.4375 2.0425 3.4375 3.0625 C2.1175 3.3925 0.7975 3.7225 -0.5625 4.0625 C0.0975 4.454375 0.7575 4.84625 1.4375 5.25 C3.4375 7.0625 3.4375 7.0625 3.6875 9.75 C3.605 10.513125 3.5225 11.27625 3.4375 12.0625 C0.72870665 13.41689668 -1.57183268 13.12751451 -4.5625 13.0625 C-4.5625 11.7425 -4.5625 10.4225 -4.5625 9.0625 C-2.9125 9.3925 -1.2625 9.7225 0.4375 10.0625 C0.4375 9.4025 0.4375 8.7425 0.4375 8.0625 C-2.0375 7.0725 -2.0375 7.0725 -4.5625 6.0625 C-4.605221 4.39638095 -4.60313832 2.72867115 -4.5625 1.0625 C-3.5625 0.0625 -3.5625 0.0625 0 0 Z " fill="#161616" transform="translate(126.5625,320.9375)"/>
<path d="M0 0 C-0.33 0.99 -0.66 1.98 -1 3 C-2.98 3.33 -4.96 3.66 -7 4 C-6.67 5.65 -6.34 7.3 -6 9 C-4.02 9.66 -2.04 10.32 0 11 C0 11.66 0 12.32 0 13 C-3.49186021 13.20145347 -6.19917389 13.34907805 -9.4375 11.9375 C-11 10 -11 10 -11.4375 6.5 C-11 3 -11 3 -10 1.0625 C-6.73357754 -0.67278693 -3.65648548 -0.17982715 0 0 Z " fill="#171717" transform="translate(187,321)"/>
<path d="M0 0 C1.32 0 2.64 0 4 0 C4.99 1.98 5.98 3.96 7 6 C7.99 4.02 8.98 2.04 10 0 C10.99 0 11.98 0 13 0 C12.54554036 1.41791408 12.08625056 2.83428046 11.625 4.25 C11.36976563 5.03890625 11.11453125 5.8278125 10.8515625 6.640625 C10.04826333 8.86627958 9.10288338 10.90931672 8 13 C7.01 13 6.02 13 5 13 C3.35 8.71 1.7 4.42 0 0 Z " fill="#1E1E1E" transform="translate(155,321)"/>
<path d="M0 0 C0.94875 0.04125 1.8975 0.0825 2.875 0.125 C2.875 1.115 2.875 2.105 2.875 3.125 C1.225 2.795 -0.425 2.465 -2.125 2.125 C-0.19245228 4.1495738 1.50658688 5.54605792 3.875 7.125 C3 12 3 12 1.875 13.125 C-0.45797433 13.16592937 -2.79205225 13.16741723 -5.125 13.125 C-5.125 11.805 -5.125 10.485 -5.125 9.125 C-2.155 9.62 -2.155 9.62 0.875 10.125 C0.875 9.465 0.875 8.805 0.875 8.125 C0.070625 7.8775 -0.73375 7.63 -1.5625 7.375 C-4.125 6.125 -4.125 6.125 -5.0625 4.125 C-5.083125 3.465 -5.10375 2.805 -5.125 2.125 C-3.125 0.125 -3.125 0.125 0 0 Z " fill="#222222" transform="translate(296.125,320.875)"/>
<path d="M0 0 C0.66 0.99 1.32 1.98 2 3 C1.690625 3.515625 1.38125 4.03125 1.0625 4.5625 C-0.29059287 7.66665423 -0.61359424 10.65115007 -1 14 C-0.34 14 0.32 14 1 14 C1.33 13.34 1.66 12.68 2 12 C3 15 3 15 2.0625 17.1875 C1.711875 17.785625 1.36125 18.38375 1 19 C-1.64 19 -4.28 19 -7 19 C-4.94235079 12.54646385 -2.57616518 6.2638737 0 0 Z " fill="#134E99" transform="translate(83,288)"/>
<path d="M0 0 C1.32 0.33 2.64 0.66 4 1 C4 1.99 4 2.98 4 4 C4.66 4.33 5.32 4.66 6 5 C5.34 8.96 4.68 12.92 4 17 C3.01 17.33 2.02 17.66 1 18 C-0.59412284 14.81175432 -0.10174735 11.37103338 -0.0625 7.875 C-0.05798828 7.12089844 -0.05347656 6.36679687 -0.04882812 5.58984375 C-0.03703499 3.72652873 -0.01909942 1.86325445 0 0 Z " fill="#CA2129" transform="translate(285,288)"/>
<path d="M0 0 C2.31 0 4.62 0 7 0 C6.67 0.99 6.34 1.98 6 3 C4.68 2.67 3.36 2.34 2 2 C2.825 2.721875 3.65 3.44375 4.5 4.1875 C7 7 7 7 7.3125 9.8125 C7.1578125 10.8953125 7.1578125 10.8953125 7 12 C4.29120665 13.35439668 1.99066732 13.06501451 -1 13 C-1 11.68 -1 10.36 -1 9 C0.65 9.33 2.3 9.66 4 10 C4 9.34 4 8.68 4 8 C1.525 7.01 1.525 7.01 -1 6 C-0.67 4.02 -0.34 2.04 0 0 Z " fill="#141414" transform="translate(213,321)"/>
<path d="M0 0 C1.4540625 0.0309375 1.4540625 0.0309375 2.9375 0.0625 C2.6075 1.0525 2.2775 2.0425 1.9375 3.0625 C0.9475 2.7325 -0.0425 2.4025 -1.0625 2.0625 C-0.2375 2.784375 0.5875 3.50625 1.4375 4.25 C3.9375 7.0625 3.9375 7.0625 4.25 9.875 C4.0953125 10.9578125 4.0953125 10.9578125 3.9375 12.0625 C1.22870665 13.41689668 -1.07183268 13.12751451 -4.0625 13.0625 C-4.3925 11.7425 -4.7225 10.4225 -5.0625 9.0625 C-2.0925 9.5575 -2.0925 9.5575 0.9375 10.0625 C0.9375 9.4025 0.9375 8.7425 0.9375 8.0625 C-1.5375 7.0725 -1.5375 7.0725 -4.0625 6.0625 C-4.105221 4.39638095 -4.10313832 2.72867115 -4.0625 1.0625 C-3.0625 0.0625 -3.0625 0.0625 0 0 Z " fill="#191919" transform="translate(375.0625,320.9375)"/>
<path d="M0 0 C0.66 0.33 1.32 0.66 2 1 C2 1.99 2 2.98 2 4 C2.66 4 3.32 4 4 4 C5.20272819 6.40545638 5.10071472 7.94996953 5.0625 10.625 C5.05347656 11.44226563 5.04445313 12.25953125 5.03515625 13.1015625 C5.02355469 13.72804688 5.01195312 14.35453125 5 15 C3.02 15.33 1.04 15.66 -1 16 C-1.02701408 13.89590361 -1.04640223 11.79170822 -1.0625 9.6875 C-1.07410156 8.51574219 -1.08570313 7.34398437 -1.09765625 6.13671875 C-1 3 -1 3 0 0 Z " fill="#CC1E2B" transform="translate(271,282)"/>
<path d="M0 0 C2.31 0 4.62 0 7 0 C7 0.66 7 1.32 7 2 C5.68 2 4.36 2 3 2 C3 2.99 3 3.98 3 5 C4.32 5 5.64 5 7 5 C7 5.99 7 6.98 7 8 C5.68 8 4.36 8 3 8 C3 8.66 3 9.32 3 10 C4.32 10 5.64 10 7 10 C7 10.99 7 11.98 7 13 C4.69 13 2.38 13 0 13 C0 8.71 0 4.42 0 0 Z " fill="#0A0A0A" transform="translate(229,321)"/>
<path d="M0 0 C0.66 0 1.32 0 2 0 C3.00419637 2.4566947 4.00350501 4.91518353 5 7.375 C5.42925781 8.42300781 5.42925781 8.42300781 5.8671875 9.4921875 C8 14.7734375 8 14.7734375 8 17 C5.36 17 2.72 17 0 17 C-0.66 14.69 -1.32 12.38 -2 10 C-1.34 10 -0.68 10 0 10 C0 10.99 0 11.98 0 13 C0.99 13 1.98 13 3 13 C2.690625 11.96875 2.38125 10.9375 2.0625 9.875 C1.12497188 6.61027443 0.49227298 3.36386538 0 0 Z " fill="#0E48A0" transform="translate(101,290)"/>
<path d="M0 0 C0.33 0 0.66 0 1 0 C1 10.89 1 21.78 1 33 C-1.31 33 -3.62 33 -6 33 C-4.68 32.34 -3.36 31.68 -2 31 C-1.96241577 29.80455566 -1.96241577 29.80455566 -1.92407227 28.58496094 C-1.80801211 24.97314778 -1.68533069 21.36158898 -1.5625 17.75 C-1.52318359 16.49574219 -1.48386719 15.24148438 -1.44335938 13.94921875 C-1.40146484 12.74394531 -1.35957031 11.53867187 -1.31640625 10.296875 C-1.27974854 9.18666992 -1.24309082 8.07646484 -1.20532227 6.93261719 C-1.03289096 4.46978151 -0.70404561 2.35517035 0 0 Z " fill="#BF4F56" transform="translate(358,274)"/>
<path d="M0 0 C0.66 0.99 1.32 1.98 2 3 C-1.32492582 8.78783383 -1.32492582 8.78783383 -4.1875 9.6875 C-7.58353039 10.06483671 -10.8958811 10.09443102 -14.3125 10.0625 C-15.56675781 10.05347656 -16.82101563 10.04445313 -18.11328125 10.03515625 C-19.06589844 10.02355469 -20.01851563 10.01195312 -21 10 C-21 9.34 -21 8.68 -21 8 C-21.99 8 -22.98 8 -24 8 C-24 6.02 -24 4.04 -24 2 C-22.88625 3.2375 -22.88625 3.2375 -21.75 4.5 C-17.78529345 7.84818519 -13.79141465 7.47894917 -8.8046875 7.37109375 C-6.03877253 7.00513007 -4.31316307 6.53682752 -2 5 C-0.71745356 2.46229997 -0.71745356 2.46229997 0 0 Z " fill="#D2E9F7" transform="translate(138,299)"/>
<path d="M0 0 C2.60704898 2.60704898 2.23905333 4.47338241 2.265625 8.02734375 C2 10 2 10 0 13 C-0.66 13 -1.32 13 -2 13 C-2.2475 13.598125 -2.495 14.19625 -2.75 14.8125 C-4.60215769 18.05377596 -6.67088775 19.54430437 -10.1875 20.75 C-14.19882061 21.10656183 -18.02519641 20.56288068 -22 20 C-22 20.66 -22 21.32 -22 22 C-22.99 21.67 -23.98 21.34 -25 21 C-24.505 19.515 -24.505 19.515 -24 18 C-23.04738281 18.03480469 -22.09476563 18.06960938 -21.11328125 18.10546875 C-19.23189453 18.14607422 -19.23189453 18.14607422 -17.3125 18.1875 C-16.07113281 18.22230469 -14.82976562 18.25710938 -13.55078125 18.29296875 C-9.7473943 17.97915795 -7.99061213 17.31117074 -5 15 C-1.43285491 9.94654445 -0.43034098 6.13235891 0 0 Z " fill="#D7EDFA" transform="translate(205,288)"/>
<path d="M0 0 C4.62 0 9.24 0 14 0 C14.33 1.98 14.66 3.96 15 6 C11.45401732 8.36398846 9.76670901 8.29818374 5.5625 8.3125 C3.86287109 8.33763672 3.86287109 8.33763672 2.12890625 8.36328125 C-1.22325713 7.97407876 -2.5661897 7.26637371 -5 5 C-3.33388095 4.957279 -1.66617115 4.95936168 0 5 C0.33 5.33 0.66 5.66 1 6 C2.69141656 5.91036938 4.37959602 5.75422324 6.0625 5.5625 C6.98160156 5.46066406 7.90070313 5.35882813 8.84765625 5.25390625 C9.91306641 5.12822266 9.91306641 5.12822266 11 5 C11.33 4.01 11.66 3.02 12 2 C11.38511719 2.10699219 10.77023438 2.21398437 10.13671875 2.32421875 C9.32847656 2.44410156 8.52023438 2.56398438 7.6875 2.6875 C6.88699219 2.81511719 6.08648437 2.94273437 5.26171875 3.07421875 C3 3 3 3 0 0 Z " fill="#B1353C" transform="translate(223,299)"/>
<path d="M0 0 C4.95 0 9.9 0 15 0 C15 2.97 15 5.94 15 9 C14.67 9 14.34 9 14 9 C13.67 7.02 13.34 5.04 13 3 C11.35 2.67 9.7 2.34 8 2 C8 2.99 8 3.98 8 5 C5.36 5 2.72 5 0 5 C0 3.35 0 1.7 0 0 Z " fill="#B92D38" transform="translate(381,289)"/>
<path d="M0 0 C0.33 0 0.66 0 1 0 C1 4.29 1 8.58 1 13 C0.01 13 -0.98 13 -2 13 C-2 12.01 -2 11.02 -2 10 C-3.65 10 -5.3 10 -7 10 C-7 9.34 -7 8.68 -7 8 C-5.35 8 -3.7 8 -2 8 C-2 7.01 -2 6.02 -2 5 C-3.65 5 -5.3 5 -7 5 C-7 4.01 -7 3.02 -7 2 C-4.69 2 -2.38 2 0 2 C0 1.34 0 0.68 0 0 Z " fill="#DFDFDF" transform="translate(143,321)"/>
<path d="M0 0 C1.32 0 2.64 0 4 0 C5.33333333 2.66666667 6.66666667 5.33333333 8 8 C6.68 8 5.36 8 4 8 C3.67 9.65 3.34 11.3 3 13 C2.01 13 1.02 13 0 13 C0 8.71 0 4.42 0 0 Z " fill="#181818" transform="translate(239,321)"/>
<path d="M0 0 C0.99 0 1.98 0 3 0 C3 3.3 3 6.6 3 10 C4.65 10 6.3 10 8 10 C8 10.99 8 11.98 8 13 C5.36 13 2.72 13 0 13 C0 8.71 0 4.42 0 0 Z " fill="#1C1C1C" transform="translate(349,321)"/>
<path d="M0 0 C3.25516428 3.16474305 6.32008793 6.32752791 9 10 C9 10.66 9 11.32 9 12 C6.03 12 3.06 12 0 12 C-0.33 11.01 -0.66 10.02 -1 9 C-0.01 9 0.98 9 2 9 C1.34 6.03 0.68 3.06 0 0 Z " fill="#B83A3E" transform="translate(300,295)"/>
<path d="M0 0 C0.33 0.66 0.66 1.32 1 2 C2.32 1.67 3.64 1.34 5 1 C5.144375 1.886875 5.28875 2.77375 5.4375 3.6875 C5.91019978 6.47117646 6.43070185 9.23483757 7 12 C5.02 12 3.04 12 1 12 C-0.3271261 8.0186217 -0.06915913 4.14954773 0 0 Z " fill="#CA2126" transform="translate(245,287)"/>
<path d="M0 0 C2.375 -0.125 2.375 -0.125 5 0 C5.66 0.66 6.32 1.32 7 2 C6.625 5.125 6.625 5.125 6 8 C4.02 8.33 2.04 8.66 0 9 C0 6.03 0 3.06 0 0 Z " fill="#FBE4E6" transform="translate(291,280)"/>
<path d="M0 0 C0 0.66 0 1.32 0 2 C-0.78246094 2.18175781 -1.56492187 2.36351562 -2.37109375 2.55078125 C-3.38300781 2.80214844 -4.39492188 3.05351562 -5.4375 3.3125 C-6.44683594 3.55613281 -7.45617187 3.79976563 -8.49609375 4.05078125 C-9.32238281 4.36402344 -10.14867187 4.67726563 -11 5 C-11.33 5.99 -11.66 6.98 -12 8 C-12.66 8 -13.32 8 -14 8 C-12.38461538 1.30769231 -12.38461538 1.30769231 -10.4375 -0.25 C-6.76051305 -1.3813806 -3.7779331 -0.62965552 0 0 Z " fill="#D11E2C" transform="translate(262,277)"/>
<path d="M0 0 C0.33 0 0.66 0 1 0 C1.47038817 7.22568494 1.52704262 12.16249768 -3 18 C-6.86123372 21.67288086 -9.71171182 22.23011571 -14.875 22.25 C-16.58417396 22.18619084 -18.29313365 22.10933663 -20 22 C-20 21.67 -20 21.34 -20 21 C-17.03 21 -14.06 21 -11 21 C-11 20.34 -11 19.68 -11 19 C-9.68 19 -8.36 19 -7 19 C-6.731875 18.401875 -6.46375 17.80375 -6.1875 17.1875 C-5.00800664 15.01474908 -3.770808 13.69381635 -2 12 C-0.78306124 9.56612247 -0.68040104 7.58161154 -0.4375 4.875 C-0.35371094 3.96492188 -0.26992187 3.05484375 -0.18359375 2.1171875 C-0.09271484 1.06917969 -0.09271484 1.06917969 0 0 Z " fill="#1D4F93" transform="translate(204,285)"/>
<path d="M0 0 C0.33 0 0.66 0 1 0 C1.12117187 0.61488281 1.24234375 1.22976563 1.3671875 1.86328125 C1.53476563 2.67152344 1.70234375 3.47976563 1.875 4.3125 C2.03742188 5.11300781 2.19984375 5.91351563 2.3671875 6.73828125 C2.94478999 9.25301118 2.94478999 9.25301118 5 12 C4.360625 12.12375 3.72125 12.2475 3.0625 12.375 C2.381875 12.58125 1.70125 12.7875 1 13 C0.67 13.66 0.34 14.32 0 15 C1.32 15.33 2.64 15.66 4 16 C3.01 16.66 2.02 17.32 1 18 C-3.875 14.375 -3.875 14.375 -5 11 C-3.02 11 -1.04 11 1 11 C0.67 10.34 0.34 9.68 0 9 C-0.06950541 7.45976004 -0.08452357 5.91665012 -0.0625 4.375 C-0.05347656 3.55773437 -0.04445312 2.74046875 -0.03515625 1.8984375 C-0.02355469 1.27195312 -0.01195312 0.64546875 0 0 Z " fill="#BD3843" transform="translate(251,288)"/>
<path d="M0 0 C2.97 0.33 5.94 0.66 9 1 C9 1.33 9 1.66 9 2 C6.36 2 3.72 2 1 2 C1 7.28 1 12.56 1 18 C0.67 18 0.34 18 0 18 C-3.41356674 7.18161926 -3.41356674 7.18161926 -1.6875 2.25 C-1.130625 1.5075 -0.57375 0.765 0 0 Z " fill="#FEF0F2" transform="translate(350,272)"/>
<path d="M0 0 C0.33 0.99 0.66 1.98 1 3 C0.47148437 2.84144531 -0.05703125 2.68289063 -0.6015625 2.51953125 C-6.02014775 1.34579861 -12.85669151 0.75331186 -18.078125 2.82421875 C-19.83209566 3.96563768 -19.83209566 3.96563768 -22 6 C-22.99 6.66 -23.98 7.32 -25 8 C-25.33 6.68 -25.66 5.36 -26 4 C-18.96375743 -0.36247039 -8.05056594 -3.43107453 0 0 Z " fill="#F6DCD9" transform="translate(238,273)"/>
<path d="M0 0 C5.94 1.485 5.94 1.485 12 3 C12 4.65 12 6.3 12 8 C10.68 8 9.36 8 8 8 C8 7.01 8 6.02 8 5 C5.36 5 2.72 5 0 5 C0 3.35 0 1.7 0 0 Z " fill="#92C7FB" transform="translate(404,269)"/>
<path d="M0 0 C0.66 0.33 1.32 0.66 2 1 C0.515 3.475 0.515 3.475 -1 6 C0.98 5.34 2.96 4.68 5 4 C5 3.34 5 2.68 5 2 C6.65 1.67 8.3 1.34 10 1 C10.66 1.99 11.32 2.98 12 4 C10.02 4 8.04 4 6 4 C6 4.66 6 5.32 6 6 C4.02253397 6.73080266 2.01927511 7.39421747 0 8 C-0.66 7.67 -1.32 7.34 -2 7 C-2.33 7.66 -2.66 8.32 -3 9 C-2.979375 8.05125 -2.95875 7.1025 -2.9375 6.125 C-2.77448174 3.09333717 -2.77448174 3.09333717 -4 1 C-2.68 1.33 -1.36 1.66 0 2 C0 1.34 0 0.68 0 0 Z " fill="#ECF9FD" transform="translate(398,274)"/>
<path d="M0 0 C2.64 0 5.28 0 8 0 C8.33 0.99 8.66 1.98 9 3 C8.34 3 7.68 3 7 3 C6.67 3.99 6.34 4.98 6 6 C5.01 6 4.02 6 3 6 C2.67 5.01 2.34 4.02 2 3 C1.67 6.3 1.34 9.6 1 13 C0.67 13 0.34 13 0 13 C0 8.71 0 4.42 0 0 Z " fill="#545454" transform="translate(267,321)"/>
<path d="M0 0 C0 1.32 0 2.64 0 4 C-3.63 4.33 -7.26 4.66 -11 5 C-11 3.68 -11 2.36 -11 1 C-7.32589215 -0.17571451 -3.83070817 -0.07366746 0 0 Z " fill="#C62326" transform="translate(235,301)"/>
<path d="M0 0 C2.48709896 3.73064844 2.29991053 5.57631968 2 10 C1 13.4375 1 13.4375 0 16 C-0.99 16 -1.98 16 -3 16 C-3 13.69 -3 11.38 -3 9 C-2.34 8.67 -1.68 8.34 -1 8 C-1.020625 7.05125 -1.04125 6.1025 -1.0625 5.125 C-1 2 -1 2 0 0 Z " fill="#014BAF" transform="translate(135,288)"/>
<path d="M0 0 C2.64 0 5.28 0 8 0 C8.33 0.66 8.66 1.32 9 2 C8.34 2 7.68 2 7 2 C6.67 3.32 6.34 4.64 6 6 C5.01 6 4.02 6 3 6 C2.67 5.01 2.34 4.02 2 3 C1.67 6.3 1.34 9.6 1 13 C0.67 13 0.34 13 0 13 C0 8.71 0 4.42 0 0 Z " fill="#5A5A5A" transform="translate(316,321)"/>
<path d="M0 0 C0.33 0 0.66 0 1 0 C1.05786668 3.79160297 1.09355054 7.58309311 1.125 11.375 C1.14175781 12.45523437 1.15851563 13.53546875 1.17578125 14.6484375 C1.18222656 15.6796875 1.18867188 16.7109375 1.1953125 17.7734375 C1.20578613 18.72653809 1.21625977 19.67963867 1.22705078 20.66162109 C1 23 1 23 -1 25 C-4.125 25.125 -4.125 25.125 -7 25 C-7.33 24.34 -7.66 23.68 -8 23 C-6.68 23.33 -5.36 23.66 -4 24 C-3.67 23.34 -3.34 22.68 -3 22 C-2.34 21.67 -1.68 21.34 -1 21 C-1.01160156 20.32195312 -1.02320313 19.64390625 -1.03515625 18.9453125 C-1.09708351 12.55795793 -0.77018868 6.34030324 0 0 Z " fill="#EEFEFE" transform="translate(130,275)"/>
<path d="M0 0 C0.99 0 1.98 0 3 0 C2.5359375 1.1446875 2.5359375 1.1446875 2.0625 2.3125 C-0.86586363 9.71953741 -0.10153031 15.51329827 2 23 C1.01 22.67 0.02 22.34 -1 22 C-1.66 17.05 -2.32 12.1 -3 7 C-2.34 7 -1.68 7 -1 7 C-0.67 4.69 -0.34 2.38 0 0 Z " fill="#FCDFE3" transform="translate(366,278)"/>
<path d="M0 0 C0.99 0.33 1.98 0.66 3 1 C2.67 4.96 2.34 8.92 2 13 C1.67 13 1.34 13 1 13 C1 11.02 1 9.04 1 7 C0.01 7 -0.98 7 -2 7 C-2.33 8.98 -2.66 10.96 -3 13 C-3.33 13 -3.66 13 -4 13 C-4 10.69 -4 8.38 -4 6 C-3.34 6 -2.68 6 -2 6 C-1.34 4.02 -0.68 2.04 0 0 Z " fill="#C12229" transform="translate(370,279)"/>
<path d="M0 0 C-0.93972656 0.50660156 -0.93972656 0.50660156 -1.8984375 1.0234375 C-2.71570313 1.46945312 -3.53296875 1.91546875 -4.375 2.375 C-5.18710938 2.81585938 -5.99921875 3.25671875 -6.8359375 3.7109375 C-10.92239051 6.14510626 -11.75340482 8.51225736 -13 13 C-13.42665125 15.66537184 -13.72201677 18.31282875 -14 21 C-14.33 21 -14.66 21 -15 21 C-15.62329486 11.26967471 -15.62329486 11.26967471 -13.3125 6.5625 C-5.81573896 -1.74472169 -5.81573896 -1.74472169 0 0 Z " fill="#B64049" transform="translate(226,275)"/>
<path d="M0 0 C2.64 0 5.28 0 8 0 C7.64267506 2.59060578 7.1383604 3.84567494 5.375 5.8125 C1.96177914 7.51911043 -0.36992414 6.89039597 -4 6 C-4.33 5.34 -4.66 4.68 -5 4 C-2.69 4 -0.38 4 2 4 C2 3.34 2 2.68 2 2 C1.34 1.34 0.68 0.68 0 0 Z " fill="#FAD2CD" transform="translate(381,294)"/>
<path d="M0 0 C1.89213369 2.38573379 3.02391783 4.07175348 4 7 C3.67 7.33 3.34 7.66 3 8 C2.92851801 9.35243917 2.91600546 10.70834367 2.9375 12.0625 C2.958125 13.361875 2.97875 14.66125 3 16 C2.34 16 1.68 16 1 16 C0.67 18.31 0.34 20.62 0 23 C-0.99 22.01 -1.98 21.02 -3 20 C-2.505 19.195625 -2.01 18.39125 -1.5 17.5625 C0.55866852 12.67316227 0.76932037 7.94213061 -0.578125 2.7890625 C-0.71734375 2.19867188 -0.8565625 1.60828125 -1 1 C-0.67 0.67 -0.34 0.34 0 0 Z " fill="#FBF1EE" transform="translate(276,281)"/>
<path d="M0 0 C1.32 0.66 2.64 1.32 4 2 C4 4.97 4 7.94 4 11 C3.01 11.495 3.01 11.495 2 12 C-0.125 9.9375 -0.125 9.9375 -2 7 C-1.25 3.1875 -1.25 3.1875 0 0 Z " fill="#E9E9E9" transform="translate(276,323)"/>
<path d="M0 0 C1.32 0 2.64 0 4 0 C4 0.66 4 1.32 4 2 C4.66 2 5.32 2 6 2 C7.6875 4.375 7.6875 4.375 9 8 C8.37836519 11.48115495 7.26968304 14.70533529 6 18 C5.01 18 4.02 18 3 18 C3.33 17.505 3.66 17.01 4 16.5 C5.40917404 12.97706491 5.72969048 9.69804304 5 6 C3.55465003 3.61290633 1.99584939 1.99584939 0 0 Z " fill="#1F5693" transform="translate(191,280)"/>
<path d="M0 0 C0.91007812 0.10183594 1.82015625 0.20367187 2.7578125 0.30859375 C3.45648438 0.39238281 4.15515625 0.47617187 4.875 0.5625 C4.875 0.8925 4.875 1.2225 4.875 1.5625 C4.21113281 1.59988281 3.54726563 1.63726562 2.86328125 1.67578125 C-4.17685288 2.09740283 -4.17685288 2.09740283 -10.125 5.5625 C-11.65976292 7.83678565 -12.87425894 10.10734162 -14.125 12.5625 C-14.455 12.5625 -14.785 12.5625 -15.125 12.5625 C-15.4375 9.8125 -15.4375 9.8125 -15.125 6.5625 C-12.8125 4.1875 -12.8125 4.1875 -10.125 2.5625 C-9.135 2.5625 -8.145 2.5625 -7.125 2.5625 C-7.125 1.9025 -7.125 1.2425 -7.125 0.5625 C-4.50184968 -0.74907516 -2.89466564 -0.33399988 0 0 Z " fill="#F7D5D1" transform="translate(259.125,272.4375)"/>
<path d="M0 0 C0.66 0 1.32 0 2 0 C2.08096803 1.45742463 2.13917774 2.91612807 2.1875 4.375 C2.22230469 5.18710937 2.25710937 5.99921875 2.29296875 6.8359375 C2.19628906 7.55007813 2.09960938 8.26421875 2 9 C1.01 9.66 0.02 10.32 -1 11 C-1.0825 10.4225 -1.165 9.845 -1.25 9.25 C-2.20531013 6.3840696 -3.78469173 5.0009236 -6 3 C-4.35 3 -2.7 3 -1 3 C-0.67 2.01 -0.34 1.02 0 0 Z " fill="#ECECEC" transform="translate(131,321)"/>
<path d="M0 0 C2.475 0.495 2.475 0.495 5 1 C4.67 3.97 4.34 6.94 4 10 C2.68 10 1.36 10 0 10 C0 6.7 0 3.4 0 0 Z " fill="#024AB0" transform="translate(133,276)"/>
<path d="M0 0 C0.99 0 1.98 0 3 0 C3 4.29 3 8.58 3 13 C2.01 13 1.02 13 0 13 C0 8.71 0 4.42 0 0 Z " fill="#1B1B1B" transform="translate(190,321)"/>
<path d="M0 0 C0.99 0 1.98 0 3 0 C3 4.29 3 8.58 3 13 C2.01 13 1.02 13 0 13 C0 8.71 0 4.42 0 0 Z " fill="#161616" transform="translate(329,321)"/>
<path d="M0 0 C1.66611905 -0.042721 3.33382885 -0.04063832 5 0 C6 1 6 1 6.0625 3.5625 C6.041875 4.366875 6.02125 5.17125 6 6 C4.34385343 6.38218767 2.67542976 6.71395102 1 7 C0 6 0 6 -0.0625 2.9375 C-0.041875 1.968125 -0.02125 0.99875 0 0 Z " fill="#F3F3F3" transform="translate(199,324)"/>
<path d="M0 0 C0.99 0 1.98 0 3 0 C3 4.29 3 8.58 3 13 C2.01 13 1.02 13 0 13 C0 8.71 0 4.42 0 0 Z " fill="#151515" transform="translate(170,321)"/>
<path d="M0 0 C0.66 0.33 1.32 0.66 2 1 C0.46698025 5.29245529 -1.9677088 7.01922537 -6 9 C-9.6929959 9.32510555 -13.30354429 9.23678364 -17 9 C-17 8.67 -17 8.34 -17 8 C-11.555 7.505 -11.555 7.505 -6 7 C-6 6.34 -6 5.68 -6 5 C-5.38125 4.9175 -4.7625 4.835 -4.125 4.75 C-1.81562433 4.18741541 -1.81562433 4.18741541 -0.75 1.9375 C-0.5025 1.298125 -0.255 0.65875 0 0 Z " fill="#B2363C" transform="translate(393,298)"/>
<path d="M0 0 C4.29 0 8.58 0 13 0 C13.66 1.98 14.32 3.96 15 6 C14.38125 5.505 13.7625 5.01 13.125 4.5 C8.73970259 2.39505724 4.78286739 2.74924773 0 3 C0 2.01 0 1.02 0 0 Z " fill="#C0DEEF" transform="translate(86,300)"/>
<path d="M0 0 C1.04027344 -0.01675781 2.08054687 -0.03351563 3.15234375 -0.05078125 C6.36107048 0.34977121 7.70608994 1.16050141 10.0625 3.3125 C9.0725 3.8075 9.0725 3.8075 8.0625 4.3125 C7.0725 3.6525 6.0825 2.9925 5.0625 2.3125 C-0.06760334 1.64802947 -5.27620733 1.98185366 -9.9375 4.3125 C-10.90627057 6.34493548 -10.90627057 6.34493548 -10.9375 8.3125 C-11.9275 7.9825 -12.9175 7.6525 -13.9375 7.3125 C-9.30727955 2.55713846 -6.76700896 0.02509398 0 0 Z " fill="#B43841" transform="translate(259.9375,273.6875)"/>
<path d="M0 0 C2 1 2 1 2.6328125 2.84765625 C2.79523438 3.57855469 2.95765625 4.30945313 3.125 5.0625 C3.29257813 5.79597656 3.46015625 6.52945312 3.6328125 7.28515625 C3.75398438 7.85105469 3.87515625 8.41695313 4 9 C1.69 9 -0.62 9 -3 9 C-2.01 6.03 -1.02 3.06 0 0 Z " fill="#CDEBF8" transform="translate(92,285)"/>
<path d="M0 0 C2.31 0 4.62 0 7 0 C6.67 1.32 6.34 2.64 6 4 C3.525 3.01 3.525 3.01 1 2 C1 8.6 1 15.2 1 22 C0.67 22 0.34 22 0 22 C0 14.74 0 7.48 0 0 Z " fill="#144495" transform="translate(132,274)"/>
<path d="M0 0 C0.66 0.99 1.32 1.98 2 3 C2.99 2.67 3.98 2.34 5 2 C7.1875 2.9375 7.1875 2.9375 9 4 C9 4.66 9 5.32 9 6 C8.21625 5.95875 7.4325 5.9175 6.625 5.875 C3.83883881 5.71271266 3.83883881 5.71271266 2 8 C1.34 8 0.68 8 0 8 C-0.66 8.66 -1.32 9.32 -2 10 C-2 6.38970831 -1.03907418 3.44193324 0 0 Z " fill="#E9E9E9" transform="translate(208,325)"/>
<path d="M0 0 C2.375 -0.125 2.375 -0.125 5 0 C5.66 0.66 6.32 1.32 7 2 C6.625 4.125 6.625 4.125 6 6 C4.02 6 2.04 6 0 6 C0 4.02 0 2.04 0 0 Z " fill="#484848" transform="translate(258,321)"/>
<path d="M0 0 C1.65 0 3.3 0 5 0 C5 1.65 5 3.3 5 5 C6.32 4.67 7.64 4.34 9 4 C9.33 4.66 9.66 5.32 10 6 C5.71 6 1.42 6 -3 6 C-2.67 4.68 -2.34 3.36 -2 2 C-1.67 2.66 -1.34 3.32 -1 4 C-0.34 3.67 0.32 3.34 1 3 C0.67 2.01 0.34 1.02 0 0 Z " fill="#0B4997" transform="translate(89,294)"/>
<path d="M0 0 C2 3 2 3 2 7 C2.66 7.33 3.32 7.66 4 8 C3.3125 10.375 3.3125 10.375 2 13 C-0.625 14.3125 -0.625 14.3125 -3 15 C-2.649375 14.34 -2.29875 13.68 -1.9375 13 C-0.67146591 8.9486909 -1.29385518 6.16625445 -2 2 C-1.34 2 -0.68 2 0 2 C0 1.34 0 0.68 0 0 Z " fill="#FBEAE9" transform="translate(306,276)"/>
<path d="M0 0 C-0.33 0.99 -0.66 1.98 -1 3 C-1 2.34 -1 1.68 -1 1 C-4.71883145 -0.23961048 -8.11671535 -0.76365849 -12 0 C-13.9354148 2.39056942 -13.9354148 2.39056942 -15 5 C-15.66 5 -16.32 5 -17 5 C-17.1875 2.625 -17.1875 2.625 -17 0 C-11.24268907 -3.83820729 -5.70494262 -3.80329508 0 0 Z " fill="#B93C43" transform="translate(268,282)"/>
<path d="M0 0 C2.78860497 3.71813996 3.4522354 4.95153001 4.1875 9.25 C4.34605469 10.14203125 4.50460938 11.0340625 4.66796875 11.953125 C4.83232422 12.96632813 4.83232422 12.96632813 5 14 C3.35 14.33 1.7 14.66 0 15 C0 10.05 0 5.1 0 0 Z " fill="#DFDFDF" transform="translate(173,321)"/>
<path d="M0 0 C0.33 3.96 0.66 7.92 1 12 C0.01 12 -0.98 12 -2 12 C-3.58076658 8.54207311 -4.51579638 5.8168932 -4 2 C-1 0 -1 0 0 0 Z " fill="#D11D25" transform="translate(354,293)"/>
<path d="M0 0 C6.75 0.75 6.75 0.75 9 3 C8.34 4.65 7.68 6.3 7 8 C4.03 7.67 1.06 7.34 -2 7 C-2 6.67 -2 6.34 -2 6 C1.465 5.505 1.465 5.505 5 5 C5 4.34 5 3.68 5 3 C3.35 2.67 1.7 2.34 0 2 C0 1.34 0 0.68 0 0 Z " fill="#BA3B46" transform="translate(230,274)"/>
<path d="M0 0 C2.31 0 4.62 0 7 0 C9.39542583 4.58154261 11.50829734 9.0276578 13 14 C12.01 14 11.02 14 10 14 C8.18757677 9.9811485 6.66498383 6.38889325 6 2 C4.02 2 2.04 2 0 2 C0 1.34 0 0.68 0 0 Z " fill="#235197" transform="translate(89,274)"/>
<path d="M0 0 C1.2065625 0.0309375 1.2065625 0.0309375 2.4375 0.0625 C2.1075 2.3725 1.7775 4.6825 1.4375 7.0625 C-0.2125 6.7325 -1.8625 6.4025 -3.5625 6.0625 C-3.605221 4.39638095 -3.60313832 2.72867115 -3.5625 1.0625 C-2.5625 0.0625 -2.5625 0.0625 0 0 Z " fill="#BE272D" transform="translate(355.5625,273.9375)"/>
<path d="M0 0 C0.66 1.32 1.32 2.64 2 4 C4.09374228 7.3094636 6.07834822 10.3705134 9 13 C8.01 13.33 7.02 13.66 6 14 C5.34 13.67 4.68 13.34 4 13 C4 12.34 4 11.68 4 11 C3.34 11 2.68 11 2 11 C2 10.34 2 9.68 2 9 C1.34 9 0.68 9 0 9 C0 6.03 0 3.06 0 0 Z " fill="#D1E9F7" transform="translate(172,293)"/>
<path d="M0 0 C0.66 0 1.32 0 2 0 C2.36426713 6.43538595 2.36426713 6.43538595 0.75 8.9375 C-1 10 -1 10 -5 10 C-5 9.34 -5 8.68 -5 8 C-4.01 7.34 -3.02 6.68 -2 6 C-0.78715124 2.94570927 -0.78715124 2.94570927 0 0 Z " fill="#121212" transform="translate(206,324)"/>
<path d="M0 0 C2.97 0.495 2.97 0.495 6 1 C4.68 1.33 3.36 1.66 2 2 C2 2.66 2 3.32 2 4 C3.32 4 4.64 4 6 4 C6 4.99 6 5.98 6 7 C3.69 7 1.38 7 -1 7 C-1.125 2.25 -1.125 2.25 0 0 Z " fill="#1F1F1F" transform="translate(230,327)"/>
<path d="M0 0 C0.66 0.66 1.32 1.32 2 2 C2.66 1.34 3.32 0.68 4 0 C4.103125 0.78375 4.20625 1.5675 4.3125 2.375 C4.77595022 5.33045181 4.77595022 5.33045181 8 7 C7.34 7 6.68 7 6 7 C6 7.66 6 8.32 6 9 C4.125 8.6875 4.125 8.6875 2 8 C-0.1519437 4.77208445 -0.20086443 3.71599191 0 0 Z " fill="#313131" transform="translate(195,325)"/>
<path d="M0 0 C2.96404505 2.80804268 5.44499019 5.18315774 7 9 C5.68 9 4.36 9 3 9 C3 8.01 3 7.02 3 6 C2.34 6 1.68 6 1 6 C1 7.98 1 9.96 1 12 C0.67 12 0.34 12 0 12 C0 8.04 0 4.08 0 0 Z " fill="#FDE4E1" transform="translate(291,295)"/>
<path d="M0 0 C0.33 0.66 0.66 1.32 1 2 C1.66 2.33 2.32 2.66 3 3 C2.34 3 1.68 3 1 3 C1 5.31 1 7.62 1 10 C0.01 9.67 -0.98 9.34 -2 9 C-2 7.02 -2 5.04 -2 3 C-3.65 3.33 -5.3 3.66 -7 4 C-6.67 3.01 -6.34 2.02 -6 1 C-4.02 0.67 -2.04 0.34 0 0 Z " fill="#F4E0E1" transform="translate(239,296)"/>
<path d="M0 0 C0.66 1.32 1.32 2.64 2 4 C1.01 5.485 1.01 5.485 0 7 C-2.49609375 7.36328125 -2.49609375 7.36328125 -5.4375 7.3125 C-6.40558594 7.30863281 -7.37367188 7.30476563 -8.37109375 7.30078125 C-11 7 -11 7 -14 5 C-5.42857143 4.85714286 -5.42857143 4.85714286 -2 6 C-1.34 4.02 -0.68 2.04 0 0 Z " fill="#FBE2E3" transform="translate(239,276)"/>
<path d="M0 0 C0.81210938 0.29003906 1.62421875 0.58007812 2.4609375 0.87890625 C3.27820313 1.16636719 4.09546875 1.45382812 4.9375 1.75 C5.56398437 1.97816406 6.19046875 2.20632813 6.8359375 2.44140625 C6.8359375 3.10140625 6.8359375 3.76140625 6.8359375 4.44140625 C0.4359375 4.93371394 0.4359375 4.93371394 -2.6015625 2.44140625 C-3.1171875 1.78140625 -3.6328125 1.12140625 -4.1640625 0.44140625 C-2.1640625 -0.55859375 -2.1640625 -0.55859375 0 0 Z " fill="#202020" transform="translate(180.1640625,329.55859375)"/>
<path d="M0 0 C2.05078125 0.03255208 4.1015625 0.06510417 6.15234375 0.09765625 C6.15234375 0.42765625 6.15234375 0.75765625 6.15234375 1.09765625 C3.84234375 1.42765625 1.53234375 1.75765625 -0.84765625 2.09765625 C-1.03328125 3.30421875 -1.03328125 3.30421875 -1.22265625 4.53515625 C-1.42890625 5.38078125 -1.63515625 6.22640625 -1.84765625 7.09765625 C-2.83765625 7.59265625 -2.83765625 7.59265625 -3.84765625 8.09765625 C-4.50320744 10.6249886 -4.50320744 10.6249886 -4.84765625 13.09765625 C-5.17765625 13.09765625 -5.50765625 13.09765625 -5.84765625 13.09765625 C-6.14308979 8.0752861 -5.85445198 5.18689845 -2.84765625 1.09765625 C-1.84765625 0.09765625 -1.84765625 0.09765625 0 0 Z " fill="#FDE6E0" transform="translate(257.84765625,280.90234375)"/>
<path d="M0 0 C-0.33 1.98 -0.66 3.96 -1 6 C-2.32 6.33 -3.64 6.66 -5 7 C-5 8.65 -5 10.3 -5 12 C-5.33 12 -5.66 12 -6 12 C-6.29554656 4.31578947 -6.29554656 4.31578947 -4 1 C-2 0 -2 0 0 0 Z " fill="#FCEBE7" transform="translate(225,282)"/>
<path d="M0 0 C1.98 0.99 1.98 0.99 4 2 C3.54177532 5.46941546 3.10868317 8.67395049 2 12 C1.34 12 0.68 12 0 12 C0 8.04 0 4.08 0 0 Z " fill="#F6F6F6" transform="translate(193,321)"/>
<path d="M0 0 C0.66 0.33 1.32 0.66 2 1 C1.3125 3.4375 1.3125 3.4375 0 6 C-3.80939588 7.48143173 -7.07196405 6.82214706 -11 6 C-11 5.67 -11 5.34 -11 5 C-8.36 5 -5.72 5 -3 5 C-2.87625 4.360625 -2.7525 3.72125 -2.625 3.0625 C-2.41875 2.381875 -2.2125 1.70125 -2 1 C-1.34 0.67 -0.68 0.34 0 0 Z " fill="#E4F6FD" transform="translate(87,302)"/>
<path d="M0 0 C2 2 2 2 2 5 C1.01 5.66 0.02 6.32 -1 7 C-1.33 7.99 -1.66 8.98 -2 10 C-4.97 10 -7.94 10 -11 10 C-11 9.67 -11 9.34 -11 9 C-9.906875 8.773125 -8.81375 8.54625 -7.6875 8.3125 C-3.90073325 7.34723401 -3.90073325 7.34723401 -2.125 4.5 C-1.75375 3.675 -1.3825 2.85 -1 2 C-0.67 1.34 -0.34 0.68 0 0 Z " fill="#BD2F31" transform="translate(390,292)"/>
<path d="M0 0 C0 0.66 0 1.32 0 2 C-1.32 2.33 -2.64 2.66 -4 3 C-4.8723412 5.99480917 -5.10829766 8.63575911 -5.0625 11.75 C-5.05347656 12.54921875 -5.04445312 13.3484375 -5.03515625 14.171875 C-5.02355469 14.77515625 -5.01195312 15.3784375 -5 16 C-5.66 16 -6.32 16 -7 16 C-7.08107583 14.06318839 -7.13922475 12.1254066 -7.1875 10.1875 C-7.22230469 9.10855469 -7.25710937 8.02960938 -7.29296875 6.91796875 C-7 4 -7 4 -5.61328125 2.17578125 C-3.62924467 0.72978849 -2.48489234 0 0 0 Z " fill="#B74044" transform="translate(225,280)"/>
<path d="M0 0 C0.33 0 0.66 0 1 0 C1 4.29 1 8.58 1 13 C0.01 13 -0.98 13 -2 13 C-2.19294408 8.17639811 -1.75747614 4.50353262 0 0 Z " fill="#DADADA" transform="translate(255,321)"/>
<path d="M0 0 C2 2 2 2 2.08203125 4.05859375 C1.99308594 4.84363281 1.90414063 5.62867188 1.8125 6.4375 C1.73644531 7.21996094 1.66039062 8.00242187 1.58203125 8.80859375 C0.90986979 11.33934933 -0.01877732 12.33919069 -2 14 C-3.24153433 10.275397 -2.47452539 9.52247731 -1 6 C-0.62406934 4.0075675 -0.28020455 2.0081326 0 0 Z " fill="#FBD9D5" transform="translate(267,285)"/>
<path d="M0 0 C0.33 0 0.66 0 1 0 C1 3.63 1 7.26 1 11 C0.34 9.68 -0.32 8.36 -1 7 C-1.66 8.32 -2.32 9.64 -3 11 C-3.66 11 -4.32 11 -5 11 C-4.67 8.69 -4.34 6.38 -4 4 C-3.34 4 -2.68 4 -2 4 C-1.34 2.68 -0.68 1.36 0 0 Z " fill="#0447A3" transform="translate(203,284)"/>
<path d="M0 0 C2.00720923 0.28674418 4.0085944 0.61866701 6 1 C4.8141763 4.37503669 3.72426311 6.64722731 1 9 C0.63877119 7.68942607 0.28619689 6.37646376 -0.0625 5.0625 C-0.35833984 3.96615234 -0.35833984 3.96615234 -0.66015625 2.84765625 C-0.77230469 2.23792969 -0.88445312 1.62820313 -1 1 C-0.67 0.67 -0.34 0.34 0 0 Z " fill="#D21E2F" transform="translate(333,275)"/>
<path d="M0 0 C1.65 1.65 3.3 3.3 5 5 C4.01 6.485 4.01 6.485 3 8 C0.6171875 8.29296875 0.6171875 8.29296875 -2.125 8.1875 C-3.03507812 8.16042969 -3.94515625 8.13335937 -4.8828125 8.10546875 C-5.58148438 8.07066406 -6.28015625 8.03585937 -7 8 C-7 7.67 -7 7.34 -7 7 C-4.03 7 -1.06 7 2 7 C0.515 4.03 0.515 4.03 -1 1 C-0.67 0.67 -0.34 0.34 0 0 Z " fill="#FAE3E4" transform="translate(307,300)"/>
<path d="M0 0 C0.99 0.495 0.99 0.495 2 1 C2 1.66 2 2.32 2 3 C5.63 3.33 9.26 3.66 13 4 C12.67 4.66 12.34 5.32 12 6 C9.67843403 6.40729228 7.3431213 6.74438677 5 7 C5 6.34 5 5.68 5 5 C3.68 4.67 2.36 4.34 1 4 C0.67 2.68 0.34 1.36 0 0 Z " fill="#1B539B" transform="translate(181,296)"/>
<path d="M0 0 C0.99 0 1.98 0 3 0 C3.8125 2.1875 3.8125 2.1875 4 5 C1.84381063 7.56411708 0.00900373 9.49549813 -3 11 C-2.690625 10.236875 -2.38125 9.47375 -2.0625 8.6875 C-1.32106407 6.81210323 -0.63771783 4.91315348 0 3 C0.66 3 1.32 3 2 3 C2 2.34 2 1.68 2 1 C1.34 0.67 0.68 0.34 0 0 Z " fill="#E1F5FC" transform="translate(421,266)"/>
<path d="M0 0 C1.32 0 2.64 0 4 0 C3.88637738 1.4800841 3.75877092 2.95910074 3.625 4.4375 C3.52058594 5.67306641 3.52058594 5.67306641 3.4140625 6.93359375 C3.27742188 7.61550781 3.14078125 8.29742187 3 9 C2.01 9.495 2.01 9.495 1 10 C0 2.25 0 2.25 0 0 Z " fill="#0644B5" transform="translate(86,282)"/>
<path d="M0 0 C0 0.66 0 1.32 0 2 C-1.1446875 2.86625 -1.1446875 2.86625 -2.3125 3.75 C-5.29694969 6.24860904 -6.47180965 8.46103287 -8 12 C-8.66 12 -9.32 12 -10 12 C-9.67 10.35 -9.34 8.7 -9 7 C-8.34 7 -7.68 7 -7 7 C-6.731875 6.21625 -6.46375 5.4325 -6.1875 4.625 C-4.80518115 1.56934781 -3.53283878 0 0 0 Z " fill="#D9EEFB" transform="translate(181,274)"/>
<path d="M0 0 C1.98 0 3.96 0 6 0 C7.10844919 3.32534757 6.84454356 5.62182575 6 9 C5.62875 8.1028125 5.62875 8.1028125 5.25 7.1875 C3.83555909 4.71222841 2.27139812 3.66569196 0 2 C0 1.34 0 0.68 0 0 Z " fill="#D5D5D5" transform="translate(215,323)"/>
<path d="M0 0 C0.66 0.33 1.32 0.66 2 1 C2.0270043 2.45823212 2.04639787 3.91660675 2.0625 5.375 C2.07410156 6.18710937 2.08570313 6.99921875 2.09765625 7.8359375 C2 10 2 10 1 12 C0.34 12 -0.32 12 -1 12 C-1.02698189 10.37509046 -1.04638757 8.75005367 -1.0625 7.125 C-1.07410156 6.22007812 -1.08570313 5.31515625 -1.09765625 4.3828125 C-1 2 -1 2 0 0 Z " fill="#164E98" transform="translate(179,285)"/>
<path d="M0 0 C0.66 0 1.32 0 2 0 C6.06153846 6.27692308 6.06153846 6.27692308 5.75 9.9375 C5.5025 10.618125 5.255 11.29875 5 12 C3.20931427 9.3139714 2.33944209 7.3373411 1.375 4.3125 C1.11460938 3.50425781 0.85421875 2.69601562 0.5859375 1.86328125 C0.39257812 1.24839844 0.19921875 0.63351562 0 0 Z " fill="#DCF2FA" transform="translate(96,273)"/>
<path d="M0 0 C2.3828125 -0.29296875 2.3828125 -0.29296875 5.125 -0.1875 C6.03507812 -0.16042969 6.94515625 -0.13335937 7.8828125 -0.10546875 C8.58148438 -0.07066406 9.28015625 -0.03585937 10 0 C10.33 0.66 10.66 1.32 11 2 C9.39602723 2.16852247 7.7918131 2.33474886 6.1875 2.5 C5.29417969 2.5928125 4.40085937 2.685625 3.48046875 2.78125 C1 3 1 3 -2 3 C-1.34 2.01 -0.68 1.02 0 0 Z " fill="#F5D2D6" transform="translate(374,272)"/>
<path d="M0 0 C1.5 1.1875 1.5 1.1875 3 3 C3.1875 5.6875 3.1875 5.6875 3 8 C2.01 8 1.02 8 0 8 C0 7.01 0 6.02 0 5 C-1.32 5 -2.64 5 -4 5 C-4 4.34 -4 3.68 -4 3 C-2.68 3 -1.36 3 0 3 C0 2.01 0 1.02 0 0 Z " fill="#E4E4E4" transform="translate(236,326)"/>
<path d="M0 0 C1.32 0 2.64 0 4 0 C4 1.65 4 3.3 4 5 C3.01 4.67 2.02 4.34 1 4 C1 4.99 1 5.98 1 7 C0.34 7 -0.32 7 -1 7 C-0.67 4.69 -0.34 2.38 0 0 Z " fill="#131313" transform="translate(339,321)"/>
<path d="M0 0 C2 3 2 3 2 5 C-0.64 5 -3.28 5 -6 5 C-5.67 4.01 -5.34 3.02 -5 2 C-2.4375 0.8125 -2.4375 0.8125 0 0 Z " fill="#1C4C90" transform="translate(107,302)"/>
<path d="M0 0 C2.31 0 4.62 0 7 0 C7.66 2.31 8.32 4.62 9 7 C8.34 7 7.68 7 7 7 C7 7.66 7 8.32 7 9 C6.34 9 5.68 9 5 9 C5 7.02 5 5.04 5 3 C2.525 2.01 2.525 2.01 0 1 C0 0.67 0 0.34 0 0 Z " fill="#BA2D33" transform="translate(292,279)"/>
<path d="M0 0 C1.65 1.65 3.3 3.3 5 5 C3.125 5.625 3.125 5.625 1 6 C0.34 5.34 -0.32 4.68 -1 4 C-1.66 4.66 -2.32 5.32 -3 6 C-3 4.35 -3 2.7 -3 1 C-2.01 1.33 -1.02 1.66 0 2 C0 1.34 0 0.68 0 0 Z " fill="#393939" transform="translate(322,328)"/>
<path d="M0 0 C0.66 1.32 1.32 2.64 2 4 C-0.36292656 6.52588702 -1.66462511 7.88820837 -5 9 C-5.66 8.34 -6.32 7.68 -7 7 C-6.34 7 -5.68 7 -5 7 C-4.67 6.34 -4.34 5.68 -4 5 C-3.01 5.33 -2.02 5.66 -1 6 C-1.020625 5.195625 -1.04125 4.39125 -1.0625 3.5625 C-1 1 -1 1 0 0 Z " fill="#1B529B" transform="translate(136,298)"/>
<path d="M0 0 C4.62 0 9.24 0 14 0 C14.33 0.99 14.66 1.98 15 3 C13.06318839 3.08107583 11.1254066 3.13922475 9.1875 3.1875 C8.10855469 3.22230469 7.02960938 3.25710938 5.91796875 3.29296875 C3 3 3 3 0 0 Z " fill="#B83F4C" transform="translate(223,299)"/>
<path d="M0 0 C0.66 0 1.32 0 2 0 C6 5.29411765 6 5.29411765 6 9 C5.01 9 4.02 9 3 9 C2.01 6.03 1.02 3.06 0 0 Z " fill="#E2F5FD" transform="translate(102,288)"/>
<path d="M0 0 C1.98 0 3.96 0 6 0 C5.34 1.65 4.68 3.3 4 5 C2.35 4.67 0.7 4.34 -1 4 C-0.67 2.68 -0.34 1.36 0 0 Z " fill="#F9F8F7" transform="translate(232,283)"/>
<path d="M0 0 C0.66 0 1.32 0 2 0 C1.54917531 1.46067199 1.08906463 2.91848032 0.625 4.375 C0.36976562 5.18710937 0.11453125 5.99921875 -0.1484375 6.8359375 C-1 9 -1 9 -3 11 C-3.125 4.25 -3.125 4.25 -2 2 C-1.34 2 -0.68 2 0 2 C0 1.34 0 0.68 0 0 Z " fill="#DDF7F8" transform="translate(87,274)"/>
<path d="M0 0 C3.01802393 0.32627286 4.59691281 0.61081236 6.8125 2.75 C8.19608294 5.37152557 8.24360427 7.07674878 8 10 C5.74754119 7.31158141 4.11786042 5.35358125 3 2 C2.01 1.67 1.02 1.34 0 1 C0 0.67 0 0.34 0 0 Z " fill="#CDE8F4" transform="translate(197,275)"/>
<path d="M0 0 C0.99 0 1.98 0 3 0 C2.1875 3.4375 2.1875 3.4375 1 7 C0.01 7.33 -0.98 7.66 -2 8 C-1.125 2.25 -1.125 2.25 0 0 Z " fill="#0E0E0E" transform="translate(165,321)"/>
<path d="M0 0 C0.66 0 1.32 0 2 0 C2 1.98 2 3.96 2 6 C0.02 6.66 -1.96 7.32 -4 8 C-4.33 7.34 -4.66 6.68 -5 6 C-4.360625 5.566875 -3.72125 5.13375 -3.0625 4.6875 C-0.73253997 3.08760823 -0.73253997 3.08760823 0 0 Z " fill="#FBE6E5" transform="translate(393,278)"/>
<path d="M0 0 C2.97 0.495 2.97 0.495 6 1 C6 1.99 6 2.98 6 4 C3.69 4 1.38 4 -1 4 C-0.67 2.68 -0.34 1.36 0 0 Z " fill="#161616" transform="translate(361,330)"/>
<path d="M0 0 C0.99 0.33 1.98 0.66 3 1 C3.33 2.65 3.66 4.3 4 6 C3.01 6 2.02 6 1 6 C1 5.01 1 4.02 1 3 C-0.32 2.67 -1.64 2.34 -3 2 C-2.01 1.34 -1.02 0.68 0 0 Z " fill="#101010" transform="translate(343,328)"/>
<path d="M0 0 C1.32 0 2.64 0 4 0 C4 1.32 4 2.64 4 4 C2.02 4.33 0.04 4.66 -2 5 C-1.34 3.35 -0.68 1.7 0 0 Z " fill="#4E4E4E" transform="translate(305,325)"/>
<path d="M0 0 C2.31 0 4.62 0 7 0 C6.67 0.99 6.34 1.98 6 3 C4.68 3 3.36 3 2 3 C1.67 3.66 1.34 4.32 1 5 C0.34 5 -0.32 5 -1 5 C-0.67 3.35 -0.34 1.7 0 0 Z " fill="#131313" transform="translate(213,321)"/>
<path d="M0 0 C1.33597652 0.80814651 2.668725 1.62163181 4 2.4375 C5.11375 3.11619141 5.11375 3.11619141 6.25 3.80859375 C6.8275 4.20175781 7.405 4.59492188 8 5 C8 5.33 8 5.66 8 6 C5.1875 6.25 5.1875 6.25 2 6 C0.125 4 0.125 4 -1 2 C-0.67 1.34 -0.34 0.68 0 0 Z " fill="#FCDCDD" transform="translate(368,301)"/>
<path d="M0 0 C1.32 0.33 2.64 0.66 4 1 C4.33 3.31 4.66 5.62 5 8 C4.01 8 3.02 8 2 8 C1.34 5.36 0.68 2.72 0 0 Z " fill="#CE1F29" transform="translate(297,296)"/>
<path d="M0 0 C0.66 0 1.32 0 2 0 C2.99 2.97 3.98 5.94 5 9 C4.34 9 3.68 9 3 9 C0.56839395 5.63316085 0 4.26649636 0 0 Z " fill="#205698" transform="translate(101,290)"/>
<path d="M0 0 C0.66 0 1.32 0 2 0 C1.54965877 1.62723299 1.08944646 3.25173664 0.625 4.875 C0.36976562 5.77992188 0.11453125 6.68484375 -0.1484375 7.6171875 C-1 10 -1 10 -3 12 C-2.49202991 7.6822542 -1.80317221 3.96697886 0 0 Z " fill="#D5EFFA" transform="translate(82,286)"/>
<path d="M0 0 C2 3 2 3 3 6 C1.68 6 0.36 6 -1 6 C-1 5.34 -1 4.68 -1 4 C-2.98 4 -4.96 4 -7 4 C-7 3.67 -7 3.34 -7 3 C-5.5459375 2.814375 -5.5459375 2.814375 -4.0625 2.625 C-2.5465625 2.315625 -2.5465625 2.315625 -1 2 C-0.67 1.34 -0.34 0.68 0 0 Z " fill="#414141" transform="translate(312,328)"/>
<path d="M0 0 C1.4540625 0.0309375 1.4540625 0.0309375 2.9375 0.0625 C2.6075 0.7225 2.2775 1.3825 1.9375 2.0625 C0.6175 2.0625 -0.7025 2.0625 -2.0625 2.0625 C-2.0625 3.0525 -2.0625 4.0425 -2.0625 5.0625 C-3.0525 5.0625 -4.0425 5.0625 -5.0625 5.0625 C-3.9375 0.08035714 -3.9375 0.08035714 0 0 Z " fill="#0B0B0B" transform="translate(307.0625,328.9375)"/>
<path d="M0 0 C2.31 0 4.62 0 7 0 C7 0.66 7 1.32 7 2 C5.35 2 3.7 2 2 2 C2 2.99 2 3.98 2 5 C1.34 5 0.68 5 0 5 C0 3.35 0 1.7 0 0 Z " fill="#0A0A0A" transform="translate(281,321)"/>
<path d="M0 0 C2.31 0 4.62 0 7 0 C7 0.99 7 1.98 7 3 C4.36 2.67 1.72 2.34 -1 2 C-0.67 1.34 -0.34 0.68 0 0 Z " fill="#373737" transform="translate(123,321)"/>
<path d="M0 0 C0 0.99 0 1.98 0 3 C-4.00200378 4.60080151 -7.04556236 3.29279692 -11 2 C-11 1.67 -11 1.34 -11 1 C-9.54182203 0.83197949 -8.0834516 0.66562857 -6.625 0.5 C-5.81289063 0.4071875 -5.00078125 0.314375 -4.1640625 0.21875 C-2 0 -2 0 0 0 Z " fill="#F1CBC7" transform="translate(389,306)"/>
<path d="M0 0 C2.97 0 5.94 0 9 0 C8.67 0.66 8.34 1.32 8 2 C5.67843403 2.40729228 3.3431213 2.74438677 1 3 C0.67 2.01 0.34 1.02 0 0 Z " fill="#EEFDFD" transform="translate(183,308)"/>
<path d="M0 0 C0 1.32 0 2.64 0 4 C-2.64 4 -5.28 4 -8 4 C-7.01 3.67 -6.02 3.34 -5 3 C-5 2.34 -5 1.68 -5 1 C-3 0 -3 0 0 0 Z " fill="#D31C25" transform="translate(235,301)"/>
<path d="M0 0 C3.63 0 7.26 0 11 0 C9.515 1.485 9.515 1.485 8 3 C4.375 2.8125 4.375 2.8125 1 2 C0.67 1.34 0.34 0.68 0 0 Z " fill="#F5C5C8" transform="translate(376,298)"/>
<path d="M0 0 C2.40072955 2.88087546 4.47291037 5.56404834 6 9 C3.53199953 7.84826645 1.95216435 6.95216435 0 5 C-0.125 2.375 -0.125 2.375 0 0 Z " fill="#FEE4E0" transform="translate(343,295)"/>
<path d="M0 0 C1.13732426 3.40401948 0.83989957 5.77456664 0.0625 9.25 C-0.13214844 10.14203125 -0.32679688 11.0340625 -0.52734375 11.953125 C-0.68332031 12.62859375 -0.83929688 13.3040625 -1 14 C-1.33 14 -1.66 14 -2 14 C-2.05410687 12.22950311 -2.09284119 10.45853151 -2.125 8.6875 C-2.14820313 7.70136719 -2.17140625 6.71523438 -2.1953125 5.69921875 C-2 3 -2 3 0 0 Z " fill="#B2353F" transform="translate(213,282)"/>
<path d="M0 0 C2 1.5 2 1.5 4 4 C4.35800135 6.75871627 4.18660165 9.20097524 4 12 C3.67 12 3.34 12 3 12 C2.49440092 10.56445975 1.9957251 9.1264798 1.5 7.6875 C1.2215625 6.88699219 0.943125 6.08648437 0.65625 5.26171875 C0 3 0 3 0 0 Z " fill="#DBF4FB" transform="translate(193,282)"/>
<path d="M0 0 C1.65 1.32 3.3 2.64 5 4 C4.01 5.485 4.01 5.485 3 7 C3 6.34 3 5.68 3 5 C0.525 4.01 0.525 4.01 -2 3 C-1.34 2.67 -0.68 2.34 0 2 C0 1.34 0 0.68 0 0 Z " fill="#222222" transform="translate(214,324)"/>
<path d="M0 0 C2.31 0 4.62 0 7 0 C7 0.66 7 1.32 7 2 C5.35 2 3.7 2 2 2 C1.67 2.99 1.34 3.98 1 5 C0.67 3.35 0.34 1.7 0 0 Z " fill="#030303" transform="translate(360,321)"/>
<path d="M0 0 C2.31 0 4.62 0 7 0 C6.34 1.32 5.68 2.64 5 4 C4.01 4 3.02 4 2 4 C1.34 2.68 0.68 1.36 0 0 Z " fill="#FCF7F5" transform="translate(371,307)"/>
<path d="M0 0 C3 1 3 1 4 3 C6.32156597 3.40729228 8.6568787 3.74438677 11 4 C11 4.33 11 4.66 11 5 C3.5340751 5.36717663 3.5340751 5.36717663 1 3.625 C0 2 0 2 0 0 Z " fill="#FEDDDC" transform="translate(253,295)"/>
<path d="M0 0 C0.33 0 0.66 0 1 0 C1.66 3.96 2.32 7.92 3 12 C2.01 12.495 2.01 12.495 1 13 C-1.48887372 8.31506124 -0.85687773 5.0555786 0 0 Z " fill="#FBD7D4" transform="translate(243,288)"/>
<path d="M0 0 C0.33 0.99 0.66 1.98 1 3 C-1 5 -1 5 -4.125 5.125 C-5.548125 5.063125 -5.548125 5.063125 -7 5 C-7.33 4.34 -7.66 3.68 -8 3 C-6.68 3.33 -5.36 3.66 -4 4 C-3.67 3.34 -3.34 2.68 -3 2 C-2.01 1.34 -1.02 0.68 0 0 Z " fill="#DDF3FE" transform="translate(130,295)"/>
<path d="M0 0 C2.97 0.495 2.97 0.495 6 1 C5.01 1.495 5.01 1.495 4 2 C3.67 2.66 3.34 3.32 3 4 C2.01 4.66 1.02 5.32 0 6 C0 4.02 0 2.04 0 0 Z " fill="#F0FDF9" transform="translate(377,285)"/>
<path d="M0 0 C0.66 1.32 1.32 2.64 2 4 C0.02 4.33 -1.96 4.66 -4 5 C-3.6875 3.0625 -3.6875 3.0625 -3 1 C-2.01 0.67 -1.02 0.34 0 0 Z " fill="#616161" transform="translate(343,324)"/>
<path d="M0 0 C0.99 0.66 1.98 1.32 3 2 C2.67 3.32 2.34 4.64 2 6 C2 5.01 2 4.02 2 3 C1.34 3 0.68 3 0 3 C0 3.66 0 4.32 0 5 C-0.99 5 -1.98 5 -3 5 C-3 4.01 -3 3.02 -3 2 C-2.01 2 -1.02 2 0 2 C0 1.34 0 0.68 0 0 Z " fill="#797979" transform="translate(150,321)"/>
<path d="M0 0 C1.98 0 3.96 0 6 0 C6 0.99 6 1.98 6 3 C4.35 2.67 2.7 2.34 1 2 C0.67 2.66 0.34 3.32 0 4 C0 2.68 0 1.36 0 0 Z " fill="#101010" transform="translate(293,321)"/>
<path d="M0 0 C3.63 0.33 7.26 0.66 11 1 C11 1.33 11 1.66 11 2 C8.03 2 5.06 2 2 2 C2 2.66 2 3.32 2 4 C1.01 3.67 0.02 3.34 -1 3 C-0.67 2.01 -0.34 1.02 0 0 Z " fill="#B8D4EC" transform="translate(181,306)"/>
<path d="M0 0 C0.33 0.99 0.66 1.98 1 3 C0.01 3.99 -0.98 4.98 -2 6 C-3.32 5.34 -4.64 4.68 -6 4 C-4.02 2.68 -2.04 1.36 0 0 Z " fill="#FBDADB" transform="translate(272,302)"/>
<path d="M0 0 C0.33 0 0.66 0 1 0 C1.28571429 7.42857143 1.28571429 7.42857143 -1 11 C-2.23076923 4.6 -2.23076923 4.6 -1.0625 1.5625 C-0.711875 1.046875 -0.36125 0.53125 0 0 Z " fill="#FDF2F0" transform="translate(243,281)"/>
<path d="M0 0 C0.66 0.66 1.32 1.32 2 2 C1.54625 2.5775 1.0925 3.155 0.625 3.75 C-0.84113516 5.7800333 -1.94857784 7.73539843 -3 10 C-2.25 2.25 -2.25 2.25 0 0 Z " fill="#CCE3F7" transform="translate(183,283)"/>
<path d="M0 0 C6.75 0.75 6.75 0.75 9 3 C5.72724974 3 3.153368 2.70074844 0 2 C0 1.34 0 0.68 0 0 Z " fill="#B33238" transform="translate(230,274)"/>
<path d="M0 0 C3.24208567 0.35049575 4.61527704 0.56221181 6.8125 3.0625 C7.204375 3.701875 7.59625 4.34125 8 5 C6.68 5 5.36 5 4 5 C1.75 2.5 1.75 2.5 0 0 Z " fill="#111111" transform="translate(270,329)"/>
<path d="M0 0 C1.98 0.66 3.96 1.32 6 2 C6 2.66 6 3.32 6 4 C3.69 3.67 1.38 3.34 -1 3 C-0.67 2.01 -0.34 1.02 0 0 Z " fill="#EFEFEF" transform="translate(370,327)"/>
<path d="M0 0 C0.66 0 1.32 0 2 0 C2 1.98 2 3.96 2 6 C1.01 6 0.02 6 -1 6 C-1.042721 4.33388095 -1.04063832 2.66617115 -1 1 C-0.67 0.67 -0.34 0.34 0 0 Z " fill="#090909" transform="translate(206,324)"/>
<path d="M0 0 C0.99 0 1.98 0 3 0 C3 0.66 3 1.32 3 2 C3.66 2 4.32 2 5 2 C5 2.66 5 3.32 5 4 C3.02 4 1.04 4 -1 4 C-0.67 2.68 -0.34 1.36 0 0 Z " fill="#F6FCF7" transform="translate(349,308)"/>
<path d="M0 0 C2.64 0 5.28 0 8 0 C7.01 0.495 7.01 0.495 6 1 C6 1.66 6 2.32 6 3 C3.5625 2.625 3.5625 2.625 1 2 C0.67 1.34 0.34 0.68 0 0 Z " fill="#E6FCFD" transform="translate(101,307)"/>
<path d="M0 0 C0.33 0 0.66 0 1 0 C1.66 2.31 2.32 4.62 3 7 C1.35 7 -0.3 7 -2 7 C-1.34 4.69 -0.68 2.38 0 0 Z " fill="#325C9B" transform="translate(78,300)"/>
<path d="M0 0 C0.33 0 0.66 0 1 0 C0.67 2.97 0.34 5.94 0 9 C-0.99 8.01 -1.98 7.02 -3 6 C-2.01 4.02 -1.02 2.04 0 0 Z " fill="#FADCDD" transform="translate(276,295)"/>
<path d="M0 0 C-0.33 0.99 -0.66 1.98 -1 3 C-3.31 2.67 -5.62 2.34 -8 2 C-4.77208445 -0.1519437 -3.71599191 -0.20086443 0 0 Z " fill="#D71E2E" transform="translate(271,300)"/>
<path d="M0 0 C0.33 0.66 0.66 1.32 1 2 C1.66 2 2.32 2 3 2 C3.33 3.32 3.66 4.64 4 6 C2.68 6.33 1.36 6.66 0 7 C0 4.69 0 2.38 0 0 Z " fill="#0443B5" transform="translate(82,295)"/>
<path d="M0 0 C0.99 0.33 1.98 0.66 3 1 C3 2.65 3 4.3 3 6 C1.68 5.34 0.36 4.68 -1 4 C-0.67 2.68 -0.34 1.36 0 0 Z " fill="#D41D27" transform="translate(370,294)"/>
<path d="M0 0 C1.0625 1.875 1.0625 1.875 2 4 C1 6 1 6 -1 7 C-1 6.34 -1 5.68 -1 5 C-1.66 5 -2.32 5 -3 5 C-2 2 -2 2 0 0 Z " fill="#C81C1F" transform="translate(338,278)"/>
</svg>
