<svg width="1112" height="218" viewBox="0 0 1112 218" fill="none" xmlns="http://www.w3.org/2000/svg">
<path d="M585.75 22.375H594.5L605.125 24.25L614.5 28L621.375 32.375L627.625 38L633.25 44.25L638.875 54.25L642 64.25L643.25 71.75V84.25L641.375 93.625L638.875 100.5L634.5 108.625L627.625 117.375L622.625 121.75L613.25 127.375L605.125 130.5L595.125 132.375H582L571.375 129.875L564.5 126.75L558.25 123L552 117.375L547 111.75L542 103L538.875 95.5L536.375 83V69.875L538.875 59.25L542.625 50.5L547.625 43L554.5 35.5L562.625 29.875L574.5 24.25L585.75 22.375Z" fill="#CD2A38"/>
<path d="M353.875 23H368.25L378.25 25.5L388.875 30.5L396.375 36.125L401.375 41.125L407.625 50.5L412 60.5L413.875 68.625V85.5L412 94.25L408.25 103.625L403.25 111.125L397.625 117.375L391.375 123L381.375 128.625L372.625 131.125L365.125 132.375H355.75L344.5 129.875L337 126.75L329.5 122.375L321.375 114.875L315.75 107.375L310.75 96.75L308.25 86.125L307.625 76.125L308.875 65.5L312 55.5L317 46.125L323.875 38L331.375 31.75L338.875 27.375L347.625 24.25L353.875 23Z" fill="#074CA6"/>
<path d="M814.5 24.25H838.25L843.25 31.125L858.875 56.125L867.625 69.875L874.5 80.5L878.875 87.375V88.625H880.125V24.875L881.375 24.25H904.5L905.125 26.125V87.375L904.5 130.5L893.875 131.125H881.375L877 125.5L870.125 114.875L852.625 87.375L846.375 78L839.5 66.75L838.875 79.875L838.25 130.5L837.625 131.125H818.875L813.875 130.5V24.875L814.5 24.25Z" fill="#CD2A38"/>
<path d="M665.125 24.25H700.125L710.125 25.5L719.5 28.625L726.375 33L730.75 38L733.25 43L735.125 49.875L735.75 53.625V59.875L733.875 68L729.5 76.125L723.875 81.75L717.625 85.5L715.125 86.75L717.625 90.5L725.75 99.875L731.375 107.375L738.875 116.125L744.5 123L748.25 128L748.875 130.5H718.875L717 128.625L713.25 123L706.375 114.25L697.625 103L688.25 90.5L687.625 130.5H662.625V24.875L665.125 24.25Z" fill="#CD2A38"/>
<path d="M972 22.375H981.375L990.125 23.625L999.5 26.75L1008.25 31.75L1015.75 37.375L1017.62 39.25L1017 41.75L1011.38 48L1007 53L1003.25 57.375L1000.75 56.125L998.25 54.25V53L995.75 51.75L989.5 47.375L979.5 44.875L971.375 46.125L964.5 49.875L960.125 53.625L955.125 62.375L952.625 71.125L952 74.875V81.125L953.875 89.25L958.875 99.25L962.625 103.625L968.25 107.375L975.125 109.25H980.75L990.125 106.75L995.125 103L998.875 97.375L1000.12 93.625V90.5L977 89.875L976.375 88.625V71.75L977.625 70.5H1025.75L1026.38 71.125V83.625L1025.75 94.875L1022.62 104.25L1018.25 112.375L1012.62 118.625L1006.38 123.625L998.875 128L989.5 131.125L976.375 133L965.75 131.75L957 128.625L950.125 124.875L942 118.625L937 113L931.375 104.25L927.625 95.5L925.125 83V70.5L927 61.125L930.125 53L935.125 43.625L942.625 35.5L951.375 29.25L960.125 24.875L967.625 23L972 22.375Z" fill="#CD2A38"/>
<path d="M43.25 24.25L64.5 24.875L68.875 34.25L77.625 56.75L85.125 74.875L98.875 109.25L105.75 126.125L106.375 129.875L99.5 130.5H90.125L81.375 129.875L78.25 122.375L73.875 110.5L73.25 109.875L33.875 109.25L30.75 116.75L25.75 129.875L23.875 130.5H10.125L0.125 129.875L2 124.25L15.125 91.75L35.125 42.375L42 26.125L43.25 24.25Z" fill="#074DA7"/>
<path d="M193.25 24.25H201.375V100.5L198.875 110.5L195.125 118L191.375 122.375L182.625 128L172.625 131.125L165.125 132.375H155.125L142.625 129.875L133.875 125.5L127.625 119.875L122.625 111.75L120.125 103L119.5 97.375V24.875H143.25L143.875 88.625L145.125 98L148.25 104.25L153.25 107.375L156.375 108H163.25L168.875 106.75L172.625 104.25L175.125 100.5L177 93L177.625 25.5L178.25 24.875L193.25 24.25Z" fill="#074DA7"/>
<path d="M482.625 22.375H492.625L505.125 24.25L514.5 27.375L521.375 31.125L522 33.625L517 44.25L512.625 51.75L510.75 53L507.625 51.125L499.5 48L495.75 47.375H486.375L477 49.25L469.5 53L463.875 58L459.5 64.875L457.625 70.5L457 73.625V79.875L459.5 88.625L463.25 95.5L468.25 101.125L473.25 104.25L481.375 106.75L485.125 107.375H496.375L506.375 104.875L510.125 102.375L512.625 103L517.625 111.75L522 121.75V123.625L512.625 128L504.5 130.5L493.25 132.375H480.75L469.5 129.875L459.5 125.5L450.75 119.875L445.125 114.875L438.875 106.75L433.875 98L430.75 88.625L429.5 79.875L430.125 69.875L432.625 60.5L437.625 50.5L441.375 44.875L448.875 36.75L457 31.125L470.125 24.875L477.625 23L482.625 22.375Z" fill="#CD2A38"/>
<path d="M243.25 24.25H255.75L293.875 24.875V41.75L293.25 46.125H268.875L268.25 130.5H250.75L244.5 129.875V46.125H223.875L219.5 45.5V24.875L243.25 24.25Z" fill="#074DA7"/>
<path d="M357 46.125H365.75L371.375 47.375L377.625 51.125L382.625 56.75L385.125 60.5L388.25 70.5V83.625L386.375 91.125L382 99.25L378.875 103L373.25 106.75L367.625 108.625L363.875 109.25H358.875L352 108L344.5 104.25L340.125 99.875L336.375 93L334.5 87.375L333.875 84.25V71.125L337 61.125L341.375 54.25L346.375 49.875L351.375 47.375L357 46.125Z" fill="#FBFCFE"/>
<path d="M583.25 46.75H595.75L602 48.625L607 52.375L611.375 57.375L615.125 64.875L616.375 70.5V84.25L613.875 93L610.125 99.25L606.375 103.625L599.5 107.375L593.25 108.625H587.625L578.25 106.75L572.625 103L568.875 98.625L565.75 93L563.875 87.375L562.625 79.875V74.25L563.875 66.75L567 59.25L571.375 53.625L577 48.625L583.25 46.75Z" fill="#FEFEFE"/>
<path d="M768.875 24.25H788.875V130.5L775.125 131.125L764.5 130.5V24.875L768.875 24.25Z" fill="#CB2A38"/>
<path d="M1108.25 0.5H1112L1111.38 3L1105.75 12.375L1097.62 25.5L1092 33.625L1087 39.25L1083.88 41.125L1079.5 40.5L1062.62 29.25L1057.62 25.5L1054.5 26.75L1045.75 34.25L1035.12 41.75L1032 43.625H1027.62L1028.25 39.875L1035.12 28.625L1045.75 13L1051.38 5.5L1055.75 1.125L1064.5 5.5L1077 14.25L1081.38 17.375L1084.5 16.75L1097 8L1106.38 1.125L1108.25 0.5Z" fill="#91C4FE"/>
<path d="M398.875 173.625H405.75L412 175.5L415.75 178L420.75 183.625L423.25 189.25L423.875 193V198.625L422 205.5L417 212.375L410.75 216.125L405.75 217.375H399.5L393.25 215.5L387 211.125L383.25 205.5L381.375 199.875V191.125L384.5 183.625L388.875 178L395.75 174.25L398.875 173.625Z" fill="#060608"/>
<path d="M524.5 174.25H533.875L536.375 179.25L542.625 196.75L543.875 197.375L545.75 191.75L552.625 174.875L553.25 174.25H563.25L565.125 194.25L566.375 209.875V216.125L557.625 216.75L556.375 209.875L555.75 195.5L555.125 194.25L548.25 211.125L546.375 215.5L543.875 216.75L540.75 216.125L536.375 205.5L532.625 194.25H532L530.125 213.625L528.875 216.75H520.75L520.125 214.25L522.625 184.25L523.875 174.875L524.5 174.25Z" fill="#060608"/>
<path d="M217 174.25H234.5L239.5 175.5L242.625 178L245.125 182.375L245.75 184.875V190.5L243.875 194.25L239.5 198L238.25 199.25L242 204.25L248.875 212.375L250.75 216.75H243.875L238.25 215.5L228.25 203L226.375 201.75V216.125L217.625 216.75L217 216.125L216.375 208.625V176.75L217 174.25Z" fill="#06060A"/>
<path d="M612.625 174.25H630.75L636.375 176.125L640.125 180.5L641.375 183L642 188.625L639.5 194.875L635.125 198.625H633.875L637.625 204.25L645.125 213L646.375 214.875V216.75H638.875L635.125 215.5L632 212.375L625.75 204.875L623.25 201.75L622 201.125L622.625 214.25L622 216.125L613.25 216.75L612.625 216.125V174.25Z" fill="#060507"/>
<path d="M769.5 174.25H787.625L792.625 176.125L796.375 179.25L798.25 183.625L798.875 188L796.375 194.25L793.25 197.375L791.375 199.875L797.625 208L802.625 213.625L803.875 216.75H794.5L791.375 215.5L785.75 208.625L780.75 202.375L778.875 201.125V215.5L775.125 216.75H770.125L769.5 214.875V174.25Z" fill="#060506"/>
<path d="M738.25 174.25H746.375L748.25 176.125L751.375 184.25L759.5 204.875L763.875 215.5V216.75L753.875 216.125L752 212.375L750.75 209.25L750.125 208.625H735.125L733.25 211.75L731.375 216.125L727.625 216.75L721.375 216.125L725.125 206.125L734.5 182.375L737.625 174.875L738.25 174.25Z" fill="#060508"/>
<path d="M845.75 173.625L850.75 174.25L853.25 177.375L864.5 204.875L868.25 215.5V216.75L858.25 216.125L855.75 208.625L839.5 208L837.625 212.375L835.75 216.125L826.375 216.75L828.25 209.25L835.125 193L841.375 178.625L843.25 174.875L845.75 173.625Z" fill="#060608"/>
<path d="M575.125 174.25H594.5L598.875 176.125L602.625 179.25L604.5 183L605.125 189.25L603.25 194.875L600.75 198L595.75 200.5L592 201.125H584.5V216.125L575.75 216.75L575.125 216.125V174.25Z" fill="#060507"/>
<path d="M907 174.25H931.375V183L917 183.625V191.125H930.75V199.875L917 200.5V206.75L917.625 207.375L931.375 208V216.125L930.75 216.75H907.625L907 213.625V174.25Z" fill="#060506"/>
<path d="M653.875 174.25H677.625V183H663.25V191.125H677V199.875H663.25L663.875 207.375H677.625V215.5L676.375 216.75H653.875L653.25 209.25V174.875L653.875 174.25Z" fill="#06070B"/>
<path d="M183.25 174.25H207.625V179.875L207 183H192.625L193.25 190.5L206.375 191.125L207 191.75V199.25L206.375 199.875L193.25 200.5V207.375L207 208V216.125L204.5 216.75H183.875L183.25 216.125V174.25Z" fill="#060507"/>
<path d="M488.875 174.25H512.625V183H498.25L498.875 190.5L512 191.125L512.625 194.25L512 199.875H498.25L498.875 207.375L512.625 208V216.125L512 216.75H488.875L488.25 201.125L488.875 174.25Z" fill="#060404"/>
<path d="M253.25 174.25H262.625L264.5 174.875L270.75 191.75L273.875 199.875V201.125H275.125L277 194.875L284.5 174.875L285.125 174.25H295.125L294.5 178.625L289.5 191.125L280.75 211.125L277.625 216.75L275.125 217.375L271.375 216.125L267.625 209.875L264.5 203L255.125 179.875L253.25 174.25Z" fill="#060608"/>
<path d="M338.25 173.625H346.375L353.875 175.5L355.125 178L353.25 183.625L352 184.875L344.5 183.625H340.125L335.125 185.5L330.75 190.5L330.125 192.375V198.625L332.625 203.625L337.625 206.75H347.625L352 205.5L354.5 210.5L353.875 213.625L350.125 216.125L345.125 218H340.125L333.875 216.125L327 211.75L322 206.75L319.5 201.75L318.875 198.625V192.375L320.75 186.75L323.875 181.75L328.875 177.375L333.25 174.875L338.25 173.625Z" fill="#060608"/>
<path d="M445.125 173.625H453.25L460.125 176.125L460.75 180.5L458.875 183.625L454.5 184.25L450.125 183L445.75 183.625L444.5 185.5L445.125 188L457 194.25L460.125 196.75L462.625 201.75V206.75L460.125 211.75L455.75 215.5L450.75 217.375H443.875L436.375 215.5L432 213L432.625 208.625L435.125 203.625L442.625 207.375L448.25 208L450.75 206.75L451.375 204.25L450.125 201.75L440.125 196.125L435.75 191.125L434.5 186.75L435.125 181.75L438.875 176.75L443.25 174.25L445.125 173.625Z" fill="#060608"/>
<path d="M157.625 173.625H164.5L170.75 175.5L172.625 177.375L172 181.75L170.125 184.25L165.125 183.625L158.25 183H157V188.625L160.125 189.875L168.875 194.25L172 196.75L174.5 201.75V207.375L172 212.375L168.875 214.875L165.125 216.75L162.625 217.375H155.125L147 214.875L143.25 211.75L147 204.25L149.5 204.875L154.5 207.375L159.5 208L163.875 206.75L163.25 203L157.625 199.25L151.375 195.5L147.625 191.125L146.375 188L147 182.375L150.75 176.75L155.125 174.25L157.625 173.625Z" fill="#060609"/>
<path d="M953.25 173.625H961.375L967.625 176.125L968.875 177.375L968.25 181.125L966.375 184.25L956.375 183L953.25 184.25L952.625 187.375L961.375 192.375L967 196.125L969.5 199.25L970.125 201.125V208.625L967.625 212.375L962.625 216.125L957.625 217.375H952.625L944.5 215.5L940.125 212.375L940.75 208L942 204.875L945.75 205.5L950.75 207.375L956.375 208L959.5 206.75L958.875 203L955.75 200.5L948.25 196.125L944.5 193L942.625 189.25V183.625L945.125 178.625L950.125 174.875L953.25 173.625Z" fill="#060508"/>
<path d="M700.125 173.625H707.625L713.875 176.125L715.125 177.375V180.5L712.625 184.25L701.375 183L698.875 184.25V187.375L705.125 191.125L712 194.875L715.75 199.25L717 202.375V207.375L714.5 211.75L708.875 216.125L703.25 218H698.875L690.75 214.875L686.375 211.75L687.625 206.125L688.25 204.875L693.25 205.5L697 207.375H702.625L706.375 205.5V203L695.75 196.75L690.75 192.375L688.875 188V183.625L691.375 178.625L696.375 174.875L700.125 173.625Z" fill="#060608"/>
<path d="M874.5 174.25H883.875L884.5 207.375L898.25 208V215.5L897.625 216.125L890.75 216.75H874.5V174.25Z" fill="#060507"/>
<path d="M687.625 44.25H698.25L703.875 46.125L708.25 50.5L709.5 54.25V61.125L706.375 67.375L703.25 69.25L695.75 71.125H688.25L687 67.375L687.625 44.25Z" fill="#FEFEFE"/>
<path d="M400.125 183H405.125L410.125 185.5L412.625 190.5L413.25 192.375V199.25L410.75 204.25L407 207.375L405.75 208H399.5L395.75 206.125L392.625 202.375L391.375 197.375L392 191.125L393.875 187.375L398.25 183.625L400.125 183Z" fill="#FAFCFE"/>
<path d="M301.375 174.25H310.75L311.375 174.875V213.625L310.125 216.75H302.625L301.375 214.25V174.25Z" fill="#06070B"/>
<path d="M363.875 174.25H373.25L373.875 174.875V208L373.25 216.125L370.75 216.75H364.5L363.875 216.125V174.25Z" fill="#06070B"/>
<path d="M810.125 174.25H819.5L820.125 174.875V210.5L819.5 216.125L815.75 216.75H810.75L810.125 215.5V174.25Z" fill="#060B15"/>
<path d="M52.625 58L55.125 60.5L60.125 73.625L65.125 85.5V88H42L42.625 84.25L50.75 63L52.625 58Z" fill="#F5F9FE"/>
<path d="M585.125 182.375H590.75L594.5 184.875V190.5L591.375 193H585.125L584.5 191.75V183L585.125 182.375Z" fill="#F5F9FE"/>
<path d="M779.5 182.375H784.5L788.25 185.5V189.25L785.75 192.375L783.25 193.625L780.125 193L778.875 190.5V183L779.5 182.375Z" fill="#F5F9FE"/>
<path d="M622.625 182.375H628.25L631.375 185.5L630.75 190.5L627.625 193H623.25L622 188.625V183L622.625 182.375Z" fill="#F7FAFE"/>
<path d="M227.625 181.75L232 182.375L235.75 186.75L235.125 190.5L231.375 193L228.875 193.625L226.375 192.375V183L227.625 181.75Z" fill="#F5F9FE"/>
<path d="M846.375 188.625H847.625L850.75 195.5L852 199.25L851.375 199.875H843.875L843.25 197.375L846.375 188.625Z" fill="#EDF5FE"/>
<path d="M742 188.625L744.5 191.125L746.375 197.375V199.875H738.25L740.125 193.625L742 188.625Z" fill="#EBF4FE"/>
</svg>
