<?xml version="1.0" encoding="UTF-8"?>
<svg version="1.1" viewBox="0 0 2048 512" width="1280" height="1280" xmlns="http://www.w3.org/2000/svg">
<path transform="translate(0)" d="m0 0h2048v512h-2048z" fill="#FDFDFE"/>
<path transform="translate(1070,119)" d="m0 0h14l17 3 15 6 11 7 10 9 9 10 9 16 5 16 2 12v20l-3 15-4 11-7 13-11 14-8 7-15 9-13 5-16 3h-21l-17-4-11-5-10-6-10-9-8-9-8-14-5-12-4-20v-21l4-17 6-14 8-12 11-12 13-9 19-9z" fill="#CD2A38"/>
<path transform="translate(699,120)" d="m0 0h23l16 4 17 8 12 9 8 8 10 15 7 16 3 13v27l-3 14-6 15-8 12-9 10-10 9-16 9-14 4-12 2h-15l-18-4-12-5-12-7-13-12-9-12-8-17-4-17-1-16 2-17 5-16 8-15 11-13 12-10 12-7 14-5z" fill="#074CA6"/>
<path transform="translate(1436,122)" d="m0 0h38l8 11 25 40 14 22 11 17 7 11v2h2v-102l2-1h37l1 3v98l-1 69-17 1h-20l-7-9-11-17-28-44-10-15-11-18-1 21-1 81-1 1h-30l-8-1v-169z" fill="#CD2A38"/>
<path transform="translate(1197,122)" d="m0 0h56l16 2 15 5 11 7 7 8 4 8 3 11 1 6v10l-3 13-7 13-9 9-10 6-4 2 4 6 13 15 9 12 12 14 9 11 6 8 1 4h-48l-3-3-6-9-11-14-14-18-15-20-1 64h-40v-169z" fill="#CD2A38"/>
<path transform="translate(1688,119)" d="m0 0h15l14 2 15 5 14 8 12 9 3 3-1 4-9 10-7 8-6 7-4-2-4-3v-2l-4-2-10-7-16-4-13 2-11 6-7 6-8 14-4 14-1 6v10l3 13 8 16 6 7 9 6 11 3h9l15-4 8-6 6-9 2-6v-5l-37-1-1-2v-27l2-2h77l1 1v20l-1 18-5 15-7 13-9 10-10 8-12 7-15 5-21 3-17-2-14-5-11-6-13-10-8-9-9-14-6-14-4-20v-20l3-15 5-13 8-15 12-13 14-10 14-7 12-3z" fill="#CD2A38"/>
<path transform="translate(202,122)" d="m0 0 34 1 7 15 14 36 12 29 22 55 11 27 1 6-11 1h-15l-14-1-5-12-7-19-1-1-63-1-5 12-8 21-3 1h-22l-16-1 3-9 21-52 32-79 11-26z" fill="#074DA7"/>
<path transform="translate(442,122)" d="m0 0h13v122l-4 16-6 12-6 7-14 9-16 5-12 2h-16l-20-4-14-7-10-9-8-13-4-14-1-9v-116h38l1 102 2 15 5 10 8 5 5 1h11l9-2 6-4 4-6 3-12 1-108 1-1z" fill="#074DA7"/>
<path transform="translate(905,119)" d="m0 0h16l20 3 15 5 11 6 1 4-8 17-7 12-3 2-5-3-13-5-6-1h-15l-15 3-12 6-9 8-7 11-3 9-1 5v10l4 14 6 11 8 9 8 5 13 4 6 1h18l16-4 6-4 4 1 8 14 7 16v3l-15 7-13 4-18 3h-20l-18-4-16-7-14-9-9-8-10-13-8-14-5-15-2-14 1-16 4-15 8-16 6-9 12-13 13-9 21-10 12-3z" fill="#CD2A38"/>
<path transform="translate(522,122)" d="m0 0h20l61 1v27l-1 7h-39l-1 135h-28l-10-1v-134h-33l-7-1v-33z" fill="#074DA7"/>
<path transform="translate(704,157)" d="m0 0h14l9 2 10 6 8 9 4 6 5 16v21l-3 12-7 13-5 6-9 6-9 3-6 1h-8l-11-2-12-6-7-7-6-11-3-9-1-5v-21l5-16 7-11 8-7 8-4z" fill="#FBFCFE"/>
<path transform="translate(1066,158)" d="m0 0h20l10 3 8 6 7 8 6 12 2 9v22l-4 14-6 10-6 7-11 6-10 2h-9l-15-3-9-6-6-7-5-9-3-9-2-12v-9l2-12 5-12 7-9 9-8z" fill="#FEFEFE"/>
<path transform="translate(1363,122)" d="m0 0h32v170l-22 1-17-1v-169z" fill="#CB2A38"/>
<path transform="translate(1906,84)" d="m0 0h6l-1 4-9 15-13 21-9 13-8 9-5 3-7-1-27-18-8-6-5 2-14 12-17 12-5 3h-7l1-6 11-18 17-25 9-12 7-7 14 7 20 14 7 5 5-1 20-14 15-11z" fill="#91C4FE"/>
<path transform="translate(771,361)" d="m0 0h11l10 3 6 4 8 9 4 9 1 6v9l-3 11-8 11-10 6-8 2h-10l-10-3-10-7-6-9-3-9v-14l5-12 7-9 11-6z" fill="#060608"/>
<path transform="translate(972,362)" d="m0 0h15l4 8 10 28 2 1 3-9 11-27 1-1h16l3 32 2 25v10l-14 1-2-11-1-23-1-2-11 27-3 7-4 2-5-1-7-17-6-18h-1l-3 31-2 5h-13l-1-4 4-48 2-15z" fill="#060608"/>
<path transform="translate(480,362)" d="m0 0h28l8 2 5 4 4 7 1 4v9l-3 6-7 6-2 2 6 8 11 13 3 7h-11l-9-2-16-20-3-2v23l-14 1-1-1-1-12v-51z" fill="#06060A"/>
<path transform="translate(1113,362)" d="m0 0h29l9 3 6 7 2 4 1 9-4 10-7 6h-2l6 9 12 14 2 3v3h-12l-6-2-5-5-10-12-4-5-2-1 1 21-1 3-14 1-1-1z" fill="#060507"/>
<path transform="translate(1364,362)" d="m0 0h29l8 3 6 5 3 7 1 7-4 10-5 5-3 4 10 13 8 9 2 5h-15l-5-2-9-11-8-10-3-2v23l-6 2h-8l-1-3z" fill="#060506"/>
<path transform="translate(1314,362)" d="m0 0h13l3 3 5 13 13 33 7 17v2l-16-1-3-6-2-5-1-1h-24l-3 5-3 7-6 1-10-1 6-16 15-38 5-12z" fill="#060508"/>
<path transform="translate(1486,361)" d="m0 0 8 1 4 5 18 44 6 17v2l-16-1-4-12-26-1-3 7-3 6-15 1 3-12 11-26 10-23 3-6z" fill="#060608"/>
<path transform="translate(1053,362)" d="m0 0h31l7 3 6 5 3 6 1 10-3 9-4 5-8 4-6 1h-12v24l-14 1-1-1z" fill="#060507"/>
<path transform="translate(1584,362)" d="m0 0h39v14l-23 1v12h22v14l-22 1v10l1 1 22 1v13l-1 1h-37l-1-5z" fill="#060506"/>
<path transform="translate(1179,362)" d="m0 0h38v14h-23v13h22v14h-22l1 12h22v13l-2 2h-36l-1-12v-55z" fill="#06070B"/>
<path transform="translate(426,362)" d="m0 0h39v9l-1 5h-23l1 12 21 1 1 1v12l-1 1-21 1v11l22 1v13l-4 1h-33l-1-1z" fill="#060507"/>
<path transform="translate(915,362)" d="m0 0h38v14h-23l1 12 21 1 1 5-1 9h-22l1 12 22 1v13l-1 1h-37l-1-25z" fill="#060404"/>
<path transform="translate(538,362)" d="m0 0h15l3 1 10 27 5 13v2h2l3-10 12-32 1-1h16l-1 7-8 20-14 32-5 9-4 1-6-2-6-10-5-11-15-37z" fill="#060608"/>
<path transform="translate(674,361)" d="m0 0h13l12 3 2 4-3 9-2 2-12-2h-7l-8 3-7 8-1 3v10l4 8 8 5h16l7-2 4 8-1 5-6 4-8 3h-8l-10-3-11-7-8-8-4-8-1-5v-10l3-9 5-8 8-7 7-4z" fill="#060608"/>
<path transform="translate(845,361)" d="m0 0h13l11 4 1 7-3 5-7 1-7-2-7 1-2 3 1 4 19 10 5 4 4 8v8l-4 8-7 6-8 3h-11l-12-3-7-4 1-7 4-8 12 6 9 1 4-2 1-4-2-4-16-9-7-8-2-7 1-8 6-8 7-4z" fill="#060608"/>
<path transform="translate(385,361)" d="m0 0h11l10 3 3 3-1 7-3 4-8-1-11-1h-2v9l5 2 14 7 5 4 4 8v9l-4 8-5 4-6 3-4 1h-12l-13-4-6-5 6-12 4 1 8 4 8 1 7-2-1-6-9-6-10-6-6-7-2-5 1-9 6-9 7-4z" fill="#060609"/>
<path transform="translate(1658,361)" d="m0 0h13l10 4 2 2-1 6-3 5-16-2-5 2-1 5 14 8 9 6 4 5 1 3v12l-4 6-8 6-8 2h-8l-13-3-7-5 1-7 2-5 6 1 8 3 9 1 5-2-1-6-5-4-12-7-6-5-3-6v-9l4-8 8-6z" fill="#060508"/>
<path transform="translate(1253,361)" d="m0 0h12l10 4 2 2v5l-4 6-18-2-4 2v5l10 6 11 6 6 7 2 5v8l-4 7-9 7-9 3h-7l-13-5-7-5 2-9 1-2 8 1 6 3h9l6-3v-4l-17-10-8-7-3-7v-7l4-8 8-6z" fill="#060608"/>
<path transform="translate(1532,362)" d="m0 0h15l1 53 22 1v12l-1 1-11 1h-26z" fill="#060507"/>
<path transform="translate(1233,154)" d="m0 0h17l9 3 7 7 2 6v11l-5 10-5 3-12 3h-12l-2-6z" fill="#FEFEFE"/>
<path transform="translate(773,376)" d="m0 0h8l8 4 4 8 1 3v11l-4 8-6 5-2 1h-10l-6-3-5-6-2-8 1-10 3-6 7-6z" fill="#FAFCFE"/>
<path transform="translate(615,362)" d="m0 0h15l1 1v62l-2 5h-12l-2-4z" fill="#06070B"/>
<path transform="translate(715,362)" d="m0 0h15l1 1v53l-1 13-4 1h-10l-1-1z" fill="#06070B"/>
<path transform="translate(1429,362)" d="m0 0h15l1 1v57l-1 9-6 1h-8l-1-2z" fill="#060B15"/>
<path transform="translate(217,176)" d="m0 0 4 4 8 21 8 19v4h-37l1-6 13-34z" fill="#F5F9FE"/>
<path transform="translate(1069,375)" d="m0 0h9l6 4v9l-5 4h-10l-1-2v-14z" fill="#F5F9FE"/>
<path transform="translate(1380,375)" d="m0 0h8l6 5v6l-4 5-4 2-5-1-2-4v-12z" fill="#F5F9FE"/>
<path transform="translate(1129,375)" d="m0 0h9l5 5-1 8-5 4h-7l-2-7v-9z" fill="#F7FAFE"/>
<path transform="translate(497,374)" d="m0 0 7 1 6 7-1 6-6 4-4 1-4-2v-15z" fill="#F5F9FE"/>
<path transform="translate(1487,385)" d="m0 0h2l5 11 2 6-1 1h-12l-1-4z" fill="#EDF5FE"/>
<path transform="translate(1320,385)" d="m0 0 4 4 3 10v4h-13l3-10z" fill="#EBF4FE"/>
</svg>
